<?xml version="1.0" standalone="no"?>
<!DOCTYPE svg PUBLIC "-//W3C//DTD SVG 1.1//EN" "http://www.w3.org/Graphics/SVG/1.1/DTD/svg11.dtd" >
<svg xmlns="http://www.w3.org/2000/svg" xmlns:xlink="http://www.w3.org/1999/xlink" version="1.1">
<metadata>
Created by FontForge 20170731 at Fri Jul  2 09:30:10 2021
 By Aleksey,,,
Westiva fonts (c) asenbayu 2021. All Rights Reserved
</metadata>
<defs>
<font id="WestivaRegular" horiz-adv-x="503" >
  <font-face 
    font-family="Westiva Regular"
    font-weight="400"
    font-stretch="normal"
    units-per-em="1000"
    panose-1="0 0 0 0 0 0 0 0 0 0"
    ascent="800"
    descent="-200"
    x-height="507"
    cap-height="700"
    bbox="-472.235 -266.667 1013 966"
    underline-thickness="50"
    underline-position="-175"
    unicode-range="U+000A-FB06"
  />
<missing-glyph horiz-adv-x="527" 
d="M477 700v-700h-427v700h427zM263 371l186 309h-371zM71 650v-601l180 301zM79 21h370l-185 308zM457 47v605l-181 -302z" />
    <glyph glyph-name="uniF021" unicode="fb" horiz-adv-x="783" 
d="M370 285q1 -17 3.5 -34.5t7.5 -35.5q12 -46 34 -83t49.5 -61.5t58 -35t59.5 -3.5q29 8 50.5 32t32.5 59.5t11.5 78.5t-11.5 89t-34 83t-49.5 61.5t-58 35t-59.5 2.5q-42 -11 -66.5 -53t-27.5 -101v-34zM54 451v19h27v29q0 17 0.5 35t2.5 36q8 60 40 94q34 34 95 34
q23 0 44 -7.5t37 -20.5q19 3 38 10t32 18v-271q29 36 68.5 57t84.5 21q44 0 82 -20t67 -54t45.5 -80t16.5 -98t-16.5 -98.5t-45.5 -80.5t-67 -54t-82 -20q-34 0 -64 12t-56 32q-25 20 -46 14q-18 -4 -32 -21t-25 -37v558q-3 20 -15.5 37.5t-30.5 30.5q-16 12 -35 19t-37 8
q-17 1 -33.5 -6.5t-27.5 -24.5q-12 -17 -12 -40t10 -46q12 -28 34.5 -47t51.5 -19h23v-19h-78v-344q0 -48 10 -73t17 -34h-123q15 23 21 52t6 55v344h-27z" />
    <glyph glyph-name="uniF022" unicode="fh" horiz-adv-x="722" 
d="M53 451v19h27v29q0 17 0.5 35t2.5 36q8 60 40 94q34 34 95 34q23 0 44 -8t38 -21q20 3 38.5 10t29.5 19v-276q15 35 49 59.5t79 24.5q29 0 56.5 -10.5t49 -31.5t34.5 -52.5t13 -74.5v-230q0 -48 10 -73t16 -34h-122q15 23 20.5 52t5.5 55v231q0 28 -6.5 54.5t-19.5 46.5
t-33 32t-47 10q-40 -2 -71 -39q-17 -21 -25.5 -48.5t-8.5 -55.5v-231q0 -48 10.5 -73t16.5 -34h-122q15 23 20.5 52t5.5 55v450q-3 20 -15.5 37.5t-30.5 31.5q-35 25 -72 27q-17 1 -33.5 -6.5t-27.5 -24.5q-12 -17 -12 -40t10 -46q12 -28 34.5 -47t50.5 -19h24v-19h-78v-344
q0 -48 10 -73t17 -34h-123q15 23 21 52t6 55v344h-27z" />
    <glyph glyph-name="uniF023" unicode="fj" horiz-adv-x="442" 
d="M300 368q0 38 -6 60q-5 18 -10.5 29.5t-9.5 17.5q10 0 23 2t26 5.5t25.5 9.5t21.5 13v-534q0 -17 -1 -34.5t-5 -34.5q-10 -42 -36.5 -68.5t-71.5 -26.5q-22 0 -39.5 3.5t-30.5 11.5q-21 14 -30 36t-5 44t19.5 38t44.5 17q19 1 34.5 -10.5t17.5 -34.5q-14 4 -24.5 2
t-18 -9t-11.5 -16.5t-4 -19.5q0 -19 12 -34.5t35 -14.5q29 1 44.5 24.5t17.5 53.5q2 20 -2.5 39t-15.5 34v397zM54 451v19h27v29q0 17 0.5 35t2.5 36q8 61 40 93q37 35 100 35q20 0 40 -5t39 -13q11 -5 25.5 -14.5t27.5 -20.5q12 -12 20.5 -24.5t8.5 -26.5q0 -21 -15 -35.5
t-35 -14.5q-14 0 -23.5 5.5t-15.5 13.5q-7 9 -10.5 18.5t-7.5 17.5q-10 20 -28.5 34.5t-40.5 19.5q-24 6 -47 -0.5t-37 -23.5q-15 -19 -16 -44q0 -26 10 -49q12 -28 34.5 -47t50.5 -19h24v-19h-78v-344q0 -48 10 -73t17 -34h-123q15 23 21 52t6 55v344h-27z" />
    <glyph glyph-name="uniF024" unicode="fk" horiz-adv-x="656" 
d="M54 451v19h27v29q0 17 0.5 35t2.5 36q8 60 40 94q34 34 95 34q22 0 43.5 -7.5t37.5 -20.5q19 3 37.5 10t31.5 18v-419l99 73q22 17 31 37q16 34 -1 58q-13 17 -39 18q-26 0 -47 -16q6 23 27 39.5t49 16.5q32 0 54 -19t24 -45q2 -19 -6.5 -38.5t-26.5 -35.5
q-11 -11 -24.5 -20t-26.5 -17l-30 -21l100 -202q12 -24 22 -41t20.5 -29t21.5 -20.5t24 -16.5h-155q11 11 14 23.5t1.5 27t-7 29t-12.5 27.5l-80 166l-32 -22v-144q0 -48 10.5 -73t16.5 -34h-122q15 23 20.5 52t5.5 55v450q-3 20 -15.5 37.5t-30.5 31.5q-35 25 -72 27
q-18 1 -34 -6.5t-27 -24.5q-12 -17 -12 -40t10 -46q12 -28 34.5 -47t50.5 -19h24v-19h-78v-344q0 -48 10 -73t17 -34h-123q15 23 21 52t6 55v344h-27z" />
    <glyph glyph-name="uniF025" unicode="ft" horiz-adv-x="552" 
d="M299 451h-26v19h26v88q-3 20 -15.5 37.5t-30.5 30.5q-35 25 -72 27q-18 1 -34 -6.5t-27 -24.5q-12 -17 -12 -40t10 -46q12 -28 34.5 -47t50.5 -19h24v-19h-78v-344q0 -48 10 -73t17 -34h-123q15 23 21 52t6 55v344h-27v19h27v29q0 17 0.5 35t2.5 36q8 60 40 94
q34 34 95 34q22 0 43 -7.5t38 -20.5q19 3 37.5 10t31.5 18v-228h78v-19h-78v-246q-20 -18 -30 -43q-11 -26 -10 -48t11 -38q12 -20 34.5 -27.5t45.5 2.5q16 6 27 17.5t19 25t13.5 28.5t11.5 30q20 -18 26.5 -40.5t0.5 -44.5q-7 -27 -31 -47t-61 -20q-49 0 -81 32
q-17 17 -27.5 42t-14.5 54q-2 18 -2.5 36t-0.5 35v252z" />
    <glyph glyph-name="uniF026" unicode="ffj" horiz-adv-x="662" 
d="M520 368q0 18 -2 33.5t-4 26.5q-5 18 -11 29.5t-10 17.5q11 0 24 2t26 5.5t25 9.5t21 13v-534q0 -17 -1 -34.5t-5 -34.5q-9 -42 -36 -68.5t-72 -26.5q-22 0 -39.5 3.5t-29.5 11.5q-22 14 -30.5 36t-5.5 44q4 22 20 38t44 17q20 1 35.5 -10.5t17.5 -34.5q-14 4 -24.5 2
t-18 -9t-11.5 -16.5t-4 -19.5q0 -19 12 -34.5t35 -14.5q28 1 43.5 24.5t17.5 53.5q2 20 -2 39t-15 34v397zM81 451h-27v19h27v29q0 17 0.5 35t2.5 36q8 60 40 94q34 34 95 34q34 0 64.5 -17t41.5 -41q8 12 19 23q35 35 100 35q20 0 40 -5t38 -13q12 -5 26.5 -14.5
t27.5 -20.5q12 -12 20.5 -24.5t8.5 -26.5q0 -21 -15 -35.5t-36 -14.5q-14 0 -23 5.5t-16 13.5q-7 9 -10 18.5t-8 17.5q-10 20 -28 34.5t-40 19.5q-25 6 -47.5 -0.5t-36.5 -23.5q-15 -19 -16 -44q-1 -23 10 -49q11 -28 34 -47t51 -19h24v-19h-78v-344q0 -48 10 -73t16 -34
h-122q15 23 20.5 52t5.5 55v344h-26v19h26v29v23t1 24q0 23 -13.5 44t-33.5 36q-16 12 -35 19t-37 8q-17 1 -33.5 -6.5t-27.5 -24.5q-12 -17 -12 -40t10 -46q12 -28 34.5 -47t50.5 -19h24v-19h-78v-344q0 -48 10 -73t17 -34h-123q15 23 21 52t6 55v344z" />
    <glyph glyph-name="f_f" unicode="ff" horiz-adv-x="477" 
d="M53 451v19h27v29q0 17 0.5 35t2.5 36q8 60 40 94q34 34 95 34q34 0 64.5 -17t41.5 -41q9 13 20 26q32 32 81 32q37 0 61 -20t31 -48q6 -21 -0.5 -43.5t-26.5 -40.5q-6 14 -11.5 29.5t-13.5 29t-19 25t-26 17.5q-23 9 -45.5 1.5t-35.5 -27.5q-10 -15 -11 -37t10 -48
q11 -28 34 -47t51 -19h24v-19h-78v-344q0 -48 10 -73t16 -34h-122q15 23 20.5 52t5.5 55v344h-26v19h26v29v23t1 24q0 23 -13.5 44t-33.5 36q-16 12 -35 19t-37 8q-17 1 -33.5 -6.5t-27.5 -24.5q-12 -17 -12 -40t10 -46q12 -28 34.5 -47t50.5 -19h24v-19h-78v-344
q0 -48 10 -73t17 -34h-123q15 23 21 52t6 55v344h-27z" />
    <glyph glyph-name="fi" unicode="fi" horiz-adv-x="449" 
d="M54 451v19h27v29q0 17 0.5 35t2.5 36q8 61 40 93q37 35 100 35q20 0 40 -5t39 -13q11 -5 25.5 -14.5t27.5 -20.5q12 -12 20.5 -24.5t8.5 -26.5q0 -21 -15 -35.5t-35 -14.5q-14 0 -23.5 5.5t-15.5 13.5q-7 9 -10.5 18.5t-7.5 17.5q-10 20 -28.5 34.5t-40.5 19.5
q-24 6 -46.5 -0.5t-36.5 -23.5q-16 -19 -17 -44q0 -26 10 -49q12 -28 34.5 -47t50.5 -19h24v-19h-78v-344q0 -48 10 -73t17 -34h-123q15 23 21 52t6 55v344h-27zM300 368q0 36 -6 60q-5 18 -10.5 29t-9.5 18q10 0 23 2t26 5.5t25.5 9.5t21.5 13v-398q0 -48 10 -73t16 -34
h-122q15 23 20.5 52t5.5 55v261z" />
    <glyph glyph-name="fl" unicode="fl" horiz-adv-x="449" 
d="M300 557q-3 20 -15.5 37.5t-30.5 31.5q-16 12 -35 19t-37 8q-17 1 -33.5 -6.5t-27.5 -24.5q-12 -17 -12 -40t10 -46q12 -28 34.5 -47t50.5 -19h24v-19h-78v-344q0 -48 10 -73t17 -34h-123q15 23 21 52t6 55v344h-27v19h27v29q0 17 0.5 35t2.5 36q8 60 40 94q34 34 95 34
q23 0 44 -7.5t37 -20.5q19 3 38 10t32 18v-591q0 -48 10 -73t16 -34h-122q15 23 20.5 52t5.5 55v450z" />
    <glyph glyph-name="f_f_i" unicode="ffi" horiz-adv-x="668" 
d="M81 451h-27v19h27v29q0 17 0.5 35t2.5 36q8 60 40 94q34 34 95 34q17 0 33.5 -4.5t30.5 -12.5t25 -18.5t17 -22.5q4 7 9 12.5t10 10.5q35 35 100 35q20 0 39.5 -5t38.5 -13q11 -5 25.5 -14.5t27.5 -20.5q13 -12 21 -24.5t8 -26.5q0 -21 -14.5 -35.5t-35.5 -14.5
q-14 0 -23 5.5t-16 13.5q-7 9 -10 18.5t-8 17.5q-10 20 -28 34.5t-40 19.5q-25 6 -47.5 -0.5t-36.5 -23.5q-16 -19 -16 -44q-1 -12 1.5 -24.5t7.5 -24.5q12 -28 35 -47t51 -19h23v-19h-78v-344q0 -48 10.5 -73t16.5 -34h-122q15 23 20.5 52t5.5 55v344h-26v19h26v29v23t1 24
v0q0 23 -13.5 44t-33.5 36q-35 25 -72 27q-18 1 -34 -6.5t-27 -24.5q-12 -17 -12 -40t10 -46q12 -28 34.5 -47t50.5 -19h24v-19h-78v-344q0 -48 10 -73t17 -34h-123q15 23 21 52t6 55v344zM520 368q0 18 -2 33t-5 27q-4 18 -10 29t-10 18q21 -1 49.5 7.5t46.5 22.5v-398
q0 -48 10 -73t17 -34h-123q15 23 21 52t6 55v261z" />
    <glyph glyph-name="f_f_l" unicode="ffl" horiz-adv-x="666" 
d="M588 107q0 -48 10.5 -72.5t16.5 -34.5h-123q14 20 20 46t7 51v10v450q-3 21 -15.5 38.5t-30.5 30.5q-35 25 -72 27q-18 1 -34 -6t-28 -24q-2 -3 -4 -9q-4 -9 -6 -20q-5 -29 9 -58q11 -27 34 -46t51 -19h24v-20h-78v-344q0 -47 10 -72t16 -35h-122q15 23 20.5 52t5.5 55
v344h-26v20h26v28v23t1 24q0 23 -13.5 44t-33.5 36q-16 12 -35 19t-37 8q-17 1 -33.5 -6t-27.5 -24q-12 -18 -12 -41t10 -46q12 -27 34.5 -46t50.5 -19h24v-20h-78v-344q0 -47 10 -72t17 -35h-123q15 23 21 52t6 55v344h-27v20h27v28q0 17 0.5 35t2.5 36q4 29 13.5 53
t26.5 41q34 34 95 34q33 0 64 -16.5t42 -41.5q10 15 19 24q34 34 95 34q22 0 43.5 -7.5t37.5 -20.5q18 4 37 11t32 17v-591z" />
    <glyph glyph-name=".notdef" horiz-adv-x="527" 
d="M477 700v-700h-427v700h427zM263 371l186 309h-371zM71 650v-601l180 301zM79 21h370l-185 308zM457 47v605l-181 -302z" />
    <glyph glyph-name=".null" horiz-adv-x="0" 
 />
    <glyph glyph-name=".null" horiz-adv-x="0" 
 />
    <glyph glyph-name="uni000D" unicode="&#xd;" horiz-adv-x="0" 
 />
    <glyph glyph-name="uni000A" unicode="&#xa;" horiz-adv-x="0" 
 />
    <glyph glyph-name="space" unicode=" " horiz-adv-x="319" 
 />
    <glyph glyph-name="exclam" unicode="!" horiz-adv-x="249" 
d="M179 700l-35 -499h-40l-34 499h109zM184 52q0 -21 -17.5 -36.5t-41.5 -15.5q-25 0 -42.5 15.5t-17.5 36.5q0 22 17.5 37t42.5 15q24 0 41.5 -15t17.5 -37z" />
    <glyph glyph-name="quotedbl" unicode="&#x22;" horiz-adv-x="348" 
d="M100 700q25 0 42.5 -15t17.5 -37q0 -25 -7 -51.5t-21.5 -51t-36 -45t-50.5 -32.5l-4 6q34 27 45.5 60t13.5 62q-24 0 -41.5 15.5t-17.5 36.5q0 22 17.5 37t41.5 15zM248 700q24 0 41.5 -15t17.5 -37q0 -25 -7 -51.5t-21.5 -51t-35.5 -45t-50 -32.5l-5 6q34 27 45.5 60
t13.5 62q-24 0 -41.5 15.5t-17.5 36.5q0 22 17.5 37t42.5 15z" />
    <glyph glyph-name="numbersign" unicode="#" horiz-adv-x="699" 
d="M297 700h63l-57 -209h168l56 209h62l-56 -209h117l-17 -60h-116l-43 -162h116l-16 -60h-116l-56 -209h-63l56 209h-167l-56 -209h-63l56 209h-116l16 60h116l43 162h-115l16 60h116zM287 431l-43 -162h167l43 162h-167z" />
    <glyph glyph-name="dollar" unicode="$" horiz-adv-x="552" 
d="M262 233q-34 30 -74 24q-24 -3 -40.5 -18t-24.5 -36q-8 -18 -7 -39t7 -40q8 -24 24 -45.5t37 -35.5q35 -23 78 -26v216zM301 19q36 4 62 20q35 21 50.5 54.5t13.5 70.5q-2 35 -14.5 64.5t-32.5 55.5q-17 21 -37 40.5t-42 36.5v-342zM262 391l-4 3q-23 17 -50.5 39.5
t-51.5 49.5q-23 26 -38 55.5t-13 60.5q4 38 31 62.5t62 32.5q33 8 62 6h2v86h39v-89q26 -5 50 -10t52 -3q14 0 26.5 3.5t20.5 10.5v-166q-11 34 -22.5 60.5t-28 45.5t-40 30t-58.5 14v-240v-1q34 -26 69.5 -56.5t64.5 -65.5q27 -34 43 -73t11 -85q-5 -47 -33 -84.5
t-76 -57.5q-34 -15 -79 -18v-86h-39v85q-49 3 -91 21q-32 14 -58.5 37.5t-41.5 55.5q-17 35 -12.5 72.5t24.5 66.5q21 30 53.5 41t62.5 3q20 -5 36 -18t27 -33v145v0zM262 683q-12 0 -24.5 -1t-24.5 -6q-23 -8 -38 -26t-10 -48q3 -22 17 -44t31 -41q11 -12 23.5 -23
t25.5 -22v211z" />
    <glyph glyph-name="percent" unicode="%" horiz-adv-x="725" 
d="M275 545q-9 32 -23.5 58t-33 43t-38.5 24.5t-40 2.5q-19 -5 -33 -21.5t-21 -40.5t-7 -54t9 -62q8 -31 23 -57t33 -43.5t38.5 -25t39.5 -2.5q20 5 33.5 22t20.5 41t7 54t-8 61zM413 180q0 37 10 70t27.5 57.5t41 38.5t50.5 14t50.5 -14t41.5 -38.5t28 -57.5t10 -70
t-10 -70t-28 -57.5t-41.5 -38.5t-50.5 -14t-50.5 14t-41 38.5t-27.5 57.5t-10 70zM449 155q9 -32 23.5 -58t33 -43t38.5 -24.5t39 -2.5q20 5 33.5 21.5t20.5 40.5t7 54t-8 62q-9 32 -23.5 57.5t-33 43t-38.5 25t-39 2.5t-33 -22t-21 -41t-7 -53.5t8 -61.5zM533 700
l-285 -700h-57l285 700h57zM52 520q0 37 10 70t27.5 57.5t41 38.5t50.5 14t50.5 -14t41.5 -38.5t28 -57.5t10 -70t-10 -70t-28 -57.5t-41.5 -38.5t-50.5 -14t-50.5 14t-41 38.5t-27.5 57.5t-10 70z" />
    <glyph glyph-name="ampersand" unicode="&#x26;" horiz-adv-x="653" 
d="M483 568q3 -32 -9 -58.5t-33 -42.5t-49.5 -17t-60.5 18q26 2 45 13.5t32 29.5q26 37 22.5 76.5t-29.5 65.5q-14 15 -35.5 24t-47.5 9q-54 0 -79 -29.5t-30 -70.5q-9 -69 19 -155t81 -169q36 -56 79 -105t90 -86q30 31 44.5 79t13.5 96.5t-17.5 89t-48.5 55.5h129
q-11 -6 -16.5 -17.5t-7.5 -25.5q-3 -20 -4 -38.5t-1.5 -37t-2.5 -38t-8 -41.5q-11 -42 -27.5 -74.5t-41.5 -56.5q56 -44 109 -62h-55q-48 1 -96 31q-55 -31 -144 -31q-52 0 -95.5 17.5t-75.5 46.5t-51 65.5t-24 74.5q-4 27 0.5 53.5t19 49.5t38.5 41.5t59 28.5
q-14 32 -21 58q-13 45 -12.5 87.5t14.5 78.5q17 43 56.5 70.5t104.5 28.5q64 2 110 -29q24 -16 39 -41.5t17 -61.5zM269 208q-27 38 -49 77.5t-39 76.5q-38 -32 -51.5 -73.5t-5.5 -84.5q5 -31 20 -60.5t38 -54t53 -42t65 -24.5q30 -6 63.5 -2.5t68.5 19.5q-45 29 -86 73
t-77 95z" />
    <glyph glyph-name="quotesingle" unicode="'" horiz-adv-x="201" 
d="M101 700q24 0 41.5 -15t17.5 -37q0 -25 -7 -51.5t-21.5 -51t-35.5 -45t-50 -32.5l-5 6q34 27 45.5 60t13.5 62q-24 0 -41.5 15.5t-17.5 36.5q0 22 17.5 37t42.5 15z" />
    <glyph glyph-name="parenleft" unicode="(" horiz-adv-x="328" 
d="M290 691q-37 -18 -65 -56.5t-48 -91t-31 -115.5t-14 -129q-3 -76 5.5 -151.5t28 -140t51 -112t73.5 -67.5v-9q-57 20 -100 67t-71 111.5t-41 140t-11 152.5q2 69 17 134.5t43 120t68.5 95.5t94.5 60v-9z" />
    <glyph glyph-name="parenright" unicode=")" horiz-adv-x="328" 
d="M37 700q54 -19 95 -60t68.5 -95.5t42.5 -120t17 -134.5q2 -77 -11 -152.5t-41 -140t-71 -111.5t-100 -67v9q42 20 73.5 67.5t51 112t28 140t5.5 151.5q-2 66 -13 129t-31 115.5t-48.5 91t-65.5 56.5v9z" />
    <glyph glyph-name="asterisk" unicode="*" horiz-adv-x="477" 
d="M276 700l-27 -179l161 81l24 -71l-179 -30l127 -128l-61 -45l-83 161l-83 -161l-61 45l127 128l-178 30l23 71l162 -81l-27 179h75z" />
    <glyph glyph-name="plus" unicode="+" horiz-adv-x="587" 
d="M262 603h62v-222h223v-62h-223v-222h-62v222h-222v62h222v222z" />
    <glyph glyph-name="comma" unicode="," horiz-adv-x="178" 
d="M89 104q24 0 41.5 -15t17.5 -37q0 -25 -7 -51.5t-21.5 -51t-35.5 -45t-50 -32.5l-5 6q34 27 45.5 60t13.5 62q-24 0 -41.5 15.5t-17.5 36.5q0 22 17.5 37t42.5 15z" />
    <glyph glyph-name="hyphen" unicode="-" horiz-adv-x="445" 
d="M23 319v62h399v-62h-399z" />
    <glyph glyph-name="period" unicode="." horiz-adv-x="177" 
d="M148 52q0 -21 -17.5 -36.5t-42.5 -15.5q-24 0 -41.5 15.5t-17.5 36.5q0 22 17.5 37t41.5 15q25 0 42.5 -15t17.5 -37z" />
    <glyph glyph-name="slash" unicode="/" horiz-adv-x="398" 
d="M292 700h67l-253 -700h-67z" />
    <glyph glyph-name="zero" unicode="0" horiz-adv-x="631" 
d="M505 401q-16 62 -45.5 112t-66.5 83.5t-77.5 47.5t-79.5 3q-39 -10 -67.5 -42.5t-43.5 -80t-15 -105.5t16 -120q17 -61 46 -111.5t66 -84t77.5 -47.5t79.5 -4q39 11 67.5 43.5t43.5 79.5t15.5 105.5t-16.5 120.5zM567 350q0 -72 -19.5 -136t-54 -111.5t-80 -75
t-98.5 -27.5q-52 0 -98 27.5t-80 75t-53.5 111.5t-19.5 136t19.5 136t53.5 111.5t80 75t98 27.5q53 0 98.5 -27.5t80 -75t54 -111.5t19.5 -136z" />
    <glyph glyph-name="one" unicode="1" horiz-adv-x="294" 
d="M166 700h33v-593q0 -48 10 -73t17 -34h-123q15 23 20.5 52t5.5 55v443l-77 -33v23q42 27 73 71t41 89z" />
    <glyph glyph-name="two" unicode="2" horiz-adv-x="539" 
d="M272 13q-30 7 -55.5 12t-50 5t-49 -6.5t-52.5 -23.5v47q38 32 74.5 65.5t71.5 71.5q27 29 55.5 65t53.5 77q25 38 43.5 90.5t19.5 105.5q0 32 -8.5 61.5t-26 52t-43.5 36t-60 13.5q-29 0 -50.5 -9t-36.5 -23.5t-23.5 -33.5t-11.5 -40q-4 -32 6 -56.5t28.5 -38t44 -14.5
t50.5 15q-5 -25 -22 -40.5t-39.5 -20.5t-46.5 -0.5t-44 20.5t-32 43t-9 67q2 32 17.5 60t41.5 47q26 20 59.5 29.5t69.5 9.5q40 0 74 -4.5t60 -21.5q21 -13 37 -31.5t26 -40t14.5 -45t4.5 -46.5q-2 -57 -29.5 -112t-66.5 -105q-32 -39 -66 -73t-66 -62q-35 -30 -72 -58.5
t-75 -57.5q40 18 66 24.5t46 7.5t38.5 -3t42.5 -7q15 -3 37 -3q27 0 51 5.5t41 16.5t26 30t8 50q23 -25 28.5 -50.5t-2.5 -48.5q-10 -28 -37.5 -46.5t-66.5 -18.5q-32 0 -51.5 4t-42.5 9z" />
    <glyph glyph-name="three" unicode="3" horiz-adv-x="566" 
d="M324 430q30 -2 57 -12.5t49 -28.5q32 -26 50 -60.5t23 -72.5q8 -51 -7.5 -101.5t-52.5 -87.5q-33 -32 -78 -49.5t-98 -17.5q-40 0 -75.5 11t-64.5 34t-48 56.5t-23 78.5q-2 29 6.5 57.5t25.5 51t42 37.5t56 18q42 4 76.5 -17.5t42.5 -63.5q-30 19 -61 22t-57 -8
q-29 -11 -49 -37.5t-23 -64.5q-2 -28 6.5 -55t26.5 -50q21 -26 51.5 -41.5t68.5 -15.5q48 0 83 22.5t55 60.5q17 32 21 74t-3 81q-5 30 -17.5 57.5t-33.5 47.5q-18 17 -41 28.5t-52 15.5l158 259q-19 -10 -47 -22t-60 -21.5t-66.5 -15t-65.5 -2.5q-43 4 -69.5 29t-24.5 73
q32 -13 76.5 -20.5t93.5 -8.5t97.5 6t86.5 23v-47z" />
    <glyph glyph-name="four" unicode="4" horiz-adv-x="505" 
d="M409 165h27v-34h-27v-24q0 -48 10 -73t17 -34h-123q15 23 21 52t6 55v24h-279l-11 24q23 22 47.5 54t46.5 70q17 29 30 60t21 62q8 35 5.5 70.5t-17.5 61.5t-42.5 38t-70.5 2q22 38 53.5 50t61.5 4q35 -11 58.5 -45.5t21.5 -88.5q-2 -45 -21 -93t-46 -93
q-14 -22 -26.5 -40.5t-26 -35t-28 -32.5t-32.5 -34h255v397q0 18 -2 33.5t-5 26.5q-4 19 -10 30t-10 17q25 0 53 7.5t43 23.5v-535z" />
    <glyph glyph-name="five" unicode="5" horiz-adv-x="575" 
d="M143 451q57 32 136 28q39 -2 73.5 -12.5t62.5 -30.5q43 -29 68.5 -75t29.5 -106q4 -54 -12 -99t-46 -79q-33 -36 -80.5 -56.5t-104.5 -20.5q-40 0 -75.5 11t-64.5 34t-48 57t-23 78q-2 29 6.5 57.5t25.5 51t42 37.5t56 18q42 4 76.5 -17.5t42.5 -63.5q-30 19 -61 22
t-57 -8q-29 -11 -49 -37.5t-23 -64.5q-2 -28 6.5 -55t26.5 -50q21 -26 51.5 -41.5t68.5 -15.5q41 0 73.5 16t55.5 42q28 32 41 71t11 81t-16.5 81t-42.5 70q-20 23 -49 39t-67 24q-79 18 -168 -33l53 296q39 -16 81 -23t84 -6t81 8.5t70 20.5q2 -48 -24.5 -73t-69.5 -29
q-31 -3 -59.5 2t-54 14t-48 20.5t-41.5 21.5z" />
    <glyph glyph-name="six" unicode="6" horiz-adv-x="574" 
d="M159 424q26 24 61.5 35t70.5 12q60 0 107 -26q56 -30 88.5 -89t30.5 -134q-1 -45 -16.5 -83.5t-42.5 -67t-64 -46.5t-80 -23q-12 -2 -23.5 -2t-22.5 1q-17 1 -34 3.5t-31 6.5q-17 5 -32 12.5t-28 17.5q-12 9 -22 19q-32 30 -46.5 71.5t-9.5 83.5q5 45 28 76t55 47
q25 13 54.5 14t56 -9t45.5 -30.5t23 -50.5q-12 17 -30.5 27t-38.5 13.5t-39.5 0.5t-35.5 -12q-23 -14 -39 -40.5t-18 -61.5q-2 -29 7 -58.5t26 -52.5q8 -11 18 -20t22 -17q17 -12 38.5 -19t46.5 -7q43 -1 75.5 16.5t54 46t32 65t10.5 75.5q-1 52 -21.5 100t-62.5 77
q-32 23 -75 30.5t-94 -5.5q-43 -11 -80.5 -33.5t-58.5 -53.5q6 73 32 134q20 51 56 96.5t83 77.5q39 27 83 43t91 15v-11q-48 -9 -89.5 -35.5t-74 -63.5t-54.5 -80.5t-32 -84.5z" />
    <glyph glyph-name="seven" unicode="7" horiz-adv-x="471" 
d="M182 0q-14 112 -3.5 215.5t45.5 191.5q26 68 72.5 131.5t118.5 129.5q-13 -7 -44 -16t-70.5 -16t-83.5 -11.5t-83 -2.5q-53 2 -78.5 19t-25.5 59q35 -14 85.5 -19.5t106.5 -4.5q36 0 69.5 2t62 5.5t50 8t33.5 8.5v-45q-63 -48 -104.5 -115t-63.5 -145q-26 -96 -25 -198.5
t27 -196.5h-89z" />
    <glyph glyph-name="eight" unicode="8" horiz-adv-x="565" 
d="M412 36q-24 -14 -50.5 -22.5t-54.5 -12.5q-7 0 -14 -0.5t-14 -0.5q-26 0 -52 4.5t-49 13.5q-20 8 -40 22q-6 5 -11.5 9.5t-10.5 9.5q-32 31 -46.5 72t-9.5 83q5 45 28 76t55 48q25 13 54.5 14t56 -9t45.5 -31t23 -51q-12 17 -30.5 27t-38.5 13.5t-39.5 0.5t-35.5 -12
q-23 -14 -39 -40t-18 -61q-2 -30 6.5 -59.5t26.5 -52.5q16 -21 40 -37q17 -11 38.5 -18t46.5 -7q39 -1 70.5 11.5t53.5 34.5t34.5 50.5t12.5 60.5q0 33 -8.5 60.5t-24 51.5t-36.5 44.5t-45 38.5q-32 25 -71.5 47t-69.5 45q-32 25 -56 58.5t-23 68.5q1 30 16.5 51.5t39 35.5
t53 20.5t59.5 6.5q48 0 80.5 -11.5t52 -29.5t27 -41t6.5 -46q-1 -25 -11.5 -48t-26.5 -41t-35.5 -30.5t-38.5 -17.5q24 -14 45.5 -30t40.5 -34q39 -38 61 -86t17 -110q-4 -42 -25 -77.5t-65 -61.5zM395 580q2 45 -24.5 76t-86.5 31q-55 0 -83 -22q-14 -11 -21 -25t-9 -28
q-4 -30 16 -58t49 -51q23 -18 46.5 -32.5t41.5 -25.5q13 6 25.5 20t22 33t16 40t7.5 42z" />
    <glyph glyph-name="nine" unicode="9" horiz-adv-x="574" 
d="M414 275q-26 -23 -61.5 -34.5t-70.5 -11.5q-58 0 -107 26q-56 30 -88.5 89t-30.5 134q1 45 16.5 83.5t43 67t64 47t79.5 22.5q12 1 23.5 1.5t22.5 -0.5q18 -1 34.5 -3.5t30.5 -6.5q34 -10 61 -30q12 -9 22 -19q32 -31 46 -72t9 -83q-5 -45 -28 -76t-54 -47
q-25 -13 -55 -14t-56 8.5t-45 30.5t-24 51q12 -17 30.5 -27t38.5 -13.5t39.5 -0.5t35.5 12q24 14 39.5 40.5t17.5 61.5q2 29 -6.5 58.5t-26.5 52.5t-39 37q-18 11 -39.5 18t-46.5 8q-43 0 -75.5 -17t-54 -45.5t-32 -65t-10.5 -75.5q1 -52 21.5 -100t62.5 -77
q33 -23 76 -30.5t94 5.5q42 11 79.5 33t58.5 54q-3 -37 -11 -70.5t-20 -64.5q-21 -51 -56.5 -96t-82.5 -77q-39 -28 -83 -43.5t-92 -15.5v11q48 9 89.5 36t74 64t54.5 80t32 84z" />
    <glyph glyph-name="colon" unicode=":" horiz-adv-x="201" 
d="M160 52q0 -21 -17.5 -36.5t-42.5 -15.5q-24 0 -41.5 15.5t-17.5 36.5q0 22 17.5 37t41.5 15q25 0 42.5 -15t17.5 -37zM160 455q0 -21 -17.5 -36.5t-42.5 -15.5q-24 0 -41.5 15.5t-17.5 36.5q0 22 17.5 37t41.5 15q25 0 42.5 -15t17.5 -37z" />
    <glyph glyph-name="semicolon" unicode=";" horiz-adv-x="202" 
d="M100 104q25 0 42.5 -15t17.5 -37q0 -25 -7 -51.5t-21.5 -51t-36 -45t-50.5 -32.5l-4 6q34 27 45.5 60t13.5 62q-24 0 -41.5 15.5t-17.5 36.5q0 22 17.5 37t41.5 15zM160 455q0 -21 -17.5 -36.5t-42.5 -15.5q-24 0 -41.5 15.5t-17.5 36.5q0 22 17.5 37t41.5 15
q25 0 42.5 -15t17.5 -37z" />
    <glyph glyph-name="less" unicode="&#x3c;" horiz-adv-x="559" 
d="M509 167v-70l-469 229v48l469 229v-70l-399 -183z" />
    <glyph glyph-name="equal" unicode="=" horiz-adv-x="516" 
d="M33 229v62h450v-62h-450zM33 496h450v-62h-450v62z" />
    <glyph glyph-name="greater" unicode="&#x3e;" horiz-adv-x="559" 
d="M448 350l-399 183v70l470 -229v-48l-470 -229v70z" />
    <glyph glyph-name="question" unicode="?" horiz-adv-x="505" 
d="M228 201q-8 31 -1.5 55t20.5 45q19 27 40.5 50.5t40.5 48t31.5 54t13.5 68.5q0 32 -8.5 61.5t-26 52t-43.5 36t-60 13.5q-29 0 -50.5 -9t-36.5 -23.5t-23.5 -33.5t-11.5 -40q-4 -32 6 -56.5t29 -38t44 -14.5t50 15q-5 -25 -22 -40t-39.5 -20.5t-46.5 -0.5t-44 20
q-20 16 -32.5 43t-8.5 67q2 32 17.5 60t41.5 47q26 20 59.5 29.5t69.5 9.5q40 0 73.5 -4.5t60.5 -21.5q21 -13 37 -31.5t26 -40t14.5 -45t3.5 -46.5q-1 -33 -10 -59t-23 -49q-22 -32 -51 -59.5t-59 -56.5q-18 -17 -29.5 -38t-7.5 -48h-44zM310 52q0 -21 -17.5 -36.5
t-42.5 -15.5t-42 15.5t-17 36.5q0 22 17 37t42 15t42.5 -15t17.5 -37z" />
    <glyph glyph-name="at" unicode="@" horiz-adv-x="958" 
d="M284 253q0 48 15 89.5t41 72.5t60.5 49t74.5 18q30 0 57.5 -10.5t50.5 -29.5q22 -18 42 -13q16 4 28.5 19.5t22.5 33.5v-355q0 -17 7.5 -28t18.5 -13q18 -4 37.5 7.5t37.5 29.5q35 36 53.5 86t22 104t-7.5 107t-35 95q-21 39 -54 69t-76 49t-94 26.5t-109 0.5
q-80 -9 -142 -43.5t-105 -86t-66 -115t-26 -131.5q-2 -64 11.5 -120.5t40 -103.5t63 -84.5t80.5 -63.5q65 -39 140.5 -52.5t149 1.5t139.5 60t112 123h24q-38 -71 -95 -123t-132 -82q-43 -17 -85 -24.5t-89 -7.5q-52 0 -102.5 12.5t-94.5 35t-81.5 53.5t-64.5 69
q-46 64 -68.5 135.5t-23.5 142.5t19.5 139t61.5 125q43 61 107 105.5t149 64.5q59 14 121 10.5t120 -23t107.5 -55.5t83.5 -88q30 -47 43.5 -105.5t9.5 -118.5t-24.5 -116.5t-59.5 -98.5q-23 -25 -51.5 -42t-59.5 -15q-27 2 -48.5 17.5t-27.5 41.5q-26 -33 -61.5 -52
t-76.5 -19q-40 0 -74.5 18t-60.5 49t-41 72.5t-15 88.5zM613 224q-2 33 -10 64q-11 41 -31 74.5t-44.5 55.5t-52 31.5t-54.5 2.5q-26 -7 -45 -29t-29.5 -53.5t-10.5 -70.5t11 -80t30.5 -74.5t44 -56t52 -32t54.5 -2.5q38 11 60 48.5t25 90.5v31z" />
    <glyph glyph-name="A" unicode="A" horiz-adv-x="517" 
d="M264 700l183 -603q5 -15 11 -30.5t13.5 -29t17 -24t20.5 -13.5h-143q13 11 17 24.5t3 28.5t-6 31l-10 32l-9 31h-167q-26 0 -42 -3.5t-26.5 -12t-17.5 -23t-13 -37.5q-8 -24 -7 -42t17 -29h-92q24 14 40 41.5t24 53.5zM242 557q-22 -75 -40.5 -136.5t-34.5 -112
t-29 -92.5t-24 -80q14 22 32 30.5t45 8.5h162z" />
    <glyph glyph-name="B" unicode="B" horiz-adv-x="542" 
d="M452 552q3 -46 -20 -89.5t-69 -66.5q-8 -4 -16.5 -7.5t-16.5 -5.5q40 -5 70.5 -24.5t47.5 -39.5q20 -26 32 -57.5t12 -66.5q0 -42 -16.5 -78.5t-45.5 -63.5q-26 -25 -60.5 -39t-72.5 -14h-238q15 23 21 52t6 55v486q0 26 -6 55t-21 52h220q56 0 101 -28q34 -22 52 -53.5
t20 -66.5zM378 549q-2 30 -15 58t-36 47q-21 17 -51.5 23t-66.5 6h-54v-360q7 17 19.5 29.5t28.5 21.5q14 9 30.5 15.5t31.5 11.5q17 6 34 13.5t32 19.5q23 20 36 50.5t11 64.5zM277 363q-36 3 -71 -14q-17 -8 -30.5 -21t-20.5 -32v-280h53q40 0 74.5 9t61.5 28q31 22 49 57
t18 86q-1 38 -15 73t-40 60q-33 30 -79 34z" />
    <glyph glyph-name="C" unicode="C" horiz-adv-x="641" 
d="M130 293q16 -58 43 -106t61 -82.5t73 -53.5t79 -19q33 0 62 12.5t52 33.5t39.5 49t25.5 58q1 4 2 7.5t2 7.5v-85q-41 -54 -101 -84.5t-126 -30.5q-61 0 -114.5 27.5t-93.5 75t-63 111.5t-23 136q0 63 20.5 126t59 112.5t93.5 80.5t124 31q60 0 110 -22t92 -64
q14 -15 25.5 -31.5t18.5 -33.5q8 -19 6.5 -38t-16.5 -36q-15 -15 -40 -25q-15 38 -38 76.5t-53.5 70t-68.5 51.5t-83 20q-17 0 -39 -5q-44 -12 -76.5 -46.5t-49.5 -85t-18.5 -112t15.5 -126.5z" />
    <glyph glyph-name="D" unicode="D" horiz-adv-x="583" 
d="M155 16h47q66 0 113.5 27.5t79.5 72.5q32 47 48.5 108.5t16.5 126t-16.5 126t-48.5 107.5q-32 45 -79.5 72t-113.5 27h-47v-667zM434 80q-35 -37 -82 -58.5t-106 -21.5h-187q16 23 21.5 52t5.5 55v486q0 26 -5.5 55t-21.5 52h187q59 0 106 -21.5t82 -58.5
q50 -52 75 -123.5t25 -146.5t-25 -146.5t-75 -123.5z" />
    <glyph glyph-name="E" unicode="E" horiz-adv-x="499" 
d="M59 0q16 23 21.5 52t5.5 55v486q0 26 -5.5 55t-21.5 52h358l21 -139q-8 33 -23.5 56t-34 38t-39.5 21.5t-41 6.5h-145v-222q6 10 14.5 14t17.5 4q12 1 23.5 -2.5t24.5 -8.5q19 -9 42 -17t43 -8t35.5 10t20.5 36q10 -20 10 -38q1 -36 -23 -52q-18 -12 -42 -12
q-28 0 -53 14q-11 7 -22 14.5t-22 15.5q-7 5 -14 9t-14 9q-17 9 -26 6q-15 -5 -15 -30v-408h55q53 0 99.5 11.5t74.5 39.5q15 15 23.5 35.5t6.5 46.5q30 -17 38 -44t-1 -52q-8 -23 -27.5 -38.5t-47.5 -15.5h-317z" />
    <glyph glyph-name="F" unicode="F" horiz-adv-x="464" 
d="M59 0q16 23 21.5 52t5.5 55v486q0 26 -5.5 55t-21.5 52h358l21 -139q-8 33 -23.5 56t-34 38t-39.5 21.5t-41 6.5h-145v-222q6 10 14.5 14t17.5 4q12 1 24 -2.5t24 -8.5q21 -10 43 -17q16 -5 32 -7t29 1.5t23 14t14 29.5q10 -17 10 -38q1 -36 -23 -52q-18 -13 -45 -12
t-50 14q-11 7 -22 14.5t-22 15.5q-7 5 -14 9t-14 9q-15 9 -26 6q-15 -5 -15 -30v-318q0 -26 6 -55t21 -52h-123z" />
    <glyph glyph-name="G" unicode="G" horiz-adv-x="655" 
d="M130 293q16 -58 43 -106t61 -82.5t73 -53.5t79 -19q32 0 61.5 12.5t52.5 33.5q1 8 1 15v14v105q0 27 -5.5 56t-21.5 52h124q-7 -10 -17 -35t-10 -73v-105q0 -48 10 -73t17 -34h-124q8 10 12.5 21.5t7.5 24.5q-34 -22 -72.5 -34t-79.5 -12q-61 0 -114.5 27.5t-93.5 75
t-63 111.5t-23 136q0 63 20.5 126t59 112.5t93.5 80.5t124 31q60 0 110 -22t92 -64q14 -15 25.5 -31.5t18.5 -33.5q8 -19 6.5 -38t-16.5 -36q-15 -15 -40 -25q-14 38 -37 76.5t-54.5 70t-69.5 51.5t-82 20q-17 0 -39 -5q-44 -12 -76.5 -46.5t-49.5 -85t-18.5 -112
t15.5 -126.5z" />
    <glyph glyph-name="H" unicode="H" horiz-adv-x="568" 
d="M412 107v303q-8 -9 -18.5 -14.5t-21.5 -7.5q-20 -5 -38.5 -2.5t-37.5 9.5q-27 10 -51.5 25t-49.5 29q-16 9 -26 6q-15 -5 -15 -30v-318q0 -48 10.5 -73t16.5 -34h-123q16 23 21.5 52t5.5 55v486q0 26 -5.5 55t-21.5 52h123q-6 -9 -16.5 -34t-10.5 -73v-132q12 18 32 18
q10 1 24 -2.5t29 -8.5q23 -7 49 -13.5t52 -6.5q22 0 39 7q14 5 23.5 13.5t9.5 20.5v104q0 26 -5.5 55t-21.5 52h123q-6 -9 -16.5 -34t-10.5 -73v-486q0 -48 10.5 -73t16.5 -34h-123q16 23 21.5 52t5.5 55z" />
    <glyph glyph-name="I" unicode="I" horiz-adv-x="241" 
d="M59 0q16 23 21.5 52t5.5 55v486q0 26 -5.5 55t-21.5 52h123q-6 -9 -16.5 -34t-10.5 -73v-486q0 -48 10.5 -73t16.5 -34h-123z" />
    <glyph glyph-name="J" unicode="J" horiz-adv-x="392" 
d="M163 209q29 -15 38 -52q-20 12 -39 13t-35 -5q-18 -7 -28.5 -20t-14.5 -28.5t-2 -32t10 -30.5q10 -17 26.5 -28t40.5 -11q19 -1 36 9t28 31q7 14 11 31t5.5 34.5t2 34.5t0.5 30v408q0 20 -3.5 43t-12.5 43q-5 13 -11 21h123q-6 -10 -16.5 -34.5t-10.5 -72.5v-411
q0 -22 -2 -44.5t-9 -43.5t-18.5 -39t-31.5 -31q-17 -11 -39.5 -17.5t-52.5 -6.5q-47 0 -86 30q-14 11 -24.5 24t-16.5 30q-11 26 -5.5 53.5t22.5 47.5q20 25 53 32.5t62 -8.5z" />
    <glyph glyph-name="K" unicode="K" horiz-adv-x="533" 
d="M86 593q0 26 -5.5 55t-21.5 52h123q-16 -23 -21.5 -52t-5.5 -55v-268q7 14 16.5 24t20.5 18q15 11 33 18l36 14q28 11 50 24t35 40q11 22 10.5 57t0.5 70q0 21 2.5 40.5t8.5 34.5t16 25t26 13q14 3 28.5 -1t27.5 -12q-15 -5 -23.5 -18t-13.5 -30q-4 -16 -5 -32.5
t-2 -29.5q-1 -20 -1.5 -40.5t-2.5 -40.5q-3 -26 -11 -50t-25 -44q-11 -11 -25 -19.5t-32 -12.5q22 -1 38 -9t27 -22q19 -23 27.5 -53t12.5 -63t6.5 -67t9.5 -65q6 -27 18.5 -53.5t37.5 -40.5q-12 0 -24.5 -0.5t-25.5 -0.5q-32 1 -51 18t-29 41.5t-13 53t-3 53.5v69t-9 64
q-9 26 -29.5 40.5t-45.5 18.5q-23 4 -45 -1.5t-40 -20.5q-11 -8 -19 -18.5t-13 -20.5v-189q0 -26 5.5 -55t21.5 -52h-123q16 23 21.5 52t5.5 55v486z" />
    <glyph glyph-name="L" unicode="L" horiz-adv-x="477" 
d="M59 0q16 23 21.5 52t5.5 55v486q0 26 -5.5 55t-21.5 52h123q-16 -23 -21.5 -52t-5.5 -55v-576h55q53 0 99.5 11.5t74.5 39.5q32 32 31 82q29 -17 37 -44t-1 -52q-8 -23 -27.5 -38.5t-47.5 -15.5h-317z" />
    <glyph glyph-name="M" unicode="M" horiz-adv-x="655" 
d="M59 0q16 23 21.5 52t5.5 55v486q0 26 -5.5 55t-21.5 52h85l190 -506l184 506h79q-7 -9 -17 -34t-10 -73v-486q0 -48 10 -73t17 -34h-124q7 9 17 34t10 73v468l-158 -427q-17 -45 -39 -60.5t-48 -10.5q12 6 17 15t6 20.5t-2 24t-8 24.5l-157 414v-468q0 -48 10 -73t17 -34
h-79z" />
    <glyph glyph-name="N" unicode="N" horiz-adv-x="589" 
d="M59 0q15 23 21 52t6 55v486q0 26 -6 55t-21 52h64l358 -581v474q0 26 -5.5 55t-21.5 52h79q-7 -10 -17 -34.5t-10 -72.5v-504q1 -44 -18 -67t-61 -22q-8 0 -14 2q16 7 21 17t3 21.5t-8.5 24t-14.5 24.5l-303 499v-481q0 -48 10 -73t17 -34h-79z" />
    <glyph glyph-name="O" unicode="O" horiz-adv-x="685" 
d="M342 700q61 0 115 -27.5t94 -75t63 -111.5t23 -136t-23 -136t-63 -111.5t-94 -75t-115 -27.5t-114.5 27.5t-93.5 75t-63 111.5t-23 136t23 136t63 111.5t93.5 75t114.5 27.5zM562 409q-15 57 -42.5 105t-62.5 82.5t-74.5 53.5t-80.5 19q-22 0 -43 -6q-46 -12 -79.5 -47.5
t-52 -86t-20.5 -112t15 -126.5q16 -57 43.5 -105t62.5 -82.5t75 -53.5t80 -19q22 0 43 6q46 12 79.5 47.5t52 86t20.5 112t-16 126.5z" />
    <glyph glyph-name="P" unicode="P" horiz-adv-x="482" 
d="M59 0q15 23 21 52t6 55v486q0 26 -6 55t-21 52h220q56 0 101 -28q34 -22 52 -53.5t20 -66.5q3 -46 -20 -89.5t-69 -66.5q-23 -12 -46.5 -17.5t-46.5 -10.5q-15 -3 -32 -7t-32 -12q-19 -8 -31.5 -20.5t-19.5 -32.5v-189q0 -26 5.5 -55t21.5 -52h-123zM155 323
q7 17 19.5 29.5t27.5 21.5t31.5 15.5t31.5 11.5q17 6 33.5 13.5t32.5 19.5q23 20 36 50.5t11 64.5q-2 30 -15 58t-36 47q-21 17 -51.5 23t-66.5 6h-54v-360z" />
    <glyph glyph-name="Q" unicode="Q" horiz-adv-x="685" 
d="M235 24q-41 19 -75.5 51.5t-59 75t-38.5 93.5t-14 106q0 72 23 136t63 111.5t93.5 75t114.5 27.5t115 -27.5t94 -75t63 -111.5t23 -136q0 -60 -16.5 -115t-45.5 -99t-68.5 -76.5t-86.5 -47.5q7 -3 13.5 -7t13.5 -8q16 -8 32 -20q28 -20 54 -41.5t57 -38.5
q26 -14 52.5 -21t56.5 -3q29 4 51.5 22.5t28.5 56.5q12 -26 9.5 -51.5t-17 -46.5t-39 -34t-57.5 -13q-29 0 -54.5 13.5t-48.5 33.5q-21 20 -47.5 46.5t-56.5 51.5q-28 23 -58 39t-61 15q-27 0 -46 -8t-31 -21q-15 -17 -17 -39t9 -42q15 -26 46 -41q-34 -3 -59 8.5t-39 31.5
q-13 17 -17.5 36.5t-0.5 38.5q4 16 14 30t27 24zM259 663q-46 -12 -79.5 -47.5t-52 -86t-20.5 -112t15 -126.5q18 -65 50.5 -117.5t74 -87t88 -48t91.5 -1.5q46 12 79.5 47.5t52 86t20.5 112t-16 126.5q-17 65 -49.5 117t-74 86.5t-88 48.5t-91.5 2z" />
    <glyph glyph-name="R" unicode="R" horiz-adv-x="535" 
d="M59 0q15 23 21 52t6 55v486q0 26 -6 55t-21 52h220q56 0 101 -28q34 -22 52 -53.5t20 -66.5q3 -46 -20 -89.5t-69 -66.5q-23 -11 -49 -18q26 1 45 -10t32 -28q18 -24 25.5 -53t10.5 -60q3 -29 4 -59t6 -56q5 -33 19 -65t46 -47q-27 0 -56.5 1.5t-50.5 20.5q-26 23 -34 75
q-5 30 -5 63t-2 65q-1 22 -4 42.5t-10 38.5q-6 16 -13.5 28.5t-17.5 20.5q-13 11 -28.5 13.5t-31.5 -1.5q-15 -2 -29.5 -9t-25.5 -15q-29 -19 -39 -47v-189q0 -26 5.5 -55t21.5 -52h-123zM155 323q7 17 19.5 29.5t27.5 21.5t31.5 15.5t31.5 11.5q17 6 33.5 13.5t32.5 19.5
q23 20 35.5 50.5t10.5 64.5q-1 30 -14 58t-36 47q-21 17 -51.5 23t-66.5 6h-54v-360z" />
    <glyph glyph-name="S" unicode="S" horiz-adv-x="523" 
d="M254 225q-17 20 -39 28t-43 4q-24 -3 -40.5 -18.5t-24.5 -35.5q-7 -19 -6.5 -39.5t6.5 -39.5q8 -25 24 -46t38 -35q19 -13 42 -20t47 -7q28 1 50.5 7t39.5 16q34 20 49.5 54t13.5 71q-2 35 -14.5 64.5t-32.5 55.5q-25 32 -57.5 59t-64.5 51q-23 17 -50.5 39.5t-51.5 49.5
q-23 26 -38 55.5t-12 60.5q3 38 30 62t62 33q33 8 62 6q41 -1 73.5 -9t69.5 -7q14 0 26.5 3.5t20.5 10.5v-166q-12 36 -24.5 64t-31 47t-45.5 29t-68 11q-16 1 -33.5 0t-34.5 -7q-23 -8 -37.5 -26t-10.5 -48q3 -22 17 -44t31 -41q20 -22 44 -41t44 -35q34 -26 70 -56.5
t64 -65.5q28 -34 43.5 -73t10.5 -86q-5 -46 -33 -83.5t-76 -57.5q-23 -9 -49 -14.5t-57 -4.5q-26 0 -52.5 5t-50.5 16q-32 14 -58.5 37.5t-41.5 55.5q-17 35 -12.5 72.5t24.5 66.5q21 30 53.5 40.5t62.5 2.5q25 -6 44 -24t27 -47z" />
    <glyph glyph-name="T" unicode="T" horiz-adv-x="502" 
d="M216 107v576h-60q-55 0 -85 -42.5t-46 -108.5v168h452v-168q-16 66 -46.5 108.5t-84.5 42.5h-60v-576q0 -26 5.5 -55t20.5 -52h-122q15 23 20.5 52t5.5 55v0z" />
    <glyph glyph-name="U" unicode="U" horiz-adv-x="535" 
d="M149 202q0 -78 37 -124t103 -46q65 0 103 46t38 124v391q0 26 -5.5 55t-21.5 52h79q-7 -9 -17 -34t-10 -73v-403q0 -42 -10.5 -77t-32.5 -60t-56 -39t-81 -14q-95 0 -145 50.5t-50 139.5v403q0 26 -5.5 55t-21.5 52h123q-6 -9 -16.5 -34t-10.5 -73v-391z" />
    <glyph glyph-name="V" unicode="V" horiz-adv-x="543" 
d="M76 607q-12 43 -32.5 66t-43.5 26h177q-23 -4 -32.5 -29.5t-1.5 -57.5l154 -547l104 269q11 26 22 63.5t17 78.5q5 31 5 70.5t-14 70.5q-9 20 -26 34t-45 16q-20 1 -41.5 -8.5t-38.5 -30.5q15 45 50 67t71 21q35 0 63.5 -20.5t37.5 -62.5q8 -32 3.5 -69t-14.5 -70
q-12 -40 -29 -82.5t-29 -73.5l-133 -338h-54z" />
    <glyph glyph-name="W" unicode="W" horiz-adv-x="809" 
d="M300 0h-54l-170 607q-12 43 -32.5 66t-43.5 26h177q-23 -4 -32.5 -29.5t-1.5 -57.5l154 -547l104 269q2 7 5 13.5t5 14.5l-69 245q-12 43 -32.5 66t-43.5 26h177q-23 -4 -32.5 -29.5t-1.5 -57.5l154 -547l105 269q10 26 21 63.5t17 78.5q5 31 5.5 70.5t-13.5 70.5
q-10 20 -27 33.5t-45 15.5q-20 2 -41.5 -7.5t-38.5 -30.5q16 45 50.5 67t71.5 21q34 0 62.5 -20.5t38.5 -62.5q7 -32 2.5 -69t-14.5 -70q-12 -40 -29 -82.5t-28 -73.5l-133 -338h-54l-89 315z" />
    <glyph glyph-name="X" unicode="X" horiz-adv-x="534" 
d="M359 0q12 8 15.5 19t2.5 22t-5.5 22.5t-9.5 20.5l-53 109l-73 148l-84 -93q-11 -11 -20 -25t-16 -30q-12 -22 -15 -48q-5 -35 5.5 -62t31.5 -42q24 -17 57.5 -14.5t66.5 32.5q-5 -20 -16.5 -34.5t-27.5 -24.5q-1 0 -1 -1q-30 -18 -65 -16q-31 3 -51 16l-1 1
q-17 12 -25 24q-12 15 -18 34t-7 40t4 40.5t13 36.5q2 5 5 9t6 9q14 23 34.5 46t37.5 40q9 9 16 17t14 16.5t16 18.5t22 23l8 8l-71 145l-53 109q-16 32 -37.5 53.5t-41.5 29.5h151q-12 -8 -15.5 -18.5t-2 -21.5t6 -22.5t8.5 -20.5l54 -110l72 -147l85 93q10 11 19 25t17 29
q12 24 15 49q5 35 -6 62t-31 41q-24 18 -57.5 15t-66.5 -32q11 39 44 58q0 1 1 1q30 19 64 16q29 -1 52 -16q1 0 1 -1q13 -8 25 -23q23 -31 25 -74q1 -40 -18 -77q-2 -5 -4.5 -9.5t-5.5 -9.5q-14 -23 -35 -45.5t-38 -39.5q-9 -9 -15.5 -17t-14 -16.5t-16 -18.5t-22.5 -23
l-8 -8l71 -145l53 -109q16 -32 37.5 -54t42.5 -30h-152z" />
    <glyph glyph-name="Y" unicode="Y" 
d="M298 107q0 -47 10.5 -72t16.5 -35h-123q16 23 21.5 52t5.5 55v151l-149 349q-17 42 -38 63.5t-41 29.5h136q-17 -11 -12 -33t18 -51l143 -334q10 17 22 38t24.5 44.5t25 46.5t22.5 43q8 14 15.5 30t13.5 33q8 19 13.5 40.5t4.5 43.5q-2 35 -23 57t-58 15q-37 -8 -58 -37
q4 12 12 26.5t20.5 26.5t30 20t40.5 8t40.5 -9.5t28.5 -25.5t15 -36.5t0 -42.5q-4 -26 -15 -47.5t-22 -41.5l-140 -256v-151z" />
    <glyph glyph-name="Z" unicode="Z" horiz-adv-x="510" 
d="M205 675q-61 0 -93 -39t-43 -104l-6 168h390l-335 -676h140q40 0 68.5 11t46 29t24.5 40t5 43q-1 17 -8 32t-19 26t-29 17.5t-38 5.5q35 19 71 17.5t60 -22.5q25 -21 30.5 -52.5t-2.5 -60.5q-8 -32 -31 -57.5t-52 -36.5q-23 -9 -47.5 -13t-49.5 -4q-75 0 -133.5 0.5
t-120.5 0.5l330 675h-158z" />
    <glyph glyph-name="bracketleft" unicode="[" horiz-adv-x="293" 
d="M245 -174v-19h-165v893h165v-19l-105 -39v-776z" />
    <glyph glyph-name="backslash" unicode="\" horiz-adv-x="398" 
d="M358 0h-67l-253 700h67z" />
    <glyph glyph-name="bracketright" unicode="]" horiz-adv-x="293" 
d="M153 -134v776l-106 39v19h165v-893h-165v19z" />
    <glyph glyph-name="asciicircum" unicode="^" horiz-adv-x="513" 
d="M256 630l-154 -336h-68l198 406h48l198 -406h-68z" />
    <glyph glyph-name="underscore" unicode="_" horiz-adv-x="665" 
d="M80 -62v62h504v-62h-504z" />
    <glyph glyph-name="grave" unicode="`" horiz-adv-x="217" 
d="M147 548l-122 152h89l72 -152h-39z" />
    <glyph glyph-name="a" unicode="a" horiz-adv-x="493" 
d="M414 310v-150q0 -24 0.5 -47t4 -43t12.5 -38t27 -32q-26 10 -45 17t-33 7q-22 0 -36 -24v101q-5 -22 -20 -40.5t-37 -32t-49.5 -21t-56.5 -7.5q-31 0 -56 10t-43 27.5t-28 40t-12 46.5q-1 26 6 50t21 44.5t34 35.5t44 24q20 8 42 13t44 11q21 6 41 14t35.5 20t25 30
t9.5 43q0 20 -8 35.5t-20.5 26t-29 16.5t-34.5 6q-16 0 -32.5 -5t-29.5 -15t-21.5 -24t-8.5 -32q-1 -17 7.5 -30t21.5 -19q8 -4 21 -4q12 0 25 6q-5 -21 -17.5 -34.5t-29.5 -17.5q-35 -9 -62 12q-13 9 -21 24t-9 33q-2 23 6.5 41.5t22.5 32.5q17 17 38 26q21 11 44 15.5
t45 4.5q49 0 80.5 -14t49.5 -39.5t25 -62t7 -81.5zM218 41q24 0 47 8.5t40.5 24t28 37.5t10.5 49v194q-3 -13 -14.5 -25.5t-27 -23t-32 -18.5t-27.5 -13q-20 -8 -39 -16.5t-36 -21.5q-29 -22 -40.5 -48.5t-9.5 -52.5q4 -38 31 -66t69 -28z" />
    <glyph glyph-name="b" unicode="b" horiz-adv-x="556" 
d="M508 254q0 -52 -16.5 -98.5t-45.5 -81t-67.5 -54.5t-82.5 -20q-34 0 -64 12t-56 32q-14 11 -25 14t-22 1q-17 -5 -31 -22t-25 -37v563q0 17 -2 32.5t-5 26.5q-4 19 -10 30t-10 18q21 -1 49.5 7.5t46.5 22.5v-272q29 37 68.5 58t85.5 21q44 0 82.5 -20t67.5 -54.5
t45.5 -80.5t16.5 -98zM142 286q1 -34 12 -70q12 -46 34 -83t49 -62t57.5 -35.5t60.5 -2.5t51 32t32.5 59.5t11.5 78.5t-12 89t-34 83t-49.5 62t-58 35.5t-59.5 2.5q-42 -11 -67 -53.5t-28 -101.5v-34z" />
    <glyph glyph-name="c" unicode="c" horiz-adv-x="482" 
d="M412 450q15 -19 22 -41.5t3 -45.5q-5 -29 -28 -49t-53 -20q-28 0 -50 16.5t-30 42.5q21 -13 49 -13q35 1 46 26q8 16 4.5 34t-14.5 34q-19 27 -44.5 38t-57.5 14q-44 2 -83 -21q-23 -14 -39.5 -39.5t-24.5 -58.5t-7 -72t12 -80q13 -49 37.5 -88t54.5 -63q40 -34 92 -32
q38 0 69.5 17.5t50.5 50.5l10 -7q-11 -22 -29 -39.5t-40 -29.5t-46.5 -18t-48.5 -6h-16q-42 2 -79.5 22.5t-65 55t-43.5 79.5t-16 96q0 48 15 93.5t43 81.5t68.5 57.5t91.5 21.5q42 0 80.5 -12.5t66.5 -44.5z" />
    <glyph glyph-name="d" unicode="d" horiz-adv-x="567" 
d="M414 80q-29 -37 -68.5 -58.5t-85.5 -21.5q-44 0 -82.5 20t-67.5 54.5t-45.5 81t-16.5 98.5t16.5 98t45.5 80.5t67.5 54.5t82.5 20q46 0 85.5 -21.5t68.5 -58.5v136q0 17 -2 32.5t-4 26.5q-5 19 -10.5 30t-10.5 18q21 -1 50 7.5t47 22.5v-550q0 -23 0.5 -44t4.5 -40
t13 -35.5t25 -30.5v0q-21 5 -38 11t-30.5 9t-24 -0.5t-20.5 -19.5v80zM118 216q12 -46 34 -83t49.5 -62t58 -35.5t59.5 -2.5q30 8 51 32t32.5 59.5t11.5 78.5t-12 89t-34 83t-49 62t-57.5 35.5t-60.5 2.5t-51 -32t-32.5 -59.5t-11.5 -78.5t12 -89z" />
    <glyph glyph-name="e" unicode="e" horiz-adv-x="481" 
d="M265 507q42 0 81 -12.5t67 -46.5q16 -20 22 -43t0 -45q-10 -37 -52 -52q-27 -8 -58.5 -8h-56.5h-163q2 -65 27 -129.5t77 -106.5q40 -34 93 -32q37 0 69 18t50 50l10 -7q-11 -22 -29 -39.5t-40 -29.5t-46.5 -18t-48.5 -6h-16q-42 2 -79.5 22.5t-65 55t-43.5 79.5t-16 96
q0 48 15 93.5t43 81.5t68.5 57.5t91.5 21.5zM244 319q17 0 37.5 1t39 6.5t33 16.5t20.5 31q8 31 -13 60q-20 27 -45 38t-57 14q-44 2 -83 -21q-31 -19 -49.5 -57t-20.5 -89h138z" />
    <glyph glyph-name="f" unicode="f" horiz-adv-x="258" 
d="M298 633q6 -22 -0.5 -44.5t-26.5 -40.5q-6 14 -11.5 29.5t-13.5 29t-19 25t-27 17.5q-23 10 -45.5 2.5t-35.5 -27.5q-10 -16 -11 -38t10 -48q12 -28 35 -47t51 -19h24v-20h-79v-345q0 -48 10.5 -72.5t16.5 -34.5h-123q15 23 21 52t6 55v345h-27v20h27v29q0 17 0.5 35
t2.5 36q4 29 14 54t28 42q32 32 81 32q37 0 61 -20t31 -47z" />
    <glyph glyph-name="g" unicode="g" horiz-adv-x="498" 
d="M434 308q0 -41 -15 -77.5t-41 -63.5t-61 -42.5t-74 -15.5q-53 0 -97 27l-70 -94q39 26 86 38t94 12q23 0 47 -3.5t45 -11.5q45 -17 65.5 -49t18.5 -69q-2 -39 -20.5 -67.5t-46.5 -47t-62.5 -28t-69.5 -9.5q-23 0 -46.5 4.5t-44.5 15t-36.5 27.5t-23.5 41q-7 20 -4.5 39.5
t13.5 34.5t28 22.5t35 8.5q21 1 43 -12q-27 -9 -39 -25q-17 -23 -11 -55q4 -20 15.5 -36t27.5 -27.5t35.5 -18t38.5 -6.5q21 0 41.5 6.5t37.5 17.5q28 18 35.5 45t1.5 54q-5 25 -21.5 46.5t-41.5 34.5q-28 14 -62 18.5t-66 0.5q-31 -3 -60.5 -12t-53.5 -25l-21 30l81 108
q-38 27 -60.5 70t-22.5 94q0 41 15 77.5t41 63.5t61 42.5t74 15.5q57 0 102 -31q8 11 18 26.5t13 21.5q10 14 22 25t31 7q16 -2 24.5 -17.5t2.5 -31.5q-14 13 -34 13q-30 0 -50 -26l-17 -25q35 -27 57 -69t22 -92zM360 339q-10 37 -28 67t-40.5 50.5t-47.5 28.5t-49 2
t-42 -26t-27 -48.5t-9.5 -63.5t9.5 -72t27.5 -67.5t40 -51t48 -28.5t49.5 -2q24 7 42 27t27 48.5t9.5 63.5t-9.5 72z" />
    <glyph glyph-name="h" unicode="h" horiz-adv-x="501" 
d="M427 338v-231q0 -48 10.5 -72.5t16.5 -34.5h-123q15 23 21 52t6 55q0 62 -0.5 116t-0.5 116q0 28 -6.5 54.5t-19.5 47t-33 32.5t-47 10q-41 -3 -71 -39q-17 -21 -25.5 -49t-8.5 -56v-232q0 -48 10.5 -72.5t16.5 -34.5h-123q16 23 21.5 52t5.5 55v456q0 17 -2 32.5
t-4 26.5q-5 19 -11 30t-10 18q25 0 53.5 7t42.5 23v-276q15 35 49.5 59t79.5 24q29 0 56.5 -10.5t48.5 -31.5t34 -52.5t13 -74.5z" />
    <glyph glyph-name="i" unicode="i" horiz-adv-x="225" 
d="M148 434v-327q0 -48 10.5 -72.5t16.5 -34.5h-123q15 23 21 52t6 55v262q0 18 -2 33.5t-5 26.5q-4 19 -10 30t-10 17q21 0 49.5 8.5t46.5 22.5v-73zM164 650q0 -21 -15 -35.5t-36 -14.5q-20 0 -35 14.5t-15 35.5t15 35.5t35 14.5q21 0 36 -14.5t15 -35.5z" />
    <glyph glyph-name="j" unicode="j" horiz-adv-x="219" 
d="M-8 -43q20 1 35.5 -10.5t17.5 -34.5q-29 9 -44 -7t-15 -37q0 -19 12.5 -34.5t35.5 -14.5q29 2 44 25.5t17 53.5q2 20 -2 39t-15 34v399q0 17 -2 32.5t-4 26.5q-5 19 -11 30t-10 17q21 0 50 8.5t47 22.5v-535q0 -18 -1 -35.5t-5 -34.5q-10 -42 -37 -68.5t-72 -26.5
q-22 0 -39.5 3t-29.5 11q-22 15 -31 37t-5 43q4 23 20 39t44 17zM163 650q0 -21 -15 -35.5t-35 -14.5q-21 0 -35.5 14.5t-14.5 35.5t14.5 35.5t35.5 14.5q20 0 35 -14.5t15 -35.5z" />
    <glyph glyph-name="k" unicode="k" horiz-adv-x="433" 
d="M146 107q0 -48 10.5 -72.5t16.5 -34.5h-123q15 23 21 52t6 55v456q0 17 -2 32.5t-5 26.5q-4 19 -10 30t-10 18q21 -1 49.5 7.5t46.5 22.5v-420l99 73q22 19 31 37q8 17 7.5 32.5t-8.5 26.5q-6 8 -15.5 12.5t-23.5 4.5q-26 2 -47 -15q6 23 27.5 39.5t48.5 16.5
q33 0 54.5 -19t23.5 -45q2 -20 -6.5 -39.5t-25.5 -35.5q-12 -11 -25.5 -20t-26.5 -17q-2 -2 -10.5 -7.5t-19.5 -13.5l101 -203q12 -24 22 -41t20 -29t21 -20.5t25 -16.5h-155q20 22 14.5 51t-19.5 56l-80 168l-32 -22v-146z" />
    <glyph glyph-name="l" unicode="l" horiz-adv-x="224" 
d="M146 700v-593q0 -48 10.5 -72.5t16.5 -34.5h-123q16 23 21.5 52t5.5 55v456q0 17 -2 32.5t-4 26.5q-5 19 -11 30t-10 18q21 -1 49.5 7.5t46.5 22.5z" />
    <glyph glyph-name="m" unicode="m" horiz-adv-x="782" 
d="M277 507q47 0 87 -26t56 -80q5 15 11 27q16 34 49 56.5t77 22.5q30 0 57.5 -10t48.5 -31t34 -53t13 -75v-231q0 -48 10 -72.5t17 -34.5h-123q15 23 21 52t6 55q0 62 -0.5 116t-0.5 116q0 28 -6.5 54.5t-19.5 47t-33 32.5t-47 10q-41 -3 -71 -39q-17 -20 -24.5 -46
t-9.5 -52v-7v-232q0 -48 10.5 -72.5t16.5 -34.5h-123q16 23 21.5 52t5.5 55v147v85q0 28 -6.5 54.5t-19.5 47t-33.5 32.5t-47.5 10q-20 -2 -38 -11.5t-32 -27.5q-18 -21 -26.5 -49t-8.5 -56v-232q0 -48 10.5 -72.5t16.5 -34.5h-123q16 23 21.5 52t5.5 55v263q0 17 -2 32.5
t-4 26.5q-5 19 -11 30t-10 17q25 0 53.5 7.5t42.5 23.5v-83q15 35 49.5 59t79.5 24z" />
    <glyph glyph-name="n" unicode="n" horiz-adv-x="502" 
d="M429 338v-231q0 -48 10.5 -72.5t16.5 -34.5h-123q15 23 21 52t6 55q0 62 -0.5 116t-0.5 116q0 28 -6.5 54.5t-19.5 47t-33 32.5t-47 10q-41 -3 -71 -39q-17 -21 -25.5 -49t-8.5 -56v-232q0 -48 10.5 -72.5t16.5 -34.5h-123q15 23 21 52t6 55v263q0 17 -2 32.5t-5 26.5
q-4 19 -10 30t-10 17q25 0 53 7.5t43 23.5v-83q15 35 49 59t79 24q30 0 57.5 -10.5t48.5 -31.5t34 -52.5t13 -74.5z" />
    <glyph glyph-name="o" unicode="o" horiz-adv-x="519" 
d="M471 254q0 -52 -16.5 -98.5t-45.5 -81t-67.5 -54.5t-82.5 -20t-82.5 20t-67.5 54.5t-45.5 81t-16.5 98.5q0 53 16.5 99t45.5 80t67.5 54t82.5 20t82.5 -20t67.5 -54t45.5 -80t16.5 -99zM117 216q11 -41 30 -75t42.5 -59t50 -38.5t53.5 -13.5q13 0 25 3q30 8 51 32
t32.5 59.5t11.5 78.5t-12 89q-11 41 -29.5 75t-42 59t-50.5 38.5t-54 13.5q-13 0 -25 -3q-30 -8 -51 -32t-32.5 -59.5t-11.5 -78.5t12 -89z" />
    <glyph glyph-name="p" unicode="p" horiz-adv-x="566" 
d="M152 428q29 37 69 58t85 21q44 0 82.5 -20t67.5 -54t45.5 -80t16.5 -99q0 -52 -16.5 -98.5t-45.5 -81t-67.5 -54.5t-82.5 -20q-45 0 -85 21.5t-69 58.5v-135q0 -31 5 -56t22 -51q-21 0 -49.5 -8.5t-46.5 -22.5v550q0 23 -0.5 44t-5 40t-13 36t-25.5 30h1q26 -5 45 -13.5
t34 -8.5q19 0 33 22v-79zM448 292q-11 41 -29.5 75t-42 59t-50.5 38.5t-54 13.5q-13 0 -25 -3q-29 -8 -50.5 -32.5t-32.5 -59.5t-11.5 -78.5t11.5 -89.5q11 -41 30 -75t42.5 -58.5t50.5 -38t54 -13.5q13 0 25 3q29 8 50 32t32.5 59.5t11.5 78.5t-12 89z" />
    <glyph glyph-name="q" unicode="q" horiz-adv-x="554" 
d="M47 254q0 53 16.5 99t45.5 80t67.5 54t82.5 20q34 0 64 -11.5t56 -32.5q26 -20 47 -14q17 4 31 21t25 37v-562q0 -31 5 -56t22 -51q-21 0 -49.5 -8.5t-46.5 -22.5v272q-29 -36 -68.5 -57.5t-85.5 -21.5q-44 0 -82.5 20t-67.5 54.5t-45.5 81t-16.5 98.5zM413 221
q-1 37 -15 82t-38.5 84t-58.5 65t-76 26q-13 0 -25 -3q-30 -8 -51 -32.5t-32.5 -59.5t-11.5 -78.5t12 -89.5q11 -41 30 -75t42.5 -58.5t50 -38t53.5 -13.5q31 0 53 14.5t36.5 37.5t22 51t8.5 54v34z" />
    <glyph glyph-name="r" unicode="r" horiz-adv-x="404" 
d="M148 107q0 -48 10.5 -72.5t16.5 -34.5h-123q16 23 21.5 52t5.5 55v263q0 17 -2 32.5t-4 26.5q-5 19 -11 30t-10 17q21 0 49.5 8.5t46.5 22.5v-55q20 21 48 38t66 17q27 0 47.5 -10t34.5 -26.5t21 -38t6 -44.5q-1 -32 -17 -53.5t-38 -31.5t-46.5 -7t-42.5 20q42 6 65 37
q12 16 17 36.5t0 40.5q-4 17 -13.5 30.5t-26.5 21.5q-16 8 -33.5 6.5t-34.5 -12.5q-23 -14 -36 -43q-11 -21 -14 -45.5t-3 -47.5v-233z" />
    <glyph glyph-name="s" unicode="s" horiz-adv-x="445" 
d="M199 164q-25 13 -51 5q-17 -5 -29.5 -17.5t-14.5 -32.5q-3 -21 6 -43.5t29 -37.5q34 -25 77 -25q18 1 35 5t32 12q24 13 37.5 38t11.5 51q-2 28 -17.5 51.5t-35.5 41.5q-21 19 -44 34.5t-46 31.5q-22 14 -43 29.5t-40 32.5q-18 17 -29 38t-11 43q1 22 13 42t32 30
q24 12 54 14t56 1q38 -2 61.5 -7.5t46.5 -4.5q22 0 35 10v-154q-9 25 -21 50t-29 45.5t-40.5 34.5t-55.5 15q-14 0 -28 -2t-26 -8t-20 -16t-10 -25q-3 -27 20 -53q13 -14 32 -29t40 -29q29 -20 57.5 -39.5t50.5 -39.5q26 -24 43 -52t18 -63q1 -29 -12 -56.5t-42 -47.5
q-26 -20 -58 -29t-67 -9q-29 0 -52 5.5t-43 15.5q-22 11 -39 28.5t-26 38.5q-11 25 -8 51.5t17 46.5q13 17 32.5 26.5t45.5 4.5q18 -4 33.5 -16.5t22.5 -35.5z" />
    <glyph glyph-name="t" unicode="t" horiz-adv-x="329" 
d="M267 153q20 -19 26.5 -41.5t1.5 -43.5q-8 -28 -32 -48t-61 -20q-49 0 -81 32q-18 18 -28 43t-14 54q-2 17 -2.5 35t-0.5 35v253h-27v20h27v91q0 17 -2 32.5t-5 26.5q-4 19 -10 30t-10 18q21 -1 49.5 7.5t46.5 22.5v-228h79v-19h-79v-247q-20 -19 -31 -43q-11 -27 -10 -49
t11 -37q13 -20 35.5 -27.5t45.5 1.5q16 6 27 17.5t19 25.5t14 29t11 30z" />
    <glyph glyph-name="u" unicode="u" horiz-adv-x="502" 
d="M74 169v201q0 17 -2 32.5t-4 26.5q-5 19 -11 30t-10 17q21 0 49.5 8.5t46.5 22.5q0 -88 0.5 -169.5t0.5 -169.5q0 -28 6.5 -54.5t19.5 -47t33 -32t47 -10.5q41 3 71 39q17 21 25.5 49t8.5 56v202q0 17 -2 32.5t-4 26.5q-5 19 -11 30t-10 17q21 0 49.5 8.5t46.5 22.5v-369
q0 -18 2 -33.5t5 -26.5q4 -19 10 -30t10 -17q-25 0 -53 -7.5t-43 -23.5v84q-15 -35 -49 -59.5t-79 -24.5q-30 0 -57.5 10.5t-48.5 31.5t-34 52.5t-13 74.5z" />
    <glyph glyph-name="v" unicode="v" horiz-adv-x="439" 
d="M194 0l-114 413q-9 34 -28.5 61.5t-39.5 32.5h146q-16 -11 -15.5 -33.5t10.5 -60.5l93 -346q6 13 16 38t21.5 53.5t22.5 56.5t19 47q11 25 19.5 64t3.5 74q-4 29 -20 45.5t-39 20.5q-14 2 -29 -0.5t-29 -10.5q11 31 36 47.5t52 17.5q25 1 46.5 -12.5t30.5 -42.5
q6 -22 4.5 -46t-7.5 -48q-8 -30 -21 -59t-23 -55l-104 -257h-51z" />
    <glyph glyph-name="w" unicode="w" horiz-adv-x="658" 
d="M245 0h-51l-114 413q-9 34 -28.5 61.5t-39.5 32.5h146q-16 -11 -15.5 -33.5t10.5 -60.5l93 -346q6 13 16 38t21.5 53.5t22.5 56.5t19 47q5 11 9 24l-35 127q-10 34 -29 61.5t-39 32.5h146q-16 -11 -16 -33.5t11 -60.5l93 -346q6 13 16 38t21 53.5t22.5 56.5t18.5 47
q5 12 10.5 29t9 35.5t5 37.5t-0.5 36q-4 29 -20 45.5t-39 20.5q-30 5 -59 -11q11 31 36 47.5t53 17.5q25 1 46.5 -12.5t29.5 -42.5q7 -22 5.5 -46t-8.5 -48q-8 -30 -20.5 -59t-23.5 -55l-104 -257h-50l-68 247z" />
    <glyph glyph-name="x" unicode="x" horiz-adv-x="455" 
d="M257 265q4 4 12 11.5t17 17t18 18.5t15 16q11 11 18.5 27.5t12.5 33.5q8 30 -1 52t-28 31q-12 5 -24 5q-19 0 -40 -12q8 27 32 42q21 14 48 12q35 -2 54.5 -27t19.5 -59q0 -36 -22 -66q-11 -14 -24.5 -27t-28.5 -27l-27 -27t-33 -32l-9 -9l72 -142q7 -14 16.5 -31t21 -32
t24.5 -26t26 -14h-157q23 14 21.5 37.5t-17.5 56.5l-76 149q-4 -4 -11.5 -12t-16.5 -17l-18 -18t-15 -16q-11 -12 -19 -28.5t-13 -33.5q-8 -29 1 -51.5t28 -30.5q9 -5 24 -5q19 0 40 12q-4 -14 -12.5 -24.5t-19.5 -18.5q-21 -14 -48 -12q-22 2 -38 12q-5 4 -9.5 8t-8.5 9
q-18 26 -18 58q0 35 22 65q11 14 25 27t28 27q14 13 28 27l33 33l4 4t5 4l-73 143q-7 14 -16.5 30.5t-21 31.5t-24.5 26t-26 14h157q-23 -14 -21.5 -37t17.5 -56z" />
    <glyph glyph-name="y" unicode="y" horiz-adv-x="440" 
d="M245 0l-27 -63q-8 -18 -19 -41t-25.5 -42.5t-33 -33t-42.5 -13.5q-32 0 -53 15.5t-29 37t-1.5 43.5t28.5 36q3 -28 16 -47t43 -21q17 -1 33 5.5t28 17.5q11 10 18.5 22t12.5 24l26 60h4h-30l-113 413q-10 34 -29.5 61.5t-39.5 32.5h146q-16 -11 -15.5 -33.5t11.5 -60.5
l93 -346q6 13 16 38t21 53.5t22.5 56.5t18.5 47q5 12 10.5 29t9 35.5t5 37.5t-0.5 36q-5 29 -21 45.5t-39 20.5q-29 5 -58 -11q11 31 36 47.5t52 17.5q26 1 47.5 -12.5t29.5 -42.5q7 -22 5.5 -46t-8.5 -48q-8 -30 -20.5 -59t-23.5 -55z" />
    <glyph glyph-name="z" unicode="z" horiz-adv-x="441" 
d="M311 492h-93h-14q-34 0 -56 -11t-37 -29t-25.5 -42.5t-20.5 -53.5v151h326q0 -41 -17 -76.5t-43.5 -68t-58 -64t-61 -65.5t-53 -72.5t-33.5 -83.5q-3 -16 -4 -30.5t-1 -30.5h102q21 -1 42 4t37 17q17 11 26.5 30.5t7.5 39.5q-1 16 -8.5 29t-22.5 21q-16 8 -39 8
q17 11 37.5 14.5t39.5 -1.5t33 -18.5t19 -36.5q4 -19 -1 -39t-18 -37q-19 -24 -51 -35q-18 -7 -37 -9.5t-39 -2.5h-104t-94 1q0 62 16.5 111t41.5 89t55.5 72.5t58.5 62t51 57t32 57.5q4 11 5 21t1 21v0z" />
    <glyph glyph-name="braceleft" unicode="{" horiz-adv-x="318" 
d="M269 687q-46 0 -63 -22.5t-21 -60.5q-4 -34 1 -75.5t9.5 -82.5t2.5 -78.5t-21 -63.5q-12 -17 -31 -30.5t-49 -19.5q30 -7 49 -20t31 -30q19 -26 21 -63.5t-2.5 -78.5t-9.5 -82.5t-1 -75.5q4 -38 21 -60.5t63 -22.5v-13h-16q-40 0 -66.5 12.5t-41.5 33.5t-20 49.5t-2 60.5
q2 19 6.5 48.5t6.5 61.5t-1 63t-17 53q-10 15 -25.5 24t-38.5 9v62q40 0 59 26q17 21 21 52.5t2.5 65t-6.5 65t-7 50.5q-3 32 2 60.5t20 49.5t41.5 33.5t66.5 12.5h16v-13z" />
    <glyph glyph-name="bar" unicode="|" horiz-adv-x="222" 
d="M80 -193v893h62v-893h-62z" />
    <glyph glyph-name="braceright" unicode="}" horiz-adv-x="318" 
d="M48 700h17q40 0 66.5 -12.5t41.5 -33.5t20 -49.5t2 -60.5q-2 -19 -7 -50.5t-7 -65t2.5 -65t20.5 -52.5q21 -26 59 -26v-62q-23 0 -38.5 -9t-25.5 -24q-14 -22 -17 -53t-1 -63t7 -61.5t7 -48.5q3 -32 -2 -60.5t-20 -49.5t-41.5 -33.5t-66.5 -12.5h-17v13q46 0 63 22.5
t22 60.5q4 34 -1.5 75.5t-10 82.5t-2.5 78.5t21 63.5q12 17 31.5 30t48.5 20q-29 6 -48.5 19.5t-31.5 30.5q-19 26 -21 63.5t2.5 78.5t10 82.5t1.5 75.5q-5 38 -22 60.5t-63 22.5v13z" />
    <glyph glyph-name="asciitilde" unicode="~" horiz-adv-x="533" 
d="M29 320q37 60 87 79.5t124 -1.5q5 -2 10 -3.5t11 -3.5q32 -11 63.5 -22.5t62 -15.5t58.5 4.5t51 38.5l9 -16q-38 -60 -88 -79.5t-123 1.5q-6 2 -11 3t-10 3q-32 11 -64.5 23t-62.5 16t-58 -5t-51 -39z" />
    <glyph glyph-name="uni00A0" unicode="&#xa0;" horiz-adv-x="319" 
 />
    <glyph glyph-name="exclamdown" unicode="&#xa1;" horiz-adv-x="225" 
d="M58 -193l34 499h40l35 -499h-109zM113 507q24 0 41.5 -15.5t17.5 -36.5q0 -22 -17.5 -37t-41.5 -15q-25 0 -42.5 15t-17.5 37q0 21 17.5 36.5t42.5 15.5z" />
    <glyph glyph-name="cent" unicode="&#xa2;" horiz-adv-x="513" 
d="M213 57q28 -22 58.5 -30t59.5 0q35 9 62 37t39 70q0 3 2 11v-62q-29 -38 -72.5 -60.5t-91.5 -22.5q-37 0 -72 15l-40 -112h-57l50 140q-43 34 -68.5 89t-25.5 121q0 54 17 100t47 81q29 34 67 53.5t84 19.5q22 0 45 -5l37 101h57l-44 -120q27 -14 51 -38q11 -11 19 -23
t13 -25q5 -14 4.5 -27.5t-11.5 -25.5q-11 -11 -29 -18q-11 29 -26.5 54t-33.5 45l-6 6zM304 465q-48 28 -95 15q-31 -8 -54.5 -33.5t-36 -62t-13.5 -81t12 -91.5q8 -33 22.5 -61.5t32.5 -51.5z" />
    <glyph glyph-name="sterling" unicode="&#xa3;" horiz-adv-x="532" 
d="M241 485q25 -16 50 -15t44 14.5t29 38t6 56.5q-3 21 -9.5 40t-19.5 33.5t-33 23.5t-49 9q-25 0 -43.5 -10t-30.5 -27t-18 -38t-8 -44q-3 -50 7 -101t21 -103q5 -19 9 -39t6 -41h159l-27 -47h-126q2 -31 -0.5 -61.5t-12.5 -59t-27.5 -53t-45.5 -44.5h108q52 0 98.5 11.5
t74.5 39.5q32 31 31 82q30 -17 38 -44t-1 -52q-8 -23 -27.5 -38.5t-47.5 -15.5h-336q28 18 45.5 41t26.5 49.5t11.5 55.5t0.5 60q-1 8 -1.5 14.5t-1.5 14.5h-81l28 47h45q-7 40 -16 80.5t-15.5 79t-8 75t6.5 67.5q12 49 52 82.5t106 33.5q67 0 117 -39q25 -19 40.5 -45.5
t18.5 -61.5q3 -40 -9 -67t-32 -43q-20 -15 -44 -20t-46.5 0.5t-39.5 20.5t-22 40z" />
    <glyph glyph-name="currency" unicode="&#xa4;" horiz-adv-x="581" 
d="M410 196q-26 -18 -56 -28.5t-64 -10.5t-64 10.5t-55 28.5l-75 -74l-43 43l75 74q-39 53 -39 120q0 68 39 119l-75 75l43 43l75 -75q25 18 55 28.5t64 10.5t64 -10.5t56 -28.5l74 75l43 -43l-75 -75q39 -51 39 -119q0 -69 -39 -120l75 -74l-43 -43zM437 359
q0 30 -11.5 56.5t-31.5 46.5t-47 31.5t-57 11.5t-57 -11.5t-47 -31.5t-31.5 -46.5t-11.5 -56.5t11.5 -57t31.5 -47t47 -31.5t57 -11.5t57 11.5t47 31.5t31.5 47t11.5 57z" />
    <glyph glyph-name="yen" unicode="&#xa5;" horiz-adv-x="571" 
d="M475 282v-47h-145v-63h145v-48h-145v-17q0 -47 10.5 -72t16.5 -35h-123q15 23 21 52t6 55v17h-145v48h145v63h-145v47h134l-138 325q-17 42 -38 64t-41 29h136q-17 -11 -12 -33t18 -51l143 -334q10 17 22 38t24.5 44.5t25 46.5t22.5 43q8 14 15.5 30t13.5 33
q8 19 13.5 40.5t4.5 43.5q-2 35 -23 57t-58 15q-17 -3 -32 -13t-26 -24q4 12 12 26.5t20.5 26.5t30 20t40.5 8t40.5 -9.5t28.5 -25.5t15 -36.5t0 -42.5q-5 -26 -15.5 -47.5t-21.5 -41.5l-126 -232h131z" />
    <glyph glyph-name="brokenbar" unicode="&#xa6;" horiz-adv-x="204" 
d="M67 700h69v-344h-69v344zM136 150v-343h-69v343h69z" />
    <glyph glyph-name="section" unicode="&#xa7;" horiz-adv-x="550" 
d="M173 460q-8 -9 -11.5 -21.5t-1.5 -29.5q3 -22 17 -44t31 -41q20 -22 44 -41t44 -35q31 -24 64 -51t60 -59q2 6 2 12.5v13.5q-2 35 -14.5 64.5t-32.5 55.5q-25 32 -57.5 59t-64.5 51q-17 14 -38.5 30t-41.5 36zM457 86q15 -26 22.5 -55.5t3.5 -63.5q-5 -46 -32.5 -83.5
t-75.5 -57.5q-47 -20 -106 -19q-55 0 -103 21q-32 14 -58.5 37.5t-41.5 55.5q-17 35 -12.5 72.5t24.5 66.5q22 30 54 40.5t62 2.5q24 -6 43.5 -24t27.5 -47q-17 20 -39 28t-43 4q-24 -3 -40.5 -18.5t-24.5 -35.5q-8 -19 -7 -39.5t7 -39.5q8 -25 24 -46t37 -35q41 -27 90 -27
q28 1 50 7t39 16q35 20 50.5 54t13.5 71q-2 35 -14.5 64.5t-32.5 55.5q-25 32 -57.5 59t-64.5 51q-23 17 -50.5 39.5t-51.5 49.5q-23 26 -38 55.5t-13 60.5q2 26 16 45.5t35 32.5q-23 26 -38 55t-13 60q4 38 31 62.5t62 32.5q33 8 62 6q41 -1 73 -9t70 -7q30 0 47 14v-166
q-12 37 -24.5 65t-31 46.5t-45.5 28.5t-68 11q-16 1 -33.5 0t-34.5 -7q-23 -8 -38 -26t-10 -48q3 -22 17 -44t31 -41q20 -22 44 -41t44 -35q34 -26 70 -56.5t64 -65.5q27 -34 42.5 -73t10.5 -85q-3 -41 -26 -75z" />
    <glyph glyph-name="dieresis" unicode="&#xa8;" horiz-adv-x="348" 
d="M148 648q0 -21 -17.5 -36.5t-42.5 -15.5q-24 0 -41.5 15.5t-17.5 36.5q0 22 17.5 37t41.5 15q25 0 42.5 -15t17.5 -37zM319 648q0 -21 -17.5 -36.5t-42.5 -15.5q-24 0 -41.5 15.5t-17.5 36.5q0 22 17.5 37t41.5 15q25 0 42.5 -15t17.5 -37z" />
    <glyph glyph-name="copyright" unicode="&#xa9;" horiz-adv-x="643" 
d="M229 323q8 -31 23.5 -56.5t35 -42t41 -23.5t42.5 -1q23 6 40.5 25t25.5 46q2 4 2 7v-41q-19 -25 -48 -40t-60 -15q-29 0 -55 13t-45 36t-30 53.5t-11 65.5t11 65.5t31 53.5t45 36t55 13q27 0 52 -11q24 -10 45 -30q7 -8 12.5 -16t8.5 -16q8 -20 -5 -35q-6 -7 -19 -12
q-15 38 -40 65q-20 23 -45.5 33.5t-49.5 3.5q-21 -6 -36.5 -22.5t-24 -40.5t-9 -53.5t7.5 -60.5zM321 615q56 0 104 -21t84 -56q36 -37 57 -85t21 -103t-21 -103.5t-57 -84.5t-84 -56.5t-104 -20.5q-55 0 -103 20.5t-84 56.5t-57 84.5t-21 103.5t21 103t57 85q36 35 84 56
t103 21zM490 518q-32 32 -75.5 51t-93.5 19q-49 0 -92.5 -19t-75.5 -51t-51 -75t-19 -93t19 -93t51 -75t75.5 -51t92.5 -19q50 0 93.5 19t75.5 51t51 75t19 93t-19 93t-51 75z" />
    <glyph glyph-name="ordfeminine" unicode="&#xaa;" horiz-adv-x="354" 
d="M281 576v-96q0 -31 3 -57t25 -44q-29 11 -45 15t-27 -15v64q-6 -28 -36 -46t-67 -18q-40 0 -63 23.5t-25 54.5q-2 33 17 60t50 38q12 5 26 8t28 7q12 4 23.5 8t21.5 11q11 8 18 19.5t7 29.5q0 25 -18 39t-40 14q-7 0 -14 -1t-13 -4q-11 -5 -19 -14q-12 -14 -12 -29
q-1 -11 4.5 -19t13.5 -12q14 -6 30 1q-8 -26 -31 -33q-22 -5 -39 8t-19 36q-1 28 19 47q8 9 23 16q26 13 57 13t51 -9t31 -25t15.5 -39t4.5 -51zM157 405q31 0 55.5 20t24.5 55v123q-3 -14 -19 -25q-11 -8 -23 -14.5t-22 -10.5q-12 -5 -24.5 -11t-23.5 -14
q-18 -14 -25.5 -30.5t-5.5 -33.5q2 -23 19.5 -41t43.5 -18z" />
    <glyph glyph-name="guillemotleft" unicode="&#xab;" horiz-adv-x="529" 
d="M300 86v-25l-259 172v41l259 172v-26l-175 -167zM486 86v-25l-259 172v41l259 172v-26l-175 -167z" />
    <glyph glyph-name="uni00AD" unicode="&#xad;" horiz-adv-x="0" 
 />
    <glyph glyph-name="registered" unicode="&#xae;" horiz-adv-x="643" 
d="M321 615q56 0 104 -21t84 -56q36 -37 57 -85t21 -103t-21 -103.5t-57 -84.5t-84 -56.5t-104 -20.5q-55 0 -103 20.5t-84 56.5t-57 84.5t-21 103.5t21 103t57 85q36 35 84 56t103 21zM215 182q8 11 10.5 25t2.5 27v232q0 13 -2.5 27t-10.5 25h106q26 0 48 -14
q16 -11 24.5 -25.5t10.5 -31.5q2 -23 -9.5 -43.5t-33.5 -31.5q-6 -3 -12 -5t-11 -4q12 1 21 -4.5t15 -13.5q9 -11 12.5 -25t4.5 -29q2 -14 2.5 -28t2.5 -27q2 -16 9 -31t22 -23q-13 0 -26.5 1t-24.5 10q-13 13 -16 36q-2 14 -2 30t-1 31q-2 23 -7 39q-6 15 -15 24
q-11 8 -29 5q-7 -1 -14 -4t-12 -7q-15 -10 -19 -23v-90q0 -13 2.5 -27t10.5 -25h-59zM261 337q7 15 23 25q7 4 14.5 7t15.5 6q18 5 32 16q11 8 17 23t5 31q-1 15 -7 28.5t-17 22.5q-11 8 -25.5 11t-31.5 3h-26v-173zM490 518q-32 32 -75.5 51t-93.5 19q-49 0 -92.5 -19
t-75.5 -51t-51 -75t-19 -93t19 -93t51 -75t75.5 -51t92.5 -19q50 0 93.5 19t75.5 51t51 75t19 93t-19 93t-51 75z" />
    <glyph glyph-name="macron" unicode="&#xaf;" horiz-adv-x="390" 
d="M23 593v62h343v-62h-343z" />
    <glyph glyph-name="degree" unicode="&#xb0;" horiz-adv-x="248" 
d="M184 613q0 26 -17.5 43.5t-42.5 17.5q-26 0 -43.5 -17.5t-17.5 -43.5q0 -25 17.5 -42.5t43.5 -17.5q25 0 42.5 17.5t17.5 42.5zM210 613q0 -36 -25 -61t-61 -25t-61.5 25t-25.5 61t25.5 61.5t61.5 25.5t61 -25.5t25 -61.5z" />
    <glyph glyph-name="plusminus" unicode="&#xb1;" horiz-adv-x="589" 
d="M263 603h62v-222h223v-62h-223v-222h-62v222h-222v62h222v222zM41 -62v62h507v-62h-507z" />
    <glyph glyph-name="twosuperior" unicode="&#xb2;" horiz-adv-x="286" 
d="M144 385q-27 6 -48 7.5t-47 -13.5v22q17 14 34 29.5t33 32.5q12 14 25.5 30.5t24.5 35.5q11 17 19.5 41t9.5 49q0 29 -15.5 51.5t-47.5 22.5q-26 0 -40 -14.5t-16 -33.5q-2 -15 2.5 -26t13 -17.5t20 -7t23.5 6.5q-3 -11 -10.5 -18t-18 -9.5t-21.5 -0.5t-20 9
q-9 8 -15 20.5t-4 30.5q3 30 27 49q24 18 59 18q19 0 34.5 -2t27.5 -10q20 -12 29 -32.5t9 -42.5q-2 -26 -14 -51t-31 -48q-14 -18 -30 -33.5t-30 -28.5q-16 -14 -33 -27t-34 -27q18 8 30 11.5t21 4t17.5 -1t19.5 -3.5q5 -1 17 -1q27 -2 42 9q8 5 12.5 14t3.5 23
q10 -11 12.5 -23t-0.5 -22q-5 -13 -17.5 -21.5t-30.5 -8.5q-14 0 -23 2t-20 4z" />
    <glyph glyph-name="threesuperior" unicode="&#xb3;" horiz-adv-x="299" 
d="M169 576q27 -1 49 -19q14 -11 22.5 -27t10.5 -34q3 -23 -4 -46t-24 -40q-31 -31 -80 -31q-38 0 -64 21q-30 22 -33 62q-2 26 14.5 49.5t45.5 25.5q19 2 34.5 -8t19.5 -29q-14 8 -28 9.5t-26 -3.5q-14 -5 -22.5 -17.5t-10.5 -29.5q-2 -27 15 -48q10 -11 24 -18.5t31 -7.5
q22 0 38.5 10.5t24.5 27.5q8 15 9.5 34t-0.5 37q-5 30 -24 48q-16 17 -42 21l72 118q-9 -4 -21.5 -9.5t-27.5 -10t-30.5 -7t-29.5 -1.5q-20 2 -32.5 13.5t-11.5 33.5q15 -6 35.5 -9.5t43 -4t44.5 3t40 10.5v-22z" />
    <glyph glyph-name="acute" unicode="&#xb4;" horiz-adv-x="217" 
d="M31 548l72 152h89l-122 -152h-39z" />
    <glyph glyph-name="periodcentered" unicode="&#xb7;" horiz-adv-x="177" 
d="M148 350q0 -21 -17 -36.5t-42 -15.5t-42.5 15.5t-17.5 36.5q0 22 17.5 37t42.5 15t42 -15t17 -37z" />
    <glyph glyph-name="cedilla" unicode="&#xb8;" horiz-adv-x="200" 
d="M149 -165q-31 -28 -80 -28q-20 0 -49 3v9q30 -4 50.5 3.5t33 21t17 31t1 32.5t-14.5 25.5t-30 10.5h-5.5t-7.5 -1l46 74h20l-22 -40q5 -1 10.5 -2t10.5 -3q10 -4 19 -10t16 -14q16 -21 16 -47q0 -36 -31 -65z" />
    <glyph glyph-name="onesuperior" unicode="&#xb9;" horiz-adv-x="175" 
d="M112 428q0 -22 5 -33t7 -16h-56q7 11 9.5 24t2.5 25v203l-35 -15v11q19 12 33 32.5t19 40.5h15v-272z" />
    <glyph glyph-name="ordmasculine" unicode="&#xba;" horiz-adv-x="327" 
d="M200 403q18 5 31 20t19.5 36.5t7 48.5t-7.5 55q-7 28 -20.5 51t-30.5 38.5t-35.5 22t-36.5 1.5t-31 -20t-20 -36.5t-7 -48t7 -55.5q8 -28 21.5 -51t30.5 -38.5t35.5 -22t36.5 -1.5zM279 540q0 -33 -9 -62.5t-25 -51.5t-37 -34.5t-45 -12.5t-44.5 12.5t-36.5 34.5
t-25 51.5t-9 62.5t9 62t25 51t36.5 34.5t44.5 12.5t45 -12.5t37 -34.5t25 -51t9 -62z" />
    <glyph glyph-name="guillemotright" unicode="&#xbb;" horiz-adv-x="529" 
d="M404 253l-175 167v26l259 -172v-41l-259 -172v25zM218 253l-175 167v26l259 -172v-41l-259 -172v25z" />
    <glyph glyph-name="questiondown" unicode="&#xbf;" horiz-adv-x="469" 
d="M261 306q8 -31 2 -55t-20 -45q-19 -28 -41 -51.5t-40.5 -48t-31.5 -54t-13 -68.5q0 -32 8.5 -61t25.5 -51.5t43 -36t60 -13.5q29 0 51 9t37 23.5t23.5 33.5t11.5 39q4 32 -6 57t-29 38.5t-44 14.5t-50 -15q5 25 22 40t39.5 20.5t46.5 0.5t44 -20q20 -16 32 -43t9 -67
q-2 -32 -17.5 -60t-41.5 -48t-59.5 -29t-69.5 -9q-40 -1 -74 4t-60 22q-22 13 -37.5 31.5t-26 40t-15 45t-3.5 46.5q1 33 10 59t24 49q21 32 50 59.5t60 56.5q18 17 29.5 38t6.5 48h44zM180 455q0 21 17 36.5t42 15.5t42.5 -15.5t17.5 -36.5q0 -22 -17.5 -37t-42.5 -15
t-42 15t-17 37z" />
    <glyph glyph-name="Agrave" unicode="&#xc0;" horiz-adv-x="523" 
d="M264 700l183 -603q5 -15 11 -30.5t13.5 -29t17 -24t20.5 -13.5h-143q13 11 17 24.5t3 28.5t-6 31l-10 32l-9 31h-167q-36 0 -59 -9t-34 -45q-2 -5 -3 -11t-3 -11q-8 -24 -7 -42t18 -29h-93q24 14 40 42t24 54zM303 741l-122 152h89l72 -152h-39zM242 557
q-22 -75 -40.5 -136.5t-34.5 -112t-29 -92.5t-24 -79q14 21 32 29.5t45 8.5h162z" />
    <glyph glyph-name="Aacute" unicode="&#xc1;" horiz-adv-x="523" 
d="M264 700l183 -603q5 -15 11 -30.5t13.5 -29t17 -24t20.5 -13.5h-143q13 11 17 24.5t3 28.5t-6 31l-10 32l-9 31h-167q-36 0 -59 -9t-34 -45q-2 -5 -3 -11t-3 -11q-8 -24 -7 -42t18 -29h-93q24 14 40 42t24 54zM181 741l72 152h89l-123 -152h-38zM242 557
q-22 -75 -40.5 -136.5t-34.5 -112t-29 -92.5t-24 -79q14 21 32 29.5t45 8.5h162z" />
    <glyph glyph-name="Acircumflex" unicode="&#xc2;" horiz-adv-x="523" 
d="M264 700l183 -603q5 -15 11 -30.5t13.5 -29t17 -24t20.5 -13.5h-143q13 11 17 24.5t3 28.5t-6 31l-10 32l-9 31h-167q-36 0 -59 -9t-34 -45q-2 -5 -3 -11t-3 -11q-7 -24 -6.5 -42t17.5 -29h-93q24 14 40 42t24 54zM131 741l81 152h98l81 -152h-41l-89 102l-88 -102h-42z
M242 557q-22 -75 -40.5 -136.5t-34.5 -112t-29 -92.5t-24 -79q14 21 32 29.5t45 8.5h162z" />
    <glyph glyph-name="Atilde" unicode="&#xc3;" horiz-adv-x="523" 
d="M264 700l183 -603q5 -15 11 -30.5t13.5 -29t17 -24t20.5 -13.5h-143q13 11 17 24.5t3 28.5t-6 31l-10 32l-9 31h-167q-36 0 -59 -9t-34 -45q-2 -5 -3.5 -11t-3.5 -11q-7 -24 -6 -42t17 -29h-92q24 14 40 42t24 54zM82 827q28 45 65.5 59.5t92.5 -1.5q4 -2 7.5 -2.5
t8.5 -2.5q24 -8 48 -17t47 -12t43.5 3.5t38.5 28.5l7 -12q-29 -45 -66.5 -59.5t-91.5 1.5q-5 2 -8.5 2.5t-7.5 2.5q-24 8 -48.5 17t-47.5 11.5t-43.5 -4t-38.5 -28.5zM242 557q-22 -75 -40.5 -136.5t-34.5 -112t-29 -92.5t-24 -79q14 21 32 29.5t45 8.5h162z" />
    <glyph glyph-name="Adieresis" unicode="&#xc4;" horiz-adv-x="524" 
d="M264 700l183 -603q5 -15 11 -30.5t13.5 -29t17 -24t20.5 -13.5h-143q13 11 17 24.5t3 28.5t-6 31l-10 32l-9 31h-167q-36 0 -59 -9t-34 -45q-2 -5 -3.5 -11t-3.5 -11q-7 -24 -6 -42t17 -29h-92q24 14 40 42t24 54zM235 841q0 -21 -17.5 -36.5t-41.5 -15.5
q-25 0 -42.5 15.5t-17.5 36.5q0 22 17.5 37t42.5 15q24 0 41.5 -15t17.5 -37zM406 841q0 -21 -17.5 -36.5t-42.5 -15.5q-24 0 -41.5 15.5t-17.5 36.5q0 22 17.5 37t41.5 15q25 0 42.5 -15t17.5 -37zM242 557q-22 -75 -40.5 -136.5t-34.5 -112t-29 -92.5t-24 -79
q14 21 32 29.5t45 8.5h162z" />
    <glyph glyph-name="Aring" unicode="&#xc5;" horiz-adv-x="524" 
d="M447 97q5 -15 11 -30.5t13.5 -29t17 -24t20.5 -13.5h-143q13 11 17 24.5t3 28.5t-6 31l-10 32l-9 31h-167q-36 0 -59 -9t-34 -45l-6 -22q-8 -24 -7 -42t18 -29h-93q24 14 40 42t24 54l187 604zM348 807q0 -36 -25.5 -61.5t-61.5 -25.5t-61.5 25.5t-25.5 61.5q0 18 7 33.5
t18.5 27t27.5 18.5t34 7t34 -7t27.5 -18.5t18.5 -27t7 -33.5zM321 807q0 25 -17.5 42.5t-42.5 17.5t-42.5 -17.5t-17.5 -42.5q0 -26 17.5 -43.5t42.5 -17.5t42.5 17.5t17.5 43.5zM242 557q-22 -75 -40.5 -136.5t-34.5 -112t-29 -92.5t-24 -79q14 21 32 29.5t45 8.5h162z" />
    <glyph glyph-name="AE" unicode="&#xc6;" horiz-adv-x="801" 
d="M375 596q14 24 9 53q-2 13 -8.5 26t-14.5 25h358l21 -139q-8 33 -23.5 56t-34 38t-39.5 21.5t-41 6.5h-145v-221q13 17 32 17q12 1 24 -2.5t24 -8.5q10 -4 21 -8.5t22 -8.5q16 -5 32 -7t29 1.5t23 14t14 29.5q10 -20 10 -38q1 -34 -23 -52q-18 -13 -45 -12t-50 14
q-11 7 -22 14.5t-22 15.5q-7 5 -13.5 9t-14.5 9q-15 9 -26 6q-15 -5 -15 -30v-408h55q53 0 99.5 11.5t74.5 39.5q32 32 31 82q29 -17 37.5 -44t-0.5 -52q-8 -23 -27.5 -38.5t-48.5 -15.5h-317q16 23 21.5 52t5.5 55v40h-157q-36 0 -61.5 -9t-46.5 -45q-3 -5 -6 -11t-6 -11
q-14 -24 -18 -42t10 -29h-93q28 14 45 42t32 54zM388 175v382q-42 -75 -77 -136.5t-64 -112t-54 -92.5t-46 -79q20 21 40.5 29.5t47.5 8.5h153z" />
    <glyph glyph-name="Ccedilla" unicode="&#xc7;" horiz-adv-x="641" 
d="M130 293q18 -65 50 -117.5t72 -87t85 -49t89 -2.5q48 13 85.5 52t53.5 96q2 5 4 15v-85q-40 -53 -100 -83.5t-125 -31.5l-13 -24q5 -1 10.5 -2t10.5 -3q10 -4 19 -10t16 -14q16 -21 16 -47q0 -36 -31 -65q-31 -28 -80 -28q-19 0 -49 3v9q30 -4 50.5 3.5t33 21t17 31
t1 32.5t-14.5 25.5t-30 10.5h-5.5t-7.5 -1l36 59q-58 4 -108 33t-87 76t-58.5 108.5t-21.5 131.5q0 73 23 137t65 112q40 48 93 74.5t116 26.5q58 0 107 -21q53 -22 95 -65q14 -15 25.5 -31.5t18.5 -33.5q8 -19 6.5 -38t-17.5 -36q-13 -15 -39 -25q-15 41 -36 75.5t-47 61.5
q-44 48 -96 69t-103 7q-44 -12 -76.5 -46.5t-49.5 -85t-18.5 -112t15.5 -126.5z" />
    <glyph glyph-name="Egrave" unicode="&#xc8;" horiz-adv-x="499" 
d="M59 0q16 23 21.5 52t5.5 55v486q0 26 -5.5 55t-21.5 52h358l21 -139q-8 33 -23.5 56t-34 38t-39.5 21.5t-41 6.5h-145v-221q6 9 14.5 13t17.5 4q12 1 24 -2.5t24 -8.5q10 -4 21 -8.5t22 -8.5q16 -5 32 -7t29 1.5t23 14t14 29.5q10 -17 10 -38q1 -34 -23 -52
q-18 -13 -45 -12t-50 14q-11 7 -22 14.5t-22 15.5q-7 5 -14 9t-14 9q-15 9 -26 6q-15 -5 -15 -30v-408h55q53 0 99.5 11.5t74.5 39.5q15 15 23.5 35.5t6.5 46.5q31 -17 39 -44t-1 -52q-8 -23 -27.5 -38.5t-48.5 -15.5h-317zM300 741l-122 152h88l72 -152h-38z" />
    <glyph glyph-name="Eacute" unicode="&#xc9;" horiz-adv-x="499" 
d="M59 0q15 23 21 52t6 55v486q0 26 -6 55t-21 52h358l21 -139q-8 33 -23.5 56t-34 38t-39.5 21.5t-41 6.5h-145v-221q6 9 14.5 13t17.5 4q12 1 23.5 -2.5t24.5 -8.5q10 -4 20.5 -8.5t22.5 -8.5q16 -5 32 -7t29 1.5t23 14t14 29.5q10 -20 10 -38q1 -34 -23 -52
q-18 -13 -45 -12t-50 14q-11 7 -22 14.5t-22 15.5q-7 5 -13.5 9t-14.5 9q-16 9 -26 6q-15 -5 -15 -30v-408h55q53 0 99.5 11.5t74.5 39.5q15 15 23.5 35.5t6.5 46.5q30 -17 38 -44t-1 -52q-8 -23 -27.5 -38.5t-47.5 -15.5h-317zM177 741l72 152h89l-122 -152h-39z" />
    <glyph glyph-name="Ecircumflex" unicode="&#xca;" horiz-adv-x="499" 
d="M59 0q15 23 21 52t6 55v486q0 26 -6 55t-21 52h358l20 -139q-8 33 -23 56t-33.5 38t-39.5 21.5t-41 6.5h-145v-221q6 9 14.5 13t17.5 4q11 1 23 -2.5t25 -8.5q9 -4 20 -8.5t23 -8.5q32 -11 60.5 -5.5t37.5 43.5q8 -17 10 -38q1 -34 -23 -52q-19 -13 -45.5 -12t-49.5 14
q-11 7 -22 14.5t-22 15.5q-7 5 -14 9t-14 9q-16 9 -27 6q-14 -5 -14 -30v-408h55q52 0 98.5 11.5t75.5 39.5q15 15 23.5 35.5t6.5 46.5q30 -17 38 -44t-1 -52q-8 -23 -27.5 -38.5t-47.5 -15.5h-317zM128 741l80 152h99l80 -152h-41l-88 102l-89 -102h-41z" />
    <glyph glyph-name="Edieresis" unicode="&#xcb;" horiz-adv-x="499" 
d="M59 0q15 23 21 52t6 55v486q0 26 -6 55t-21 52h358l20 -139q-8 33 -23 56t-33.5 38t-39.5 21.5t-41 6.5h-145v-221q6 9 14.5 13t17.5 4q11 1 23 -2.5t25 -8.5q10 -4 20.5 -8.5t22.5 -8.5q32 -11 60.5 -5.5t37.5 43.5q8 -17 10 -38q1 -34 -23 -52q-19 -13 -45.5 -12
t-49.5 14q-11 7 -22 14.5t-22 15.5q-7 5 -14 9t-14 9q-16 9 -27 6q-14 -5 -14 -30v-408h55q52 0 98.5 11.5t75.5 39.5q15 15 23.5 35.5t6.5 46.5q30 -17 38 -44t-1 -52q-8 -23 -27.5 -38.5t-47.5 -15.5h-317zM232 841q0 -21 -17.5 -36.5t-42.5 -15.5q-24 0 -41.5 15.5
t-17.5 36.5q0 22 17.5 37t41.5 15q25 0 42.5 -15t17.5 -37zM403 841q0 -21 -17.5 -36.5t-42.5 -15.5t-42 15.5t-17 36.5q0 22 17 37t42 15t42.5 -15t17.5 -37z" />
    <glyph glyph-name="Igrave" unicode="&#xcc;" horiz-adv-x="241" 
d="M59 0q16 23 21.5 52t5.5 55v486q0 26 -5.5 55t-21.5 52h123q-6 -10 -16.5 -34.5t-10.5 -72.5v-486q0 -48 10.5 -73t16.5 -34h-123zM163 741l-123 152h89l72 -152h-38z" />
    <glyph glyph-name="Iacute" unicode="&#xcd;" horiz-adv-x="241" 
d="M59 0q15 23 20.5 52t5.5 55v486q0 26 -5.5 55t-20.5 52h123q-7 -10 -17 -34.5t-10 -72.5v-486q0 -48 10 -73t17 -34h-123zM40 741l72 152h89l-123 -152h-38z" />
    <glyph glyph-name="Icircumflex" unicode="&#xce;" horiz-adv-x="242" 
d="M59 0q16 23 21.5 52t5.5 55v486q0 26 -5.5 55t-21.5 52h123q-6 -10 -16 -34.5t-10 -72.5v-486q0 -48 10 -73t16 -34h-123zM-9 741l81 152h98l81 -152h-41l-89 102l-89 -102h-41z" />
    <glyph glyph-name="Idieresis" unicode="&#xcf;" horiz-adv-x="242" 
d="M59 0q16 23 21.5 52t5.5 55v486q0 26 -5.5 55t-21.5 52h124q-7 -10 -17 -34.5t-10 -72.5v-486q0 -48 10 -73t17 -34h-124zM95 841q0 -21 -17 -36.5t-42 -15.5t-42.5 15.5t-17.5 36.5q0 22 17.5 37t42.5 15t42 -15t17 -37zM266 841q0 -21 -17.5 -36.5t-42.5 -15.5
q-24 0 -41.5 15.5t-17.5 36.5q0 22 17.5 37t41.5 15q25 0 42.5 -15t17.5 -37z" />
    <glyph glyph-name="Eth" unicode="&#xd0;" horiz-adv-x="633" 
d="M444 116q33 47 49 108.5t16 126t-16 126t-49 107.5q-31 45 -79 72t-114 27h-47v-302h112v-62h-112v-302h47q66 0 114 27t79 72zM29 319v62h106v212q0 26 -5.5 55t-21.5 52h187q59 0 106 -21.5t82 -58.5q50 -52 75 -123.5t25 -146.5t-25 -146.5t-75 -123.5
q-35 -37 -82 -58.5t-106 -21.5h-187q16 23 21.5 52t5.5 55v212h-106z" />
    <glyph glyph-name="Ntilde" unicode="&#xd1;" horiz-adv-x="590" 
d="M59 0q15 23 21 52t6 55v486q0 26 -6 55t-21 52h64l358 -581v474q0 26 -5.5 55t-21.5 52h79q-6 -10 -16.5 -34.5t-10.5 -72.5v-504q1 -44 -18 -67t-61 -22q-8 0 -14 2q16 7 21 17t3.5 22t-8.5 24.5t-15 23.5l-303 499v-481q0 -48 10 -73t17 -34h-79zM117 827
q28 45 65.5 59.5t92.5 -1.5q4 -2 7.5 -2.5t8.5 -2.5q24 -8 48 -17t47 -12t43.5 3.5t38.5 28.5l7 -12q-29 -45 -66.5 -59.5t-92.5 1.5q-5 2 -8.5 2.5t-7.5 2.5q-24 8 -48 17t-47 11.5t-43.5 -4t-38.5 -28.5z" />
    <glyph glyph-name="Ograve" unicode="&#xd2;" horiz-adv-x="685" 
d="M342 700q61 0 115 -27.5t94 -75t63 -111.5t23 -136t-23 -136t-63 -111.5t-94 -75t-115 -27.5t-114.5 27.5t-93.5 75t-63 111.5t-23 136t23 136t63 111.5t93.5 75t114.5 27.5zM351 893l72 -152h-39l-122 152h89zM562 409q-17 65 -49.5 117.5t-74 87t-88 48t-91.5 1.5
q-46 -12 -79.5 -47.5t-52 -86t-20.5 -112t15 -126.5q18 -65 50.5 -117.5t74 -87t88 -48t91.5 -1.5q46 12 79.5 47.5t52 86t20.5 112t-16 126.5z" />
    <glyph glyph-name="Oacute" unicode="&#xd3;" horiz-adv-x="685" 
d="M342 700q61 0 115 -27.5t94 -75t63 -111.5t23 -136t-23 -136t-63 -111.5t-94 -75t-115 -27.5t-114.5 27.5t-93.5 75t-63 111.5t-23 136t23 136t63 111.5t93.5 75t114.5 27.5zM423 893l-122 -152h-39l72 152h89zM562 409q-17 65 -49.5 117.5t-74 87t-88 48t-91.5 1.5
q-46 -12 -79.5 -47.5t-52 -86t-20.5 -112t15 -126.5q18 -65 50.5 -117.5t74 -87t88 -48t91.5 -1.5q46 12 79.5 47.5t52 86t20.5 112t-16 126.5z" />
    <glyph glyph-name="Ocircumflex" unicode="&#xd4;" horiz-adv-x="685" 
d="M562 409q-17 65 -49.5 117.5t-74 87t-88 48t-91.5 1.5q-46 -12 -79.5 -47.5t-52 -86t-20.5 -112t15 -126.5q18 -65 50.5 -117.5t74 -87t88 -48t91.5 -1.5q46 12 79.5 47.5t52 86t20.5 112t-16 126.5zM254 741h-41l80 152h98l81 -152h-41l-89 102zM48 350q0 72 23 136
t63 111.5t93.5 75t114.5 27.5t115 -27.5t94 -75t63 -111.5t23 -136t-23 -136t-63 -111.5t-94 -75t-115 -27.5t-114.5 27.5t-93.5 75t-63 111.5t-23 136z" />
    <glyph glyph-name="Otilde" unicode="&#xd5;" horiz-adv-x="685" 
d="M342 700q61 0 115 -27.5t94 -75t63 -111.5t23 -136t-23 -136t-63 -111.5t-94 -75t-115 -27.5t-114.5 27.5t-93.5 75t-63 111.5t-23 136t23 136t63 111.5t93.5 75t114.5 27.5zM164 827q27 45 64.5 59.5t93.5 -1.5q4 -2 7.5 -2.5t8.5 -2.5q24 -8 48 -17t46.5 -12t43.5 3.5
t38 28.5l7 -12q-29 -45 -66 -59.5t-92 1.5q-5 2 -8.5 2.5t-7.5 2.5q-24 8 -48.5 17t-47.5 11.5t-43.5 -4t-38.5 -28.5zM562 409q-17 65 -49.5 117.5t-74 87t-88 48t-92.5 1.5q-45 -12 -78.5 -47.5t-52 -86t-20.5 -112t15 -126.5q18 -65 50.5 -117.5t74 -87t88 -48t91.5 -1.5
q46 12 79.5 47.5t51.5 86t20 112t-15 126.5z" />
    <glyph glyph-name="Odieresis" unicode="&#xd6;" horiz-adv-x="685" 
d="M48 350q0 72 23 136t63 111.5t93.5 75t114.5 27.5t115 -27.5t94 -75t63 -111.5t23 -136t-23 -136t-63 -111.5t-94 -75t-115 -27.5t-114.5 27.5t-93.5 75t-63 111.5t-23 136zM428 789q-25 0 -42.5 15.5t-17.5 36.5q0 22 17.5 37t42.5 15t42 -15t17 -37q0 -21 -17 -36.5
t-42 -15.5zM257 789q-25 0 -42.5 15.5t-17.5 36.5q0 22 17.5 37t42.5 15t42 -15t17 -37q0 -21 -17 -36.5t-42 -15.5zM259 663q-46 -12 -79.5 -47.5t-52 -86t-20.5 -112t15 -126.5q18 -65 50.5 -117.5t74 -87t88 -48t91.5 -1.5q46 12 79.5 47.5t52 86t20.5 112t-16 126.5
q-17 65 -49.5 117.5t-74 87t-88 48t-91.5 1.5z" />
    <glyph glyph-name="multiply" unicode="&#xd7;" horiz-adv-x="492" 
d="M45 507l44 44l157 -157l157 157l44 -44l-157 -157l157 -157l-44 -44l-157 157l-157 -157l-44 44l157 157z" />
    <glyph glyph-name="Oslash" unicode="&#xd8;" horiz-adv-x="696" 
d="M137 107q-39 48 -61 109.5t-22 133.5t23 136t63 111.5t93.5 75t114.5 27.5q54 0 101 -20.5t85 -57.5l60 78h49l-83 -107q38 -48 60.5 -110t22.5 -133q0 -72 -23 -136t-63 -111.5t-94 -75t-115 -27.5q-53 0 -100 20.5t-85 57.5l-60 -78h-49zM265 663q-46 -12 -79.5 -47.5
t-52 -86t-20.5 -112t15 -126.5q19 -68 55 -124l308 399q-48 59 -107.5 86t-118.5 11zM206 134q48 -59 107.5 -86t118.5 -11q46 12 79.5 47.5t52 86t20.5 112t-16 126.5q-9 35 -23 66t-31 58z" />
    <glyph glyph-name="Ugrave" unicode="&#xd9;" horiz-adv-x="536" 
d="M149 593v-391q0 -78 37 -124t103 -46q65 0 103 46t38 124v391q0 26 -5.5 55t-21.5 52h79q-7 -10 -17 -34.5t-10 -72.5v-403q0 -42 -10.5 -77t-32.5 -60t-56 -39t-81 -14q-95 0 -145 50.5t-50 139.5v403q0 26 -6 55t-21 52h123q-6 -10 -16.5 -34.5t-10.5 -72.5v0zM309 741
l-122 152h89l72 -152h-39z" />
    <glyph glyph-name="Uacute" unicode="&#xda;" horiz-adv-x="536" 
d="M149 593v-391q0 -78 37 -124t103 -46q65 0 103 46t38 124v391q0 26 -6 55t-21 52h79q-7 -10 -17 -34.5t-10 -72.5v-403q0 -42 -10.5 -77t-32.5 -60t-56 -39t-81 -14q-95 0 -145 50.5t-50 139.5v403q0 26 -6 55t-21 52h123q-6 -10 -16.5 -34.5t-10.5 -72.5v0zM187 741
l72 152h89l-123 -152h-38z" />
    <glyph glyph-name="Ucircumflex" unicode="&#xdb;" horiz-adv-x="536" 
d="M149 593v-391q0 -78 37 -124t103 -46q65 0 103 46t38 124v391q0 26 -5.5 55t-21.5 52h79q-7 -10 -17 -34.5t-10 -72.5v-403q0 -42 -10.5 -77t-32.5 -60t-56 -39t-81 -14q-95 0 -145 50.5t-50 139.5v403q0 26 -6 55t-21 52h123q-6 -10 -16.5 -34.5t-10.5 -72.5v0zM138 741
l80 152h98l81 -152h-41l-89 102l-88 -102h-41z" />
    <glyph glyph-name="Udieresis" unicode="&#xdc;" horiz-adv-x="536" 
d="M149 593v-391q0 -78 37 -124t103 -46q65 0 103 46t38 124v391q0 26 -5.5 55t-21.5 52h79q-7 -10 -17 -34.5t-10 -72.5v-403q0 -42 -10.5 -77t-32.5 -60t-56 -39t-81 -14q-95 0 -145 50.5t-50 139.5v403q0 26 -6 55t-21 52h123q-6 -10 -16.5 -34.5t-10.5 -72.5v0zM241 841
q0 -21 -17 -36.5t-42 -15.5t-42 15.5t-17 36.5q0 22 17 37t42 15t42 -15t17 -37zM412 841q0 -21 -17 -36.5t-42 -15.5t-42.5 15.5t-17.5 36.5q0 22 17.5 37t42.5 15t42 -15t17 -37z" />
    <glyph glyph-name="Yacute" unicode="&#xdd;" 
d="M298 107q0 -47 10.5 -72t16.5 -35h-123q15 23 21 52t6 55v151l-149 349q-17 42 -38 64t-41 29h136q-17 -11 -12 -33t18 -51l143 -334q10 17 22 38t24.5 44.5t25 46.5t22.5 43q8 14 15.5 30t13.5 33q8 19 13.5 40.5t4.5 43.5q-2 35 -23 57t-58 15q-17 -3 -32 -13t-26 -24
q4 12 12 26.5t20.5 26.5t30 20t40.5 8t40.5 -9.5t28.5 -25.5t15 -36.5t0 -42.5q-5 -26 -15.5 -47.5t-21.5 -41.5l-140 -256v-151zM181 741l72 152h89l-122 -152h-39z" />
    <glyph glyph-name="Thorn" unicode="&#xde;" horiz-adv-x="484" 
d="M59 0q15 23 21 52t6 55v338v148q0 26 -6 55t-21 52h123q-16 -23 -21.5 -52t-5.5 -55v-41h124q56 0 101 -28q34 -22 52 -53.5t20 -66.5q3 -46 -20 -89t-69 -67q-23 -11 -46.5 -17t-46.5 -11q-15 -3 -32 -7t-32 -12q-19 -8 -31.5 -20.5t-19.5 -32.5v-41q0 -26 5.5 -55
t21.5 -52h-123zM155 175q7 18 19.5 30.5t27.5 21.5q15 8 31.5 14.5t31.5 11.5q17 6 34 13.5t32 20.5q23 19 36 50t11 64q-2 31 -15 59t-36 46q-21 18 -51.5 23.5t-66.5 5.5h-54v-360z" />
    <glyph glyph-name="germandbls" unicode="&#xdf;" horiz-adv-x="531" 
d="M51 0q15 23 21 52t6 55v422q0 45 11.5 75t28 49t36.5 28.5t36.5 13.5t28 4.5l11.5 0.5l53 -1q25 -1 47.5 -8t41.5 -19q34 -22 52 -53.5t20 -66.5q3 -46 -20 -89t-69 -67q-8 -4 -16.5 -7.5t-16.5 -5.5q40 -5 70.5 -24.5t47.5 -39.5q20 -26 32 -57.5t12 -66.5
q0 -42 -16.5 -78.5t-45.5 -63.5q-18 -17 -39.5 -29t-45.5 -18q-23 -6 -50.5 -5t-48.5 11q-29 14 -41.5 37.5t-11 46.5t15 40t35.5 17q-15 -16 -18 -35.5t4 -37t23 -29.5t38 -12q28 0 55.5 19t41.5 42q11 19 17 43t5 53q0 38 -14 73.5t-40 59.5q-33 30 -79 34q-36 3 -71 -14
q-17 -8 -30.5 -21t-20.5 -32v-189q0 -16 -4 -34.5t-15 -34.5t-29.5 -27t-47.5 -11zM369 549q-1 26 -9 50t-22 42t-34.5 28.5t-47.5 10.5q-54 0 -81.5 -38t-27.5 -92v-227q7 17 19.5 29.5t27.5 22.5q15 8 31.5 14.5t31.5 11.5q17 6 33.5 13.5t32.5 19.5q23 20 35.5 50.5
t10.5 64.5z" />
    <glyph glyph-name="agrave" unicode="&#xe0;" horiz-adv-x="495" 
d="M414 310v-150q0 -24 0.5 -47t4 -43t12.5 -38t27 -32q-22 8 -39.5 15t-31 8.5t-24 -3.5t-19.5 -20v102q-5 -22 -20 -41t-37 -32.5t-49.5 -21t-56.5 -7.5q-31 0 -56 10t-43 27.5t-28 40t-12 46.5q-1 26 6 50t21 44.5t34 35.5t44 24q20 8 42 13t44 11q20 5 38 12t33 17
q18 13 29 31.5t11 46.5q0 20 -8 35.5t-20.5 26t-29 16.5t-34.5 6q-25 0 -42 -8q-20 -8 -31 -22q-8 -9 -13.5 -21t-5.5 -25q-1 -17 7.5 -30t21.5 -19q23 -10 46 2q-5 -21 -17.5 -34.5t-29.5 -17.5q-35 -9 -62 12q-13 9 -21 24t-9 33q-2 23 6.5 41.5t22.5 32.5q17 17 38 26
q21 11 44 15.5t45 4.5q49 0 80.5 -14t49.5 -39.5t25 -62t7 -81.5zM292 548l-123 152h89l72 -152h-38zM218 41q24 0 47 8.5t40.5 24t28 37.5t10.5 49v194q-2 -11 -10.5 -21t-19.5 -19q-17 -14 -37 -24t-34 -16q-20 -8 -39 -16t-36 -22q-29 -22 -40.5 -48.5t-9.5 -52.5
q4 -38 31 -66t69 -28z" />
    <glyph glyph-name="aacute" unicode="&#xe1;" horiz-adv-x="495" 
d="M413 310v-150q0 -24 0.5 -47t4 -43t13 -38t27.5 -32q-23 8 -40 15t-30.5 8.5t-24 -3.5t-19.5 -20v102q-5 -22 -20 -41t-37 -32.5t-49.5 -21t-56.5 -7.5q-32 0 -57 10t-42.5 27.5t-27.5 40t-12 46.5q-1 26 6 50t21 44.5t34 35.5t44 24q20 8 42 13t44 11q19 5 37.5 12
t33.5 17q18 13 29 31.5t11 46.5q0 20 -8 35.5t-20.5 26t-29 16.5t-34.5 6q-24 0 -43 -8q-8 -4 -16 -9t-14 -13q-8 -9 -13.5 -21t-5.5 -25q-1 -17 7 -30t22 -19q23 -10 46 2q-5 -21 -17.5 -34.5t-29.5 -17.5q-35 -9 -62 12q-13 9 -21 24t-9 33q-2 23 6.5 41.5t22.5 32.5
q18 18 37 26q21 11 44.5 15.5t45.5 4.5q49 0 80.5 -14t49.5 -39.5t24.5 -62t6.5 -81.5zM169 548l72 152h89l-122 -152h-39zM217 41q24 0 47 8.5t41 24t28.5 37.5t10.5 49v194q-3 -11 -11 -21t-19 -19q-17 -14 -37 -24t-34 -16q-20 -8 -39 -16t-37 -22q-29 -22 -40 -48.5
t-9 -52.5q3 -38 30.5 -66t68.5 -28z" />
    <glyph glyph-name="acircumflex" unicode="&#xe2;" horiz-adv-x="495" 
d="M414 310v-150q0 -24 0.5 -47t4 -43t12.5 -38t27 -32q-22 8 -39.5 15t-31 8.5t-24 -3.5t-19.5 -20v102q-5 -22 -20 -41t-37 -32.5t-49.5 -21t-56.5 -7.5q-31 0 -56 10t-43 27.5t-28 40t-12 46.5q-1 26 6 50t21 44.5t34 35.5t44 24q20 8 42 13t44 11q20 5 38 12t33 17
q18 13 29 31.5t11 46.5q0 20 -8 35.5t-20.5 26t-29 16.5t-34.5 6q-25 0 -42 -8q-18 -7 -31 -22q-8 -9 -13.5 -21t-5.5 -25q-1 -17 7.5 -30t21.5 -19q23 -10 46 2q-5 -21 -17.5 -34.5t-29.5 -17.5q-35 -9 -62 12q-13 9 -21 24t-9 33q-2 23 6.5 41.5t22.5 32.5q17 17 38 26
q21 11 44 15.5t45 4.5q49 0 80.5 -14t49.5 -39.5t25 -62t7 -81.5zM120 548l81 152h98l81 -152h-42l-88 102l-89 -102h-41zM218 41q24 0 47 8.5t40.5 24t28 37.5t10.5 49v194q-2 -11 -10.5 -21t-19.5 -19q-17 -14 -37 -24t-34 -16q-20 -8 -39 -16t-36 -22
q-29 -22 -40.5 -48.5t-9.5 -52.5q4 -38 31 -66t69 -28z" />
    <glyph glyph-name="atilde" unicode="&#xe3;" horiz-adv-x="495" 
d="M413 310q0 -34 0.5 -74.5t0.5 -75.5v-47t4 -43t13 -38t27 -32q-23 8 -40 15t-30.5 8.5t-24 -3.5t-19.5 -20v102q-5 -22 -20 -41t-37 -32.5t-49.5 -21t-56.5 -7.5q-32 0 -57 10t-42.5 27.5t-27.5 40t-12 46.5q-1 26 6 50t21 44.5t34 35.5t44 24q20 8 42 13t44 11
q19 5 37.5 12t33.5 17q18 13 29 31.5t11 46.5q0 20 -8 35.5t-20.5 26t-29 16.5t-34.5 6q-24 0 -43 -8q-8 -4 -16 -9t-14 -13q-8 -9 -13.5 -21t-5.5 -25q-1 -17 7.5 -30t21.5 -19q23 -10 46 2q-5 -21 -17.5 -34.5t-29.5 -17.5q-35 -9 -62 12q-13 9 -21 24t-9 33
q-2 23 6.5 41.5t22.5 32.5q18 18 37 26q21 11 44.5 15.5t45.5 4.5q49 0 80.5 -14t49.5 -39.5t24.5 -62t6.5 -81.5zM71 634q28 45 65.5 60t92.5 -2q4 -1 7.5 -2t8.5 -3q24 -8 48 -17t47 -12t43.5 4t38.5 29l7 -13q-29 -45 -66.5 -59.5t-92.5 1.5q-5 2 -8 2.5t-8 2.5
q-24 8 -48 17t-47 12t-43.5 -3.5t-38.5 -29.5zM217 41q24 0 47 8.5t41 24t28.5 37.5t10.5 49v194q-3 -11 -11 -21t-19 -19q-17 -14 -37 -24t-34 -16q-20 -8 -39 -16.5t-37 -22.5q-29 -21 -40 -47.5t-9 -52.5q2 -19 10 -36t21 -30t30.5 -20.5t37.5 -7.5z" />
    <glyph glyph-name="adieresis" unicode="&#xe4;" horiz-adv-x="495" 
d="M413 310q0 -34 0.5 -74.5t0.5 -75.5v-47t4 -43t13 -38t27 -32q-23 8 -40 15t-30.5 8.5t-24 -3.5t-19.5 -20v102q-5 -22 -20 -41t-37 -32.5t-49.5 -21t-56.5 -7.5q-32 0 -57 10t-42.5 27.5t-27.5 40t-12 46.5q-1 26 6 50t21 44.5t34 35.5t44 24q20 8 42 13t44 11
q20 5 38 12t33 17q18 13 29 31.5t11 46.5q0 20 -8 35.5t-20.5 26t-29 16.5t-34.5 6q-25 0 -42 -8q-20 -8 -31 -22q-8 -9 -13.5 -21t-5.5 -25q-1 -17 7.5 -30t21.5 -19q23 -10 46 2q-5 -21 -17.5 -34.5t-29.5 -17.5q-35 -9 -62 12q-13 9 -21 24t-9 33q-2 23 6.5 41.5
t22.5 32.5q17 17 37 26q21 11 44.5 15.5t45.5 4.5q49 0 80.5 -14t49.5 -39.5t24.5 -62t6.5 -81.5zM224 648q0 -21 -17.5 -36t-42.5 -15q-24 0 -41.5 15t-17.5 36q0 23 17.5 37.5t41.5 14.5q25 0 42.5 -14.5t17.5 -37.5zM395 648q0 -21 -17.5 -36t-42.5 -15q-24 0 -41.5 15
t-17.5 36q0 23 17.5 37.5t41.5 14.5q25 0 42.5 -14.5t17.5 -37.5zM217 41q24 0 47 8.5t41 24t28.5 37.5t10.5 49v194q-2 -11 -10.5 -21t-19.5 -19q-17 -14 -37 -24t-34 -16q-20 -8 -39 -16t-36 -22q-29 -22 -40.5 -48.5t-9.5 -52.5q3 -38 30.5 -66t68.5 -28z" />
    <glyph glyph-name="aring" unicode="&#xe5;" horiz-adv-x="495" 
d="M413 310v-150q0 -24 0.5 -47t4 -43t12.5 -38t27 -32q-22 8 -39 15t-30.5 8.5t-24 -3.5t-19.5 -20v102q-5 -22 -20 -41t-37 -32.5t-49.5 -21t-57.5 -7.5q-31 0 -56 10t-42.5 27.5t-27.5 40t-12 46.5q-1 26 6 50t21 44.5t34 35.5t44 24q20 8 42 13t44 11q19 5 37.5 12
t33.5 17q18 13 29 31.5t11 46.5q0 20 -8 35.5t-21 26t-29.5 16.5t-33.5 6q-24 0 -43 -8q-8 -4 -16 -9t-14 -13q-8 -9 -13.5 -21t-5.5 -25q-1 -17 7 -30t22 -19q22 -10 46 2q-5 -21 -17.5 -34.5t-29.5 -17.5q-36 -9 -62 12q-13 9 -21 24t-9 33q-2 23 6.5 41.5t22.5 32.5
q18 18 37 26q21 11 44 15.5t46 4.5q49 0 80.5 -14t49.5 -39.5t24.5 -62t6.5 -81.5zM310 614q0 25 -17.5 42.5t-42.5 17.5q-26 0 -43.5 -17.5t-17.5 -42.5q0 -26 17.5 -43.5t43.5 -17.5q25 0 42.5 17.5t17.5 43.5zM336 614q0 -36 -25 -61.5t-61 -25.5t-61.5 25.5t-25.5 61.5
q0 18 7 33.5t18.5 27t27.5 18.5t34 7t33.5 -7t27.5 -18.5t18.5 -27t6.5 -33.5zM217 41q24 0 47 8.5t41 24t28.5 37.5t10.5 49v194q-3 -11 -11 -21t-19 -19q-17 -14 -37 -24t-34 -16q-20 -8 -39 -16t-37 -22q-29 -22 -40 -48.5t-9 -52.5q3 -38 30.5 -66t68.5 -28z" />
    <glyph glyph-name="ae" unicode="&#xe6;" horiz-adv-x="790" 
d="M559 0q-31 2 -60 14t-53.5 32t-43 48t-30.5 61q-5 -35 -21.5 -62.5t-46.5 -51.5q-23 -19 -55.5 -30t-67.5 -11q-32 0 -57 10t-42.5 27.5t-27.5 40t-12 46.5q-1 26 6 50t21 44.5t34 35.5t44 24q20 8 42 13t44 11q19 5 37.5 12t33.5 17q18 13 29 31.5t11 46.5q0 20 -8 35.5
t-20.5 26t-29 16.5t-34.5 6q-21 0 -43 -8q-8 -4 -16 -9t-14 -13q-8 -9 -13.5 -21t-5.5 -25q-1 -17 7.5 -30t21.5 -19q23 -10 46 2q-5 -21 -17.5 -34.5t-29.5 -17.5q-35 -9 -62 12q-13 9 -21 24t-9 33q-2 23 6.5 41.5t22.5 32.5q18 18 37 26q21 11 44.5 15.5t45.5 4.5
q67 0 101.5 -25t48.5 -70q16 23 36 42t43 31t46.5 17t45.5 5q40 0 74 -10q20 -6 40 -19t34 -30q16 -20 22 -43.5t0 -44.5q-10 -37 -51 -52q-27 -8 -59 -8h-57h-163q0 -42 12 -84q13 -50 37.5 -89t54.5 -63q40 -34 93 -32q46 0 81 26q23 17 38 41l10 -6q-14 -30 -39 -49
q-25 -21 -57.5 -32.5t-67.5 -11.5h-16zM344 354q-3 -11 -11 -21t-19 -19q-17 -14 -37 -24t-34 -16q-20 -8 -39 -16.5t-37 -21.5q-29 -22 -40 -48.5t-9 -52.5q3 -38 30.5 -66t68.5 -28q25 0 48 8.5t40 23.5q18 16 28.5 38t10.5 49v194zM552 319q33 0 54.5 3t35.5 9
q17 7 26.5 18t13.5 25q8 30 -13 60q-8 11 -19 21t-23 16q-14 7 -29 10t-31 4q-44 3 -83 -21q-32 -18 -50 -56.5t-21 -88.5h139z" />
    <glyph glyph-name="ccedilla" unicode="&#xe7;" horiz-adv-x="482" 
d="M339 497q43 -12 73 -47q15 -19 22 -41.5t3 -45.5q-3 -17 -13 -32t-27 -26q-18 -10 -39 -10.5t-41 9.5q-31 16 -41 49q21 -13 49 -13q35 1 46 26q8 16 4.5 34t-14.5 34q-16 23 -42 37q-14 7 -29 10t-31 4q-43 3 -83 -20q-23 -14 -39.5 -39.5t-24.5 -58.5t-7 -71.5
t12 -79.5q13 -50 37.5 -89t54.5 -64q40 -33 93 -31q37 0 68.5 17.5t50.5 49.5l10 -6q-13 -28 -39 -49q-25 -21 -57.5 -32.5t-67.5 -11.5h-3l-13 -24q5 -1 10.5 -2t10.5 -3q10 -4 19 -9.5t15 -13.5q16 -19 16 -48q0 -37 -31 -65t-80 -28q-9 0 -21.5 1t-26.5 3v8q29 -4 50 3.5
t33.5 21t17 31t1 32.5t-14.5 25.5t-30 10.5h-5.5t-7.5 -1l36 59q-41 4 -77 25t-62.5 55t-41.5 78t-15 94q0 39 9.5 74.5t26 65.5t39.5 53.5t51 38.5q23 12 46.5 17t45.5 5q40 0 74 -10z" />
    <glyph glyph-name="egrave" unicode="&#xe8;" horiz-adv-x="482" 
d="M265 507q40 0 74 -10q20 -6 40 -19t34 -30q16 -20 22 -43t0 -45q-10 -37 -52 -52q-27 -8 -58.5 -8h-56.5h-163q0 -42 12 -84q13 -50 37.5 -89t54.5 -64q40 -33 93 -31q46 0 81 26q23 17 38 41l10 -6q-13 -28 -39 -49q-25 -21 -57.5 -32.5t-67.5 -11.5h-16
q-42 2 -79.5 22.5t-65 54.5t-43.5 79.5t-16 96.5q0 39 9.5 74.5t26 65.5t39.5 53.5t51 38.5q23 12 46.5 17t45.5 5zM284 548l-122 152h89l72 -152h-39zM244 319q33 0 54.5 3t35.5 9q17 7 26.5 18t13.5 25q8 30 -13 60q-8 11 -19 21t-23 16q-14 7 -29 10t-31 4q-43 3 -83 -20
q-32 -19 -50 -57.5t-21 -88.5h139z" />
    <glyph glyph-name="eacute" unicode="&#xe9;" horiz-adv-x="482" 
d="M265 507q40 0 73 -10q21 -6 41 -19t34 -30q16 -20 21.5 -43t0.5 -45q-10 -37 -52 -52q-27 -8 -58.5 -8h-56.5h-163q0 -42 12 -84q13 -50 37.5 -89t54.5 -64q40 -33 92 -31q47 0 82 26q23 17 38 41l10 -6q-13 -28 -39 -49q-25 -21 -57.5 -32.5t-67.5 -11.5h-16
q-42 2 -79.5 22.5t-65 54.5t-43.5 79.5t-16 96.5q0 39 9.5 74.5t26 65.5t39.5 53.5t51 38.5q23 12 46 17t46 5zM162 548l72 152h89l-123 -152h-38zM244 319q33 0 54.5 3t35.5 9q17 7 26.5 18t13.5 25q8 30 -13 60q-8 11 -19 21t-23 16q-14 7 -29 10t-31 4q-43 3 -83 -20
q-32 -19 -50 -57.5t-21 -88.5h139z" />
    <glyph glyph-name="ecircumflex" unicode="&#xea;" horiz-adv-x="482" 
d="M265 507q40 0 73 -10q21 -6 41 -19t34 -30q16 -20 21.5 -43t0.5 -45q-10 -37 -52 -52q-27 -8 -58.5 -8h-56.5h-163q0 -42 12 -84q13 -50 37.5 -89t54.5 -64q40 -33 92 -31q47 0 82 26q23 17 38 41l10 -6q-13 -28 -39 -49q-25 -21 -57.5 -32.5t-67.5 -11.5h-16
q-42 2 -79.5 22.5t-65 54.5t-43.5 79.5t-16 96.5q0 39 9.5 74.5t26 65.5t39.5 53.5t51 38.5q23 12 46 17t46 5zM112 548l81 152h98l81 -152h-41l-89 102l-88 -102h-42zM244 319q33 0 54.5 3t35.5 9q17 7 26.5 18t13.5 25q8 30 -13 60q-8 11 -19 21t-23 16q-14 7 -29 10
t-31 4q-43 3 -83 -20q-32 -19 -50 -57.5t-21 -88.5h139z" />
    <glyph glyph-name="edieresis" unicode="&#xeb;" horiz-adv-x="482" 
d="M265 507q40 0 74 -10q20 -6 40 -19t34 -30q16 -20 22 -43t0 -45q-10 -37 -52 -52q-27 -8 -58.5 -8h-56.5h-163q0 -42 12 -84q13 -50 37.5 -89t54.5 -64q40 -33 92 -31q47 0 82 26q23 17 38 41l10 -6q-13 -28 -39 -49q-25 -21 -57.5 -32.5t-67.5 -11.5h-16
q-42 2 -79.5 22.5t-65 54.5t-43.5 79.5t-16 96.5q0 39 9.5 74.5t26 65.5t39.5 53.5t51 38.5q23 12 46.5 17t45.5 5zM216 648q0 -21 -17 -36t-42 -15t-42 15t-17 36q0 23 17 37.5t42 14.5t42 -14.5t17 -37.5zM387 648q0 -21 -17 -36t-42 -15t-42.5 15t-17.5 36
q0 23 17.5 37.5t42.5 14.5t42 -14.5t17 -37.5zM244 319q33 0 54.5 3t35.5 9q17 7 26.5 18t13.5 25q8 30 -13 60q-8 11 -19 21t-23 16q-14 7 -29 10t-31 4q-43 3 -83 -20q-32 -19 -50 -57.5t-21 -88.5h139z" />
    <glyph glyph-name="igrave" unicode="&#xec;" horiz-adv-x="225" 
d="M148 434v-327q0 -48 10 -73t17 -34h-123q15 23 20.5 52t5.5 55v262q0 38 -6 60q-4 19 -10 30t-10 17q21 0 49.5 8.5t46.5 22.5v-73zM155 548l-122 152h89l72 -152h-39z" />
    <glyph glyph-name="iacute" unicode="&#xed;" horiz-adv-x="224" 
d="M148 434v-327q0 -48 10.5 -73t16.5 -34h-123q16 23 21.5 52t5.5 55v262q0 18 -2 33.5t-4 26.5q-5 19 -11 30t-10 17q21 0 49.5 8.5t46.5 22.5v-73zM33 548l72 152h89l-122 -152h-39z" />
    <glyph glyph-name="icircumflex" unicode="&#xee;" horiz-adv-x="225" 
d="M149 434v-327q0 -48 10 -73t16 -34h-122q15 23 20.5 52t5.5 55v262q0 38 -6 60q-5 19 -10.5 30t-9.5 17q20 0 49 8.5t47 22.5v-73zM-16 548l81 152h98l81 -152h-41l-89 102l-89 -102h-41z" />
    <glyph glyph-name="idieresis" unicode="&#xef;" horiz-adv-x="225" 
d="M149 434v-327q0 -48 10 -73t16 -34h-123q16 23 21.5 52t5.5 55v262q0 18 -2 33.5t-4 26.5q-5 19 -10.5 30t-10.5 17q21 0 50 8.5t47 22.5v-73zM88 648q0 -21 -17.5 -36t-41.5 -15q-25 0 -42.5 15t-17.5 36q0 23 17.5 37.5t42.5 14.5q24 0 41.5 -14.5t17.5 -37.5zM259 648
q0 -21 -17.5 -36t-42.5 -15q-24 0 -41.5 15t-17.5 36q0 23 17.5 37.5t41.5 14.5q25 0 42.5 -14.5t17.5 -37.5z" />
    <glyph glyph-name="eth" unicode="&#xf0;" horiz-adv-x="526" 
d="M472 254q0 -53 -16.5 -99t-45.5 -80.5t-67.5 -54.5t-82.5 -20t-82.5 20t-67.5 54.5t-45.5 80.5t-16.5 99t16.5 99t45.5 80t67.5 54t82.5 20q45 0 86 -22q-9 35 -25 65.5t-36 56.5l-164 -61l-18 47l145 53q-47 41 -87 47l4 7q63 -7 117 -42l113 42l17 -47l-83 -30
q66 -60 104.5 -153t38.5 -208v-8zM118 216q12 -46 34 -83t49 -62t57.5 -35.5t60.5 -2.5t51 32t32.5 59.5t11.5 78.5t-12 89t-34 83t-49.5 62t-58 35.5t-59.5 2.5q-30 -8 -51 -32t-32.5 -59.5t-11.5 -78.5t12 -89z" />
    <glyph glyph-name="ntilde" unicode="&#xf1;" horiz-adv-x="502" 
d="M429 338v-231q0 -47 10.5 -72t16.5 -35h-123q15 23 21 52t6 55q0 62 -0.5 116.5t-0.5 115.5q0 28 -6.5 54.5t-19.5 47t-33 32.5t-47 10q-41 -3 -71 -39q-17 -21 -25.5 -49t-8.5 -56v-232q0 -47 10.5 -72t16.5 -35h-123q16 23 21.5 52t5.5 55v263q0 17 -2 32.5t-4 26.5
q-5 19 -11 30t-10 18q25 0 53 7t43 23v-83q15 35 49.5 59t79.5 24q29 0 56.5 -10.5t48.5 -31.5t34 -52.5t13 -74.5zM75 634q28 45 65.5 60t92.5 -2q4 -1 7.5 -2t8.5 -3q24 -8 48 -17t47 -12t43.5 4t38.5 29l7 -13q-29 -45 -66.5 -59.5t-91.5 1.5q-5 2 -8.5 2.5t-7.5 2.5
q-24 8 -48.5 17t-47.5 12t-43.5 -3.5t-38.5 -29.5z" />
    <glyph glyph-name="ograve" unicode="&#xf2;" horiz-adv-x="519" 
d="M471 254q0 -53 -16.5 -99t-45.5 -80.5t-67.5 -54.5t-82.5 -20t-82.5 20t-67.5 54.5t-45.5 80.5t-16.5 99t16.5 99t45.5 80t67.5 54t82.5 20t82.5 -20t67.5 -54t45.5 -80t16.5 -99zM301 548l-122 152h89l71 -152h-38zM117 216q12 -46 34 -83t49.5 -62t58 -35.5t59.5 -2.5
q30 8 51 32t32.5 59.5t11.5 78.5t-12 89t-34 83t-49.5 62t-58 35.5t-59.5 2.5q-30 -8 -51 -32t-32.5 -59.5t-11.5 -78.5t12 -89z" />
    <glyph glyph-name="oacute" unicode="&#xf3;" horiz-adv-x="519" 
d="M471 254q0 -53 -16.5 -99t-45.5 -80.5t-67.5 -54.5t-82.5 -20t-82.5 20t-67.5 54.5t-45.5 80.5t-16.5 99t16.5 99t45.5 80t67.5 54t82.5 20t82.5 -20t67.5 -54t45.5 -80t16.5 -99zM179 548l72 152h88l-122 -152h-38zM117 216q12 -46 34 -83t49.5 -62t58 -35.5t59.5 -2.5
q30 8 51 32t32.5 59.5t11.5 78.5t-12 89t-34 83t-49.5 62t-58 35.5t-59.5 2.5q-30 -8 -51 -32t-32.5 -59.5t-11.5 -78.5t12 -89z" />
    <glyph glyph-name="ocircumflex" unicode="&#xf4;" horiz-adv-x="519" 
d="M471 254q0 -53 -16.5 -99t-45.5 -80.5t-67.5 -54.5t-82.5 -20t-82.5 20t-67.5 54.5t-45.5 80.5t-16.5 99t16.5 99t45.5 80t67.5 54t82.5 20t82.5 -20t67.5 -54t45.5 -80t16.5 -99zM129 548l81 152h98l81 -152h-42l-88 102l-88 -102h-42zM117 216q12 -46 34 -83t49.5 -62
t58 -35.5t59.5 -2.5q30 8 51 32t32.5 59.5t11.5 78.5t-12 89t-34 83t-49.5 62t-58 35.5t-59.5 2.5q-30 -8 -51 -32t-32.5 -59.5t-11.5 -78.5t12 -89z" />
    <glyph glyph-name="otilde" unicode="&#xf5;" horiz-adv-x="519" 
d="M471 254q0 -53 -16.5 -99t-45.5 -80.5t-67.5 -54.5t-82.5 -20t-82.5 20t-67.5 54.5t-45.5 80.5t-16.5 99t16.5 99t45.5 80t67.5 54t82.5 20t82.5 -20t67.5 -54t45.5 -80t16.5 -99zM80 634q28 45 65.5 60t92.5 -2q7 -1 16 -5q24 -8 48 -17t47 -12t43.5 4t38.5 29l7 -13
q-29 -45 -66.5 -59.5t-91.5 1.5q-5 2 -8.5 2.5t-7.5 2.5q-24 8 -48.5 17t-47.5 12t-43.5 -3.5t-38.5 -29.5zM117 216q12 -46 34 -83t49.5 -62t58 -35.5t59.5 -2.5q30 8 51 32t32.5 59.5t11.5 78.5t-12 89t-34 83t-49.5 62t-58 35.5t-59.5 2.5q-30 -8 -51 -32t-32.5 -59.5
t-11.5 -78.5t12 -89z" />
    <glyph glyph-name="odieresis" unicode="&#xf6;" horiz-adv-x="519" 
d="M471 254q0 -53 -16.5 -99t-45.5 -80.5t-67.5 -54.5t-82.5 -20t-82.5 20t-67.5 54.5t-45.5 80.5t-16.5 99t16.5 99t45.5 80t67.5 54t82.5 20t82.5 -20t67.5 -54t45.5 -80t16.5 -99zM233 648q0 -21 -17 -36t-42 -15t-42.5 15t-17.5 36q0 23 17.5 37.5t42.5 14.5t42 -14.5
t17 -37.5zM404 648q0 -21 -17.5 -36t-42.5 -15q-24 0 -41.5 15t-17.5 36q0 23 17.5 37.5t41.5 14.5q25 0 42.5 -14.5t17.5 -37.5zM117 216q12 -46 34 -83t49.5 -62t58 -35.5t59.5 -2.5q30 8 51 32t32.5 59.5t11.5 78.5t-12 89t-34 83t-49.5 62t-58 35.5t-59.5 2.5
q-30 -8 -51 -32t-32.5 -59.5t-11.5 -78.5t12 -89z" />
    <glyph glyph-name="divide" unicode="&#xf7;" horiz-adv-x="447" 
d="M24 319v62h398v-62h-398zM282 148q0 -21 -17 -36.5t-42 -15.5t-42 15.5t-17 36.5q0 23 17 37.5t42 14.5t42 -14.5t17 -37.5zM282 551q0 -21 -17 -36t-42 -15t-42 15t-17 36q0 23 17 37.5t42 14.5t42 -14.5t17 -37.5z" />
    <glyph glyph-name="oslash" unicode="&#xf8;" horiz-adv-x="529" 
d="M476 254q0 -53 -16.5 -99t-45.5 -80.5t-67.5 -54.5t-82.5 -20q-35 0 -67.5 13.5t-58.5 36.5l-37 -50h-49l58 79q-27 34 -42.5 79t-15.5 96q0 53 16.5 99t45.5 80t67.5 54t82.5 20q35 0 67.5 -13t58.5 -37l37 50h49l-58 -79q27 -34 42.5 -78.5t15.5 -95.5zM176 102
q32 -41 70.5 -60.5t76.5 -8.5q30 8 51 32t32.5 59.5t11.5 78.5t-12 89q-6 22 -13.5 41.5t-18.5 36.5zM352 405q-32 42 -70.5 61t-76.5 9q-30 -8 -51 -32t-32.5 -59.5t-11.5 -78.5t12 -89q5 -22 13 -41.5t18 -37.5z" />
    <glyph glyph-name="ugrave" unicode="&#xf9;" 
d="M291 548l-122 152h89l71 -152h-38zM74 170v200q0 17 -2 32.5t-4 26.5q-5 19 -11 30t-10 18q21 -1 49.5 7.5t46.5 22.5q0 -88 0.5 -169.5t0.5 -169.5q0 -28 6.5 -54.5t19.5 -47t33 -32t47 -10.5q41 3 71 39q17 22 25.5 49.5t8.5 55.5v202q0 17 -2 32.5t-5 26.5
q-4 19 -10 30t-10 18q21 -1 49.5 7.5t46.5 22.5v-369q0 -18 2 -33.5t4 -26.5q5 -19 11 -30t10 -17q-25 0 -53 -7.5t-43 -23.5v84q-15 -35 -49.5 -59.5t-79.5 -24.5q-29 0 -56.5 10.5t-48.5 31.5t-34 53t-13 75z" />
    <glyph glyph-name="uacute" unicode="&#xfa;" 
d="M74 170v200q0 17 -2 32.5t-4 26.5q-5 19 -11 30t-10 18q21 -1 49.5 7.5t46.5 22.5q0 -88 0.5 -169.5t0.5 -169.5q0 -28 6.5 -54.5t19.5 -47t33 -32t47 -10.5q41 3 71 39q17 22 25.5 49.5t8.5 55.5v202q0 17 -2 32.5t-4 26.5q-5 19 -11 30t-10 18q21 -1 49.5 7.5
t46.5 22.5v-369q0 -18 2 -33.5t4 -26.5q5 -19 11 -30t10 -17q-25 0 -53 -7.5t-43 -23.5v84q-15 -35 -49 -59.5t-79 -24.5q-30 0 -57.5 10.5t-48.5 31.5t-34 53t-13 75zM169 548l72 152h88l-122 -152h-38z" />
    <glyph glyph-name="ucircumflex" unicode="&#xfb;" horiz-adv-x="502" 
d="M74 170v200q0 17 -2 32.5t-5 26.5q-4 19 -10 30t-10 18q21 -1 49.5 7.5t46.5 22.5v-339q0 -28 6.5 -54.5t20 -47t33.5 -32t47 -10.5q19 2 37.5 11.5t33.5 27.5q17 22 25.5 49.5t8.5 55.5v202q0 17 -2 32.5t-5 26.5q-4 19 -10 30t-10 18q21 -1 49.5 7.5t46.5 22.5v-369
q0 -18 2 -33.5t4 -26.5q5 -19 11 -30t10 -17q-25 0 -53 -7.5t-43 -23.5v84q-15 -35 -49.5 -59.5t-79.5 -24.5q-29 0 -56.5 10.5t-48.5 31.5t-34 53t-13 75zM119 548l81 152h98l81 -152h-42l-88 102l-88 -102h-42z" />
    <glyph glyph-name="udieresis" unicode="&#xfc;" 
d="M74 170v200q0 17 -2 32.5t-4 26.5q-5 19 -11 30t-10 18q21 -1 49.5 7.5t46.5 22.5q0 -88 0.5 -169.5t0.5 -169.5q0 -28 6.5 -54.5t19.5 -47t33 -32t47 -10.5q41 3 71 39q17 22 25.5 49.5t8.5 55.5v202q0 17 -2 32.5t-4 26.5q-5 19 -11 30t-10 18q21 -1 49.5 7.5
t46.5 22.5v-369q0 -18 2 -33.5t4 -26.5q5 -19 11 -30t10 -17q-25 0 -53 -7.5t-43 -23.5v84q-15 -35 -49 -59.5t-79 -24.5q-30 0 -57.5 10.5t-48.5 31.5t-34 53t-13 75zM223 648q0 -21 -17 -36t-42 -15t-42.5 15t-17.5 36q0 23 17.5 37.5t42.5 14.5t42 -14.5t17 -37.5z
M394 648q0 -21 -17.5 -36t-42.5 -15q-24 0 -41.5 15t-17.5 36q0 23 17.5 37.5t41.5 14.5q25 0 42.5 -14.5t17.5 -37.5z" />
    <glyph glyph-name="yacute" unicode="&#xfd;" horiz-adv-x="438" 
d="M244 0l-27 -62q-8 -18 -19 -41t-25.5 -43t-33 -33.5t-42.5 -13.5q-32 0 -53 15.5t-29 37t-1.5 44t28.5 35.5q3 -28 16 -47t43 -21q17 -1 33 5.5t28 17.5q11 10 18.5 22t12.5 24l26 60h-26l-113 413q-10 34 -29.5 61.5t-39.5 32.5h146q-16 -11 -15.5 -33.5t10.5 -60.5
l94 -346q6 13 16 38t21 53.5t22.5 56.5t18.5 47q5 13 10.5 29.5t9 35t5 37.5t-0.5 36q-5 29 -21 45.5t-39 20.5q-29 5 -58 -11q11 31 36 47.5t52 17.5q26 1 47.5 -12.5t29.5 -42.5q6 -23 4.5 -46t-7.5 -48q-8 -30 -21 -59t-23 -55l-104 -257v0zM188 548l72 152h89l-122 -152
h-39z" />
    <glyph glyph-name="thorn" unicode="&#xfe;" horiz-adv-x="557" 
d="M142 428q29 37 68.5 58t85.5 21q44 0 82.5 -20t67.5 -54t45.5 -80t16.5 -99q0 -52 -16.5 -98.5t-45.5 -81t-67.5 -54.5t-82.5 -20q-46 0 -85.5 21.5t-68.5 58.5v-135q0 -18 2 -33.5t4 -26.5q5 -19 11 -30t10 -17q-21 0 -49.5 -8.5t-46.5 -22.5v744q0 45 -5.5 83.5
t-38.5 65.5h1q21 -4 37.5 -10.5t30 -9.5t24 0.5t20.5 19.5v-272zM438 292q-12 46 -34 83t-49 62t-57.5 35.5t-60.5 2.5t-51 -32t-32.5 -59.5t-11.5 -78.5t12 -89t34 -83t49.5 -62t58 -35.5t59.5 -2.5q30 8 51 32t32.5 59.5t11.5 78.5t-12 89z" />
    <glyph glyph-name="ydieresis" unicode="&#xff;" horiz-adv-x="438" 
d="M244 0l-27 -62q-8 -18 -19 -41t-25.5 -43t-33 -33.5t-42.5 -13.5q-32 0 -53 15.5t-29 37t-1.5 44t28.5 35.5q3 -28 16 -47t43 -21q17 -1 33 5.5t28 17.5q11 10 18.5 22t12.5 24l26 60h-26l-114 413q-9 34 -28.5 61.5t-39.5 32.5h146q-16 -11 -15.5 -33.5t10.5 -60.5
l94 -346q6 13 16 38t21 53.5t22.5 56.5t18.5 47q5 13 10.5 29.5t9 35t5 37.5t-0.5 36q-5 29 -21 45.5t-39 20.5q-29 5 -58 -11q11 31 36 47.5t52 17.5q26 1 47 -12.5t30 -42.5q6 -23 4.5 -46t-7.5 -48q-8 -30 -21 -59t-23 -55l-104 -257v0zM207 648q0 -21 -17.5 -36
t-41.5 -15q-25 0 -42.5 15t-17.5 36q0 23 17.5 37.5t42.5 14.5q24 0 41.5 -14.5t17.5 -37.5zM378 648q0 -21 -17.5 -36t-42.5 -15q-24 0 -41.5 15t-17.5 36q0 23 17.5 37.5t41.5 14.5q25 0 42.5 -14.5t17.5 -37.5z" />
    <glyph glyph-name="Amacron" unicode="&#x100;" horiz-adv-x="524" 
d="M264 700l183 -603q5 -15 11 -30.5t13.5 -29t17 -24t20.5 -13.5h-143q13 11 17 24.5t3 28.5t-6 31l-10 32l-9 31h-167q-36 0 -59 -9t-34 -45q-2 -5 -3 -11t-3 -11q-8 -24 -7 -42t18 -29h-93q24 14 40 42t24 54zM89 786v62h344v-62h-344zM242 557q-22 -75 -40.5 -136.5
t-34.5 -112t-29 -92.5t-24 -79q14 21 32 29.5t45 8.5h162z" />
    <glyph glyph-name="amacron" unicode="&#x101;" horiz-adv-x="495" 
d="M414 310v-150v-47t4 -43t13 -38t27 -32q-23 8 -40 15t-30.5 8.5t-24 -3.5t-19.5 -20v102q-5 -22 -20 -41t-37 -32.5t-49.5 -21t-56.5 -7.5q-32 0 -57 10t-42.5 27.5t-27.5 40t-12 46.5q-1 26 6 50t21 44.5t34 35.5t44 24q20 8 42 13t44 11q20 5 38 12t33 17
q18 13 29 31.5t11 46.5q0 20 -8 35.5t-20.5 26t-29 16.5t-34.5 6q-25 0 -42 -8q-20 -8 -31 -22q-8 -9 -13.5 -21t-5.5 -25q-1 -17 7.5 -30t21.5 -19q23 -10 46 2q-5 -21 -17.5 -34.5t-29.5 -17.5q-35 -9 -62 12q-13 9 -21 24t-9 33q-2 23 6.5 41.5t22.5 32.5q17 17 37 26
q22 11 45 15.5t45 4.5q49 0 80.5 -14t49.5 -39.5t25 -62t7 -81.5zM78 593v62h343v-62h-343zM217 41q24 0 47 8.5t41 24t28.5 37.5t10.5 49v194q-2 -11 -10.5 -21t-19.5 -19q-17 -14 -37 -24t-34 -16q-20 -8 -39 -16t-36 -22q-29 -22 -40.5 -48.5t-9.5 -52.5q3 -38 30.5 -66
t68.5 -28z" />
    <glyph glyph-name="Abreve" unicode="&#x102;" horiz-adv-x="524" 
d="M264 700l183 -603q5 -15 11 -30.5t13.5 -29t17 -24t20.5 -13.5h-143q13 11 17 24.5t3 28.5t-6 31l-10 32l-9 31h-167q-36 0 -59 -9t-34 -45q-2 -5 -3 -11t-3 -11q-8 -24 -7 -42t18 -29h-93q24 14 40 42t24 54zM261 741q-42 0 -69.5 16t-44.5 39.5t-24 50t-7 46.5h22
q0 -21 10 -38t26.5 -29.5t39 -19.5t47.5 -7q26 0 48 7t39 19.5t26.5 29.5t9.5 38h22q0 -20 -7 -46.5t-23.5 -50t-44.5 -39.5t-70 -16zM242 557q-22 -75 -40.5 -136.5t-34.5 -112t-29 -92.5t-24 -79q14 21 32 29.5t45 8.5h162z" />
    <glyph glyph-name="abreve" unicode="&#x103;" horiz-adv-x="495" 
d="M413 310v-150q0 -24 0.5 -47t4 -43t12.5 -38t27 -32q-22 8 -39.5 15t-30.5 8.5t-23.5 -3.5t-19.5 -20v102q-5 -22 -20 -41t-37 -32.5t-49.5 -21t-57.5 -7.5q-31 0 -56 10t-42.5 27.5t-27.5 40t-12 46.5q-1 26 6 50t21 44.5t34 35.5t44 24q20 8 42 13t44 11q19 5 37.5 12
t33.5 17q18 13 29 31.5t11 46.5q0 20 -8 35.5t-21 26t-29.5 16.5t-33.5 6q-24 0 -43 -8q-8 -4 -16 -9t-14 -13q-8 -9 -13.5 -21t-5.5 -25q-1 -17 7 -30t22 -19q22 -10 46 2q-5 -21 -17.5 -34.5t-29.5 -17.5q-36 -9 -62 12q-13 9 -21 24t-9 33q-2 23 6.5 41.5t22.5 32.5
q18 18 37 26q21 11 44 15.5t46 4.5q49 0 80.5 -14t49.5 -39.5t24.5 -62t6.5 -81.5zM250 548q-42 0 -70 16t-44.5 39.5t-23.5 50t-7 46.5h22q0 -21 9.5 -38t26.5 -29.5t39.5 -19.5t47.5 -7t47.5 7t39 19.5t26 29.5t9.5 38h23q0 -20 -7 -46.5t-24 -50t-44.5 -39.5t-69.5 -16z
M217 41q24 0 47 8.5t41 24t28.5 37.5t10.5 49v194q-3 -11 -11 -21t-19 -19q-17 -14 -37 -24t-34 -16q-20 -8 -39 -16t-37 -22q-29 -22 -40 -48.5t-9 -52.5q3 -38 30.5 -66t68.5 -28z" />
    <glyph glyph-name="Aogonek" unicode="&#x104;" horiz-adv-x="517" 
d="M264 700l183 -603q5 -15 11 -30.5t13.5 -29t17 -24t20.5 -13.5h-59q-6 -6 -12.5 -13t-12.5 -14q-24 -28 -28 -53.5t5 -44.5q11 -22 34 -30t49 6l4 -7q-12 -15 -33 -26t-45 -11q-26 0 -45 14q-13 10 -18.5 22t-6.5 26q-1 18 6 35.5t19 31.5q11 14 24 25l26 22q5 5 10 8.5
t10 8.5h-70q13 11 17 24.5t3 28.5t-6 31l-10 32l-9 31h-167q-36 0 -59 -9t-34 -45q-2 -5 -3 -11t-3 -11q-8 -24 -7 -42t17 -29h-92q24 14 40 42t24 54zM242 557q-22 -75 -40.5 -136.5t-34.5 -112t-29 -92.5t-24 -79q14 21 32 29.5t45 8.5h162z" />
    <glyph glyph-name="aogonek" unicode="&#x105;" horiz-adv-x="495" 
d="M414 310v-150q0 -24 0.5 -47t4 -43t12.5 -38t27 -32q-10 4 -18.5 7t-16.5 6q-8 -8 -18 -18.5t-20 -21.5q-24 -28 -28 -53.5t5 -44.5q11 -22 34 -30t49 6l4 -7q-11 -15 -32.5 -26t-44.5 -11q-14 0 -25.5 4t-19.5 10q-14 10 -19.5 22.5t-6.5 26.5q-1 17 6 35t19 32
q11 13 24 24.5t26 21.5q10 8 19.5 16t20.5 16h1q-26 10 -42.5 9t-30.5 -24v102q-5 -22 -20 -41t-37 -32.5t-49.5 -21t-56.5 -7.5q-31 0 -56 10t-43 27.5t-28 40t-12 46.5q-1 26 6 50t21 44.5t34 35.5t44 24q20 8 42 13t44 11q20 5 38 12t33 17q18 13 29 31.5t11 46.5
q0 20 -8 35.5t-20.5 26t-29 16.5t-34.5 6q-25 0 -42 -8q-18 -7 -31 -22q-8 -9 -13.5 -21t-5.5 -25q-1 -17 7.5 -30t21.5 -19q22 -10 47 2q-5 -21 -18 -34.5t-30 -17.5q-35 -9 -62 12q-13 9 -21 24t-9 33q-2 23 6.5 41.5t22.5 32.5q17 17 38 26q21 11 44 15.5t45 4.5
q49 0 80.5 -14t49.5 -39.5t25 -62t7 -81.5zM218 41q24 0 47 8.5t40.5 24t28 37.5t10.5 49v194q-2 -11 -10.5 -21t-19.5 -19q-17 -14 -37 -24t-34 -16q-20 -8 -39 -16t-36 -22q-29 -22 -40.5 -48.5t-9.5 -52.5q4 -38 31 -66t69 -28z" />
    <glyph glyph-name="Cacute" unicode="&#x106;" horiz-adv-x="641" 
d="M130 293q18 -65 50 -117.5t72 -87t85 -49t89 -2.5q48 13 85.5 52t53.5 96q1 4 2 7.5t2 7.5v-85q-41 -54 -101 -84.5t-126 -30.5q-61 0 -114.5 27.5t-93.5 75t-63 111.5t-23 136q0 73 23.5 137t63.5 112q41 48 94 74.5t116 26.5q58 0 107 -21q53 -23 94 -65q32 -32 45 -65
q8 -19 6.5 -38t-17.5 -36q-15 -15 -40 -25q-31 83 -82 137q-44 48 -96 69t-104 7q-44 -12 -76 -46.5t-49 -85t-18.5 -112t15.5 -126.5zM242 741l72 152h89l-122 -152h-39z" />
    <glyph glyph-name="cacute" unicode="&#x107;" horiz-adv-x="482" 
d="M339 497q43 -12 73 -47q15 -19 22 -41.5t3 -45.5q-3 -17 -13 -32t-27 -26q-18 -10 -39 -10.5t-41 9.5q-31 16 -41 49q21 -13 49 -13q35 1 46 26q8 16 4.5 34t-14.5 34q-16 23 -42 37q-14 7 -29 10t-31 4q-43 3 -83 -20q-23 -14 -39.5 -39.5t-24.5 -58.5t-7 -71.5
t12 -79.5q13 -50 37.5 -89t54.5 -64q40 -33 92 -31q38 0 69.5 17.5t50.5 49.5l10 -6q-13 -28 -39 -49q-25 -21 -57.5 -32.5t-67.5 -11.5h-16q-42 2 -79.5 22.5t-65 54.5t-43.5 79.5t-16 96.5q0 39 9.5 74.5t26 65.5t39.5 53.5t51 38.5q23 12 46.5 17t45.5 5q40 0 74 -10z
M162 548l72 152h89l-122 -152h-39z" />
    <glyph glyph-name="Ccircumflex" unicode="&#x108;" horiz-adv-x="641" 
d="M130 293q18 -65 50 -117.5t72 -87t85 -49t89 -2.5q48 13 85.5 52t53.5 96q2 5 4 15v-85q-41 -54 -101 -84.5t-126 -30.5q-61 0 -114.5 27.5t-93.5 75t-63 111.5t-23 136q0 73 23.5 137t64.5 112q40 48 93 74.5t116 26.5q58 0 107 -21q53 -22 95 -65q14 -15 25.5 -31.5
t18.5 -33.5q8 -19 6.5 -38t-17.5 -36q-13 -15 -39 -25q-16 41 -36.5 75.5t-46.5 61.5q-44 48 -96 69t-103 7q-44 -12 -76.5 -46.5t-49.5 -85t-18.5 -112t15.5 -126.5zM193 741l81 152h98l81 -152h-42l-88 102l-89 -102h-41z" />
    <glyph glyph-name="Cdotaccent" unicode="&#x10a;" horiz-adv-x="641" 
d="M130 293q17 -65 49 -117.5t72.5 -87t85.5 -49t89 -2.5q48 13 85.5 52t53.5 96q1 4 2 7.5t2 7.5v-85q-41 -54 -101 -84.5t-126 -30.5q-61 0 -114.5 27.5t-93.5 75t-63 111.5t-23 136q0 73 23.5 137t63.5 112q41 48 94 74.5t116 26.5q58 0 107 -21q53 -23 94 -65
q32 -32 45 -65q7 -19 6 -38t-16 -36q-8 -7 -17.5 -13.5t-23.5 -11.5q-31 83 -82 137q-44 48 -96 69t-104 7q-44 -12 -76 -46.5t-49 -85t-18.5 -112t15.5 -126.5zM382 841q0 -21 -17 -36.5t-42 -15.5t-42.5 15.5t-17.5 36.5q0 22 17.5 37t42.5 15t42 -15t17 -37z" />
    <glyph glyph-name="cdotaccent" unicode="&#x10b;" horiz-adv-x="482" 
d="M338 497q45 -12 73 -47q16 -19 23 -41.5t3 -45.5q-3 -17 -13 -32t-28 -26q-17 -10 -38 -10.5t-41 9.5q-31 16 -41 49q21 -13 49 -13q35 1 46 26q8 16 4.5 34t-14.5 34q-8 12 -19 21t-23 16q-14 7 -29 10t-31 4q-43 3 -83 -20q-23 -14 -39.5 -39.5t-24.5 -58.5t-7 -71.5
t12 -79.5q13 -50 37.5 -89t54.5 -64q40 -33 92 -31q38 0 69 17.5t51 49.5l10 -6q-13 -28 -39 -49q-25 -21 -57.5 -32.5t-67.5 -11.5h-16q-42 2 -79.5 22.5t-65 54.5t-43.5 79.5t-16 96.5q0 39 9.5 74.5t26 65.5t39.5 53.5t51 38.5q23 12 46 17t46 5q40 0 73 -10zM302 648
q0 -21 -17.5 -36t-42.5 -15q-24 0 -41.5 15t-17.5 36q0 23 17.5 37.5t41.5 14.5q25 0 42.5 -14.5t17.5 -37.5z" />
    <glyph glyph-name="Ccaron" unicode="&#x10c;" horiz-adv-x="641" 
d="M130 293q18 -65 50 -117.5t72 -87t85 -49t89 -2.5q48 13 85.5 52t53.5 96q1 4 2 7.5t2 7.5v-85q-41 -54 -101 -84.5t-126 -30.5q-61 0 -114.5 27.5t-93.5 75t-63 111.5t-23 136q0 73 23.5 137t63.5 112q41 48 94 74.5t116 26.5q58 0 107 -21q53 -22 95 -65
q14 -15 25.5 -31.5t18.5 -33.5q8 -19 6.5 -38t-17.5 -36q-13 -15 -39 -25q-16 41 -36.5 75.5t-46.5 61.5q-44 48 -96 69t-103 7q-44 -12 -76.5 -46.5t-49.5 -85t-18.5 -112t15.5 -126.5zM453 893l-81 -152h-98l-81 152h41l89 -102l88 102h42z" />
    <glyph glyph-name="ccaron" unicode="&#x10d;" horiz-adv-x="482" 
d="M338 497q45 -12 73 -47q16 -19 23 -41.5t3 -45.5q-3 -17 -13 -32t-28 -26q-17 -10 -38 -10.5t-41 9.5q-31 16 -41 49q21 -13 49 -13q35 1 46 26q8 16 4.5 34t-14.5 34q-16 23 -42 37q-14 7 -29 10t-31 4q-43 3 -83 -20q-23 -14 -39.5 -39.5t-24.5 -58.5t-7 -71.5
t12 -79.5q13 -50 37.5 -89t54.5 -64q40 -33 92 -31q38 0 69 17.5t51 49.5l10 -6q-13 -28 -39 -49q-25 -21 -57.5 -32.5t-67.5 -11.5h-16q-42 2 -79.5 22.5t-65 54.5t-43.5 79.5t-16 96.5q0 39 9.5 74.5t26 65.5t39.5 53.5t51 38.5q23 12 46 17t46 5q40 0 73 -10zM372 700
l-80 -152h-99l-80 152h41l88 -102l89 102h41z" />
    <glyph glyph-name="Dcaron" unicode="&#x10e;" horiz-adv-x="583" 
d="M155 17h46q67 0 114.5 27t79.5 72q32 47 48.5 108.5t16.5 126t-16.5 126t-48.5 107.5q-32 45 -79.5 72t-114.5 27h-46v-666zM426 893l-81 -152h-98l-81 152h42l88 -102l89 102h41zM434 80q-35 -37 -82 -58.5t-106 -21.5h-187q15 23 21 52t6 55v486q0 26 -6 55t-21 52h187
q59 0 106 -21.5t82 -58.5q50 -52 75 -123.5t25 -146.5t-25 -146.5t-75 -123.5z" />
    <glyph glyph-name="dcaron" unicode="&#x10f;" horiz-adv-x="634" 
d="M414 79q-29 -36 -68.5 -57.5t-85.5 -21.5q-44 0 -82.5 20t-67.5 54.5t-45.5 80.5t-16.5 99t16.5 99t45.5 80t67.5 54t82.5 20q46 0 85.5 -21t68.5 -58v135q0 17 -2 32.5t-4 26.5q-5 19 -11 30t-10 18q11 0 24 2t26 6t25 9.5t21 12.5v-550q0 -23 0.5 -44t5 -40t13.5 -35.5
t25 -30.5v0q-21 5 -38 11t-30.5 9t-24 -0.5t-20.5 -19.5v79zM608 700q24 0 41.5 -14.5t17.5 -37.5q0 -24 -7 -50.5t-21.5 -51.5t-35.5 -45.5t-50 -32.5l-5 6q34 27 45.5 60t13.5 63q-24 0 -41.5 15t-17.5 36q0 23 17.5 37.5t42.5 14.5zM118 216q12 -46 34 -83t49 -62
t57.5 -35.5t60.5 -2.5t51 32t32.5 59.5t11.5 78.5t-12 89t-34 83t-49.5 62t-58 35.5t-59.5 2.5q-30 -8 -51 -32t-32.5 -59.5t-11.5 -78.5t12 -89z" />
    <glyph glyph-name="dcroat" unicode="&#x111;" horiz-adv-x="568" 
d="M414 79q-29 -36 -68.5 -57.5t-85.5 -21.5q-44 0 -82.5 20t-67.5 54.5t-45.5 80.5t-16.5 99t16.5 99t45.5 80t67.5 54t82.5 20q46 0 85.5 -21t68.5 -58v103h-186v62h185q-1 8 -2 15.5t-3 13.5q-5 19 -10.5 30t-10.5 18q21 -1 50 7.5t47 22.5v-107h65v-62h-65v-381
q0 -23 0.5 -44t4.5 -40t13 -35.5t25 -30.5v0q-21 5 -38 11t-30.5 9t-24 -0.5t-20.5 -19.5v79zM118 216q12 -46 34 -83t49.5 -62t58 -35.5t59.5 -2.5q30 8 51 32t32.5 59.5t11.5 78.5t-12 89t-34 83t-49 62t-57.5 35.5t-60.5 2.5t-51 -32t-32.5 -59.5t-11.5 -78.5t12 -89z
" />
    <glyph glyph-name="Emacron" unicode="&#x112;" horiz-adv-x="499" 
d="M59 0q15 23 21 52t6 55v486q0 26 -6 55t-21 52h358l20 -139q-8 33 -23 56t-33.5 38t-39.5 21.5t-41 6.5h-145v-221q6 9 14.5 13t17.5 4q12 1 23.5 -2.5t24.5 -8.5q10 -4 20.5 -8.5t22.5 -8.5q32 -11 60.5 -5.5t37.5 43.5q8 -17 10 -38q1 -34 -23 -52q-19 -13 -45.5 -12
t-49.5 14q-11 7 -22 14.5t-22 15.5q-7 5 -14 9t-14 9q-16 9 -27 6q-14 -5 -14 -30v-408h55q53 0 99 11.5t75 39.5q15 15 23.5 35.5t6.5 46.5q30 -17 38 -44t-1 -52q-8 -23 -27.5 -38.5t-47.5 -15.5h-317zM86 786v62h343v-62h-343z" />
    <glyph glyph-name="emacron" unicode="&#x113;" horiz-adv-x="482" 
d="M265 507q40 0 73 -10q21 -6 40.5 -19t34.5 -30q16 -20 21.5 -43t0.5 -45q-10 -37 -52 -52q-27 -8 -58.5 -8h-56.5h-163q0 -42 12 -84q13 -50 37.5 -89t54.5 -64q40 -33 92 -31q47 0 82 26q23 17 38 41l10 -6q-13 -28 -39 -49q-25 -21 -57.5 -32.5t-67.5 -11.5h-16
q-42 2 -79.5 22.5t-65 54.5t-43.5 79.5t-16 96.5q0 39 9.5 74.5t26 65.5t39.5 53.5t51 38.5q23 12 46 17t46 5zM70 593v62h344v-62h-344zM244 319q33 0 54.5 3t35.5 9q17 7 26.5 18t13.5 25q8 30 -13 60q-8 11 -19 21t-23 16q-14 7 -29 10t-31 4q-43 3 -83 -20
q-32 -19 -50 -57.5t-21 -88.5h139z" />
    <glyph glyph-name="Ebreve" unicode="&#x114;" horiz-adv-x="499" 
d="M59 0q15 23 21 52t6 55v486q0 26 -6 55t-21 52h358l20 -139q-8 33 -23 56t-33.5 38t-39.5 21.5t-41 6.5h-145v-221q6 9 14.5 13t17.5 4q11 1 23 -2.5t25 -8.5q9 -4 20 -8.5t23 -8.5q32 -11 60.5 -5.5t37.5 43.5q8 -17 10 -38q1 -34 -23 -52q-19 -13 -45.5 -12t-49.5 14
q-11 7 -22 14.5t-22 15.5q-7 5 -14 9t-14 9q-16 9 -27 6q-14 -5 -14 -30v-408h55q52 0 98.5 11.5t75.5 39.5q15 15 23.5 35.5t6.5 46.5q30 -17 38 -44t-1 -52q-8 -23 -27.5 -38.5t-47.5 -15.5h-317zM258 741q-42 0 -70 16t-44.5 39.5t-23.5 50t-7 46.5h22q0 -21 9.5 -38
t26.5 -29.5t39.5 -19.5t47.5 -7t47.5 7t39 19.5t26 29.5t9.5 38h22q0 -20 -7 -46.5t-23.5 -50t-44 -39.5t-69.5 -16z" />
    <glyph glyph-name="ebreve" unicode="&#x115;" horiz-adv-x="482" 
d="M265 507q40 0 74 -10q20 -6 40 -19t34 -30q16 -20 22 -43t0 -45q-10 -37 -52 -52q-27 -8 -58.5 -8h-56.5h-163q0 -42 12 -84q13 -50 37.5 -89t54.5 -64q40 -33 92 -31q47 0 82 26q23 17 38 41l10 -6q-13 -28 -39 -49q-25 -21 -57.5 -32.5t-67.5 -11.5h-16
q-42 2 -79.5 22.5t-65 54.5t-43.5 79.5t-16 96.5q0 39 9.5 74.5t26 65.5t39.5 53.5t51 38.5q23 12 46.5 17t45.5 5zM242 548q-42 0 -69.5 16t-44 39.5t-23.5 50t-7 46.5h22q0 -21 9.5 -38t26 -29.5t39 -19.5t47.5 -7q26 0 48 7t39 19.5t26.5 29.5t9.5 38h22q0 -20 -7 -46.5
t-23.5 -50t-44.5 -39.5t-70 -16zM244 319q33 0 54.5 3t35.5 9q17 7 26.5 18t13.5 25q8 30 -13 60q-8 11 -19 21t-23 16q-14 7 -29 10t-31 4q-43 3 -83 -20q-32 -19 -50 -57.5t-21 -88.5h139z" />
    <glyph glyph-name="Edotaccent" unicode="&#x116;" horiz-adv-x="499" 
d="M59 0q16 23 21.5 52t5.5 55v486q0 26 -5.5 55t-21.5 52h358l21 -139q-8 33 -23.5 56t-34 38t-39.5 21.5t-41 6.5h-145v-221q6 9 14.5 13t17.5 4q12 1 23.5 -2.5t24.5 -8.5q10 -4 21 -8.5t22 -8.5q16 -5 32 -7t29 1.5t23 14t14 29.5q10 -20 10 -38q1 -34 -23 -52
q-18 -13 -45 -12t-50 14q-11 7 -22 14.5t-22 15.5q-7 5 -14 9t-14 9q-15 9 -26 6q-15 -5 -15 -30v-408h55q53 0 99.5 11.5t74.5 39.5q15 15 23.5 35.5t6.5 46.5q30 -17 38.5 -44t-1.5 -52q-8 -23 -27.5 -38.5t-47.5 -15.5h-317zM317 841q0 -21 -17 -36.5t-42 -15.5
t-42.5 15.5t-17.5 36.5q0 22 17.5 37t42.5 15t42 -15t17 -37z" />
    <glyph glyph-name="edotaccent" unicode="&#x117;" horiz-adv-x="482" 
d="M265 507q40 0 74 -10q20 -6 40 -19t34 -30q16 -20 22 -43t0 -45q-10 -37 -52 -52q-27 -8 -58.5 -8h-56.5h-163q0 -42 12 -84q13 -50 37.5 -89t54.5 -64q40 -33 92 -31q47 0 82 26q23 17 38 41l10 -6q-13 -28 -39 -49q-25 -21 -57.5 -32.5t-67.5 -11.5h-16
q-42 2 -79.5 22.5t-65 54.5t-43.5 79.5t-16 96.5q0 39 9.5 74.5t26 65.5t39.5 53.5t51 38.5q23 12 46.5 17t45.5 5zM302 648q0 -21 -17.5 -36t-42.5 -15q-24 0 -41.5 15t-17.5 36q0 23 17.5 37.5t41.5 14.5q25 0 42.5 -14.5t17.5 -37.5zM244 319q33 0 54.5 3t35.5 9
q17 7 26.5 18t13.5 25q8 30 -13 60q-8 11 -19 21t-23 16q-14 7 -29 10t-31 4q-43 3 -83 -20q-32 -19 -50 -57.5t-21 -88.5h139z" />
    <glyph glyph-name="Eogonek" unicode="&#x118;" horiz-adv-x="499" 
d="M59 0q16 23 21.5 52t5.5 55v486q0 26 -5.5 55t-21.5 52h358l21 -139q-8 33 -23.5 56t-34 38t-39.5 21.5t-41 6.5h-145v-221q6 9 14.5 13t17.5 4q12 1 23.5 -2.5t24.5 -8.5q10 -4 21 -8.5t22 -8.5q16 -5 32 -7t29 1.5t23 14t14 29.5q10 -20 10 -38q1 -34 -23 -52
q-18 -13 -45 -12t-50 14q-11 7 -22 14.5t-22 15.5q-7 5 -14 9t-14 9q-15 9 -26 6q-15 -5 -15 -30v-408h55q53 0 99.5 11.5t74.5 39.5q15 15 23.5 35.5t6.5 46.5q30 -17 38.5 -44t-1.5 -52q-8 -23 -27.5 -38.5t-47.5 -15.5h-83q-6 -6 -12.5 -13t-12.5 -14q-24 -28 -28 -53.5
t5 -44.5q11 -22 34 -30t49 6l4 -7q-12 -15 -33 -26t-45 -11q-26 0 -45 14q-13 10 -18.5 22t-6.5 26q-1 18 6 35.5t19 31.5q11 14 24 25l26 22q5 5 10 8.5t11 8.5h-221z" />
    <glyph glyph-name="eogonek" unicode="&#x119;" horiz-adv-x="482" 
d="M265 507q40 0 73 -10q21 -6 40.5 -19t34.5 -30q16 -20 21.5 -43t0.5 -45q-10 -37 -52 -52q-27 -8 -58.5 -8h-56.5h-163q0 -42 12 -84q13 -50 37.5 -89t54.5 -64q40 -33 92 -31q47 0 82 26q23 17 38 41l10 -6q-13 -28 -39 -49q-23 -20 -52.5 -30.5t-61.5 -12.5
q-6 -7 -12.5 -13.5t-13.5 -14.5q-24 -28 -28 -53.5t5 -44.5q11 -22 34 -30t49 6l4 -7q-11 -14 -32 -25.5t-45 -11.5q-14 0 -25.5 4t-19.5 10q-13 10 -19 22.5t-7 26.5q-1 17 6.5 35t18.5 32t24 25t26 21q5 5 10.5 9t10.5 8h-13q-42 2 -79.5 22.5t-65 54.5t-43.5 79.5
t-16 96.5q0 39 9.5 74.5t26 65.5t39.5 53.5t51 38.5q23 12 46 17t46 5zM244 319q33 0 54.5 3t35.5 9q17 7 26.5 18t13.5 25q8 30 -13 60q-8 11 -19 21t-23 16q-14 7 -29 10t-31 4q-43 3 -83 -20q-32 -19 -50 -57.5t-21 -88.5h139z" />
    <glyph glyph-name="Ecaron" unicode="&#x11a;" horiz-adv-x="499" 
d="M59 0q15 23 21 52t6 55v486q0 26 -6 55t-21 52h358l20 -139q-8 33 -23 56t-33.5 38t-39.5 21.5t-41 6.5h-145v-221q6 9 14.5 13t17.5 4q12 1 23.5 -2.5t24.5 -8.5q10 -4 20.5 -8.5t22.5 -8.5q32 -11 60.5 -5.5t37.5 43.5q8 -17 10 -38q1 -34 -23 -52q-19 -13 -45.5 -12
t-49.5 14q-11 7 -22 14.5t-22 15.5q-7 5 -14 9t-14 9q-16 9 -27 6q-14 -5 -14 -30v-408h55q53 0 99 11.5t75 39.5q15 15 23.5 35.5t6.5 46.5q30 -17 38 -44t-1 -52q-8 -23 -27.5 -38.5t-47.5 -15.5h-317zM388 893l-81 -152h-99l-80 152h41l89 -102l88 102h42z" />
    <glyph glyph-name="ecaron" unicode="&#x11b;" horiz-adv-x="482" 
d="M265 507q40 0 73 -10q21 -6 40.5 -19t34.5 -30q16 -20 21.5 -43t0.5 -45q-10 -37 -52 -52q-27 -8 -58.5 -8h-56.5h-163q0 -42 12 -84q13 -50 37.5 -89t54.5 -64q40 -33 92 -31q47 0 82 26q23 17 38 41l10 -6q-13 -28 -39 -49q-25 -21 -57.5 -32.5t-67.5 -11.5h-16
q-42 2 -79.5 22.5t-65 54.5t-43.5 79.5t-16 96.5q0 39 9.5 74.5t26 65.5t39.5 53.5t51 38.5q23 12 46 17t46 5zM372 700l-81 -152h-98l-81 152h42l88 -102l89 102h41zM244 319q33 0 54.5 3t35.5 9q17 7 26.5 18t13.5 25q8 30 -13 60q-8 11 -19 21t-23 16q-14 7 -29 10t-31 4
q-43 3 -83 -20q-32 -19 -50 -57.5t-21 -88.5h139z" />
    <glyph glyph-name="Gcircumflex" unicode="&#x11c;" horiz-adv-x="655" 
d="M130 293q18 -65 50 -117.5t72 -87t85 -49t89 -2.5q40 10 74 41q1 8 1 15v14v106q0 26 -5.5 55t-21.5 52h124q-7 -10 -17 -35t-10 -72v-106q0 -48 10 -73t17 -34h-124q8 10 12.5 22t7.5 24q-34 -22 -72.5 -34t-79.5 -12q-61 0 -114.5 27.5t-93.5 75t-63 111.5t-23 136
q0 73 23 137t65 112q40 48 93 74.5t116 26.5q58 0 107 -21q53 -22 95 -65q14 -15 25.5 -31.5t18.5 -33.5q8 -19 6.5 -38t-17.5 -36q-13 -15 -39 -25q-15 41 -36 75.5t-46 61.5q-45 48 -97 69t-103 7q-44 -12 -76.5 -46.5t-49.5 -85t-18.5 -112t15.5 -126.5zM193 741l81 152
h98l81 -152h-42l-88 102l-89 -102h-41z" />
    <glyph glyph-name="Gbreve" unicode="&#x11e;" horiz-adv-x="655" 
d="M130 293q18 -65 50 -117.5t72 -87t85 -49t89 -2.5q40 10 74 41q1 8 1 15v14v106q0 26 -5.5 55t-21.5 52h123q-6 -10 -16 -35t-10 -72v-106q0 -48 10 -73t16 -34h-123q7 10 12 22t8 24q-34 -22 -73 -34t-79 -12q-61 0 -114.5 27.5t-93.5 75t-63 111.5t-23 136
q0 73 23.5 137t63.5 112q41 48 94 74.5t116 26.5q58 0 107 -21q53 -23 94 -65q32 -32 45 -65q8 -19 6.5 -38t-17.5 -36q-15 -15 -39 -25q-16 41 -36.5 75.5t-46.5 61.5q-44 48 -96 69t-104 7q-44 -12 -76 -46.5t-49 -85t-18.5 -112t15.5 -126.5zM323 741q-42 0 -70 16
t-44.5 39.5t-23.5 50t-7 46.5h22q0 -21 9.5 -38t26.5 -29.5t39.5 -19.5t47.5 -7t47.5 7t39 19.5t26 29.5t9.5 38h23q0 -20 -7 -46.5t-24 -50t-44.5 -39.5t-69.5 -16z" />
    <glyph glyph-name="gbreve" unicode="&#x11f;" horiz-adv-x="498" 
d="M243 507q56 0 102 -31q8 11 17.5 26.5t13.5 20.5q10 14 22 25.5t31 7.5q16 -2 24.5 -17.5t2.5 -31.5q-9 8 -21 11t-23.5 1t-22 -8.5t-17.5 -16.5l-17 -25q35 -27 57 -69t22 -92q0 -41 -15 -77.5t-41 -63.5t-61 -43t-74 -16q-27 0 -51.5 7.5t-45.5 20.5l-70 -94
q23 15 51.5 26.5t60.5 17.5q37 7 80 6t80 -15q45 -17 65.5 -49t18.5 -69t-24.5 -71.5t-60.5 -54.5q-26 -14 -55.5 -20t-58.5 -6q-19 0 -39.5 3.5t-40.5 11.5q-25 9 -44 29t-27 45q-14 40 9 73q11 15 28 22.5t35 8.5q21 1 43 -12q-27 -9 -39 -25q-17 -23 -11 -55
q3 -15 12 -30t23 -27q24 -21 51 -27q28 -7 57 -1.5t53 21.5q28 18 35.5 45t1.5 54q-5 25 -21.5 46.5t-41.5 34.5q-28 14 -62 18.5t-66 0.5q-31 -3 -60.5 -12t-53.5 -25l-21 30l81 107q-38 27 -60.5 70.5t-22.5 94.5q0 41 15 77.5t41 63.5t61 42.5t74 15.5zM133 700
q0 -21 9.5 -38t26 -29.5t39 -19.5t47.5 -7q26 0 48 7t39 19.5t26.5 29.5t9.5 38h22q0 -20 -7 -46.5t-23.5 -50t-44.5 -39.5t-70 -16t-69.5 16t-44.5 39.5t-24 50t-7 46.5h23zM360 339q-10 37 -28 67t-40.5 50.5t-47.5 28.5t-49 2t-42 -26t-27 -48.5t-9.5 -64t9.5 -72.5
t27.5 -67t40 -50.5t48 -28.5t49.5 -2q24 7 41.5 27t27 48.5t10 63.5t-9.5 72z" />
    <glyph glyph-name="Gdotaccent" unicode="&#x120;" horiz-adv-x="655" 
d="M130 293q18 -65 50 -117.5t72 -87t85 -49t89 -2.5q40 10 74 41q1 8 1 15v14v106q0 26 -5.5 55t-21.5 52h124q-7 -10 -17 -35t-10 -72v-106q0 -48 10 -73t17 -34h-124q8 10 12.5 22t7.5 24q-34 -22 -72.5 -34t-79.5 -12q-61 0 -114.5 27.5t-93.5 75t-63 111.5t-23 136
q0 73 23 137t65 112q40 48 93 74.5t116 26.5q58 0 107 -21q53 -22 95 -65q14 -15 25.5 -31.5t18.5 -33.5q8 -19 6.5 -38t-17.5 -36q-13 -15 -39 -25q-15 41 -36 75.5t-46 61.5q-45 48 -97 69t-103 7q-44 -12 -76.5 -46.5t-49.5 -85t-18.5 -112t15.5 -126.5zM382 841
q0 -21 -17 -36.5t-42 -15.5t-42.5 15.5t-17.5 36.5q0 22 17.5 37t42.5 15t42 -15t17 -37z" />
    <glyph glyph-name="gdotaccent" unicode="&#x121;" horiz-adv-x="498" 
d="M52 308q0 41 15 77.5t41 63.5t61 42.5t74 15.5q57 0 102 -31q8 11 18 26.5t14 20.5q9 14 21 25.5t31 7.5q16 -2 24.5 -17.5t2.5 -31.5q-9 8 -21 11t-23.5 1t-22 -8.5t-17.5 -16.5l-17 -25q36 -27 57 -69t21 -92q0 -41 -15 -77.5t-40.5 -63.5t-60.5 -43t-74 -16
q-27 0 -51.5 7.5t-45.5 20.5l-70 -94q23 15 51.5 26.5t60.5 17.5q37 7 80 6t80 -15q45 -17 65.5 -49t18.5 -69t-24.5 -71.5t-60.5 -54.5q-26 -14 -55.5 -20t-59.5 -6q-18 0 -38.5 3.5t-40.5 11.5q-25 9 -44.5 29t-27.5 44q-6 20 -3.5 39t13.5 35q11 15 28 22.5t35 8.5
q21 1 43 -12q-28 -9 -39 -26q-17 -22 -11 -54q3 -15 12 -30t23 -27q24 -21 51 -27q28 -7 57 -1.5t53 21.5q28 18 35.5 45t1.5 54q-5 25 -21.5 46.5t-41.5 34.5q-28 14 -62 18.5t-66 0.5q-31 -3 -60.5 -12t-53.5 -25l-21 30l81 107q-38 27 -60.5 70t-22.5 95zM255 596
q-24 0 -41.5 15.5t-17.5 36.5q0 22 17.5 37t41.5 15q25 0 42.5 -15t17.5 -37q0 -21 -17.5 -36.5t-42.5 -15.5zM195 487q-24 -6 -42 -26t-27 -48.5t-9.5 -64t9.5 -72.5t27.5 -67t40 -50.5t48 -28.5t49.5 -2q24 7 41.5 27t27 48.5t10 63.5t-9.5 72t-27.5 67t-40 50.5t-48 28.5
t-49.5 2z" />
    <glyph glyph-name="Hcircumflex" unicode="&#x124;" horiz-adv-x="569" 
d="M413 410q-8 -9 -18.5 -14.5t-21.5 -7.5q-20 -5 -38.5 -2.5t-37.5 9.5q-27 10 -51.5 25t-49.5 29q-15 9 -26 6q-15 -5 -15 -30v-318q0 -48 10.5 -73t16.5 -34h-123q16 23 21.5 52t5.5 55v486q0 26 -5.5 55t-21.5 52h123q-6 -10 -16.5 -34.5t-10.5 -72.5v-131q6 9 14.5 13
t17.5 4q10 1 24 -2.5t29 -8.5q23 -7 49 -13.5t52 -6.5q22 0 39 7q14 5 23.5 13.5t9.5 20.5v104q0 26 -5.5 55t-21.5 52h123q-6 -10 -16.5 -34.5t-10.5 -72.5v-486q0 -48 10.5 -73t16.5 -34h-123q16 23 21.5 52t5.5 55v303zM154 741l81 152h98l81 -152h-41l-89 102l-88 -102
h-42z" />
    <glyph glyph-name="Itilde" unicode="&#x128;" horiz-adv-x="242" 
d="M59 0q16 23 21.5 52t5.5 55v486q0 26 -5.5 55t-21.5 52h123q-6 -10 -16.5 -34.5t-10.5 -72.5v-486q0 -48 10.5 -73t16.5 -34h-123zM-58 827q28 45 65.5 59.5t92.5 -1.5q4 -2 7.5 -2.5t8.5 -2.5q24 -8 48 -17t47 -12t43.5 3.5t38.5 28.5l7 -12q-29 -45 -66.5 -59.5
t-92.5 1.5q-5 2 -8.5 2.5t-7.5 2.5q-24 8 -48 17t-47 11.5t-43.5 -4t-38.5 -28.5z" />
    <glyph glyph-name="itilde" unicode="&#x129;" horiz-adv-x="225" 
d="M148 434v-327q0 -48 10.5 -73t16.5 -34h-123q16 23 21.5 52t5.5 55v262q0 18 -2 33.5t-4 26.5q-5 19 -11 30t-10 17q11 0 24 2t26 6t25 10t21 13v-73zM-65 634q28 45 65.5 60t92.5 -2q4 -1 7.5 -2t8.5 -3q24 -8 48 -17t47 -12t43.5 4t38.5 29l7 -13q-29 -45 -66.5 -59.5
t-92.5 1.5q-5 2 -8.5 2.5t-7.5 2.5q-24 8 -48 17t-47 12t-43.5 -3.5t-38.5 -29.5z" />
    <glyph glyph-name="Imacron" unicode="&#x12a;" horiz-adv-x="242" 
d="M59 0q16 23 21.5 52t5.5 55v486q0 26 -5.5 55t-21.5 52h123q-6 -10 -16 -34.5t-10 -72.5v-486q0 -48 10 -73t16 -34h-123zM-51 786v62h343v-62h-343z" />
    <glyph glyph-name="imacron" unicode="&#x12b;" horiz-adv-x="225" 
d="M149 434v-327q0 -48 10 -73t16 -34h-123q16 23 21.5 52t5.5 55v262q0 18 -2 33.5t-4 26.5q-5 19 -11 30t-10 17q21 0 50 8.5t47 22.5v-73zM-58 593v62h343v-62h-343z" />
    <glyph glyph-name="Ibreve" unicode="&#x12c;" horiz-adv-x="242" 
d="M59 0q16 23 21.5 52t5.5 55v486q0 26 -5.5 55t-21.5 52h123q-6 -10 -16.5 -34.5t-10.5 -72.5v-486q0 -48 10.5 -73t16.5 -34h-123zM121 741q-42 0 -70 16t-44.5 39.5t-23.5 50t-7 46.5h22q0 -21 9.5 -38t26.5 -29.5t39.5 -19.5t47.5 -7t47.5 7t39 19.5t26 29.5t9.5 38h23
q0 -20 -7 -46.5t-24 -50t-44.5 -39.5t-69.5 -16z" />
    <glyph glyph-name="ibreve" unicode="&#x12d;" horiz-adv-x="225" 
d="M148 434v-327q0 -48 10.5 -73t16.5 -34h-123q16 23 21.5 52t5.5 55v262q0 18 -2 33.5t-4 26.5q-5 19 -11 30t-10 17q11 0 24 2t26 6t25 10t21 13v-73zM114 548q-42 0 -70 16t-44.5 39.5t-23.5 50t-7 46.5h22q0 -21 9.5 -38t26.5 -29.5t39.5 -19.5t47.5 -7t47.5 7t39 19.5
t26 29.5t9.5 38h23q0 -20 -7 -46.5t-24 -50t-44.5 -39.5t-69.5 -16z" />
    <glyph glyph-name="Idotaccent" unicode="&#x130;" horiz-adv-x="241" 
d="M59 0q15 23 21 52t6 55v486q0 26 -6 55t-21 52h123q-6 -10 -16.5 -34.5t-10.5 -72.5v-486q0 -48 10.5 -73t16.5 -34h-123zM180 841q0 -21 -17.5 -36.5t-42.5 -15.5q-24 0 -41.5 15.5t-17.5 36.5q0 22 17.5 37t41.5 15q25 0 42.5 -15t17.5 -37z" />
    <glyph glyph-name="dotlessi" unicode="&#x131;" horiz-adv-x="225" 
d="M148 434v-327q0 -48 10.5 -73t16.5 -34h-123q16 23 21.5 52t5.5 55v262q0 18 -2 33.5t-4 26.5q-5 19 -11 30t-10 17q21 0 49.5 8.5t46.5 22.5v-73z" />
    <glyph glyph-name="Jcircumflex" unicode="&#x134;" horiz-adv-x="392" 
d="M51 741l81 152h98l81 -152h-42l-88 102l-88 -102h-42zM163 209q29 -15 38 -51q-20 11 -39 12t-35 -5q-18 -7 -28.5 -20t-14.5 -28.5t-2 -32t10 -30.5q10 -17 26.5 -28t39.5 -11q20 -1 37 9t28 31q7 14 11 31t5.5 34.5t2 34.5t0.5 30v408q0 20 -3.5 43t-12.5 43
q-4 10 -11 21h123q-6 -10 -16.5 -34.5t-10.5 -72.5v-411q0 -22 -2 -44.5t-9 -43.5t-18.5 -39t-31.5 -31q-17 -11 -39.5 -17.5t-52.5 -6.5q-47 0 -86 30q-14 11 -24.5 24t-16.5 30q-11 26 -6 53.5t22 47.5q21 25 54 32.5t62 -8.5z" />
    <glyph glyph-name="Lacute" unicode="&#x139;" horiz-adv-x="477" 
d="M59 0q16 23 21.5 52t5.5 55v486q0 26 -5.5 55t-21.5 52h123q-15 -23 -21 -52t-6 -55v-576h55q53 0 99.5 11.5t74.5 39.5q15 15 23.5 35.5t6.5 46.5q31 -17 39 -44t-1 -52q-8 -23 -28 -38.5t-48 -15.5h-317zM177 741l72 152h89l-122 -152h-39z" />
    <glyph glyph-name="Lcaron" unicode="&#x13d;" horiz-adv-x="512" 
d="M59 0q15 23 21 52t6 55v486q0 26 -6 55t-21 52h123q-16 -23 -21.5 -52t-5.5 -55v-576h55q53 0 99.5 11.5t74.5 39.5q15 15 23.5 35.5t6.5 46.5q30 -17 38 -44t-1 -52q-8 -23 -27.5 -38.5t-47.5 -15.5h-317zM412 700q25 0 42.5 -15t17.5 -37q0 -25 -7.5 -51.5t-21.5 -51
t-35.5 -45t-50.5 -32.5l-4 6q34 27 45.5 60t13.5 62q-25 0 -42 15.5t-17 36.5q0 22 17 37t42 15z" />
    <glyph glyph-name="lcaron" unicode="&#x13e;" horiz-adv-x="289" 
d="M146 700v-593q0 -48 10.5 -73t16.5 -34h-123q16 23 21.5 52t5.5 55v456q0 17 -2 32.5t-4 26.5q-5 19 -11 30t-10 18q21 -1 49.5 7.5t46.5 22.5zM263 700q25 0 42 -14.5t17 -37.5q0 -24 -7 -50.5t-21.5 -51.5t-35.5 -45.5t-50 -32.5l-4 6q34 27 45.5 60t13.5 63
q-25 0 -42 15t-17 36q0 23 17 37.5t42 14.5z" />
    <glyph glyph-name="Lslash" unicode="&#x141;" horiz-adv-x="501" 
d="M103 203l-56 -56v62l56 56v328q0 26 -5.5 55t-20.5 52h122q-15 -23 -20.5 -52t-5.5 -55v-258l217 218v-62l-217 -218v-256h54q53 0 99.5 11.5t74.5 39.5q32 31 31 82q30 -17 38 -44t-1 -52q-8 -23 -27.5 -38.5t-47.5 -15.5h-317q15 23 20.5 52t5.5 55v96z" />
    <glyph glyph-name="lslash" unicode="&#x142;" horiz-adv-x="332" 
d="M203 107q0 -48 10 -73t17 -34h-123q15 23 21 52t6 55v177l-104 -103v62l104 103v217q0 17 -2 32.5t-5 26.5q-4 19 -10 30t-10 18q10 0 23 2t26 6t25.5 9.5t21.5 12.5v-284l104 103v-62l-104 -103v-247z" />
    <glyph glyph-name="Nacute" unicode="&#x143;" horiz-adv-x="590" 
d="M59 0q16 23 21.5 52t5.5 55v486q0 26 -5.5 55t-21.5 52h64l358 -581v474q0 26 -5.5 55t-21.5 52h79q-6 -10 -16.5 -34.5t-10.5 -72.5v-504q1 -44 -18 -67t-61 -22q-8 0 -14 2q17 7 22 17t3 22t-9 24.5t-15 23.5l-303 499v-481q0 -48 10 -73t17 -34h-79zM216 741l71 152
h89l-122 -152h-38z" />
    <glyph glyph-name="nacute" unicode="&#x144;" 
d="M429 338v-231q0 -47 10.5 -72t16.5 -35h-123q15 23 21 52t6 55q0 62 -0.5 116.5t-0.5 115.5q0 28 -6.5 54.5t-19.5 47t-33 32.5t-47 10q-41 -3 -71 -39q-17 -21 -25.5 -49t-8.5 -56v-232q0 -47 10.5 -72t16.5 -35h-123q16 23 21.5 52t5.5 55v263q0 17 -2 32.5t-4 26.5
q-5 19 -11 30t-10 18q25 0 53.5 7t42.5 23v-83q15 35 49.5 59t79.5 24q29 0 56.5 -10.5t48.5 -31.5t34 -52.5t13 -74.5zM174 548l72 152h88l-122 -152h-38z" />
    <glyph glyph-name="Ncaron" unicode="&#x147;" horiz-adv-x="590" 
d="M59 0q16 23 21.5 52t5.5 55v486q0 26 -5.5 55t-21.5 52h64l358 -581v474q0 26 -5.5 55t-21.5 52h79q-6 -10 -16.5 -34.5t-10.5 -72.5v-504q1 -44 -18 -67t-61 -22q-8 0 -14 2q17 7 22 17t3 22t-9 24.5t-15 23.5l-303 499v-481q0 -48 10 -73t17 -34h-79zM426 893l-81 -152
h-98l-81 152h42l88 -102l88 102h42z" />
    <glyph glyph-name="ncaron" unicode="&#x148;" 
d="M429 338v-231q0 -47 10.5 -72t16.5 -35h-123q16 23 21.5 52t5.5 55v232q0 28 -6.5 54.5t-19.5 47t-33.5 32.5t-47.5 10q-41 -3 -71 -39q-17 -21 -25.5 -49t-8.5 -56v-232q0 -47 10.5 -72t16.5 -35h-123q16 23 21.5 52t5.5 55v263q0 17 -2 32.5t-4 26.5q-5 19 -11 30
t-10 18q25 0 53.5 7t42.5 23v-83q15 35 49.5 59t79.5 24q29 0 56.5 -10.5t48.5 -31.5t34 -52.5t13 -74.5zM384 700l-81 -152h-98l-81 152h42l88 -102l89 102h41z" />
    <glyph glyph-name="Omacron" unicode="&#x14c;" horiz-adv-x="685" 
d="M343 700q61 0 114.5 -27.5t93.5 -75t63 -111.5t23 -136t-23 -136t-63 -111.5t-93.5 -75t-114.5 -27.5t-115 27.5t-94 75t-63 111.5t-23 136t23 136t63 111.5t94 75t115 27.5zM514 848v-62h-343v62h343zM562 409q-17 65 -49.5 117.5t-74 87t-88 48t-91.5 1.5
q-46 -12 -79.5 -47.5t-52 -86t-20.5 -112t15 -126.5q18 -65 50.5 -117.5t74 -87t88 -48t91.5 -1.5q46 12 79.5 47.5t52 86t20.5 112t-16 126.5z" />
    <glyph glyph-name="omacron" unicode="&#x14d;" horiz-adv-x="519" 
d="M471 254q0 -53 -16.5 -99t-45.5 -80.5t-67.5 -54.5t-82.5 -20t-82.5 20t-67.5 54.5t-45.5 80.5t-16.5 99t16.5 99t45.5 80t67.5 54t82.5 20t82.5 -20t67.5 -54t45.5 -80t16.5 -99zM87 593v62h344v-62h-344zM117 216q12 -46 34 -83t49.5 -62t58 -35.5t59.5 -2.5
q30 8 51 32t32.5 59.5t11.5 78.5t-12 89t-34 83t-49.5 62t-58 35.5t-59.5 2.5q-30 -8 -51 -32t-32.5 -59.5t-11.5 -78.5t12 -89z" />
    <glyph glyph-name="Obreve" unicode="&#x14e;" horiz-adv-x="685" 
d="M562 409q-17 65 -49.5 117.5t-74 87t-88 48t-91.5 1.5q-46 -12 -79.5 -47.5t-52 -86t-20.5 -112t15 -126.5q18 -65 50.5 -117.5t74 -87t88 -48t91.5 -1.5q46 12 79.5 47.5t52 86t20.5 112t-16 126.5zM487 893q0 -20 -7 -46.5t-23.5 -50t-44 -39.5t-69.5 -16t-70 16
t-44.5 39.5t-23.5 50t-7 46.5h22q0 -21 9.5 -38t26.5 -29.5t39.5 -19.5t47.5 -7t47.5 7t39 19.5t26 29.5t9.5 38h22zM48 350q0 72 23 136t63 111.5t94 75t115 27.5t114.5 -27.5t93.5 -75t63 -111.5t23 -136t-23 -136t-63 -111.5t-93.5 -75t-114.5 -27.5t-115 27.5t-94 75
t-63 111.5t-23 136z" />
    <glyph glyph-name="obreve" unicode="&#x14f;" horiz-adv-x="519" 
d="M471 254q0 -53 -16.5 -99t-45.5 -80.5t-67.5 -54.5t-82.5 -20t-82.5 20t-67.5 54.5t-45.5 80.5t-16.5 99t16.5 99t45.5 80t67.5 54t82.5 20t82.5 -20t67.5 -54t45.5 -80t16.5 -99zM259 548q-42 0 -70 16t-44.5 39.5t-23.5 50t-7 46.5h22q0 -21 9.5 -38t26.5 -29.5
t39.5 -19.5t47.5 -7t47.5 7t39 19.5t26 29.5t9.5 38h23q0 -20 -7 -46.5t-23.5 -50t-44.5 -39.5t-70 -16zM117 216q12 -46 34 -83t49.5 -62t58 -35.5t59.5 -2.5q30 8 51 32t32.5 59.5t11.5 78.5t-12 89t-34 83t-49.5 62t-58 35.5t-59.5 2.5q-30 -8 -51 -32t-32.5 -59.5
t-11.5 -78.5t12 -89z" />
    <glyph glyph-name="Ohungarumlaut" unicode="&#x150;" horiz-adv-x="685" 
d="M342 700q61 0 115 -27.5t94 -75t63 -111.5t23 -136t-23 -136t-63 -111.5t-94 -75t-115 -27.5t-114.5 27.5t-93.5 75t-63 111.5t-23 136t23 136t63 111.5t93.5 75t114.5 27.5zM494 893l-122 -152h-39l72 152h89zM351 893l-122 -152h-39l72 152h89zM562 409
q-17 65 -49.5 117.5t-74 87t-88 48t-92.5 1.5q-45 -12 -78.5 -47.5t-52 -86t-20.5 -112t15 -126.5q18 -65 50.5 -117.5t74 -87t88 -48t91.5 -1.5q46 12 79.5 47.5t51.5 86t20 112t-15 126.5z" />
    <glyph glyph-name="ohungarumlaut" unicode="&#x151;" horiz-adv-x="519" 
d="M471 254q0 -53 -16.5 -99t-45.5 -80.5t-67.5 -54.5t-82.5 -20t-82.5 20t-67.5 54.5t-45.5 80.5t-16.5 99t16.5 99t45.5 80t67.5 54t82.5 20t82.5 -20t67.5 -54t45.5 -80t16.5 -99zM136 548l72 152h89l-123 -152h-38zM279 548l71 152h89l-122 -152h-38zM117 216
q12 -46 34 -83t49.5 -62t58 -35.5t59.5 -2.5q30 8 51 32t32.5 59.5t11.5 78.5t-12 89t-34 83t-49.5 62t-58 35.5t-59.5 2.5q-30 -8 -51 -32t-32.5 -59.5t-11.5 -78.5t12 -89z" />
    <glyph glyph-name="OE" unicode="&#x152;" horiz-adv-x="991" 
d="M562 409q-17 65 -49.5 117.5t-74 87t-88 48t-92.5 1.5q-45 -12 -78.5 -47.5t-52 -86t-20.5 -112t15 -126.5q18 -65 50.5 -117.5t74 -87t88 -48t91.5 -1.5q46 12 79.5 47.5t52 86t20.5 112t-16 126.5zM48 350q0 72 23 136t63 111.5t93.5 75t114.5 27.5q73 0 134 -38
t102 -102v33q0 26 -6 55t-21 52h358l21 -139q-8 33 -23.5 56t-34 38t-39.5 21.5t-41 6.5h-145v-221q6 9 14.5 13t17.5 4q12 1 23.5 -2.5t24.5 -8.5q10 -4 20.5 -8.5t22.5 -8.5q32 -11 60.5 -5.5t37.5 43.5q10 -20 10 -38q1 -34 -23 -52q-19 -13 -45.5 -12t-49.5 14
q-11 7 -22 14.5t-22 15.5q-7 5 -14 9t-14 9q-17 9 -26 6q-15 -5 -15 -30v-408h55q53 0 99.5 11.5t74.5 39.5q31 31 30 82q30 -17 38 -44t-1 -52q-8 -23 -27.5 -38.5t-47.5 -15.5h-317q15 23 21 52t6 55v33q-41 -64 -102 -102t-134 -38q-61 0 -114.5 27.5t-93.5 75t-63 111.5
t-23 136z" />
    <glyph glyph-name="oe" unicode="&#x153;" horiz-adv-x="847" 
d="M441 124q-28 -56 -75.5 -90t-106.5 -34q-44 0 -82.5 20t-67.5 54.5t-45.5 80.5t-16.5 99t16.5 99t45.5 80t67.5 54t82.5 20q59 0 106.5 -34t75.5 -90q17 34 41.5 60t54.5 42q23 12 46.5 17t45.5 5q19 0 38 -2.5t36 -7.5q44 -13 74 -49q17 -20 22.5 -43t0.5 -45
q-5 -17 -17.5 -30.5t-34.5 -21.5q-27 -8 -59 -8h-57h-163q2 -42 12 -84q14 -50 38.5 -89t53.5 -64q20 -16 44 -24t49 -7q45 0 82 26q22 18 37 41l11 -6q-16 -30 -39 -49q-25 -21 -57.5 -32.5t-68.5 -11.5h-15q-57 2 -102.5 36t-72.5 88zM608 319q33 0 54.5 3t35.5 9
q33 14 40 43q9 28 -12 60q-8 11 -19 21t-23 16q-14 7 -29 10t-31 4q-44 3 -84 -20q-31 -19 -49.5 -57.5t-20.5 -88.5h138zM117 216q12 -46 34 -83t49.5 -62t58 -35.5t59.5 -2.5q30 8 51 32t32.5 59.5t11.5 78.5t-12 89t-34 83t-49.5 62t-58 35.5t-59.5 2.5q-30 -8 -51 -32
t-32.5 -59.5t-11.5 -78.5t12 -89z" />
    <glyph glyph-name="Racute" unicode="&#x154;" horiz-adv-x="535" 
d="M59 0q15 23 21 52t6 55v486q0 26 -6 55t-21 52h220q56 0 101 -28q34 -22 52 -53.5t20 -66.5q3 -46 -20 -89.5t-69 -66.5q-23 -11 -49 -18q26 1 45 -10t32 -28q18 -24 25.5 -53t10.5 -60q3 -29 4 -59t6 -56q5 -33 19 -65t46 -47q-27 0 -56.5 1.5t-50.5 20.5q-26 25 -34 75
q-5 30 -5 63t-2 65q-1 22 -4 42.5t-10 39.5q-13 34 -31 49q-13 11 -28.5 13t-31.5 -1q-15 -3 -29.5 -10t-25.5 -15q-29 -19 -39 -47v-189q0 -26 5.5 -55t21.5 -52h-123zM200 741l72 152h89l-123 -152h-38zM155 323q7 17 19.5 29.5t27.5 22.5q15 8 31.5 14.5t31.5 11.5
q17 6 34 13.5t32 19.5q23 20 36 50.5t11 64.5q-2 30 -15 58.5t-36 46.5q-21 17 -51.5 23t-66.5 6h-54v-360z" />
    <glyph glyph-name="racute" unicode="&#x155;" horiz-adv-x="404" 
d="M148 107q0 -48 10.5 -73t16.5 -34h-123q15 23 21 52t6 55v263q0 17 -2 32.5t-5 26.5q-4 19 -10 30t-10 18q21 -1 49.5 7.5t46.5 22.5v-55q20 22 48 38.5t66 16.5q27 0 47.5 -10t34.5 -26.5t21 -38t6 -44.5q-1 -32 -17 -53.5t-38 -31.5t-46.5 -7t-42.5 21q21 2 37.5 11.5
t27.5 23.5q12 17 17 38t0 41q-4 16 -13.5 29.5t-26.5 21.5q-16 8 -33.5 6.5t-34.5 -12.5q-23 -14 -36 -43q-11 -21 -14 -45t-3 -48v-233zM131 548l72 152h89l-122 -152h-39z" />
    <glyph glyph-name="Rcaron" unicode="&#x158;" horiz-adv-x="534" 
d="M59 0q15 23 21 52t6 55v486q0 26 -6 55t-21 52h220q56 0 101 -28q34 -22 52 -53.5t20 -66.5q3 -46 -20 -89.5t-69 -66.5q-23 -11 -49 -18q26 1 45 -10t32 -28q18 -24 25.5 -53t10.5 -60q3 -29 4 -59t6 -56q5 -33 19 -65t46 -47q-27 0 -56.5 1.5t-50.5 20.5q-26 25 -34 75
q-5 30 -5 63t-2 65q-2 22 -4.5 42.5t-9.5 39.5q-13 34 -31 49q-13 11 -28.5 13t-31.5 -1q-15 -3 -29.5 -10t-25.5 -15q-29 -19 -39 -47v-189q0 -26 5.5 -55t21.5 -52h-123zM410 893l-80 -152h-99l-80 152h41l88 -102l89 102h41zM155 323q7 17 19.5 29.5t27.5 22.5
q15 8 31.5 14.5t31.5 11.5q17 6 33.5 13.5t32.5 19.5q23 20 35.5 50.5t10.5 64.5q-1 30 -14 58.5t-36 46.5q-21 17 -51.5 23t-66.5 6h-54v-360z" />
    <glyph glyph-name="rcaron" unicode="&#x159;" horiz-adv-x="404" 
d="M148 107q0 -48 10.5 -73t16.5 -34h-123q16 23 21.5 52t5.5 55v263q0 17 -2 32.5t-4 26.5q-5 19 -11 30t-10 18q21 -1 49.5 7.5t46.5 22.5v-55q20 22 48 38.5t66 16.5q27 0 47.5 -10t34.5 -26.5t21 -38t6 -44.5q-1 -32 -17 -53.5t-38 -31.5t-46.5 -7t-42.5 21
q21 2 37.5 11.5t27.5 23.5q13 17 17.5 38t-0.5 41q-4 16 -13.5 29.5t-26.5 21.5q-16 8 -33.5 6.5t-34.5 -12.5q-23 -14 -36 -43q-11 -21 -14 -45t-3 -48v-233zM342 700l-81 -152h-98l-81 152h41l89 -102l88 102h42z" />
    <glyph glyph-name="Sacute" unicode="&#x15a;" horiz-adv-x="522" 
d="M254 225q-17 20 -39 28t-43 4q-24 -3 -40.5 -18t-24.5 -36q-8 -18 -7 -39t7 -40q8 -24 24 -45.5t37 -35.5q40 -26 90 -26q28 0 50 6t39 16q35 21 50.5 54.5t13.5 70.5q-2 35 -14.5 64.5t-32.5 55.5q-25 32 -57.5 59t-64.5 51q-23 17 -50.5 39.5t-51.5 49.5
q-23 26 -38 55.5t-12 60.5q3 38 30 62.5t62 32.5q33 8 62 6q41 -1 73 -9t70 -7q14 0 26.5 3.5t20.5 10.5v-166q-12 37 -24.5 65t-31 46.5t-45.5 28.5t-68 11q-16 1 -33.5 0t-34.5 -7q-23 -8 -38 -26t-10 -48q3 -22 17 -44t31 -41q20 -22 44 -41t44 -35q34 -26 69.5 -56.5
t64.5 -65.5q28 -34 43.5 -73t10.5 -85q-5 -47 -33 -84.5t-76 -57.5q-47 -19 -106 -19q-55 0 -103 21q-32 14 -58.5 37.5t-41.5 55.5q-17 35 -12.5 72.5t24.5 66.5q21 30 53.5 41t62.5 3q25 -7 44 -25t27 -47zM178 741l71 152h89l-122 -152h-38z" />
    <glyph glyph-name="sacute" unicode="&#x15b;" horiz-adv-x="445" 
d="M199 164q-13 7 -26 8t-25 -2q-17 -5 -29.5 -18t-14.5 -33q-3 -21 6 -43.5t29 -37.5q17 -12 37 -19t40 -7q18 2 35.5 5.5t31.5 11.5q24 14 37.5 39t11.5 51q-2 28 -17.5 51.5t-35.5 41.5q-21 19 -44 34.5t-46 31.5q-22 14 -43 29.5t-40 33.5q-18 17 -29 37.5t-11 42.5
q1 22 13 42t32 30q24 12 54 14t56 1q38 -2 61.5 -7.5t46.5 -4.5q21 0 36 10v-154q-9 25 -21.5 50.5t-29.5 46t-40.5 34t-55.5 14.5q-13 0 -27 -2.5t-27 -8.5q-12 -6 -20 -16t-10 -24q-3 -27 20 -52q13 -15 32 -30t40 -29q29 -20 57.5 -39.5t50.5 -39.5q26 -24 43 -52t18 -63
q1 -29 -12 -56.5t-42 -47.5q-51 -38 -125 -38q-29 0 -52 5.5t-43 15.5q-22 11 -39 28.5t-27 38.5q-11 25 -7.5 52t17.5 47q13 17 32.5 26t45.5 4q19 -4 34 -16.5t22 -35.5zM141 548l71 152h90l-123 -152h-38z" />
    <glyph glyph-name="Scircumflex" unicode="&#x15c;" horiz-adv-x="522" 
d="M254 225q-17 20 -39 28t-43 4q-24 -3 -40.5 -18t-24.5 -36q-8 -18 -7 -39t7 -40q8 -24 24 -45.5t37 -35.5q40 -26 90 -26q28 0 50 6t39 16q35 21 50 54.5t14 70.5q-2 35 -14.5 64.5t-32.5 55.5q-25 32 -57.5 59t-64.5 51q-23 17 -50.5 39.5t-51.5 49.5q-23 26 -38 55.5
t-13 60.5q3 38 30.5 62.5t62.5 32.5q33 8 62 6q41 -1 73 -9t70 -7q14 0 26.5 3.5t20.5 10.5v-166q-12 37 -24.5 65t-31 46.5t-45.5 28.5t-68 11q-16 1 -33.5 0t-34.5 -7q-23 -8 -38 -26t-10 -48q3 -22 17 -44t31 -41q20 -22 44 -41t44 -35q34 -26 69.5 -56.5t64.5 -65.5
q28 -34 43.5 -73t10.5 -85q-5 -47 -33 -84.5t-76 -57.5q-47 -19 -106 -19q-55 0 -103 21q-32 14 -58.5 37.5t-41.5 55.5q-17 35 -12.5 72.5t24.5 66.5q21 30 53.5 41t62.5 3q24 -7 43.5 -25t27.5 -47zM128 741l81 152h98l81 -152h-42l-88 102l-89 -102h-41z" />
    <glyph glyph-name="Scedilla" unicode="&#x15e;" horiz-adv-x="522" 
d="M254 225q-17 20 -39 28t-43 4q-24 -3 -40.5 -18t-24.5 -36q-8 -18 -7 -39t7 -40q8 -24 24 -45.5t37 -35.5q40 -26 90 -26q28 0 50 6t39 16q35 21 50.5 54.5t13.5 70.5q-2 35 -14.5 64.5t-32.5 55.5q-25 32 -57.5 59t-64.5 51q-23 17 -50.5 39.5t-51.5 49.5
q-23 26 -38 55.5t-12 60.5q3 38 30 62.5t62 32.5q33 8 62 6q41 -1 73 -9t70 -7q14 0 26.5 3.5t20.5 10.5v-166q-12 37 -24.5 65t-31 46.5t-45.5 28.5t-68 11q-16 1 -33.5 0t-34.5 -7q-23 -8 -38 -26t-10 -48q3 -22 17 -44t31 -41q20 -22 44 -41t44 -35q34 -26 69.5 -56.5
t64.5 -65.5q28 -34 43.5 -73t10.5 -85q-5 -47 -33 -84.5t-76 -57.5q-41 -17 -97 -19l-13 -24q5 -1 10.5 -2t10.5 -3q10 -4 19 -10t16 -14q16 -19 16 -47q0 -36 -31 -65q-31 -28 -80 -28q-19 0 -49 3v9q30 -4 50.5 3.5t33 21t17 31t1 32.5t-14.5 25.5t-30 10.5h-5.5t-7.5 -1
l36 58q-49 3 -91 21q-32 14 -58.5 37.5t-41.5 55.5q-17 35 -12.5 72.5t24.5 66.5q21 30 53.5 41t62.5 3q25 -7 44 -25t27 -47z" />
    <glyph glyph-name="scedilla" unicode="&#x15f;" horiz-adv-x="445" 
d="M199 164q-13 7 -26 8t-25 -2q-17 -5 -29.5 -18t-14.5 -33q-3 -21 6 -43.5t29 -37.5q17 -12 37 -19t40 -7q18 2 35.5 5.5t31.5 11.5q24 14 37.5 39t11.5 51q-2 28 -17.5 51.5t-35.5 41.5q-21 19 -44 34.5t-46 31.5q-22 14 -43 29.5t-40 33.5q-18 17 -29 37.5t-11 42.5
q1 22 13 42t32 30q24 12 54 14t56 1q38 -2 61.5 -7.5t46.5 -4.5q21 0 36 10v-154q-9 25 -21.5 50.5t-29.5 46t-40.5 34t-55.5 14.5q-14 0 -27.5 -2.5t-26.5 -8.5q-12 -6 -20.5 -16t-10.5 -24q-2 -28 21 -52q13 -15 32 -30t40 -29q29 -20 57.5 -39.5t50.5 -39.5
q26 -24 43 -52t18 -63q1 -29 -12 -56.5t-42 -47.5q-25 -19 -55 -28t-63 -10l-13 -23q5 -1 10.5 -2t10.5 -3q22 -8 35 -23q16 -19 16 -48q0 -36 -31 -65q-33 -28 -80 -28q-10 0 -22 1t-27 3v8q30 -4 50.5 3.5t33.5 21t17 31t1 32.5t-14 25.5t-30 10.5h-6.5t-7.5 -1l36 57
q-46 3 -81 21q-22 11 -39 28.5t-27 38.5q-11 25 -7.5 52t17.5 47q13 17 32.5 26t45.5 4q19 -4 34 -16.5t22 -35.5z" />
    <glyph glyph-name="Scaron" unicode="&#x160;" horiz-adv-x="522" 
d="M254 225q-17 20 -39 28t-43 4q-24 -3 -40.5 -18t-24.5 -36q-7 -18 -6.5 -39t6.5 -40q8 -24 24 -45.5t38 -35.5q19 -13 42 -19.5t47 -6.5q28 0 50.5 6t39.5 16q34 21 49.5 54.5t13.5 70.5q-2 35 -14.5 64.5t-32.5 55.5q-25 32 -57 59t-64 51q-23 17 -51 39.5t-52 49.5
q-23 26 -38 55.5t-12 60.5q3 38 30 62.5t62 32.5q33 8 62 6q41 -1 73.5 -9t69.5 -7q14 0 26.5 3.5t20.5 10.5v-166q-12 37 -24.5 65t-31 46.5t-45.5 28.5t-68 11q-16 1 -33.5 0t-34.5 -7q-23 -8 -37.5 -26t-10.5 -48q3 -22 17 -44t31 -41q20 -22 44 -41t44 -35
q34 -26 70 -56.5t64 -65.5q28 -34 43.5 -73t10.5 -85q-5 -47 -33 -84.5t-76 -57.5q-47 -19 -106 -19q-26 0 -52.5 5t-50.5 16q-32 14 -58.5 37.5t-41.5 55.5q-17 35 -12.5 72.5t24.5 66.5q21 30 53.5 41t62.5 3q25 -7 44 -25t27 -47zM388 893l-81 -152h-98l-81 152h41
l89 -102l88 102h42z" />
    <glyph glyph-name="scaron" unicode="&#x161;" horiz-adv-x="445" 
d="M199 164q-13 7 -26 8t-25 -2q-17 -5 -29.5 -18t-14.5 -33q-3 -21 6 -43.5t29 -37.5q17 -12 37 -19t40 -7q18 2 35.5 5.5t31.5 11.5q24 14 37.5 39t11.5 51q-2 28 -17.5 51.5t-35.5 41.5q-21 19 -44 34.5t-46 31.5q-22 14 -43 29.5t-40 33.5q-18 17 -29 37.5t-11 42.5
q1 22 13 42t32 30q24 12 54 14t56 1q38 -2 61.5 -7.5t46.5 -4.5q21 0 36 10v-154q-9 25 -21.5 50.5t-29.5 46t-40.5 34t-55.5 14.5q-13 0 -27 -2.5t-27 -8.5q-12 -6 -20 -16t-10 -24q-3 -27 20 -52q13 -15 32 -30t40 -29q29 -20 57.5 -39.5t50.5 -39.5q26 -24 43 -52t18 -63
q1 -29 -12 -56.5t-42 -47.5q-51 -38 -125 -38q-29 0 -52 5.5t-43 15.5q-22 11 -39 28.5t-27 38.5q-11 25 -7.5 52t17.5 47q13 17 32.5 26t45.5 4q19 -4 34 -16.5t22 -35.5zM351 700l-81 -152h-98l-81 152h42l88 -102l89 102h41z" />
    <glyph glyph-name="Tcaron" unicode="&#x164;" 
d="M216 683h-60q-54 0 -84.5 -42.5t-46.5 -108.5v168h452v-168q-16 66 -46.5 108.5t-84.5 42.5h-60v-576q0 -26 5.5 -55t21.5 -52h-123q15 23 20.5 52t5.5 55v576zM381 893l-81 -152h-98l-81 152h42l88 -102l89 102h41z" />
    <glyph glyph-name="Utilde" unicode="&#x168;" horiz-adv-x="536" 
d="M149 593v-391q0 -78 37 -124t103 -46q65 0 103 46t38 124v391q0 26 -5.5 55t-21.5 52h79q-6 -10 -16.5 -34.5t-10.5 -72.5v-403q0 -42 -10.5 -77t-32.5 -60t-56 -39t-81 -14q-95 0 -145 50.5t-50 139.5v403q0 26 -5.5 55t-21.5 52h123q-6 -10 -16.5 -34.5t-10.5 -72.5v0z
M89 827q28 45 65 59.5t93 -1.5q4 -2 7.5 -2.5t8.5 -2.5q24 -8 48 -17t47 -12t43.5 3.5t38.5 28.5l6 -12q-28 -45 -65.5 -59.5t-92.5 1.5q-5 2 -8.5 2.5t-7.5 2.5q-24 8 -48.5 17t-47 11.5t-43.5 -4t-39 -28.5z" />
    <glyph glyph-name="utilde" unicode="&#x169;" horiz-adv-x="502" 
d="M74 170v200q0 17 -2 32.5t-5 26.5q-4 19 -10 30t-10 18q21 -1 49.5 7.5t46.5 22.5v-339q0 -28 6.5 -54.5t20 -47t33.5 -32t47 -10.5q41 3 71 39q17 22 25.5 49.5t8.5 55.5v202q0 17 -2 32.5t-5 26.5q-4 19 -10 30t-10 18q21 -1 49.5 7.5t46.5 22.5v-369q0 -18 2 -33.5
t4 -26.5q5 -19 11 -30t10 -17q-25 0 -53 -7.5t-43 -23.5v84q-15 -35 -49.5 -59.5t-79.5 -24.5q-29 0 -56.5 10.5t-48.5 31.5t-34 53t-13 75zM70 634q28 45 65.5 60t92.5 -2q4 -1 7.5 -2t8.5 -3q24 -8 48 -17t47 -12t43.5 4t38.5 29l7 -13q-29 -45 -66.5 -59.5t-91.5 1.5
q-5 2 -8.5 2.5t-7.5 2.5q-24 8 -48.5 17t-47.5 12t-43.5 -3.5t-38.5 -29.5z" />
    <glyph glyph-name="Umacron" unicode="&#x16a;" horiz-adv-x="536" 
d="M149 593v-391q0 -78 37 -124t103 -46q65 0 103 46t38 124v391q0 26 -5.5 55t-21.5 52h79q-7 -10 -17 -34.5t-10 -72.5v-403q0 -42 -10.5 -77t-32.5 -60t-56 -39t-81 -14q-95 0 -145 50.5t-50 139.5v403q0 26 -6 55t-21 52h123q-6 -10 -16.5 -34.5t-10.5 -72.5v0zM96 786
v62h343v-62h-343z" />
    <glyph glyph-name="umacron" unicode="&#x16b;" 
d="M74 170v200q0 17 -2 32.5t-5 26.5q-4 19 -10 30t-10 18q21 -1 49.5 7.5t46.5 22.5v-339q0 -28 6.5 -54.5t20 -47t33.5 -32t47 -10.5q41 3 71 39q17 22 25.5 49.5t8.5 55.5v202q0 17 -2 32.5t-5 26.5q-4 19 -10 30t-10 18q21 -1 49.5 7.5t46.5 22.5v-369q0 -18 2 -33.5
t4 -26.5q5 -19 11 -30t10 -17q-25 0 -53 -7.5t-43 -23.5v84q-15 -35 -49.5 -59.5t-79.5 -24.5q-29 0 -56.5 10.5t-48.5 31.5t-34 53t-13 75zM77 593v62h344v-62h-344z" />
    <glyph glyph-name="Ubreve" unicode="&#x16c;" horiz-adv-x="536" 
d="M149 593v-391q0 -78 37 -124t103 -46q65 0 103 46t38 124v391q0 26 -5.5 55t-21.5 52h79q-7 -10 -17 -34.5t-10 -72.5v-403q0 -42 -10.5 -77t-32.5 -60t-56 -39t-81 -14q-95 0 -145 50.5t-50 139.5v403q0 26 -6 55t-21 52h123q-6 -10 -16.5 -34.5t-10.5 -72.5v0zM267 741
q-42 0 -69.5 16t-44 39.5t-23.5 50t-7 46.5h22q0 -21 9.5 -38t26 -29.5t39 -19.5t47.5 -7q26 0 48 7t39 19.5t26.5 29.5t9.5 38h22q0 -20 -7 -46.5t-23.5 -50t-44.5 -39.5t-70 -16z" />
    <glyph glyph-name="ubreve" unicode="&#x16d;" 
d="M74 170v200q0 17 -2 32.5t-4 26.5q-5 19 -11 30t-10 18q21 -1 49.5 7.5t46.5 22.5v-339q0 -28 6.5 -54.5t20 -47t33.5 -32t47 -10.5q41 3 71 39q17 22 25.5 49.5t8.5 55.5v202q0 17 -2 32.5t-5 26.5q-4 19 -10 30t-10 18q21 -1 49.5 7.5t46.5 22.5v-369q0 -18 2 -33.5
t4 -26.5q5 -19 11 -30t10 -17q-25 0 -53 -7.5t-43 -23.5v84q-15 -35 -49.5 -59.5t-79.5 -24.5q-29 0 -56.5 10.5t-48.5 31.5t-34 53t-13 75zM249 548q-42 0 -69.5 16t-44.5 39.5t-24 50t-7 46.5h22q0 -21 10 -38t26.5 -29.5t39 -19.5t47.5 -7q26 0 48 7t39 19.5t26.5 29.5
t9.5 38h22q0 -20 -7 -46.5t-24 -50t-44.5 -39.5t-69.5 -16z" />
    <glyph glyph-name="Uring" unicode="&#x16e;" horiz-adv-x="536" 
d="M366 807q0 -36 -25 -61.5t-61 -25.5t-61.5 25.5t-25.5 61.5q0 18 7 33.5t18.5 27t27.5 18.5t34 7t33.5 -7t27.5 -18.5t18.5 -27t6.5 -33.5zM482 700q-7 -10 -17 -34.5t-10 -72.5v-403q0 -42 -10.5 -77t-32.5 -60t-56 -39t-81 -14q-95 0 -145 50.5t-50 139.5v403
q0 26 -6 55t-21 52h123q-6 -10 -16.5 -34.5t-10.5 -72.5v-391q0 -78 37 -124t103 -46q65 0 103 46t38 124v391q0 26 -5.5 55t-21.5 52h79zM280 746q25 0 42.5 17.5t17.5 43.5q0 25 -17.5 42.5t-42.5 17.5t-42.5 -17.5t-17.5 -42.5q0 -26 17.5 -43.5t42.5 -17.5z" />
    <glyph glyph-name="uring" unicode="&#x16f;" 
d="M74 170v200q0 17 -2 32.5t-4 26.5q-5 19 -11 30t-10 18q21 -1 49.5 7.5t46.5 22.5q0 -88 0.5 -169.5t0.5 -169.5q0 -28 6.5 -54.5t19.5 -47t33 -32t47 -10.5q41 3 71 39q17 22 25.5 49.5t8.5 55.5v202q0 17 -2 32.5t-5 26.5q-4 19 -10 30t-10 18q21 -1 49.5 7.5
t46.5 22.5v-369q0 -18 2 -33.5t4 -26.5q5 -19 11 -30t10 -17q-25 0 -53 -7.5t-43 -23.5v84q-15 -35 -49.5 -59.5t-79.5 -24.5q-29 0 -56.5 10.5t-48.5 31.5t-34 53t-13 75zM309 614q0 25 -17.5 42.5t-42.5 17.5t-42.5 -17.5t-17.5 -42.5q0 -26 17.5 -43.5t42.5 -17.5
t42.5 17.5t17.5 43.5zM336 614q0 -36 -25.5 -61.5t-61.5 -25.5t-61.5 25.5t-25.5 61.5q0 18 7 33.5t18.5 27t27.5 18.5t34 7t34 -7t27.5 -18.5t18.5 -27t7 -33.5z" />
    <glyph glyph-name="Uhungarumlaut" unicode="&#x170;" horiz-adv-x="536" 
d="M149 202q0 -78 37 -124t103 -46q65 0 103 46t38 124v391q0 26 -5.5 55t-21.5 52h79q-6 -10 -16.5 -34.5t-10.5 -72.5v-403q0 -42 -10.5 -77t-32.5 -60t-56 -39t-81 -14q-95 0 -145 50.5t-50 139.5v403q0 26 -5.5 55t-21.5 52h123q-6 -10 -16.5 -34.5t-10.5 -72.5v-391z
M148 741l72 152h89l-123 -152h-38zM291 741l71 152h90l-123 -152h-38z" />
    <glyph glyph-name="uhungarumlaut" unicode="&#x171;" 
d="M74 170v200q0 17 -2 32.5t-4 26.5q-5 19 -11 30t-10 18q21 -1 49.5 7.5t46.5 22.5v-339q0 -28 6.5 -54.5t20 -47t33.5 -32t47 -10.5q41 3 71 39q17 22 25.5 49.5t8.5 55.5v202q0 17 -2 32.5t-5 26.5q-4 19 -10 30t-10 18q21 -1 49.5 7.5t46.5 22.5v-369q0 -18 2 -33.5
t4 -26.5q5 -19 11 -30t10 -17q-25 0 -53 -7.5t-43 -23.5v84q-15 -35 -49.5 -59.5t-79.5 -24.5q-29 0 -56.5 10.5t-48.5 31.5t-34 53t-13 75zM130 548l72 152h89l-123 -152h-38zM272 548l72 152h89l-122 -152h-39z" />
    <glyph glyph-name="Uogonek" unicode="&#x172;" horiz-adv-x="536" 
d="M176 700q-6 -10 -16.5 -34.5t-10.5 -72.5v-391q0 -78 37 -124t103 -46q65 0 103 46t38 124v391q0 26 -5.5 55t-21.5 52h79q-7 -10 -17 -34.5t-10 -72.5v-403q0 -77 -35.5 -128.5t-114.5 -59.5l-14 -14t-14 -15q-24 -28 -28 -53.5t5 -44.5q11 -22 34 -30t49 6l4 -7
q-11 -15 -32.5 -26t-44.5 -11q-26 0 -45 14q-24 19 -26 48q-1 18 6.5 35.5t18.5 31.5t24.5 25t25.5 22q5 5 10.5 9t11.5 8h-15q-95 0 -145 50.5t-50 139.5v403q0 26 -6 55t-21 52h123z" />
    <glyph glyph-name="uogonek" unicode="&#x173;" horiz-adv-x="502" 
d="M74 170v200q0 17 -2 32.5t-5 26.5q-4 19 -10 30t-10 18q21 -1 49.5 7.5t46.5 22.5v-339q0 -28 6.5 -54.5t20 -47t33.5 -32t47 -10.5q41 3 71 39q17 22 25.5 49.5t8.5 55.5v202q0 17 -2 32.5t-5 26.5q-4 19 -10 30t-10 18q21 -1 49.5 7.5t46.5 22.5v-369q0 -18 2 -33.5
t4 -26.5q5 -19 11 -30t10 -17q-24 0 -51.5 -7t-42.5 -22l-14 -14t-14 -15q-24 -28 -28 -53.5t5 -44.5q11 -22 34 -30t49 6l4 -7q-12 -14 -33 -25.5t-44 -11.5q-14 0 -25.5 4t-19.5 10q-13 10 -19 22.5t-7 26.5q-1 17 6 35t19 32q11 14 24 25t26 21q8 8 17 14.5t18 13.5v73
q-15 -35 -49.5 -59.5t-79.5 -24.5q-29 0 -56.5 10.5t-48.5 31.5t-34 53t-13 75z" />
    <glyph glyph-name="Wcircumflex" unicode="&#x174;" horiz-adv-x="809" 
d="M301 0h-55l-170 607q-12 43 -32.5 66t-43.5 26h177q-23 -4 -32.5 -29.5t-1.5 -57.5l154 -547l104 269q5 11 10 28l-69 245q-12 43 -32.5 66t-43.5 26h177q-23 -4 -32.5 -29.5t-1.5 -57.5l154 -547l105 269q10 26 21 63.5t17 78.5q5 31 5.5 70.5t-13.5 71.5
q-10 20 -26.5 33t-44.5 15q-21 2 -42 -7.5t-39 -30.5q16 45 50.5 67t71.5 21q34 0 62.5 -20.5t38.5 -62.5q7 -32 2.5 -69t-14.5 -70q-12 -40 -29 -82.5t-28 -73.5l-133 -338h-54l-89 315zM257 741l80 152h99l80 -152h-41l-88 102l-89 -102h-41z" />
    <glyph glyph-name="Ycircumflex" unicode="&#x176;" 
d="M298 258v-151q0 -47 10.5 -72t16.5 -35h-123q15 23 21 52t6 55v151l-149 349q-17 42 -38 64t-41 29h136q-17 -11 -12 -33t18 -51l143 -334q10 17 22 38t24.5 44.5t25 46.5t22.5 43q8 14 15.5 30t13.5 33q8 19 13.5 40.5t4.5 43.5q-2 35 -23 57t-58 15q-17 -3 -32 -13
t-26 -24q4 12 12 26.5t20.5 26.5t30 20t40.5 8t40.5 -9.5t28.5 -25.5t15 -36.5t0 -42.5q-5 -26 -15.5 -47.5t-21.5 -41.5l-140 -256v0zM138 741l81 152h98l81 -152h-42l-88 102l-89 -102h-41z" />
    <glyph glyph-name="Ydieresis" unicode="&#x178;" 
d="M298 107q0 -47 10.5 -72t16.5 -35h-123q16 23 21.5 52t5.5 55v151l-149 349q-17 42 -37.5 64t-41.5 29h136q-17 -11 -11.5 -33t17.5 -51l143 -334q10 17 22 38t24.5 44.5t25 46.5t23.5 43q7 14 14.5 30t13.5 33q8 19 13.5 40.5t4.5 43.5q-1 35 -22.5 57t-58.5 15
q-17 -3 -32 -13t-26 -24q4 12 12 26.5t21 26.5t30.5 20t39.5 8q24 0 41.5 -9.5t28.5 -25.5t15 -36.5t0 -42.5q-5 -26 -15.5 -47.5t-21.5 -41.5l-141 -256v-151zM235 841q0 -21 -17 -36.5t-42 -15.5t-42 15.5t-17 36.5q0 22 17 37t42 15t42 -15t17 -37zM406 841
q0 -21 -17 -36.5t-42 -15.5t-42 15.5t-17 36.5q0 22 17 37t42 15t42 -15t17 -37z" />
    <glyph glyph-name="Zacute" unicode="&#x179;" horiz-adv-x="509" 
d="M204 675q-61 0 -93 -39t-43 -104l-6 168h390l-335 -676h140q40 0 68.5 11t46 29t24.5 40t5 43q-1 17 -8 32t-19 26t-29 17.5t-38 5.5q35 19 71 17.5t60 -22.5q25 -21 30.5 -52.5t-2.5 -60.5q-8 -32 -31 -57.5t-52 -36.5q-23 -9 -47.5 -13t-49.5 -4q-75 0 -133.5 0.5
t-120.5 0.5l330 675h-158zM171 741l72 152h89l-122 -152h-39z" />
    <glyph glyph-name="zacute" unicode="&#x17a;" horiz-adv-x="442" 
d="M205 492q-34 0 -56.5 -10.5t-37.5 -29t-25 -43t-21 -53.5v151h326q0 -41 -17 -76.5t-43 -68t-58 -64t-61 -65.5t-52.5 -72.5t-33.5 -83.5q-6 -31 -6 -61h102q22 -1 42.5 4.5t37.5 16.5q17 12 26 31.5t8 39.5q-2 15 -9 28t-23 21q-19 9 -39 8q17 11 37.5 14.5t39.5 -0.5
q19 -5 33.5 -18.5t19.5 -37.5q4 -19 -1.5 -39t-18.5 -36q-21 -25 -51 -36q-18 -7 -37 -9.5t-39 -2.5h-103.5t-94.5 1q0 62 16.5 111t41.5 89t55.5 72.5t58.5 62t51 57t32 57.5q4 11 5 21t1 21h-106zM143 548l72 152h88l-122 -152h-38z" />
    <glyph glyph-name="Zdotaccent" unicode="&#x17b;" horiz-adv-x="509" 
d="M204 675q-61 0 -93 -39t-43 -104l-6 168h390l-335 -676h140q40 0 68.5 11t46 29t24.5 40t5 43q-1 17 -8 32t-19 26t-29 17.5t-38 5.5q35 19 70.5 17.5t60.5 -22.5t30.5 -52.5t-2.5 -60.5q-8 -32 -31 -57.5t-52 -36.5q-23 -9 -47.5 -13t-50.5 -4q-74 0 -132.5 0.5
t-120.5 0.5l330 675h-158zM311 841q0 -21 -17.5 -36.5t-41.5 -15.5q-25 0 -42.5 15.5t-17.5 36.5q0 22 17.5 37t42.5 15q24 0 41.5 -15t17.5 -37z" />
    <glyph glyph-name="zdotaccent" unicode="&#x17c;" horiz-adv-x="441" 
d="M205 492q-34 0 -56.5 -10.5t-37.5 -29t-25.5 -43t-20.5 -53.5v151h326q0 -41 -17 -76.5t-43 -68t-58 -64t-61 -65.5t-52.5 -72.5t-33.5 -83.5q-4 -16 -5 -30.5t-1 -30.5h102q22 -1 42.5 4.5t36.5 16.5q17 12 26.5 31.5t7.5 39.5q-1 15 -8.5 28t-22.5 21q-19 9 -39 8
q17 11 37.5 14.5t39.5 -0.5q19 -5 33 -18.5t19 -37.5q4 -19 -1 -39t-18 -36q-21 -25 -51 -36q-18 -7 -37 -9.5t-39 -2.5h-104t-94 1q0 62 16.5 111t41.5 89t55.5 72.5t58.5 62t51 57t32 57.5q4 11 5 21t1 21h-106zM282 648q0 -21 -17 -36t-42 -15t-42 15t-17 36
q0 23 17 37.5t42 14.5t42 -14.5t17 -37.5z" />
    <glyph glyph-name="Zcaron" unicode="&#x17d;" horiz-adv-x="509" 
d="M204 675q-61 0 -93 -39t-43 -104l-6 168h390l-335 -676h140q40 0 68.5 11t46 29t24.5 40t5 43q-1 17 -8 32t-19 26t-29 17.5t-38 5.5q35 19 71 17.5t60 -22.5q25 -21 30.5 -52.5t-2.5 -60.5q-8 -32 -31 -57.5t-52 -36.5q-23 -9 -47.5 -13t-49.5 -4q-75 0 -133.5 0.5
t-120.5 0.5l330 675h-158zM381 893l-80 -152h-99l-80 152h41l89 -102l88 102h41z" />
    <glyph glyph-name="zcaron" unicode="&#x17e;" horiz-adv-x="441" 
d="M205 492q-34 0 -56.5 -10.5t-37.5 -29t-25.5 -43t-20.5 -53.5v151h326q0 -41 -17 -76.5t-43 -68t-58 -64t-61 -65.5t-52.5 -72.5t-33.5 -83.5q-4 -16 -5 -30.5t-1 -30.5h102q22 -1 42.5 4.5t36.5 16.5q17 12 26.5 31.5t8.5 39.5q-2 15 -9.5 28t-22.5 21q-19 9 -39 8
q17 11 37.5 14.5t39.5 -0.5q19 -5 33 -18.5t19 -37.5q4 -19 -1 -39t-18 -36q-21 -25 -51 -36q-18 -7 -37 -9.5t-39 -2.5h-103.5t-94.5 1q0 62 16.5 111t41.5 89t55.5 72.5t58.5 62t51 57t32 57.5q4 11 5 21t1 21h-106zM353 700l-81 -152h-98l-81 152h42l88 -102l88 102h42z
" />
    <glyph glyph-name="uni0226" unicode="&#x226;" horiz-adv-x="523" 
d="M264 700l183 -603q5 -15 11 -30.5t13.5 -29t17 -24t20.5 -13.5h-143q13 11 17 24.5t3 28.5t-6 31l-10 32l-9 31h-167q-36 0 -59 -9t-34 -45q-2 -5 -3 -11t-3 -11q-8 -24 -7 -42t18 -29h-93q24 14 40 42t24 54zM321 841q0 -21 -17.5 -36.5t-42.5 -15.5t-42 15.5t-17 36.5
q0 22 17 37t42 15t42.5 -15t17.5 -37zM242 557q-22 -75 -40.5 -136.5t-34.5 -112t-29 -92.5t-24 -79q14 21 32 29.5t45 8.5h162z" />
    <glyph glyph-name="circumflex" unicode="&#x2c6;" horiz-adv-x="320" 
d="M30 548l81 152h98l81 -152h-41l-89 102l-89 -102h-41z" />
    <glyph glyph-name="caron" unicode="&#x2c7;" horiz-adv-x="316" 
d="M288 700l-81 -152h-98l-81 152h41l89 -102l88 102h42z" />
    <glyph glyph-name="breve" unicode="&#x2d8;" horiz-adv-x="356" 
d="M178 548q-42 0 -69.5 16t-44.5 39.5t-24 50t-7 46.5h22q0 -21 9.5 -38t26.5 -29.5t39.5 -19.5t47.5 -7t47.5 7t39 19.5t26 29.5t9.5 38h23q0 -20 -7 -46.5t-24 -50t-44.5 -39.5t-69.5 -16z" />
    <glyph glyph-name="dotaccent" unicode="&#x2d9;" horiz-adv-x="177" 
d="M148 648q0 -21 -17 -36.5t-42 -15.5t-42.5 15.5t-17.5 36.5q0 22 17.5 37t42.5 15t42 -15t17 -37z" />
    <glyph glyph-name="ogonek" unicode="&#x2db;" horiz-adv-x="188" 
d="M144 15q-8 -9 -18.5 -19.5t-21.5 -22.5q-24 -28 -28 -53.5t5 -44.5q11 -22 34 -30t49 6l4 -7q-12 -15 -33 -26t-44 -11q-28 0 -45 14q-14 10 -19.5 22t-6.5 26q-1 18 6 35.5t19 31.5q11 14 24 25l26 22q10 8 19.5 16t20.5 16h9z" />
    <glyph glyph-name="hungarumlaut" unicode="&#x2dd;" horiz-adv-x="360" 
d="M31 548l72 152h89l-123 -152h-38zM173 548l72 152h89l-122 -152h-39z" />
    <glyph glyph-name="Sigma" unicode="&#x3a3;" horiz-adv-x="495" 
d="M466 700v-48q-9 6 -34 16t-72 10h-248l209 -290l-210 -327h249q47 0 72 10t34 17v-88h-442l237 362l-238 338h170h273z" />
    <glyph glyph-name="Wgrave" unicode="&#x1e80;" horiz-adv-x="809" 
d="M300 0h-54l-170 607q-12 43 -32.5 66t-43.5 26h177q-23 -4 -32.5 -29.5t-1.5 -57.5l154 -547l104 269q5 11 10 28l-69 245q-12 43 -32.5 66t-43.5 26h177q-23 -4 -32.5 -29.5t-1.5 -57.5l154 -547l105 269q10 26 21 63.5t17 78.5q5 31 5.5 70.5t-13.5 71.5q-10 20 -27 33
t-45 15q-20 2 -41.5 -7.5t-38.5 -30.5q16 45 50.5 67t71.5 21q34 0 62.5 -20.5t38.5 -62.5q7 -32 2.5 -69t-14.5 -70q-12 -40 -29 -82.5t-28 -73.5l-133 -338h-54l-89 315zM428 741l-122 152h89l72 -152h-39z" />
    <glyph glyph-name="Wacute" unicode="&#x1e82;" horiz-adv-x="809" 
d="M300 0h-54l-170 607q-12 43 -32.5 66t-43.5 26h177q-23 -4 -32.5 -29.5t-1.5 -57.5l154 -547l104 269q5 11 10 28l-69 245q-12 43 -32.5 66t-43.5 26h177q-23 -4 -32.5 -29.5t-1.5 -57.5l154 -547l105 269q10 26 21 63.5t17 78.5q5 31 5.5 70.5t-13.5 71.5q-10 20 -27 33
t-45 15q-20 2 -41.5 -7.5t-38.5 -30.5q16 45 50.5 67t71.5 21q34 0 62.5 -20.5t38.5 -62.5q7 -32 2.5 -69t-14.5 -70q-12 -40 -29 -82.5t-28 -73.5l-133 -338h-54l-89 315zM306 741l72 152h89l-122 -152h-39z" />
    <glyph glyph-name="Wdieresis" unicode="&#x1e84;" horiz-adv-x="809" 
d="M300 0h-54l-170 607q-12 43 -32.5 66t-43.5 26h177q-23 -4 -32.5 -29.5t-1.5 -57.5l154 -547l104 269q5 11 10 28l-69 245q-12 43 -32.5 66t-43.5 26h177q-23 -4 -32.5 -29.5t-1.5 -57.5l154 -547l105 269q10 26 21 63.5t17 78.5q5 31 5.5 70.5t-13.5 71.5q-10 20 -27 33
t-45 15q-20 2 -41.5 -7.5t-38.5 -30.5q16 45 50.5 67t71.5 21q34 0 62.5 -20.5t38.5 -62.5q7 -32 2.5 -69t-14.5 -70q-12 -40 -29 -82.5t-28 -73.5l-133 -338h-54l-89 315zM361 841q0 -21 -17.5 -36.5t-42.5 -15.5t-42 15.5t-17 36.5q0 22 17 37t42 15t42.5 -15t17.5 -37z
M531 841q0 -21 -17 -36.5t-42 -15.5t-42.5 15.5t-17.5 36.5q0 22 17.5 37t42.5 15t42 -15t17 -37z" />
    <glyph glyph-name="uni1EBC" unicode="&#x1ebc;" horiz-adv-x="499" 
d="M59 0q16 23 21.5 52t5.5 55v486q0 26 -5.5 55t-21.5 52h358l21 -139q-8 33 -23.5 56t-34 38t-39.5 21.5t-41 6.5h-145v-221q6 9 14.5 13t17.5 4q12 1 24 -2.5t24 -8.5q10 -4 21 -8.5t22 -8.5q16 -5 32 -7t29 1.5t23 14t14 29.5q10 -17 10 -38q1 -34 -23 -52
q-18 -13 -45 -12t-50 14q-11 7 -22 14.5t-22 15.5q-7 5 -14 9t-14 9q-15 9 -26 6q-15 -5 -15 -30v-408h55q53 0 99.5 11.5t74.5 39.5q15 15 23.5 35.5t6.5 46.5q31 -17 39 -44t-1 -52q-8 -23 -28 -38.5t-48 -15.5h-317zM79 827q28 45 65.5 59.5t92.5 -1.5q4 -2 7.5 -2.5
t8.5 -2.5q24 -8 48 -17t47 -12t43.5 3.5t38.5 28.5l7 -12q-29 -45 -66.5 -59.5t-92.5 1.5q-5 2 -8.5 2.5t-7.5 2.5q-24 8 -48 17t-47 11.5t-43.5 -4t-38.5 -28.5z" />
    <glyph glyph-name="Ygrave" unicode="&#x1ef2;" 
d="M298 107q0 -47 10.5 -72t16.5 -35h-123q16 23 21.5 52t5.5 55v151l-149 349q-17 42 -38 64t-41 29h136q-17 -11 -11.5 -33t17.5 -51l143 -334q10 17 22 38t24.5 44.5t25 46.5t22.5 43q8 14 15.5 30t13.5 33q8 19 13.5 40.5t4.5 43.5q-2 35 -23 57t-58 15q-17 -3 -32 -13
t-26 -24q4 12 12 26.5t20.5 26.5t30 20t40.5 8q24 0 41.5 -9.5t28.5 -25.5t15 -36.5t0 -42.5q-5 -26 -15.5 -47.5t-21.5 -41.5l-141 -256v-151zM281 741l-122 152h89l71 -152h-38z" />
    <glyph glyph-name="endash" unicode="&#x2013;" horiz-adv-x="551" 
d="M23 223v61h505v-61h-505z" />
    <glyph glyph-name="emdash" unicode="&#x2014;" horiz-adv-x="880" 
d="M23 223v61h833v-61h-833z" />
    <glyph glyph-name="quoteleft" unicode="&#x2018;" horiz-adv-x="201" 
d="M100 468q-25 0 -42 14.5t-17 37.5q0 24 7 51t21.5 51.5t36 45t49.5 32.5l5 -6q-35 -27 -46 -60t-13 -62q24 -1 41.5 -16t17.5 -36q0 -23 -17.5 -37.5t-42.5 -14.5z" />
    <glyph glyph-name="quoteright" unicode="&#x2019;" horiz-adv-x="201" 
d="M101 700q24 0 41.5 -15t17.5 -37q0 -25 -7 -51.5t-21.5 -51t-35.5 -45t-50 -32.5l-5 6q34 27 45.5 60t13.5 62q-24 0 -41.5 15.5t-17.5 36.5q0 22 17.5 37t42.5 15z" />
    <glyph glyph-name="quotesinglbase" unicode="&#x201a;" horiz-adv-x="178" 
d="M89 104q25 0 42 -15t17 -37q0 -25 -7 -51.5t-21.5 -51t-35.5 -45t-50 -32.5l-5 6q34 27 45.5 60t13.5 62q-24 0 -41.5 15.5t-17.5 36.5q0 22 17.5 37t42.5 15z" />
    <glyph glyph-name="quotedblleft" unicode="&#x201c;" horiz-adv-x="348" 
d="M247 468q-24 0 -41.5 14.5t-17.5 37.5q0 24 7 51t21.5 51.5t36 45t49.5 32.5l5 -6q-34 -27 -45.5 -60t-13.5 -62q24 -1 41.5 -16t17.5 -36q0 -23 -17.5 -37.5t-42.5 -14.5zM100 468q-24 0 -41.5 14.5t-17.5 37.5q0 24 7 51t21.5 51.5t36 45t49.5 32.5l5 -6
q-34 -27 -45.5 -60t-13.5 -62q24 -1 41.5 -16t17.5 -36q0 -23 -17.5 -37.5t-42.5 -14.5z" />
    <glyph glyph-name="quotedblright" unicode="&#x201d;" horiz-adv-x="348" 
d="M100 700q25 0 42.5 -15t17.5 -37q0 -25 -7 -51.5t-21.5 -51t-36 -45t-50.5 -32.5l-4 6q34 27 45.5 60t13.5 62q-24 0 -41.5 15.5t-17.5 36.5q0 22 17.5 37t41.5 15zM247 700q25 0 42.5 -15t17.5 -37q0 -25 -7 -51.5t-21.5 -51t-35.5 -45t-50 -32.5l-5 6q34 27 45.5 60
t13.5 62q-24 0 -41.5 15.5t-17.5 36.5q0 22 17.5 37t41.5 15z" />
    <glyph glyph-name="quotedblbase" unicode="&#x201e;" horiz-adv-x="325" 
d="M88 104q25 0 42.5 -15t17.5 -37q0 -25 -7 -51.5t-21.5 -51t-36 -45t-50.5 -32.5l-4 6q34 27 45.5 60t13.5 62q-25 0 -42 15.5t-17 36.5q0 22 17.5 37t41.5 15zM235 104q25 0 42.5 -15t17.5 -37q0 -25 -7 -51.5t-21.5 -51t-36 -45t-50.5 -32.5l-4 6q34 27 45.5 60t13.5 62
q-24 0 -41.5 15.5t-17.5 36.5q0 22 17.5 37t41.5 15z" />
    <glyph glyph-name="dagger" unicode="&#x2020;" horiz-adv-x="498" 
d="M311 700l-52 -225l193 52v-124l-194 52q0 -34 17.5 -63t43.5 -51q-23 -47 -34.5 -116t-16.5 -143.5t-5.5 -147t-0.5 -127.5h-26q0 55 -0.5 127.5t-5.5 147t-16 143.5t-34 116q26 22 43 51t17 63l-194 -52v124l193 -52l-52 225h124z" />
    <glyph glyph-name="bullet" unicode="&#x2022;" horiz-adv-x="290" 
d="M251 350q0 -19 -8.5 -36t-22.5 -29.5t-33.5 -20t-41.5 -7.5t-41.5 7.5t-34 20t-23 29.5t-8.5 36q0 20 8.5 37t23 29.5t34 19.5t41.5 7t41.5 -7t33.5 -19.5t22.5 -29.5t8.5 -37z" />
    <glyph glyph-name="guilsinglleft" unicode="&#x2039;" horiz-adv-x="343" 
d="M300 86v-25l-259 172v41l259 172v-26l-176 -167z" />
    <glyph glyph-name="guilsinglright" unicode="&#x203a;" horiz-adv-x="343" 
d="M218 253l-175 167v26l259 -172v-41l-259 -172v25z" />
    <glyph glyph-name="Euro" unicode="&#x20ac;" horiz-adv-x="726" 
d="M207 271q19 -60 51 -108.5t71 -80t82 -44t85 -1.5q48 13 85.5 52t53.5 96q2 5 4 15v-85q-41 -54 -101 -84.5t-126 -30.5q-52 0 -99 20.5t-85 57t-64.5 86t-37.5 107.5h-78l13 47h58q-1 8 -1 16v16v15.5t1 15.5h-71l5 18l8 30h65q9 50 30 92.5t50 77.5q40 48 93 74.5
t116 26.5q57 0 108 -21q52 -23 94 -65q14 -15 25.5 -31.5t18.5 -33.5q8 -19 6.5 -38t-16.5 -36q-15 -15 -40 -25q-15 41 -36 75.5t-46 61.5q-45 48 -97 69t-104 7q-32 -9 -57.5 -30t-44 -51.5t-29 -69.5t-12.5 -83h260l-13 -48h-247q3 -30 9 -63h221l-12 -47h-196z" />
    <glyph glyph-name="trademark" unicode="&#x2122;" horiz-adv-x="496" 
d="M112 694h-23q-21 0 -33 -16.5t-18 -42.5v65h175v-65q-7 26 -18.5 42.5t-32.5 16.5h-23v-223q0 -11 2 -22t8 -19h-47q6 8 8 19t2 22v223zM243 430q6 8 8 19t2 22v188q0 10 -2 21.5t-8 19.5h33l73 -195l71 195h30q-2 -4 -6 -13.5t-4 -27.5v-188q0 -18 4 -28t6 -13h-47
q2 3 6 13t4 28v181l-61 -165q-6 -18 -14.5 -24t-19.5 -4q10 5 9.5 14t-3.5 19l-61 160v-181q0 -18 4 -28t6 -13h-30z" />
    <glyph glyph-name="radical" unicode="&#x221a;" horiz-adv-x="544" 
d="M489 894h62l-239 -894h-85l-113 421l-14 54h-61v32h53h84l105 -391z" />
    <glyph glyph-name="notequal" unicode="&#x2260;" horiz-adv-x="565" 
d="M58 229v62h170l52 143h-222v62h244l74 204h67l-74 -204h139v-62h-161l-52 -143h213v-62h-235l-83 -229h-67l82 229h-147z" />
    <glyph glyph-name="lessequal" unicode="&#x2264;" horiz-adv-x="560" 
d="M511 167v-70l-470 229v48l470 229v-70l-400 -183zM41 -62v62h470v-62h-470z" />
    <glyph glyph-name="greaterequal" unicode="&#x2265;" horiz-adv-x="560" 
d="M448 350l-399 183v70l470 -229v-48l-470 -229v70zM49 -62v62h470v-62h-470z" />
    <glyph glyph-name="uniF000" unicode="&#xf000;" horiz-adv-x="497" 
d="M260 700l161 -530q8 -25 20 -64t25.5 -81t27.5 -82t25 -66q8 -18 19 -40t25.5 -42t32.5 -34t40 -15q21 0 36.5 10t23.5 27q10 23 3.5 44.5t-23.5 32.5q-16 12 -37.5 10t-41.5 -26q8 38 30 56.5t48 20.5q20 1 36 -5t26.5 -17.5t16 -27t4.5 -31.5q-1 -18 -9 -36.5t-24 -34
t-40.5 -25.5t-57.5 -10q-55 0 -95 36t-69 88q-15 27 -30.5 67t-30 82.5t-26.5 80.5t-19 60h-167q-36 0 -59 -9.5t-34 -45.5q-2 -5 -3.5 -10.5t-3.5 -11.5q-7 -24 -6 -42t17 -29h-92q24 15 40 42.5t24 53.5zM238 557q-22 -75 -40.5 -136.5t-34.5 -112t-29 -92.5t-25 -79
q14 21 32.5 30t45.5 9h162z" />
    <glyph glyph-name="uniF001" unicode="&#xf001;" horiz-adv-x="577" 
d="M378 396q-8 -3 -16 -7t-16 -6q52 -6 91 -37q42 -35 64.5 -88t27.5 -114q4 -45 -1 -91t-17.5 -88.5t-32 -80.5t-45.5 -66q-35 -38 -83 -61t-111 -23q-59 1 -111.5 25t-82.5 69q-18 27 -25 53.5t-4.5 52t12.5 47.5t26 40q27 29 67.5 40.5t83.5 -7.5q20 -9 37 -24t28 -35.5
t15.5 -45t-0.5 -52.5q-6 30 -20 50t-32.5 32t-39.5 15.5t-41 -0.5q-35 -8 -59.5 -36t-22.5 -75q2 -28 15 -54.5t39 -46.5q24 -20 53 -24.5t59 -0.5q56 7 95.5 33.5t65.5 65.5q32 47 47 115.5t11 139.5q-4 66 -24 123.5t-59 94.5q-16 14 -36 23t-44 11q-33 3 -71 -13
q-17 -8 -30.5 -21.5t-20.5 -32.5v-212q-13 4 -34 1t-35 -7v515q0 26 -5.5 55t-21.5 52h220q57 0 102 -28q33 -22 51.5 -53.5t20.5 -66.5q3 -46 -20.5 -89t-69.5 -67zM170 323q7 18 19.5 30.5t28.5 21.5q14 8 30.5 14.5t31.5 11.5q17 6 34 13.5t32 20.5q24 19 36.5 50
t10.5 64q-2 31 -14.5 59t-35.5 47q-22 17 -52.5 22.5t-65.5 5.5h-55v-360z" />
    <glyph glyph-name="uniF002" unicode="&#xf002;" horiz-adv-x="636" 
d="M523 -140q-25 -15 -43 -25t-35.5 -16.5t-37.5 -9t-50 -2.5q-66 0 -116 35t-86 88t-58 115.5t-31 118.5q-9 57 -10 117.5t9 117.5t30.5 108.5t54.5 91.5q41 48 94 74.5t116 26.5q58 0 107 -21q53 -22 94 -64q32 -31 45 -66q7 -19 6 -37.5t-17 -35.5q-14 -16 -40 -26
q-31 83 -82 137q-44 48 -96.5 69t-103.5 7q-41 -11 -71.5 -41.5t-48.5 -75.5q-14 -34 -19.5 -82t-5.5 -98.5t5 -99.5t12 -85q16 -75 42 -140t60 -111q28 -41 70 -69q38 -25 66 -29.5t54 4.5q20 8 40.5 23t43.5 35q36 29 67.5 46t79.5 17q44 -2 78 -18q30 -15 51 -40.5
t29.5 -54t4 -58t-24.5 -52.5q-2 55 -31 98q-18 26 -46 43.5t-64 21.5q-35 3 -72 -7t-70 -30z" />
    <glyph glyph-name="uniF003" unicode="&#xf003;" horiz-adv-x="614" 
d="M170 84q-14 4 -35 1t-35 -7v515q0 26 -5.5 55t-21.5 52h187q59 0 106 -21.5t82 -58.5q27 -28 47.5 -66.5t34 -85t20 -98t6.5 -104.5q0 -56 -9 -117.5t-26.5 -121t-43.5 -112.5t-61 -93.5t-79.5 -64t-98.5 -23.5q-29 0 -57.5 6.5t-54 18.5t-46.5 29t-36 40
q-18 27 -25 53.5t-4.5 52t12.5 47.5t26 40q27 29 67 40.5t84 -7.5q20 -9 37 -24t28 -35.5t15.5 -45t-0.5 -52.5q-6 30 -20 50t-32.5 32t-39.5 15.5t-41 -0.5q-35 -8 -59.5 -36t-22.5 -75q2 -28 15 -54.5t39 -46.5q25 -20 53.5 -24.5t58.5 -0.5q44 5 79 30.5t62.5 65t48 89.5
t34 104t20.5 109t8 105t-3.5 97.5t-14.5 90t-25 77.5t-35 59q-35 42 -81 70.5t-112 28.5h-46v-599z" />
    <glyph glyph-name="uniF004" unicode="&#xf004;" horiz-adv-x="463" 
d="M154 426v-431q34 -2 63 -8.5t56 -15.5q42 -15 81.5 -37t84.5 -48q31 -17 61.5 -33.5t59.5 -29t55 -19t47 -3.5q29 4 51.5 22t28.5 56q12 -25 9.5 -51t-17 -47t-39 -34t-57.5 -13q-25 0 -51.5 10.5t-54.5 27t-57 37.5l-58 42q-43 32 -80 56t-75 41q-44 20 -92.5 32
t-111.5 20q15 23 21 52t6 55v486q0 26 -6 55t-21 52h358l21 -138q-8 33 -23.5 56t-34 37.5t-39.5 21t-41 6.5h-145v-221q6 9 14.5 13t17.5 5q12 0 23.5 -3.5t24.5 -8.5q10 -4 20.5 -8.5t22.5 -8.5q32 -11 60.5 -5.5t37.5 43.5q10 -20 10 -37q1 -36 -23 -52
q-19 -13 -45.5 -12t-49.5 14q-11 6 -22 13.5t-22 15.5q-7 5 -14 9.5t-14 8.5q-17 9 -26 6q-15 -5 -15 -29z" />
    <glyph glyph-name="uniF005" unicode="&#xf005;" horiz-adv-x="462" 
d="M153 47q0 -66 -5 -122.5t-23 -98t-52.5 -66t-92.5 -26.5q-28 -1 -54 11t-44 33q-27 32 -31.5 69.5t9.5 68.5q14 29 39.5 43t52.5 12q28 -1 52 -19.5t32 -60.5q-25 25 -53.5 26.5t-50.5 -12.5q-28 -20 -32 -51t10 -58q10 -20 28.5 -34t41.5 -14q31 0 50.5 16t30.5 41
q8 19 12.5 42t7 45.5t3 43.5t0.5 38v73v546q0 26 -5.5 55t-21.5 52h358l21 -138q-8 33 -23.5 56t-34 37.5t-39.5 21t-41 6.5h-145v-221q12 16 32 18q12 0 24 -3.5t24 -8.5q10 -4 21 -8.5t22 -8.5q16 -5 32 -7t29 1.5t23 14t14 29.5q10 -20 10 -37q1 -36 -23 -52
q-18 -13 -45 -12t-50 14q-11 6 -22 13.5t-22 15.5q-14 11 -28 18q-15 9 -26 6q-15 -5 -15 -29v-379z" />
    <glyph glyph-name="uniF006" unicode="&#xf006;" horiz-adv-x="654" 
d="M571 0q0 -23 -0.5 -51.5t-3.5 -58t-11 -57.5t-23.5 -50t-39.5 -35.5t-60 -13.5q-20 0 -38 9.5t-35.5 24t-33.5 32.5t-33 35q-27 29 -54 41.5t-50 11.5q-27 -2 -45.5 -19t-21.5 -47q-3 -31 11 -68q-27 25 -38.5 56.5t-6.5 62.5q6 41 33 64.5t62 26.5q26 3 46.5 -4
t37 -20.5t29.5 -31.5t25 -38q13 -21 24.5 -42.5t24.5 -39t28 -29t34 -12.5q25 -2 39 12t20.5 37.5t8 54t1.5 61.5v140q-5 -5 -11 -8.5t-13 -7.5q-31 -17 -65.5 -26.5t-69.5 -9.5q-61 0 -114.5 27.5t-93.5 75t-63 111.5t-23 136q0 74 23 137.5t65 111.5q40 48 93 74.5
t116 26.5q58 0 107 -21q54 -23 95 -64q14 -15 25.5 -32t18.5 -34q8 -19 6.5 -37.5t-17.5 -35.5q-13 -16 -39 -26q-15 41 -36 75.5t-46 61.5q-45 48 -97 69t-103 7q-44 -12 -76.5 -46.5t-49.5 -85t-18.5 -112t15.5 -126.5q18 -65 50 -117.5t72 -87t85 -49t89 -2.5
q40 10 74 41q1 8 1 15v14v106q0 26 -5.5 55t-21.5 52h124q-7 -9 -17 -34t-10 -73v-213z" />
    <glyph glyph-name="uniF007" unicode="&#xf007;" horiz-adv-x="566" 
d="M481 -88q0 -31 1.5 -61.5t8.5 -54t21 -37.5t39 -12q19 1 34 12.5t28 29t24.5 39t23.5 42.5q12 20 25 38t29.5 31.5t37 20.5t46.5 4q35 -3 62.5 -26.5t32.5 -64.5q5 -31 -6 -63t-39 -56q8 20 10.5 36.5t1.5 31.5q-4 30 -22 47t-45 19q-23 1 -50.5 -11.5t-54.5 -41.5
q-16 -17 -32.5 -35t-33.5 -32.5t-35 -24t-38 -9.5q-49 0 -76.5 24t-41.5 60q-14 38 -17 82.5t-3 81.5v428q-8 -9 -19 -14t-22 -8q-19 -4 -37.5 -1.5t-37.5 8.5q-27 10 -51.5 25t-49.5 29q-17 9 -26 6q-15 -5 -15 -29v-319q0 -47 10.5 -72t16.5 -35h-123q15 23 21 52t6 55
v486q0 26 -6 55t-21 52h123q-6 -9 -16.5 -34t-10.5 -73v-131q6 9 14.5 13t17.5 5q10 0 24 -3.5t29 -8.5q23 -7 49 -13.5t52 -6.5q22 0 39 7q14 5 23.5 13.5t9.5 20.5v104q0 26 -6 55t-21 52h123q-6 -9 -16.5 -34t-10.5 -73v-681z" />
    <glyph glyph-name="uniF008" unicode="&#xf008;" horiz-adv-x="239" 
d="M57 0q16 23 21.5 52t5.5 55v486q0 26 -5.5 55t-21.5 52h20q-6 5 -11 10.5t-10 10.5q-24 26 -40 59.5t-17 68.5q0 25 9 46.5t25 37t38 24.5t46 9q53 0 89 -37q17 -18 24 -37q14 -31 7.5 -61.5t-23.5 -53.5q-11 -14 -30 -23t-39 -10q-21 0 -38.5 12.5t-21.5 28.5
q34 -13 57.5 -5t35 26.5t10 42t-16.5 41.5q-10 13 -26.5 20.5t-38.5 6.5q-26 0 -49 -17.5t-28 -49.5q-5 -21 -0.5 -43.5t17.5 -42.5q8 -11 18 -22.5t22 -20.5t25.5 -15t28.5 -6h41q-7 -9 -17 -34t-10 -73v-486q0 -47 10 -72t17 -35h-124z" />
    <glyph glyph-name="uniF009" unicode="&#xf009;" horiz-adv-x="405" 
d="M87 65q26 10 54 9t52 -12.5t40.5 -33.5t17.5 -55q-17 25 -40.5 37t-47.5 13q-41 2 -69.5 -21t-40.5 -56.5t-6.5 -71.5t32.5 -67q6 -6 9 -8q28 -25 69 -28q27 -2 48 5t37 20q28 21 44 57.5t19 77.5q4 44 -9 85t-45 66v511q0 21 -3.5 43.5t-11.5 42.5l-5.5 11t-6.5 10h123
q-6 -9 -16.5 -34t-10.5 -73v-603q0 -29 -2 -61.5t-10 -63.5t-23.5 -57.5t-42.5 -44.5q-19 -13 -43 -21t-50 -8q-40 0 -70.5 14.5t-51.5 39.5t-32 58t-10 68q2 54 29 94t73 57z" />
    <glyph glyph-name="uniF00A" unicode="&#xf00a;" horiz-adv-x="522" 
d="M627 -266q-55 0 -95 36t-69 88q-24 43 -40 88t-27 92q-14 59 -21 115q-3 17 -6.5 40.5t-8.5 47.5t-11.5 46t-16.5 36q-19 30 -60 36q-23 4 -45 -1.5t-40 -20.5q-23 -18 -32 -39v-189q0 -26 5.5 -55t21.5 -52h-123q15 23 21 52t6 55v486q0 26 -6 55t-21 52h123
q-16 -23 -21.5 -52t-5.5 -55v-267q12 25 37 41q15 11 33 18l36 14q28 11 50 24t35 40q11 22 10.5 57t0.5 71q0 21 2.5 40t8.5 34t16 25.5t25 13.5q14 2 29 -2t28 -12q-15 -5 -23.5 -18t-13.5 -30q-4 -16 -5 -32.5t-2 -29.5q-1 -20 -1.5 -40.5t-3.5 -40.5q-2 -26 -10 -49.5
t-26 -43.5q-11 -12 -25 -20.5t-31 -12.5q22 0 38 -8.5t27 -22.5q14 -16 22.5 -39t14 -47.5t9 -49.5t7.5 -46q5 -28 10 -55t12 -54q10 -45 23 -89.5t31 -86.5q8 -18 18.5 -40t25 -42t32.5 -34t40 -15q22 0 37 10t23 26q9 19 5 41t-24 36q-16 11 -37.5 9.5t-41.5 -24.5
q7 38 29.5 57.5t48.5 21.5q20 1 36 -5.5t26.5 -18t16 -27.5t4.5 -32q-1 -18 -9 -36.5t-24 -34t-40.5 -25.5t-57.5 -10z" />
    <glyph glyph-name="uniF00B" unicode="&#xf00b;" horiz-adv-x="239" 
d="M154 -5q34 -2 63 -8.5t56 -15.5q42 -15 81.5 -37t84.5 -48q31 -17 61.5 -33.5t59.5 -29t55.5 -19t47.5 -3.5q29 4 51 22t28 56q12 -25 9.5 -51t-17 -47t-39 -34t-57.5 -13q-25 0 -51.5 10.5t-54.5 27t-57 37.5l-58 42q-43 32 -80 56t-75 41q-44 20 -92.5 32t-111.5 20
q16 23 21.5 52t5.5 55v486q0 26 -5.5 55t-21.5 52h123q-15 -23 -21 -52t-6 -55v-598z" />
    <glyph glyph-name="uniF00C" unicode="&#xf00c;" horiz-adv-x="653" 
d="M73 -179q-15 -37 -41 -62t-68 -25q-16 0 -28.5 7.5t-20.5 18t-12.5 22t-4.5 20.5q65 12 106 45q31 26 48.5 64t24.5 90q5 37 6 73.5t1 69.5v449q0 26 -5.5 55t-20.5 52h85l189 -506l184 506h79q-6 -9 -16.5 -34t-10.5 -73v-486q0 -47 10.5 -72t16.5 -35h-123
q6 10 16.5 35t10.5 72v469l-158 -428q-17 -45 -39.5 -60.5t-48.5 -10.5q12 6 17.5 15t6 20.5t-2.5 24t-8 24.5l-157 415v-434v-69.5t-3 -75.5q-1 -18 -3 -39.5t-5.5 -45t-9.5 -47t-15 -44.5z" />
    <glyph glyph-name="uniF00D" unicode="&#xf00d;" horiz-adv-x="588" 
d="M109 142v-71.5t-3 -76.5q-2 -47 -9.5 -91.5t-23.5 -82.5q-15 -36 -41 -61t-67 -25q-17 0 -29.5 7.5t-20.5 18t-12.5 22t-4.5 20.5q65 12 106 45q34 28 50.5 67.5t22.5 84.5q5 34 6.5 69t1.5 71q0 23 -0.5 46t-0.5 46v362q0 26 -5.5 55t-20.5 52h63l358 -581v474
q0 26 -5.5 55t-20.5 52h78q-6 -9 -16.5 -34t-10.5 -73v-504q1 -44 -18 -67t-61 -22q-8 0 -14 2q17 7 22 17.5t3 22t-8.5 24t-14.5 23.5l-304 500v-447z" />
    <glyph glyph-name="uniF00E" unicode="&#xf00e;" horiz-adv-x="685" 
d="M342 700q61 0 115 -27.5t94 -75t63 -111t23 -136.5q0 -55 -13.5 -105.5t-38.5 -92.5t-58.5 -74.5t-74.5 -52.5q-6 -2 -12 -5t-12 -5q-17 -6 -34 -9q-21 -6 -44 -6q-39 0 -75 11t-64 34q-25 20 -42.5 49t-25.5 68q-10 51 9 91t53 63q22 14 47.5 20t52 1.5t51.5 -19.5
t46 -44q-30 17 -65 21t-64 -8q-28 -11 -42.5 -31t-19.5 -44q-7 -39 11 -80t53 -65q25 -17 55 -26.5t61 -8.5q14 0 28 3.5t28 8.5q40 17 69 53t45 85t17 107.5t-16 119.5q-17 65 -49.5 117.5t-74 87t-88 48t-91.5 1.5q-46 -12 -79.5 -47.5t-52 -86t-20.5 -112t15 -126.5
l6 -18q-27 -53 -15 -117q4 -20 12 -41q-36 47 -56.5 107t-20.5 128q0 73 23 136.5t63 111t93.5 75t114.5 27.5z" />
    <glyph glyph-name="uniF00F" unicode="&#xf00f;" horiz-adv-x="480" 
d="M153 165v-118q0 -66 -5 -122.5t-23 -98t-52.5 -66t-93.5 -26.5q-27 -1 -53 11t-44 33q-27 32 -31.5 69.5t9.5 68.5q14 29 39 43t53 12q28 -1 51.5 -19.5t32.5 -60.5q-25 25 -53.5 26.5t-50.5 -12.5q-28 -20 -32 -51t10 -58q10 -20 28.5 -34t41.5 -14q31 0 50 16t30 41
q9 19 13.5 42t7 45.5t3 43.5t0.5 38v73v546q0 26 -5.5 55t-21.5 52h220q56 0 101 -28q34 -22 52.5 -53.5t20.5 -66.5q3 -46 -20.5 -89t-69.5 -67q-23 -11 -46.5 -17t-46.5 -11q-15 -3 -31.5 -7t-32.5 -11q-19 -9 -31.5 -21.5t-19.5 -32.5v-131zM153 323q7 18 19.5 30.5
t28.5 21.5q14 8 30.5 14.5t31.5 11.5q17 6 34 13.5t32 20.5q23 19 36 50t11 64q-2 31 -15 59t-36 47q-21 17 -51.5 22.5t-66.5 5.5h-54v-360z" />
    <glyph glyph-name="uniF010" unicode="&#xf010;" horiz-adv-x="686" 
d="M562 409q-17 65 -49.5 117.5t-74 87t-88 48t-91.5 1.5q-46 -12 -79.5 -47.5t-52 -86t-20.5 -112t15 -126.5q18 -65 50.5 -117.5t74 -87t88 -48t91.5 -1.5q46 12 79.5 47.5t52 86t20.5 112t-16 126.5zM637 350q0 -60 -16.5 -115t-45.5 -99t-68.5 -76t-86.5 -47l27 -15
q33 -19 81 -51.5t101 -64.5q29 -18 58.5 -34t57.5 -27.5t53 -17t45 -2.5q29 4 51 22t28 56q12 -25 9.5 -51t-16.5 -47t-39 -34t-58 -13q-25 0 -51.5 9.5t-54 26t-55.5 37.5t-56 44q-42 34 -81.5 67.5t-74.5 54.5q-26 15 -50.5 24.5t-45.5 8.5q-27 0 -46 -7.5t-30 -20.5
q-16 -17 -17.5 -39t9.5 -42q12 -24 45 -42q-34 -3 -59 8.5t-39 31.5q-12 17 -17 37t0 38q3 16 13 30t27 24q-41 19 -75.5 51.5t-59 75t-38.5 93.5t-14 106q0 73 23 136.5t63 111t94 75t115 27.5t114.5 -27.5t93.5 -75t63 -111t23 -136.5z" />
    <glyph glyph-name="uniF011" unicode="&#xf011;" horiz-adv-x="526" 
d="M626 -266q-55 0 -95 36t-69 88q-35 64 -52 133.5t-31 140.5l-12 62t-14 63q-6 26 -15 49q-6 17 -13.5 29.5t-16.5 20.5q-13 11 -28.5 13t-31.5 -1q-15 -3 -29.5 -9.5t-25.5 -14.5q-29 -21 -39 -48v-189q0 -26 5.5 -55t21.5 -52h-123q15 23 21 52t6 55v486q0 26 -6 55
t-21 52h220q56 0 101 -28q34 -22 52 -53.5t20 -66.5q3 -46 -20 -89t-69 -67q-12 -6 -24.5 -10t-24.5 -8q26 1 45 -10t32 -28q9 -12 16.5 -30.5t13.5 -41.5q9 -29 15.5 -58.5t11.5 -59.5q14 -72 28 -138t43 -135q8 -18 18.5 -40t25 -42t32.5 -34t40 -15q22 0 37 10t23 26
q9 19 5.5 41t-23.5 36q-17 11 -38.5 9.5t-41.5 -24.5q7 38 29.5 57.5t48.5 21.5q20 1 36 -5.5t26.5 -18t16 -27.5t4.5 -32q-1 -18 -9 -36.5t-24 -34t-40.5 -25.5t-57.5 -10zM154 323q7 18 19.5 30.5t27.5 21.5q15 8 31.5 14.5t31.5 11.5q17 6 33.5 13.5t32.5 20.5
q23 19 35.5 50t10.5 64q-1 31 -14 59t-36 47q-21 17 -51.5 22.5t-66.5 5.5h-54v-360z" />
    <glyph glyph-name="uniF012" unicode="&#xf012;" horiz-adv-x="604" 
d="M176 603q4 -23 17.5 -45t30.5 -40q18 -19 38 -37t42 -35l58 -46t55 -49q33 -31 61 -66t48 -74q26 -50 38.5 -103.5t7.5 -111.5q-5 -57 -28.5 -109t-70.5 -92q-34 -29 -78 -45t-95 -16t-96 15t-81 41q-54 40 -78.5 96.5t-22.5 115.5q2 47 18.5 84t42 63.5t58 42t66.5 19.5
q53 7 99.5 -15t68.5 -76q-39 28 -81.5 36.5t-81.5 0.5q-27 -6 -51 -20t-42 -35.5t-29 -51t-12 -66.5q-1 -46 15 -91t46 -78q28 -31 68.5 -48.5t91.5 -18.5q51 -2 92.5 16t70.5 50q32 37 46 81.5t16 91.5q2 50 -9.5 94.5t-32.5 85.5q-19 38 -46 71.5t-59 64.5
q-26 25 -54 47.5t-56 44.5q-27 21 -52.5 42.5t-47.5 46.5q-23 26 -38 55t-12 61q3 38 30 62t62 32q24 6 46 6q5 0 10.5 0.5t10.5 -0.5q20 0 37 -3t33.5 -6t33 -5t34.5 -1q29 0 47 13v-166q-12 37 -24.5 65t-31 47t-45 29t-67.5 11q-17 0 -34.5 -1t-34.5 -6
q-23 -8 -37.5 -26.5t-10.5 -47.5z" />
    <glyph glyph-name="uniF013" unicode="&#xf013;" horiz-adv-x="420" 
d="M654 966q34 0 62.5 -12.5t48 -34.5t28 -51.5t2.5 -62.5q-21 38 -54.5 57t-71.5 21q-32 2 -65 -5.5t-64 -22.5q-29 -14 -59.5 -34.5t-59.5 -43.5q-23 -17 -44 -34.5t-41 -32.5v-603q0 -26 6 -55t21 -52h-123q16 23 21.5 52t5.5 55v554q-26 -17 -50 -29t-45 -17
q-29 -8 -57 -6t-53 18q-29 19 -45 51.5t-8 69.5q5 24 21.5 44.5t45.5 28.5q17 5 34.5 2.5t32 -11.5t25.5 -25t15 -37q-15 14 -34.5 20t-38.5 4q-27 -3 -42.5 -19t-20.5 -38q-4 -20 1.5 -40t22.5 -33q23 -18 49.5 -16.5t52.5 13.5q29 12 53.5 30.5t41.5 32.5q31 26 63.5 53.5
t64.5 56.5q29 26 58 50.5t57 43.5q38 26 73.5 42t69.5 16z" />
    <glyph glyph-name="uniF014" unicode="&#xf014;" horiz-adv-x="533" 
d="M149 202q0 -78 37 -124t103 -46q65 0 103 46t38 124v351l3 176q0 41 9.5 85t29.5 79q21 38 49.5 55.5t59.5 17.5q20 0 34.5 -7t25.5 -19t18 -27t10 -31q-38 15 -68.5 12.5t-53.5 -17.5q-34 -23 -52 -63.5t-26 -88.5q-9 -52 -10.5 -104.5t-1.5 -91.5q0 -85 -1 -169.5
t-1 -169.5q0 -42 -10.5 -77t-32.5 -60t-56 -39t-81 -14q-95 0 -145 50.5t-50 139.5v403q0 26 -6 55t-21 52h123q-6 -9 -16.5 -34t-10.5 -73v-391z" />
    <glyph glyph-name="uniF015" unicode="&#xf015;" horiz-adv-x="508" 
d="M75 607q-12 43 -32.5 66t-43.5 27h177q-23 -5 -32.5 -30.5t-1.5 -57.5l154 -546l42 180q16 67 32 133t33 133q9 39 18.5 78t19.5 78q13 51 26 94.5t28 78.5q23 53 58.5 89t88.5 36q24 0 43.5 -10t33.5 -27t21.5 -39.5t7.5 -47.5q-26 29 -56 39t-59 3q-34 -7 -60.5 -31.5
t-46.5 -57.5t-34 -69.5t-23 -66.5q-14 -42 -23 -82t-17 -70q-17 -67 -32.5 -134t-32.5 -135q-14 -60 -28.5 -119t-30.5 -119l-60 1z" />
    <glyph glyph-name="uniF016" unicode="&#xf016;" horiz-adv-x="772" 
d="M299 0h-54l-170 607q-12 43 -32.5 66t-43.5 27h177q-23 -5 -32.5 -30.5t-1.5 -57.5l154 -546l104 269q2 6 5 12.5t5 14.5l-69 245q-12 43 -32.5 66t-43.5 27h177q-23 -5 -32.5 -30.5t-1.5 -57.5l154 -545q11 50 22.5 99t23.5 98q25 101 49 201.5t49 202.5q13 51 26 94.5
t29 78.5q23 53 58.5 89t87.5 36q24 0 43.5 -10t33.5 -27t21.5 -39.5t7.5 -47.5q-26 29 -56 39t-59 3q-34 -7 -60.5 -31.5t-46.5 -57.5t-34 -69.5t-23 -66.5q-31 -101 -54.5 -208.5t-49.5 -210.5q-15 -59 -29 -118t-31 -122h-58l-89 316z" />
    <glyph glyph-name="uniF017" unicode="&#xf017;" horiz-adv-x="507" 
d="M345 1q12 8 15.5 18.5t2.5 21.5t-5.5 22.5t-9.5 21.5l-53 109l-7 14l3.5 -7t8.5 -18t8.5 -18.5t4 -8t-6.5 13t-22 45t-43 87.5q-14 -27 -27.5 -54.5t-27.5 -54.5q-46 -90 -93.5 -176.5t-101.5 -172.5q-31 -50 -70.5 -80t-88.5 -30q-24 0 -43 11t-33 28.5t-21.5 39.5
t-7.5 45q22 -24 50.5 -35t58.5 -9q44 2 84 26q28 17 50.5 41.5t41.5 51.5q14 20 26 39t22 36q26 47 51 94t50 95l34 66l34 66l-88 178l-53 109q-16 32 -37.5 54t-41.5 30h151q-12 -8 -15.5 -19t-2.5 -22t6 -22.5t9 -20.5l54 -109l7 -15l-3.5 7.5t-9 18.5t-9 18.5t-4 8
t6.5 -13.5t22 -45.5t43 -87.5l27.5 55t27.5 54q46 91 93.5 177t101.5 172q31 50 70.5 80t88.5 30q24 0 43 -11t33 -28.5t21.5 -39.5t7.5 -45q-22 25 -50.5 35.5t-58.5 9.5q-22 -1 -43 -8t-41 -18q-28 -17 -50.5 -42t-41.5 -51q-14 -20 -26 -39.5t-22 -36.5q-26 -47 -51 -94
t-50 -95q-17 -32 -33.5 -65t-33.5 -66l87 -179l53 -108q16 -33 37.5 -54.5t42.5 -29.5h-77h-75z" />
    <glyph glyph-name="uniF018" unicode="&#xf018;" horiz-adv-x="478" 
d="M410 651q17 49 35.5 96.5t38.5 93.5q11 27 24.5 49.5t30.5 39.5t38 26.5t47 9.5q24 0 44 -10t34.5 -27t22 -39.5t7.5 -47.5q-26 30 -55.5 39.5t-58.5 3.5q-29 -7 -55 -26t-46 -48q-29 -40 -47.5 -87.5t-33.5 -85.5q-35 -92 -71 -189.5t-67 -190.5v-150q0 -48 10.5 -73
t16.5 -34h-123q15 23 21 52t6 55v150l-149 350q-17 41 -38 63t-41 29h136q-17 -11 -12 -32.5t18 -51.5l141 -328z" />
    <glyph glyph-name="uniF019" unicode="&#xf019;" horiz-adv-x="464" 
d="M103 0q36 -4 70.5 -9.5t72.5 -19.5q42 -15 81.5 -37t84.5 -48q31 -17 61.5 -33.5t59.5 -29t55.5 -19t47.5 -3.5q29 4 51 22t28 56q12 -25 9.5 -51t-17 -47t-39 -34t-57.5 -13q-25 0 -51.5 10.5t-54.5 27t-57 37.5l-58 42q-43 32 -80 56t-75 41q-44 20 -92.5 32t-111.5 20
v0l330 675h-158q-61 0 -93 -39t-43 -104l-6 168h390l-335 -675z" />
    <glyph glyph-name="uniF01A" unicode="&#xf01a;" horiz-adv-x="989" 
d="M48 351q0 72 23 136t63 111.5t93.5 75t114.5 27.5q42 0 80.5 -13.5t71.5 -37.5q34 24 72 37.5t80 13.5q61 0 115 -27.5t94 -75t63 -111.5t23 -136q0 -73 -23 -136.5t-63 -111t-94 -75t-115 -27.5q-42 0 -80 13t-72 37q-33 -24 -71.5 -37t-80.5 -13q-61 0 -114.5 27.5
t-93.5 75t-63 111t-23 136.5zM637 351q0 -77 -25 -143t-69 -114q42 -38 90.5 -54t96.5 -3q46 12 79.5 47.5t52 86.5t20.5 112.5t-16 126.5q-17 65 -49.5 117t-74 86.5t-88 48.5t-92.5 2q-29 -9 -52 -25q58 -48 92.5 -123t34.5 -165zM352 351q0 76 25 142t69 114
q-42 38 -90.5 54t-96.5 3q-46 -12 -79.5 -47.5t-52 -86t-20.5 -112t15 -126.5q18 -65 50.5 -117.5t74 -87t88 -48.5t91.5 -2q15 4 28 10.5t25 14.5q-58 48 -92.5 123t-34.5 166zM427 292q14 -56 40 -102t59 -80q38 54 48.5 133.5t-12.5 166.5q-14 55 -40 100.5t-59 80.5
q-38 -54 -48.5 -133.5t12.5 -165.5z" />
    <glyph glyph-name="uniF01B" unicode="&#xf01b;" horiz-adv-x="906" 
d="M442 611q-22 -26 -37 -61.5t-21 -76.5t-3.5 -86.5t15.5 -92.5q17 -63 47.5 -114.5t69.5 -86.5q23 26 38 61.5t22 76.5t4.5 86.5t-15.5 92.5q-17 63 -48.5 114.5t-71.5 86.5zM524 664q-15 -4 -31 -12q65 -46 104.5 -125.5t39.5 -175.5q0 -83 -29 -153.5t-79 -118.5
q38 -29 79.5 -41t83.5 -1q48 13 85 52.5t53 96.5q2 6 4 14v-84q-41 -54 -101 -84.5t-125 -30.5q-71 0 -133 37q-62 -37 -132 -37q-61 0 -115 27.5t-94 75t-63 111t-23 136.5q0 72 23 136t63 111.5t94 75t115 27.5q35 0 68.5 -10t63.5 -28q30 18 64 28t71 10q55 0 108 -22
q50 -20 94 -64q14 -15 26 -31.5t18 -33.5q8 -20 6.5 -38.5t-16.5 -35.5q-13 -15 -40 -25q-15 40 -36 74.5t-46 61.5q-45 48 -97 69.5t-103 7.5zM401 600q5 6 11 12.5t12 12.5q-38 29 -80.5 39.5t-84.5 -0.5q-46 -12 -79.5 -47.5t-52 -86t-20.5 -112t16 -126.5
q17 -65 49.5 -117.5t74 -87t88 -48.5t91.5 -2q18 5 32 12q-33 23 -59.5 55t-45.5 70.5t-29.5 83.5t-10.5 93q0 73 23.5 137t64.5 112z" />
    <glyph glyph-name="uniF01C" unicode="&#xf01c;" horiz-adv-x="950" 
d="M459 595q-37 -54 -47 -133.5t13 -167.5q15 -57 41 -103.5t59 -81.5q39 54 50 134t-13 167q-15 57 -41.5 103.5t-61.5 81.5zM553 664q-28 -8 -47 -22q60 -48 95.5 -124t35.5 -167q0 -77 -25.5 -143.5t-69.5 -114.5q41 -37 87.5 -52.5t91.5 -3.5q20 6 38.5 16.5t34.5 24.5
q1 8 1.5 15t0.5 15v105q0 26 -6 55t-21 52h123q-6 -9 -16.5 -34t-10.5 -73v-105q0 -48 10.5 -73t16.5 -34h-123q14 20 20 46q-71 -46 -152 -46q-41 0 -78 12t-69 35q-33 -23 -70 -35t-78 -12q-61 0 -114.5 27.5t-93.5 75t-63 111t-23 136.5q0 72 23 136t63 111.5t93.5 75
t114.5 27.5q41 0 78 -12t70 -35q32 23 70 35t80 12q55 0 107 -22q53 -21 94 -64q32 -32 45 -65q7 -20 6 -38.5t-17 -35.5q-13 -15 -40 -25q-31 82 -82 136q-44 48 -96.5 69.5t-103.5 7.5zM430 600q3 3 5.5 6t5.5 6q-42 35 -89 49.5t-93 2.5t-79.5 -47.5t-52 -86t-20.5 -112
t16 -126.5q17 -65 49.5 -117.5t74 -87t88 -48.5t91.5 -2q28 8 48 22q-60 47 -95.5 123.5t-35.5 168.5q0 73 23 137t64 112z" />
    <glyph glyph-name="uniF01D" unicode="&#xf01d;" horiz-adv-x="702" 
d="M190 1q15 22 20.5 51.5t5.5 55.5v576h-60q-27 0 -48 -11.5t-37 -31.5t-27 -47.5t-19 -60.5v168h651v-168q-8 33 -19 60.5t-27 47.5t-36.5 31.5t-47.5 11.5h-61v-576q0 -26 5.5 -55.5t21.5 -51.5h-123q15 22 21 51.5t6 55.5v576h-130v-576q0 -26 5.5 -55.5t20.5 -51.5
h-122z" />
    <glyph glyph-name="uniF01E" unicode="&#xf01e;" horiz-adv-x="611" 
d="M58 1q15 22 21 51.5t6 55.5v486q0 26 -6 55t-21 52h123q-16 -23 -21.5 -52t-5.5 -55v-577h55q53 0 99.5 11.5t74.5 40.5q15 15 23.5 35.5t6.5 46.5q30 -17 38 -44t-1 -53q-8 -22 -27.5 -37.5t-47.5 -15.5h-317zM244 195q15 23 21 52t6 55v292q0 26 -6 55t-21 52h123
q-16 -23 -21.5 -52t-5.5 -55v-382q52 0 98.5 11.5t75.5 39.5q32 32 31 82q29 -17 37 -44t-1 -52q-8 -23 -27.5 -38.5t-47.5 -15.5h-262z" />
    <glyph glyph-name="uniF01F" unicode="&#xf01f;" horiz-adv-x="636" 
d="M58 1q15 22 21 51.5t6 55.5v486q0 26 -6 55t-21 52h123q-16 -23 -21.5 -52t-5.5 -55v-577h55q53 0 99.5 11.5t74.5 40.5q15 15 23.5 35.5t6.5 46.5q30 -17 38 -44t-1 -53q-8 -22 -27.5 -37.5t-47.5 -15.5h-317zM331 207h23q48 0 82.5 20t57.5 52q23 33 35 77.5t12 91
t-12 91t-35 77.5q-23 32 -57.5 52t-82.5 20h-23v-481zM522 643q36 -37 54 -89t18 -106.5t-18 -106t-54 -88.5q-26 -26 -59.5 -42t-76.5 -16h-135q11 17 15.5 37.5t4.5 39.5v351q0 19 -4.5 40t-15.5 38h135q43 0 76.5 -16t59.5 -42z" />
    <glyph glyph-name="uniF020" unicode="&#xf020;" horiz-adv-x="689" 
d="M224 448q0 52 16.5 98t45.5 80.5t67.5 54.5t82.5 20t83 -20t68 -54.5t45.5 -80.5t16.5 -98t-16.5 -98.5t-45.5 -80.5t-68 -54t-83 -20t-82.5 20t-67.5 54t-45.5 80.5t-16.5 98.5zM58 1q15 22 21 51.5t6 55.5v486q0 26 -6 55t-21 52h123q-16 -23 -21.5 -52t-5.5 -55v-577
h55q53 0 99.5 11.5t74.5 40.5q15 15 23.5 35.5t6.5 46.5q30 -17 38 -44t-1 -53q-8 -22 -27.5 -37.5t-47.5 -15.5h-317zM497 222q33 9 57 34t37.5 61.5t15 81t-11.5 91.5q-12 47 -35.5 85t-53.5 63t-63.5 35t-66.5 1t-57 -34.5t-37.5 -62t-15 -81t11.5 -91.5q12 -47 35.5 -85
t53.5 -62.5t63.5 -34.5t66.5 -1z" />
    <glyph glyph-name="uniF027" unicode="&#xf027;" horiz-adv-x="700" 
d="M354 467q35 -27 56.5 -68.5t21.5 -91.5q0 -41 -15 -77.5t-40.5 -63.5t-60.5 -42.5t-74 -15.5q-52 0 -97 28l-69 -94q23 15 51.5 26.5t60.5 17.5q36 7 79 6t80 -15q45 -17 65 -49t19 -69q-2 -37 -24.5 -71t-60.5 -54q-26 -14 -55 -20t-59 -7q-40 0 -79 15q-25 10 -44.5 30
t-27.5 44q-6 19 -3.5 38.5t13.5 34.5t28 22.5t35 8.5q22 1 42 -12q-26 -9 -39 -25q-16 -24 -10 -55q3 -15 12 -30t23 -27q11 -10 24 -17t27 -10q27 -6 56.5 -1t52.5 21q27 18 35 45t2 54q-5 25 -21.5 46.5t-40.5 34.5q-29 14 -63 18.5t-66 0.5q-31 -4 -60 -12.5t-53 -24.5
l-21 30l81 107q-38 27 -60.5 70t-22.5 94q0 41 15 77t41 63t60.5 42.5t73.5 15.5q57 0 102 -31l71 105l13 20l22 33q18 25 35 41q14 11 36 19t44 9q12 0 23 -2t20 -7q28 -13 28 -44q0 -21 -14.5 -35.5t-35.5 -14.5q-15 0 -26 7q-33 21 -65 18q-37 -3 -63 -41l-7 -11z
M552 368q0 18 -2 33t-4 27q-5 18 -11 29t-10 18q21 -1 49.5 7.5t46.5 22.5v-398q0 -48 10 -73t17 -34h-123q16 23 21.5 52t5.5 55v261zM290 128q24 6 41.5 26t27 48.5t10 63.5t-9.5 72t-27.5 67t-40 50t-48 28t-49.5 2t-41.5 -26t-26.5 -48.5t-9.5 -63.5t9.5 -72t27.5 -67
t40 -50t47.5 -28t49 -2z" />
    <glyph glyph-name="uniF028" unicode="&#xf028;" horiz-adv-x="460" 
d="M396 648q0 -21 -14.5 -35.5t-35.5 -14.5q-22 0 -42 -8.5t-38 -22t-33 -31t-27 -34.5q-25 -34 -39 -67q-17 -39 -18 -88v-240q0 -48 10.5 -73t16.5 -34h-123q16 23 21.5 52t5.5 55v261q0 18 -2 33.5t-4 26.5q-5 18 -11 29.5t-10 17.5q21 -1 49.5 7.5t46.5 22.5v-67
q7 8 17 30t23 49q11 26 27 61t39 64q18 24 40.5 40t51.5 16q20 0 34.5 -15t14.5 -35zM381 107q0 -48 10 -73t17 -34h-123q16 23 21.5 52t5.5 55v261q0 18 -2 33t-4 27q-5 18 -11 29t-10 18q21 -1 49.5 7.5t46.5 22.5v-398z" />
    <glyph glyph-name="uniF029" unicode="&#xf029;" horiz-adv-x="810" 
d="M411 448q16 -18 22.5 -41t2.5 -45q-2 -17 -12 -32t-28 -26q-17 -10 -38 -11t-41 10q-30 14 -41 48q10 -5 22.5 -8.5t26.5 -3.5q18 0 29.5 7t16.5 18q8 16 4.5 34t-14.5 34q-18 25 -42 37q-27 13 -60 15q-44 2 -83 -21q-23 -13 -39 -38.5t-24 -58.5t-7.5 -72t11.5 -80
q14 -49 38 -87.5t54 -63.5q40 -33 92 -31q38 0 69 17.5t50 49.5l11 -7q-8 -14 -17.5 -26t-22.5 -22q-24 -21 -56.5 -32.5t-67.5 -11.5h-16q-42 2 -79 22.5t-64.5 54.5t-43.5 79t-16 96q0 39 9.5 74.5t26 65.5t39.5 53t50 38q20 11 41 16t41 6q-13 6 -22 18q-17 18 -18 44
q-1 22 8 44q10 21 28 35q24 19 51.5 27t56.5 9.5t58 -1.5t57 -7q7 -1 13.5 -2t11.5 -1q16 -3 32 -4h1q20 0 48.5 8.5t45.5 22.5v-228h78v-19h-78v-246q-21 -20 -31 -43q-11 -26 -9.5 -48t10.5 -38q13 -20 35.5 -27.5t45.5 2.5q16 6 27 17.5t18.5 25t13.5 28.5t11 30
q21 -18 27.5 -40.5t0.5 -44.5q-7 -27 -31.5 -47t-60.5 -20q-49 0 -81 32q-18 17 -28 42t-14 54q-2 18 -2.5 36t-0.5 35v252h-27v19h27v45q0 41 -16.5 67t-42.5 43q-23 14 -52.5 22.5t-61.5 10.5q-21 2 -41 1t-37 -6q-43 -10 -63 -42q-8 -13 -11 -29.5t1 -31.5q5 -21 21 -34
q11 -8 30 -11q14 -2 27.5 -3.5t26.5 -6.5q21 -7 40 -18.5t33 -28.5z" />
    <glyph glyph-name="uniF02A" unicode="&#xf02a;" 
d="M319 205q-21 -20 -31 -43q-11 -26 -10 -48t11 -38q11 -16 26 -23q41 11 76 35t49 64l2 -2l1 -1l2 -1l1 -2l1 -1l1 -1l1 -1l1 -2l1 -1l1 -1l1 -1l1 -1l1 -2l2 -2l1 -2l1 -1v-1l3 -4v-1l1 -2l3 -6v-1l1 -2v-2v-1l1 -1v-2l1 -1l1 -6v0v-1v-1v-2v-1v-2v-9v-3v-2v-4l-1 -1
l-1 -5v-2q-5 -17 -17 -35t-44 -27v0h-1q-15 -5 -28 -5q-20 -1 -43 -0.5t-49 0.5q-39 0 -74.5 1t-64.5 18q-15 8 -29.5 21t-24.5 33q-11 27 -14 55q-2 18 -2.5 36t-0.5 35v252h-27v19h27v90q0 18 -2 33.5t-5 26.5q-4 19 -10 30t-10 17q20 0 49 8.5t47 22.5v-228h105l-1 90
q0 38 -6 60q-4 19 -10 30t-10 17q21 0 49.5 8.5t46.5 22.5v-228h78v-19h-78v-246zM145 451v-246q-21 -20 -31 -43q-11 -26 -10 -48t11 -38q8 -14 36.5 -23t65.5 -11q16 0 32.5 0.5t33.5 3.5q-13 17 -20 38t-10 44q-2 18 -2.5 36t-0.5 35v252h-105z" />
    <glyph glyph-name="uniF02B" unicode="&#xf02b;" horiz-adv-x="557" 
d="M509 253q0 -52 -16.5 -98.5t-45.5 -80.5t-67.5 -54t-82.5 -20q-34 0 -64 12t-56 32t-47 14q-18 -4 -32 -21t-25 -37v562q0 38 -6 60q-4 21 -12 33q-39 -11 -81 -22.5t-84 -22.5q-28 -7 -60.5 -13t-65.5 -7q-23 0 -45 3.5t-41 13.5q-23 11 -38 30t-20 41q-8 34 8 62t51 35
q-13 -43 4 -75q12 -23 38 -38.5t58 -20.5q29 -5 57.5 -4t52.5 3q31 1 62 8q17 3 44.5 8t56.5 12t54 15t37 17v-272q29 37 68.5 58t85.5 21q44 0 82.5 -20t67.5 -54.5t45.5 -80.5t16.5 -99zM143 286q1 -17 3.5 -34.5t7.5 -36.5q12 -46 34 -83t49.5 -62t58 -35.5t60.5 -2.5
q29 8 50.5 32.5t32.5 60t11.5 78.5t-11.5 89t-34 83t-49.5 62t-58 35.5t-60.5 2.5q-42 -11 -66.5 -53.5t-27.5 -101.5v-34z" />
    <glyph glyph-name="uniF02C" unicode="&#xf02c;" horiz-adv-x="567" 
d="M414 79q-29 -37 -68.5 -58t-85.5 -21q-44 0 -82.5 20t-67.5 54t-45.5 80.5t-16.5 98.5q0 53 16.5 99t45.5 80.5t67.5 54.5t82.5 20q46 0 85.5 -21.5t68.5 -58.5v135q0 18 -2 33.5t-4 26.5t-5.5 18.5t-6.5 13.5q-39 -10 -80 -21.5t-83 -22.5q-28 -7 -60.5 -13t-65.5 -7
q-23 0 -45 3.5t-41 13.5q-23 11 -38 30t-20 41q-8 34 8 62t51 35q-13 -43 4 -75q13 -23 38.5 -38.5t57.5 -20.5q29 -5 57.5 -4t52.5 3q15 1 29.5 3t28.5 4q16 3 44 8.5t57 12t54.5 15t37.5 17.5v-550q0 -23 0.5 -44t5 -40t13.5 -35.5t25 -30.5v0q-21 5 -38 11t-30.5 9
t-24 -0.5t-20.5 -19.5v79zM118 215q12 -46 34 -83t49 -62t57.5 -35.5t60.5 -2.5t51 32.5t32.5 60t11.5 78.5t-12 89t-34 83t-49.5 62t-58 35.5t-59.5 2.5q-30 -8 -51 -32.5t-32.5 -59.5t-11.5 -78.5t12 -89.5z" />
    <glyph glyph-name="uniF02D" unicode="&#xf02d;" horiz-adv-x="501" 
d="M428 338v-231q0 -48 10 -72.5t16 -34.5h-122q15 23 21 52t6 55q0 62 -0.5 116t-0.5 116q0 28 -6.5 54.5t-19.5 47t-33 32.5t-47 10q-41 -3 -71 -39q-17 -21 -25.5 -49t-8.5 -56v-232q0 -48 10 -72.5t17 -34.5h-123q15 23 21 52t6 55v455q0 18 -2 33.5t-5 26.5
q-4 21 -12 33q-39 -10 -81 -22t-84 -23q-28 -7 -60.5 -13t-65.5 -7q-23 0 -45 3.5t-41 13.5q-23 11 -38 30t-20 41q-8 34 8 62t51 36q-13 -44 4 -76q12 -23 38 -38.5t58 -20.5q29 -5 57.5 -4t52.5 3q30 1 61 8q15 3 44 8t59 11.5t55.5 15t34.5 17.5v-276q15 35 49 59t79 24
q29 0 56.5 -10.5t49 -31.5t34.5 -52.5t13 -74.5z" />
    <glyph glyph-name="uniF02E" unicode="&#xf02e;" horiz-adv-x="438" 
d="M147 107q0 -48 10 -73t17 -34h-123q15 23 20.5 52t5.5 55v455q0 38 -6 60q-4 21 -12 33q-39 -10 -81 -22t-84 -23q-28 -7 -60.5 -13t-65.5 -7q-23 0 -45 3.5t-41 13.5q-23 11 -38 30t-20 41q-8 34 8 62t51 35q-13 -43 4 -75q12 -23 38 -38.5t58 -20.5q29 -5 57.5 -4
t52.5 3q23 2 64.5 8.5t83.5 15.5q35 8 64.5 17.5t41.5 18.5v-420l99 73q23 20 31 37q17 34 -1 58q-13 18 -39 18q-13 1 -25.5 -3t-22.5 -12q7 23 28.5 39.5t48.5 16.5q33 0 54.5 -19t23.5 -45q2 -20 -6.5 -39.5t-25.5 -35.5q-12 -11 -25.5 -20t-26.5 -17q-2 -2 -10.5 -7.5
t-19.5 -13.5l100 -203q12 -24 22 -41t20.5 -29t21.5 -20.5t25 -16.5h-155q20 21 14.5 50.5t-19.5 56.5l-80 167l-32 -21v-146z" />
    <glyph glyph-name="uniF02F" unicode="&#xf02f;" horiz-adv-x="219" 
d="M147 49q0 -37 -5.5 -63.5t-17 -49t-28 -42.5t-39.5 -43q-47 -47 -106 -76q-75 -37 -169 -41q-12 -1 -24 -0.5t-24 0.5q-23 1 -45.5 3.5t-45.5 9.5q-25 8 -47 23q-18 11 -33 26.5t-24 33.5q-8 15 -10.5 36t3.5 39q3 11 9.5 20t16.5 14q4 -13 12.5 -32t21.5 -38
q30 -42 80 -60t107 -20q46 -2 85.5 3t74.5 17q56 20 100 61q7 6 18 18t22.5 26.5t20.5 29.5t11 27.5t-5 20.5t-28 8v369q0 18 -2 33.5t-5 26.5q-4 19 -10 30t-10 17q21 0 49.5 8.5t46.5 22.5v-458zM163 650q0 -21 -15 -35.5t-36 -14.5q-20 0 -35 14.5t-15 35.5t15 35.5
t35 14.5q21 0 36 -14.5t15 -35.5z" />
    <glyph glyph-name="uniF030" unicode="&#xf030;" horiz-adv-x="224" 
d="M146 700v-593q0 -48 10.5 -73t16.5 -34h-123q16 23 21.5 52t5.5 55v455q0 18 -2 33.5t-4 26.5t-5.5 18.5t-6.5 13.5q-39 -10 -80 -21.5t-83 -22.5q-28 -7 -60.5 -13t-64.5 -7q-24 0 -46 3.5t-41 13.5q-23 11 -38 30t-20 41q-8 34 8 62t51 36q-13 -43 4 -76
q13 -23 38.5 -38.5t57.5 -20.5q29 -5 57.5 -4t53.5 3q20 2 39 4.5t37 6.5q13 3 38.5 8t52.5 11.5t50.5 14.5t32.5 15z" />
    <glyph glyph-name="uniF031" unicode="&#xf031;" horiz-adv-x="565" 
d="M151 428q29 37 69 58t85 21q44 0 82.5 -20t67.5 -54.5t45.5 -80.5t16.5 -98t-16.5 -98.5t-45.5 -81t-67.5 -54.5t-82.5 -20q-45 0 -85 21.5t-69 58.5v-136q0 -17 2 -32.5t4 -26.5q6 -21 12 -33q40 10 81.5 22t83.5 23q29 7 61.5 13t64.5 7q23 0 45 -3.5t42 -13.5
q17 -9 30.5 -23.5t21.5 -31.5q9 -20 9 -41t-14 -40q-18 -24 -48 -30q8 24 5 44t-13 36q-14 21 -38.5 34t-53.5 18t-58 4t-53 -3q-39 -3 -76 -11q-17 -3 -42.5 -8t-51.5 -11t-48.5 -13.5t-34.5 -16.5v550q0 23 -0.5 44t-5 40t-13 36t-25.5 30h1q21 -4 37.5 -10.5t30 -9.5
t24 0.5t20.5 19.5v-79zM447 291q-12 46 -34 83t-49 62t-57.5 35.5t-60.5 2.5t-51 -32t-32.5 -59.5t-11.5 -78.5t12 -89t34 -83t49.5 -62t58 -35.5t59.5 -2.5q30 8 51 32t32.5 59.5t11.5 78.5t-12 89z" />
    <glyph glyph-name="uniF032" unicode="&#xf032;" horiz-adv-x="554" 
d="M47 254q0 52 16.5 98t45.5 80.5t67.5 54.5t82.5 20q33 0 63.5 -12t56.5 -32q25 -20 47 -14q17 4 31 21t25 37v-563q0 -17 2 -32.5t4 -26.5t5.5 -18.5t6.5 -13.5q39 10 80 21.5t83 22.5q28 7 60.5 13t65.5 7q23 0 45 -3.5t41 -13.5q36 -19 52 -55q9 -20 9 -41t-14 -40
q-16 -24 -48 -30q14 46 -8 80q-14 21 -38.5 34t-53.5 18t-57.5 4t-52.5 -3q-22 -2 -42 -5t-39 -7q-12 -2 -37.5 -8t-53 -13.5t-50.5 -14.5t-29 -12v272q-29 -37 -69 -58t-85 -21q-44 0 -82.5 20t-67.5 54.5t-45.5 81t-16.5 98.5zM413 221q-3 34 -12 70q-12 46 -34 83
t-49.5 62t-58 35.5t-59.5 2.5q-30 -8 -51 -32t-32.5 -59.5t-11.5 -78.5t12 -89t34 -83t49 -62t57.5 -35.5t60.5 -2.5q42 11 66.5 53.5t28.5 101.5v34z" />
    <glyph glyph-name="uniF033" unicode="&#xf033;" horiz-adv-x="328" 
d="M266 152q21 -18 27.5 -40.5t0.5 -44.5q-7 -27 -31.5 -47t-61.5 -20q-26 0 -45.5 8.5t-34.5 23.5q-18 18 -28.5 43t-14.5 54q-2 17 -2.5 35t-0.5 35v253h-26v20h26v91q0 37 -6 59q-2 11 -5.5 19t-6.5 14q-39 -10 -81 -22t-84 -23q-28 -7 -60.5 -13t-65.5 -7q-23 0 -45 3.5
t-42 13.5q-22 11 -37 30t-20 41q-8 34 8 62t51 36q-13 -43 4 -76q12 -23 38 -38.5t58 -20.5q28 -5 57 -4t53 3q15 1 39.5 4.5t52.5 8.5q25 5 50 10.5t47.5 11.5t39.5 12.5t25 12.5v-228h78v-19h-78v-247q-20 -19 -31 -43q-11 -27 -10 -49t11 -37q13 -20 35.5 -28t45.5 2
q16 6 27 17.5t18.5 25t13.5 29t11 29.5z" />
    <glyph glyph-name="uniF034" unicode="&#xf034;" horiz-adv-x="439" 
d="M-378 -95q3 11 9.5 20t16.5 14q4 -13 12.5 -32t21.5 -38q30 -42 80 -60t107 -20q94 -3 159 20q59 20 103.5 62.5t81.5 112.5l7 16h-26l-114 413q-9 34 -28.5 61.5t-39.5 32.5h146q-16 -11 -15.5 -33.5t10.5 -60.5l93 -347q6 14 16 39t21.5 53.5t22.5 56t19 46.5
q11 26 19.5 65t3.5 74q-4 29 -20 45.5t-39 20.5q-14 2 -29 -0.5t-29 -10.5q11 31 36 47t52 17q25 2 46.5 -12t30.5 -43q6 -22 4.5 -45.5t-7.5 -47.5q-8 -30 -21 -59t-24 -55l-103 -257l-8 -18q-72 -146 -196 -207q-75 -37 -169 -41q-12 -1 -24 -0.5t-24 0.5q-23 1 -45.5 3.5
t-45.5 9.5q-25 8 -46 23q-19 11 -34 26.5t-24 33.5q-8 15 -10.5 36t3.5 39z" />
    <glyph glyph-name="uniF035" unicode="&#xf035;" horiz-adv-x="495" 
d="M428 338v-384q0 -13 0.5 -34.5t4.5 -42.5t13.5 -36.5t27.5 -15.5q23 0 32.5 20t4.5 43q-5 17 -16.5 31t-34.5 20q25 15 45.5 16t35.5 -6.5t24 -21.5t10 -31q2 -15 -3.5 -31t-19 -29t-35 -21t-52.5 -8q-44 0 -66 20t-31 49.5t-9 63v60.5q0 85 -0.5 169.5t-0.5 169.5
q0 28 -6.5 54.5t-19.5 47t-33 32.5t-47 10q-41 -3 -71 -39q-17 -21 -25.5 -49t-8.5 -56v-232q0 -48 10.5 -72.5t16.5 -34.5h-123q15 23 21 52t6 55v455q0 18 -2 33.5t-5 26.5q-4 19 -10 30t-10 17q25 0 53 7.5t43 23.5v-276q15 35 49 59t79 24q30 0 57.5 -10.5t48.5 -31.5
t34 -52.5t13 -74.5z" />
    <glyph glyph-name="uniF036" unicode="&#xf036;" horiz-adv-x="777" 
d="M276 507q48 0 87.5 -26t56.5 -80q2 6 5 13.5t6 13.5q16 34 49 56.5t77 22.5q30 0 57.5 -10.5t48.5 -31.5t34 -52.5t13 -74.5v-384q0 -13 0.5 -34.5t4.5 -42.5t13.5 -36.5t27.5 -15.5q23 0 32.5 20t3.5 43q-4 17 -15.5 31t-34.5 20q24 15 44.5 16t35.5 -6.5t24 -21.5
t11 -31q1 -15 -4.5 -31t-18.5 -29t-34.5 -21t-52.5 -8q-44 0 -66.5 20t-31.5 49.5t-9 63v60.5v339q0 28 -6.5 54.5t-19.5 47t-33.5 32.5t-47.5 10q-40 -3 -70 -39q-17 -20 -25 -46t-9 -52v-239q0 -48 10 -73t17 -34h-123q15 23 21 52t6 55v75t-1 71v86q0 28 -6.5 54.5
t-19.5 47t-33 32.5t-47 10q-41 -3 -71 -39q-17 -21 -25.5 -49t-8.5 -56v-232q0 -48 10.5 -73t16.5 -34h-123q15 23 21 52t6 55v262q0 18 -2 33.5t-5 26.5q-4 19 -10 30t-10 17q25 0 53 7.5t43 23.5v-83q15 35 49 59t79 24z" />
    <glyph glyph-name="uniF037" unicode="&#xf037;" horiz-adv-x="496" 
d="M429 338v-384q0 -13 0.5 -34.5t4.5 -42.5t13.5 -36.5t28.5 -15.5q23 0 32 20t4 43q-5 17 -16.5 31t-34.5 20q25 15 45.5 16t35.5 -6.5t24 -21.5t10 -31q2 -15 -3.5 -31t-19 -29t-35 -21t-52.5 -8q-44 0 -66 20t-31 49.5t-9 63v60.5q0 85 -0.5 169.5t-0.5 169.5
q0 28 -6.5 54.5t-19.5 47t-33 32.5t-47 10q-41 -3 -71 -39q-17 -21 -25.5 -49t-8.5 -56v-232q0 -48 10.5 -72.5t16.5 -34.5h-123q15 23 21 52t6 55v262q0 18 -2 33.5t-5 26.5q-4 19 -10 30t-10 17q25 0 53 7.5t43 23.5v-83q15 35 49 59t79 24q30 0 57.5 -10.5t48.5 -31.5
t34 -52.5t13 -74.5z" />
    <glyph glyph-name="uniF038" unicode="&#xf038;" horiz-adv-x="358" 
d="M266 152q20 -18 26.5 -40.5t1.5 -44.5q-8 -27 -32 -47t-61 -20q-49 0 -81 32q-18 18 -28 43t-14 54q-2 17 -2.5 35t-0.5 35v254q-7 -1 -13.5 -1h-13.5v20h27v91q0 17 -2 32.5t-5 26.5q-4 19 -10 30t-10 17q21 0 49.5 8.5t46.5 22.5v-222q12 2 23 4t22 5q46 12 89 34.5
t94 52.5q35 20 72 43t76 42q37 18 75 29.5t78 11.5q33 0 54 -16.5t26 -39.5q6 -27 -14 -52t-74 -28q19 29 9 49q-7 12 -23.5 18t-37.5 4q-23 -2 -44.5 -9.5t-35.5 -12.5q-38 -14 -74 -33t-74 -38q-46 -23 -92.5 -44t-98.5 -32q-12 -3 -24 -4.5t-26 -3.5v-252
q-20 -19 -31 -43q-11 -27 -10 -49t11 -37q13 -20 35.5 -28t45.5 2q16 6 27 17.5t19 25t14 29t11 29.5z" />
    <glyph glyph-name="uniF039" unicode="&#xf039;" horiz-adv-x="498" 
d="M800 -95q5 -18 3 -38.5t-10 -36.5q-10 -18 -25 -33.5t-33 -26.5q-21 -14 -47 -22q-22 -8 -44.5 -10t-45.5 -3q-24 -2 -48 0q-48 2 -90 12t-80 28q-63 31 -112 86t-85 127h14q26 -51 61 -88.5t75 -61.5q2 2 5 3t5 3q27 18 35 45t2 54q-5 25 -21.5 46.5t-41.5 34.5
q-28 14 -62 18.5t-66 0.5q-32 -3 -61 -12t-53 -24l-21 29l81 108q-38 27 -60.5 70t-22.5 94q0 41 15 77.5t41 63.5t60.5 42.5t74.5 15.5q56 0 102 -31q8 11 17.5 26.5t13.5 21.5q10 14 22 25t31 8q16 -3 24.5 -18.5t2.5 -31.5q-9 8 -21 11t-23.5 1t-22 -8.5t-17.5 -16.5
l-17 -25q35 -27 57 -69t22 -92q0 -41 -15 -77.5t-41 -63.5t-61 -42.5t-74 -15.5q-53 0 -98 28l-69 -95q23 16 51.5 27t60.5 17q37 8 80 7t80 -15q45 -17 65 -49.5t18 -69.5t-24 -71.5t-60 -54.5q-1 0 -2 -0.5t-2 -0.5q13 -7 25 -12.5t25 -10.5q35 -12 74.5 -17t85.5 -3
q56 2 106.5 20.5t79.5 60.5q14 19 22.5 38t11.5 31q19 -9 27 -34zM125 277q10 -37 28 -67.5t40.5 -50.5t48 -28.5t49.5 -1.5q24 6 41.5 26t27 48.5t10 63.5t-9.5 72t-28 67.5t-40.5 50.5t-48 28.5t-49.5 1.5q-24 -6 -41.5 -26t-27 -48.5t-10 -63.5t9.5 -72z" />
    <glyph glyph-name="s_t" unicode="&#xfb06;" horiz-adv-x="773" 
d="M589 205q-19 -18 -31 -43q-11 -26 -9.5 -48t11.5 -38q12 -20 34.5 -27.5t45.5 2.5q16 6 27 17.5t19 25t13.5 28.5t11.5 30q20 -18 26.5 -40.5t0.5 -44.5q-7 -27 -31 -47t-61 -20q-49 0 -81 32q-17 17 -27.5 42t-14.5 54q-2 18 -2.5 35.5t-0.5 34.5v253h-26v19h26v45
q0 41 -16.5 67t-42.5 43q-23 14 -52.5 22.5t-61.5 10.5q-20 2 -40.5 1t-37.5 -6q-41 -9 -63 -42q-8 -13 -11 -29.5t1 -31.5q5 -21 22 -34q13 -9 35 -12h1l1 -1h1v0q23 -3 39.5 -6t33.5 -3q22 0 35 10v-153q-9 25 -21 50t-29 45.5t-40.5 34t-55.5 14.5q-13 1 -27 -1.5
t-26 -8.5t-20.5 -16t-10.5 -25q-2 -27 20 -52q14 -15 32.5 -29.5t39.5 -29.5q29 -19 57.5 -38.5t50.5 -39.5q26 -24 43 -52t18 -62q1 -29 -12 -56.5t-42 -48.5q-52 -37 -124 -37q-29 0 -52 5.5t-43 15.5q-22 11 -39 28.5t-26 37.5q-11 25 -8 52t17 47q13 17 32.5 26t44.5 4
q19 -4 34.5 -16.5t21.5 -35.5q-25 14 -51 6q-17 -5 -29 -18t-14 -33q-3 -21 6 -43t29 -37q16 -12 36 -19t41 -7q37 2 66 17q24 13 37.5 38t11.5 52t-17.5 50.5t-35.5 41.5q-21 19 -44 34.5t-46 30.5q-22 15 -42.5 30t-39.5 33q-18 17 -29 37.5t-11 43.5q1 21 13 41t32 30
q23 11 51 13.5t53 1.5q-12 6 -20 17q-15 16 -18 44q0 11 2 22t7 22q7 19 28 35q24 19 51.5 27t56 9.5t57.5 -1.5t57 -7q8 -1 14 -2t11 -1q16 -3 33 -4v0q21 0 49 8.5t45 22.5v-228h78v-19h-78v-246z" />
    </font>
</defs>
</svg>
