<?xml version="1.0" standalone="no"?>
<!DOCTYPE svg PUBLIC "-//W3C//DTD SVG 1.1//EN" "http://www.w3.org/Graphics/SVG/1.1/DTD/svg11.dtd" >
<svg xmlns="http://www.w3.org/2000/svg" xmlns:xlink="http://www.w3.org/1999/xlink" version="1.1">
<metadata>
Created by FontForge 20170731 at Fri Jul  2 09:29:12 2021
 By Aleksey,,,
Westiva fonts (c) asenbayu 2021. All Rights Reserved
</metadata>
<defs>
<font id="WestivaBold" horiz-adv-x="477" >
  <font-face 
    font-family="Westiva Bold"
    font-weight="700"
    font-stretch="normal"
    units-per-em="1000"
    panose-1="0 0 0 0 0 0 0 0 0 0"
    ascent="800"
    descent="-200"
    x-height="507"
    cap-height="700"
    bbox="-500.765 -266.545 1123.5 966"
    underline-thickness="50"
    underline-position="-175"
    unicode-range="U+000A-FB06"
  />
<missing-glyph horiz-adv-x="527" 
d="M477 700v-700h-427v700h427zM263 371l186 309h-371zM71 650v-601l180 301zM79 21h370l-185 308zM457 47v605l-181 -302z" />
    <glyph glyph-name="uniF021" unicode="fb" horiz-adv-x="841" 
d="M212 107q0 -48 10 -73t17 -34h-199q15 23 21 52t6 55v338h-27v26h27v29q0 17 0.5 35t2.5 35q7 57 43 91q43 38 112 38q26 0 49.5 -8.5t41.5 -22.5q15 0 35 1t42.5 4t46 9t44.5 17v-216q44 23 95 23q47 0 89 -20t73 -54t49 -80t18 -99q0 -52 -18 -98.5t-49 -80.5t-73 -54
t-89 -20q-59 0 -109 31q-8 5 -15.5 8t-15.5 5q-32 7 -55.5 -7t-43.5 -37v471q0 33 -28.5 61.5t-65.5 47.5q-16 8 -43 18.5t-53 11.5q-16 1 -29 -4t-19 -15q-12 -17 1 -40q7 -12 20.5 -23t30.5 -21q29 -16 61 -26t52 -10h23v-26h-78v-338zM654 273q-12 46 -29 84.5t-35 65.5
t-36.5 41t-33.5 10q-18 -5 -27 -31t-9 -67v-4q0 -61 20 -139q12 -46 29 -84.5t35 -66t36.5 -41t33.5 -9.5q15 5 24 26t11.5 53.5t-2.5 74t-17 87.5z" />
    <glyph glyph-name="uniF022" unicode="fh" horiz-adv-x="783" 
d="M211 107q0 -48 10.5 -73t16.5 -34h-199q16 23 21.5 52t5.5 55v338h-27v26h27v29q0 17 0.5 35t2.5 35q7 57 43 91q43 38 112 38q26 0 49.5 -8.5t41.5 -22.5q15 0 35 1t42.5 4t46 9t44.5 17v-234q15 21 42 30.5t56 9.5q30 0 54 -9q39 -15 63.5 -55t24.5 -104l-1 -230
q0 -48 10.5 -73t16.5 -34h-197q16 23 21.5 52t5.5 55q0 61 -0.5 115.5t-0.5 116.5v39t-2 39q-4 26 -17 39t-29 14q-17 0 -30.5 -14.5t-15.5 -43.5q-1 -16 -1 -34.5v-38.5v-232q0 -48 10 -73t17 -34h-198q16 23 21.5 52t5.5 55v364q0 33 -28.5 61.5t-65.5 47.5
q-16 8 -43 18.5t-53 11.5q-16 1 -29 -4.5t-20 -15.5q-10 -16 2 -39q7 -12 20.5 -23t30.5 -21q29 -16 61 -26t52 -10h23v-26h-78v-338z" />
    <glyph glyph-name="uniF023" unicode="fj" horiz-adv-x="542" 
d="M339 368q0 18 -2 33.5t-4 26.5q-5 19 -11 30t-10 18q15 0 35 0.5t43 3.5t47 9t46 17v-535q0 -46 -12 -77t-32 -50t-45.5 -27.5t-52.5 -9.5q-20 -1 -43 4t-43 16t-33 29t-18 38q-6 40 17 65q18 20 46 20q21 0 41 -14t28 -40q-12 -3 -18 -15t-7 -27q-2 -20 6 -38.5
t25 -20.5q14 -2 25.5 11.5t12.5 43.5q2 29 -7 59t-34 47v383zM211 107q0 -48 10 -73t17 -34h-199q16 23 21.5 52t5.5 55v338h-27v26h27v29q0 17 0.5 35t2.5 35q5 38 21 61.5t40 37.5q32 19 72.5 24.5t78.5 5.5q17 0 40.5 -1t48 -5t48.5 -11.5t42 -19.5q17 -12 27 -28.5
t10 -39.5q0 -36 -25 -61t-61 -25q-11 0 -21 2t-20 5q-14 5 -27.5 13.5t-26.5 19.5q-19 14 -38.5 29.5t-43.5 26.5q-18 8 -43 14.5t-48 2.5q-29 -5 -42 -28q-5 -9 -5 -20t6 -22q7 -12 20.5 -23t30.5 -21q29 -16 61 -26t52 -10h23v-26h-78v-338z" />
    <glyph glyph-name="uniF024" unicode="fk" horiz-adv-x="785" 
d="M211 107q0 -48 10 -73t17 -34h-199q15 23 21 52t6 55v338h-27v26h27v29q0 17 0.5 35t2.5 35q7 57 43 91q43 38 112 38q26 0 49.5 -8.5t41.5 -22.5q15 0 35 1t42.5 4t46 9t44.5 17v-435l45 32q12 8 25 20.5t22 26.5q16 23 13.5 46.5t-16.5 36.5q-8 8 -20 10.5t-26 -2.5
q7 32 32.5 52t62.5 20q38 0 60.5 -19t24.5 -45q2 -20 -6 -39.5t-26 -35.5q-12 -11 -25 -20t-26 -17l-30 -20l99 -203q12 -24 22.5 -41t20.5 -29t21 -20.5t25 -16.5h-227q20 21 14 50.5t-19 56.5l-66 138v-138q0 -48 10 -73t17 -34h-198q16 23 21.5 52t5.5 55v364
q0 33 -28.5 61.5t-65.5 47.5q-16 8 -43 18.5t-53 11.5q-17 1 -30 -4.5t-19 -16.5q-10 -15 2 -38q7 -12 20.5 -23t30.5 -21q29 -16 61 -26t52 -10h23v-26h-78v-338z" />
    <glyph glyph-name="uniF025" unicode="ft" horiz-adv-x="629" 
d="M211 107q0 -48 10 -73t17 -34h-199q15 23 21 52t6 55v338h-27v26h27v29q0 17 0.5 35t2.5 35q7 57 43 91q43 38 112 38q26 0 49.5 -8.5t41.5 -22.5q15 0 35.5 1t43 4t46 9t44.5 17v-228h78v-26h-78v-226q-15 -5 -29 -12.5t-30 -15.5q-37 -21 -48 -43.5t-2 -36.5
t34.5 -15.5t62.5 18.5q29 15 54 37t32 38q38 -28 43.5 -64.5t-13.5 -67.5q-15 -25 -42 -41t-62 -16q-54 0 -88 25q-45 33 -54 103q-2 17 -2.5 33t-0.5 32v252h-27v26h27v0q0 33 -28.5 61.5t-65.5 47.5q-16 8 -43 18.5t-53 11.5q-16 1 -29.5 -4.5t-19.5 -15.5q-10 -16 2 -39
q7 -12 20.5 -23t30.5 -21q29 -16 61 -26t52 -10h23v-26h-78v-338z" />
    <glyph glyph-name="uniF026" unicode="ffj" horiz-adv-x="815" 
d="M612 368q0 18 -2 33.5t-4 26.5q-5 19 -11 30t-10 18q15 0 35 0.5t43 3.5t47 9t46 17v-535q0 -46 -12 -77t-32 -50t-45 -27.5t-52 -9.5q-21 -1 -44 4t-43 16t-33 29t-17 38q-8 40 16 65q18 20 46 20q21 0 41 -14t28 -40q-12 -3 -18 -15t-7 -27q-2 -20 6 -38.5t25 -20.5
q14 -2 25.5 11.5t12.5 43.5q2 29 -7 59t-34 47v383zM211 107q0 -48 10.5 -73t16.5 -34h-199q16 23 21.5 52t5.5 55v338h-27v26h27v29q0 17 0.5 35t2.5 35q7 57 43 91q43 38 112 38q28 0 52 -9t43 -25q24 -19 36 -47q8 17 20.5 29.5t27.5 21.5q32 19 72.5 24.5t78.5 5.5
q17 0 40.5 -1t48 -5t48.5 -11.5t42 -19.5q17 -12 27 -28.5t10 -39.5q0 -36 -25 -61t-61 -25q-11 0 -21 2t-20 5q-14 5 -27 13.5t-27 19.5q-19 14 -38.5 29.5t-43.5 26.5q-17 8 -42.5 14.5t-48.5 2.5q-29 -5 -41 -28q-12 -20 0 -42q7 -12 20.5 -23t30.5 -21q29 -16 61 -26
t52 -10h23v-26h-78v-338q0 -48 10.5 -72.5t16.5 -34.5h-199q16 23 21.5 52t5.5 55v338h-27v26h27q0 33 -28 61.5t-66 47.5q-16 8 -43 18.5t-53 11.5q-15 1 -27.5 -3.5t-20.5 -16.5q-11 -15 1 -39q7 -12 20.5 -23t30.5 -21q29 -16 61 -26t52 -10h23v-26h-78v-338z" />
    <glyph glyph-name="f_f" unicode="ff" horiz-adv-x="583" 
d="M211 107q0 -48 10 -73t17 -34h-199q15 23 21 52t6 55v338h-27v26h27v29q0 17 0.5 35t2.5 35q7 57 43 91q43 38 112 38q28 0 52 -9t43 -25q23 -18 35 -46q15 36 41 54q35 26 88 26q36 0 63 -16.5t42 -41.5q19 -31 13.5 -67.5t-43.5 -63.5q-8 16 -32.5 37.5t-53.5 37.5
q-37 20 -62.5 18.5t-34.5 -15.5q-13 -22 4 -43t47 -38q29 -16 61 -26t52 -10h23v-26h-78v-338q0 -48 10 -72.5t17 -34.5h-199q16 23 21.5 52t5.5 55v338h-27v26h27q0 33 -28.5 61.5t-65.5 47.5q-16 8 -43 18.5t-53 11.5q-16 1 -29 -4t-19 -15q-12 -17 1 -40q7 -12 20.5 -23
t30.5 -21q29 -16 61 -26t52 -10h23v-26h-78v-338z" />
    <glyph glyph-name="fi" unicode="fi" horiz-adv-x="546" 
d="M211 107q0 -48 10.5 -73t16.5 -34h-199q16 23 21.5 52t5.5 55v338h-27v26h27v29q0 17 0.5 35t2.5 35q5 38 21 61.5t40 37.5q32 19 72.5 24.5t78.5 5.5q17 0 40.5 -1t48 -5t48.5 -11.5t42 -19.5q17 -12 27 -28.5t10 -39.5q0 -36 -25 -61t-61 -25q-11 0 -21 2t-20 5
q-14 5 -27.5 13.5t-26.5 19.5q-19 14 -38.5 29.5t-43.5 26.5q-18 8 -43 14.5t-48 2.5q-29 -5 -42 -28q-5 -9 -5 -20t6 -22q7 -12 20.5 -23t30.5 -21q29 -16 61 -26t52 -10h23v-26h-78v-338zM339 368q0 18 -2 33.5t-4 26.5q-5 19 -11 30t-10 18q15 0 35 0.5t43 3.5t47 9
t46 17v-399q0 -48 10 -73t17 -34h-198q16 23 21.5 52t5.5 55v261z" />
    <glyph glyph-name="fl" unicode="fl" horiz-adv-x="547" 
d="M211 107q0 -48 10.5 -73t16.5 -34h-199q16 23 21.5 52t5.5 55v338h-27v26h27v29q0 17 0.5 35t2.5 35q7 57 43 91q43 38 112 38q26 0 49.5 -8.5t41.5 -22.5q15 0 35 1t42.5 4t46 9t44.5 17v-592q0 -48 10 -72.5t17 -34.5h-198q16 23 21.5 52t5.5 55v364q0 33 -28.5 61.5
t-65.5 47.5q-16 8 -43 18.5t-53 11.5q-16 1 -29 -4t-19 -16q-5 -7 -5.5 -17t6.5 -22t20.5 -23t30.5 -21q29 -16 61 -26t52 -10h23v-26h-78v-338z" />
    <glyph glyph-name="f_f_i" unicode="ffi" horiz-adv-x="820" 
d="M211 107q0 -48 10.5 -73t16.5 -34h-199q16 23 21.5 52t5.5 55v338h-27v26h27v29q0 17 0.5 35t2.5 35q7 57 43 91q43 38 112 38q28 0 52 -9t43 -25q24 -19 36 -47q8 17 20.5 29.5t27.5 21.5q32 19 72.5 24.5t78.5 5.5q17 0 40.5 -1t48 -5t48.5 -11.5t42 -19.5
q17 -12 27 -28.5t10 -39.5q0 -36 -25 -61t-61 -25q-11 0 -21 2t-20 5q-14 5 -27 13.5t-27 19.5q-19 14 -38.5 29.5t-43.5 26.5q-18 8 -43 14.5t-48 2.5q-29 -5 -41 -28q-12 -20 0 -42q7 -12 20.5 -23t30.5 -21q29 -16 61 -26t52 -10h23v-26h-78v-338q0 -48 10.5 -72.5
t16.5 -34.5h-199q16 23 21.5 52t5.5 55v338h-27v26h27q0 33 -28.5 61.5t-65.5 47.5q-16 8 -43 18.5t-53 11.5q-15 1 -27.5 -3.5t-20.5 -16.5q-12 -17 1 -39q7 -12 20.5 -23t30.5 -21q29 -16 61 -26t52 -10h23v-26h-78v-338zM612 368q0 18 -2 33.5t-4 26.5q-5 19 -11 30
t-10 18q15 0 35 0.5t43 3.5t47 9t46 17v-399q0 -48 10 -73t17 -34h-198q16 23 21.5 52t5.5 55v261z" />
    <glyph glyph-name="f_f_l" unicode="ffl" horiz-adv-x="820" 
d="M756 107q0 -48 10 -73t17 -34h-198q16 22 21.5 51.5t5.5 55.5v364q0 33 -28 61t-66 48q-16 8 -43 18t-53 12q-16 1 -29 -4t-19 -16q-11 -15 1 -39q7 -12 20.5 -23t30.5 -21q29 -16 61 -26t52 -10h23v-26h-78v-338q0 -48 10.5 -73t16.5 -34h-199q16 22 21.5 51.5t5.5 55.5
v338h-27v26h27q0 33 -28.5 61t-65.5 48q-16 8 -43 18t-53 12q-15 1 -27.5 -3.5t-20.5 -16.5q-12 -17 1 -39q7 -12 20.5 -23t30.5 -21q29 -16 61 -26t52 -10h23v-26h-78v-338q0 -48 10.5 -73t16.5 -34h-199q16 22 21.5 51.5t5.5 55.5v338h-27v26h27v28q0 17 0.5 35.5
t2.5 35.5q7 57 43 91q21 19 49.5 28t62.5 9q56 0 95 -33q24 -19 36 -47q12 25 30 43q21 19 49.5 28t62.5 9q53 0 92 -30q15 0 34.5 1t42 4t46 9t44.5 16v-192v0v-399z" />
    <glyph glyph-name=".notdef" horiz-adv-x="527" 
d="M477 700v-700h-427v700h427zM263 371l186 309h-371zM71 650v-601l180 301zM79 21h370l-185 308zM457 47v605l-181 -302z" />
    <glyph glyph-name=".null" horiz-adv-x="0" 
 />
    <glyph glyph-name=".null" horiz-adv-x="0" 
 />
    <glyph glyph-name="uni000D" unicode="&#xd;" horiz-adv-x="0" 
 />
    <glyph glyph-name="uni000A" unicode="&#xa;" horiz-adv-x="0" 
 />
    <glyph glyph-name="space" unicode=" " horiz-adv-x="343" 
 />
    <glyph glyph-name="exclam" unicode="!" horiz-adv-x="298" 
d="M248 700l-59 -499h-81l-58 499h198zM236 76q0 -31 -25.5 -53.5t-61.5 -22.5t-61.5 22.5t-25.5 53.5q0 32 25.5 54t61.5 22t61.5 -22t25.5 -54z" />
    <glyph glyph-name="quotedbl" unicode="&#x22;" horiz-adv-x="446" 
d="M123 700q36 0 61.5 -22t25.5 -54q0 -37 -15 -72.5t-39 -65.5t-53 -53t-58 -35l-9 12q29 29 48.5 65t28.5 74q-32 3 -54.5 24.5t-22.5 50.5q0 32 25.5 54t61.5 22zM324 700q36 0 61.5 -22t25.5 -54q0 -37 -15 -72.5t-39 -65.5t-53 -53t-58 -35l-9 12q30 29 49 65t28 74
q-32 3 -54.5 24.5t-22.5 50.5q0 32 25.5 54t61.5 22z" />
    <glyph glyph-name="numbersign" unicode="#" horiz-adv-x="688" 
d="M266 700h114l-50 -184h116l50 184h114l-50 -184h91l-30 -110h-90l-30 -112h90l-29 -110h-91l-49 -184h-114l49 184h-116l-49 -184h-114l49 184h-90l30 110h90l30 112h-90l29 110h90zM301 406l-30 -112h116l30 112h-116z" />
    <glyph glyph-name="dollar" unicode="$" horiz-adv-x="590" 
d="M267 241q-28 1 -46 -15t-26.5 -39.5t-7.5 -50t10 -47.5q10 -22 28 -39t42 -23v214zM330 27q17 5 30.5 14t23.5 21q27 37 24.5 76t-22.5 76q-11 21 -25 39.5t-31 36.5v-263zM267 345l-2 3q-36 29 -75 57.5t-68 60.5q-22 25 -33.5 53.5t-10.5 57.5q2 26 11.5 47t26.5 36
q30 27 70.5 34t80.5 6v86h63v-89q37 -3 68 -8.5t55 -4.5q30 0 47 14v-191q-20 22 -41 45.5t-42.5 45.5t-43.5 40.5t-43 28.5v-184q9 -8 18 -14.5t18 -14.5q32 -26 63.5 -53t57.5 -61q29 -36 42.5 -74t11.5 -75q-2 -48 -30 -91t-82 -72q-22 -11 -47 -17.5t-52 -9.5v-86h-63
v86q-33 2 -66 9.5t-56 18.5q-29 15 -52 39t-36 53q-14 34 -10 71t24 65q19 26 45 39.5t53.5 13.5t53.5 -12.5t44 -37.5v85zM267 678q-23 -3 -36.5 -14.5t-16.5 -28.5t3 -36t22 -38q7 -7 13.5 -14t14.5 -14v145z" />
    <glyph glyph-name="percent" unicode="%" horiz-adv-x="731" 
d="M123 507q9 -30 20.5 -55.5t24.5 -43.5t26.5 -27t24.5 -6t18 17t9 35.5t-1 49t-12 57.5t-20.5 55t-24.5 43t-26.5 27t-24.5 6t-18 -16.5t-8.5 -35t1.5 -49t11 -57.5zM411 180q0 37 11 70t30 57.5t45 38.5t55 14t55 -14t45 -38.5t30 -57.5t11 -70t-11 -70t-30 -57.5
t-45 -38.5t-55 -14t-55 14t-45 38.5t-30 57.5t-11 70zM511 325q-11 -3 -18 -17t-8.5 -35t1.5 -48.5t11 -57.5q9 -30 20.5 -55.5t24.5 -43.5t26.5 -27t24.5 -6q12 3 18.5 17t8.5 35t-1 48.5t-12 57.5q-8 30 -20 55.5t-25 43.5t-26 27t-25 6zM555 700l-285 -700h-95l285 700
h95zM178 340q-29 0 -55 14t-45 38.5t-30 57.5t-11 70q0 38 11 70.5t30 57t45 38.5t55 14t55 -14t45 -38.5t30 -57t11 -70.5q0 -37 -11 -70t-30 -57.5t-45 -38.5t-55 -14z" />
    <glyph glyph-name="ampersand" unicode="&#x26;" horiz-adv-x="654" 
d="M437 449q-27 -9 -57 -4.5t-56 23.5q10 3 20.5 12.5t19.5 23.5t15.5 31.5t7.5 35.5q2 21 -1.5 41t-11.5 35.5t-22 25t-35 9.5q-20 0 -33 -8.5t-21 -22t-11.5 -31t-5.5 -37.5q-4 -49 8 -99.5t33 -99t49 -93t56 -83.5q21 -29 43.5 -56.5t45.5 -51.5q23 32 25 76t-11 86.5
t-38.5 78t-58.5 50.5h224q-26 -13 -34.5 -41.5t-10.5 -57.5q-3 -69 -21 -123t-53 -91q27 -26 54.5 -45.5t55.5 -32.5h-79q-23 1 -47.5 8t-49.5 20q-61 -28 -144 -28q-48 0 -89 13.5t-73 37t-53.5 54.5t-30.5 66q-7 29 -5 59.5t15 58.5t37 50t60 35q-22 56 -31 111.5t4 101.5
q8 29 28.5 54t51.5 40q23 11 50 15t59 4t67.5 -5t63.5 -25q31 -21 48.5 -54t15.5 -67q-1 -39 -22 -64.5t-52 -35.5zM197 283l-16 32t-16 33q-15 -18 -20 -42.5t-1.5 -51.5t15 -55t28.5 -53q18 -25 42 -47t52.5 -36t59.5 -18.5t63 3.5q-59 39 -113 101t-94 134z" />
    <glyph glyph-name="quotesingle" unicode="'" horiz-adv-x="245" 
d="M123 700q36 0 61.5 -22t25.5 -54q0 -37 -15 -72.5t-39 -65.5t-53 -53t-58 -35l-9 12q29 29 48.5 65t28.5 74q-32 3 -54.5 24.5t-22.5 50.5q0 32 25.5 54t61.5 22z" />
    <glyph glyph-name="parenleft" unicode="(" horiz-adv-x="330" 
d="M311 678q-31 -15 -55 -55t-40 -97t-24.5 -125.5t-8.5 -139.5q0 -73 7.5 -144t23.5 -130t40 -101t57 -57v-22q-66 15 -115.5 59t-82 106.5t-48.5 137t-15 151.5q1 75 17.5 147.5t49 132.5t81.5 102t113 57v-22z" />
    <glyph glyph-name="parenright" unicode=")" horiz-adv-x="330" 
d="M19 700q64 -15 112.5 -57t81 -102t49 -132.5t17.5 -147.5q1 -77 -14.5 -151.5t-48 -137t-82 -106.5t-115.5 -59v22q32 15 56.5 57t40.5 101t23.5 130t7.5 144q0 71 -8.5 139.5t-24.5 125.5t-39.5 97t-55.5 55v22z" />
    <glyph glyph-name="asterisk" unicode="*" horiz-adv-x="485" 
d="M319 700l-52 -159l135 99l48 -147l-167 1l135 -98l-124 -91l-52 160l-51 -160l-124 91l135 98l-167 -1l47 147l135 -99l-51 159h153z" />
    <glyph glyph-name="plus" unicode="+" horiz-adv-x="573" 
d="M227 603h118v-194h194v-118h-194v-194h-118v194h-194v118h194v194z" />
    <glyph glyph-name="comma" unicode="," horiz-adv-x="230" 
d="M114 152q36 0 61.5 -22t25.5 -54q0 -37 -15 -72.5t-39 -65.5t-53 -53t-58 -35l-9 12q29 29 48.5 65t28.5 74q-32 3 -54.5 24.5t-22.5 50.5q0 32 25.5 54t61.5 22z" />
    <glyph glyph-name="hyphen" unicode="-" horiz-adv-x="451" 
d="M26 291v118h399v-118h-399z" />
    <glyph glyph-name="period" unicode="." horiz-adv-x="228" 
d="M201 76q0 -31 -25.5 -53.5t-61.5 -22.5t-61.5 22.5t-25.5 53.5q0 32 25.5 54t61.5 22t61.5 -22t25.5 -54z" />
    <glyph glyph-name="slash" unicode="/" horiz-adv-x="427" 
d="M275 700h130l-253 -700h-130z" />
    <glyph glyph-name="zero" unicode="0" horiz-adv-x="643" 
d="M447 381q-17 62 -42.5 114t-54 88.5t-58.5 54t-56 11.5t-42 -35.5t-22 -74t-0.5 -101.5t23.5 -119t43.5 -114t54 -88.5t58 -54t55.5 -11.5t42.5 35.5t22 74t0 101.5t-23.5 119zM47 350q0 72 21.5 136t59 111.5t87 75t106.5 27.5t107 -27.5t87.5 -75t59 -111.5t21.5 -136
t-21.5 -136t-59 -111.5t-87.5 -75t-107 -27.5t-106.5 27.5t-87 75t-59 111.5t-21.5 136z" />
    <glyph glyph-name="one" unicode="1" horiz-adv-x="340" 
d="M261 107q0 -48 10 -73t16 -34h-197q15 23 20.5 52t5.5 55v443l-77 -33v68q19 9 37 22.5t33 29t26.5 32t17.5 31.5h108v-593z" />
    <glyph glyph-name="two" unicode="2" horiz-adv-x="561" 
d="M269 14q-29 6 -57 11t-55.5 5t-54.5 -6.5t-54 -23.5v47q43 49 94 103q27 29 54 64t51 74q25 40 47.5 82t37.5 85q6 18 11 41.5t7 48.5t-0.5 49.5t-12 44t-27 31t-46.5 11.5q-14 0 -29 -6.5t-28 -18.5t-21 -29.5t-9 -40.5q-1 -21 4 -40.5t15.5 -34.5t26 -22.5t36.5 -3.5
q-12 -45 -42.5 -63t-64.5 -16q-25 2 -46 12.5t-35.5 27.5t-21.5 39t-6 47q4 43 27 76t58 55q30 20 66.5 28.5t79.5 8.5q45 0 76.5 -7.5t60.5 -24.5q19 -11 35.5 -27t28.5 -36.5t19 -47t6 -58.5q-1 -30 -10 -59.5t-24 -57.5t-33 -53.5t-37 -45.5q-37 -38 -82 -71.5t-95 -69.5
q-36 -27 -72 -46.5t-69 -44.5q42 24 79 38.5t69 16.5q17 1 50.5 4.5t69 13.5t65.5 29t40 50q18 -7 31.5 -23t20.5 -36.5t7.5 -42t-6.5 -38.5q-11 -26 -39 -44.5t-76 -18.5q-32 0 -64 4.5t-56 9.5z" />
    <glyph glyph-name="three" unicode="3" horiz-adv-x="572" 
d="M336 442q57 -12 98 -40q42 -29 66 -74t26 -95q2 -54 -20.5 -103.5t-67.5 -81.5q-35 -24 -74 -36t-90 -12q-46 0 -93 13t-82 46q-32 31 -46 72t-9 83q5 45 28 76t55 48q25 13 52.5 15t52.5 -7t45 -30t29 -55q-42 10 -72.5 -5.5t-47.5 -44.5q-15 -27 -16 -60t11 -61.5
t36 -48t58 -19.5q32 0 53 16.5t33.5 43.5t17 62t1.5 71q-2 31 -10 61t-22.5 55t-35 43t-47.5 25l170 240q-61 -56 -117 -80q-72 -29 -126 -20q-48 8 -76.5 47t-28.5 114q21 -8 53 -13.5t70 -8.5t78.5 -2.5t77.5 3t69 8t52 13.5v-48z" />
    <glyph glyph-name="four" unicode="4" horiz-adv-x="550" 
d="M469 172h26v-41h-26v-24q0 -48 10 -73t16 -34h-197q15 23 20.5 52t5.5 55v24h-276l-12 24q17 17 32.5 35t29.5 38q20 29 39 73t27 92q6 34 1.5 66.5t-18.5 58t-37.5 41t-57.5 14.5q16 36 49 55t69 18q45 -1 72 -23.5t38 -55.5q11 -35 5 -76t-20 -74q-15 -37 -36 -70.5
t-41 -60.5q-35 -47 -82 -100q-3 -4 -6.5 -7t-6.5 -7h231v390q0 38 -6 60q-5 19 -10.5 30t-9.5 17q12 0 37.5 2t52.5 5.5t50.5 9.5t30.5 14v-528z" />
    <glyph glyph-name="five" unicode="5" horiz-adv-x="581" 
d="M133 471q33 13 77 17t86 1q53 -5 95 -26.5t72 -53.5t47.5 -72.5t21.5 -82.5q5 -58 -17.5 -113t-73.5 -93q-67 -48 -165 -48q-48 0 -92 14.5t-78 43.5q-33 29 -48 68.5t-12.5 80t23.5 76t61 55.5q25 13 52.5 15t52.5 -7t45 -30t29 -55q-42 10 -72.5 -5.5t-47.5 -44.5
q-15 -27 -16.5 -60t10.5 -61.5t35.5 -48t57.5 -19.5q32 0 55 16t37 43t20 61.5t4 70.5q-4 60 -30 109t-65 79q-35 26 -80.5 33t-94.5 -13l-34 -16l53 295q30 -12 78.5 -18t101 -6.5t102 5.5t80.5 19q-1 -75 -29 -114t-76 -47q-31 -5 -63.5 1.5t-64 20.5t-59.5 33t-49 38z
" />
    <glyph glyph-name="six" unicode="6" horiz-adv-x="580" 
d="M261 439q49 30 98.5 25t89.5 -35q33 -24 55.5 -62.5t29.5 -86.5q5 -32 2.5 -65.5t-12 -64t-27.5 -57.5t-45 -46q-30 -22 -71.5 -34.5t-95.5 -12.5q-49 0 -93.5 14t-78 41.5t-52 68.5t-14.5 96q3 39 20 68t43 46.5t57.5 23t61.5 -3t56 -31.5t41 -62q-61 9 -95 -13.5
t-45 -57.5q-9 -27 -5.5 -56.5t17 -54t36 -41t52.5 -16.5t51 13.5t34 36.5t19 52.5t4 61.5q-2 50 -21 97.5t-53 76.5q-26 22 -60 32.5t-69.5 9t-70 -16.5t-60.5 -44q6 70 34 131.5t76 112.5q57 61 126.5 88t150.5 27v-15q-49 -17 -87 -56t-62 -86q-14 -26 -23 -52.5
t-14 -51.5z" />
    <glyph glyph-name="seven" unicode="7" horiz-adv-x="494" 
d="M161 0q-11 96 -5.5 172.5t25.5 140.5q29 94 87.5 166.5t141.5 140.5q-18 -12 -49 -25.5t-66.5 -25.5t-71.5 -21t-66 -11q-68 -4 -101 33t-33 130q35 -14 87 -19.5t109 -4.5q36 0 75.5 2t75 5.5t63 8t39.5 8.5v-80q-82 -67 -124.5 -146.5t-48.5 -171.5q-9 -138 61 -302
h-199v0z" />
    <glyph glyph-name="eight" unicode="8" horiz-adv-x="586" 
d="M541 202q-4 -39 -22.5 -74t-49.5 -62.5t-72.5 -44.5t-90.5 -20q-9 -1 -17.5 -1h-17.5q-47 2 -89.5 16.5t-74 42.5t-48.5 68t-13 93q3 39 20 68t43 46.5t57.5 23t61.5 -3t56 -31.5t41 -62q-31 5 -54.5 1t-41 -14t-28.5 -25t-16 -33q-9 -27 -5.5 -56.5t17 -54.5t36 -41.5
t52.5 -16.5q27 0 47 11t33.5 28.5t20.5 40.5t8 48q1 43 -9 75.5t-28.5 58t-43 45.5t-51.5 37.5t-54.5 35t-52.5 37.5q-32 27 -48 60.5t-14 68.5t22.5 65t62.5 49q20 9 50.5 14t58.5 5q27 0 55.5 -2.5t54.5 -13.5q34 -15 57.5 -45t25.5 -72q1 -19 -9.5 -38t-26.5 -34.5
t-35.5 -26.5t-37.5 -14q32 -23 62 -45.5t53 -49.5q33 -38 46 -78t9 -79zM368 573q-2 20 -8 39t-16 33.5t-24 23.5t-33 9q-28 0 -44.5 -15.5t-20.5 -37.5q-4 -15 -0.5 -31t14.5 -30q17 -21 44.5 -46t52.5 -39q15 13 26 39t9 55z" />
    <glyph glyph-name="nine" unicode="9" horiz-adv-x="580" 
d="M319 261q-50 -30 -99 -25t-89 35q-33 24 -55.5 62.5t-30.5 86.5q-5 32 -2.5 65.5t12.5 64t28 57.5t45 46q30 22 71 34.5t96 12.5q49 0 93.5 -14t78 -41.5t52 -68.5t14.5 -96q-2 -39 -20 -68t-44 -46.5t-57 -23t-61.5 3t-56 31.5t-40.5 62q61 -9 95 13.5t45 57.5
q9 27 5.5 56.5t-17 54t-36.5 41t-53 16.5q-29 0 -50 -13.5t-34 -36.5t-18.5 -52.5t-4.5 -61.5q2 -50 21 -97.5t52 -76.5q26 -22 60 -32.5t70 -9t70 16.5t60 44q-6 -70 -33.5 -131.5t-75.5 -112.5q-57 -61 -126.5 -88t-151.5 -27v15q50 17 87.5 56t62.5 86q28 54 37 104z" />
    <glyph glyph-name="colon" unicode=":" horiz-adv-x="252" 
d="M213 76q0 -31 -25.5 -53.5t-61.5 -22.5t-61.5 22.5t-25.5 53.5q0 32 25.5 54t61.5 22t61.5 -22t25.5 -54zM213 431q0 -31 -25.5 -53.5t-61.5 -22.5t-61.5 22.5t-25.5 53.5q0 32 25.5 54t61.5 22t61.5 -22t25.5 -54z" />
    <glyph glyph-name="semicolon" unicode=";" horiz-adv-x="252" 
d="M126 152q36 0 61.5 -22t25.5 -54q0 -37 -15 -72.5t-39 -65.5t-53 -53t-58 -35l-9 12q29 29 48.5 65t28.5 74q-32 3 -54.5 24.5t-22.5 50.5q0 32 25.5 54t61.5 22zM213 431q0 -31 -25.5 -53.5t-61.5 -22.5t-61.5 22.5t-25.5 53.5q0 32 25.5 54t61.5 22t61.5 -22t25.5 -54z
" />
    <glyph glyph-name="less" unicode="&#x3c;" horiz-adv-x="544" 
d="M497 238v-141l-470 229v48l470 229v-140l-272 -113z" />
    <glyph glyph-name="equal" unicode="=" horiz-adv-x="524" 
d="M37 170v118h449v-118h-449zM37 375v119h449v-119h-449z" />
    <glyph glyph-name="greater" unicode="&#x3e;" horiz-adv-x="544" 
d="M319 350l-272 113v140l469 -229v-48l-469 -229v141z" />
    <glyph glyph-name="question" unicode="?" horiz-adv-x="527" 
d="M227 201q-9 37 -6 63.5t14 49.5q11 24 25.5 45t29.5 41q18 26 32.5 51.5t22 52t6 55t-13.5 60.5q-11 27 -31 45t-52 17q-14 0 -29 -6.5t-28 -18.5t-21 -29.5t-9 -40.5q-1 -21 3.5 -40.5t15 -34.5t26.5 -22.5t37 -3.5q-12 -45 -42.5 -63t-65.5 -16q-25 2 -45.5 12.5
t-35 28t-21.5 39.5t-6 46q3 43 26.5 76t58.5 55q30 20 66.5 28.5t79.5 8.5q45 0 76 -6t60 -23q47 -27 69 -66t22 -82q-1 -37 -16.5 -73.5t-46.5 -68.5q-23 -23 -47.5 -44.5t-44.5 -44.5q-17 -20 -29 -42t-12 -49h-68zM349 76q0 -31 -25.5 -53.5t-61.5 -22.5t-61.5 22.5
t-25.5 53.5q0 32 25.5 54t61.5 22t61.5 -22t25.5 -54z" />
    <glyph glyph-name="at" unicode="@" horiz-adv-x="929" 
d="M254 254q0 47 16 88.5t44 72.5t65.5 49t80.5 18q54 0 98 -28q16 -10 28 -11q29 -7 50 5.5t40 33.5v-312q0 -29 9 -43t22.5 -15t30 11t30.5 35q18 29 28.5 63t13.5 70t-1 73t-15 70q-19 56 -50.5 96t-71.5 64.5t-85.5 34.5t-92.5 6q-64 -5 -126 -35t-109 -81.5t-73 -123.5
t-19 -162q5 -62 27 -120.5t59.5 -106.5t90 -83t117.5 -49q55 -12 110.5 -6t106.5 28t94.5 59.5t73.5 88.5h37q-38 -71 -95 -123t-132 -82q-43 -17 -85 -24.5t-89 -7.5q-52 0 -102.5 12.5t-95 35t-82 53.5t-64.5 69q-45 65 -67.5 136t-23.5 142.5t19.5 139.5t61.5 125
q44 60 107.5 104.5t148.5 64.5q59 14 121 10.5t120 -23t107.5 -55.5t83.5 -88q31 -48 44.5 -108.5t9 -122t-27 -119t-63.5 -98.5q-20 -20 -48.5 -35t-59.5 -19q-27 -4 -52 4.5t-42 34.5q-17 -18 -46 -31q-34 -14 -71 -14q-43 0 -80.5 18t-65.5 49t-44 72.5t-16 89.5zM513 55
q11 3 17.5 14t10 25t4.5 28.5t1 23.5q0 27 -4.5 59t-14.5 67q-11 41 -26 75.5t-31 59.5t-32.5 37.5t-30.5 8.5t-22.5 -23t-10 -48t3 -67t15.5 -79q11 -42 26 -76.5t31 -59t32.5 -37t30.5 -8.5z" />
    <glyph glyph-name="A" unicode="A" horiz-adv-x="543" 
d="M302 700l184 -603q5 -15 10.5 -30.5t13 -29t17 -24t20.5 -13.5h-214q13 11 17 24.5t3 28.5t-6 31l-10 32q-2 8 -4.5 15.5t-4.5 15.5h-137q-38 0 -64.5 -14.5t-34.5 -43.5v1q-4 -11 -5 -19q-8 -24 -7 -42t17 -29h-100q24 14 40 42t24 54l187 604h54zM220 507
q-20 -68 -35.5 -119.5t-28 -91t-22.5 -71.5t-19 -61q14 19 33.5 27.5t39.5 8.5h124q-20 69 -44.5 148t-47.5 159z" />
    <glyph glyph-name="B" unicode="B" horiz-adv-x="592" 
d="M352 700q35 0 65 -13t52.5 -35.5t35.5 -52.5t13 -64q0 -48 -25 -89q-27 -43 -78 -62q35 -9 65 -31q38 -28 58 -69.5t20 -88.5q0 -42 -17 -78.5t-46 -63.5q-26 -25 -63.5 -39t-76.5 -14h-312q16 23 21.5 52t5.5 55v486q0 26 -5.5 55t-21.5 52h309zM362 329q-24 25 -60 28
q-13 1 -27 -4t-26 -13.5t-21 -20t-14 -23.5v-274h46q78 0 114 54q30 45 30 124q0 33 -9.5 69t-32.5 60zM326 433q24 20 38 46t11 74q-2 24 -10 46.5t-22 39.5q-15 18 -35 27q-22 12 -52 12h-42v-349q6 17 19.5 31t30.5 27q17 12 33 23.5t29 22.5z" />
    <glyph glyph-name="C" unicode="C" horiz-adv-x="643" 
d="M488 445q-19 54 -45.5 98t-55.5 73t-59.5 42t-58.5 5q-32 -8 -53 -40t-30.5 -80t-6 -108.5t20.5 -125.5q18 -65 45 -119t59 -90.5t66.5 -54t66.5 -8.5q26 7 48.5 24t40.5 39.5t33 47.5t26 49v-125q-24 -23 -51.5 -37.5t-57 -22t-60.5 -10t-63 -2.5q-66 0 -124.5 27.5
t-102 75t-68.5 111.5t-25 136q0 69 23.5 132t65.5 111t101 77t129 30q35 1 70 -3t67 -15q24 -9 46 -22.5t40 -33.5q21 -24 30 -46.5t7 -42.5t-13.5 -37.5t-30.5 -29.5q-31 -22 -80 -25z" />
    <glyph glyph-name="D" unicode="D" horiz-adv-x="615" 
d="M214 22h24q50 0 88 34t58 83q20 48 30 102t10 109t-10 109t-30 102q-20 49 -58 83t-88 34h-24v-656zM302 700q63 0 111 -24.5t82 -66.5q42 -50 62.5 -118.5t20.5 -140.5t-20.5 -140.5t-62.5 -118.5q-34 -42 -82 -66.5t-111 -24.5h-259q16 23 21.5 52t5.5 55v486
q0 26 -5.5 55t-21.5 52h259z" />
    <glyph glyph-name="E" unicode="E" horiz-adv-x="544" 
d="M43 0q16 23 21.5 52t5.5 55v486q0 26 -5.5 55t-21.5 52h434l21 -164q-8 33 -28.5 59t-47.5 44.5t-58.5 28.5t-61.5 10h-88v-216q7 10 17.5 14.5t23.5 6.5q16 2 35.5 -1t39.5 -7q14 -3 27.5 -5t27.5 -2q17 0 32 4.5t27 16.5q20 -32 15.5 -60t-24.5 -45q-22 -19 -55 -19
q-34 0 -61.5 18.5t-50.5 40.5q-9 7 -17.5 12.5t-17.5 8.5q-8 2 -13.5 -3t-5.5 -20v-400h7q33 0 67.5 12t67 31.5t60 44.5t45.5 52q29 -14 40 -40t6 -53q-5 -28 -26.5 -48.5t-57.5 -20.5h-380z" />
    <glyph glyph-name="F" unicode="F" horiz-adv-x="516" 
d="M43 0q15 23 21 52t6 55v486q0 26 -6 55t-21 52h434l21 -164q-8 33 -28.5 59t-47.5 44.5t-58.5 28.5t-61.5 10h-88v-216q7 10 17.5 14.5t23.5 6.5q16 2 35 -1t40 -7q32 -6 62.5 -6.5t51.5 20.5q20 -32 15.5 -60t-24.5 -45q-22 -19 -57 -19t-70 26q-11 8 -20.5 16t-19.5 17
q-9 7 -17.5 12.5t-17.5 8.5q-8 2 -13.5 -3t-5.5 -20v-315q0 -26 5.5 -55t21.5 -52h-198z" />
    <glyph glyph-name="G" unicode="G" horiz-adv-x="674" 
d="M487 445q-19 54 -45.5 98t-55.5 73t-59.5 42t-58.5 5q-32 -8 -53 -40t-30.5 -80t-6 -108.5t20.5 -125.5q15 -56 38 -104.5t50 -84.5t56.5 -58t58.5 -27q14 -2 33.5 2t29.5 9v167q0 26 -5.5 55t-21.5 52h198q-6 -10 -16.5 -35t-10.5 -72v-106q0 -48 10.5 -72.5t16.5 -34.5
h-171v10q-27 -8 -56 -9t-57 -1q-66 0 -124.5 27.5t-102 75t-68.5 111.5t-25 136q0 69 23.5 132t65.5 111t101 77t129 30q35 1 70 -3t67 -15q24 -9 46 -22.5t40 -33.5q21 -24 30 -46.5t7 -42.5t-13.5 -37.5t-30.5 -29.5q-31 -22 -80 -25z" />
    <glyph glyph-name="H" unicode="H" horiz-adv-x="609" 
d="M43 0q16 23 21.5 52t5.5 55v486q0 26 -5.5 55t-21.5 52h198q-6 -9 -16.5 -34t-10.5 -73v-118q11 8 23 8.5t28 -1.5q10 -2 20.5 -4t22.5 -4q9 -2 18.5 -3t18.5 -1q20 0 34.5 6.5t14.5 23.5v93q0 26 -5.5 55t-21.5 52h198q-6 -9 -16.5 -34t-10.5 -73v-486q0 -48 10.5 -72.5
t16.5 -34.5h-198q16 23 21.5 52t5.5 55v281q-6 -6 -12.5 -9.5t-13.5 -5.5q-20 -9 -45 -2q-23 5 -40 20q-8 6 -14 13.5t-14 15.5l-7.5 7.5t-7.5 6.5q-10 8 -16 8q-4 0 -7 -4t-3 -15v-316q0 -48 10.5 -72.5t16.5 -34.5h-198z" />
    <glyph glyph-name="I" unicode="I" horiz-adv-x="284" 
d="M43 0q16 23 21.5 52t5.5 55v486q0 26 -5.5 55t-21.5 52h198q-6 -9 -16.5 -34t-10.5 -73v-486q0 -48 10.5 -72.5t16.5 -34.5h-198z" />
    <glyph glyph-name="J" unicode="J" horiz-adv-x="456" 
d="M106 250q16 2 33.5 -1.5t33 -14t26.5 -28.5t14 -44q-18 0 -30.5 -6.5t-20.5 -16.5t-11.5 -23t-3.5 -26q0 -26 13 -47t34 -21q25 0 35.5 18.5t14.5 43.5q3 23 2.5 45t-0.5 36v428q0 20 -3.5 43t-11.5 43l-5.5 11t-6.5 10h198q-6 -10 -16.5 -34.5t-10.5 -72.5v-408
q0 -96 -52.5 -140.5t-141.5 -44.5q-28 0 -57 6t-54 19.5t-43 35.5t-25 54q-6 28 1 56t27 48q23 25 61 31z" />
    <glyph glyph-name="K" unicode="K" horiz-adv-x="583" 
d="M71 593q0 26 -5.5 55t-21.5 52h194q-15 -23 -21 -52t-6 -55v-267q14 27 37 44q9 8 18.5 13.5t19.5 11.5q32 19 47 43t21 52t6.5 58.5t3.5 62.5q2 24 11.5 42t24 31t32.5 19.5t37 6.5q16 0 32 -4.5t30 -15.5q-16 -5 -24.5 -18t-12.5 -30q-4 -16 -5 -32.5t-2 -29.5
q-2 -20 -2.5 -40.5t-2.5 -40.5q-3 -22 -9 -42.5t-17 -37.5t-27.5 -29t-39.5 -17q22 0 38 -8.5t28 -22.5q19 -23 27.5 -53t12 -63t6 -67t9.5 -65q6 -27 18.5 -53.5t38.5 -40.5q-12 0 -25 -0.5t-26 -0.5q-51 0 -82 13.5t-48.5 35t-23 48.5t-5.5 55q0 13 1 30t1.5 35.5t0.5 37
t-3 35.5q-4 23 -16.5 40.5t-37.5 22.5q-31 6 -60 -17q-21 -16 -32 -39v-189q0 -26 6 -55t21 -52h-194q16 23 21.5 52t5.5 55v486z" />
    <glyph glyph-name="L" unicode="L" horiz-adv-x="519" 
d="M43 0q16 23 21.5 52t5.5 55v486q0 26 -5.5 55t-21.5 52h198q-16 -23 -21.5 -52t-5.5 -55v-571h7q33 0 67.5 12t67 31.5t60 44.5t45.5 52q29 -14 40 -40t6 -53q-5 -28 -26.5 -48.5t-57.5 -20.5h-380z" />
    <glyph glyph-name="M" unicode="M" horiz-adv-x="690" 
d="M44 0q15 23 21 52t6 55v486q0 26 -6 55t-21 52h121l189 -452l154 452h139q-7 -9 -17 -34t-10 -73v-486q0 -48 10 -72.5t17 -34.5h-198q15 23 21 52t6 55v393l-120 -341q-10 -28 -26 -46.5t-34.5 -28t-39.5 -10t-41 6.5q18 16 24 32t4.5 31t-7.5 29.5t-11 27.5l-123 299
v-393q0 -48 10.5 -73t16.5 -34h-85z" />
    <glyph glyph-name="N" unicode="N" horiz-adv-x="594" 
d="M43 0q15 23 21 52t6 55v486q0 26 -6 55t-21 52h69l383 -456v349q0 26 -5.5 55t-21.5 52h85q-6 -10 -16 -34.5t-10 -72.5v-481q0 -21 -7 -41.5t-20 -36t-30.5 -25t-38.5 -9.5q-8 0 -22 1.5t-25 3.5q14 15 20 34.5t5.5 39t-8 38t-19.5 30.5l-281 331v-371q0 -48 10.5 -73
t16.5 -34h-85z" />
    <glyph glyph-name="O" unicode="O" horiz-adv-x="706" 
d="M353 700q66 0 124 -27.5t101.5 -75t68.5 -111.5t25 -136t-25 -136t-68.5 -111.5t-101.5 -75t-124 -27.5t-124.5 27.5t-102 75t-68.5 111.5t-25 136t25 136t68.5 111.5t102 75t124.5 27.5zM505 391q-17 65 -44.5 119t-59.5 90.5t-66 54t-66 8.5q-32 -8 -53 -40t-30.5 -80
t-6 -108.5t20.5 -125.5q18 -65 45 -119t59 -90.5t66.5 -54t66.5 -8.5q32 8 53 40t30 80t5.5 108.5t-20.5 125.5z" />
    <glyph glyph-name="P" unicode="P" horiz-adv-x="537" 
d="M44 0q15 23 21 52t6 55v486q0 26 -6 55t-21 52h309q34 0 64.5 -13t53 -35.5t35.5 -52.5t13 -64q0 -48 -25 -89q-27 -44 -77 -62q-20 -8 -42 -11.5t-46 -8.5q-20 -3 -38.5 -8t-34.5 -15q-26 -14 -41 -45v-189q0 -26 5.5 -55t21.5 -52h-198zM215 329q6 17 19 30.5t30 25.5
q20 15 36 26t30 22q26 20 37 52.5t9 67.5q-2 24 -10 46.5t-22 39.5q-15 18 -35 27q-22 12 -52 12h-42v-349z" />
    <glyph glyph-name="Q" unicode="Q" horiz-adv-x="704" 
d="M32 350q0 72 25 136t68.5 111.5t102 75t124.5 27.5t124 -27.5t101.5 -75t68.5 -111.5t25 -136q0 -60 -17 -114t-48 -98t-73 -76t-92 -48q8 -4 16 -7t16 -7q13 -5 25.5 -10.5t24.5 -10.5q37 -14 80 -24.5t86.5 -13.5t84.5 3.5t74 26.5q14 -38 9.5 -67.5t-22.5 -51.5
q-20 -23 -52 -34.5t-71 -10.5q-36 1 -71.5 12.5t-65.5 28.5q-22 13 -42 27t-38 28q-14 11 -27.5 21t-26.5 20q-16 11 -35 22t-39 16q-38 11 -66 -5q-16 -9 -23 -25.5t-1 -40.5q5 -18 16 -33.5t26 -22.5q-34 -3 -58.5 8.5t-39.5 31.5q-12 17 -17 37t0 38q3 15 12 28.5
t24 23.5q-45 19 -83.5 51.5t-66 75t-43 94t-15.5 107.5zM268 663q-31 -8 -52.5 -40t-31 -80t-6 -108.5t20.5 -125.5q18 -65 45 -119t59.5 -90.5t67 -54t65.5 -8.5q32 8 53 40t30 80t5.5 108.5t-20.5 125.5t-44.5 119t-59.5 90.5t-66 54t-66 8.5z" />
    <glyph glyph-name="R" unicode="R" horiz-adv-x="583" 
d="M43 0q16 23 21.5 52t5.5 55v486q0 26 -5.5 55t-21.5 52h310q34 0 64 -13t52.5 -35.5t35.5 -52.5t13 -64q0 -48 -25 -89q-26 -44 -77 -62q-9 -3 -18 -5.5t-19 -4.5q53 -3 80 -32q23 -23 31 -56t10.5 -69.5t3 -72.5t7.5 -66q6 -26 18 -46.5t32 -31.5q-17 0 -37 -1t-41 1
q-51 2 -77.5 21t-37.5 48q-13 32 -12.5 74t-0.5 87q0 11 -1 24.5t-3.5 28t-6.5 28.5t-12 24q-15 20 -39 19q-19 0 -39 -13q-27 -18 -40 -45v-189q0 -26 5.5 -55t21.5 -52h-198zM214 329q6 17 19 30.5t30 25.5q20 15 36 26t30 22q26 20 37 52.5t9 67.5q-2 24 -9.5 46.5
t-22.5 39.5q-15 18 -35 27q-22 12 -52 12h-42v-349z" />
    <glyph glyph-name="S" unicode="S" horiz-adv-x="564" 
d="M236 227q-28 -8 -43 -28.5t-19 -43.5q-4 -24 2.5 -48t21 -42.5t36 -30t46.5 -11.5q32 0 54 10.5t36 28.5q27 37 24.5 76t-22.5 76q-21 40 -53 72t-69 62q-35 29 -74 57.5t-68 60.5q-22 25 -33.5 53.5t-9.5 57.5q1 26 10.5 47t26.5 36t38 23.5t43.5 12.5t45.5 4h45
q26 -1 49 -3.5t44 -5.5t39 -5.5t33 -1.5q30 0 47 14v-191q-25 28 -52.5 58.5t-55 56t-55 42t-53.5 16.5q-32 0 -49 -13t-21 -33q-3 -16 3 -35.5t22 -37.5q26 -29 60.5 -55t66.5 -52t63.5 -53t57.5 -61q29 -36 42.5 -74t11.5 -75q-2 -49 -30 -91.5t-82 -71.5
q-29 -15 -63.5 -22t-71.5 -6q-38 0 -80 7.5t-69 21.5q-29 15 -52 38.5t-36 52.5q-14 35 -10 72t24 64q17 23 43 36t60 6q26 -5 46.5 -22.5t29.5 -48.5z" />
    <glyph glyph-name="T" unicode="T" horiz-adv-x="546" 
d="M273 0h-99q15 23 20.5 52t5.5 55v571h-23q-27 0 -51.5 -15t-45.5 -39.5t-37.5 -55t-26.5 -61.5v193h513v-193q-10 31 -26.5 61.5t-37.5 55t-45.5 39.5t-51.5 15h-23v-571q0 -26 5.5 -55t20.5 -52h-98v0z" />
    <glyph glyph-name="U" unicode="U" horiz-adv-x="550" 
d="M208 593v-391q0 -34 10.5 -59t28 -41.5t40 -24t45.5 -6.5t45 9.5t39 25t27.5 41t10.5 55.5v391q0 26 -5.5 55t-21.5 52h84q-6 -9 -16.5 -34t-10.5 -73v-403q0 -42 -13 -77t-37.5 -60t-61 -39t-83.5 -14t-88 13t-71.5 37.5t-48 60t-17.5 79.5v403q0 26 -5.5 55t-21.5 52
h198q-6 -9 -16.5 -34t-10.5 -73z" />
    <glyph glyph-name="V" unicode="V" horiz-adv-x="584" 
d="M67 607q-4 16 -12.5 32t-19 28.5t-22 21.5t-22.5 11h247q-22 -10 -26 -33t4 -55l144 -502l34 76q16 35 30.5 89t21.5 112q3 21 4 46t-1 50.5t-7.5 50t-17.5 43.5q-13 23 -35 36.5t-55 15.5q16 45 50.5 66.5t70.5 21.5q24 -1 46 -11t36 -30q24 -32 22.5 -81t-15.5 -104
q-16 -58 -41.5 -123.5t-55.5 -133.5l-104 -234h-99z" />
    <glyph glyph-name="W" unicode="W" horiz-adv-x="901" 
d="M474 296q-7 -16 -13.5 -31t-13.5 -31l-104 -234h-99l-177 607q-4 16 -12.5 32t-19 28.5t-22 21.5t-22.5 11h247q-22 -10 -26 -33t4 -55l144 -502l34 76q16 35 30.5 89t21.5 112l1 3l-64 217q-4 16 -12.5 32t-19 28.5t-22 21.5t-22.5 11h247q-22 -10 -26 -33t4 -55
l144 -502l34 76q16 35 30.5 89t21.5 112q3 21 4 46t-1 50.5t-7.5 50t-17.5 43.5q-13 23 -35 36.5t-55 14.5q16 45 50.5 67t71.5 21q23 0 45 -10t37 -30q23 -32 22 -81t-16 -104q-16 -58 -41.5 -123.5t-55.5 -133.5l-104 -234h-99z" />
    <glyph glyph-name="X" unicode="X" horiz-adv-x="598" 
d="M468 0h-118q12 8 15.5 18.5t2 22t-6 22.5t-9.5 21l-53 108l-66 136q-11 -10 -21.5 -20t-29.5 -29q-22 -22 -31 -52.5t-5 -61.5q5 -38 29 -69t69 -37q-5 -20 -17 -35t-28 -25q-32 -17 -65 -16q-29 1 -52 16q-8 5 -14 11t-12 13q-11 16 -17.5 35t-6.5 40q-1 40 17 77
q2 5 4.5 9t5.5 8q14 23 35 46.5t38 40.5q19 18 34.5 33t41.5 41l9 9l-72 145l-53 108q-16 33 -37.5 54.5t-41.5 29.5h236q-12 -8 -15.5 -18.5t-2 -21.5t6 -22.5t9.5 -21.5l53 -108l66 -136q11 10 21.5 20.5t29.5 28.5q22 22 31 52.5t5 62.5q-5 38 -29 68.5t-69 36.5
q12 39 45 60q30 19 65 16q28 -1 52 -16q8 -5 14 -11t12 -13q11 -15 17 -34.5t7 -39.5q1 -21 -4 -40.5t-13 -37.5q-2 -4 -4.5 -8t-5.5 -9q-14 -23 -35 -46.5t-38 -40.5q-19 -18 -34.5 -33t-41.5 -41l-8 -8l70 -146l53 -108q17 -32 38.5 -54t41.5 -30h-118v0z" />
    <glyph glyph-name="Y" unicode="Y" horiz-adv-x="544" 
d="M361 107q0 -48 10 -72.5t17 -34.5h-198q15 23 20.5 52t5.5 55v151l-146 349q-17 42 -37.5 63.5t-40.5 28.5h210q-17 -11 -12 -32.5t17 -51.5l129 -328q16 31 33 60t33 67q15 38 20 75t-3.5 67.5t-30.5 50.5t-61 23q18 45 43.5 65.5t70.5 20.5q21 0 40 -9.5t30 -25.5
q20 -26 18 -59q-1 -19 -6 -37.5t-13 -36.5q-14 -33 -32.5 -69.5t-39 -73.5t-40.5 -74t-36 -72z" />
    <glyph glyph-name="Z" unicode="Z" horiz-adv-x="546" 
d="M264 678q-44 0 -79.5 -19.5t-63 -47t-46 -56.5t-28.5 -48v193h447l-307 -669h66q42 -2 72.5 18t45 50.5t12.5 65.5t-25 63q36 26 72.5 23.5t60.5 -26.5q20 -19 28 -48.5t-2 -65.5q-9 -33 -31.5 -58t-51.5 -37q-23 -9 -47.5 -12.5t-50.5 -3.5h-79h-83t-80 0.5t-70 0.5
l305 677h-65z" />
    <glyph glyph-name="bracketleft" unicode="[" horiz-adv-x="313" 
d="M291 -174v-19h-227v893h227v-19l-106 -39v-776z" />
    <glyph glyph-name="backslash" unicode="\" horiz-adv-x="426" 
d="M404 0h-130l-253 700h130z" />
    <glyph glyph-name="bracketright" unicode="]" horiz-adv-x="313" 
d="M128 -134v776l-106 39v19h227v-893h-227v19z" />
    <glyph glyph-name="asciicircum" unicode="^" horiz-adv-x="489" 
d="M244 503l-86 -209h-136l198 406h48l198 -406h-136z" />
    <glyph glyph-name="underscore" unicode="_" horiz-adv-x="633" 
d="M64 -118v118h505v-118h-505z" />
    <glyph glyph-name="grave" unicode="`" horiz-adv-x="246" 
d="M142 548l-125 152h151l55 -152h-81z" />
    <glyph glyph-name="a" unicode="a" horiz-adv-x="502" 
d="M434 310v-150q0 -24 0.5 -47t4 -43t12.5 -38t27 -32q-38 8 -72.5 15.5t-61.5 7.5q-18 0 -32 -5t-22 -18v88q-4 -25 -17.5 -41.5t-31 -27t-37 -15t-36.5 -4.5q-31 0 -56 10t-43 27.5t-28 40t-12 46.5q-2 22 3.5 42.5t15.5 39.5q18 31 42 47.5t52 27.5q31 13 63 27.5
t55 37.5q14 14 22 32t8 43q0 10 -2 22t-7 22.5t-14.5 17.5t-24.5 7q-21 0 -32.5 -16t-13.5 -36.5t5.5 -40.5t24.5 -29q-8 -28 -27.5 -41t-42.5 -13q-19 0 -36 9q-19 10 -30 30t-9 46q3 29 19 49.5t39 33.5t50 19t52 6q53 0 89.5 -14t59.5 -39.5t33.5 -62t10.5 -81.5z
M290 148v204q-5 -19 -17 -34.5t-26 -29.5t-29.5 -29t-28.5 -32q-14 -20 -18.5 -43t0.5 -43q8 -25 25.5 -36.5t37.5 -11.5q23 0 39.5 15t16.5 40z" />
    <glyph glyph-name="b" unicode="b" horiz-adv-x="560" 
d="M526 253q0 -52 -18 -98t-49 -80.5t-72.5 -54.5t-89.5 -20q-59 0 -109 31q-17 10 -31 13q-32 7 -55.5 -7t-43.5 -37v562q0 18 -2 33.5t-4 26.5q-5 19 -11 30t-10 17q15 0 35 1t43 4t47 9t46 17v-216q44 23 95 23q48 0 89.5 -20t72.5 -54.5t49 -80.5t18 -99zM202 373
q0 -30 5 -66t16 -74q12 -46 28.5 -84.5t34.5 -66t36.5 -41t34.5 -9.5q15 5 24 26t11 54t-3 74.5t-17 87.5t-29 84.5t-35 65.5t-36 41t-34 10q-17 -5 -26.5 -31.5t-9.5 -67.5v-3z" />
    <glyph glyph-name="c" unicode="c" 
d="M310 306q-29 14 -40 47q20 8 28.5 25.5t8.5 37.5q0 32 -18.5 51t-42.5 19q-31 0 -50 -22t-26.5 -57.5t-4.5 -79.5t15 -88q8 -29 22 -61t34.5 -59t48 -44.5t62.5 -17.5q24 0 46 11t40 35l14 -9q-11 -33 -40.5 -54t-61.5 -31q-20 -6 -41.5 -7.5t-46.5 -1.5q-46 1 -87 21.5
t-71.5 54.5t-48 79.5t-17.5 97.5t17.5 98t47.5 80t71 54.5t88 21.5q26 0 54 -3t53 -14q34 -14 54 -43t20 -61q1 -24 -10 -43.5t-28 -31.5q-22 -15 -50 -15q-23 0 -40 10z" />
    <glyph glyph-name="d" unicode="d" horiz-adv-x="570" 
d="M330 669q15 0 35 1t43 4t47 9t46 17v-550q0 -23 0.5 -44t4.5 -40t13 -35.5t26 -30.5q-16 0 -42.5 7.5t-55 12.5t-53.5 2.5t-37 -22.5v23q-44 -23 -95 -23q-48 0 -89.5 20t-72.5 54.5t-49 80.5t-18 98q0 53 18 99t49 80.5t72.5 54.5t89.5 20q51 0 95 -23v78q0 18 -2 33.5
t-4 26.5q-5 19 -11 30t-10 17zM357 148q-2 28 -6.5 59.5t-13.5 66.5q-12 46 -29 84.5t-35 65.5t-36.5 41t-33.5 10q-16 -4 -25 -25.5t-11 -54.5t3 -74.5t17 -87.5t29 -84.5t35 -66t36.5 -41t33.5 -9.5q16 5 25 27.5t11 58.5v30z" />
    <glyph glyph-name="e" unicode="e" 
d="M250 298h-82q3 -33 16 -75t35.5 -79t54.5 -62t73 -25q23 0 45.5 11t40.5 35l14 -9q-11 -33 -40.5 -54t-61.5 -31q-20 -6 -41.5 -7.5t-46.5 -1.5q-46 1 -87 21.5t-71.5 54.5t-48 79.5t-17.5 97.5t17.5 98t47.5 80t71 54.5t88 21.5q22 0 43.5 -1.5t42 -7t38.5 -16t32 -29.5
q27 -33 24 -75q-2 -21 -12.5 -39t-32.5 -28q-16 -7 -34.5 -9.5t-38 -3.5t-37.5 -0.5t-32 0.5zM192 319q21 0 42 4.5t38 15t28.5 27t13.5 40.5q0 15 -4.5 29t-13.5 25.5t-22 18.5t-28 7q-24 0 -41 -14t-26.5 -36.5t-13 -53t-0.5 -63.5h27z" />
    <glyph glyph-name="f" unicode="f" horiz-adv-x="311" 
d="M316 642q18 -31 13 -67.5t-43 -63.5q-8 16 -33 37.5t-54 37.5q-37 20 -62.5 18.5t-34.5 -15.5q-13 -22 4 -43t47 -38q29 -16 61 -26t52 -10h24v-26h-79v-339q0 -48 10.5 -72.5t16.5 -34.5h-199q16 23 21.5 52t5.5 55v339h-27v26h27v29q0 17 0.5 35t2.5 35q9 71 53 104
q36 25 89 25q35 0 62.5 -16.5t42.5 -41.5z" />
    <glyph glyph-name="g" unicode="g" horiz-adv-x="503" 
d="M367 472q42 -27 66.5 -70t24.5 -94q0 -41 -16.5 -77.5t-45 -63.5t-66 -42.5t-80.5 -15.5q-62 0 -113 31l-62 -82l9 5q34 16 77.5 26t88.5 11q37 1 78.5 -7.5t73.5 -28.5q33 -20 48 -47t16 -55q1 -38 -22 -73.5t-64 -58.5q-34 -19 -74.5 -21t-84.5 -2q-23 0 -46.5 5
t-44 15.5t-36.5 27t-24 40.5q-12 36 3 65t44 38q11 4 24 4q23 0 44 -14q-5 -38 11.5 -70t45.5 -53q42 -33 88 -33q23 0 42 10q20 11 25 34t-12 54q-11 22 -32 38t-46 26.5t-51.5 16.5t-49.5 7q-38 2 -75 -3.5t-65 -22.5l-32 44l87 115q-36 28 -57.5 68.5t-21.5 88.5
q0 41 16.5 77.5t44.5 63.5t66 42.5t81 15.5q28 0 54 -7t49 -19q3 5 6 11t7 12q12 21 27.5 38t39.5 16q19 -1 30 -16t3 -35q-12 3 -25 3t-26 -5q-29 -8 -48 -33zM311 324q-9 36 -22.5 66.5t-28 51.5t-29.5 31.5t-28 7.5q-12 -3 -19.5 -20t-9.5 -42.5t1.5 -58.5t13.5 -69
q9 -36 22.5 -66.5t28 -51.5t29.5 -31.5t27 -7.5q13 3 20.5 20t9.5 42.5t-1.5 58.5t-13.5 69z" />
    <glyph glyph-name="h" unicode="h" horiz-adv-x="506" 
d="M359 497q39 -15 63.5 -55.5t24.5 -103.5v-231q0 -48 10 -72.5t17 -34.5h-198q16 23 21.5 52t5.5 55v232q0 19 -0.5 39.5t-2.5 38.5q-4 27 -17 40t-28 14q-17 0 -31 -14.5t-16 -43.5q-1 -16 -1 -34.5v-39.5v-232q0 -48 10.5 -72.5t16.5 -34.5h-198q16 23 21.5 52t5.5 55
v455q0 18 -2 33.5t-4 26.5q-5 19 -11 30t-10 17q15 0 35 1t43 4t47 9t46 17v-234q15 21 42 30.5t56 9.5q14 0 28.5 -2t25.5 -7z" />
    <glyph glyph-name="i" unicode="i" horiz-adv-x="271" 
d="M209 107q0 -48 10 -72.5t17 -34.5h-198q15 23 21 52t6 55v262q0 18 -2 33.5t-5 26.5q-4 19 -10 30t-10 17q15 0 35 1t43 4t47 9t46 17v-400zM223 613q0 -36 -25 -61t-61 -25t-61.5 25t-25.5 61t25.5 61.5t61.5 25.5t61 -25.5t25 -61.5z" />
    <glyph glyph-name="j" unicode="j" horiz-adv-x="265" 
d="M64 369q0 18 -2 33.5t-4 26.5q-5 19 -10.5 30t-10.5 17q15 0 35 1t43 4t47 9t46 17v-536q0 -46 -12 -77t-32 -50t-45 -27.5t-52 -9.5q-21 -1 -44 4t-43 16t-33 29t-17 38q-4 18 0.5 35.5t15.5 29.5q18 20 46 20q21 0 41 -14t28 -40q-12 -3 -18 -15.5t-7 -26.5
q-2 -20 6 -38.5t25 -20.5q14 -2 25.5 11.5t13.5 43.5q1 29 -8 59t-34 47v384zM223 613q0 -36 -25.5 -61t-61.5 -25q-18 0 -33.5 6.5t-27 18.5t-18.5 27.5t-7 33.5t7 34t18.5 27.5t27 18.5t33.5 7q36 0 61.5 -25.5t25.5 -61.5z" />
    <glyph glyph-name="k" unicode="k" horiz-adv-x="510" 
d="M207 700v-435l45 31q12 9 25 21.5t23 26.5q15 23 13 46t-16 37q-9 8 -21 10.5t-26 -2.5q8 33 33 52.5t63 19.5q37 0 60 -19t25 -45q2 -20 -6.5 -39.5t-25.5 -35.5q-12 -11 -25.5 -20t-26.5 -17q-2 -2 -10.5 -7.5t-19.5 -13.5l100 -203q12 -24 22 -41t20.5 -29t21.5 -20.5
t25 -16.5h-228q11 11 14 23.5t1 27t-7.5 29t-11.5 27.5l-67 139v-139q0 -48 10.5 -72.5t16.5 -34.5h-198q15 23 21 52t6 55v455q0 18 -2 33.5t-5 26.5q-4 19 -10 30t-10 17q15 0 35 1t43 4t47 9t46 17v0z" />
    <glyph glyph-name="l" unicode="l" horiz-adv-x="270" 
d="M36 669q15 0 35 1t43 4t47 9t46 17v-593q0 -48 10.5 -72.5t16.5 -34.5h-198q16 23 21.5 52t5.5 55v455q0 18 -2 33.5t-4 26.5q-5 19 -11 30t-10 17z" />
    <glyph glyph-name="m" unicode="m" horiz-adv-x="748" 
d="M361 497q44 -17 66 -61q5 11 16 24.5t21 21.5q17 13 38.5 18.5t44.5 5.5q30 0 54 -9q39 -15 63.5 -55.5t24.5 -103.5v-231q0 -48 10 -72.5t17 -34.5h-198q16 23 21.5 52t5.5 55v232q0 19 -0.5 39.5t-2.5 38.5q-4 27 -17 40t-28 14q-17 0 -31 -14.5t-16 -43.5
q-1 -16 -1 -34.5v-39.5v-232q0 -48 10 -72.5t17 -34.5h-198q16 23 21.5 52t5.5 55v167v95v10q-1 10 -1 19.5t-2 18.5q-4 27 -17 40t-28 14q-17 0 -31 -14.5t-16 -43.5q-1 -16 -1 -34.5v-39.5v-232q0 -48 10.5 -72.5t16.5 -34.5h-198q15 23 21 52t6 55v262q0 18 -2 33.5
t-5 26.5q-4 19 -10 30t-10 17q15 0 35 1t43 4t47 9t46 17v-41q15 21 42 30.5t56 9.5q30 0 54 -9z" />
    <glyph glyph-name="n" unicode="n" horiz-adv-x="508" 
d="M361 497q39 -15 63.5 -55.5t24.5 -103.5v-231q0 -48 10 -72.5t17 -34.5h-198q16 23 21.5 52t5.5 55v232q0 19 -0.5 39.5t-2.5 38.5q-4 27 -17 40t-29 14q-17 0 -30.5 -14.5t-15.5 -43.5q-1 -16 -1 -34.5v-39.5v-232q0 -48 10 -72.5t17 -34.5h-198q15 23 21 52t6 55v262
q0 18 -2 33.5t-5 26.5q-4 19 -10 30t-10 17q15 0 35 1t43 4t47 9t46 17v-41q15 21 42 30.5t56 9.5q30 0 54 -9z" />
    <glyph glyph-name="o" unicode="o" horiz-adv-x="524" 
d="M491 253q0 -52 -18 -98t-49 -80.5t-73 -54.5t-89 -20t-89 20t-73 54.5t-49 80.5t-18 98q0 53 18 99t49 80.5t73 54.5t89 20t89 -20t73 -54.5t49 -80.5t18 -99zM187 233q12 -46 29 -84.5t35 -65.5t36.5 -40.5t33.5 -9.5t24 25t11.5 54t-2.5 74.5t-17 87.5t-29 84.5t-35 66
t-36.5 41t-33.5 9.5q-16 -4 -25 -25.5t-11 -54t3 -74.5t17 -88z" />
    <glyph glyph-name="p" unicode="p" horiz-adv-x="570" 
d="M240 -162q-15 0 -35 -1t-43 -4t-47 -9t-46 -17v550q0 23 -0.5 44t-5 40t-13 36t-25.5 30q3 0 11.5 -1.5t17.5 -4t18 -4.5t13 -3q8 -2 18 -4t21 -4q14 -2 25.5 -3.5t21.5 -1.5q29 0 67 14q33 12 70 12q47 0 89 -20t73 -54.5t49 -80.5t18 -99q0 -52 -18 -98t-49 -80.5
t-73 -54.5t-89 -20q-51 0 -95 23v-79q0 -30 5.5 -55t21.5 -51zM213 360q1 -56 20 -127q12 -46 29 -84.5t35 -65.5t36.5 -40.5t33.5 -9.5t24.5 25t11.5 54t-3 74.5t-17 87.5t-29 84.5t-35 66t-36.5 41t-33.5 9.5q-17 -5 -25.5 -27.5t-10.5 -57.5v-30z" />
    <glyph glyph-name="q" unicode="q" horiz-adv-x="559" 
d="M33 253q0 53 18 99t49 80.5t72.5 54.5t89.5 20q59 0 109 -31q15 -8 31 -13q32 -7 55.5 7t43.5 37v-563q0 -17 2 -32.5t5 -26.5q4 -19 10 -30t10 -17q-14 0 -34.5 -1t-43.5 -4t-47 -9t-46 -17v216q-44 -23 -95 -23q-48 0 -89.5 20t-72.5 54.5t-49 80.5t-18 98zM357 134
q0 62 -20 140q-12 46 -29 84.5t-35 66t-36.5 41t-33.5 9.5q-16 -4 -25 -25.5t-11 -54t3 -74t17 -87.5t29 -85t35 -66t36.5 -40.5t33.5 -9.5q18 5 27 31t9 66v4z" />
    <glyph glyph-name="r" unicode="r" horiz-adv-x="483" 
d="M209 462q21 18 43 28q36 17 79 17q27 0 51 -8t42.5 -23.5t29 -38t8.5 -51.5q-2 -35 -22 -58t-47 -31q-22 -7 -48.5 -3t-46.5 21q14 11 21 30t7.5 40t-4 41t-14.5 32q-8 11 -20.5 14.5t-29.5 -4.5q-19 -9 -32 -36q-10 -23 -13.5 -49t-3.5 -43v-233q0 -48 10 -72.5
t17 -34.5h-198q15 23 21 52t6 55v262q0 18 -2 33.5t-5 26.5q-4 19 -10 30t-10 17q15 0 35 1t43 4t47 9t46 17v-45z" />
    <glyph glyph-name="s" unicode="s" horiz-adv-x="468" 
d="M188 164q-22 -8 -31 -28t-7 -42q3 -29 25 -53t60 -25q35 -1 56.5 22.5t20.5 57.5q0 18 -5 32.5t-13 27.5q-14 21 -33 40t-42 37q-21 17 -43.5 34.5t-43.5 36.5q-12 11 -25.5 24.5t-25 29t-18 32t-5.5 34.5q3 30 24 49q23 23 62 29q20 4 40.5 5t38.5 1q38 0 73 -5t58 -4
q11 0 20 1t15 6v-195q-10 23 -31.5 57.5t-50.5 64.5q-23 25 -49 41.5t-50 15.5q-16 -1 -23.5 -7.5t-9.5 -15.5q-2 -11 4 -22.5t15.5 -22.5t20.5 -20t19 -16q20 -16 41 -32.5t41 -33.5t39 -34t35 -37q18 -22 30.5 -47t14.5 -54q2 -39 -16.5 -67.5t-48 -46.5t-65.5 -26.5
t-70 -8.5q-19 0 -40 0.5t-41 5.5q-26 5 -49.5 17t-40.5 30q-17 19 -25.5 41.5t-6.5 45.5q2 29 20.5 51.5t56.5 26.5q26 3 48.5 -10.5t30.5 -42.5z" />
    <glyph glyph-name="t" unicode="t" horiz-adv-x="352" 
d="M282 189q38 -27 43 -63.5t-13 -67.5q-15 -25 -42.5 -41.5t-62.5 -16.5q-53 0 -89 25q-44 33 -53 104q-2 16 -2.5 32t-0.5 32v253h-27v26h27v90q0 18 -2 33.5t-4 26.5q-5 19 -11 30t-10 17q15 0 35.5 1t43.5 4t47 9t46 17v-228h79v-26h-79v-227q-14 -5 -28.5 -12
t-29.5 -16q-38 -20 -49 -43t-2 -37t34.5 -15.5t62.5 18.5q29 16 54 37.5t33 37.5z" />
    <glyph glyph-name="u" unicode="u" horiz-adv-x="508" 
d="M148 10q-39 15 -63 55.5t-24 103.5v200q0 18 -2 33.5t-5 26.5q-4 19 -10 30t-10 17q15 0 35 1t43 4t47 9t46 17v-41v-298v-39.5t2 -39.5q4 -26 17.5 -39t28.5 -14q17 0 30.5 14.5t15.5 43.5q1 16 1 34.5v39.5v201q0 38 -6 60q-5 19 -10.5 30t-9.5 17q14 0 34.5 1t43.5 4
t47 9t46 17v-369q0 -37 6 -60q5 -19 10.5 -30t10.5 -17q-15 0 -35 -1t-43.5 -4t-47.5 -9t-46 -17v41q-15 -21 -41.5 -31t-55.5 -10q-15 0 -29 2.5t-26 7.5z" />
    <glyph glyph-name="v" unicode="v" horiz-adv-x="486" 
d="M189 0l-119 413q-10 35 -28 60.5t-40 33.5h235q-24 -8 -27 -35.5t6 -58.5l86 -318q8 17 18 35.5t20 40.5q14 31 22.5 71t5.5 80.5t-22 76t-60 56.5q11 32 39.5 49.5t58.5 15.5q25 -2 47 -18t28 -49q3 -20 1 -41t-7 -41q-8 -30 -22 -59.5t-25 -54.5l-119 -257h-98z" />
    <glyph glyph-name="w" unicode="w" horiz-adv-x="750" 
d="M287 0h-98l-119 413q-10 35 -28.5 60.5t-39.5 33.5h235q-24 -8 -27 -35.5t5 -58.5l87 -318q8 17 18 35.5t20 40.5q11 25 19 57t10 65l-35 120q-10 35 -28.5 60.5t-39.5 33.5h235q-24 -8 -27 -35.5t5 -58.5l87 -318q8 17 18 35.5t20 40.5q14 31 22.5 71t5.5 80.5t-22 76
t-60 56.5q11 32 39.5 49.5t58.5 15.5q25 -2 47 -18t27 -49q4 -20 2 -41t-7 -41q-8 -30 -22 -59.5t-25 -54.5l-119 -257h-98l-64 222z" />
    <glyph glyph-name="x" unicode="x" horiz-adv-x="503" 
d="M401 313l-60 -60q-3 -2 -9 -8l69 -142q7 -14 16.5 -31t20.5 -32t24 -26t26 -14h-239q23 14 22 37.5t-17 55.5l-70 145l-5 -5t-7 -6q-23 -20 -31.5 -48.5t-6 -56.5t15.5 -50t32 -29q-4 -14 -12.5 -25t-19.5 -18q-21 -14 -48 -12q-21 1 -38 12q-5 4 -9.5 8t-8.5 9
q-15 20 -17.5 48.5t9.5 54.5q8 20 28 38.5t37 35.5l27 27t34 32q2 3 8 9l-69 142q-7 14 -16 31t-20.5 32t-24 26t-25.5 14h239q-23 -13 -22.5 -36.5t16.5 -57.5l70 -144q3 2 6 5t6 5q23 21 32 49.5t6.5 56.5t-15 50t-32.5 29q4 14 12 24.5t19 18.5q23 14 48 12
q19 -2 32 -8.5t24 -20.5q16 -20 18 -48.5t-9 -54.5q-9 -20 -29 -38.5t-37 -35.5z" />
    <glyph glyph-name="y" unicode="y" horiz-adv-x="486" 
d="M261 0h-72l-119 413q-10 35 -28 60.5t-40 33.5h235q-24 -8 -27 -35.5t6 -58.5l86 -318q9 17 17.5 35.5t18.5 40.5q15 33 24 74t6 80.5t-22 74t-60 55.5q11 32 40 49.5t58 15.5q25 -2 47 -18t28 -49q3 -20 1 -41.5t-7 -40.5q-8 -30 -22 -59.5t-25 -54.5l-119 -257l-21 -51
q-11 -26 -23 -51t-28.5 -45.5t-38.5 -33t-54 -12.5q-30 0 -53 16t-33.5 40t-6 51.5t30.5 50.5q14 -24 37.5 -35.5t50.5 -10.5q32 0 61.5 15.5t42.5 44.5z" />
    <glyph glyph-name="z" unicode="z" horiz-adv-x="464" 
d="M213 486l-14 -1q-34 0 -57.5 -13t-39.5 -34t-27.5 -48t-21.5 -56v174h375q0 -39 -14.5 -73t-37 -66.5t-50.5 -63.5t-55 -63q-21 -24 -39.5 -49t-33 -52t-23 -56.5t-8.5 -61.5h28q34 -1 60 11t41 32.5t18 46.5t-9 52q20 13 41.5 14.5t39.5 -6.5q20 -8 32.5 -25.5
t13.5 -42.5q0 -26 -14.5 -50.5t-41.5 -37.5q-20 -11 -42.5 -14t-45.5 -3h-62.5h-67t-65 0.5t-55.5 0.5q0 58 13.5 105.5t34.5 87.5t47 73t51 62q20 22 37.5 42t31 39t21.5 38t8 38h-69z" />
    <glyph glyph-name="braceleft" unicode="{" horiz-adv-x="337" 
d="M304 686q-43 1 -62 -26t-17 -69q2 -31 6.5 -69t5 -76.5t-5 -73t-25.5 -60.5q-18 -25 -49.5 -42t-71.5 -17q40 0 71.5 -17t49.5 -41q20 -26 25.5 -61t5 -73.5t-5 -76.5t-6.5 -69q-2 -42 17 -69t62 -27v-12h-29q-98 0 -140 46q-41 45 -35 144q1 15 4 36t4.5 45t0 48
t-7.5 43q-6 20 -20 32.5t-39 12.5v78q25 0 39 13t20 33q6 19 7.5 42.5t0 47.5t-4.5 45t-4 36q-6 99 35 144q42 46 140 46h29v-13z" />
    <glyph glyph-name="bar" unicode="|" horiz-adv-x="247" 
d="M64 -193v893h118v-893h-118z" />
    <glyph glyph-name="braceright" unicode="}" horiz-adv-x="337" 
d="M33 700h28q98 0 141 -45q40 -46 34 -145q-1 -15 -3.5 -36t-4 -45t-0.5 -47.5t7 -42.5q7 -20 21 -33t39 -13v-78q-25 0 -39 -13t-21 -33q-6 -19 -7 -42.5t0.5 -47.5t4 -45t3.5 -36q3 -50 -5 -85.5t-29 -58.5q-43 -46 -141 -46h-28v13q42 -1 61.5 26t17.5 69q-1 31 -6 69
t-6 76.5t5 73.5t25 60q18 25 49.5 42t72.5 17q-41 0 -72.5 17t-49.5 42q-19 26 -25 60.5t-5 73t6 76.5t6 69q2 42 -17.5 69t-61.5 26v13z" />
    <glyph glyph-name="asciitilde" unicode="~" horiz-adv-x="530" 
d="M27 321q11 32 31.5 57t48 40.5t61 19.5t70.5 -7q5 -1 10 -2.5t11 -3.5q32 -11 63.5 -26.5t62 -24.5t58 -4.5t51.5 34.5l9 -24q-11 -32 -32 -57t-48.5 -40.5t-61 -19.5t-69.5 6q-6 2 -11 3t-10 3q-32 11 -64.5 26.5t-62.5 24t-58 4t-51 -34.5z" />
    <glyph glyph-name="uni00A0" unicode="&#xa0;" horiz-adv-x="343" 
 />
    <glyph glyph-name="exclamdown" unicode="&#xa1;" horiz-adv-x="262" 
d="M32 -193l58 499h81l59 -499h-198zM131 507q36 0 61.5 -22.5t25.5 -53.5q0 -32 -25.5 -54t-61.5 -22t-61.5 22t-25.5 54q0 31 25.5 53.5t61.5 22.5z" />
    <glyph glyph-name="cent" unicode="&#xa2;" horiz-adv-x="507" 
d="M371 322q-6 19 -14 35.5t-16 31.5l-111 -307q25 -32 52 -47t52 -8q19 5 35 17t29.5 28.5t24 35t18.5 35.5v-91q-23 -23 -51.5 -34t-57.5 -15q-27 -3 -59 -3q-34 0 -69 11l-38 -107h-81l52 145q-44 35 -69.5 88t-25.5 117q0 75 35.5 135t92.5 91q24 14 50 20t52 7h15
t15 -1l35 97h81l-40 -112q33 -13 57 -38q31 -34 26 -64.5t-32 -48.5q-22 -15 -58 -18zM285 458q-18 15 -36.5 21t-36.5 1q-22 -6 -37.5 -29t-22 -58t-4.5 -78.5t15 -90.5q8 -28 18 -54z" />
    <glyph glyph-name="sterling" unicode="&#xa3;" horiz-adv-x="576" 
d="M49 0q54 55 72.5 108t15.5 104h-88l43 75h33q-10 41 -24 79.5t-25 76.5q-15 53 -12.5 99.5t24.5 81.5t63.5 55.5t104.5 20.5h13q38 -2 71 -10.5t61 -26.5q35 -22 58.5 -55t26.5 -75q2 -25 -5.5 -47t-22 -39.5t-35 -28t-45.5 -12.5q-35 -2 -65.5 16t-42.5 63
q21 -4 36.5 3.5t26 22.5t15.5 34.5t5 40.5q-1 23 -9.5 41t-21.5 30t-28 18t-29 6q-37 0 -55 -24.5t-23 -59t-1.5 -71.5t8.5 -62q11 -49 25.5 -92.5t22.5 -84.5h178l-43 -75h-129q-3 -47 -33.5 -93.5t-106.5 -96.5h141q38 0 81.5 17t83.5 47q44 32 76 76q29 -14 40 -40t6 -53
q-5 -28 -27 -48.5t-58 -20.5h-402z" />
    <glyph glyph-name="currency" unicode="&#xa4;" horiz-adv-x="593" 
d="M552 533l-79 -79q25 -44 25 -96q0 -51 -25 -95l79 -80l-81 -81l-79 79q-22 -11 -46 -17.5t-50 -6.5t-50 6.5t-46 17.5l-79 -79l-81 81l79 80q-11 21 -17.5 45t-6.5 50t6.5 50.5t17.5 45.5l-79 79l81 81l79 -79q45 25 96 25t96 -25l79 79zM296 253q22 0 41 8.5t33.5 22.5
t23 33t8.5 41t-8.5 41.5t-23 33.5t-33.5 22.5t-41 8.5t-41 -8.5t-33 -22.5t-22.5 -33.5t-8.5 -41.5t8.5 -41t22.5 -33t33 -22.5t41 -8.5z" />
    <glyph glyph-name="yen" unicode="&#xa5;" horiz-adv-x="597" 
d="M226 287l-134 320q-17 42 -37.5 63.5t-40.5 29.5h210q-17 -11 -12 -32.5t17 -52.5l129 -328q16 31 33 60t32 67t20 75t-3 67.5t-30 50.5t-61 23q18 45 43.5 65.5t70.5 20.5q21 0 40 -9.5t30 -24.5q9 -13 14 -28.5t4 -31.5q-1 -19 -6 -37.5t-13 -36.5q-12 -30 -29 -62.5
t-35 -66t-36.5 -67t-34.5 -65.5h112v-75h-126v-35h126v-75h-126q1 -45 10.5 -69t15.5 -33h-197q14 21 20 48.5t6 53.5h-125v75h125v35h-125v75h113z" />
    <glyph glyph-name="brokenbar" unicode="&#xa6;" horiz-adv-x="253" 
d="M54 700h144v-344h-144v344zM198 151v-344h-144v344h144z" />
    <glyph glyph-name="section" unicode="&#xa7;" horiz-adv-x="592" 
d="M173 105q26 -5 46.5 -22.5t28.5 -48.5q-27 -8 -42 -28.5t-19 -43.5q-4 -24 2.5 -48t21 -42.5t36 -30t46.5 -11.5q32 0 54 10.5t36 28.5q34 45 29 82.5t-29.5 69.5t-59 57.5t-60.5 46.5q-35 29 -74 57t-68 60q-22 24 -36 53.5t-16.5 59.5t8.5 59t38 53l3 3
q-20 24 -31 51.5t-9 55.5q1 26 10.5 47t26.5 36t38 23.5t43.5 12.5t45.5 4h45q51 -1 93 -9t72 -7q30 0 47 14v-191q-25 28 -52.5 58.5t-55 56t-55 42t-53.5 16.5q-32 0 -49 -13t-21 -32q-3 -17 3 -36t22 -38q26 -29 60.5 -55t66.5 -52t63.5 -53t57.5 -61q29 -36 42.5 -74
t11.5 -75q-2 -46 -27 -86q29 -53 27 -107q-2 -49 -30 -91.5t-82 -71.5q-29 -15 -63.5 -22t-71.5 -6q-38 0 -80 7.5t-69 21.5q-29 15 -52 38.5t-36 52.5q-14 35 -10 72t24 64q17 23 43 36t60 6zM156 431q3 -36 23.5 -64t51 -50.5t67 -42t71 -40t63.5 -42.5t44 -50
q-2 38 -21 67.5t-48 54.5t-64 45.5t-70 40t-66 39.5t-51 42z" />
    <glyph glyph-name="dieresis" unicode="&#xa8;" horiz-adv-x="431" 
d="M201 624q0 -31 -25.5 -53.5t-61.5 -22.5t-61.5 22.5t-25.5 53.5q0 32 25.5 54t61.5 22t61.5 -22t25.5 -54zM404 624q0 -31 -25.5 -53.5t-61.5 -22.5t-61.5 22.5t-25.5 53.5q0 32 25.5 54t61.5 22t61.5 -22t25.5 -54z" />
    <glyph glyph-name="copyright" unicode="&#xa9;" horiz-adv-x="615" 
d="M387 396q-9 26 -22 46.5t-27 34.5t-28.5 20.5t-27.5 2.5q-15 -4 -25.5 -19.5t-15 -38.5t-3 -52t10.5 -60q8 -31 21 -57t28.5 -43.5t32 -25.5t31.5 -4q26 7 43 30.5t28 46.5v-60q-16 -15 -35 -22.5t-38 -10.5q-8 -1 -17.5 -1.5t-20.5 -0.5q-32 0 -60 13.5t-48.5 36
t-32.5 53.5t-12 65q0 50 23.5 90t61.5 60q30 16 67 18q17 0 33.5 -2t32.5 -7q11 -5 22 -11t20 -16q20 -23 17 -43t-21 -32q-8 -5 -17.5 -8t-20.5 -3zM307 615q56 0 104 -20.5t84 -56.5t57 -84.5t21 -103.5t-21 -103t-57 -85q-36 -35 -84 -56t-104 -21q-55 0 -103 21t-84 56
q-36 37 -57 85t-21 103t21 103.5t57 84.5t84 56.5t103 20.5zM476 519q-32 32 -75.5 50.5t-93.5 18.5q-49 0 -92.5 -18.5t-75.5 -50.5q-32 -33 -51 -76t-19 -93t19 -93t51 -75q32 -33 75.5 -51.5t92.5 -18.5q50 0 93.5 18.5t75.5 51.5q32 32 51 75t19 93t-19 93t-51 76z" />
    <glyph glyph-name="ordfeminine" unicode="&#xaa;" horiz-adv-x="354" 
d="M293 576v-96q0 -31 2.5 -57t24.5 -44q-20 5 -39 9t-34.5 5.5t-27.5 -1.5t-18 -13v56q-3 -16 -11 -26.5t-19.5 -17t-23.5 -9.5t-23 -3q-41 0 -63.5 23.5t-24.5 55.5q-2 28 12 51q11 20 26.5 30t32.5 18q20 8 40.5 17t34.5 24q19 19 19 48q0 12 -5.5 27.5t-24.5 15.5
q-13 0 -20.5 -10t-8.5 -23t3.5 -25.5t15.5 -18.5q-4 -12 -11.5 -20t-17 -11t-19.5 -2.5t-19 4.5q-13 7 -20 19.5t-5 29.5q2 16 12.5 31t25.5 23q14 7 31.5 10.5t31.5 3.5q67 0 95 -33.5t28 -90.5zM178 440q10 3 16.5 11.5t6.5 21.5v129q-3 -12 -10.5 -21.5t-16.5 -18.5
l-18.5 -18.5t-17.5 -20.5q-10 -13 -12.5 -27.5t0.5 -27.5q5 -20 21.5 -26.5t30.5 -1.5z" />
    <glyph glyph-name="guillemotleft" unicode="&#xab;" horiz-adv-x="524" 
d="M288 93v-32l-259 172v41l259 172v-32l-123 -160zM489 93v-32l-259 172v41l259 172v-32l-123 -160z" />
    <glyph glyph-name="uni00AD" unicode="&#xad;" horiz-adv-x="0" 
 />
    <glyph glyph-name="registered" unicode="&#xae;" horiz-adv-x="615" 
d="M183 183q8 11 10.5 24.5t2.5 26.5v233q0 12 -2.5 26t-10.5 25h149q32 0 55.5 -23.5t23.5 -55.5q0 -12 -3.5 -22.5t-8.5 -20.5q-13 -22 -37 -29q-5 -2 -9 -3t-9 -2q24 -1 39 -15q11 -11 14.5 -27t5 -33.5t2 -35t3.5 -31.5q2 -12 7.5 -22t15.5 -15q-8 0 -17.5 -0.5
t-19.5 0.5q-24 1 -37 10t-18 23q-6 16 -6 36v41l-2.5 25t-9.5 25q-7 10 -18 9q-10 0 -19 -6q-6 -4 -11 -10t-8 -12v-90q0 -13 2.5 -26.5t10.5 -24.5h-95zM307 615q55 0 103.5 -20.5t84.5 -56.5t57 -84.5t21 -103.5t-21 -103t-57 -85q-36 -35 -84.5 -56t-103.5 -21t-103 21
t-84 56q-36 37 -57 85t-21 103t21 103.5t57 84.5t84 56.5t103 20.5zM476 519q-32 32 -75.5 50.5t-93.5 18.5t-93 -18.5t-75 -50.5q-32 -33 -51 -76t-19 -93t19 -93t51 -75t75 -51t93 -19t93.5 19t75.5 51t51 75t19 93t-19 93t-51 76zM265 340q3 8 9.5 14.5t14.5 12.5
q9 8 17 13t14 10q12 10 17.5 25.5t4.5 31.5q-2 26 -15 42q-4 4 -8 7.5t-9 5.5t-11 4t-13 2h-21v-168z" />
    <glyph glyph-name="macron" unicode="&#xaf;" horiz-adv-x="412" 
d="M25 571v106h361v-106h-361z" />
    <glyph glyph-name="degree" unicode="&#xb0;" horiz-adv-x="232" 
d="M116 700q18 0 33.5 -7t27 -18.5t18.5 -27t7 -33.5t-7 -34t-18.5 -27.5t-27 -18.5t-33.5 -7q-36 0 -61.5 25.5t-25.5 61.5q0 18 7 33.5t18.5 27t27.5 18.5t34 7zM116 655q-17 0 -29.5 -12t-12.5 -29q0 -18 12.5 -30t29.5 -12t29 12t12 30q0 17 -12 29t-29 12z" />
    <glyph glyph-name="plusminus" unicode="&#xb1;" horiz-adv-x="575" 
d="M228 603h118v-194h194v-118h-194v-194h-118v194h-194v118h194v194zM34 -118v118h506v-118h-506z" />
    <glyph glyph-name="twosuperior" unicode="&#xb2;" horiz-adv-x="290" 
d="M140 385q-27 6 -51.5 8t-50.5 -14v22q11 11 21.5 23t21.5 24q26 27 49 63q11 18 21 37.5t17 39.5q4 12 7 29.5t1.5 34t-10.5 28t-29 11.5q-13 0 -26 -11t-14 -32q0 -19 9.5 -35t28.5 -12q-5 -20 -19 -28.5t-30 -7.5q-23 2 -37.5 18.5t-12.5 39.5q2 20 12.5 35t26.5 25
q27 17 67 17q38 0 63 -15q17 -10 29.5 -29t11.5 -48q-1 -27 -16 -53.5t-32 -45.5q-17 -17 -37.5 -32.5t-43.5 -32.5q-17 -12 -33.5 -21t-31.5 -21q38 23 68 26q8 0 23.5 2t31.5 6.5t30 13t18 22.5q17 -6 24 -27t0 -37q-5 -12 -17.5 -20.5t-34.5 -8.5q-15 0 -29.5 2t-25.5 4z
" />
    <glyph glyph-name="threesuperior" unicode="&#xb3;" horiz-adv-x="295" 
d="M170 582q13 -3 24.5 -7.5t20.5 -11.5q20 -13 30.5 -33.5t12.5 -43.5q1 -24 -9.5 -47t-31.5 -38q-31 -22 -75 -22q-21 0 -42.5 6t-37.5 21q-14 14 -21 33t-5 38q3 21 13.5 35t24.5 22q23 12 48.5 4t34.5 -39q-20 5 -33.5 -2.5t-21.5 -20.5q-7 -12 -7.5 -27.5t5 -28.5
t16.5 -22t26 -9q29 0 40 27.5t9 61.5q-2 29 -15 53t-38 31l78 110q-29 -26 -54 -37q-17 -6 -31 -8.5t-27 -0.5q-22 4 -35 22t-13 52q15 -6 40 -8.5t52.5 -2.5t52.5 3t39 8v-22z" />
    <glyph glyph-name="acute" unicode="&#xb4;" horiz-adv-x="246" 
d="M23 548l54 152h152l-126 -152h-80z" />
    <glyph glyph-name="periodcentered" unicode="&#xb7;" horiz-adv-x="229" 
d="M201 350q0 -31 -25.5 -53.5t-61.5 -22.5t-61.5 22.5t-25.5 53.5q0 32 25.5 54t61.5 22t61.5 -22t25.5 -54z" />
    <glyph glyph-name="cedilla" unicode="&#xb8;" horiz-adv-x="239" 
d="M218 -100q0 -37 -31 -65q-17 -15 -43.5 -21.5t-54.5 -6.5q-20 0 -37.5 3t-31.5 9l14 26q24 -5 41 6t23.5 27.5t1 33t-26.5 21.5l65 83h43l-31 -42q17 -4 30.5 -10.5t21.5 -16.5q16 -19 16 -47z" />
    <glyph glyph-name="onesuperior" unicode="&#xb9;" horiz-adv-x="188" 
d="M137 428q0 -21 4.5 -32.5t7.5 -16.5h-91q8 11 10 24t2 25v203l-35 -15v31q17 8 31.5 23.5t20.5 29.5h50v-272z" />
    <glyph glyph-name="ordmasculine" unicode="&#xba;" horiz-adv-x="328" 
d="M222 554q-8 29 -20 52.5t-25 40.5t-26.5 25t-25.5 5t-19.5 -16.5t-10 -34t0 -46.5t10.5 -54t20 -52t25 -41t26.5 -25t25.5 -5t19.5 16t10 33.5t0 47t-10.5 54.5zM38 540q0 33 10 62t27 51t40 34.5t49 12.5t49 -12.5t40 -34.5t27 -51t10 -62t-10 -62.5t-27 -51.5
t-40 -34.5t-49 -12.5t-49 12.5t-40 34.5t-27 51.5t-10 62.5z" />
    <glyph glyph-name="guillemotright" unicode="&#xbb;" horiz-adv-x="524" 
d="M358 254l-122 160v32l258 -172v-41l-258 -172v32zM158 254l-123 160v32l259 -172v-41l-259 -172v32z" />
    <glyph glyph-name="questiondown" unicode="&#xbf;" horiz-adv-x="496" 
d="M284 306q10 -37 7 -63.5t-14 -49.5q-11 -24 -26 -45t-29 -41q-18 -25 -32.5 -50.5t-22 -52.5t-6.5 -55.5t14 -60.5q11 -26 31 -44.5t52 -17.5q14 0 29 6.5t28 18.5t21 29.5t9 40.5q1 21 -4 40.5t-15.5 34.5t-26.5 22.5t-37 3.5q13 45 43.5 63t64.5 16q25 -2 46 -12.5
t35.5 -27.5t22 -39t5.5 -47q-4 -43 -27 -76t-58 -55q-30 -20 -66.5 -28.5t-79.5 -8.5q-45 0 -76.5 6t-60.5 23q-46 27 -68 66t-22 82q0 37 16 73.5t46 68.5q23 23 47.5 44.5t44.5 44.5q18 20 29.5 42t12.5 49h67zM163 431q0 31 25.5 53.5t61.5 22.5t61.5 -22.5t25.5 -53.5
q0 -32 -25.5 -54t-61.5 -22t-61.5 22t-25.5 54z" />
    <glyph glyph-name="Agrave" unicode="&#xc0;" horiz-adv-x="549" 
d="M307 700l183 -603q5 -15 11 -30.5t13.5 -29t17 -24t20.5 -13.5h-214q13 11 17 24.5t3 28.5t-6 31l-10 32q-2 8 -4.5 16t-4.5 16h-137q-38 0 -64.5 -15t-34.5 -44v1q-2 -5 -3 -9.5t-3 -9.5q-7 -24 -6 -42t17 -29h-100q24 14 40 42t24 54l187 604h54zM300 741l-126 152h152
l54 -152h-80zM225 507q-20 -68 -35.5 -119t-28 -91l-22.5 -72t-19 -61q14 19 33.5 27.5t39.5 8.5h124q-20 69 -44.5 148t-47.5 159z" />
    <glyph glyph-name="Aacute" unicode="&#xc1;" horiz-adv-x="549" 
d="M307 700l183 -603q5 -15 11 -30.5t13.5 -29t17 -24t20.5 -13.5h-214q13 11 17 24.5t3 28.5t-6 31l-10 32q-2 8 -4.5 16t-4.5 16h-137q-38 0 -64.5 -15t-34.5 -44v1q-2 -5 -3 -9.5t-3 -9.5q-7 -24 -6 -42t17 -29h-100q24 14 40 42t24 54l187 604h54zM174 741l55 152h151
l-125 -152h-81zM225 507q-20 -68 -35.5 -119t-28 -91l-22.5 -72t-19 -61q14 19 33.5 27.5t39.5 8.5h124q-20 69 -44.5 148t-47.5 159z" />
    <glyph glyph-name="Acircumflex" unicode="&#xc2;" horiz-adv-x="549" 
d="M307 700l183 -603q5 -15 11 -30.5t13.5 -29t17 -24t20.5 -13.5h-214q13 11 17 24.5t3 28.5t-6 31l-10 32q-2 8 -4.5 16t-4.5 16h-137q-38 0 -64.5 -15t-34.5 -44v1q-2 -5 -3 -9.5t-3 -9.5q-7 -24 -6 -42t17 -29h-100q24 14 40 42t24 54l187 604h54zM118 741l95 152h129
l94 -152h-79l-80 84l-80 -84h-79zM225 507q-20 -68 -35.5 -119t-28 -91l-22.5 -72t-19 -61q14 19 33.5 27.5t39.5 8.5h124q-20 69 -44.5 148t-47.5 159z" />
    <glyph glyph-name="Atilde" unicode="&#xc3;" horiz-adv-x="549" 
d="M307 700l184 -603q5 -15 10.5 -30.5t13 -29t17 -24t20.5 -13.5h-214q13 11 17 24.5t3 28.5t-6 31l-10 32q-2 8 -4.5 16t-4.5 16h-137q-38 0 -64.5 -15t-34.5 -44v1q-4 -11 -5 -19q-8 -24 -7 -42t17 -29h-100q24 14 40 42t24 54l187 604h54zM100 815q8 21 23.5 37.5t36 27
t45.5 13t52 -4.5q4 -1 7.5 -2t8.5 -3q24 -7 47.5 -17t46 -15.5t43 -2.5t38.5 22l6 -16q-8 -21 -23.5 -37.5t-36 -27t-45 -13.5t-51.5 4q-5 2 -8.5 2.5t-7.5 2.5q-24 7 -48 17.5t-46.5 16t-43.5 2.5t-38 -23zM225 507q-20 -68 -35.5 -119t-28 -91t-23 -72t-19.5 -61
q15 19 34.5 27.5t39.5 8.5h124q-20 69 -44.5 148t-47.5 159z" />
    <glyph glyph-name="Adieresis" unicode="&#xc4;" horiz-adv-x="549" 
d="M307 700l184 -603q5 -15 10.5 -30.5t13 -29t17 -24t20.5 -13.5h-214q13 11 17 24.5t3 28.5t-6 31l-10 32q-2 8 -4.5 16t-4.5 16h-137q-38 0 -64.5 -15t-34.5 -44v1q-4 -11 -5 -19q-8 -24 -7 -42t17 -29h-100q24 14 40 42t24 54l187 604h54zM263 817q0 -31 -25.5 -53.5
t-61.5 -22.5t-61.5 22.5t-25.5 53.5q0 32 25.5 54t61.5 22t61.5 -22t25.5 -54zM466 817q0 -31 -25.5 -53.5t-61.5 -22.5t-61.5 22.5t-25.5 53.5q0 32 25.5 54t61.5 22t61.5 -22t25.5 -54zM225 507q-20 -68 -35.5 -119t-28 -91t-23 -72t-19.5 -61q15 19 34.5 27.5t39.5 8.5
h124q-20 69 -44.5 148t-47.5 159z" />
    <glyph glyph-name="Aring" unicode="&#xc5;" horiz-adv-x="549" 
d="M307 700l183 -603q5 -15 11 -30.5t13.5 -29t17 -24t20.5 -13.5h-214q13 11 17 24.5t3 28.5t-6 31l-10 32q-2 8 -4.5 16t-4.5 16h-137q-38 0 -64.5 -15t-34.5 -44v1q-2 -5 -3 -9.5t-3 -9.5q-7 -24 -6 -42t17 -29h-100q24 14 40 42t24 54l187 604h54zM277 848
q-17 0 -29.5 -12t-12.5 -29q0 -18 12.5 -30t29.5 -12t29.5 12t12.5 30q0 17 -12.5 29t-29.5 12zM277 893q18 0 34 -7t27.5 -18.5t18.5 -27t7 -33.5q0 -36 -25.5 -61.5t-61.5 -25.5t-61.5 25.5t-25.5 61.5q0 18 7 33.5t18.5 27t27.5 18.5t34 7zM225 507q-20 -68 -35.5 -119
t-28 -91t-23 -72t-19.5 -61q15 19 34.5 27.5t39.5 8.5h124q-20 69 -44.5 148t-47.5 159z" />
    <glyph glyph-name="AE" unicode="&#xc6;" horiz-adv-x="850" 
d="M376 148h-126q-37 0 -67.5 -15t-46.5 -44v1q-3 -5 -5.5 -9.5t-5.5 -9.5q-14 -24 -15 -40t7 -31h-118q13 6 25 16.5t23 24t20.5 28t16.5 27.5l281 505q8 14 8.5 29t-4.5 30q-3 11 -8.5 21.5t-11.5 18.5h434l21 -164q-8 33 -28.5 59t-47.5 44.5t-58.5 28.5t-61.5 10h-88
v-216q7 10 17.5 14.5t24.5 6.5q15 2 34.5 -1t39.5 -7q32 -6 62.5 -6.5t51.5 20.5q20 -32 15.5 -60t-24.5 -45q-22 -18 -57 -18.5t-70 25.5q-19 13 -40 33q-9 7 -17.5 12.5t-17.5 7.5q-19 7 -19 -22v-400h8q37 0 80.5 17t83.5 47q45 33 75 76q29 -14 40.5 -40t6.5 -53
q-6 -28 -27.5 -48.5t-57.5 -20.5h-380q16 23 21.5 52t5.5 55v41zM376 527q-38 -68 -67.5 -122.5t-52.5 -98t-42 -78.5t-36 -64q20 19 42 27.5t42 8.5h114v327z" />
    <glyph glyph-name="Ccedilla" unicode="&#xc7;" horiz-adv-x="642" 
d="M420 -100q0 -37 -30 -65q-17 -15 -43.5 -21.5t-54.5 -6.5q-20 0 -38 3t-31 10l14 25q24 -5 40.5 6t23 27.5t1 33t-26.5 21.5l53 68q-62 5 -116 34t-94 76t-63 108.5t-23 130.5q0 51 13 98.5t36 88t56 73t72 54.5q66 34 142 36q35 1 70 -3t67 -15q24 -9 46 -22.5t40 -33.5
q21 -23 30 -46t7 -43.5t-13.5 -37.5t-30.5 -29q-33 -22 -80 -25q-19 54 -45.5 98t-55.5 73t-59.5 42.5t-58.5 5.5q-31 -9 -52.5 -41t-31 -80t-6 -108.5t20.5 -125.5t44.5 -119t60 -90.5t67 -54t65.5 -8.5q26 7 48.5 24t41 39.5t33 48t25.5 48.5v-125q-33 -32 -73 -47.5
t-79 -20.5q-14 -2 -29 -2.5t-32 -1.5l-18 -26q16 -4 29.5 -10.5t21.5 -16.5q16 -19 16 -47z" />
    <glyph glyph-name="Egrave" unicode="&#xc8;" horiz-adv-x="545" 
d="M44 0q16 23 21.5 52t5.5 55v486q0 26 -5.5 55t-21.5 52h434l21 -164q-8 33 -28.5 59t-47.5 44.5t-58.5 28.5t-61.5 10h-88v-216q7 10 17.5 14.5t24.5 6.5q15 2 34.5 -1t39.5 -7q32 -6 62.5 -6.5t51.5 20.5q20 -32 15.5 -60t-24.5 -45q-22 -18 -57 -18.5t-70 25.5
q-11 8 -20.5 16t-19.5 17q-9 7 -17.5 12.5t-17.5 8.5q-19 5 -19 -23v-400h7q38 0 81.5 17t83.5 47q45 33 75 76q30 -14 41 -40t6 -53q-5 -28 -27 -48.5t-58 -20.5h-380zM300 741l-125 152h151l54 -152h-80z" />
    <glyph glyph-name="Eacute" unicode="&#xc9;" horiz-adv-x="545" 
d="M44 0q15 23 21 52t6 55v486q0 26 -6 55t-21 52h434l21 -164q-8 33 -28.5 59t-47.5 44.5t-58.5 28.5t-61.5 10h-88v-216q7 10 17.5 14.5t24.5 6.5q15 2 34 -1t40 -7q32 -6 62.5 -6.5t51.5 20.5q20 -32 15.5 -60t-24.5 -45q-22 -18 -57 -18.5t-70 25.5q-11 8 -20.5 16
t-19.5 17q-9 7 -17.5 12.5t-17.5 8.5q-19 5 -19 -23v-400h7q38 0 81.5 17t83.5 47q45 33 75 76q29 -14 40 -40t6 -53q-5 -28 -26.5 -48.5t-57.5 -20.5h-380zM174 741l55 152h151l-125 -152h-81z" />
    <glyph glyph-name="Ecircumflex" unicode="&#xca;" horiz-adv-x="545" 
d="M44 0q15 23 21 52t6 55v486q0 26 -6 55t-21 52h434l21 -164q-8 33 -28.5 59t-47.5 44.5t-58.5 28.5t-61.5 10h-88v-216q7 10 17.5 14.5t23.5 6.5q16 2 35 -1t40 -7q32 -6 62.5 -6.5t51.5 20.5q20 -32 15.5 -60t-24.5 -45q-22 -18 -57 -18.5t-70 25.5q-11 8 -20.5 16
t-19.5 17q-9 7 -17.5 12.5t-17.5 8.5q-19 5 -19 -23v-400h7q38 0 81.5 17t83.5 47q21 16 40.5 35t34.5 41q29 -14 40 -40t6 -53q-5 -28 -26.5 -48.5t-57.5 -20.5h-380zM118 741l95 152h128l95 -152h-79l-80 84l-80 -84h-79z" />
    <glyph glyph-name="Edieresis" unicode="&#xcb;" horiz-adv-x="545" 
d="M44 0q15 23 21 52t6 55v486q0 26 -6 55t-21 52h434l21 -164q-8 33 -28.5 59t-47.5 44.5t-58.5 28.5t-61.5 10h-88v-216q7 10 17.5 14.5t23.5 6.5q16 2 35 -1t40 -7q32 -6 62.5 -6.5t51.5 20.5q20 -32 15.5 -60t-24.5 -45q-22 -18 -57 -18.5t-70 25.5q-11 8 -20.5 16
t-19.5 17q-9 7 -17.5 12.5t-17.5 8.5q-19 5 -19 -23v-400h7q38 0 81.5 17t83.5 47q21 16 40.5 35t34.5 41q29 -14 40 -40t6 -53q-5 -28 -26.5 -48.5t-57.5 -20.5h-380zM263 817q0 -31 -25.5 -53.5t-61.5 -22.5t-61.5 22.5t-25.5 53.5q0 32 25.5 54t61.5 22t61.5 -22
t25.5 -54zM465 817q0 -31 -25 -53.5t-62 -22.5q-18 0 -33.5 6t-27.5 16.5t-19 24.5t-7 29q0 32 26 54t61 22q37 0 62 -22t25 -54z" />
    <glyph glyph-name="Igrave" unicode="&#xcc;" horiz-adv-x="286" 
d="M44 0q15 23 21 52t6 55v486q0 26 -6 55t-21 52h198q-7 -9 -17 -34t-10 -73v-486q0 -48 10 -73t17 -34h-198zM165 741l-125 152h151l55 -152h-81z" />
    <glyph glyph-name="Iacute" unicode="&#xcd;" horiz-adv-x="286" 
d="M44 0q15 23 21 52t6 55v486q0 26 -6 55t-21 52h198q-7 -9 -17 -34t-10 -73v-486q0 -48 10 -73t17 -34h-198zM40 741l55 152h151l-126 -152h-80z" />
    <glyph glyph-name="Icircumflex" unicode="&#xce;" horiz-adv-x="286" 
d="M44 0q16 23 21.5 52t5.5 55v486q0 26 -5.5 55t-21.5 52h198q-7 -9 -17 -34t-10 -73v-486q0 -48 10 -73t17 -34h-198zM-16 741l94 152h129l95 -152h-79l-80 84l-81 -84h-78z" />
    <glyph glyph-name="Idieresis" unicode="&#xcf;" horiz-adv-x="285" 
d="M44 0q15 23 20.5 52t5.5 55v486q0 26 -5.5 55t-20.5 52h197q-6 -9 -16 -34t-10 -73v-486q0 -48 10 -73t16 -34h-197zM128 817q0 -31 -25.5 -53.5t-61.5 -22.5t-61.5 22.5t-25.5 53.5q0 32 25.5 54t61.5 22t61.5 -22t25.5 -54zM331 817q0 -31 -25.5 -53.5t-61.5 -22.5
t-61.5 22.5t-25.5 53.5q0 32 25.5 54t61.5 22t61.5 -22t25.5 -54z" />
    <glyph glyph-name="Eth" unicode="&#xd0;" horiz-adv-x="659" 
d="M347 700q63 0 110.5 -24.5t82.5 -66.5q42 -50 62.5 -118.5t20.5 -140.5t-20.5 -140.5t-62.5 -118.5q-35 -42 -82.5 -66.5t-110.5 -24.5h-260q16 23 21.5 52t5.5 55v190h-91v106h91v190q0 26 -5.5 55t-21.5 52h260zM428 140q20 47 30.5 101t10.5 109t-10.5 109t-30.5 102
q-20 49 -57.5 83t-88.5 34h-23v-275h85v-106h-85v-275h23q51 0 88.5 34t57.5 84z" />
    <glyph glyph-name="Ntilde" unicode="&#xd1;" horiz-adv-x="595" 
d="M44 0q16 23 21.5 52t5.5 55v486q0 26 -5.5 55t-21.5 52h69l383 -456v349q0 26 -5.5 55t-21.5 52h85q-6 -9 -16 -34t-10 -73v-481q0 -21 -7 -41.5t-20 -36t-30.5 -25t-38.5 -9.5q-8 0 -22 1.5t-25 3.5q14 15 20 34.5t5.5 39t-8 38t-19.5 30.5l-281 332v-372
q0 -48 10.5 -73t16.5 -34h-85zM122 815q8 21 23.5 37.5t36 27t45.5 13t52 -4.5q4 -1 7.5 -2t8.5 -3q24 -7 47.5 -17t46 -15.5t43 -2.5t38.5 22l7 -16q-9 -21 -24.5 -37.5t-36 -27t-45 -13.5t-51.5 4q-5 2 -8.5 2.5t-7.5 2.5q-24 7 -48 17.5t-46.5 16t-43.5 2.5t-38 -23z" />
    <glyph glyph-name="Ograve" unicode="&#xd2;" horiz-adv-x="704" 
d="M374 741l-125 152h151l54 -152h-80zM352 700q66 0 124 -27.5t101.5 -75t68.5 -111.5t25 -136t-25 -136t-68.5 -111.5t-101.5 -75t-124 -27.5t-124.5 27.5t-102 75t-68.5 111.5t-25 136t25 136t68.5 111.5t102 75t124.5 27.5zM504 391q-17 65 -44.5 119t-59.5 91t-66 54
t-66 9q-31 -9 -52.5 -41t-31 -80t-6 -108.5t20.5 -125.5q18 -65 45 -119t59.5 -90.5t67 -54t65.5 -8.5q32 8 53 40t30 80t6 108.5t-21 125.5z" />
    <glyph glyph-name="Oacute" unicode="&#xd3;" horiz-adv-x="704" 
d="M671 350q0 -72 -25 -136t-68.5 -111.5t-101.5 -75t-124 -27.5t-124.5 27.5t-102 75t-68.5 111.5t-25 136t25 136t68.5 111.5t102 75t124.5 27.5t124 -27.5t101.5 -75t68.5 -111.5t25 -136zM249 741l54 152h151l-125 -152h-80zM504 391q-17 65 -44.5 119t-59.5 91t-66 54
t-66 9q-32 -9 -53 -41t-30.5 -80t-6 -108.5t20.5 -125.5t44.5 -119t59.5 -90.5t66.5 -54t66.5 -8.5q32 8 53 40t30 80t5.5 108.5t-20.5 125.5z" />
    <glyph glyph-name="Ocircumflex" unicode="&#xd4;" horiz-adv-x="704" 
d="M199 309q18 -65 45 -119t59.5 -90.5t67 -54t65.5 -8.5q32 8 53 40t30 80t6 108.5t-21 125.5q-17 65 -44.5 119t-59.5 91t-66 54t-66 9q-31 -9 -52.5 -41t-31 -80t-6 -108.5t20.5 -125.5zM416 893l95 -152h-79l-80 84l-80 -84h-79l94 152h129zM352 700q66 0 124 -27.5
t101.5 -75t68.5 -111.5t25 -136t-25 -136t-68.5 -111.5t-101.5 -75t-124 -27.5t-124.5 27.5t-102 75t-68.5 111.5t-25 136t25 136t68.5 111.5t102 75t124.5 27.5z" />
    <glyph glyph-name="Otilde" unicode="&#xd5;" horiz-adv-x="704" 
d="M352 700q66 0 124 -27.5t101.5 -75t68.5 -111.5t25 -136t-25 -136t-68.5 -111.5t-101.5 -75t-124 -27.5t-124.5 27.5t-102 75t-68.5 111.5t-25 136t25 136t68.5 111.5t102 75t124.5 27.5zM529 854q-8 -21 -23.5 -37.5t-36 -27t-45.5 -13.5t-52 4q-5 2 -8.5 2.5t-7.5 2.5
q-24 7 -48 17.5t-46.5 16t-43 2.5t-38.5 -23l-6 17q8 21 23.5 37.5t36 27t45.5 13t52 -4.5q4 -1 7.5 -2t8.5 -3q24 -7 47.5 -17t46 -15.5t43.5 -2.5t38 22zM504 391q-17 65 -44.5 119t-59.5 91t-66 54t-66 9q-31 -9 -52.5 -41t-31 -80t-6 -108.5t20.5 -125.5t44.5 -119
t60 -90.5t67 -54t65.5 -8.5q32 8 53 40t30 80t5.5 108.5t-20.5 125.5z" />
    <glyph glyph-name="Odieresis" unicode="&#xd6;" horiz-adv-x="704" 
d="M540 817q0 -31 -25.5 -53.5t-61.5 -22.5t-61.5 22.5t-25.5 53.5q0 32 25.5 54t61.5 22t61.5 -22t25.5 -54zM337 817q0 -31 -25.5 -53.5t-61.5 -22.5t-61.5 22.5t-25.5 53.5q0 32 25.5 54t61.5 22t61.5 -22t25.5 -54zM352 700q66 0 124 -27.5t101.5 -75t68.5 -111.5
t25 -136t-25 -136t-68.5 -111.5t-101.5 -75t-124 -27.5t-124.5 27.5t-102 75t-68.5 111.5t-25 136t25 136t68.5 111.5t102 75t124.5 27.5zM504 391q-17 65 -44.5 119t-59.5 91t-66 54t-66 9q-31 -9 -52.5 -41t-31 -80t-6 -108.5t20.5 -125.5q18 -65 45 -119t59.5 -90.5
t67 -54t65.5 -8.5q32 8 53 40t30 80t6 108.5t-21 125.5z" />
    <glyph glyph-name="multiply" unicode="&#xd7;" horiz-adv-x="516" 
d="M37 487l83 84l138 -137l137 137l84 -84l-138 -137l138 -137l-84 -84l-137 138l-138 -138l-83 84l137 137z" />
    <glyph glyph-name="Oslash" unicode="&#xd8;" horiz-adv-x="716" 
d="M590 590q41 -47 64 -108.5t23 -131.5q0 -72 -25 -136t-68.5 -111.5t-101.5 -75t-124 -27.5q-53 0 -100 17t-87 48l-51 -65h-82l87 110q-41 48 -64 109t-23 131q0 72 25 136t68.5 111.5t102 75t124.5 27.5q52 0 99 -17t86 -48l52 65h82zM442 37q32 8 53 40t30 80
t5.5 108.5t-20.5 125.5q-5 19 -10.5 36t-12.5 34l-229 -287q40 -72 89 -110.5t95 -26.5zM457 526q-40 73 -89 111.5t-94 26.5q-32 -9 -53 -41t-30.5 -80t-6 -108.5t20.5 -125.5q5 -18 10.5 -35.5t12.5 -34.5z" />
    <glyph glyph-name="Ugrave" unicode="&#xd9;" horiz-adv-x="550" 
d="M209 202q0 -34 10.5 -59t28 -41.5t40 -24t45.5 -6.5t45 9.5t39 25t27.5 41t10.5 55.5v391q0 26 -5.5 55t-21.5 52h84q-6 -9 -16.5 -34t-10.5 -73v-403q0 -42 -13 -77t-37.5 -60t-61 -39t-83.5 -14t-88 13t-71.5 37.5t-48 60t-17.5 79.5v403q0 26 -5.5 55t-21.5 52h198
q-6 -9 -16.5 -34t-10.5 -73v-391zM298 741l-126 152h152l54 -152h-80z" />
    <glyph glyph-name="Uacute" unicode="&#xda;" horiz-adv-x="550" 
d="M209 202q0 -34 10.5 -59t28 -41.5t40 -24t45.5 -6.5t45 9.5t39 25t27.5 41t10.5 55.5v391q0 26 -5.5 55t-21.5 52h84q-6 -9 -16.5 -34t-10.5 -73v-403q0 -42 -13 -77t-37.5 -60t-61 -39t-83.5 -14t-88 13t-71.5 37.5t-48 60t-17.5 79.5v403q0 26 -5.5 55t-21.5 52h198
q-6 -9 -16.5 -34t-10.5 -73v-391zM172 741l54 152h152l-126 -152h-80z" />
    <glyph glyph-name="Ucircumflex" unicode="&#xdb;" horiz-adv-x="550" 
d="M209 202q0 -34 10.5 -59t28 -41.5t40 -24t45.5 -6.5t45 9.5t39 25t27.5 41t10.5 55.5v391q0 26 -5.5 55t-21.5 52h84q-7 -9 -17 -34t-10 -73v-403q0 -42 -13 -77t-37.5 -60t-61 -39t-83.5 -14t-88 13t-71.5 37.5t-48 60t-17.5 79.5v403q0 26 -5.5 55t-21.5 52h198
q-6 -9 -16.5 -34t-10.5 -73v-391zM116 741l95 152h128l95 -152h-79l-80 84l-80 -84h-79z" />
    <glyph glyph-name="Udieresis" unicode="&#xdc;" horiz-adv-x="550" 
d="M209 202q0 -34 10.5 -59t28 -41.5t40 -24t45.5 -6.5t45 9.5t39 25t27.5 41t10.5 55.5v391q0 26 -6 55t-21 52h84q-7 -9 -17 -34t-10 -73v-403q0 -42 -13 -77t-37.5 -60t-61 -39t-83.5 -14t-88 13t-71.5 37.5t-48 60t-17.5 79.5v403q0 26 -6 55t-21 52h198q-7 -9 -17 -34
t-10 -73v-391zM261 817q0 -31 -26 -53.5t-62 -22.5t-61.5 22.5t-25.5 53.5q0 32 25.5 54t61.5 22t62 -22t26 -54zM463 817q0 -31 -25.5 -53.5t-61.5 -22.5t-61.5 22.5t-25.5 53.5q0 32 25.5 54t61.5 22t61.5 -22t25.5 -54z" />
    <glyph glyph-name="Yacute" unicode="&#xdd;" horiz-adv-x="542" 
d="M359 107q0 -48 10.5 -73t16.5 -34h-197q15 23 20.5 52t5.5 55v151l-146 349q-17 42 -37.5 63.5t-40.5 29.5h210q-17 -11 -12 -32.5t17 -52.5l129 -328q16 31 33 60t32 67t20 75t-3 67.5t-30 50.5t-61 23q18 45 43.5 65.5t70.5 20.5q21 0 39.5 -9.5t29.5 -24.5
q21 -27 19 -60q-1 -19 -6.5 -37.5t-12.5 -36.5q-14 -33 -32.5 -69.5t-39 -73.5t-40.5 -74t-36 -72zM179 741l54 152h151l-125 -152h-80z" />
    <glyph glyph-name="Thorn" unicode="&#xde;" horiz-adv-x="538" 
d="M43 0q15 23 21 52t6 55v338v148q0 26 -6 55t-21 52h198q-16 -23 -21.5 -52t-5.5 -55v-41h138q34 0 64.5 -13t53 -35.5t35.5 -52.5t13 -64q0 -49 -25 -88q-26 -43 -77 -63q-20 -7 -42 -10.5t-46 -8.5q-20 -4 -38.5 -8.5t-34.5 -14.5q-27 -16 -41 -46v-41q0 -26 5.5 -55
t21.5 -52h-198zM214 182q6 16 19 29.5t30 26.5q20 15 36 25.5t30 21.5q26 20 37 52.5t9 67.5q-2 24 -10 46.5t-22 39.5q-15 18 -35 28q-24 11 -52 11h-42v-348z" />
    <glyph glyph-name="germandbls" unicode="&#xdf;" horiz-adv-x="584" 
d="M63 107v438q1 33 14.5 61.5t36 49.5t52.5 32.5t64 11.5h115q35 0 65 -13t52.5 -35.5t35.5 -52.5t13 -64q0 -48 -25 -89q-27 -43 -78 -62q38 -9 65 -31q38 -27 58 -69t20 -88q0 -42 -17 -79t-46 -64q-26 -25 -63.5 -39t-76.5 -14q-16 0 -32 2t-31 9q-30 13 -43.5 36.5
t-12.5 47t14.5 41t36.5 17.5q-23 -23 -18 -47.5t25 -39.5q11 -8 25 -8.5t27.5 5t24.5 15.5t16 22q17 42 17 100q0 33 -9.5 69t-32.5 60q-24 25 -60 28q-13 1 -27 -4t-26 -13.5t-21 -20t-14 -23.5v-189q0 -34 -16 -55.5t-41 -32.5t-55.5 -15t-58.5 -4q16 23 21.5 52t5.5 55v0
zM368 553q-1 15 -5.5 35.5t-14 39t-24.5 31.5t-36 13q-24 0 -39 -10.5t-24 -25.5t-13 -33t-5 -33v-31v-210q6 17 19.5 31t30.5 27t33 24t29 22q24 20 38 46t11 74z" />
    <glyph glyph-name="agrave" unicode="&#xe0;" horiz-adv-x="503" 
d="M434 310v-150q0 -24 0.5 -47t4 -43t12.5 -38t27 -32q-32 7 -62 13.5t-54.5 9t-43 -2t-28.5 -20.5v88q-4 -25 -17.5 -41.5t-31 -27t-37 -15t-36.5 -4.5q-31 0 -56 10t-43 27.5t-28 40t-12 46.5q-2 22 3.5 42.5t15.5 39.5q18 31 42 47.5t52 27.5q31 13 63 27t55 37
q14 14 22 33t8 44q0 9 -2 21t-7 22.5t-14.5 17.5t-24.5 7q-21 0 -32.5 -16t-13.5 -36.5t5.5 -40.5t24.5 -29q-6 -20 -18 -32t-27 -17.5t-31 -4t-30 8.5q-19 10 -30 30t-9 46q3 26 19.5 49t41.5 37q21 11 48.5 16.5t50.5 5.5q53 0 89.5 -14t59.5 -39.5t33.5 -62t10.5 -81.5z
M276 548l-125 152h151l54 -152h-80zM253 96q16 5 26.5 18.5t10.5 33.5v204q-5 -19 -17 -34.5t-27 -29.5l-29 -29t-28 -32q-14 -20 -18.5 -43t0.5 -43q9 -31 34 -42t48 -3z" />
    <glyph glyph-name="aacute" unicode="&#xe1;" horiz-adv-x="504" 
d="M435 310v-150q0 -24 0.5 -47t4 -43t12.5 -38t27 -32q-32 7 -62 13.5t-54.5 9t-43 -2t-28.5 -20.5v88q-4 -25 -17.5 -41.5t-31.5 -27t-37 -15t-36 -4.5q-32 0 -57 10t-42.5 27.5t-27.5 40t-12 46.5q-3 43 19 82q17 31 41.5 47.5t52.5 27.5q31 13 63 27t55 37q14 14 22 33
t8 44q0 9 -2 21t-7 22.5t-14.5 17.5t-24.5 7q-21 0 -32.5 -16t-13.5 -36.5t5.5 -40.5t24.5 -29q-6 -20 -18 -32t-27 -17.5t-31 -4t-30 8.5q-20 10 -31 30t-8 46q2 26 19 49t42 37q21 11 48.5 16.5t50.5 5.5q53 0 89.5 -14t59.5 -39.5t33.5 -62t10.5 -81.5zM152 548l54 152
h151l-125 -152h-80zM254 96q16 5 26.5 18.5t10.5 33.5v204q-5 -19 -17 -34.5t-27 -29.5l-29 -29t-28 -32q-14 -20 -18.5 -43t0.5 -43q8 -31 33.5 -42t48.5 -3z" />
    <glyph glyph-name="acircumflex" unicode="&#xe2;" horiz-adv-x="504" 
d="M435 310v-150q0 -24 0.5 -47t4 -43t12.5 -38t27 -32q-32 7 -62 13.5t-54.5 9t-43 -2t-28.5 -20.5v88q-4 -25 -17.5 -41.5t-31 -27t-37 -15t-36.5 -4.5q-31 0 -56 10t-43 27.5t-28 40t-12 46.5q-2 22 3.5 42.5t15.5 39.5q18 31 42 47.5t52 27.5q31 13 63 27t55 37
q14 14 22 33t8 44q0 9 -2 21t-7 22.5t-14.5 17.5t-24.5 7q-21 0 -32 -16t-13.5 -36.5t5 -40.5t24.5 -29q-6 -20 -18 -32t-27 -17.5t-31 -4t-30 8.5q-19 10 -30 30t-9 46q3 26 19.5 49t41.5 37q21 11 49 16.5t51 5.5q52 0 88.5 -14t59.5 -39.5t33.5 -62t10.5 -81.5zM96 548
l94 152h129l95 -152h-79l-80 84l-81 -84h-78zM254 96q16 5 26.5 18.5t10.5 33.5v204q-5 -19 -17 -34.5t-26 -29.5t-29.5 -29t-28.5 -32q-14 -20 -18.5 -43t1.5 -43q4 -15 13 -25.5t20.5 -16t24 -6.5t23.5 3z" />
    <glyph glyph-name="atilde" unicode="&#xe3;" horiz-adv-x="504" 
d="M435 310v-150q0 -24 0.5 -47t4 -43t12.5 -38t27 -32q-32 7 -62 13.5t-54.5 9t-43 -2t-28.5 -20.5v88q-4 -25 -17.5 -41.5t-31.5 -27t-37 -15t-36 -4.5q-32 0 -57 10t-42.5 27.5t-27.5 40t-12 46.5q-3 43 19 82q17 31 41.5 47.5t52.5 27.5q31 13 63 27t55 37q14 14 22 33
t8 44q0 9 -2 21t-7 22.5t-14.5 17.5t-24.5 7q-21 0 -32.5 -16t-13.5 -36.5t5.5 -40.5t24.5 -29q-6 -20 -18 -32t-27 -17.5t-31 -4t-30 8.5q-20 10 -31 30t-8 46q2 26 19 49t42 37q21 11 48.5 16.5t50.5 5.5q53 0 89.5 -14t59.5 -39.5t33.5 -62t10.5 -81.5zM77 622
q8 21 23.5 37.5t36 27t45.5 13t52 -4.5q4 -1 7.5 -2t8.5 -2q24 -7 47.5 -17.5t46 -16.5t43.5 -2.5t38 22.5l7 -16q-9 -21 -24.5 -37.5t-36 -27t-45 -13.5t-51.5 4q-5 2 -8.5 2.5t-7.5 1.5q-24 8 -48 18t-46.5 16t-43 3t-38.5 -23zM254 96q16 5 26.5 18.5t10.5 33.5v204
q-5 -19 -17 -34.5t-27 -29.5l-29 -29t-28 -32q-14 -20 -18.5 -43t0.5 -43q4 -15 13 -25.5t20.5 -16t24.5 -6.5t24 3z" />
    <glyph glyph-name="adieresis" unicode="&#xe4;" horiz-adv-x="504" 
d="M435 310v-150q0 -24 0.5 -47t4 -43t12.5 -38t27 -32q-32 7 -62 13.5t-54.5 9t-43 -2t-28.5 -20.5v88q-4 -25 -17.5 -41.5t-31 -27t-37 -15t-36.5 -4.5q-32 0 -57 10t-42.5 27.5t-27.5 40t-12 46.5q-3 43 19 82q17 31 41.5 47.5t52.5 27.5q31 13 63 27t55 37q14 14 22 33
t8 44q0 9 -2 21t-7 22.5t-14.5 17.5t-24.5 7q-21 0 -32.5 -16t-13.5 -36.5t5.5 -40.5t24.5 -29q-6 -20 -18 -32t-27 -17.5t-31 -4t-30 8.5q-20 10 -30.5 30t-8.5 46t19 49t42 37q21 11 48.5 16.5t50.5 5.5q53 0 89.5 -14t59.5 -39.5t33.5 -62t10.5 -81.5zM240 624
q0 -31 -25.5 -53.5t-61.5 -22.5t-61.5 22.5t-25.5 53.5q0 32 25.5 54t61.5 22t61.5 -22t25.5 -54zM443 624q0 -31 -25.5 -53.5t-61.5 -22.5t-61.5 22.5t-25.5 53.5q0 32 25.5 54t61.5 22t61.5 -22t25.5 -54zM254 96q16 5 26.5 18.5t10.5 33.5v204q-5 -19 -17 -34.5
t-26 -29.5t-29.5 -29t-28.5 -32q-14 -20 -18.5 -43t0.5 -43q9 -31 34 -42t48 -3z" />
    <glyph glyph-name="aring" unicode="&#xe5;" horiz-adv-x="504" 
d="M435 310v-150q0 -24 0.5 -47t4 -43t12.5 -38t27 -32q-32 7 -62 13.5t-54.5 9t-43 -2t-28.5 -20.5v88q-4 -25 -17.5 -41.5t-31 -27t-37.5 -15t-37 -4.5q-31 0 -56 10t-42.5 27.5t-27.5 40t-12 46.5q-3 43 19 82q17 31 41.5 47.5t52.5 27.5q31 13 63 27t55 37q14 14 22 33
t8 44q0 9 -2 21t-7 22.5t-14.5 17.5t-24.5 7q-21 0 -32.5 -16t-13.5 -36.5t5.5 -40.5t24.5 -29q-6 -20 -18 -32t-27 -17.5t-31 -4t-30 8.5q-20 10 -31 30t-8 46q2 26 19 49t42 37q21 11 49 16.5t51 5.5q52 0 88.5 -14t59.5 -39.5t33.5 -62t10.5 -81.5zM254 700
q36 0 61.5 -25.5t25.5 -61.5q0 -18 -7 -33.5t-18.5 -27t-27.5 -18.5t-34 -7t-33.5 7t-27 18.5t-18.5 27t-7 33.5t7 34t18.5 27.5t27 18.5t33.5 7zM254 655q-17 0 -29 -12t-12 -30q0 -17 12 -29t29 -12q18 0 30 12t12 29q0 18 -12 30t-30 12zM254 96q16 5 26.5 18.5
t10.5 33.5v204q-5 -19 -17 -34.5t-26 -29.5t-29.5 -29t-28.5 -32q-14 -20 -18.5 -43t0.5 -43q8 -31 33.5 -42t48.5 -3z" />
    <glyph glyph-name="ae" unicode="&#xe6;" horiz-adv-x="743" 
d="M523 0q-66 2 -119.5 40.5t-80.5 101.5q-1 -15 -7.5 -31.5t-16 -31.5t-21.5 -28.5t-24 -22.5q-20 -15 -43 -21.5t-43 -6.5q-32 0 -57 10t-42.5 27.5t-27.5 40t-12 46.5q-3 43 19 82q17 31 41.5 47.5t52.5 27.5q31 13 63 27t55 37q14 14 22 33t8 43q0 10 -2 22t-7 22.5
t-14.5 17.5t-24.5 7q-21 0 -32.5 -16t-13.5 -36.5t5.5 -40.5t24.5 -29q-6 -20 -18 -32t-27 -17.5t-31 -4t-30 8.5q-20 10 -30.5 30t-8.5 46t19 49t42 37q21 11 48.5 16.5t50.5 5.5q53 0 89 -13.5t59 -38.5q28 23 62 37t72 15q25 0 49.5 -2t47.5 -10q17 -6 32.5 -16t27.5 -26
q27 -33 24 -75q-2 -21 -12.5 -39t-32.5 -28q-16 -7 -34.5 -10t-38 -4t-37.5 -0.5t-32 0.5h-83q5 -31 12 -58q10 -35 28.5 -74t47.5 -67q20 -19 43.5 -30t47 -11t46 11t40.5 35l15 -8q-6 -16 -15.5 -28.5t-20.5 -22.5q-25 -22 -66 -35q-20 -6 -42 -7.5t-47 -1.5zM459 319
q24 0 48 6.5t43 20.5q14 11 21.5 27t8.5 33q1 15 -3.5 29t-13.5 25.5t-22 18.5t-29 7q-24 0 -40.5 -14t-26.5 -36.5t-13 -53t0 -63.5h27zM290 352q-5 -19 -17 -34.5t-27 -29.5l-29 -29t-28 -32q-14 -20 -18.5 -43t0.5 -43q9 -31 34 -42t48 -3q16 5 26.5 18.5t10.5 33.5v204z
" />
    <glyph glyph-name="ccedilla" unicode="&#xe7;" 
d="M309 306q-29 14 -39 47q20 8 28.5 25.5t8.5 37.5q0 33 -18.5 51.5t-42.5 18.5q-31 0 -50 -22t-26.5 -57.5t-4.5 -79.5t15 -88q10 -35 28.5 -74t47.5 -67q20 -19 43.5 -30t47 -11t46 11t40.5 35l14 -8q-6 -16 -15.5 -28.5t-20.5 -22.5q-25 -22 -66 -35q-13 -4 -26.5 -5.5
t-27.5 -2.5l-20 -27q17 -4 30.5 -10.5t21.5 -16.5q16 -19 16 -47q0 -37 -31 -65q-17 -15 -43.5 -21.5t-54.5 -6.5q-20 0 -37.5 3t-31.5 9l14 26q24 -5 41 6t23.5 27.5t1 33t-26.5 21.5l53 68q-45 3 -84 24t-68 55t-45.5 78.5t-16.5 95.5q0 52 17.5 97.5t48 79.5t71.5 54.5
t87 21.5q26 0 54 -3t53 -14q34 -14 54 -43t21 -61q0 -25 -11 -44t-28 -31q-21 -14 -45.5 -15t-45.5 10z" />
    <glyph glyph-name="egrave" unicode="&#xe8;" 
d="M192 319q24 0 48.5 6.5t42.5 20.5q29 23 31 60q0 15 -4.5 29t-13.5 25.5t-22 18.5t-28 7q-24 0 -40.5 -14t-26.5 -36.5t-13.5 -53t-0.5 -63.5h27zM263 548l-126 152h151l55 -152h-80zM250 298h-82q3 -31 12 -59q10 -35 28.5 -74t47.5 -67q20 -19 43.5 -30t47 -11t46 11
t40.5 35l14 -8q-6 -16 -15.5 -28.5t-20.5 -22.5q-25 -22 -65 -35q-20 -6 -42 -7.5t-47 -1.5q-46 1 -87 21.5t-71.5 55t-48 80t-17.5 97.5t17.5 97.5t48 79.5t71.5 54.5t87 21.5q25 0 49.5 -2t47.5 -10q17 -6 32 -16t28 -26q12 -16 18.5 -35.5t4.5 -39.5q-2 -21 -12.5 -39
t-32.5 -28q-16 -7 -34.5 -9.5t-38 -3.5t-37.5 -0.5t-32 0.5v0z" />
    <glyph glyph-name="eacute" unicode="&#xe9;" 
d="M192 319q24 0 48.5 6.5t42.5 20.5q14 11 21.5 27t8.5 33q1 15 -3.5 29t-13.5 25.5t-22 18.5t-28 7q-24 0 -41 -14t-26.5 -36.5t-13 -53t-0.5 -63.5h27zM137 548l55 152h151l-126 -152h-80zM250 298h-82q3 -31 12 -59q10 -35 28 -74t47 -67q20 -19 43.5 -30t47.5 -11
t46.5 11t40.5 35l14 -8q-6 -16 -15.5 -28.5t-20.5 -22.5q-25 -22 -66 -35q-20 -6 -41.5 -7.5t-46.5 -1.5q-46 1 -87 21.5t-71.5 55t-48 80t-17.5 97.5t17.5 97.5t48 79.5t71.5 54.5t87 21.5q25 0 49.5 -2t47.5 -10q17 -6 32 -16t27 -26q27 -33 24 -75q-2 -21 -12.5 -39
t-32.5 -28q-16 -7 -34.5 -9.5t-38 -3.5t-37.5 -0.5t-32 0.5v0z" />
    <glyph glyph-name="ecircumflex" unicode="&#xea;" 
d="M192 319q24 0 48.5 6.5t42.5 20.5q14 11 21.5 27t8.5 33q1 15 -3.5 29t-13.5 25.5t-22 18.5t-28 7q-24 0 -41 -14t-26.5 -36.5t-13 -53t-0.5 -63.5h27zM81 548l95 152h128l95 -152h-79l-80 84l-80 -84h-79zM250 298h-82q3 -31 12 -59q10 -35 28 -74t47 -67
q20 -19 43.5 -30t47.5 -11t46.5 11t40.5 35l14 -8q-6 -16 -15.5 -28.5t-20.5 -22.5q-25 -22 -66 -35q-20 -6 -41.5 -7.5t-46.5 -1.5q-46 1 -87 21.5t-71.5 55t-48 80t-17.5 97.5t17.5 97.5t48 79.5t71.5 54.5t87 21.5q25 0 49.5 -2t47.5 -10q17 -6 32 -16t27 -26
q27 -33 24 -75q-2 -21 -12.5 -39t-32.5 -28q-16 -7 -34.5 -9.5t-38 -3.5t-37.5 -0.5t-32 0.5v0z" />
    <glyph glyph-name="edieresis" unicode="&#xeb;" 
d="M192 319q24 0 48.5 6.5t42.5 20.5q14 11 21.5 27t8.5 33q1 15 -3.5 29t-13.5 25.5t-22 18.5t-28 7q-24 0 -40.5 -14t-26.5 -36.5t-13.5 -53t-0.5 -63.5h27zM226 624q0 -31 -25.5 -53.5t-61.5 -22.5t-61.5 22.5t-25.5 53.5q0 32 25.5 54t61.5 22t61.5 -22t25.5 -54z
M429 624q0 -31 -25.5 -53.5t-61.5 -22.5t-62 22.5t-26 53.5q0 32 26 54t62 22t61.5 -22t25.5 -54zM250 298h-82q3 -31 12 -59q10 -35 28.5 -74t47.5 -67q20 -19 43.5 -30t47 -11t46 11t40.5 35l14 -8q-6 -16 -15.5 -28.5t-20.5 -22.5q-25 -22 -66 -35q-20 -6 -41.5 -7.5
t-46.5 -1.5q-46 1 -87 21.5t-71.5 55t-48 80t-17.5 97.5t17.5 97.5t48 79.5t71.5 54.5t87 21.5q25 0 49.5 -2t47.5 -10q17 -6 32 -16t28 -26q12 -16 18.5 -35.5t4.5 -39.5q-2 -21 -12.5 -39t-32.5 -28q-16 -7 -34.5 -9.5t-38 -3.5t-37.5 -0.5t-32 0.5v0z" />
    <glyph glyph-name="igrave" unicode="&#xec;" horiz-adv-x="272" 
d="M209 107q0 -47 10 -72t17 -35h-198q15 23 21 52t6 55v262q0 18 -2 33.5t-5 26.5q-4 19 -10 30t-10 17q15 0 35 1t43 4t47 9t46 17v-400zM159 548l-125 152h151l55 -152h-81z" />
    <glyph glyph-name="iacute" unicode="&#xed;" horiz-adv-x="272" 
d="M209 107q0 -47 10.5 -72t16.5 -35h-198q15 23 21 52t6 55v262q0 18 -2 33.5t-5 26.5q-4 19 -10 30t-10 17q15 0 35 1t43 4t47 9t46 17v-400zM34 548l54 152h151l-125 -152h-80z" />
    <glyph glyph-name="icircumflex" unicode="&#xee;" horiz-adv-x="271" 
d="M209 107q0 -47 10 -72t17 -35h-198q16 23 21.5 52t5.5 55v262q0 18 -2 33.5t-4 26.5q-5 19 -11 30t-10 17q14 0 34.5 1t43.5 4t47 9t46 17v-400zM-22 548l94 152h129l95 -152h-79l-80 84l-81 -84h-78z" />
    <glyph glyph-name="idieresis" unicode="&#xef;" horiz-adv-x="272" 
d="M210 107q0 -47 10 -72t16 -35h-198q16 23 21.5 52t5.5 55v262q0 38 -6 60q-5 19 -10.5 30t-10.5 17q15 0 35 1t43.5 4t47.5 9t46 17v-400zM123 624q0 -31 -25.5 -53.5t-61.5 -22.5t-61.5 22.5t-25.5 53.5q0 32 25.5 54t61.5 22t61.5 -22t25.5 -54zM326 624
q0 -31 -25.5 -53.5t-61.5 -22.5t-61.5 22.5t-25.5 53.5q0 32 25.5 54t61.5 22t61.5 -22t25.5 -54z" />
    <glyph glyph-name="eth" unicode="&#xf0;" horiz-adv-x="530" 
d="M492 254q0 -53 -18 -99t-49 -80.5t-73 -54.5t-89 -20q-48 0 -89.5 20t-72.5 54.5t-49 80.5t-18 99t18 99t49 80t72.5 54t89.5 20h12t12 -1q-5 17 -10.5 32t-12.5 29l-170 -63l-28 74l154 57q-29 32 -63 52l10 13q63 -7 119 -41l112 41l27 -74l-65 -24q60 -60 96 -147.5
t36 -192.5v-8zM188 234q12 -46 29 -84.5t35 -66t36.5 -41t33.5 -9.5t24 24.5t11.5 53.5t-2.5 74.5t-17 87.5t-29 85t-35 66t-36.5 41t-33.5 9q-16 -4 -25 -24.5t-11 -53.5t3 -74.5t17 -87.5z" />
    <glyph glyph-name="ntilde" unicode="&#xf1;" horiz-adv-x="508" 
d="M361 497q39 -15 63.5 -55t24.5 -104v-231q0 -47 10 -72t17 -35h-198q16 23 21.5 52t5.5 55v232q0 19 -0.5 39.5t-2.5 39.5q-4 26 -17 39t-28 13q-17 1 -31 -13.5t-16 -43.5q-1 -16 -1 -34.5v-39.5v-232q0 -47 10.5 -72t16.5 -35h-198q16 23 21.5 52t5.5 55v262
q0 18 -2 33.5t-4 26.5q-5 19 -11 30t-10 17q15 0 35 1t43 4t47 9t46 17v-41q15 21 42 31t56 10t54 -10zM80 622q8 21 23 37.5t35.5 27t45.5 13t52 -4.5q4 -1 7.5 -2t8.5 -2q24 -7 47.5 -17.5t46 -16.5t43.5 -2.5t38 22.5l7 -16q-8 -21 -23.5 -37.5t-36 -27t-45.5 -13.5
t-52 4q-5 2 -8.5 2.5t-7.5 1.5q-24 8 -47.5 18t-46 16t-43.5 3t-38 -23z" />
    <glyph glyph-name="ograve" unicode="&#xf2;" horiz-adv-x="524" 
d="M491 254q0 -53 -18 -99t-49 -80.5t-73 -54.5t-89 -20t-89 20t-73 54.5t-49 80.5t-18 99t18 99t49 80t73 54t89 20t89 -20t73 -54t49 -80t18 -99zM284 548l-125 152h151l55 -152h-81zM187 234q12 -46 29 -84.5t35 -66t36.5 -41t33.5 -9.5t24 24.5t11.5 53.5t-2.5 74.5
t-17 87.5t-29 85t-35 66t-36.5 41t-33.5 9q-16 -4 -25 -24.5t-11 -53.5t3 -74.5t17 -87.5z" />
    <glyph glyph-name="oacute" unicode="&#xf3;" horiz-adv-x="524" 
d="M491 254q0 -53 -18 -99t-49 -80.5t-73 -54.5t-89 -20t-89 20t-73 54.5t-49 80.5t-18 99t18 99t49 80t73 54t89 20t89 -20t73 -54t49 -80t18 -99zM159 548l55 152h151l-126 -152h-80zM187 234q12 -46 29 -84.5t35 -66t36.5 -41t33.5 -9.5t24 24.5t11.5 53.5t-2.5 74.5
t-17 87.5t-29 85t-35 66t-36.5 41t-33.5 9q-16 -4 -25 -24.5t-11 -53.5t3 -74.5t17 -87.5z" />
    <glyph glyph-name="ocircumflex" unicode="&#xf4;" horiz-adv-x="524" 
d="M491 254q0 -53 -18 -99t-49 -80.5t-73 -54.5t-89 -20t-89 20t-73 54.5t-49 80.5t-18 99t18 99t49 80t73 54t89 20t89 -20t73 -54t49 -80t18 -99zM103 548l95 152h128l95 -152h-79l-80 84l-80 -84h-79zM187 234q12 -46 29 -84.5t35 -66t36.5 -41t33.5 -9.5t24 24.5
t11.5 53.5t-2.5 74.5t-17 87.5t-29 85t-35 66t-36.5 41t-33.5 9q-16 -4 -25 -24.5t-11 -53.5t3 -74.5t17 -87.5z" />
    <glyph glyph-name="otilde" unicode="&#xf5;" horiz-adv-x="524" 
d="M491 254q0 -53 -18 -99t-49 -80.5t-73 -54.5t-89 -20q-48 0 -89.5 20t-72.5 54.5t-49 80.5t-18 99t18 99t49 80t72.5 54t89.5 20q47 0 89 -20t73 -54t49 -80t18 -99zM85 622q8 21 23 37.5t35.5 27t45.5 13t52 -4.5l8 -2l8 -2q24 -7 47.5 -17.5t46 -16.5t43.5 -2.5
t38 22.5l7 -16q-8 -21 -23.5 -37.5t-36 -27t-45.5 -13.5t-52 4q-5 2 -8.5 2.5t-7.5 1.5q-24 8 -48 18t-46.5 16t-43 3t-38.5 -23zM187 234q12 -46 29 -84.5t35 -66t36.5 -41t33.5 -9.5t24 24.5t11.5 53.5t-2.5 74.5t-17 87.5t-29 85t-35 66t-36.5 41t-33.5 9
q-16 -4 -25 -24.5t-11 -53.5t3 -74.5t17 -87.5z" />
    <glyph glyph-name="odieresis" unicode="&#xf6;" horiz-adv-x="524" 
d="M491 254q0 -53 -18 -99t-49 -80.5t-73 -54.5t-89 -20t-89 20t-73 54.5t-49 80.5t-18 99t18 99t49 80t73 54t89 20t89 -20t73 -54t49 -80t18 -99zM248 624q0 -31 -25.5 -53.5t-61.5 -22.5q-37 0 -62.5 22.5t-25.5 53.5q0 32 25.5 54t62.5 22q36 0 61.5 -22t25.5 -54z
M450 624q0 -31 -25 -53.5t-62 -22.5q-36 0 -61.5 22.5t-25.5 53.5q0 32 25.5 54t61.5 22q37 0 62 -22t25 -54zM187 234q12 -46 29 -84.5t35 -66t36.5 -41t33.5 -9.5t24 24.5t11.5 53.5t-2.5 74.5t-17 87.5t-29 85t-35 66t-36.5 41t-33.5 9q-16 -4 -25 -24.5t-11 -53.5
t3 -74.5t17 -87.5z" />
    <glyph glyph-name="divide" unicode="&#xf7;" horiz-adv-x="457" 
d="M315 173q0 -32 -25.5 -54t-61.5 -22t-61.5 22t-25.5 54t25.5 54t61.5 22t61.5 -22t25.5 -54zM29 291v118h398v-118h-398zM315 527q0 -31 -25.5 -53t-61.5 -22t-61.5 22t-25.5 53q0 33 25.5 54.5t61.5 21.5t61.5 -21.5t25.5 -54.5z" />
    <glyph glyph-name="oslash" unicode="&#xf8;" horiz-adv-x="533" 
d="M496 254q0 -53 -18 -99t-49 -80.5t-73 -54.5t-89 -20q-33 0 -64 10t-57 28l-29 -38h-79l61 82q-29 34 -45 77.5t-16 94.5q0 53 18 99t49 80t72.5 54t89.5 20q33 0 63.5 -10t57.5 -28l28 38h80l-61 -81q29 -35 45 -78.5t16 -93.5zM224 143q24 -55 51.5 -85.5t50.5 -24.5
q15 4 24 24.5t11.5 53.5t-2.5 74.5t-17 87.5q-2 5 -3 10t-3 10zM310 365q-24 54 -51.5 85t-50.5 24q-16 -4 -25 -24.5t-11 -53.5t3 -74.5t17 -87.5q2 -5 3 -10t3 -10z" />
    <glyph glyph-name="ugrave" unicode="&#xf9;" horiz-adv-x="509" 
d="M472 31q-15 0 -35 -1t-43 -4t-47 -9t-46 -17v41q-15 -22 -42 -31.5t-56 -9.5t-54 10q-40 15 -64 55.5t-24 103.5v200q0 18 -2 33.5t-4 26.5q-5 19 -11 30t-10 17q15 0 35 1t43 4t47 9t46 17v-41v-298v-40t3 -39q3 -26 16.5 -39t28.5 -14q17 0 31 14.5t16 43.5
q1 16 1 34.5v39.5v201q0 18 -2 33.5t-4 26.5q-5 19 -11 30t-10 17q15 0 35 1t43 4t47 9t46 17v-370q0 -17 2 -32.5t4 -26.5q5 -19 11 -30t10 -17zM276 548l-126 152h151l55 -152h-80z" />
    <glyph glyph-name="uacute" unicode="&#xfa;" horiz-adv-x="508" 
d="M148 10q-39 15 -63 55.5t-24 103.5v200q0 18 -2 33.5t-5 26.5q-4 19 -10 30t-10 17q15 0 35 1t43 4t47 9t46 17v-41v-298v-39.5t2 -39.5q4 -26 17.5 -39t28.5 -13q17 -1 30.5 13.5t15.5 43.5q1 16 1 35v39v201q0 38 -6 60q-5 19 -10.5 30t-9.5 17q14 0 34.5 1t43.5 4
t47 9t46 17v-369q0 -37 6 -60q5 -19 10.5 -30t10.5 -17q-15 0 -35 -1t-43.5 -4t-47.5 -9t-46 -17v41q-15 -21 -41.5 -31t-55.5 -10q-15 0 -29 2.5t-26 7.5zM150 548l54 152h151l-125 -152h-80z" />
    <glyph glyph-name="ucircumflex" unicode="&#xfb;" horiz-adv-x="508" 
d="M148 10q-39 15 -63 55.5t-24 103.5v200q0 18 -2 33.5t-5 26.5q-4 19 -10 30t-10 17q15 0 35 1t43 4t47 9t46 17v-41v-298v-39.5t2 -39.5q4 -26 17.5 -39t28.5 -13q17 -1 30.5 13.5t15.5 43.5q2 16 1.5 35t0.5 39v201q0 18 -2 33.5t-5 26.5q-4 19 -10 30t-10 17
q14 0 34.5 1t43.5 4t47 9t46 17v-369q0 -37 6 -60q5 -19 10.5 -30t10.5 -17q-15 0 -35 -1t-43 -4t-47 -9t-46 -17v41q-16 -21 -42.5 -31t-55.5 -10q-15 0 -29 2.5t-26 7.5zM94 548l94 152h129l95 -152h-79l-80 84l-81 -84h-78z" />
    <glyph glyph-name="udieresis" unicode="&#xfc;" horiz-adv-x="508" 
d="M148 10q-39 15 -63 55.5t-24 103.5v200q0 18 -2 33.5t-5 26.5q-4 19 -10 30t-10 17q15 0 35 1t43 4t47 9t46 17v-41v-298v-39.5t2 -39.5q4 -26 17.5 -39t28.5 -13q17 -1 30.5 13.5t15.5 43.5q1 16 1 35v39v201q0 38 -6 60q-5 19 -10.5 30t-9.5 17q14 0 34.5 1t43.5 4
t47 9t46 17v-369q0 -37 6 -60q5 -19 10.5 -30t10.5 -17q-15 0 -35 -1t-43.5 -4t-47.5 -9t-46 -17v41q-15 -21 -41.5 -31t-55.5 -10q-15 0 -29 2.5t-26 7.5zM238 624q0 -31 -25.5 -53.5t-61.5 -22.5t-61.5 22.5t-25.5 53.5q0 32 25.5 54t61.5 22t61.5 -22t25.5 -54zM441 624
q0 -31 -25.5 -53.5t-61.5 -22.5t-61.5 22.5t-25.5 53.5q0 32 25.5 54t61.5 22t61.5 -22t25.5 -54z" />
    <glyph glyph-name="yacute" unicode="&#xfd;" horiz-adv-x="486" 
d="M261 0h-72l-119 413q-10 35 -28 60.5t-40 33.5h235q-24 -8 -27 -35.5t5 -58.5l87 -318q8 17 16.5 35.5t19.5 40.5q15 33 24 74t6 80.5t-22 74t-60 55.5q11 32 40 49.5t58 15.5q25 -2 46.5 -18t27.5 -49q4 -20 2 -41t-7 -41q-8 -30 -22 -59.5t-25 -54.5l-119 -257l-22 -50
q-11 -26 -22.5 -51.5t-28 -46t-39 -33t-54.5 -12.5q-30 0 -52.5 16t-33 40t-6 51.5t30.5 50.5q13 -24 37 -35t51 -11q32 0 61.5 15.5t42.5 44.5zM192 548l54 152h151l-125 -152h-80z" />
    <glyph glyph-name="thorn" unicode="&#xfe;" horiz-adv-x="559" 
d="M229 -163q-15 0 -35 -0.5t-43 -3.5t-47 -9t-46 -17v742q0 45 -5.5 83.5t-38.5 65.5q21 -4 43 -10.5t45 -9.5t48 1t52 21v-27v-43v-49v-46v-34.5v-13.5l25 8q17 5 34 8.5t36 3.5q47 0 89 -20t73 -54t49 -80t18 -99t-18 -99t-49 -80.5t-73 -54.5t-89 -20q-51 0 -95 23v-78
q0 -18 2 -33.5t4 -26.5q5 -19 11 -30t10 -18zM202 360q1 -57 20 -126q12 -46 29 -84.5t35 -66t36.5 -41t33.5 -9.5t24 24.5t11.5 53.5t-2.5 74.5t-17 87.5t-29 85t-35 66t-36.5 41t-33.5 9q-17 -4 -25.5 -26.5t-10.5 -57.5v-30z" />
    <glyph glyph-name="ydieresis" unicode="&#xff;" horiz-adv-x="486" 
d="M261 0h-72l-119 413q-10 35 -28 60.5t-40 33.5h235q-24 -8 -27 -35.5t5 -58.5l87 -318q8 17 16.5 35.5t19.5 40.5q15 33 24 74t6 80.5t-22 74t-60 55.5q11 32 40 49.5t58 15.5q25 -2 46.5 -18t27.5 -49q4 -20 2 -41t-7 -41q-8 -30 -22 -59.5t-25 -54.5l-119 -257l-22 -50
q-11 -26 -22.5 -51.5t-28 -46t-39 -33t-54.5 -12.5q-30 0 -52.5 16t-33 40t-6 51.5t30.5 50.5q13 -24 37 -35t51 -11q32 0 61.5 15.5t42.5 44.5zM244 624q0 -31 -25 -53.5t-61 -22.5t-61.5 22.5t-25.5 53.5q0 32 25.5 54t61.5 22t61 -22t25 -54zM447 624q0 -31 -25.5 -53.5
t-61.5 -22.5t-61.5 22.5t-25.5 53.5q0 32 25.5 54t61.5 22t61.5 -22t25.5 -54z" />
    <glyph glyph-name="Amacron" unicode="&#x100;" horiz-adv-x="549" 
d="M307 700l183 -603q5 -15 11 -30.5t13.5 -29t17 -24t20.5 -13.5h-214q13 11 17 24.5t3 28.5t-6 31l-10 32q-2 8 -4.5 16t-4.5 16h-137q-38 0 -64.5 -15t-34.5 -44v1q-2 -5 -3 -9.5t-3 -9.5q-7 -24 -6 -42t17 -29h-100q24 14 40 42t24 54l187 604h54zM96 764v106h362v-106
h-362zM225 507q-20 -68 -35.5 -119t-28 -91l-22.5 -72t-19 -61q14 19 33.5 27.5t39.5 8.5h124q-20 69 -44.5 148t-47.5 159z" />
    <glyph glyph-name="amacron" unicode="&#x101;" horiz-adv-x="504" 
d="M435 310v-150q0 -24 0.5 -47t4 -43t12.5 -38t27 -32q-32 7 -62 13.5t-54.5 9t-43 -2t-28.5 -20.5v88q-4 -25 -17.5 -41.5t-31 -27t-37 -15t-36.5 -4.5q-32 0 -57 10t-42.5 27.5t-27.5 40t-12 46.5q-3 43 19 82q17 31 41.5 47.5t52.5 27.5q31 13 63 27t55 37q14 14 22 33
t8 44q0 9 -2 21t-7 22.5t-14.5 17.5t-24.5 7q-21 0 -32.5 -16t-13.5 -36.5t5.5 -40.5t24.5 -29q-6 -20 -18 -32t-27 -17.5t-31 -4t-30 8.5q-20 10 -30.5 30t-8.5 46t19 49t42 37q21 11 48.5 16.5t50.5 5.5q53 0 89.5 -14t59.5 -39.5t33.5 -62t10.5 -81.5zM74 571v106h361
v-106h-361zM254 96q16 5 26.5 18.5t10.5 33.5v204q-5 -19 -17 -34.5t-27 -29.5l-29 -29t-28 -32q-14 -20 -18.5 -43t0.5 -43q9 -31 34 -42t48 -3z" />
    <glyph glyph-name="Abreve" unicode="&#x102;" horiz-adv-x="549" 
d="M307 700l183 -603q5 -15 11 -30.5t13.5 -29t17 -24t20.5 -13.5h-214q13 11 17 24.5t3 28.5t-6 31l-10 32q-2 8 -4.5 16t-4.5 16h-137q-38 0 -64.5 -15t-34.5 -44v1q-2 -5 -3 -9.5t-3 -9.5q-7 -24 -6 -42t17 -29h-100q24 14 40 42t24 54l187 604h54zM277 741
q-42 0 -70.5 16t-46 39.5t-25 50t-7.5 46.5h43q2 -7 9 -18t20 -20.5t32 -16.5t45 -7t45.5 7t32.5 16.5t20 20.5t8 18h43q0 -20 -7.5 -46.5t-25 -50t-46 -39.5t-70.5 -16zM225 507q-20 -68 -35.5 -119t-28 -91l-22.5 -72t-19 -61q14 19 33.5 27.5t39.5 8.5h124
q-20 69 -44.5 148t-47.5 159z" />
    <glyph glyph-name="abreve" unicode="&#x103;" horiz-adv-x="504" 
d="M435 310v-150q0 -24 0.5 -47t4 -43t12.5 -38t27 -32q-32 7 -62 13.5t-54.5 9t-43 -2t-28.5 -20.5v88q-4 -25 -17.5 -41.5t-31 -27t-37.5 -15t-37 -4.5q-31 0 -56 10t-42.5 27.5t-27.5 40t-12 46.5q-3 43 19 82q17 31 41.5 47.5t52.5 27.5q31 13 63 27t55 37q14 14 22 33
t8 44q0 9 -2 21t-7 22.5t-14.5 17.5t-24.5 7q-21 0 -32.5 -16t-13.5 -36.5t5.5 -40.5t24.5 -29q-6 -20 -18 -32t-27 -17.5t-31 -4t-30 8.5q-19 10 -30.5 30t-8.5 46q2 26 19 49t42 37q21 11 49 16.5t51 5.5q52 0 88.5 -14t59.5 -39.5t33.5 -62t10.5 -81.5zM254 548
q-42 0 -70 16t-45.5 39.5t-25 50t-7.5 46.5h42q2 -7 9 -18t20 -20.5t32 -16.5t45 -7t45.5 7t32.5 16.5t20.5 20.5t8.5 18h43q0 -20 -7.5 -46.5t-25.5 -50t-46.5 -39.5t-70.5 -16zM254 96q16 5 26.5 18.5t10.5 33.5v204q-5 -19 -17 -34.5t-26 -29.5t-29.5 -29t-28.5 -32
q-14 -20 -18.5 -43t0.5 -43q8 -31 33.5 -42t48.5 -3z" />
    <glyph glyph-name="Aogonek" unicode="&#x104;" horiz-adv-x="556" 
d="M338 0q13 11 17 24.5t3 28.5t-6 31l-10 32q-2 8 -4.5 16t-4.5 16h-137q-38 0 -64.5 -15t-34.5 -44v1q-2 -5 -3 -9.5t-3 -9.5q-7 -24 -6 -42t17 -29h-100q24 14 40 42t24 54l187 604h54l183 -603q5 -15 11 -30.5t13.5 -29t17 -24t20.5 -13.5h-55q-18 -22 -29 -51
q-5 -16 -5.5 -32t5.5 -29q3 -6 9 -12.5t13.5 -11t15.5 -6t15 0.5l3 -15q-11 -15 -32 -26t-45 -11q-26 0 -45 14q-25 19 -25 48q-1 18 6 36t18 32t23 25t24 21q5 5 10.5 8.5t10.5 8.5h-131zM225 507q-20 -68 -35.5 -119t-28 -91t-23 -72t-19.5 -61q15 19 34.5 27.5t39.5 8.5
h124q-20 69 -44.5 148t-47.5 159z" />
    <glyph glyph-name="aogonek" unicode="&#x105;" horiz-adv-x="503" 
d="M434 310v-150q0 -24 0.5 -47t4 -43t12.5 -38t27 -32q-11 2 -22.5 5t-22.5 5q-11 -12 -20.5 -28t-15.5 -33q-6 -16 -6.5 -31.5t6.5 -29.5q3 -7 9 -13t13 -10.5t15 -6t15 0.5l4 -15q-12 -15 -33 -26t-44 -11q-27 0 -46 14q-13 10 -18.5 22.5t-6.5 26.5q-1 17 6 35t19 32
q22 27 47 46q10 8 19 15.5t19 15.5q-44 9 -77.5 9.5t-47.5 -23.5v88q-4 -25 -17.5 -41.5t-31 -27t-37 -15t-36.5 -4.5q-31 0 -56 10t-43 27.5t-28 40t-12 46.5q-2 22 3.5 42.5t15.5 39.5q18 31 42 47.5t52 27.5q31 13 63 27t55 37q14 14 22 33t8 44q0 9 -2 21t-7 22.5
t-14.5 17.5t-24.5 7q-21 0 -32 -16t-13.5 -36.5t5 -40.5t24.5 -29q-6 -20 -18 -32t-27 -17.5t-31 -4t-30 8.5q-19 10 -30 30t-9 46q3 26 19.5 49t41.5 37q21 11 49 16.5t51 5.5q52 0 88.5 -14t59.5 -39.5t33.5 -62t10.5 -81.5zM253 96q16 5 26.5 18.5t10.5 33.5v204
q-5 -19 -17 -34.5t-26 -29.5t-29.5 -29t-28.5 -32q-14 -20 -18.5 -43t1.5 -43q4 -15 13 -25.5t20.5 -16t24 -6.5t23.5 3z" />
    <glyph glyph-name="Cacute" unicode="&#x106;" horiz-adv-x="642" 
d="M487 445q-19 54 -45.5 98t-55.5 73t-59.5 42.5t-58.5 5.5q-32 -9 -53 -41t-30.5 -80t-6 -108.5t20.5 -125.5t44.5 -119t59.5 -90.5t66.5 -54t66.5 -8.5q26 7 48.5 24t40.5 39.5t32.5 48t25.5 48.5v-125q-32 -32 -72 -47.5t-79 -20.5q-18 -2 -37.5 -3t-42.5 -1
q-66 0 -124.5 27.5t-102 75t-68.5 111.5t-25 136q0 51 13 98.5t36 88t56 73t72 54.5q66 34 141 36q35 1 70.5 -3t67.5 -15q24 -9 46 -22.5t40 -33.5q21 -23 30 -46t7 -43.5t-13.5 -37.5t-30.5 -29q-33 -22 -80 -25zM219 741l54 152h151l-125 -152h-80z" />
    <glyph glyph-name="cacute" unicode="&#x107;" 
d="M309 306q-29 14 -39 47q20 8 28.5 25.5t8.5 37.5q0 33 -18.5 51.5t-42.5 18.5q-31 0 -50 -22t-26.5 -57.5t-4.5 -79.5t15 -88q10 -35 28 -74t47 -67q20 -19 43.5 -30t47.5 -11t46.5 11t40.5 35l14 -8q-6 -16 -15.5 -28.5t-20.5 -22.5q-25 -22 -66 -35q-20 -6 -41.5 -7.5
t-46.5 -1.5q-46 1 -87 21.5t-71.5 55t-48 80t-17.5 97.5t17.5 97.5t48 79.5t71.5 54.5t87 21.5q26 0 54 -3t53 -14q34 -14 54 -43t20 -61q1 -25 -10 -44t-28 -31q-21 -14 -45.5 -15t-45.5 10zM137 548l55 152h151l-125 -152h-81z" />
    <glyph glyph-name="Ccircumflex" unicode="&#x108;" horiz-adv-x="642" 
d="M163 741l94 152h129l94 -152h-78l-80 84l-81 -84h-78zM487 445q-19 54 -45.5 98t-55.5 73t-59.5 42.5t-58.5 5.5q-31 -9 -52.5 -41t-31 -80t-6 -108.5t20.5 -125.5t44.5 -119t59.5 -90.5t66.5 -54t66.5 -8.5q26 7 48.5 24t41 39.5t33 48t25.5 48.5v-125
q-33 -32 -73 -47.5t-79 -20.5q-18 -2 -37.5 -3t-42.5 -1q-66 0 -124.5 27.5t-102 75t-68.5 111.5t-25 136q0 51 13 98.5t36 88t56 73t72 54.5q66 34 141 36q35 1 70.5 -3t67.5 -15q24 -9 46 -22.5t40 -33.5q21 -23 30 -46t7 -43.5t-13.5 -37.5t-30.5 -29q-33 -22 -80 -25z
" />
    <glyph glyph-name="Cdotaccent" unicode="&#x10a;" horiz-adv-x="642" 
d="M408 817q0 -31 -25.5 -53.5t-61.5 -22.5t-61.5 22.5t-25.5 53.5q0 32 25.5 54t61.5 22t61.5 -22t25.5 -54zM487 445q-19 54 -45.5 98t-55.5 73t-59.5 42.5t-58.5 5.5q-32 -9 -53 -41t-30.5 -80t-6 -108.5t20.5 -125.5t44.5 -119t59.5 -90.5t66.5 -54t66.5 -8.5
q26 7 48.5 24t40.5 39.5t32.5 48t25.5 48.5v-125q-32 -32 -72 -47.5t-79 -20.5q-18 -2 -37.5 -3t-42.5 -1q-66 0 -124.5 27.5t-102 75t-68.5 111.5t-25 136q0 51 13 98.5t36 88t56 73t72 54.5q32 17 68 26t73 10q35 1 70.5 -3t67.5 -15q24 -9 46 -22.5t40 -33.5
q21 -23 30 -46t7 -43.5t-13.5 -37.5t-30.5 -29q-33 -22 -80 -25z" />
    <glyph glyph-name="cdotaccent" unicode="&#x10b;" 
d="M310 306q-29 14 -40 47q20 8 28.5 25.5t8.5 37.5q0 33 -18 51.5t-43 18.5q-31 0 -50 -22t-26.5 -57.5t-4.5 -79.5t15 -88q10 -35 28.5 -74t47.5 -67q20 -19 43.5 -30t47 -11t46 11t40.5 35l14 -8q-6 -16 -15.5 -28.5t-20.5 -22.5q-25 -22 -66 -35q-20 -6 -41.5 -7.5
t-46.5 -1.5q-46 1 -87 21.5t-71.5 55t-48 80t-17.5 97.5t17.5 97.5t48 79.5t71.5 54.5t87 21.5q26 0 54 -3t53 -14q34 -14 54 -43t21 -61q0 -25 -10.5 -44t-28.5 -31q-20 -14 -45 -15t-45 10zM327 624q0 -31 -25.5 -53.5t-61.5 -22.5t-61.5 22.5t-25.5 53.5q0 32 25.5 54
t61.5 22t61.5 -22t25.5 -54z" />
    <glyph glyph-name="Ccaron" unicode="&#x10c;" horiz-adv-x="642" 
d="M487 445q-19 54 -45.5 98t-55.5 73t-59.5 42.5t-58.5 5.5q-31 -9 -52.5 -41t-31 -80t-6 -108.5t20.5 -125.5t44.5 -119t59.5 -90.5t66.5 -54t66.5 -8.5q26 7 48.5 24t40.5 39.5t33 48t26 48.5v-125q-33 -32 -73 -47.5t-79 -20.5q-18 -2 -37.5 -3t-42.5 -1
q-66 0 -124.5 27.5t-102 75t-68.5 111.5t-25 136q0 51 13 98.5t36 88t56 73t72 54.5q66 34 141 36q35 1 70.5 -3t67.5 -15q24 -9 46 -22.5t40 -33.5q21 -23 30 -46t7 -43.5t-13.5 -37.5t-30.5 -29q-33 -22 -80 -25zM480 893l-94 -152h-129l-94 152h78l81 -83l80 83h78z" />
    <glyph glyph-name="ccaron" unicode="&#x10d;" 
d="M310 306q-29 14 -40 47q20 8 28.5 25.5t8.5 37.5q0 33 -18 51.5t-43 18.5q-31 0 -50 -22t-26.5 -57.5t-4.5 -79.5t15 -88q10 -35 28.5 -74t47.5 -67q20 -19 43.5 -30t47 -11t46 11t40.5 35l14 -8q-5 -16 -15 -28.5t-21 -22.5q-25 -22 -65 -35q-20 -6 -42 -7.5t-47 -1.5
q-46 1 -87 21.5t-71.5 55t-48 80t-17.5 97.5t17.5 97.5t48 79.5t71.5 54.5t87 21.5q26 0 54 -3t53 -14q34 -14 54 -43t21 -61q0 -25 -10.5 -44t-28.5 -31q-20 -14 -45 -15t-45 10zM399 700l-95 -152h-128l-95 152h79l80 -84l80 84h79z" />
    <glyph glyph-name="Dcaron" unicode="&#x10e;" horiz-adv-x="616" 
d="M215 22h24q50 0 87.5 34t58.5 84q20 47 30 101t10 109t-10 109t-30 102q-21 49 -58.5 83t-87.5 34h-24v-656zM472 893l-94 -152h-129l-95 152h79l80 -83l81 83h78zM303 700q63 0 111 -24.5t82 -66.5q42 -50 62.5 -118.5t20.5 -140.5t-20.5 -140.5t-62.5 -118.5
q-34 -42 -82 -66.5t-111 -24.5h-259q15 23 21 52t6 55v486q0 26 -6 55t-21 52h259z" />
    <glyph glyph-name="dcaron" unicode="&#x10f;" horiz-adv-x="687" 
d="M330 670q15 0 35 0.5t43 3.5t47 9t46 17v-550q0 -23 0.5 -44t4.5 -40t13 -35.5t26 -30.5q-16 0 -42.5 7.5t-55 12.5t-53.5 2.5t-37 -22.5v23q-44 -23 -95 -23q-48 0 -89.5 20t-72.5 54t-49 80.5t-18 98.5q0 53 18 99t49 80.5t72.5 54.5t89.5 20q51 0 95 -23v78
q0 18 -2 33.5t-4 26.5q-5 19 -11 30t-10 18zM626 700q37 0 62 -22t25 -54q0 -36 -15 -71.5t-39 -66t-53 -53.5t-58 -35l-9 12q30 29 49 65t29 74q-33 3 -55.5 24.5t-22.5 50.5q0 32 25.5 54t61.5 22zM357 148q-2 28 -6.5 59.5t-13.5 65.5q-12 46 -29 85t-35 66t-36.5 41
t-33.5 9q-16 -4 -25 -24.5t-11 -53.5t3 -74.5t17 -87.5t29 -84.5t35 -66t36.5 -41t33.5 -9.5q17 4 25.5 27t10.5 58v30z" />
    <glyph glyph-name="dcroat" unicode="&#x111;" horiz-adv-x="571" 
d="M501 602h44v-75h-44v-377q0 -23 0.5 -44t4.5 -40t13 -35.5t26 -30.5q-16 0 -42.5 7.5t-55 12.5t-53.5 2.5t-37 -22.5v23q-44 -23 -95 -23q-47 0 -89 20t-73 54.5t-49 80.5t-18 99t18 99t49 80t73 54t89 20q51 0 95 -23v43h-160v75h157q-1 6 -1.5 10.5t-1.5 9.5
q-5 19 -11 30t-10 18q15 0 35 0.5t43 3.5t47 9t46 17v-98zM357 148q-2 28 -6.5 59.5t-13.5 65.5q-12 46 -29 85t-35 66t-36.5 41t-33.5 9q-16 -4 -25 -24.5t-11 -53.5t3 -74.5t17 -87.5t29 -84.5t35 -66t36.5 -41t33.5 -9.5q17 4 25.5 27t10.5 58v30z" />
    <glyph glyph-name="Emacron" unicode="&#x112;" horiz-adv-x="545" 
d="M44 0q15 23 21 52t6 55v486q0 26 -6 55t-21 52h434l21 -164q-8 33 -28.5 59t-47.5 44.5t-58.5 28.5t-61.5 10h-88v-216q7 10 17.5 14.5t23.5 6.5q16 2 35 -1t40 -7q32 -6 62.5 -6.5t51.5 20.5q20 -32 15.5 -60t-24.5 -45q-22 -18 -57 -18.5t-70 25.5q-11 8 -20.5 16
t-19.5 17q-9 7 -17.5 12.5t-17.5 8.5q-19 5 -19 -23v-400h7q38 0 81.5 17t83.5 47q21 16 40.5 35t34.5 41q29 -14 40 -40t6 -53q-5 -28 -26.5 -48.5t-57.5 -20.5h-380zM96 764v106h362v-106h-362z" />
    <glyph glyph-name="emacron" unicode="&#x113;" 
d="M192 319q24 0 48.5 6.5t42.5 20.5q14 11 21.5 27t8.5 33q1 15 -3.5 29t-13.5 25.5t-22 18.5t-28 7q-24 0 -41 -14t-26.5 -36.5t-13 -53t-0.5 -63.5h27zM59 571v106h362v-106h-362zM250 298h-82q3 -31 12 -59q10 -35 28 -74t47 -67q20 -19 43.5 -30t47.5 -11t46.5 11
t40.5 35l14 -8q-6 -16 -15.5 -28.5t-20.5 -22.5q-25 -22 -66 -35q-20 -6 -41.5 -7.5t-46.5 -1.5q-46 1 -87 21.5t-71.5 55t-48 80t-17.5 97.5t17.5 97.5t48 79.5t71.5 54.5t87 21.5q25 0 49.5 -2t47.5 -10q17 -6 32 -16t27 -26q27 -33 24 -75q-2 -21 -12.5 -39t-32.5 -28
q-16 -7 -34.5 -9.5t-38 -3.5t-37.5 -0.5t-32 0.5v0z" />
    <glyph glyph-name="Ebreve" unicode="&#x114;" horiz-adv-x="545" 
d="M277 741q-42 0 -70.5 16t-46 39.5t-25 50t-7.5 46.5h43q2 -7 9 -18t20 -20.5t32 -16.5t45 -7t45.5 7t32.5 16.5t20 20.5t8 18h43q0 -20 -7.5 -46.5t-25 -50t-46 -39.5t-70.5 -16zM44 0q15 23 21 52t6 55v486q0 26 -6 55t-21 52h434l21 -164q-8 33 -28.5 59t-47.5 44.5
t-58.5 28.5t-61.5 10h-88v-216q7 10 17.5 14.5t23.5 6.5q16 2 35 -1t40 -7q32 -6 62.5 -6.5t51.5 20.5q20 -32 15.5 -60t-24.5 -45q-22 -18 -57 -18.5t-70 25.5q-11 8 -20.5 16t-19.5 17q-9 7 -17.5 12.5t-17.5 8.5q-19 5 -19 -23v-400h7q38 0 81.5 17t83.5 47
q21 16 40.5 35t34.5 41q29 -14 40 -40t6 -53q-5 -28 -26.5 -48.5t-57.5 -20.5h-380z" />
    <glyph glyph-name="ebreve" unicode="&#x115;" 
d="M192 319q24 0 48.5 6.5t42.5 20.5q14 11 21.5 27t8.5 33q1 15 -3.5 29t-13.5 25.5t-22 18.5t-28 7q-24 0 -40.5 -14t-26.5 -36.5t-13.5 -53t-0.5 -63.5h27zM240 548q-42 0 -70.5 16t-46 39.5t-25 50t-7.5 46.5h43q2 -7 9 -18t20 -20.5t32 -16.5t45 -7t45.5 7t32.5 16.5
t20 20.5t8 18h43q0 -20 -7.5 -46.5t-25 -50t-46 -39.5t-70.5 -16zM250 298h-82q3 -31 12 -59q10 -35 28.5 -74t47.5 -67q20 -19 43.5 -30t47 -11t46 11t40.5 35l14 -8q-6 -16 -15.5 -28.5t-20.5 -22.5q-25 -22 -66 -35q-20 -6 -41.5 -7.5t-46.5 -1.5q-46 1 -87 21.5
t-71.5 55t-48 80t-17.5 97.5t17.5 97.5t48 79.5t71.5 54.5t87 21.5q25 0 49.5 -2t47.5 -10q17 -6 32 -16t28 -26q12 -16 18.5 -35.5t4.5 -39.5q-2 -21 -12.5 -39t-32.5 -28q-16 -7 -34.5 -9.5t-38 -3.5t-37.5 -0.5t-32 0.5v0z" />
    <glyph glyph-name="Edotaccent" unicode="&#x116;" horiz-adv-x="545" 
d="M44 0q16 23 21.5 52t5.5 55v486q0 26 -5.5 55t-21.5 52h434l21 -164q-8 33 -28.5 59t-47.5 44.5t-58.5 28.5t-61.5 10h-88v-216q7 10 17.5 14.5t24.5 6.5q15 2 34 -1t40 -7q32 -6 62.5 -6.5t51.5 20.5q20 -32 15.5 -60t-24.5 -45q-22 -18 -57 -18.5t-70 25.5
q-11 8 -20.5 16t-19.5 17q-9 7 -17.5 12.5t-17.5 8.5q-19 5 -19 -23v-400h7q38 0 81.5 17t83.5 47q45 33 75 76q30 -14 40.5 -40t5.5 -53q-5 -28 -26.5 -48.5t-57.5 -20.5h-380zM364 817q0 -31 -25.5 -53.5t-61.5 -22.5t-61.5 22.5t-25.5 53.5q0 32 25.5 54t61.5 22
t61.5 -22t25.5 -54z" />
    <glyph glyph-name="edotaccent" unicode="&#x117;" 
d="M192 319q24 0 48.5 6.5t42.5 20.5q14 11 21.5 27t8.5 33q1 15 -3.5 29t-13.5 25.5t-22 18.5t-28 7q-24 0 -40.5 -14t-26.5 -36.5t-13.5 -53t-0.5 -63.5h27zM327 624q0 -31 -25.5 -53.5t-61.5 -22.5t-61.5 22.5t-25.5 53.5q0 32 25.5 54t61.5 22t61.5 -22t25.5 -54z
M250 298h-82q3 -31 12 -59q10 -35 28.5 -74t47.5 -67q20 -19 43.5 -30t47 -11t46 11t40.5 35l14 -8q-6 -16 -15.5 -28.5t-20.5 -22.5q-25 -22 -66 -35q-20 -6 -41.5 -7.5t-46.5 -1.5q-46 1 -87 21.5t-71.5 55t-48 80t-17.5 97.5t17.5 97.5t48 79.5t71.5 54.5t87 21.5
q25 0 49.5 -2t47.5 -10q17 -6 32 -16t28 -26q12 -16 18.5 -35.5t4.5 -39.5q-2 -21 -12.5 -39t-32.5 -28q-16 -7 -34.5 -9.5t-38 -3.5t-37.5 -0.5t-32 0.5v0z" />
    <glyph glyph-name="Eogonek" unicode="&#x118;" horiz-adv-x="544" 
d="M43 0q16 23 21.5 52t5.5 55v486q0 26 -5.5 55t-21.5 52h434l21 -164q-8 33 -28.5 59t-47.5 44.5t-58.5 28.5t-61.5 10h-88v-216q7 10 17.5 14.5t24.5 6.5q15 2 34 -1t40 -7q32 -6 62.5 -6.5t51.5 20.5q20 -32 15.5 -60t-24.5 -45q-22 -18 -57 -18.5t-70 25.5
q-11 8 -20.5 16t-19.5 17q-9 7 -17.5 12.5t-17.5 8.5q-19 5 -19 -23v-400h7q38 0 81.5 17t83.5 47q45 33 75 76q30 -14 40.5 -40t5.5 -53q-5 -28 -26.5 -48.5t-57.5 -20.5h-101q-17 -24 -28 -51q-5 -16 -5.5 -32t5.5 -29q3 -6 9 -12.5t13 -11t15 -6t15 0.5l4 -15
q-11 -15 -32.5 -26t-44.5 -11q-28 0 -45 14q-24 19 -26 48q-1 18 6.5 36t18.5 32t23 25t24 21q5 5 10.5 8.5t10.5 8.5h-252z" />
    <glyph glyph-name="eogonek" unicode="&#x119;" 
d="M192 319q24 0 48.5 6.5t42.5 20.5q14 11 21.5 27t8.5 33q1 15 -3.5 29t-13.5 25.5t-22 18.5t-28 7q-24 0 -41 -14t-26.5 -36.5t-13 -53t-0.5 -63.5h27zM257 0q-46 1 -87 21.5t-71.5 55t-48 80t-17.5 96.5q0 52 17.5 98t48 80t71.5 54.5t87 21.5q25 0 49.5 -2t47.5 -10
q17 -6 32 -16t27 -26q27 -33 24 -75q-2 -21 -12.5 -39t-32.5 -28q-16 -7 -34.5 -9.5t-38 -3.5t-37.5 -0.5t-32 0.5h-82q3 -31 12 -59q9 -35 27.5 -74t47.5 -67q20 -19 43.5 -30t47.5 -11t46.5 11t40.5 35l14 -8q-6 -16 -15.5 -28.5t-20.5 -22.5q-25 -22 -66 -35
q-14 -4 -28 -5.5t-30 -2.5q-9 -11 -16.5 -24.5t-12.5 -27.5q-13 -33 0 -61q3 -7 9 -13t13 -10.5t15 -6t15 0.5l4 -15q-11 -15 -32.5 -26t-44.5 -11q-28 0 -45 14q-14 10 -19.5 22.5t-6.5 26.5q-1 17 6 35t19 32q11 13 22.5 24.5t24.5 21.5q5 5 10.5 9t10.5 8h-2z" />
    <glyph glyph-name="Ecaron" unicode="&#x11a;" horiz-adv-x="545" 
d="M44 0q15 23 21 52t6 55v486q0 26 -6 55t-21 52h434l21 -164q-8 33 -28.5 59t-47.5 44.5t-58.5 28.5t-61.5 10h-88v-216q7 10 17.5 14.5t23.5 6.5q16 2 35 -1t40 -7q32 -6 62.5 -6.5t51.5 20.5q20 -32 15.5 -60t-24.5 -45q-22 -18 -57 -18.5t-70 25.5q-11 8 -20.5 16
t-19.5 17q-9 7 -17.5 12.5t-17.5 8.5q-19 5 -19 -23v-400h7q38 0 81.5 17t83.5 47q21 16 40.5 35t34.5 41q29 -14 40 -40t6 -53q-5 -28 -26.5 -48.5t-57.5 -20.5h-380zM436 893l-95 -152h-128l-95 152h79l80 -83l80 83h79z" />
    <glyph glyph-name="ecaron" unicode="&#x11b;" 
d="M192 319q24 0 48.5 6.5t42.5 20.5q14 11 21.5 27t8.5 33q1 15 -3.5 29t-13.5 25.5t-22 18.5t-28 7q-24 0 -41 -14t-26.5 -36.5t-13 -53t-0.5 -63.5h27zM399 700l-95 -152h-128l-95 152h79l80 -84l80 84h79zM250 298h-82q3 -31 12 -59q10 -35 28 -74t47 -67
q20 -19 43.5 -30t47.5 -11t46.5 11t40.5 35l14 -8q-6 -16 -15.5 -28.5t-20.5 -22.5q-25 -22 -66 -35q-20 -6 -41.5 -7.5t-46.5 -1.5q-46 1 -87 21.5t-71.5 55t-48 80t-17.5 97.5t17.5 97.5t48 79.5t71.5 54.5t87 21.5q25 0 49.5 -2t47.5 -10q17 -6 32 -16t27 -26
q27 -33 24 -75q-2 -21 -12.5 -39t-32.5 -28q-16 -7 -34.5 -9.5t-38 -3.5t-37.5 -0.5t-32 0.5v0z" />
    <glyph glyph-name="Gcircumflex" unicode="&#x11c;" horiz-adv-x="674" 
d="M487 445q-19 54 -45.5 98t-55.5 73t-59.5 42.5t-58.5 5.5q-32 -9 -53 -41t-30.5 -80t-6 -108.5t20.5 -125.5q15 -56 38 -104.5t50 -84.5t56.5 -58t58.5 -27q14 -2 33.5 1.5t29.5 8.5v168q0 26 -5.5 55t-21.5 52h198q-6 -10 -16.5 -35t-10.5 -72v-106q0 -48 10.5 -73
t16.5 -34h-171v10q-16 -4 -33 -6q-18 -2 -37.5 -3t-42.5 -1q-66 0 -124.5 27.5t-102 75t-68.5 111.5t-25 136q0 51 13 98.5t36 88t56 73t72 54.5q66 34 141 36q35 1 70.5 -3t67.5 -15q24 -9 46 -22.5t40 -33.5q21 -23 30 -46t7 -43.5t-13.5 -37.5t-30.5 -29q-33 -22 -80 -25
zM175 741l95 152h128l95 -152h-79l-80 84l-80 -84h-79z" />
    <glyph glyph-name="Gbreve" unicode="&#x11e;" horiz-adv-x="674" 
d="M487 445q-19 54 -45.5 98t-55.5 73t-59.5 42.5t-58.5 5.5q-31 -9 -52.5 -41t-31 -80t-6 -108.5t20.5 -125.5q15 -56 38 -104.5t50 -84.5t56.5 -58t58.5 -27q14 -2 33.5 1.5t29.5 8.5v168q0 26 -5.5 55t-21.5 52h198q-6 -10 -16.5 -35t-10.5 -72v-106q0 -48 10.5 -73
t16.5 -34h-171v10q-16 -4 -33 -6q-18 -2 -37.5 -3t-42.5 -1q-66 0 -124.5 27.5t-102 75t-68.5 111.5t-25 136q0 51 13 98.5t36 88t56 73t72 54.5q66 34 142 36q35 1 70 -3t67 -15q24 -9 46 -22.5t40 -33.5q21 -23 30 -46t7 -43.5t-13.5 -37.5t-30.5 -29q-33 -22 -80 -25z
M334 741q-42 0 -70.5 16t-46 39.5t-25 50t-7.5 46.5h43q2 -7 9 -18t20 -20.5t32 -16.5t45 -7t45.5 7t32.5 16.5t20 20.5t8 18h43q0 -20 -7.5 -46.5t-25 -50t-46 -39.5t-70.5 -16z" />
    <glyph glyph-name="gbreve" unicode="&#x11f;" horiz-adv-x="503" 
d="M367 472q42 -27 66 -70t24 -94q0 -41 -16.5 -77.5t-44.5 -63.5t-65.5 -42.5t-80.5 -15.5q-63 0 -113 32l-62 -83l9 5q34 16 77.5 26t88.5 11q37 1 78.5 -7.5t73.5 -29.5q33 -20 48 -46t16 -55q1 -38 -22 -73.5t-64 -58.5q-34 -19 -74.5 -21t-84.5 -2q-19 0 -39.5 3.5
t-39.5 11.5q-25 10 -44.5 29.5t-27.5 43.5q-12 36 3 65t44 39q16 5 33.5 2.5t34.5 -13.5q-5 -38 11.5 -70t45.5 -53q30 -23 65.5 -30.5t64.5 7.5q20 11 25 33.5t-12 54.5q-8 14 -22.5 28.5t-36.5 26.5q-29 15 -61 23t-59 10q-38 2 -75 -3.5t-65 -22.5l-32 44l87 115
q-36 28 -57.5 68.5t-21.5 88.5q0 41 16.5 77.5t44.5 63.5t66 42.5t81 15.5q28 0 54 -7t49 -19q3 5 6 11t7 12q12 21 27.5 38t39.5 16q19 -1 30 -16t3 -35q-12 3 -25 3t-26 -5q-29 -8 -48 -33zM401 700q0 -20 -7.5 -46.5t-25.5 -50t-46.5 -39.5t-70.5 -16t-70 16t-45.5 39.5
t-25 50t-7.5 46.5h42q2 -7 9 -18t20 -20.5t32 -16.5t45 -7t45.5 7t32.5 16.5t20.5 20.5t8.5 18h43zM311 324q-10 36 -23 66.5t-28 51.5t-29.5 31.5t-27.5 7.5q-12 -3 -19.5 -20t-9.5 -42.5t1.5 -58.5t13.5 -69q9 -36 22.5 -66t28 -51.5t29.5 -32t27 -7.5q13 3 20.5 20
t9.5 42.5t-1.5 58.5t-13.5 69z" />
    <glyph glyph-name="Gdotaccent" unicode="&#x120;" horiz-adv-x="674" 
d="M487 445q-19 54 -45.5 98t-55.5 73t-59.5 42.5t-58.5 5.5q-32 -9 -53 -41t-30.5 -80t-6 -108.5t20.5 -125.5q15 -56 38 -104.5t50 -84.5t56.5 -58t58.5 -27q14 -2 33.5 1.5t29.5 8.5v168q0 26 -5.5 55t-21.5 52h198q-6 -10 -16.5 -35t-10.5 -72v-106q0 -48 10.5 -73
t16.5 -34h-171v10q-16 -4 -33 -6q-18 -2 -37.5 -3t-42.5 -1q-66 0 -124.5 27.5t-102 75t-68.5 111.5t-25 136q0 51 13 98.5t36 88t56 73t72 54.5q66 34 142 36q35 1 70 -3t67 -15q24 -9 46 -22.5t40 -33.5q21 -23 30 -46t7 -43.5t-13.5 -37.5t-30.5 -29q-33 -22 -80 -25z
M421 817q0 -31 -25.5 -53.5t-61.5 -22.5t-61.5 22.5t-25.5 53.5q0 32 25.5 54t61.5 22t61.5 -22t25.5 -54z" />
    <glyph glyph-name="gdotaccent" unicode="&#x121;" horiz-adv-x="503" 
d="M42 308q0 41 16.5 77.5t44.5 63.5t66 42.5t81 15.5q28 0 54 -7t49 -19q3 5 6 11t7 12q12 21 27.5 38t39.5 16q19 -1 30 -16t3 -35q-12 3 -25 3t-26 -5q-29 -8 -48 -33q42 -27 66.5 -70t24.5 -94q0 -41 -16.5 -77.5t-45 -63.5t-66 -42.5t-80.5 -15.5q-62 0 -113 31
l-62 -82l9 5q34 16 77.5 26t88.5 11q38 1 79 -7.5t73 -29.5q33 -20 48 -46t16 -55q1 -38 -22 -73.5t-64 -58.5q-34 -19 -74.5 -21t-84.5 -2q-19 0 -39.5 3.5t-39.5 11.5q-25 10 -44.5 29.5t-27.5 43.5q-12 36 3 65t44 39q16 5 33.5 2.5t34.5 -13.5q-5 -38 11.5 -70t45.5 -53
q30 -23 65.5 -30.5t64.5 7.5q20 11 25 33.5t-12 54.5q-8 14 -22.5 28.5t-36.5 26.5q-29 15 -61 23t-59 10q-38 2 -75 -3.5t-65 -22.5l-32 44l87 115q-36 28 -57.5 68.5t-21.5 88.5zM252 548q-36 0 -61.5 22.5t-25.5 53.5q0 32 25.5 54t61.5 22t61.5 -22t25.5 -54
q0 -31 -25.5 -53.5t-61.5 -22.5zM203 481q-12 -3 -19.5 -20t-9.5 -42.5t1.5 -58.5t13.5 -69q9 -36 22.5 -66t28 -51.5t29.5 -32t27 -7.5q13 3 20.5 20t9.5 42.5t-1.5 58.5t-13.5 69q-9 36 -22.5 66.5t-28 51.5t-29.5 31.5t-28 7.5z" />
    <glyph glyph-name="Hcircumflex" unicode="&#x124;" horiz-adv-x="611" 
d="M540 593v-486q0 -48 10 -73t16 -34h-198q16 23 21.5 52t5.5 55v281q-11 -10 -25 -15q-24 -8 -46 -2q-23 5 -40 20q-8 6 -14 13.5t-14 15.5l-15 15q-5 3 -8.5 5.5t-7.5 1.5q-4 0 -7 -4t-3 -15v-316q0 -48 10.5 -73t16.5 -34h-198q16 23 21.5 52t5.5 55v486q0 26 -5.5 55
t-21.5 52h198q-6 -9 -16.5 -34t-10.5 -73v-118q11 8 23 8.5t28 -1.5q10 -2 20.5 -4t22.5 -4q16 -3 31.5 -3.5t27.5 2t19.5 9t7.5 18.5v93q0 26 -5.5 55t-21.5 52h198q-6 -9 -16 -34t-10 -73zM225 741h-79l95 152h128l95 -152h-79l-80 84z" />
    <glyph glyph-name="Itilde" unicode="&#x128;" horiz-adv-x="285" 
d="M43 0q16 23 21.5 52t5.5 55v486q0 26 -5.5 55t-21.5 52h198q-6 -9 -16.5 -34t-10.5 -73v-486q0 -48 10.5 -73t16.5 -34h-198zM-35 815q8 21 23 37.5t36 27t46 13t52 -4.5q4 -1 7.5 -2t8.5 -3q23 -7 47 -17t46.5 -15.5t43 -2.5t37.5 22l7 -16q-8 -21 -23.5 -37.5t-36 -27
t-45 -13.5t-51.5 4q-5 2 -8.5 2.5t-7.5 2.5q-24 7 -48 17.5t-46.5 16t-43.5 2.5t-38 -23z" />
    <glyph glyph-name="itilde" unicode="&#x129;" horiz-adv-x="273" 
d="M209 107q0 -48 10.5 -73t16.5 -34h-198q16 23 21.5 52t5.5 55v262q0 18 -2 33.5t-4 26.5q-5 19 -11 30t-10 17q15 0 35 1t43 4t47 9t46 17v-168v-232zM314 661q-8 -21 -23.5 -37.5t-36 -27t-45 -13.5t-51.5 4q-5 2 -8.5 2.5t-7.5 1.5q-24 7 -48 17.5t-46.5 16t-43.5 3
t-38 -22.5l-6 17q8 21 23.5 37.5t36 27t45.5 13t52 -4.5q4 -1 7.5 -2t8.5 -3q24 -7 47.5 -17.5t46 -16t43 -2.5t38.5 23z" />
    <glyph glyph-name="Imacron" unicode="&#x12a;" horiz-adv-x="286" 
d="M242 700q-7 -9 -17 -34t-10 -73v-486q0 -48 10 -73t17 -34h-198q15 23 21 52t6 55v486q0 26 -6 55t-21 52h198zM-38 764v106h361v-106h-361z" />
    <glyph glyph-name="imacron" unicode="&#x12b;" horiz-adv-x="272" 
d="M209 107q0 -47 10 -72t16 -35h-197q15 23 20.5 52t5.5 55v262q0 38 -6 60q-4 19 -10 30t-10 17q14 0 34.5 1t43.5 4t47 9t46 17v-400zM-44 571v106h361v-106h-361z" />
    <glyph glyph-name="Ibreve" unicode="&#x12c;" horiz-adv-x="286" 
d="M44 0q16 23 21.5 52t5.5 55v486q0 26 -5.5 55t-21.5 52h198q-6 -9 -16.5 -34t-10.5 -73v-486q0 -48 10.5 -73t16.5 -34h-198zM143 741q-42 0 -70.5 16t-46 39.5t-25 50t-7.5 46.5h43q2 -7 9 -18t20 -20.5t32 -16.5t45 -7t45 7t32 16.5t20.5 20.5t8.5 18h43
q0 -20 -7.5 -46.5t-25 -50t-46 -39.5t-70.5 -16z" />
    <glyph glyph-name="ibreve" unicode="&#x12d;" horiz-adv-x="272" 
d="M209 107q0 -47 10.5 -72t16.5 -35h-198q16 23 21.5 52t5.5 55v262q0 18 -2 33.5t-4 26.5q-5 19 -11 30t-10 17q15 0 35 1t43 4t47 9t46 17v-400zM137 548q-42 0 -70.5 16t-46 39.5t-25 50t-7.5 46.5h43q2 -7 9 -18t20 -20.5t32 -16.5t45 -7t45.5 7t32.5 16.5t20 20.5
t8 18h43q0 -20 -7.5 -46.5t-25 -50t-46 -39.5t-70.5 -16z" />
    <glyph glyph-name="Idotaccent" unicode="&#x130;" horiz-adv-x="286" 
d="M44 0q15 23 21 52t6 55v486q0 26 -6 55t-21 52h198q-7 -9 -17 -34t-10 -73v-486q0 -48 10 -73t17 -34h-198zM230 817q0 -31 -25.5 -53.5t-61.5 -22.5t-61.5 22.5t-25.5 53.5q0 32 25.5 54t61.5 22t61.5 -22t25.5 -54z" />
    <glyph glyph-name="dotlessi" unicode="&#x131;" horiz-adv-x="271" 
d="M209 107q0 -47 10.5 -72t16.5 -35h-198q15 23 21 52t6 55v262q0 18 -2 33.5t-5 26.5q-4 19 -10 30t-10 17q15 0 35 1t43 4t47 9t46 17v-400z" />
    <glyph glyph-name="Jcircumflex" unicode="&#x134;" horiz-adv-x="457" 
d="M57 741l94 152h129l95 -152h-79l-80 84l-81 -84h-78zM106 250q16 2 33.5 -1.5t33 -14t26.5 -28.5t14 -44q-35 0 -50.5 -22.5t-15.5 -49.5q0 -26 13 -47t34 -21q25 0 35.5 18.5t14.5 44.5q3 22 2.5 44t-0.5 36v428q0 20 -3.5 43t-11.5 43l-5.5 11t-6.5 10h198
q-6 -9 -16.5 -34t-10.5 -73v-408q0 -96 -52.5 -140.5t-141.5 -44.5q-28 0 -57 6t-54 19.5t-43 35.5t-25 54q-6 29 1 56.5t27 47.5q23 25 61 31z" />
    <glyph glyph-name="Lacute" unicode="&#x139;" horiz-adv-x="520" 
d="M44 0q16 23 21.5 52t5.5 55v486q0 26 -5.5 55t-21.5 52h198q-16 -23 -21.5 -52t-5.5 -55v-571h7q38 0 81.5 17t83.5 47q45 33 75 76q30 -14 41 -40t6 -53q-5 -28 -27 -48.5t-58 -20.5h-380zM175 741l54 152h151l-125 -152h-80z" />
    <glyph glyph-name="Lcaron" unicode="&#x13d;" horiz-adv-x="555" 
d="M43 0q15 23 21 52t6 55v486q0 26 -6 55t-21 52h198q-16 -23 -21.5 -52t-5.5 -55v-571h7q38 0 81.5 17t83.5 47q45 33 75 76q29 -14 40 -40t6 -53q-5 -28 -26.5 -48.5t-57.5 -20.5h-380zM439 700q36 0 61.5 -22t25.5 -54q0 -37 -15 -72.5t-39 -65.5t-53.5 -53t-58.5 -35
l-8 12q29 29 48 65t29 74q-32 3 -54.5 24.5t-22.5 50.5q0 32 25.5 54t61.5 22z" />
    <glyph glyph-name="lcaron" unicode="&#x13e;" horiz-adv-x="398" 
d="M36 670q15 0 35 0.5t43 3.5t47 9t46 17v-593q0 -47 10.5 -72t16.5 -35h-198q15 23 21 52t6 55v455q0 18 -2 33.5t-5 26.5q-4 19 -10 30t-10 18zM337 700q37 0 62.5 -22t25.5 -54q0 -36 -15 -71.5t-39 -66t-53.5 -53.5t-58.5 -35l-8 12q29 29 48 65t29 74
q-32 3 -54.5 24.5t-22.5 50.5q0 32 25.5 54t60.5 22z" />
    <glyph glyph-name="Lslash" unicode="&#x141;" horiz-adv-x="542" 
d="M92 107v68l-58 -59v107l58 57v313q0 26 -5.5 55t-21.5 52h198q-16 -23 -21.5 -52t-5.5 -55v-168l159 159v-106l-159 -159v-297h8q37 0 80.5 17t83.5 47q44 32 76 76q29 -14 40 -40t6 -53q-5 -28 -27 -48.5t-57 -20.5h-381q16 23 21.5 52t5.5 55v0z" />
    <glyph glyph-name="lslash" unicode="&#x142;" horiz-adv-x="396" 
d="M276 475l108 109v-106l-108 -109v-262q0 -47 10 -72t17 -35h-198q15 23 20.5 52t5.5 55v118l-108 -109v106l108 109v231q0 38 -6 60q-4 19 -10 30t-10 18q14 0 34.5 0.5t43.5 3.5t47 9t46 17v-225z" />
    <glyph glyph-name="Nacute" unicode="&#x143;" horiz-adv-x="595" 
d="M44 0q15 23 21 52t6 55v486q0 26 -6 55t-21 52h69l383 -456v349q0 26 -5.5 55t-21.5 52h85q-6 -9 -16 -34t-10 -73v-481q0 -21 -7 -41.5t-20 -36t-30.5 -25t-38.5 -9.5q-8 0 -22 1.5t-25 3.5q14 15 20 34.5t5.5 39t-8 38t-19.5 30.5l-281 332v-372q0 -48 10.5 -73
t16.5 -34h-85zM196 741l55 152h151l-126 -152h-80z" />
    <glyph glyph-name="nacute" unicode="&#x144;" horiz-adv-x="508" 
d="M361 497q39 -15 63.5 -55t24.5 -104v-231q0 -47 10 -72t17 -35h-198q16 23 21.5 52t5.5 55v232q0 19 -0.5 39.5t-2.5 39.5q-4 26 -17 39t-28 13q-17 1 -31 -13.5t-16 -43.5q-1 -16 -1 -34.5v-39.5v-232q0 -47 10.5 -72t16.5 -35h-198q16 23 21.5 52t5.5 55v262
q0 18 -2 33.5t-4 26.5q-5 19 -11 30t-10 17q15 0 35 1t43 4t47 9t46 17v-41q15 21 42 31t56 10t54 -10zM154 548l54 152h152l-126 -152h-80z" />
    <glyph glyph-name="Ncaron" unicode="&#x147;" horiz-adv-x="595" 
d="M44 0q15 23 21 52t6 55v486q0 26 -6 55t-21 52h69l383 -456v349q0 26 -5.5 55t-21.5 52h85q-6 -9 -16 -34t-10 -73v-481q0 -21 -7 -41.5t-20 -36t-30.5 -25t-38.5 -9.5q-8 0 -22 1.5t-25 3.5q14 15 20 34.5t5.5 39t-8 38t-19.5 30.5l-281 332v-372q0 -48 10.5 -73
t16.5 -34h-85zM458 893l-94 -152h-129l-95 152h79l80 -83l81 83h78z" />
    <glyph glyph-name="ncaron" unicode="&#x148;" horiz-adv-x="508" 
d="M361 497q39 -15 63.5 -55t24.5 -104v-231q0 -47 10 -72t17 -35h-198q16 23 21.5 52t5.5 55v232q0 19 -0.5 39.5t-2.5 39.5q-4 26 -17 39t-28 13q-17 1 -31 -13.5t-16 -43.5q-1 -16 -1 -34.5v-39.5v-232q0 -47 10.5 -72t16.5 -35h-198q16 23 21.5 52t5.5 55v262
q0 18 -2 33.5t-4 26.5q-5 19 -11 30t-10 17q15 0 35 1t43 4t47 9t46 17v-41q15 21 42 31t56 10t54 -10zM416 700l-95 -152h-129l-94 152h78l81 -84l80 84h79z" />
    <glyph glyph-name="Omacron" unicode="&#x14c;" horiz-adv-x="704" 
d="M352 700q66 0 124 -27.5t101.5 -75t68.5 -111.5t25 -136t-25 -136t-68.5 -111.5t-101.5 -75t-124 -27.5t-124.5 27.5t-102 75t-68.5 111.5t-25 136t25 136t68.5 111.5t102 75t124.5 27.5zM171 870h361v-106h-361v106zM504 391q-17 65 -44.5 119t-59.5 91t-66 54t-66 9
q-32 -9 -53 -41t-30.5 -80t-6 -108.5t20.5 -125.5t44.5 -119t59.5 -90.5t66.5 -54t66.5 -8.5q32 8 53 40t30 80t5.5 108.5t-20.5 125.5z" />
    <glyph glyph-name="omacron" unicode="&#x14d;" horiz-adv-x="524" 
d="M491 254q0 -53 -18 -99t-49 -80.5t-73 -54.5t-89 -20q-48 0 -89.5 20t-72.5 54.5t-49 80.5t-18 99t18 99t49 80t72.5 54t89.5 20q47 0 89 -20t73 -54t49 -80t18 -99zM81 571v106h361v-106h-361zM187 234q12 -46 29 -84.5t35 -66t36.5 -41t33.5 -9.5t24 24.5t11.5 53.5
t-2.5 74.5t-17 87.5t-29 85t-35 66t-36.5 41t-33.5 9q-16 -4 -25 -24.5t-11 -53.5t3 -74.5t17 -87.5z" />
    <glyph glyph-name="Obreve" unicode="&#x14e;" horiz-adv-x="704" 
d="M352 700q66 0 124 -27.5t101.5 -75t68.5 -111.5t25 -136t-25 -136t-68.5 -111.5t-101.5 -75t-124 -27.5t-124.5 27.5t-102 75t-68.5 111.5t-25 136t25 136t68.5 111.5t102 75t124.5 27.5zM501 893q0 -20 -7.5 -46.5t-25 -50t-46 -39.5t-70.5 -16t-70.5 16t-46.5 39.5
t-25.5 50t-7.5 46.5h43q2 -7 9 -18t20 -20.5t32.5 -16.5t45.5 -7t45 7t32 16.5t20.5 20.5t8.5 18h43zM504 391q-17 65 -44.5 119t-59.5 91t-66 54t-66 9q-32 -9 -53 -41t-30.5 -80t-6 -108.5t20.5 -125.5t44.5 -119t59.5 -90.5t66.5 -54t66.5 -8.5q32 8 53 40t30 80
t5.5 108.5t-20.5 125.5z" />
    <glyph glyph-name="obreve" unicode="&#x14f;" horiz-adv-x="524" 
d="M491 254q0 -53 -18 -99t-49 -80.5t-73 -54.5t-89 -20q-48 0 -89.5 20t-72.5 54.5t-49 80.5t-18 99t18 99t49 80t72.5 54t89.5 20q47 0 89 -20t73 -54t49 -80t18 -99zM262 548q-42 0 -70.5 16t-46 39.5t-25 50t-7.5 46.5h43q1 -7 8 -18t20 -20.5t32.5 -16.5t45.5 -7t45 7
t32 16.5t20.5 20.5t8.5 18h43q0 -20 -7.5 -46.5t-25 -50t-46 -39.5t-70.5 -16zM187 234q12 -46 29 -84.5t35 -66t36.5 -41t33.5 -9.5t24 24.5t11.5 53.5t-2.5 74.5t-17 87.5t-29 85t-35 66t-36.5 41t-33.5 9q-16 -4 -25 -24.5t-11 -53.5t3 -74.5t17 -87.5z" />
    <glyph glyph-name="Ohungarumlaut" unicode="&#x150;" horiz-adv-x="704" 
d="M352 700q66 0 124 -27.5t101.5 -75t68.5 -111.5t25 -136t-25 -136t-68.5 -111.5t-101.5 -75t-124 -27.5t-124.5 27.5t-102 75t-68.5 111.5t-25 136t25 136t68.5 111.5t102 75t124.5 27.5zM160 741l54 152h151l-125 -152h-80zM338 741l54 152h151l-125 -152h-80zM504 391
q-17 65 -44.5 119t-59.5 91t-66 54t-66 9q-31 -9 -52.5 -41t-31 -80t-6 -108.5t20.5 -125.5t44.5 -119t59.5 -90.5t66.5 -54t66.5 -8.5q32 8 53 40t30 80t5.5 108.5t-20.5 125.5z" />
    <glyph glyph-name="ohungarumlaut" unicode="&#x151;" horiz-adv-x="524" 
d="M491 254q0 -53 -18 -99t-49 -80.5t-73 -54.5t-89 -20q-48 0 -89.5 20t-72.5 54.5t-49 80.5t-18 99t18 99t49 80t72.5 54t89.5 20q47 0 89 -20t73 -54t49 -80t18 -99zM99 548l54 152h151l-125 -152h-80zM277 548l54 152h151l-125 -152h-80zM187 234q12 -46 29 -84.5
t35 -66t36.5 -41t33.5 -9.5t24 24.5t11.5 53.5t-2.5 74.5t-17 87.5t-29 85t-35 66t-36.5 41t-33.5 9q-16 -4 -25 -24.5t-11 -53.5t3 -74.5t17 -87.5z" />
    <glyph glyph-name="OE" unicode="&#x152;" horiz-adv-x="999" 
d="M268 664q-31 -9 -52.5 -41t-31 -80t-6 -108.5t20.5 -125.5t44.5 -119t59.5 -90.5t66.5 -54t66.5 -8.5q41 11 65 62.5t25 125.5v20q-1 35 -6 71.5t-16 74.5q-17 65 -44.5 119t-59.5 91t-66 54t-66 9zM32 350q0 72 25 136t68.5 111.5t102 75t124.5 27.5q46 0 88.5 -13.5
t79.5 -38.5q-3 14 -8 27.5t-13 24.5h434l20 -164q-8 33 -28 59t-47 44.5t-58.5 28.5t-61.5 10h-88v-216q7 10 17.5 14.5t23.5 6.5q16 2 35 -1t40 -7q32 -6 62.5 -6.5t50.5 20.5q20 -32 16 -60t-24 -45q-23 -18 -57.5 -18.5t-70.5 25.5q-10 8 -19.5 16t-20.5 16
q-8 8 -16.5 13.5t-17.5 7.5q-19 7 -19 -22v-39q1 -8 1 -16.5v-16.5v-16.5t-1 -16.5v-295h7q38 0 81 17t83 47q22 16 41.5 35t34.5 41q29 -14 40 -40t6 -53q-5 -28 -26.5 -48.5t-57.5 -20.5h-380q14 22 21 53q-37 -26 -79.5 -39.5t-88.5 -13.5q-66 0 -124.5 27.5t-102 75
t-68.5 111.5t-25 136z" />
    <glyph glyph-name="oe" unicode="&#x153;" horiz-adv-x="797" 
d="M512 319q24 0 48.5 6.5t42.5 20.5q14 11 21.5 27t9.5 33q0 15 -4.5 29t-13.5 25.5t-22 18.5t-28 7q-24 0 -40.5 -14t-26.5 -36.5t-13.5 -53t-0.5 -63.5h27zM422 72q-32 -33 -72.5 -52.5t-87.5 -19.5q-48 0 -89.5 20t-72.5 54t-49 80.5t-18 98.5q0 53 18 99t49 80.5
t72.5 54.5t89.5 20q47 0 87.5 -19.5t72.5 -52.5q30 32 70 51.5t85 20.5q25 0 49.5 -2t47.5 -10q17 -6 32 -16t28 -26q12 -16 18.5 -35.5t4.5 -39.5q-2 -21 -12.5 -39t-32.5 -28q-16 -7 -34.5 -9.5t-37.5 -3.5t-37 -0.5t-32 0.5h-83q2 -15 5 -30t7 -29q10 -35 28 -74t47 -67
q20 -19 43.5 -30t47.5 -11t46.5 11t40.5 35l14 -8q-5 -16 -15 -28.5t-21 -22.5q-25 -22 -66 -35q-20 -6 -41.5 -7.5t-46.5 -1.5q-45 1 -85 20.5t-70 51.5zM187 234q12 -46 29 -84.5t35 -66t36.5 -41t33.5 -9.5t24 24.5t11.5 53.5t-2.5 74.5t-17 87.5t-29 85t-35 66t-36.5 41
t-33.5 9q-16 -4 -25 -24.5t-11 -53.5t3 -74.5t17 -87.5z" />
    <glyph glyph-name="Racute" unicode="&#x154;" horiz-adv-x="585" 
d="M44 0q15 23 21 52t6 55v486q0 26 -6 55t-21 52h309q34 0 64.5 -13t53 -35.5t35.5 -52.5t13 -64q0 -48 -25 -89q-26 -44 -77 -62q-9 -3 -18 -5.5t-20 -4.5q54 -3 81 -32q22 -23 30.5 -56t10.5 -69.5t3 -72.5t8 -66q6 -26 18 -46t32 -32q-17 0 -37.5 -1t-41.5 1
q-51 2 -77 21t-37 48q-13 32 -12.5 74.5t-0.5 86.5q0 11 -1 24.5t-3.5 28t-6.5 28.5t-12 24q-15 20 -39 19q-19 0 -39 -13q-14 -8 -24 -20t-16 -25v-189q0 -26 5.5 -55t21.5 -52h-198zM200 741l55 152h151l-126 -152h-80zM215 329q6 17 19 30.5t30 26.5q20 14 36 25t30 22
q26 20 37 52.5t9 67.5q-2 24 -10 46.5t-22 39.5q-13 17 -35 28q-24 11 -52 11h-42v-349z" />
    <glyph glyph-name="racute" unicode="&#x155;" horiz-adv-x="483" 
d="M209 507v-45q11 8 21.5 15.5t21.5 12.5q18 8 38.5 12.5t40.5 4.5q27 0 51.5 -8t42.5 -23.5t28.5 -38t8.5 -51.5q-2 -35 -21.5 -58t-47.5 -31q-22 -6 -48 -2.5t-46 20.5q14 11 21 30t7.5 40t-4.5 41t-14 32q-8 11 -20.5 14.5t-30.5 -4.5q-19 -9 -32 -36q-10 -23 -13.5 -49
t-3.5 -43v-233q0 -47 10.5 -72t16.5 -35h-198q16 23 21.5 52t5.5 55v262q0 18 -2 33.5t-4 26.5q-5 19 -11 30t-10 17q15 0 35 1t43 4t47 9t46 17v0zM148 548l54 152h151l-125 -152h-80z" />
    <glyph glyph-name="Rcaron" unicode="&#x158;" horiz-adv-x="585" 
d="M44 0q15 23 21 52t6 55v486q0 26 -6 55t-21 52h309q34 0 64.5 -13t53 -35.5t35.5 -52.5t13 -64q0 -48 -25 -89q-26 -44 -77 -62q-9 -3 -18.5 -5.5t-19.5 -4.5q54 -3 81 -32q22 -23 30.5 -56t10.5 -69.5t3 -72.5t8 -66q6 -26 18 -46t32 -32q-17 0 -37.5 -1t-41.5 1
q-51 2 -77 21t-37 48q-13 32 -13 74.5v86.5q0 11 -1 24.5t-3.5 28t-7 28.5t-12.5 24q-6 9 -15.5 14.5t-22.5 4.5q-19 0 -39 -13q-14 -8 -24 -20t-16 -25v-189q0 -26 5.5 -55t21.5 -52h-198zM462 893l-95 -152h-128l-95 152h78l81 -83l80 83h79zM215 329q6 17 19 30.5
t30 26.5q20 14 36 25t30 22q26 20 37 52.5t9 67.5q-2 24 -10 46.5t-22 39.5q-13 17 -35 28q-24 11 -52 11h-42v-349z" />
    <glyph glyph-name="rcaron" unicode="&#x159;" horiz-adv-x="483" 
d="M209 462q21 18 43 28q36 17 79 17q27 0 51 -8t42.5 -23.5t29 -38t8.5 -51.5q-2 -35 -21.5 -58t-47.5 -31q-22 -6 -48.5 -2.5t-46.5 20.5q14 11 21 30t7.5 40t-4 41t-14.5 32q-8 11 -20.5 14.5t-29.5 -4.5q-19 -9 -32 -36q-10 -23 -13.5 -49t-3.5 -43v-233q0 -47 10 -72
t17 -35h-198q15 23 21 52t6 55v262q0 18 -2 33.5t-5 26.5q-4 19 -10 30t-10 17q15 0 35 1t43 4t47 9t46 17v-45zM409 700l-95 -152h-128l-95 152h79l80 -84l80 84h79z" />
    <glyph glyph-name="Sacute" unicode="&#x15a;" horiz-adv-x="564" 
d="M236 227q-28 -8 -43 -28.5t-19 -43.5q-4 -24 2.5 -47.5t21 -42.5t36 -30.5t46.5 -11.5q32 0 53.5 10.5t35.5 28.5q28 37 25.5 76t-22.5 76q-20 40 -52.5 72.5t-69.5 61.5q-35 29 -74 57.5t-68 60.5q-22 25 -33.5 53.5t-9.5 57.5q1 26 10.5 47t26.5 36t38 23.5t43.5 12.5
t46 4h45.5q50 -1 91.5 -9t72.5 -7q30 0 47 14v-191q-25 28 -52.5 58.5t-55 56t-55 42t-53.5 16.5q-32 0 -49 -13t-21 -32q-3 -17 3 -36t22 -38q26 -29 60.5 -55t66.5 -52t63.5 -53t57.5 -61q29 -36 42.5 -74t11.5 -75q-2 -48 -30 -91t-82 -72q-29 -15 -63.5 -21.5
t-71.5 -6.5q-38 0 -80 7.5t-69 21.5q-29 15 -52 39t-36 53q-14 34 -10 71t24 65q17 23 43 35.5t60 5.5q26 -5 46.5 -22.5t29.5 -48.5zM177 741l54 152h151l-125 -152h-80z" />
    <glyph glyph-name="sacute" unicode="&#x15b;" horiz-adv-x="468" 
d="M188 164q-22 -9 -31 -28.5t-7 -41.5q3 -29 25 -53.5t60 -24.5q35 0 56.5 23t20.5 57q0 18 -5 32.5t-13 27.5q-14 21 -33 40t-42 37q-21 17 -43.5 34.5t-43.5 36.5q-12 11 -25.5 24.5t-25 29t-18 32t-5.5 34.5q3 30 24 49q24 23 62 30q20 3 40.5 4t38.5 1q38 0 73 -5
t58 -4q11 0 20 1t16 6v-195q-11 23 -32.5 57.5t-50.5 63.5q-24 26 -49.5 42.5t-49.5 15.5q-16 -1 -23.5 -7.5t-9.5 -15.5q-2 -11 4 -22.5t15.5 -22.5t20.5 -20t19 -16q20 -17 41 -33t41 -33t39 -34t35 -36q18 -23 30.5 -48t14.5 -54q2 -39 -16.5 -67t-48 -46.5t-65.5 -27
t-70 -8.5q-19 0 -40 1t-41 5q-26 5 -49.5 17t-40.5 31q-17 18 -25.5 40.5t-6.5 45.5q2 29 20.5 51.5t56.5 26.5q26 3 48.5 -10.5t30.5 -42.5zM131 548l54 152h151l-125 -152h-80z" />
    <glyph glyph-name="Scircumflex" unicode="&#x15c;" horiz-adv-x="564" 
d="M236 227q-28 -8 -42.5 -28.5t-19.5 -43.5q-4 -24 2.5 -47.5t21 -42.5t36 -30.5t46.5 -11.5q32 0 54 10.5t36 28.5q27 37 24.5 76t-22.5 76q-20 40 -52.5 72.5t-69.5 61.5q-35 29 -74 57.5t-68 60.5q-22 25 -33.5 53.5t-9.5 57.5q1 26 10.5 47t26.5 36t38 23.5t43.5 12.5
t46 4h45.5q50 -1 91.5 -9t72.5 -7q30 0 47 14v-191q-25 28 -52.5 58.5t-55 56t-55 42t-53.5 16.5q-32 0 -49 -13t-21 -32q-3 -17 3 -36t22 -38q26 -29 60.5 -55t66.5 -52t63.5 -53t57.5 -61q29 -36 42.5 -74t11.5 -75q-2 -48 -30 -91t-82 -72q-29 -15 -63.5 -21.5
t-71.5 -6.5q-38 0 -80 7.5t-68 21.5q-30 15 -53 39t-36 53q-14 34 -10 71t24 65q17 23 43 35.5t61 5.5q25 -5 45.5 -22.5t29.5 -48.5zM121 741l94 152h129l94 -152h-78l-80 84l-81 -84h-78z" />
    <glyph glyph-name="Scedilla" unicode="&#x15e;" horiz-adv-x="564" 
d="M353 -100q0 -37 -31 -65q-17 -15 -43.5 -21.5t-54.5 -6.5q-20 0 -37.5 3t-31.5 9l14 26q24 -5 41 6t23.5 27.5t1 33t-26.5 21.5l53 68q-35 2 -71 9t-59 19q-29 15 -52 39t-36 53q-14 34 -10 71t24 65q17 23 43 35.5t60 5.5q26 -5 46.5 -22.5t29.5 -48.5q-28 -8 -43 -28.5
t-19 -43.5q-4 -24 2.5 -47.5t21 -42.5t36 -30.5t46.5 -11.5q32 0 53.5 10.5t35.5 28.5q28 37 25.5 76t-22.5 76q-21 40 -53 72.5t-69 61.5q-35 29 -74 57.5t-68 60.5q-22 25 -33.5 53.5t-9.5 57.5q1 26 10.5 47t26.5 36t38 23.5t43.5 12.5t46 4h45.5q50 -1 91.5 -9t72.5 -7
q30 0 47 14v-191q-25 28 -52.5 58.5t-55 56t-55 42t-53.5 16.5q-32 0 -49 -13t-21 -32q-3 -17 3 -36t22 -38q26 -29 60.5 -55t66.5 -52t63.5 -53t57.5 -61q29 -36 42.5 -74t11.5 -75q-2 -48 -30 -91t-82 -72q-24 -13 -52 -19t-59 -8l-19 -27q17 -4 30.5 -10.5t21.5 -16.5
q16 -19 16 -47z" />
    <glyph glyph-name="scedilla" unicode="&#x15f;" horiz-adv-x="468" 
d="M188 164q-22 -9 -31 -28.5t-7 -41.5q3 -29 25 -53.5t60 -24.5q35 0 56.5 23t20.5 57q0 18 -5 32.5t-13 27.5q-14 21 -33 40t-42 37q-21 17 -43.5 34.5t-43.5 36.5q-12 11 -25.5 24.5t-25 29t-18 32t-5.5 34.5q3 30 24 49q24 23 62 30q20 3 40.5 4t38.5 1q38 0 73 -5
t58 -4q11 0 20 1t16 6v-195q-11 23 -32.5 57.5t-50.5 63.5q-24 26 -49.5 42.5t-49.5 15.5q-16 -1 -23.5 -7.5t-9.5 -15.5q-2 -11 4 -22.5t15.5 -22.5t20.5 -20t19 -16q20 -17 41 -33t41 -33t39 -34t35 -36q18 -23 30.5 -48t14.5 -54q2 -37 -14.5 -64t-43.5 -45t-61 -27.5
t-67 -11.5l-18 -26q17 -4 30.5 -10.5t21.5 -16.5q16 -19 16 -47q0 -37 -31 -65q-17 -15 -43.5 -21.5t-54.5 -6.5q-20 0 -37.5 3t-31.5 9l14 26q24 -5 41 6t23 27.5t0.5 33t-26.5 21.5l53 67q-24 0 -52 5q-26 5 -49 17t-41 31q-17 18 -25.5 40.5t-6.5 45.5q2 29 20.5 51.5
t56.5 26.5q26 3 48.5 -10.5t30.5 -42.5z" />
    <glyph glyph-name="Scaron" unicode="&#x160;" horiz-adv-x="564" 
d="M236 227q-28 -8 -43 -28.5t-19 -43.5q-4 -24 2.5 -47.5t21 -42.5t36 -30.5t46.5 -11.5q32 0 54 10.5t36 28.5q27 37 24.5 76t-22.5 76q-21 40 -53 72.5t-69 61.5q-35 29 -74 57.5t-68 60.5q-22 25 -33.5 53.5t-9.5 57.5q1 26 10.5 47t26.5 36t38 23.5t43.5 12.5t45.5 4
h45q51 -1 93 -9t72 -7q30 0 47 14v-191q-25 28 -52.5 58.5t-55 56t-55 42t-53.5 16.5q-32 0 -49 -13t-21 -32q-3 -17 3 -36t22 -38q26 -29 60.5 -55t66.5 -52t63.5 -53t57.5 -61q29 -36 42.5 -74t11.5 -75q-2 -48 -30 -91t-82 -72q-29 -15 -63.5 -21.5t-71.5 -6.5
q-38 0 -80 7.5t-69 21.5q-29 15 -52 39t-36 53q-14 34 -10 71t24 65q17 23 43 35.5t60 5.5q26 -5 46.5 -22.5t29.5 -48.5zM438 893l-94 -152h-129l-94 152h78l80 -83l81 83h78z" />
    <glyph glyph-name="scaron" unicode="&#x161;" horiz-adv-x="468" 
d="M188 164q-22 -9 -31 -28.5t-7 -41.5q3 -29 25 -53.5t60 -24.5q35 0 56.5 23t20.5 57q0 18 -5 32.5t-13 27.5q-14 21 -33 40t-42 37q-21 17 -43.5 34.5t-43.5 36.5q-12 11 -25.5 24.5t-25 29t-18 32t-5.5 34.5q3 30 24 49q24 23 62 30q20 3 40.5 4t38.5 1q38 0 73 -5
t58 -4q11 0 20 1t16 6v-195q-11 23 -32.5 57.5t-50.5 63.5q-24 26 -49.5 42.5t-49.5 15.5q-16 -1 -23.5 -7.5t-9.5 -15.5q-2 -11 4 -22.5t15.5 -22.5t20.5 -20t19 -16q20 -17 41 -33t41 -33t39 -34t35 -36q18 -23 30.5 -48t14.5 -54q2 -39 -16.5 -67t-48 -46.5t-65.5 -27
t-70 -8.5q-19 0 -40 1t-41 5q-26 5 -49.5 17t-40.5 31q-17 18 -25.5 40.5t-6.5 45.5q2 29 20.5 51.5t56.5 26.5q26 3 48.5 -10.5t30.5 -42.5zM392 700l-94 -152h-129l-95 152h79l80 -84l81 84h78z" />
    <glyph glyph-name="Tcaron" unicode="&#x164;" horiz-adv-x="546" 
d="M174 0q15 23 21 52t6 55v571h-24q-27 0 -51.5 -15t-45.5 -39.5t-37.5 -55t-26.5 -61.5v193h513v-193q-10 31 -26.5 61.5t-37.5 55t-45.5 39.5t-51.5 15h-23v-571q0 -26 5.5 -55t21.5 -52h-198zM432 893l-95 -152h-129l-94 152h79l80 -83l80 83h79z" />
    <glyph glyph-name="Utilde" unicode="&#x168;" horiz-adv-x="550" 
d="M209 202q0 -34 10.5 -59t28 -41.5t40 -24t45.5 -6.5t45 9.5t39 25t27.5 41t10.5 55.5v391q0 26 -5.5 55t-21.5 52h84q-6 -9 -16.5 -34t-10.5 -73v-403q0 -42 -13 -77t-37.5 -60t-61 -39t-83.5 -14t-88 13t-71.5 37.5t-48 60t-17.5 79.5v403q0 26 -6 55t-21 52h198
q-6 -9 -16.5 -34t-10.5 -73v-391zM98 815q8 21 23 37.5t36 27t46 13t52 -4.5q3 -1 6.5 -2t8.5 -3q24 -7 47.5 -17t46 -15.5t43.5 -2.5t38 22l7 -16q-8 -21 -23.5 -37.5t-36 -27t-45.5 -13.5t-52 4q-5 2 -8.5 2.5t-7.5 2.5q-24 7 -47.5 17.5t-46 16t-43.5 2.5t-38 -23z" />
    <glyph glyph-name="utilde" unicode="&#x169;" horiz-adv-x="508" 
d="M149 10q-40 15 -64 55.5t-24 103.5v200q0 18 -2 33.5t-4 26.5q-5 19 -11 30t-10 17q15 0 35 1t43 4t47 9t46 17v-339v-39.5t3 -39.5q3 -26 16.5 -39t28.5 -13q17 -1 31 13.5t16 43.5q1 16 0.5 35t0.5 39v201q0 18 -2 33.5t-4 26.5q-5 19 -11 30t-10 17q14 0 34.5 1
t43.5 4t47 9t46 17v-369q0 -18 2 -33.5t4 -26.5q5 -19 11 -30t10 -17q-15 0 -35 -1t-43 -4t-47 -9t-46 -17v41q-16 -21 -42.5 -31t-55.5 -10t-54 10zM76 622q8 21 23 37.5t35.5 27t45.5 13t52 -4.5q4 -1 7.5 -2t8.5 -2q24 -7 47.5 -17.5t46 -16.5t43.5 -2.5t38 22.5l7 -16
q-8 -21 -23.5 -37.5t-36 -27t-45.5 -13.5t-52 4q-5 2 -8.5 2.5t-7.5 1.5q-24 8 -47.5 18t-46.5 16t-43.5 3t-38.5 -23z" />
    <glyph glyph-name="Umacron" unicode="&#x16a;" horiz-adv-x="550" 
d="M209 202q0 -34 10.5 -59t28 -41.5t40 -24t45.5 -6.5t45 9.5t39 25t27.5 41t10.5 55.5v391q0 26 -6 55t-21 52h84q-6 -9 -16.5 -34t-10.5 -73v-403q0 -42 -13 -77t-37.5 -60t-61 -39t-83.5 -14t-88 13t-71.5 37.5t-48 60t-17.5 79.5v403q0 26 -6 55t-21 52h198
q-7 -9 -17 -34t-10 -73v-391zM94 764v106h361v-106h-361z" />
    <glyph glyph-name="umacron" unicode="&#x16b;" horiz-adv-x="508" 
d="M149 10q-40 15 -64 55.5t-24 103.5v200q0 18 -2 33.5t-4 26.5q-5 19 -11 30t-10 17q15 0 35 1t43 4t47 9t46 17v-339v-39.5t3 -39.5q3 -26 16.5 -39t28.5 -13q17 -1 31 13.5t16 43.5q1 16 0.5 35t0.5 39v201q0 18 -2 33.5t-4 26.5q-5 19 -11 30t-10 17q14 0 34.5 1
t43.5 4t47 9t46 17v-369q0 -18 2 -33.5t4 -26.5q5 -19 11 -30t10 -17q-15 0 -35 -1t-43 -4t-47 -9t-46 -17v41q-15 -21 -42 -31t-56 -10t-54 10zM72 571v106h362v-106h-362z" />
    <glyph glyph-name="Ubreve" unicode="&#x16c;" horiz-adv-x="550" 
d="M209 593v-391q0 -34 10.5 -59t28 -41.5t40 -24t45.5 -6.5t45 9.5t39 25t27.5 41t10.5 55.5v391q0 26 -6 55t-21 52h84q-6 -9 -16.5 -34t-10.5 -73v-403q0 -42 -13 -77t-37.5 -60t-61 -39t-83.5 -14t-88 13t-71.5 37.5t-48 60t-17.5 79.5v403q0 26 -6 55t-21 52h198
q-7 -9 -17 -34t-10 -73v0zM275 741q-42 0 -70.5 16t-46 39.5t-25 50t-7.5 46.5h43q1 -7 8 -18t20 -20.5t32.5 -16.5t45.5 -7t45 7t32 16.5t20.5 20.5t8.5 18h43q0 -20 -7.5 -46.5t-25 -50t-46 -39.5t-70.5 -16z" />
    <glyph glyph-name="ubreve" unicode="&#x16d;" horiz-adv-x="508" 
d="M149 10q-40 15 -64 55.5t-24 103.5v200q0 18 -2 33.5t-4 26.5q-5 19 -11 30t-10 17q15 0 35 1t43 4t47 9t46 17v-339v-39.5t3 -39.5q3 -26 16.5 -39t28.5 -13q17 -1 31 13.5t16 43.5q1 16 1 35v39v201q0 18 -2 33.5t-4 26.5q-5 19 -11 30t-10 17q14 0 34.5 1t43.5 4t47 9
t46 17v-369q0 -18 2 -33.5t4 -26.5q5 -19 11 -30t10 -17q-15 0 -35 -1t-43 -4t-47 -9t-46 -17v41q-15 -21 -42 -31t-56 -10t-54 10zM253 548q-42 0 -70.5 16t-46 39.5t-25 50t-7.5 46.5h43q1 -7 8 -18t20 -20.5t32.5 -16.5t45.5 -7t45 7t32 16.5t20.5 20.5t8.5 18h43
q0 -20 -7.5 -46.5t-25 -50t-46 -39.5t-70.5 -16z" />
    <glyph glyph-name="Uring" unicode="&#x16e;" horiz-adv-x="550" 
d="M201 807q0 18 7 33.5t18.5 27t27 18.5t33.5 7t34 -7t27.5 -18.5t18.5 -27t7 -33.5q0 -36 -25.5 -61.5t-61.5 -25.5q-18 0 -33.5 7t-27 18.5t-18.5 27.5t-7 34zM236 700q-7 -9 -17 -34t-10 -73v-391q0 -34 10.5 -59t28 -41.5t40 -24t45.5 -6.5t45 9.5t39 25t27.5 41
t10.5 55.5v391q0 26 -6 55t-21 52h84q-7 -9 -17 -34t-10 -73v-403q0 -42 -13 -77t-37.5 -60t-61 -39t-83.5 -14t-88 13t-71.5 37.5t-48 60t-17.5 79.5v403q0 26 -6 55t-21 52h198zM245 807q0 -18 12.5 -30t29.5 -12t29.5 12t12.5 30q0 17 -12.5 29t-29.5 12t-29.5 -12
t-12.5 -29z" />
    <glyph glyph-name="uring" unicode="&#x16f;" horiz-adv-x="509" 
d="M149 10q-40 15 -64 55.5t-24 103.5v200q0 18 -2 33.5t-4 26.5q-5 19 -11 30t-10 17q15 0 35 1t43 4t47 9t46 17v-41v-298v-39.5t3 -39.5q3 -26 16.5 -39t28.5 -13q17 -1 31 13.5t16 43.5q1 16 1 35v39v201q0 18 -2 33.5t-4 26.5q-5 19 -11 30t-10 17q15 0 35 1t43 4t47 9
t46 17v-369q0 -18 2 -33.5t4 -26.5q5 -19 11 -30t10 -17q-15 0 -35 -1t-43 -4t-47 -9t-46 -17v41q-15 -21 -42 -31t-56 -10t-54 10zM253 700q36 0 61 -25.5t25 -61.5q0 -18 -6.5 -33.5t-18.5 -27t-27.5 -18.5t-33.5 -7t-34 7t-27.5 18.5t-18.5 27t-7 33.5q0 36 25.5 61.5
t61.5 25.5zM253 655q-17 0 -29.5 -12t-12.5 -30q0 -17 12.5 -29t29.5 -12t29.5 12t12.5 29q0 18 -12.5 30t-29.5 12z" />
    <glyph glyph-name="Uhungarumlaut" unicode="&#x170;" horiz-adv-x="550" 
d="M209 202q0 -34 10.5 -59t28 -41.5t40 -24t45.5 -6.5t45 9.5t39 25t27.5 41t10.5 55.5v391q0 26 -5.5 55t-21.5 52h84q-6 -9 -16.5 -34t-10.5 -73v-403q0 -42 -13 -77t-37.5 -60t-61 -39t-83.5 -14t-88 13t-71.5 37.5t-48 60t-17.5 79.5v403q0 26 -6 55t-21 52h198
q-6 -9 -16.5 -34t-10.5 -73v-391zM115 741l55 152h151l-126 -152h-80zM293 741l55 152h151l-125 -152h-81z" />
    <glyph glyph-name="uhungarumlaut" unicode="&#x171;" horiz-adv-x="509" 
d="M149 10q-40 15 -64 55.5t-24 103.5v200q0 18 -2 33.5t-4 26.5q-5 19 -11 30t-10 17q15 0 35 1t43 4t47 9t46 17v-339v-39.5t3 -39.5q3 -26 16.5 -39t28.5 -13q17 -1 31 13.5t16 43.5q1 16 1 35v39v201q0 18 -2 33.5t-4 26.5q-5 19 -11 30t-10 17q14 0 34.5 1t43.5 4t47 9
t46 17v-369q0 -18 2 -33.5t4 -26.5q5 -19 11 -30t10 -17q-15 0 -35 -1t-43 -4t-47 -9t-46 -17v41q-15 -21 -42 -31t-56 -10t-54 10zM94 548l54 152h151l-125 -152h-80zM272 548l54 152h151l-125 -152h-80z" />
    <glyph glyph-name="Uogonek" unicode="&#x172;" horiz-adv-x="550" 
d="M272 -17q5 5 10.5 8.5t10.5 8.5h-4q-47 0 -88 13t-71.5 37.5t-48 60t-17.5 79.5v403q0 26 -5.5 55t-21.5 52h198q-6 -9 -16.5 -34t-10.5 -73v-391q0 -34 10.5 -59t28 -41.5t40 -24t45.5 -6.5t45 9.5t39 25t27.5 41t10.5 55.5v391q0 26 -5.5 55t-21.5 52h84
q-6 -9 -16.5 -34t-10.5 -73v-403q0 -77 -42 -128t-120 -60q-19 -24 -30 -53q-5 -16 -5.5 -32t5.5 -29q3 -6 9 -12.5t13 -11t15 -6t15 0.5l4 -15q-11 -15 -32.5 -26t-44.5 -11q-28 0 -45 14q-14 10 -19.5 22t-6.5 26q-1 18 6 36t19 32q23 28 47 46z" />
    <glyph glyph-name="uogonek" unicode="&#x173;" horiz-adv-x="509" 
d="M149 10q-40 15 -64 55.5t-24 103.5v200q0 18 -2 33.5t-5 26.5q-4 19 -10 30t-10 17q15 0 35 1t43 4t47 9t46 17v-339v-39.5t3 -39.5q3 -26 16.5 -39t28.5 -13q17 -1 30.5 13.5t15.5 43.5q2 16 1.5 35t0.5 39v201q0 18 -2 33.5t-5 26.5q-4 19 -10 30t-10 17q14 0 34.5 1
t43.5 4t47 9t46 17v-369q0 -37 6 -60q5 -19 11 -30t10 -17q-24 0 -47.5 -1t-45 -6.5t-39.5 -17.5t-31 -35q-3 -6 -5.5 -11.5t-4.5 -10.5q-5 -16 -5.5 -31.5t5.5 -29.5t22 -24t30 -5l4 -15q-11 -15 -32.5 -26t-44.5 -11q-28 0 -45 14q-24 19 -26 49q-1 17 6 35t19 32
q22 27 47 46q5 5 10.5 9t11.5 8v41q-16 -21 -42.5 -31t-55.5 -10t-54 10z" />
    <glyph glyph-name="Wcircumflex" unicode="&#x174;" horiz-adv-x="900" 
d="M474 296q-7 -16 -13.5 -31t-13.5 -31l-104 -234h-99l-177 607q-4 16 -12.5 32t-19 29t-22 21.5t-22.5 10.5h246q-21 -10 -25 -33t4 -55l144 -501l34 75q16 35 30.5 89t21.5 112l1 3l-64 217q-4 16 -12.5 32t-19 29t-22 21.5t-22.5 10.5h247q-22 -10 -26 -33t4 -55
l144 -501l34 75q16 35 30.5 89t22.5 112q2 21 3 46t-1 50.5t-7.5 50t-17.5 43.5q-13 23 -35 36.5t-55 14.5q16 45 50.5 67t71.5 21q23 0 45 -10t37 -30q23 -32 21.5 -81t-15.5 -104q-16 -58 -41.5 -123.5t-55.5 -133.5l-104 -234h-99zM275 741l94 152h129l94 -152h-78
l-81 84l-80 -84h-78z" />
    <glyph glyph-name="Ycircumflex" unicode="&#x176;" horiz-adv-x="542" 
d="M359 107q0 -48 10.5 -73t16.5 -34h-197q15 23 20.5 52t5.5 55v151l-146 349q-17 42 -37.5 63.5t-40.5 29.5h210q-17 -11 -12 -32.5t17 -52.5l129 -328q16 31 33 60t32 67t20 75t-3 67.5t-30 50.5t-61 23q18 45 43.5 65.5t70.5 20.5q21 0 39.5 -9.5t29.5 -24.5
q21 -27 19 -60q-1 -19 -6.5 -37.5t-12.5 -36.5q-14 -33 -32.5 -69.5t-39 -73.5t-40.5 -74t-36 -72zM130 741l94 152h129l94 -152h-78l-81 84l-80 -84h-78z" />
    <glyph glyph-name="Ydieresis" unicode="&#x178;" horiz-adv-x="542" 
d="M359 107q0 -48 10.5 -73t16.5 -34h-197q15 23 20.5 52t5.5 55v151l-146 349q-17 42 -37.5 63.5t-40.5 29.5h210q-17 -11 -12 -32.5t17 -52.5l129 -328q16 31 33 60t32 67t20 75t-3 67.5t-30 50.5t-61 23q18 45 43.5 65.5t70.5 20.5q21 0 39.5 -9.5t29.5 -24.5
q21 -27 19 -60q-1 -19 -6.5 -37.5t-13.5 -36.5q-13 -33 -32 -69.5t-39 -73.5l-40 -74t-36 -72zM267 817q0 -31 -25.5 -53.5t-61.5 -22.5t-61.5 22.5t-25.5 53.5q0 32 25.5 54t61.5 22t61.5 -22t25.5 -54zM470 817q0 -31 -25.5 -53.5t-61.5 -22.5t-61.5 22.5t-25.5 53.5
q0 32 25.5 54t61.5 22t61.5 -22t25.5 -54z" />
    <glyph glyph-name="Zacute" unicode="&#x179;" horiz-adv-x="546" 
d="M264 679q-44 0 -79.5 -19.5t-63 -47t-46 -57t-28.5 -48.5v194h447l-307 -670h66q42 -2 72.5 18t45 50.5t12.5 65.5t-25 63q36 26 72.5 23.5t60.5 -26.5q20 -19 28 -48.5t-2 -65.5q-9 -32 -31.5 -57.5t-51.5 -37.5q-23 -9 -47.5 -12.5t-50.5 -3.5h-79h-83t-80 0.5t-70 0.5
l305 678h-65zM170 741l55 152h151l-125 -152h-81z" />
    <glyph glyph-name="zacute" unicode="&#x17a;" horiz-adv-x="464" 
d="M282 486h-69h-14q-34 -1 -57.5 -14t-39.5 -34t-27.5 -48t-21.5 -56v174h375q0 -39 -14.5 -73t-37 -66.5t-50.5 -63.5t-55 -63q-21 -24 -39.5 -49t-33 -52t-23 -56.5t-8.5 -62.5h28q34 -1 60 11.5t41 33t18 46.5t-9 52q20 12 41 14t40 -6q20 -8 32.5 -25.5t13.5 -42.5
q0 -26 -14.5 -50.5t-41.5 -37.5q-20 -10 -42.5 -13.5t-45.5 -3.5h-62.5h-67t-65 0.5t-55.5 0.5q0 58 13.5 105.5t34.5 87.5t47 73t51 62q20 22 37.5 42t31 39t21.5 38t8 38v0zM132 548l54 152h152l-126 -152h-80z" />
    <glyph glyph-name="Zdotaccent" unicode="&#x17b;" horiz-adv-x="546" 
d="M263 679q-43 0 -79 -19.5t-63 -47t-45.5 -57t-28.5 -48.5v194h447l-307 -670h66q42 -2 72.5 18t45 50.5t12.5 65.5t-25 63q36 26 72.5 23.5t60.5 -26.5q20 -19 28 -48.5t-2 -65.5q-9 -32 -31.5 -57.5t-51.5 -37.5q-23 -9 -47.5 -12.5t-50.5 -3.5h-79h-83t-80 0.5t-70 0.5
l304 678h-65zM360 817q0 -31 -25.5 -53.5t-61.5 -22.5t-61.5 22.5t-25.5 53.5q0 32 25.5 54t61.5 22t61.5 -22t25.5 -54z" />
    <glyph glyph-name="zdotaccent" unicode="&#x17c;" horiz-adv-x="464" 
d="M282 486h-69h-13q-34 -1 -57.5 -14t-40 -34t-27.5 -48t-22 -56v174h375q0 -39 -14.5 -73t-37 -66.5t-50.5 -63.5t-55 -63q-21 -24 -39.5 -49t-33 -52t-23 -56.5t-8.5 -62.5h28q34 -1 60 11.5t41 33t18 46.5t-9 52q20 12 41.5 14t39.5 -6q20 -8 32.5 -25.5t13.5 -42.5
q0 -26 -14.5 -50.5t-41.5 -37.5q-19 -10 -42 -13.5t-46 -3.5h-62.5h-67t-65 0.5t-55.5 0.5q0 58 13.5 105.5t34.5 87.5t47 73t51 62q20 22 37.5 42t31 39t21.5 38t8 38v0zM322 624q0 -31 -25.5 -53.5t-61.5 -22.5t-61.5 22.5t-25.5 53.5q0 32 25.5 54t61.5 22t61.5 -22
t25.5 -54z" />
    <glyph glyph-name="Zcaron" unicode="&#x17d;" horiz-adv-x="546" 
d="M264 679q-44 0 -79.5 -19.5t-63 -47t-46 -57t-28.5 -48.5v194h447l-307 -670h66q42 -2 72.5 18t45 50.5t12.5 65.5t-25 63q36 26 72.5 23.5t60.5 -26.5q20 -19 28 -48.5t-2 -65.5q-9 -32 -31.5 -57.5t-51.5 -37.5q-23 -9 -47.5 -12.5t-50.5 -3.5h-79h-83t-80 0.5t-70 0.5
l305 678h-65zM432 893l-95 -152h-128l-95 152h79l80 -83l80 83h79z" />
    <glyph glyph-name="zcaron" unicode="&#x17e;" horiz-adv-x="464" 
d="M282 486h-69h-14q-34 -1 -57.5 -14t-39.5 -34t-27.5 -48t-21.5 -56v174h375q0 -39 -14.5 -73t-37 -66.5t-50.5 -63.5t-55 -63q-21 -24 -39.5 -49t-33 -52t-23 -56.5t-8.5 -62.5h27q35 -1 61 11.5t41 33t18 46.5t-9 52q20 12 41 14t40 -6q20 -8 32.5 -25.5t12.5 -42.5
q1 -26 -14 -50.5t-41 -37.5q-20 -10 -42.5 -13.5t-45.5 -3.5h-62.5h-67t-65 0.5t-55.5 0.5q0 58 13.5 105.5t34.5 87.5t47 73t51 62q20 22 37.5 42t31 39t21.5 38t8 38v0zM394 700l-95 -152h-129l-94 152h78l81 -84l80 84h79z" />
    <glyph glyph-name="uni0226" unicode="&#x226;" horiz-adv-x="549" 
d="M307 700l183 -603q5 -15 11 -30.5t13.5 -29t17 -24t20.5 -13.5h-214q13 11 17 24.5t3 28.5t-6 31l-10 32q-2 8 -4.5 16t-4.5 16h-137q-38 0 -64.5 -15t-34.5 -44v1q-2 -5 -3 -9.5t-3 -9.5q-7 -24 -6 -42t17 -29h-100q24 14 40 42t24 54l187 604h54zM364 817
q0 -31 -25.5 -53.5t-61.5 -22.5t-61.5 22.5t-25.5 53.5q0 32 25.5 54t61.5 22t61.5 -22t25.5 -54zM225 507q-20 -68 -35.5 -119t-28 -91l-22.5 -72t-19 -61q14 19 33.5 27.5t39.5 8.5h124q-20 69 -44.5 148t-47.5 159z" />
    <glyph glyph-name="circumflex" unicode="&#x2c6;" horiz-adv-x="358" 
d="M20 548l95 152h128l95 -152h-79l-80 84l-80 -84h-79z" />
    <glyph glyph-name="caron" unicode="&#x2c7;" horiz-adv-x="356" 
d="M337 700l-95 -152h-129l-94 152h78l81 -83l80 83h79z" />
    <glyph glyph-name="breve" unicode="&#x2d8;" horiz-adv-x="349" 
d="M174 548q-42 0 -70.5 16t-46 39.5t-25 50t-7.5 46.5h43q2 -7 9 -18t20 -20.5t32 -16.5t45 -7t45 7t32 16.5t20.5 20.5t8.5 18h43q0 -20 -7.5 -46.5t-25 -50t-46 -39.5t-70.5 -16z" />
    <glyph glyph-name="dotaccent" unicode="&#x2d9;" horiz-adv-x="229" 
d="M201 624q0 -31 -25.5 -53.5t-61.5 -22.5t-61.5 22.5t-25.5 53.5q0 32 25.5 54t61.5 22t61.5 -22t25.5 -54z" />
    <glyph glyph-name="ogonek" unicode="&#x2db;" horiz-adv-x="188" 
d="M153 15q-12 -13 -23 -30t-18 -36q-13 -34 0 -61q3 -6 9 -12.5t13 -11t15 -6t15 0.5l4 -15q-12 -15 -33 -26t-44 -11q-28 0 -45 14q-14 10 -19.5 22t-6.5 26q-1 18 6 36t19 32q11 14 22.5 25t24.5 21q10 8 19.5 16t20.5 16h21z" />
    <glyph glyph-name="hungarumlaut" unicode="&#x2dd;" horiz-adv-x="424" 
d="M23 548l55 152h151l-126 -152h-80zM201 548l55 152h151l-126 -152h-80z" />
    <glyph glyph-name="Sigma" unicode="&#x3a3;" horiz-adv-x="520" 
d="M493 700v-73q-10 6 -35 16.5t-72 10.5h-174l105 -159l37 -54l-173 -297h205q47 0 72 10.5t35 16.5v-171h-480l222 362l-223 338h481z" />
    <glyph glyph-name="Wgrave" unicode="&#x1e80;" horiz-adv-x="900" 
d="M474 296q-7 -16 -13.5 -31t-13.5 -31l-104 -234h-99l-177 607q-5 16 -13.5 32t-19 29t-21.5 21.5t-22 10.5h246q-21 -10 -25 -33t4 -55l144 -501l34 75q16 35 30.5 89t21.5 112l1 3l-64 217q-4 16 -12.5 32t-19 29t-22 21.5t-22.5 10.5h247q-22 -10 -26 -33t4 -55
l144 -501l34 75q16 35 30.5 89t22.5 112q2 21 3 46t-1 50.5t-7.5 50t-17.5 43.5q-13 23 -35 36.5t-55 14.5q16 45 50.5 67t71.5 21q23 0 45 -10t36 -30q24 -32 22.5 -81t-15.5 -104q-16 -58 -41.5 -123.5t-55.5 -133.5l-104 -234h-99zM456 741l-125 152h151l54 -152h-80z
" />
    <glyph glyph-name="Wacute" unicode="&#x1e82;" horiz-adv-x="901" 
d="M474 296q-6 -16 -12.5 -31t-14.5 -31l-104 -234h-99l-177 607q-4 16 -12.5 32t-19 29t-22 21.5t-22.5 10.5h247q-22 -10 -26 -33t4 -55l144 -501l34 75q16 35 31 89t21 112l1 3l-64 217q-4 16 -12.5 32t-19 29t-22 21.5t-22.5 10.5h247q-22 -10 -26 -33t4 -55l144 -501
l34 75q16 35 31 89t22 112q2 21 3 46t-1 50.5t-7.5 50t-17.5 43.5q-13 23 -34.5 36.5t-55.5 14.5q16 45 50.5 67t71.5 21q23 0 45 -10t37 -30q23 -32 22 -81t-16 -104q-15 -58 -41 -123.5t-55 -133.5l-105 -234h-99zM331 741l54 152h151l-125 -152h-80z" />
    <glyph glyph-name="Wdieresis" unicode="&#x1e84;" horiz-adv-x="900" 
d="M474 296q-7 -16 -13.5 -31t-13.5 -31l-104 -234h-99l-177 607q-4 16 -12.5 32t-19 29t-22 21.5t-22.5 10.5h246q-21 -10 -25 -33t4 -55l144 -501l34 75q16 35 30.5 89t21.5 112l1 3l-64 217q-4 16 -12.5 32t-19 29t-22 21.5t-22.5 10.5h247q-22 -10 -26 -33t4 -55
l144 -501l34 75q16 35 30.5 89t22.5 112q2 21 3 46t-1 50.5t-7.5 50t-17.5 43.5q-13 23 -35 36.5t-55 14.5q16 45 50.5 67t71.5 21q23 0 45 -10t36 -30q24 -32 22.5 -81t-15.5 -104q-16 -58 -41.5 -123.5t-55.5 -133.5l-104 -234h-99zM419 817q0 -31 -25.5 -53.5
t-61.5 -22.5t-61.5 22.5t-25.5 53.5q0 32 25.5 54t61.5 22t61.5 -22t25.5 -54zM622 817q0 -31 -25.5 -53.5t-61.5 -22.5t-61.5 22.5t-25.5 53.5q0 32 25.5 54t61.5 22t61.5 -22t25.5 -54z" />
    <glyph glyph-name="uni1EBC" unicode="&#x1ebc;" horiz-adv-x="545" 
d="M44 0q16 23 21.5 52t5.5 55v486q0 26 -5.5 55t-21.5 52h434l21 -164q-8 33 -28.5 59t-47.5 44.5t-58.5 28.5t-61.5 10h-88v-216q7 10 17.5 14.5t24.5 6.5q15 2 34.5 -1t39.5 -7q32 -6 62.5 -6.5t51.5 20.5q20 -32 15.5 -60t-24.5 -45q-22 -18 -57 -18.5t-70 25.5
q-11 8 -20.5 16t-19.5 17q-9 7 -17.5 12.5t-17.5 8.5q-19 5 -19 -23v-400h7q38 0 81.5 17t83.5 47q45 33 75 76q30 -14 41 -40t6 -53q-5 -28 -27 -48.5t-58 -20.5h-380zM100 815q8 21 23.5 37.5t36 27t45.5 13t52 -4.5q4 -1 7.5 -2t8.5 -3q24 -7 47.5 -17t46 -15.5t43 -2.5
t38.5 22l6 -16q-8 -21 -23.5 -37.5t-36 -27t-45 -13.5t-51.5 4q-5 2 -8.5 2.5t-7.5 2.5q-24 7 -48 17.5t-46.5 16t-43.5 2.5t-38 -23z" />
    <glyph glyph-name="Ygrave" unicode="&#x1ef2;" horiz-adv-x="543" 
d="M282 741l-125 152h151l54 -152h-80zM360 107q0 -48 10 -73t17 -34h-198q15 23 21 52t6 55v151l-147 349q-17 42 -37 63.5t-41 29.5h210q-17 -11 -12 -32.5t17 -52.5l129 -328q16 31 33 60t33 67q15 38 20 75t-3.5 67.5t-30.5 50.5t-61 23q18 45 43.5 65.5t70.5 20.5
q21 0 40 -9.5t30 -24.5q9 -13 14 -28.5t4 -31.5q-1 -19 -6 -37.5t-13 -36.5q-14 -33 -32.5 -69.5t-39 -73.5t-40.5 -74t-36 -72z" />
    <glyph glyph-name="endash" unicode="&#x2013;" horiz-adv-x="557" 
d="M26 195v118h504v-118h-504z" />
    <glyph glyph-name="emdash" unicode="&#x2014;" horiz-adv-x="886" 
d="M26 195v118h833v-118h-833z" />
    <glyph glyph-name="quoteleft" unicode="&#x2018;" horiz-adv-x="243" 
d="M121 398q-36 0 -61.5 22t-25.5 54q0 37 15 72.5t39 65.5t53.5 53t57.5 35l9 -12q-29 -29 -48.5 -65t-28.5 -74q32 -3 54.5 -24.5t22.5 -50.5q0 -32 -25.5 -54t-61.5 -22z" />
    <glyph glyph-name="quoteright" unicode="&#x2019;" horiz-adv-x="245" 
d="M123 700q36 0 61.5 -22t25.5 -54q0 -37 -15 -72.5t-39 -65.5t-53 -53t-58 -35l-9 12q29 29 48.5 65t28.5 74q-32 3 -54.5 24.5t-22.5 50.5q0 32 25.5 54t61.5 22z" />
    <glyph glyph-name="quotesinglbase" unicode="&#x201a;" horiz-adv-x="230" 
d="M114 152q36 0 61.5 -22t25.5 -54q0 -37 -15 -72.5t-39 -65.5t-53 -53t-58 -35l-9 12q29 29 48.5 65t28.5 74q-32 3 -54.5 24.5t-22.5 50.5q0 32 25.5 54t61.5 22z" />
    <glyph glyph-name="quotedblleft" unicode="&#x201c;" horiz-adv-x="445" 
d="M322 398q-36 0 -61.5 22t-25.5 54q0 37 15 72.5t39 65.5t53.5 53t57.5 35l9 -12q-29 -29 -48 -65t-29 -74q32 -3 54.5 -24.5t22.5 -50.5q0 -32 -25.5 -54t-61.5 -22zM121 398q-36 0 -61.5 22t-25.5 54q0 37 15 72.5t39 65.5t53.5 53t57.5 35l9 -12q-29 -29 -48 -65
t-29 -74q32 -3 54.5 -24.5t22.5 -50.5q0 -32 -25.5 -54t-61.5 -22z" />
    <glyph glyph-name="quotedblright" unicode="&#x201d;" horiz-adv-x="446" 
d="M123 700q36 0 61.5 -22t25.5 -54q0 -37 -15 -72.5t-39 -65.5t-53 -53t-58 -35l-9 12q29 29 48 65t29 74q-32 3 -54.5 24.5t-22.5 50.5q0 32 25.5 54t61.5 22zM324 700q36 0 61.5 -22t25.5 -54q0 -37 -15 -72.5t-39 -65.5t-53 -53t-58 -35l-9 12q30 29 49 65t28 74
q-32 3 -54.5 24.5t-22.5 50.5q0 32 25.5 54t61.5 22z" />
    <glyph glyph-name="quotedblbase" unicode="&#x201e;" horiz-adv-x="431" 
d="M114 152q36 0 61.5 -22t25.5 -54q0 -37 -15 -72.5t-39 -65.5t-53 -53t-58 -35l-9 12q29 29 48 65t29 74q-32 3 -54.5 24.5t-22.5 50.5q0 32 25.5 54t61.5 22zM315 152q36 0 61.5 -22t25.5 -54q0 -37 -15 -72.5t-39 -65.5t-53 -53t-58 -35l-9 12q30 29 49 65t28 74
q-32 3 -54.5 24.5t-22.5 50.5q0 32 25.5 54t61.5 22z" />
    <glyph glyph-name="dagger" unicode="&#x2020;" horiz-adv-x="538" 
d="M368 893l-74 -217l218 82v-199l-217 83q1 -17 5.5 -36t14.5 -37t24.5 -33t34.5 -25q-30 -43 -46 -108t-23.5 -136t-9 -141.5t-2.5 -125.5h-48q-1 55 -2.5 125.5t-9 141.5t-23.5 136t-46 108q20 10 34.5 25t24.5 33t14.5 37t5.5 36l-217 -83v199l217 -82l-73 217h198z" />
    <glyph glyph-name="bullet" unicode="&#x2022;" horiz-adv-x="381" 
d="M346 350q0 -28 -12.5 -52.5t-33.5 -43t-49.5 -29.5t-60.5 -11t-60.5 11t-49.5 29.5t-33.5 43t-12.5 52.5q0 29 12.5 54t33.5 43.5t49.5 29t60.5 10.5t60.5 -10.5t49.5 -29t33.5 -43.5t12.5 -54z" />
    <glyph glyph-name="guilsinglleft" unicode="&#x2039;" horiz-adv-x="324" 
d="M289 93v-32l-259 172v41l259 172v-32l-123 -160z" />
    <glyph glyph-name="guilsinglright" unicode="&#x203a;" horiz-adv-x="324" 
d="M158 254l-123 160v32l259 -172v-41l-259 -172v32z" />
    <glyph glyph-name="Euro" unicode="&#x20ac;" horiz-adv-x="724" 
d="M554 445q-19 54 -45.5 98t-55.5 73t-59.5 42.5t-58.5 5.5q-23 -6 -41 -25.5t-29.5 -48.5t-16.5 -66.5t-3 -80.5h221l-20 -75h-192q1 -9 3 -18l4 -18h176l-20 -75h-134q19 -54 45 -98.5t55.5 -74t60.5 -42.5t59 -5q26 7 48.5 24t41 39.5t33 48t25.5 48.5v-125
q-33 -32 -72.5 -47.5t-79.5 -20.5q-17 -2 -37 -3t-43 -1q-55 0 -105 19.5t-90.5 53.5t-69.5 81.5t-43 102.5h-76l20 75h45q-1 5 -1 9v9v9t1 9h-65l20 75h55q19 73 62.5 130t103.5 91q66 34 142 36q35 1 70 -3t67 -15q24 -9 46 -22.5t41 -33.5q42 -47 36 -89.5t-44 -66.5
q-33 -22 -80 -25z" />
    <glyph glyph-name="trademark" unicode="&#x2122;" horiz-adv-x="528" 
d="M128 430h-38q6 8 8.5 19.5t2.5 21.5v221h-10q-10 0 -19.5 -6t-17.5 -15.5t-14.5 -21t-10.5 -23.5v74h198v-74q-8 23 -24.5 44.5t-37.5 21.5h-9v-221q0 -10 2 -21.5t8 -19.5h-38v0zM259 430q6 8 8 19.5t2 21.5v188q0 10 -2 21.5t-8 19.5h47l73 -174l59 174h54
q-3 -4 -7 -13.5t-4 -27.5v-188q0 -18 4 -28t7 -13h-77q6 8 8.5 19.5t2.5 21.5v152l-47 -132q-8 -22 -23 -28.5t-31 -1.5q14 12 11 24t-7 23l-48 115v-152q0 -18 4 -28t7 -13h-33z" />
    <glyph glyph-name="radical" unicode="&#x221a;" horiz-adv-x="522" 
d="M459 893h78l-217 -893h-111l-121 453h-63v54h159l97 -362z" />
    <glyph glyph-name="notequal" unicode="&#x2260;" horiz-adv-x="549" 
d="M49 170v118h137l32 87h-169v119h212l74 206h130l-74 -206h108v-119h-151l-32 -87h183v-118h-225l-62 -170h-130l62 170h-95z" />
    <glyph glyph-name="lessequal" unicode="&#x2264;" horiz-adv-x="545" 
d="M497 238v-141l-469 229v48l469 229v-140l-272 -113zM28 -118v118h469v-118h-469z" />
    <glyph glyph-name="greaterequal" unicode="&#x2265;" horiz-adv-x="545" 
d="M319 350l-272 113v140l470 -229v-48l-470 -229v141zM47 -118v118h470v-118h-470z" />
    <glyph glyph-name="uniF000" unicode="&#xf000;" horiz-adv-x="530" 
d="M303 700l161 -528q12 -38 27 -87t33 -99t38.5 -96t42.5 -79q19 -27 41.5 -45t48.5 -10q23 7 32.5 25.5t7.5 37.5q-1 13 -7.5 24.5t-17 18t-24.5 7t-31 -8.5q8 44 35 62.5t57 17.5q35 -2 56.5 -18t29.5 -41q11 -37 0 -65t-34 -47q-21 -17 -48.5 -26t-56.5 -9
q-81 0 -133 26t-88 72q-23 29 -40.5 63t-34.5 74q-23 53 -40.5 101t-28.5 77h-137q-38 0 -64.5 -14.5t-34.5 -43.5v1q-2 -5 -3 -9.5t-2 -9.5q-8 -24 -7 -42t17 -29h-100q24 14 40 42t24 54l187 604h54zM221 507q-20 -68 -35.5 -119t-28 -91l-22.5 -72t-19 -61
q14 19 33.5 27.5t39.5 8.5h124q-20 69 -44.5 148t-47.5 159z" />
    <glyph glyph-name="uniF001" unicode="&#xf001;" horiz-adv-x="623" 
d="M421 384q37 -9 66 -31q44 -32 68.5 -83.5t32.5 -111.5q6 -46 2 -93.5t-16.5 -92t-33.5 -83.5t-50 -67q-42 -42 -99.5 -65t-130.5 -23q-38 0 -75 8.5t-68 26.5q-42 25 -70 63t-30 95q-1 31 8.5 56t26 43t38 29.5t45.5 15.5q28 5 56 -1.5t50 -26t34.5 -52.5t9.5 -81
q-29 32 -59.5 40.5t-56.5 0.5q-41 -13 -55.5 -46t-3.5 -67q8 -26 28.5 -46t54.5 -28q16 -3 32 -3.5t32 2.5q47 8 82 36.5t59 70.5q32 55 45 127.5t5 144.5q-6 54 -25.5 103t-54.5 84q-11 11 -26 18.5t-34 9.5q-27 2 -53 -17t-35 -44v-204q-14 9 -34 12t-41 2t-39.5 -5.5
t-29.5 -9.5v502q0 26 -5.5 55t-21.5 52h310q34 0 64 -13t52.5 -35.5t35.5 -52.5t13 -64q0 -51 -25 -88q-27 -44 -78 -63zM220 330q6 16 19.5 30t30.5 27q17 12 33.5 23.5t28.5 21.5q25 20 38.5 47t10.5 74q-2 24 -9.5 46.5t-22.5 39.5q-15 18 -35 28q-24 11 -52 11h-42v-348
z" />
    <glyph glyph-name="uniF002" unicode="&#xf002;" horiz-adv-x="636" 
d="M280 663q-42 -11 -62 -53t-28 -100q-19 -147 10 -293t106 -274q32 -52 69.5 -86t80.5 -29q28 4 56 22.5t57 41.5q36 28 69.5 43t64 19.5t57.5 0t49 -15.5q30 -15 51 -40.5t29.5 -54t4 -58t-24.5 -52.5q-16 34 -45 57t-66 37q-53 20 -112 20.5t-109 -16.5q-14 -5 -29 -9.5
t-33 -8.5q-27 -7 -69 -7q-76 0 -138 35.5t-110 92.5q-48 58 -77 129t-37 140q-10 79 -1 157t36 141q22 51 56.5 92t85.5 69q65 35 142 37q35 1 70 -3t67 -15q24 -9 46 -23t41 -34q42 -47 36 -88.5t-44 -66.5q-33 -22 -80 -25q-19 54 -45.5 98t-55.5 73t-59.5 42t-58.5 5z
" />
    <glyph glyph-name="uniF003" unicode="&#xf003;" horiz-adv-x="649" 
d="M135 71q28 5 56 -1.5t50 -26t34.5 -52.5t9.5 -81q-28 32 -59 40.5t-57 0.5q-41 -13 -55.5 -46t-3.5 -67q8 -26 28.5 -46t54.5 -28q35 -6 64 -1q36 6 64 23t50 42t37.5 57t26.5 68q22 73 29 165t-2 186q-8 78 -27.5 149.5t-52.5 127.5q-25 42 -59 69.5t-79 27.5h-24v-586
q-13 9 -33.5 12t-41.5 2t-39.5 -5.5t-29.5 -9.5v502q0 26 -5.5 55t-21.5 52h259q63 0 112.5 -24.5t84.5 -66.5q40 -48 63 -116t32 -146q6 -58 5.5 -117.5t-8 -116t-21 -107t-32.5 -90.5t-45.5 -73.5t-61 -57.5t-78.5 -37.5t-99 -13.5q-38 0 -75 8.5t-68 26.5q-42 25 -70 63
t-30 95q-1 31 9 56t26.5 43t38 29.5t44.5 15.5z" />
    <glyph glyph-name="uniF004" unicode="&#xf004;" horiz-adv-x="516" 
d="M718 -266q-49 1 -94 14t-86.5 32.5t-79.5 44.5t-74 50q-48 33 -92 54.5t-85.5 35t-81.5 21.5t-82 14q16 23 21.5 52t5.5 55v486q0 26 -5.5 55t-21.5 52h434l21 -164q-8 33 -28.5 59t-47.5 44.5t-58.5 28.5t-61.5 10h-88v-216q7 10 17.5 14.5t24.5 6.5q15 2 34.5 -1
t39.5 -7q32 -6 62.5 -6.5t51.5 20.5q20 -32 15.5 -59.5t-24.5 -44.5q-22 -19 -57 -19.5t-70 25.5q-11 8 -20.5 16t-19.5 17q-9 7 -17.5 12.5t-17.5 8.5q-19 5 -19 -23v-432q32 -1 58 -4.5t49.5 -9t47 -13.5t48.5 -17q59 -21 115 -39t118 -30q32 -6 63 -8.5t59.5 0.5t53 12
t43.5 27q17 -44 10.5 -77t-28.5 -54.5t-57 -32.5t-76 -10z" />
    <glyph glyph-name="uniF005" unicode="&#xf005;" horiz-adv-x="515" 
d="M213 47q0 -155 -59.5 -231.5t-177.5 -80.5q-33 -2 -67 5.5t-61 24.5q-32 20 -47 51t-13 63q2 38 24 67.5t66 36.5q20 3 40 -1.5t36.5 -16t28.5 -29.5t16 -43q-18 6 -33.5 2.5t-27 -12.5t-18.5 -22t-8 -27q-1 -34 19 -55.5t46 -23.5t50 19.5t34 75.5q8 44 8 96.5v100.5
v546q0 26 -6 55t-21 52h434l21 -164q-8 33 -28.5 59t-47.5 44.5t-58.5 28.5t-61.5 10h-88v-216q7 10 17.5 14.5t23.5 6.5q16 2 35 -1t40 -7q32 -6 62.5 -6.5t51.5 20.5q20 -32 15.5 -59.5t-24.5 -44.5q-22 -19 -57 -19.5t-70 25.5q-11 8 -20.5 16t-19.5 17q-9 7 -17.5 12.5
t-17.5 8.5q-19 5 -19 -23v-375z" />
    <glyph glyph-name="uniF006" unicode="&#xf006;" horiz-adv-x="672" 
d="M487 445q-19 54 -45.5 98t-55.5 73t-59.5 42t-58.5 5q-32 -8 -53 -40t-30.5 -80t-6 -108.5t20.5 -125.5q15 -56 38 -104.5t50 -84.5t56.5 -58t58.5 -27q14 -2 33.5 1.5t29.5 8.5v168q0 26 -5.5 55t-21.5 52h198q-6 -10 -16.5 -34.5t-10.5 -72.5v-213q0 -266 -213 -266
q-27 0 -54.5 8.5t-54.5 21.5q-21 10 -41.5 20.5t-40.5 19.5q-21 10 -42 14t-37.5 -0.5t-27 -19.5t-10.5 -44q-38 28 -50 65t-1 70q11 35 44.5 58t83.5 16q40 -6 66 -26t46 -48q12 -16 22.5 -33t22.5 -34q8 -13 20 -27q16 -20 35 -31.5t36 -9.5q16 1 28 12.5t18 37.5
q6 24 6 63v144q-8 -2 -16.5 -4t-16.5 -3q-18 -2 -37.5 -3t-42.5 -1q-66 0 -124.5 27.5t-102 75t-68.5 111.5t-25 136q0 51 13 98.5t36 88t56 73t72 53.5q65 35 141 37q35 1 70.5 -3t67.5 -15q24 -9 46 -23t40 -34q21 -23 30 -45.5t7 -43t-13.5 -37.5t-30.5 -29
q-33 -22 -80 -25z" />
    <glyph glyph-name="uniF007" unicode="&#xf007;" horiz-adv-x="607" 
d="M43 0q16 23 21.5 52t5.5 55v486q0 26 -5.5 55t-21.5 52h198q-6 -9 -16.5 -34t-10.5 -73v-119q11 9 23 9.5t28 -1.5q10 -2 20.5 -4t22.5 -4q16 -3 31.5 -3.5t27.5 2t19.5 9t7.5 18.5v93q0 26 -5.5 55t-21.5 52h198q-6 -9 -16.5 -34t-10.5 -73q1 -157 1 -312v-312
q0 -17 -0.5 -49.5t3.5 -67.5q5 -38 17 -67t38 -31q17 -2 36.5 9.5t35.5 31.5q5 6 9.5 12.5t9.5 14.5q12 17 23 34t22 33q20 28 46 48t67 26q50 7 83 -16t44 -58q11 -33 -1 -70t-50 -65q0 29 -10.5 44t-27 19.5t-37 0.5t-41.5 -14q-20 -9 -41 -19.5t-42 -20.5
q-27 -13 -57.5 -21.5t-58.5 -8.5q-60 0 -100.5 17t-65.5 48t-36 73t-11 95v421q-11 -10 -25 -15q-24 -8 -46 -2q-23 5 -40 20q-8 6 -14 13.5t-14 15.5l-15 15q-5 3 -8.5 5.5t-7.5 1.5q-4 0 -7 -4t-3 -15v-316q0 -47 10.5 -72t16.5 -35h-198z" />
    <glyph glyph-name="uniF008" unicode="&#xf008;" horiz-adv-x="284" 
d="M43 0q15 23 21 52t6 55v486q0 26 -6 55t-21 52h57q-12 11 -21 21q-24 26 -40 59t-17 68q0 25 9 46.5t25 37.5t37.5 25t46.5 9q54 0 89 -38q17 -16 24 -36q13 -31 7 -61.5t-23 -53.5q-23 -29 -55 -34.5t-62 17.5h1q24 5 36 22.5t14 37.5q2 13 -1 26t-9.5 23.5t-17 17
t-24.5 6.5q-23 0 -43.5 -15t-24.5 -46q-2 -16 2.5 -33.5t15.5 -34.5q15 -23 39.5 -43.5t53.5 -20.5h79q-6 -9 -16.5 -34t-10.5 -73v-486q0 -47 10.5 -72t16.5 -35h-198z" />
    <glyph glyph-name="uniF009" unicode="&#xf009;" horiz-adv-x="452" 
d="M147 111q26 3 51.5 -2.5t46 -19.5t35 -36t18.5 -54q-20 20 -44 29.5t-48 9.5q-32 -1 -52.5 -14.5t-31 -34.5t-11 -46t8.5 -48q11 -31 38 -53t68 -20q41 1 77 30t48 85q8 39 4.5 74.5t-18 66.5t-39 54.5t-59.5 38.5q0 103 -0.5 210t-0.5 210q0 21 -3.5 44t-11.5 43
q-4 11 -12 21h198q-6 -10 -16.5 -35t-10.5 -73v-296t-1 -296q0 -35 -9.5 -81t-33 -87t-62 -69t-95.5 -28q-46 0 -82.5 17t-62 45t-38.5 63.5t-12 72.5q1 40 15.5 72t37 54.5t51 36t57.5 16.5z" />
    <glyph glyph-name="uniF00A" unicode="&#xf00a;" horiz-adv-x="582" 
d="M70 593q0 26 -5.5 55t-21.5 52h194q-15 -23 -21 -52t-6 -55v-267q14 27 37 44q9 8 18.5 13.5t19.5 11.5q32 19 47 43t21 52t6.5 58.5t3.5 62.5q3 33 20.5 56.5t42 34t52.5 8.5t52 -20q-16 -5 -24.5 -18t-12.5 -30q-4 -16 -5 -32.5t-2 -29.5q-2 -20 -2.5 -40.5t-2.5 -40.5
q-3 -26 -11 -49.5t-25 -43.5q-11 -12 -25 -20.5t-32 -12.5q41 -1 61.5 -26.5t32.5 -60.5q8 -24 13.5 -48.5t10.5 -44.5q14 -58 28.5 -114.5t37.5 -116.5q17 -41 36 -79t42 -72q8 -11 16 -20.5t16 -17.5q28 -23 57 -17q26 6 35.5 27t4.5 42q-3 12 -9.5 22t-16.5 15.5t-23 5.5
t-30 -8q9 49 37 71.5t59 22.5q38 1 60.5 -19.5t29 -50t-3.5 -61.5t-38 -54q-21 -17 -48.5 -26t-56.5 -9q-81 0 -133 26t-88 72q-22 28 -38.5 54.5t-30.5 52.5q-16 31 -27 63t-20 65.5t-16.5 70t-15.5 76.5q-4 21 -10.5 53t-20.5 56q-7 11 -16 19t-21 10q-15 2 -30.5 -1.5
t-29.5 -15.5q-21 -16 -32 -39v-189q0 -26 6 -55t21 -52h-194q16 23 21.5 52t5.5 55v486z" />
    <glyph glyph-name="uniF00B" unicode="&#xf00b;" horiz-adv-x="283" 
d="M718 -266q-49 1 -94.5 14t-86.5 32.5t-79.5 44.5t-74.5 50q-48 33 -91.5 54.5t-85 35t-81.5 21.5t-82 14q15 23 21 52t6 55v486q0 26 -6 55t-21 52h198q-16 -23 -21.5 -52t-5.5 -55v-603q32 -1 58 -4.5t49.5 -9t46.5 -13.5t48 -17q59 -21 115.5 -39t118.5 -30
q32 -6 63 -8.5t59.5 0.5t53 12t43.5 27q17 -44 10.5 -77t-28.5 -54.5t-57 -32.5t-76 -10z" />
    <glyph glyph-name="uniF00C" unicode="&#xf00c;" horiz-adv-x="701" 
d="M113 500v-252v-106q0 -20 0.5 -44.5t-1.5 -53.5q-2 -45 -7.5 -94t-19.5 -93q-17 -53 -49 -88t-86 -35q-21 0 -42 8t-37.5 23.5t-27 37.5t-10.5 50q42 2 75 16.5t59 38.5q29 27 49.5 63.5t34.5 78.5q16 49 23 95q4 27 6 53.5t2 50.5v344q0 26 -5.5 55t-21.5 52h122
l188 -452l154 452h139q-7 -9 -17 -34t-10 -73v-486q0 -47 10 -72t17 -35h-198q16 23 21.5 52t5.5 55v393l-120 -341q-20 -57 -60 -74.5t-81 -2.5q18 15 24 31t4.5 31t-7.5 29.5t-11 27.5z" />
    <glyph glyph-name="uniF00D" unicode="&#xf00d;" horiz-adv-x="606" 
d="M113 478v-336q0 -20 0.5 -45t-1.5 -54q0 -11 -0.5 -21.5t-1.5 -21.5q-3 -36 -8.5 -72.5t-16.5 -70.5q-5 -14 -10 -26.5t-12 -23.5q-18 -32 -45.5 -52.5t-67.5 -20.5q-32 0 -63 19t-45 54q-9 21 -9 46q42 2 75 16.5t59 38.5q20 19 36 42.5t29 49.5q5 12 9.5 24.5t9.5 25.5
q16 49 23 95q4 27 6 53.5t2 50.5v344q0 26 -5.5 55t-21.5 52h69l383 -456v349q0 26 -5.5 55t-21.5 52h85q-6 -9 -16 -34t-10 -73v-481q0 -21 -7 -41.5t-19.5 -36t-30.5 -25t-39 -9.5q-8 0 -22 1.5t-25 3.5q14 15 20 34.5t5.5 39t-8 38t-19.5 30.5l-281 331v0z" />
    <glyph glyph-name="uniF00E" unicode="&#xf00e;" horiz-adv-x="704" 
d="M352 700q66 0 124 -27.5t101.5 -75t68.5 -111.5t25 -136q0 -56 -15.5 -107.5t-43 -94t-65.5 -75t-83 -51.5q-16 -6 -36 -12q-17 -5 -34.5 -7.5t-34.5 -2.5q-37 0 -71 10t-62 30q-27 20 -46 50t-27 72q-7 35 0 65t24 53t41.5 38.5t52.5 19.5q37 5 74.5 -9t66.5 -55
q-62 -8 -88.5 -38t-28.5 -67q-2 -36 15 -69q8 -15 22 -28.5t31.5 -23t36.5 -13t36 1.5q32 8 53 40t30 80t5.5 108.5t-20.5 125.5t-44.5 119t-59.5 90.5t-66 54t-66 8.5q-30 -8 -50.5 -37t-31 -73t-9 -99.5t14.5 -115.5q-42 -30 -61.5 -79t-8.5 -103q9 -44 30 -79
q-55 48 -87.5 119t-32.5 154q0 72 25 136t68.5 111.5t102 75t124.5 27.5z" />
    <glyph glyph-name="uniF00F" unicode="&#xf00f;" horiz-adv-x="536" 
d="M254 342q-13 -8 -23 -19t-18 -27v-249q0 -155 -59.5 -231.5t-176.5 -80.5q-34 -2 -68 5.5t-61 24.5q-32 20 -47 51t-13 63q2 38 24 67.5t66 36.5q20 3 40 -1.5t36.5 -16t28.5 -29.5t16 -43q-18 6 -33.5 2.5t-27 -12.5t-18.5 -22t-7 -27q-1 -17 4 -31t14 -24.5t21 -17
t25 -7.5q26 -2 50 20t34 76q8 44 8 96.5v100.5v546q0 26 -5.5 55t-21.5 52h309q35 0 65 -13t52.5 -35.5t35.5 -52.5t13 -64q0 -49 -25 -88q-13 -21 -32.5 -37.5t-44.5 -25.5q-20 -8 -42 -11.5t-46 -7.5q-20 -4 -38.5 -9t-34.5 -14zM213 330q6 16 19 29.5t30 26.5
q20 15 36 25.5t30 21.5q26 20 37 52.5t9 67.5q-2 24 -10 46.5t-22 39.5q-15 18 -35 28q-24 11 -52 11h-42v-348z" />
    <glyph glyph-name="uniF010" unicode="&#xf010;" horiz-adv-x="704" 
d="M436 37q32 8 53 40t30 80t5.5 108.5t-20.5 125.5t-44.5 119t-59.5 90.5t-66 54t-66 8.5q-31 -8 -52.5 -40t-31 -80t-6 -108.5t20.5 -125.5t44.5 -119t59.5 -90.5t66.5 -54t66.5 -8.5zM240 22q-45 18 -83.5 50.5t-66 75.5t-43 94.5t-15.5 107.5q0 72 25 136t68.5 111.5
t102 75t124.5 27.5t124 -27.5t101.5 -75t68.5 -111.5t25 -136q0 -60 -17 -114t-48 -98t-73 -76t-92 -48q8 -4 17 -7.5t17 -7.5q29 -12 58 -24.5t59 -23.5q43 -17 105 -39t127 -35q32 -6 63 -8.5t59.5 0.5t53 12t43.5 27q17 -44 10.5 -77t-28.5 -54.5t-57 -32.5t-76 -10
q-49 1 -94.5 14t-86.5 32.5t-79.5 44.5t-74.5 50q-29 20 -57.5 39.5t-55.5 34.5q-20 11 -39 20t-39 14q-17 5 -34.5 3.5t-30.5 -9.5q-16 -8 -23 -25t-1 -41q4 -18 15.5 -33.5t26.5 -22.5q-34 -3 -58.5 8.5t-39.5 31.5q-12 17 -17 37t0 38q3 15 12 28.5t24 23.5z" />
    <glyph glyph-name="uniF011" unicode="&#xf011;" horiz-adv-x="586" 
d="M506 198q11 -48 22.5 -95t28.5 -96q1 0 1 -2q3 -9 6.5 -18.5t7.5 -19.5q17 -41 36 -78.5t42 -72.5q16 -23 32 -37q14 -13 28.5 -17t28.5 -1q26 6 35.5 27t4.5 43q-3 12 -9.5 21.5t-16.5 15t-23 5.5t-30 -8q9 49 37 71.5t59 22.5q38 1 60.5 -19.5t29 -50t-3.5 -61.5
t-38 -54q-21 -17 -48.5 -26t-56.5 -9q-81 1 -133 26.5t-88 71.5q-22 28 -38.5 54.5t-30.5 52.5q-16 31 -27 63t-20 66t-16.5 70.5t-15.5 76.5q-2 10 -4.5 23.5t-6 28.5t-8.5 29t-12 26q-3 8 -7 13q-15 20 -39 20q-19 -1 -39 -13q-27 -19 -40 -46v-189q0 -26 5.5 -55
t21.5 -52h-198q16 23 21.5 52t5.5 55v486q0 26 -5.5 55t-21.5 52h310q34 0 64 -13t52.5 -35.5t35.5 -52.5t13 -64q0 -49 -25 -88q-26 -43 -77 -63q-9 -3 -18 -5.5t-19 -4.5q6 0 10 -1q20 0 35 -7.5t26 -19.5t18.5 -27.5t13.5 -32.5q8 -24 13.5 -48.5t10.5 -44.5zM263 391
q20 15 36 25.5t30 21.5q26 20 37 52.5t9 67.5q-2 24 -9.5 46.5t-22.5 39.5q-13 17 -35 28q-11 5 -24 8.5t-28 3.5h-42v-349q6 16 19 29.5t30 26.5z" />
    <glyph glyph-name="uniF012" unicode="&#xf012;" horiz-adv-x="642" 
d="M355 118q-84 20 -143 -13q-36 -19 -57.5 -56.5t-22.5 -92.5q-1 -39 14 -76t41 -66q25 -26 57.5 -41.5t73.5 -15.5q49 1 85 20t60 51q23 29 34.5 65t13.5 76q2 33 -3.5 66t-16 64t-25.5 59.5t-33 50.5q-31 38 -70 71.5t-82 67.5q-36 29 -71.5 56t-67.5 62
q-22 25 -33.5 53.5t-9.5 57.5q1 26 10.5 47t26.5 36t38 23.5t43.5 12.5t46 4h45.5q51 -1 92.5 -9t71.5 -7q29 0 48 14v-191q-26 28 -53 58t-55 55.5t-55 42t-53 16.5q-32 0 -49.5 -12.5t-21.5 -32.5q-6 -34 25 -72q23 -27 50.5 -49t56.5 -45q42 -34 79.5 -69.5t68.5 -74.5
q47 -59 76 -128.5t29 -157.5q0 -83 -41 -156t-129 -120q-29 -15 -61.5 -21.5t-69.5 -6.5q-50 0 -98 11.5t-88 34.5q-31 18 -54.5 44.5t-38.5 57t-21.5 63.5t-4.5 65q3 41 17.5 74t36.5 58t50 41t58 23q27 6 54.5 4t51.5 -12.5t43 -30.5t31 -49z" />
    <glyph glyph-name="uniF013" unicode="&#xf013;" horiz-adv-x="462" 
d="M321 0h-99q16 23 21.5 52t5.5 55v529q-23 -10 -47.5 -17t-48.5 -9.5t-47 1t-44 14.5q-43 23 -58.5 61t-5.5 73q5 21 17.5 38.5t30.5 29t40 15.5t47 -3q27 -8 47 -30.5t23 -53.5q-31 1 -53 -6t-37 -18q-23 -17 -28 -39t5 -36q12 -16 31 -17.5t40 5.5t41 19t34 22
q32 23 64 51t56 47q45 37 93.5 73t101.5 62q42 22 85.5 34.5t88.5 13.5q34 0 64.5 -12.5t52.5 -35.5q23 -25 31.5 -59.5t-6.5 -76.5q-22 17 -50 27.5t-59 14.5q-65 7 -135 -13q-60 -17 -117 -43.5t-113 -56.5v-604q0 -26 5.5 -55t21.5 -52h-99v0z" />
    <glyph glyph-name="uniF014" unicode="&#xf014;" horiz-adv-x="558" 
d="M209 202q0 -34 10.5 -59t28 -41.5t40 -24t45.5 -6.5t45 9.5t39 25t27.5 41t10.5 55.5v329q0 42 -1 93.5t2 104.5q2 38 10 80t25.5 77t46.5 57.5t73 22.5q22 0 43 -6.5t39 -18t32 -28.5t21 -38q-42 -3 -78.5 -20.5t-65.5 -45.5q-27 -25 -47.5 -56t-34.5 -66
q-21 -53 -28 -110t-7 -116v-271q0 -42 -13 -77t-37.5 -60t-61 -39t-83.5 -14t-88 13t-71.5 37.5t-48 60t-17.5 79.5v403q0 26 -6 55t-21 52h198q-7 -9 -17 -34t-10 -73v-391z" />
    <glyph glyph-name="uniF015" unicode="&#xf015;" horiz-adv-x="567" 
d="M67 607q-4 16 -12.5 32t-19 29t-22 21.5t-22.5 10.5h247q-22 -10 -26 -33t4 -55l131 -457q7 28 13 55t13 54q15 62 30 123.5t30 124.5q10 39 19.5 77.5t18.5 77.5q13 51 26 95t29 79q23 53 63 89t93 36q36 0 64 -18t46 -44t25 -56.5t0 -54.5q-57 15 -104.5 7t-87.5 -37
q-54 -40 -94 -119q-17 -34 -31.5 -70.5t-27.5 -74.5t-23.5 -75.5t-19 -71t-15.5 -62.5t-12 -50l-28 -118t-31 -122h-99z" />
    <glyph glyph-name="uniF016" unicode="&#xf016;" horiz-adv-x="870" 
d="M474 296q-7 -16 -13.5 -31t-13.5 -31l-104 -234h-99l-177 607q-4 16 -12.5 32t-19 29t-22 21.5t-22.5 10.5h246q-21 -10 -25 -33t4 -55l144 -502l34 76q16 35 30.5 89t21.5 112l1 3l-64 217q-4 16 -12.5 32t-19 29t-22 21.5t-22.5 10.5h247q-22 -10 -26 -33t4 -55
l124 -432l10 42l10 42q15 62 30 123.5t30 124.5q10 38 19.5 77t18.5 78q13 51 26 95t29 79q23 53 63 89t93 36q36 0 64 -18t46 -44t25 -56.5t0 -54.5q-61 16 -111.5 5.5t-92.5 -45.5q-48 -40 -82 -109q-16 -31 -29.5 -64t-24.5 -67q-28 -81 -46 -155t-29 -118l-28 -118
t-31 -122v0h-86z" />
    <glyph glyph-name="uniF017" unicode="&#xf017;" horiz-adv-x="567" 
d="M725 806q-72 -7 -130 -48.5t-113 -113.5q-43 -56 -79.5 -115t-70.5 -121l106 -215l53 -109q16 -32 37.5 -54t41.5 -30h-236q12 8 15.5 19t2 22t-5.5 22.5t-9 20.5l-53 109q-2 5 -0.5 0.5t4.5 -10.5t5 -9.5t-0.5 1.5t-11.5 23.5t-28 56.5q-9 -17 -17.5 -33.5t-16.5 -33.5
l-40 -78t-40 -77q-26 -51 -51 -95t-50 -79q-38 -54 -87 -89.5t-102 -35.5q-44 0 -73 18t-45 44t-20 56.5t3 54.5q69 -19 128 -13q72 7 130 48.5t114 113.5q42 56 78.5 115t70.5 121l-105 215l-53 109q-16 32 -37.5 53.5t-42.5 29.5h237q-12 -8 -15.5 -18.5t-2.5 -21.5
t6 -22.5t9 -20.5l53 -109q2 -5 0 -0.5t-4.5 10t-4.5 9.5t0.5 -1.5t11.5 -24t28 -56.5q8 17 16.5 33.5t17.5 33.5l40 78l40 78q26 51 51 95t50 79q38 53 87 89t102 36q44 0 73 -18t45 -44.5t20 -56.5t-3 -55q-68 19 -129 14z" />
    <glyph glyph-name="uniF018" unicode="&#xf018;" horiz-adv-x="534" 
d="M334 293q8 27 18 59.5t22 67.5t24.5 73t23.5 75q24 81 47 154t43 119q24 53 63.5 89t92.5 36q36 0 64.5 -18t46.5 -44t24.5 -56.5t-0.5 -54.5q-56 15 -107.5 6.5t-96.5 -37.5q-61 -41 -100 -118q-22 -43 -42 -95q-16 -39 -30 -79.5t-26.5 -78.5t-22 -71.5t-16.5 -59.5
l-1 -153q0 -47 10 -72t16 -35h-197q15 23 20.5 52t5.5 55v151l-146 349q-17 42 -37.5 63.5t-40.5 29.5h210q-17 -11 -12 -33t17 -51z" />
    <glyph glyph-name="uniF019" unicode="&#xf019;" horiz-adv-x="498" 
d="M173 -6q58 -3 114.5 -15.5t111.5 -32.5q58 -21 114.5 -39t118.5 -30q32 -6 63 -8.5t59.5 0.5t53 12t43.5 27q17 -44 10.5 -77t-28.5 -54.5t-57 -32.5t-76 -10q-49 1 -94 14t-86.5 32.5t-80 44.5t-74.5 50q-48 33 -91.5 54.5t-85 35t-81.5 21.5t-82 14l1 1h-1l305 678h-65
q-44 0 -79.5 -19.5t-63 -47t-46 -57t-28.5 -48.5v193h447l-307 -669z" />
    <glyph glyph-name="uniF01A" unicode="&#xf01a;" horiz-adv-x="1025" 
d="M265 663q-31 -10 -51.5 -42.5t-29 -80.5t-5 -107.5t20.5 -123.5q17 -65 44.5 -119t59.5 -90.5t66.5 -54t66.5 -8.5q14 4 26.5 11t23.5 17q-61 48 -97.5 122t-36.5 163q0 72 23.5 133.5t65.5 109.5q-38 42 -82 61.5t-87 10.5zM542 401q-11 40 -26.5 75.5t-34.5 65.5
q-17 -51 -16.5 -113t18.5 -130q21 -79 61 -141q16 51 16 113.5t-18 129.5zM760 38q30 10 50.5 42t29.5 80t5.5 107.5t-20.5 123.5q-18 65 -45 119t-59.5 90.5t-66.5 54t-66 8.5q-28 -7 -51 -27q62 -48 98.5 -122.5t36.5 -163.5q0 -71 -23.5 -133t-65.5 -110q38 -42 82 -61.5
t86 -9.5zM992 350q0 -72 -25 -136t-68.5 -111.5t-102 -75t-124.5 -27.5q-44 0 -84.5 12t-75.5 35q-35 -23 -75 -35t-84 -12q-66 0 -124.5 27.5t-102 75t-68.5 111.5t-25 136t25 136t68.5 111.5t102 75t124.5 27.5q44 0 84 -12t75 -35q35 23 75.5 35t84.5 12
q66 0 124.5 -27.5t102 -75t68.5 -111.5t25 -136z" />
    <glyph glyph-name="uniF01B" unicode="&#xf01b;" horiz-adv-x="962" 
d="M264 663q-31 -10 -51.5 -42.5t-29 -80.5t-5 -107.5t20.5 -123.5q17 -65 44.5 -119t59.5 -90.5t66.5 -54t66.5 -8.5q26 7 50 28q-61 48 -97.5 122t-36.5 163q0 72 23.5 133.5t65.5 109.5q-38 42 -82 61.5t-87 10.5zM541 401q-11 40 -26.5 75.5t-35.5 66.5
q-16 -51 -16 -113.5t18 -130.5q11 -40 26.5 -75.5t35.5 -65.5q16 51 16 113t-18 130zM752 36l3 1q27 7 49 24.5t40.5 40t33 47.5t25.5 49v-126q-33 -32 -72.5 -47.5t-79.5 -20.5q-17 -2 -37 -3t-43 -1q-44 0 -84.5 12t-75.5 35q-35 -23 -75 -35t-84 -12q-66 0 -124.5 27.5
t-102 75t-68.5 111.5t-25 136t25 136t68.5 111.5t102 75t124.5 27.5q44 0 84 -12t75 -35q5 3 9 5.5t9 5.5q64 34 141 36h1q35 1 69.5 -3t66.5 -15q51 -19 87 -56q21 -23 29.5 -46t6.5 -43t-13.5 -37.5t-29.5 -29.5q-32 -22 -80 -25q-19 54 -45.5 98t-56 73t-60 42t-58.5 5
h-1q-28 -8 -50 -27q62 -48 98.5 -122.5t36.5 -163.5q0 -71 -23.5 -133t-65.5 -110q38 -42 82 -61.5t86 -9.5h2z" />
    <glyph glyph-name="uniF01C" unicode="&#xf01c;" horiz-adv-x="993" 
d="M759 38v0q14 3 26 8v167q0 26 -6 55t-21 52h198q-7 -9 -17 -34t-10 -73v-106q0 -47 10 -72t17 -35h-171v10q-9 -2 -17.5 -3t-16.5 -3q-17 -2 -37 -3t-43 -1q-44 0 -84.5 12t-75.5 35q-35 -23 -75 -35t-84 -12q-66 0 -124.5 27.5t-102 75t-68.5 111.5t-25 136t25 136
t68.5 111.5t102 75t124.5 27.5q44 0 84 -12t75 -35q5 3 9 5.5t9 5.5q64 34 141 36q35 1 70 -3t67 -15q51 -19 87 -56q42 -47 36 -89t-43 -67q-32 -22 -81 -25q-19 54 -45 98t-55.5 73t-60 42.5t-58.5 5.5l-4 -2q-25 -7 -47 -26q62 -48 98.5 -122.5t36.5 -163.5
q0 -71 -23.5 -133t-65.5 -110q38 -42 82 -61.5t86 -9.5zM482 299q21 -79 61 -141q16 51 16 113.5t-18 129.5q-11 40 -26.5 75.5t-34.5 65.5q-16 -51 -16 -113t18 -130zM352 350q0 72 23.5 133.5t65.5 109.5q-38 42 -82 61.5t-87 10.5l-8 -2q-31 -10 -51.5 -42.5t-29 -80.5
t-5 -107.5t20.5 -123.5q17 -65 44.5 -119t59.5 -90.5t66.5 -54t66.5 -8.5q14 4 26.5 11t23.5 17q-61 48 -97.5 122t-36.5 163z" />
    <glyph glyph-name="uniF01D" unicode="&#xf01d;" horiz-adv-x="855" 
d="M174 0q15 23 20.5 52t5.5 55v571h-23q-27 0 -51.5 -15t-45.5 -39.5t-37.5 -55t-26.5 -61.5v193h823v-193q-10 31 -26.5 61.5t-37.5 55t-46 39.5t-52 15h-23v-571q0 -26 5.5 -55t21.5 -52h-198q16 23 21.5 52t5.5 55v571h-165v-571q0 -26 5.5 -55t20.5 -52h-197z" />
    <glyph glyph-name="uniF01E" unicode="&#xf01e;" horiz-adv-x="678" 
d="M43 0q15 23 21 52t6 55v486q0 26 -6 55t-21 52h198q-16 -23 -21.5 -52t-5.5 -55v-571h7q38 0 81 17.5t83 46.5q44 32 76 76q29 -14 40 -40t6 -53t-26.5 -48t-57.5 -21h-380zM296 195q15 22 21 51.5t6 55.5v291q0 26 -6 55t-21 52h174q-16 -23 -21.5 -52t-5.5 -55v-377
q22 0 52 16.5t59 41.5q22 19 39 40.5t24 42.5q29 -14 40 -40.5t6 -52.5q-5 -28 -26.5 -48.5t-57.5 -20.5h-283z" />
    <glyph glyph-name="uniF01F" unicode="&#xf01f;" horiz-adv-x="720" 
d="M427 210h17q36 0 63.5 25t42.5 60q14 35 21.5 74t7.5 78.5t-7.5 78.5t-21.5 73q-15 36 -42.5 60.5t-63.5 24.5h-17v-474zM43 0q15 23 21 52t6 55v486q0 26 -6 55t-21 52h198q-16 -23 -21.5 -52t-5.5 -55v-571h7q38 0 81.5 17.5t82.5 46.5q23 16 41.5 35t34.5 41
q29 -14 40 -40t6 -53t-26.5 -48t-57.5 -21h-380zM303 700h188q45 0 79.5 -18t59.5 -47q30 -36 45 -85.5t15 -102t-15 -102t-45 -85.5q-25 -30 -59.5 -47.5t-79.5 -17.5h-188q11 16 15.5 36.5t4.5 40.5v351q0 19 -4.5 39.5t-15.5 37.5z" />
    <glyph glyph-name="uniF020" unicode="&#xf020;" horiz-adv-x="776" 
d="M287 447q0 53 18 99t49.5 80t73.5 54t90 20t90 -20t73.5 -54t49.5 -80t18 -99q0 -52 -18 -98t-49.5 -80t-73.5 -54t-90 -20t-90 20t-73.5 54t-49.5 80t-18 98zM43 0q15 23 21 52t6 55v486q0 26 -6 55t-21 52h198q-16 -23 -21.5 -52t-5.5 -55v-571h7q38 0 81.5 17.5
t83.5 46.5q45 33 75 76q29 -14 40 -40t6 -53t-26.5 -48t-57.5 -21h-380zM579 221q23 6 38 29t22 58t4.5 78.5t-15.5 90.5q-12 47 -32 86t-43 65.5t-48 39t-48 6.5q-22 -6 -37.5 -29.5t-22 -58t-4 -78t14.5 -90.5q13 -47 32.5 -86t43 -65.5t48 -39t47.5 -6.5z" />
    <glyph glyph-name="uniF027" unicode="&#xf027;" horiz-adv-x="752" 
d="M544 368q0 18 -2 33.5t-4 26.5q-5 19 -11 30t-10 18q15 0 35 0.5t43 3.5t47 9t46 17v-399q0 -48 10 -73t17 -34h-198q16 23 21.5 52t5.5 55v261zM702 612q0 -36 -25 -61t-61 -25q-11 0 -21 2.5t-19 6.5q-22 9 -46.5 13t-49.5 1q-17 -2 -33 -8t-30 -17q-15 -12 -28 -26
q-15 -16 -22 -27q41 -27 65.5 -70t24.5 -94q0 -41 -16.5 -77.5t-44.5 -63.5t-66 -42.5t-81 -15.5q-31 0 -59.5 8.5t-52.5 23.5l-62 -82l9 4q34 17 77 27t88 11q38 1 79 -7.5t73 -28.5q33 -21 48 -47.5t16 -54.5q1 -38 -22 -73.5t-64 -58.5q-33 -19 -73.5 -20.5t-85.5 -2.5
q-18 0 -38.5 3.5t-40.5 11.5q-25 10 -44 29.5t-27 44.5q-6 18 -4.5 34.5t8 30t18 23t25.5 14.5q15 5 33 3t35 -13q-5 -38 11.5 -70t44.5 -53q30 -23 66 -30.5t65 7.5q20 11 24.5 34t-12.5 54q-8 14 -22 28.5t-37 26.5q-29 16 -61 23.5t-58 9.5q-39 2 -75.5 -3.5t-64.5 -22.5
l-32 44l87 115q-36 27 -57.5 67.5t-21.5 88.5q0 41 16.5 77.5t44.5 63.5t65.5 42.5t80.5 15.5q57 0 103 -26l26 38l54 79q35 52 79.5 77.5t95.5 24.5q23 0 41 -6q24 -10 39 -31.5t15 -49.5zM296 134q13 3 20.5 20t9 42.5t-2 58.5t-13.5 69q-9 36 -22.5 66t-28 51t-29 31.5
t-27.5 7.5t-20.5 -20t-9.5 -42.5t2 -58t13 -68.5q10 -36 23 -66.5t28 -51.5t29.5 -31.5t27.5 -7.5z" />
    <glyph glyph-name="uniF028" unicode="&#xf028;" horiz-adv-x="545" 
d="M409 529q-7 0 -10 1q-42 5 -75.5 -5.5t-57.5 -32.5q-29 -26 -43 -65.5t-14 -87.5v-232q0 -48 10 -73t17 -34h-198q15 23 21 52t6 55v261q0 18 -2 33.5t-5 26.5q-4 19 -10 30t-10 18q15 0 35 0.5t43 3.5t47 9t46 17v-45q9 7 18 21t19 33q15 29 31.5 66t39.5 67
q17 22 39.5 36t48.5 16q22 2 43 -9q8 -4 15 -8.5t12 -10.5q20 -23 20 -57q0 -18 -6.5 -33.5t-18.5 -27t-27.5 -18.5t-33.5 -7zM337 372q0 17 -2 32.5t-4 26.5q-5 19 -11 30.5t-10 17.5q15 0 35 0.5t43 3.5t47 9t46 17v-399q0 -48 10 -72.5t17 -34.5h-198q16 23 21.5 52
t5.5 55v262z" />
    <glyph glyph-name="uniF029" unicode="&#xf029;" horiz-adv-x="824" 
d="M680 219q-15 -5 -29 -12.5t-30 -15.5q-37 -21 -48 -43.5t-2 -36.5t34.5 -15.5t62.5 18.5q29 15 54 37t33 38q38 -28 42.5 -64.5t-13.5 -67.5q-15 -25 -42.5 -41t-62.5 -16q-52 0 -88 25q-44 33 -53 103q-2 17 -2.5 32.5t-0.5 31.5v253h-27v26h27v45q0 31 -15 55.5
t-39 42.5t-58 30t-70 14q-32 2 -61 -4t-51 -23q-15 -11 -22 -28q-8 -18 -7 -34q3 -29 21 -47q11 -11 29 -16q26 0 52 -3.5t49 -13.5q34 -14 54 -43t21 -61q0 -24 -10.5 -43.5t-28.5 -31.5q-20 -14 -45 -15t-45 10q-14 7 -24 18.5t-15 28.5q19 8 28 26t9 38q0 32 -18.5 50.5
t-43.5 18.5q-31 0 -50 -22t-26.5 -57.5t-4.5 -79.5t15 -88q10 -35 28.5 -73.5t47.5 -66.5q20 -19 43.5 -30t47 -11t46 11t40.5 35l14 -9q-5 -15 -15 -27.5t-21 -22.5q-25 -22 -65 -35q-20 -6 -41.5 -7.5t-47.5 -1.5q-46 1 -87 21.5t-71 54.5t-47.5 79.5t-17.5 97.5
q0 47 14.5 89.5t40.5 75.5t61 55.5t75 29.5q-4 2 -5 4q-25 25 -28 60q0 11 2 22.5t7 22.5q10 21 28 35q24 19 51.5 27t56 9.5t58 -1.5t57.5 -7q7 -1 13.5 -1.5t11.5 -1.5q16 -3 32 -4q15 0 35 1t43.5 4t47.5 9t46 17v-228h78v-26h-78v-226z" />
    <glyph glyph-name="uniF02A" unicode="&#xf02a;" horiz-adv-x="604" 
d="M62 471v90q0 18 -2 33.5t-5 26.5q-4 18 -10 29.5t-10 17.5q15 0 35 1t43.5 4t47.5 9t46 17v-228h107v90q0 38 -6 60q-5 18 -10.5 29.5t-9.5 17.5q14 0 34.5 1t43.5 4t47 9t46 17v-228h78v-26h-78v-226q-14 -5 -28.5 -12.5t-29.5 -15.5q-38 -21 -49 -43.5t-1 -36.5
q0 -1 0.5 -1.5t0.5 -1.5q35 10 66.5 22t56.5 23t40.5 20.5t18.5 14.5l3 -2v0l2 -1l2 -2l2 -1v-1l2 -1l9 -10v0l1 -1q13 -14 18.5 -30.5t4.5 -33.5q-1 -25 -19 -43t-46.5 -29.5t-64 -18t-70.5 -10t-66.5 -4t-52.5 -0.5h-53q-52 0 -88 25q-44 32 -53 103q-2 17 -2.5 32.5
t-0.5 31.5v253h-27v26h27zM98 111q11 -16 34 -23t54 -7.5t66.5 5t70.5 14.5q-2 7 -3 13.5t-3 14.5q-3 33 -3 64v253h-107v-226q-15 -5 -29 -12.5t-30 -15.5q-37 -21 -48 -43.5t-2 -36.5z" />
    <glyph glyph-name="uniF02B" unicode="&#xf02b;" horiz-adv-x="560" 
d="M526 254q0 -53 -18 -99t-49 -80.5t-72.5 -54.5t-89.5 -20q-59 0 -109 31q-8 5 -15.5 8t-15.5 5q-32 7 -55.5 -7t-43.5 -37v562q0 18 -2 33.5t-4 26.5q-2 7 -3.5 12.5t-3.5 10.5q-34 -9 -84.5 -22.5t-106.5 -24.5t-113.5 -17.5t-105.5 -1.5q-54 6 -86.5 29t-43.5 52
q-7 19 -5.5 39t12 37.5t30 31.5t47.5 21q2 -35 27 -58t64 -37q41 -15 91.5 -21t100 -7t92 0.5t67.5 2.5q15 0 35 1t43 4t47 9t46 17v-216q44 23 95 23q48 0 89.5 -20t72.5 -54.5t49 -80.5t18 -98zM202 373q0 -30 5 -66t16 -74q12 -46 28.5 -84.5t34.5 -65.5t36.5 -40.5
t34.5 -9.5q15 4 24 24.5t11 53.5t-3 74.5t-17 87.5t-29 84.5t-35 66t-36 41.5t-34 9q-17 -5 -26.5 -31t-9.5 -66v-4z" />
    <glyph glyph-name="uniF02C" unicode="&#xf02c;" horiz-adv-x="573" 
d="M330 669q15 0 35 1t43 4t47 9t46 17v-550q0 -23 0.5 -44t4.5 -40t13 -35.5t26 -30.5q-16 0 -42.5 7.5t-55 12.5t-53.5 2.5t-37 -22.5v23q-44 -23 -95 -23q-48 0 -89.5 20t-72.5 54.5t-49 80.5t-18 99q0 52 18 98t49 80.5t72.5 54.5t89.5 20q51 0 95 -23v78q0 18 -2 33.5
t-4 26.5q-2 7 -4 12.5t-4 10.5q-34 -9 -84 -22.5t-106 -24.5t-113.5 -17.5t-105.5 -1.5q-54 6 -86.5 29t-43.5 52q-7 19 -5.5 39t12 37.5t30 31.5t47.5 21q2 -35 27 -58t64 -37q41 -15 91.5 -21t100 -7t92 0.5t67.5 2.5zM357 147q-2 29 -6.5 60.5t-13.5 65.5
q-12 46 -29 84.5t-35 66t-36.5 41.5t-33.5 9q-16 -4 -25 -25t-11 -54t3 -74.5t17 -87.5t29 -84.5t35 -65.5t36.5 -40.5t33.5 -9.5q17 4 25.5 26.5t10.5 57.5v30z" />
    <glyph glyph-name="uniF02D" unicode="&#xf02d;" horiz-adv-x="502" 
d="M352 481q4 6 7 12t7 11q12 21 27.5 38t39.5 16q19 0 30 -15.5t3 -35.5q-25 6 -52 -1q-13 -5 -25 -12.5t-22 -21.5q42 -27 66 -70t24 -94q0 -41 -16.5 -77.5t-44.5 -63.5t-65.5 -42.5t-80.5 -15.5q-32 0 -60 8.5t-53 23.5l-62 -82l9 4q34 16 77.5 26t88.5 11
q37 1 78.5 -7.5t73.5 -28.5t47.5 -46.5t16.5 -55.5t-14 -58t-42 -52q49 -7 96.5 -6t85.5 6q42 6 80 16t69 23.5t54 30.5t33 36q22 -20 29 -43.5t2 -46.5q-7 -34 -31 -61q-19 -20 -45 -33.5t-54.5 -21.5t-57.5 -12t-54 -5q-24 -2 -48 0q-57 2 -112.5 15t-106.5 39l-17 8.5
t-17 9.5q-51 31 -91 74.5t-65 101.5l-1 2h26q17 -39 48 -64.5t71 -42.5q40 -15 84 -23q10 13 10 32.5t-13 42.5q-15 31 -59 55q-29 16 -61 23.5t-59 9.5q-38 2 -75 -3t-65 -22l-32 43l87 116q-36 27 -57.5 67.5t-21.5 88.5q0 41 16.5 77.5t44.5 63.5t66 42.5t81 15.5
q56 0 102 -26zM296 135q13 3 20.5 20t9.5 42.5t-1.5 58t-13.5 68.5t-23 66.5t-28 52t-29.5 32t-27.5 7.5q-12 -3 -19.5 -20t-9.5 -42.5t1.5 -58.5t12.5 -69q10 -36 23 -66.5t28 -51.5t29.5 -31.5t27.5 -7.5z" />
    <glyph glyph-name="uniF02E" unicode="&#xf02e;" horiz-adv-x="509" 
d="M360 497q39 -15 63.5 -55.5t24.5 -103.5v-231q0 -48 10 -73t17 -34h-198q16 23 21.5 52t5.5 55v232q0 19 -0.5 39.5t-2.5 39.5q-4 26 -17 39t-29 13q-17 1 -30.5 -13.5t-15.5 -43.5q-1 -16 -1 -35v-39v-232q0 -48 10 -73t17 -34h-198q16 23 21.5 52t5.5 55v455
q0 18 -2 33.5t-4 26.5q-2 7 -4 12.5t-4 10.5q-34 -9 -84 -22.5t-106 -24.5t-113.5 -17.5t-105.5 -1.5q-54 6 -86.5 29t-43.5 52q-7 19 -5.5 39t12 37.5t30 31.5t47.5 21q2 -35 27 -58t64 -37q41 -15 91.5 -21t100 -7t92 0.5t67.5 2.5q14 0 34.5 1t43.5 4t47 9t46 17v-234
q15 21 42 31t56 10t54 -10z" />
    <glyph glyph-name="uniF02F" unicode="&#xf02f;" horiz-adv-x="515" 
d="M208 264l46 33q12 8 24.5 20.5t22.5 26.5q15 23 13 46t-16 37q-9 8 -21 10.5t-26 -2.5q8 32 33 52t63 20q37 0 60 -19t25 -45q2 -20 -6.5 -39.5t-25.5 -35.5q-12 -11 -25.5 -20l-25.5 -17q-3 -2 -11.5 -7.5t-19.5 -13.5l100 -203q12 -24 22 -41t20.5 -29t21.5 -20.5
t25 -16.5h-228q21 22 15 51t-19 56l-67 139v-139q0 -48 10 -73t17 -34h-198q16 23 21.5 52t5.5 55v455q0 18 -2 33.5t-4 26.5q-2 7 -4 12.5t-4 10.5q-34 -9 -84 -22.5t-106 -24.5t-113.5 -17.5t-105.5 -1.5q-54 6 -86.5 29t-43.5 52q-7 19 -5.5 39t12 37.5t30 31.5t47.5 21
q2 -35 27 -58t64 -37q41 -15 91.5 -21t100 -7t92 0.5t67.5 2.5q14 0 34.5 1t43.5 4t47 9t46 17v-436z" />
    <glyph glyph-name="uniF030" unicode="&#xf030;" horiz-adv-x="265" 
d="M64 369q0 18 -2 33.5t-4 26.5q-5 19 -11 30t-10 17q15 0 35 1t43 4t47 9t46 17v-493q0 -29 -11.5 -53t-21.5 -38q-25 -36 -56.5 -65t-67.5 -51q-18 -11 -35 -19q-51 -25 -106.5 -38.5t-111.5 -15.5h-48q-25 1 -54 5t-58 12.5t-55 22t-45 33.5q-23 24 -30 60q-5 24 2 47.5
t29 43.5q10 -20 32.5 -36.5t53.5 -30t69.5 -23.5t80.5 -16q30 -4 66 -5.5t74 0.5t75.5 9.5t71.5 21.5q30 12 55 29t43 41q8 10 7 20q0 9 -9 15q-12 8 -35 12.5t-59 4.5v369zM223 613q0 -18 -7 -33.5t-18.5 -27t-27.5 -18.5t-34 -7t-34 7t-27.5 18.5t-18.5 27t-7 33.5
q0 36 25.5 61.5t61.5 25.5t61.5 -25.5t25.5 -61.5z" />
    <glyph glyph-name="uniF031" unicode="&#xf031;" horiz-adv-x="272" 
d="M37 669q15 0 35 1t43 4t47 9t46 17v-593q0 -48 10.5 -73t16.5 -34h-198q16 23 21.5 52t5.5 55v455q0 18 -2 33.5t-4 26.5q-2 7 -4 12.5t-4 10.5q-34 -9 -84 -22.5t-106 -24.5t-113.5 -17.5t-105.5 -1.5q-55 6 -87 29t-43 52q-7 19 -5.5 39t12 37.5t29.5 31.5t47 21
q2 -35 27.5 -58t64.5 -37q41 -15 91.5 -21t100 -7t92 0.5t67.5 2.5z" />
    <glyph glyph-name="uniF032" unicode="&#xf032;" horiz-adv-x="571" 
d="M240 -163q-15 0 -35 -0.5t-43 -3.5t-47 -9t-46 -17v550q0 23 -0.5 44t-5 40t-13 36t-25.5 30q3 0 11.5 -1.5t17.5 -4t18 -4.5t13 -3q8 -2 18 -4t21 -4q18 -3 31.5 -4t26.5 -0.5t26 4t30 9.5q33 12 70 12q47 0 89 -20t73 -54.5t49 -80.5t18 -98q0 -53 -18 -99t-49 -80.5
t-73 -54.5t-89 -20q-51 0 -95 23v-78q0 -18 2 -33.5t4 -26.5q2 -7 3.5 -12.5t3.5 -10.5q34 9 84 22.5t106.5 24.5t113.5 17.5t106 1.5q54 -6 86.5 -29t43.5 -52q7 -19 2.5 -37.5t-16.5 -34t-30 -26.5t-39 -15q-14 26 -33.5 45.5t-58.5 33.5q-41 15 -92 21t-100.5 7t-92 -1
t-66.5 -3zM213 359q1 -55 20 -126q12 -46 29 -84.5t35 -65.5t36.5 -40.5t33.5 -9.5t24.5 24.5t11.5 53.5t-3 74.5t-17 87.5t-29 84.5t-35 66t-36.5 41.5t-33.5 9q-17 -4 -25.5 -27t-10.5 -58v-30z" />
    <glyph glyph-name="uniF033" unicode="&#xf033;" horiz-adv-x="558" 
d="M33 254q0 52 18 98t49 80.5t72.5 54.5t89.5 20q59 0 109 -31q8 -5 15.5 -8t15.5 -5q32 -8 55.5 6.5t43.5 37.5v-562q0 -18 2 -33.5t5 -26.5q3 -14 7 -23q34 9 84 22.5t106 24.5t113.5 17.5t106.5 1.5q54 -6 86.5 -29t43.5 -52q7 -19 2.5 -37.5t-17 -34t-30.5 -26.5
t-38 -15q-14 26 -34 45.5t-59 33.5q-41 15 -91.5 21t-100 7t-92 -1t-67.5 -3q-14 0 -34.5 -0.5t-43.5 -3.5t-47 -9t-46 -17v216q-44 -23 -95 -23q-48 0 -89.5 20t-72.5 54.5t-49 80.5t-18 99zM357 134q0 61 -20 139q-12 46 -29 84.5t-35 66t-36.5 41.5t-33.5 9
q-16 -4 -25 -25t-11 -54t3 -74.5t17 -87.5t29 -84.5t35 -65.5t36.5 -40.5t33.5 -9.5q18 5 27 30.5t9 66.5v4z" />
    <glyph glyph-name="uniF034" unicode="&#xf034;" horiz-adv-x="353" 
d="M282 189q38 -27 43 -63.5t-13 -67.5q-15 -25 -42.5 -41.5t-62.5 -16.5q-53 0 -89 25q-44 33 -53 104q-2 16 -2.5 32t-0.5 32v253h-27v26h27v90q0 18 -2 33.5t-4 26.5q-2 7 -4 12.5t-4 10.5q-34 -9 -84 -22.5t-106 -24.5t-113.5 -17.5t-106.5 -1.5q-54 6 -86 29t-43 52
q-7 19 -5.5 39t12 37.5t29.5 31.5t47 21q2 -35 27.5 -58t64.5 -37q41 -15 91.5 -21t100 -7t92 0.5t67.5 2.5q15 0 35 1t43.5 4t47.5 9t46 17v-228h78v-26h-78v-227q-15 -5 -29 -12t-30 -16q-37 -20 -48 -43t-2 -37t34.5 -15.5t62.5 18.5q29 16 54 37.5t33 37.5z" />
    <glyph glyph-name="uniF035" unicode="&#xf035;" horiz-adv-x="486" 
d="M261 0h-72l-119 412q-10 36 -28 61.5t-40 33.5h235q-24 -8 -27 -35.5t6 -59.5l86 -317q9 16 17 35t19 41q15 33 24.5 73.5t6 80.5t-22.5 74.5t-60 55.5q11 32 40 49.5t58 15.5q25 -2 47 -18t27 -49q4 -20 2 -41t-7 -41q-8 -30 -22 -59.5t-25 -54.5l-119 -257l-7 -18
q-29 -68 -79 -115.5t-112 -78.5q-62 -30 -130.5 -43.5t-135.5 -10.5q-32 1 -71 7.5t-74.5 21.5t-62.5 40t-34 64q-5 24 2 47.5t29 43.5q10 -20 32.5 -36.5t53.5 -30t69.5 -23.5t80.5 -16q30 -4 66 -5.5t74 0.5t75.5 9.5t71.5 21.5q41 16 72.5 42.5t48.5 66.5z" />
    <glyph glyph-name="uniF036" unicode="&#xf036;" horiz-adv-x="500" 
d="M360 497q39 -15 63.5 -55.5t24.5 -103.5v-158v-24v-33t-0.5 -36.5t-0.5 -31v-16.5q0 -105 6 -153.5t29 -48.5q14 0 19.5 17.5t3.5 40.5q-2 19 -9 37t-21 26q26 16 48.5 18t40 -5.5t29 -21.5t15.5 -31q5 -18 0 -38t-21.5 -36t-45.5 -26.5t-72 -10.5q-50 0 -82 16t-50.5 46
t-25.5 73t-7 97v140v160q0 19 -0.5 39.5t-2.5 39.5q-4 26 -17 39t-28 13q-17 1 -31 -13.5t-16 -43.5q-1 -16 -1 -35v-39v-232q0 -48 10.5 -73t16.5 -34h-198q15 23 21 52t6 55v455q0 18 -2 33.5t-5 26.5q-4 19 -10 30t-10 17q15 0 35 1t43 4t47 9t46 17v-234q15 21 42 31
t56 10q14 0 28 -2.5t26 -7.5z" />
    <glyph glyph-name="uniF037" unicode="&#xf037;" horiz-adv-x="742" 
d="M361 497q44 -17 66 -61q5 11 16 24.5t21 21.5q17 13 38.5 19t44.5 6q14 0 28 -2.5t26 -7.5q39 -15 63.5 -55.5t24.5 -103.5v-191v0v-108q0 -106 5.5 -154t28.5 -48q14 0 19.5 17.5t3.5 40.5q-2 19 -9 37t-21 26q26 16 48.5 18t40 -5.5t29 -21.5t15.5 -31q5 -18 0 -38
t-21.5 -36t-45.5 -26.5t-72 -10.5q-50 0 -82 16t-50.5 46t-25.5 72.5t-7 96.5v141q0 40 -0.5 78.5t-0.5 81.5v39.5t-2 39.5q-4 26 -17 39t-29 13q-17 1 -30.5 -13.5t-15.5 -43.5q-1 -16 -1 -34.5v-39.5v-232q0 -48 10 -73t17 -34h-198q16 23 21.5 52t5.5 55v167v95
q0 7 -1 10v19.5t-2 19.5q-4 26 -17 39t-29 13q-17 1 -30.5 -13.5t-15.5 -43.5q-1 -16 -1 -34.5v-39.5v-232q0 -48 10 -73t17 -34h-198q15 23 21 52t6 55v262q0 18 -2 33.5t-5 26.5q-4 19 -10 30t-10 17q15 0 35 1t43 4t47 9t46 17v-41q15 21 42 31t56 10q14 0 28 -2.5
t26 -7.5z" />
    <glyph glyph-name="uniF038" unicode="&#xf038;" horiz-adv-x="502" 
d="M361 497q39 -15 63.5 -55.5t24.5 -103.5v-158v0v-17v-124q0 -106 5.5 -154t28.5 -48q14 0 19.5 17.5t3.5 40.5q-2 19 -9 37t-21 26q26 16 48.5 18t40 -5.5t29 -21.5t15.5 -31q5 -18 0 -38t-21.5 -36t-45.5 -26.5t-72 -10.5q-50 0 -82 16t-50.5 46t-25.5 73t-7 97v141v159
q0 19 -0.5 39.5t-2.5 39.5q-4 26 -17 39t-28 13q-17 1 -31 -13.5t-16 -43.5q-1 -16 -1 -34.5v-39.5v-232q0 -48 10.5 -73t16.5 -34h-198q16 23 21.5 52t5.5 55v262q0 18 -2 33.5t-4 26.5q-5 19 -11 30t-10 17q15 0 35 1t43 4t47 9t46 17v-41q15 21 42 31t56 10t54 -10z" />
    <glyph glyph-name="uniF039" unicode="&#xf039;" horiz-adv-x="391" 
d="M282 189q19 -13 29.5 -29.5t13.5 -34t-1 -35t-13 -32.5q-14 -25 -41.5 -41.5t-63.5 -16.5q-52 0 -88 25q-44 33 -53 104q-2 16 -2.5 32t-0.5 32v254q-7 -1 -13.5 -1h-13.5v26h13.5t13.5 1v89q0 18 -2 33.5t-5 26.5q-4 19 -10 30t-10 17q15 0 35 1t43.5 4t47.5 9t46 17
v-194q24 8 48 18t47 21q32 14 62 29t59 29q41 20 90.5 43.5t100.5 37.5q20 6 46.5 11t53.5 5q30 0 52 -11.5t34 -30.5q15 -24 11 -53.5t-33 -52.5q-16 -14 -37 -21.5t-43 -8.5q5 23 -5.5 35.5t-27.5 17.5q-13 4 -28 4.5t-30 -0.5t-28.5 -3.5t-22.5 -4.5q-32 -8 -61 -17.5
t-51 -16.5q-35 -11 -69 -22t-68 -21q-25 -7 -49.5 -13t-50.5 -12v-250q-14 -5 -28.5 -12t-30.5 -16q-37 -20 -48 -43t-2 -37t34.5 -15.5t62.5 18.5q29 16 54 37.5t33 37.5z" />
    <glyph glyph-name="s_t" unicode="&#xfb06;" horiz-adv-x="813" 
d="M316 319q20 -17 38.5 -34t34.5 -36q19 -23 31 -48t14 -54q2 -39 -16 -67t-48 -46t-66 -26.5t-70 -8.5q-18 0 -39 0.5t-41 5.5q-26 5 -49.5 17t-40.5 30q-17 19 -25 41.5t-7 45.5q2 29 20.5 51t56.5 26q25 3 48 -10.5t31 -42.5q-22 -8 -31 -27.5t-7 -42.5q3 -29 24.5 -53
t59.5 -25q36 0 57.5 23.5t20.5 57.5q-1 18 -6 32.5t-13 27.5q-14 21 -33 39.5t-41 37.5q-21 17 -43.5 34.5t-43.5 35.5q-12 11 -25.5 24.5t-25 29t-18 32.5t-5.5 35q3 29 24 48q21 23 62 29q16 3 32 4t31 2v0q-25 25 -28 60q-2 23 8 45q9 20 29 35q24 19 51.5 27t56 9.5
t58 -1.5t57.5 -7q7 -1 13.5 -1.5t11.5 -1.5q16 -3 32 -4q15 0 35 1t43.5 4t47.5 9t46 17v-228h78v-26h-78v-226q-15 -5 -29 -12.5t-30 -15.5q-37 -21 -48 -43.5t-2 -36.5t34 -15.5t63 18.5q29 15 54 37t32 38q38 -28 43 -64.5t-13 -67.5q-15 -25 -42.5 -41t-62.5 -16
q-52 0 -88 25q-45 33 -53 103q-2 17 -2.5 32.5t-0.5 31.5v253h-27v26h27v45q0 31 -15 55.5t-39 42.5t-58.5 30t-69.5 14q-32 2 -61 -4t-52 -23q-13 -11 -22 -28q-8 -17 -6 -34q2 -28 21 -47q11 -11 29 -16q31 -2 58 -5.5t46 -2.5q11 0 19.5 1t15.5 6v-194q-10 23 -32 57
t-50 63q-24 25 -49.5 42t-49.5 16q-16 -1 -23.5 -8t-9.5 -15q-2 -12 4 -23.5t15.5 -22t20.5 -19.5t19 -16q20 -16 40.5 -32.5t41.5 -33.5z" />
    </font>
</defs>
</svg>
