<?xml version="1.0" standalone="no"?>
<!DOCTYPE svg PUBLIC "-//W3C//DTD SVG 1.1//EN" "http://www.w3.org/Graphics/SVG/1.1/DTD/svg11.dtd" >
<svg xmlns="http://www.w3.org/2000/svg" xmlns:xlink="http://www.w3.org/1999/xlink" version="1.1">
<metadata>
Created by FontForge 20170731 at Fri Jul  2 09:31:02 2021
 By Aleksey,,,
Westiva fonts (c) asenbayu 2021. All Rights Reserved
</metadata>
<defs>
<font id="WestivaLight" horiz-adv-x="494" >
  <font-face 
    font-family="Westiva Light"
    font-weight="300"
    font-stretch="normal"
    units-per-em="1000"
    panose-1="0 0 0 0 0 0 0 0 0 0"
    ascent="800"
    descent="-200"
    x-height="507"
    cap-height="700"
    bbox="-447.174 -265.581 964 967"
    underline-thickness="50"
    underline-position="-175"
    unicode-range="U+000A-FB06"
  />
<missing-glyph horiz-adv-x="527" 
d="M477 700v-700h-427v700h427zM263 371l186 309h-371zM71 650v-601l180 301zM79 21h370l-185 308zM457 47v605l-181 -302z" />
    <glyph glyph-name="uniF021" unicode="fb" horiz-adv-x="742" 
d="M428 473q-34 -9 -59 -34t-39 -61t-16 -79.5t10 -88.5q12 -46 35.5 -82.5t53.5 -60.5t64.5 -33.5t68.5 -0.5t59 34t39.5 61t16.5 79.5t-10 89.5q-12 45 -36 82t-54 61t-64.5 33t-68.5 0zM57 451v20h27v28q0 18 -1 45.5t4 53.5q6 43 32 69q31 30 80 31q15 0 33 -5.5
t33 -15.5q3 -1 7 -5q13 5 24.5 12t17.5 14v-315q26 56 72 89.5t101 33.5q42 0 79 -20t64.5 -54t43.5 -80t16 -99q0 -52 -16 -98t-43.5 -80t-64.5 -54t-79 -20q-40 0 -75.5 18t-63.5 50q-15 18 -28 15q-8 -3 -14.5 -12.5t-11.5 -22.5q-6 -14 -10.5 -27t-6.5 -21v560
q0 8 -0.5 16t-1.5 16q-3 16 -11 32q-9 18 -25.5 31t-35.5 18q-37 9 -66 -11q-16 -10 -25 -30q-8 -17 -9.5 -36t0.5 -37q1 -16 6 -32t14 -29t22 -20.5t30 -7.5h23v-20h-78v-344q0 -48 10 -72.5t17 -33.5h-90q15 22 21 51t6 55v344h-27z" />
    <glyph glyph-name="uniF022" unicode="fh" horiz-adv-x="687" 
d="M57 451v20h27v28q0 18 -1 45.5t4 53.5q6 43 32 69q31 30 80 31q15 0 33 -5.5t33 -15.5l4 -2t4 -3q28 10 41 26v-293q9 24 23.5 42.5t33 31t40 19t42.5 7.5q28 2 55 -7t48 -28q26 -23 39.5 -58t13.5 -76v-230q0 -47 10.5 -72t16.5 -35h-90q15 23 21 52t6 55q0 62 -0.5 116
t-0.5 115q0 32 -9 61t-27 50q-17 18 -38 27t-44 11q-31 2 -57 -9.5t-44.5 -32.5t-28.5 -49t-10 -58v-231q0 -47 10 -72t16 -34h-90q16 22 21.5 51t5.5 55v454q0 9 -0.5 17t-1.5 16q-2 9 -4.5 16.5t-6.5 15.5q-9 18 -25 31t-36 18q-36 9 -66 -11q-16 -12 -25 -30
q-8 -17 -9.5 -36t0.5 -37q1 -16 6 -32t14 -29t22 -20.5t30 -7.5h23v-20h-78v-344q0 -48 10.5 -72.5t16.5 -33.5h-90q15 22 21 51t6 55v344h-27z" />
    <glyph glyph-name="uniF023" unicode="fj" horiz-adv-x="392" 
d="M328 597q0 -14 -9 -23t-23 -9q-17 0 -23.5 11t-8.5 25q-5 26 -16 42q-9 14 -22.5 22t-28.5 11t-30.5 0t-29.5 -13q-17 -13 -25 -30t-9 -36t1 -37q1 -16 6 -32t14 -29t22 -20.5t30 -7.5h23v-20h-78v-344q0 -48 10 -72.5t17 -33.5h-90q15 22 21 51t6 55v344h-27v20h27v28
q0 18 -1 45.5t4 53.5q6 43 32 69q15 14 35 22.5t45 8.5q15 0 32 -5t33 -13q22 -12 42.5 -34.5t20.5 -48.5zM315 -40q-1 -16 -1.5 -31.5t-3.5 -31.5q-5 -25 -16 -45q-13 -20 -33 -32t-47 -12q-25 0 -47 11q-17 9 -28 23t-14 34q-4 28 12 51.5t47 23.5q14 1 28 -6t22 -22
q-26 12 -48 3q-13 -5 -21 -17t-8 -29q-1 -27 18 -46q18 -18 44 -18q20 0 34.5 12.5t22.5 29.5q10 21 12 43q2 18 0 36.5t-10 33.5v397q0 18 -2 33t-4 27q-5 18 -11 29.5t-10 17.5q17 1 36 10.5t28 19.5v-94v-451z" />
    <glyph glyph-name="uniF024" unicode="fk" horiz-adv-x="602" 
d="M57 451v20h27v28q0 18 -0.5 45.5t3.5 53.5q6 43 32 69q31 30 80 31q15 0 33 -5.5t33 -15.5q5 -1 8 -5q28 10 41 26v-432l78 54l24 17q17 11 29 26t19 34t6 36q-2 27 -21 41.5t-45 4.5q-22 -7 -35 -29q3 19 19.5 37t43.5 18q23 0 40 -10q16 -10 23 -26.5t7 -33.5
q0 -21 -8.5 -38t-22 -31t-30 -25.5t-31.5 -22.5q-3 -2 -3 -1.5t-10 -7.5l99 -202q12 -24 22 -40.5t20.5 -28.5t21.5 -20.5t25 -16.5h-122q11 11 14 23.5t1 26.5t-7.5 28.5t-11.5 27.5l-89 184l-56 -38v-147q0 -47 10 -72t16 -34h-89q15 22 20.5 51t5.5 55v454v17t-2 16
q-3 18 -10 32q-10 18 -26 31t-36 18q-36 9 -66 -11q-16 -12 -25 -30q-8 -17 -9.5 -36t0.5 -37q1 -16 6 -32t14 -29t22 -20.5t30 -7.5h23v-20h-78v-344q0 -48 10.5 -72.5t16.5 -33.5h-90q16 22 21.5 51t5.5 55v344h-27z" />
    <glyph glyph-name="uniF025" unicode="ft" horiz-adv-x="490" 
d="M57 451v20h27v28q0 18 -1 45.5t4 53.5q6 43 32 69q31 30 80 31q15 0 33 -5.5t33 -15.5l4 -2t4 -3q28 10 41 26v-227h78v-20h-78v-256q-8 -12 -13 -29.5t-6.5 -36t0.5 -36.5t9 -31q9 -17 23 -24.5t30 -6.5q19 0 35 7t27 19q22 24 18 59q19 -16 19.5 -44.5t-18.5 -47.5
q-11 -11 -25.5 -17t-31.5 -6q-26 0 -41.5 8.5t-30.5 22.5q-11 11 -18.5 28t-10.5 40q-5 34 -3 69v282h-27v20h27v89q0 10 -0.5 18.5t-1.5 16.5q-3 15 -11 30q-9 18 -25.5 31t-35.5 18q-36 9 -66 -11q-16 -10 -25 -30q-8 -17 -9.5 -36t0.5 -37q1 -16 6 -32t14 -29t22 -20.5
t30 -7.5h23v-20h-78v-344q0 -48 10.5 -72.5t16.5 -33.5h-90q15 22 21 51t6 55v344h-27z" />
    <glyph glyph-name="uniF026" unicode="ffj" horiz-adv-x="585" 
d="M58 451v20h27v28q0 18 -1 45.5t4 53.5q6 43 32 69q31 30 80 31q15 0 33 -5.5t33 -15.5q22 -13 30 -33q7 12 17 23q15 14 35 22.5t45 8.5q16 0 33 -5t32 -13q22 -12 42.5 -34.5t20.5 -48.5q0 -14 -9 -23t-23 -9q-17 0 -23.5 11t-8.5 25q-3 24 -16 42q-18 27 -50 33
q-34 7 -60 -13q-16 -11 -25 -30q-8 -17 -9.5 -36t0.5 -37q2 -16 6.5 -32t13.5 -29t22 -20.5t30 -7.5h24v-20h-78v-344q0 -48 10 -72.5t16 -33.5h-90q16 22 21.5 51t5.5 55v344h-27v20h27v28q0 14 -0.5 33t0.5 39v0q0 31 -13 54q-9 18 -25.5 31t-35.5 18q-36 9 -66 -11
q-16 -10 -25 -30q-8 -17 -9.5 -36t0.5 -37q1 -16 6 -32t14 -29t22 -20.5t30 -7.5h23v-20h-78v-344q0 -48 10 -72.5t17 -33.5h-90q15 22 21 51t6 55v344h-27zM508 -40q0 -16 -1 -31.5t-4 -31.5q-5 -25 -16 -45q-12 -20 -32 -32t-48 -12q-25 0 -47 11q-17 9 -28 23t-13 34
q-5 28 11 51.5t47 23.5q14 1 28 -6t22 -22q-25 13 -48 3q-12 -5 -20 -17t-9 -29q0 -26 18 -46q18 -18 44 -18q21 0 35.5 12.5t22.5 29.5q9 20 12 43q2 18 -0.5 36.5t-10.5 33.5v397q0 36 -6 60q-5 18 -10.5 29.5t-9.5 17.5q17 1 36 10.5t27 19.5v-94v-451z" />
    <glyph glyph-name="f_f" unicode="ff" horiz-adv-x="425" 
d="M250 451v20h27v28q0 14 -0.5 33t0.5 39q0 31 -13 54q-9 18 -25.5 31t-35.5 18q-37 9 -66 -11q-17 -11 -26 -30q-8 -17 -9 -36t1 -37q1 -16 6 -32t14 -29t22 -20.5t30 -7.5h23v-20h-78v-344q0 -48 10 -72.5t17 -33.5h-90q15 22 21 51t6 55v344h-27v20h27v28q0 18 -1 45.5
t4 53.5q6 43 32 69q31 30 80 31q15 0 33 -5.5t33 -15.5q22 -13 29 -31q7 12 15 20q14 14 30 23t42 9q34 0 58 -24q18 -20 17.5 -48t-19.5 -44q3 27 -12.5 50t-39.5 33q-22 9 -45 2t-35 -33q-8 -16 -9.5 -36t0.5 -38q2 -16 6.5 -32t13.5 -29t22 -20.5t30 -7.5h24v-20h-78
v-344q0 -48 10 -72.5t16 -33.5h-90q16 22 21.5 51t5.5 55v344h-27z" />
    <glyph glyph-name="fi" unicode="fi" horiz-adv-x="398" 
d="M328 597q0 -14 -9 -23t-23 -9q-17 0 -23.5 11t-8.5 25q-3 24 -16 42q-9 14 -22.5 22t-28.5 11t-30.5 0t-29.5 -13q-17 -13 -25 -30t-9 -36t1 -37q1 -16 6 -32t14 -29t22 -20.5t30 -7.5h23v-20h-78v-344q0 -48 10 -72.5t17 -33.5h-90q15 22 21 51t6 55v344h-27v20h27v28
q0 18 -1 45.5t4 53.5q6 43 32 69q15 14 35 22.5t45 8.5q15 0 32 -5t33 -13q22 -12 42.5 -34.5t20.5 -48.5zM278 367q0 18 -2 33t-4 26q-5 19 -11 30.5t-10 17.5q17 1 36 10.5t28 19.5v-398q0 -47 10 -72t16 -35h-90q16 23 21.5 52t5.5 55v261z" />
    <glyph glyph-name="fl" unicode="fl" horiz-adv-x="398" 
d="M58 451v20h27v28q0 18 -1 45.5t4 53.5q6 43 32 69q31 30 80 31q15 0 33 -5.5t33 -15.5l4 -2t4 -3q28 10 41 26v-592q0 -47 10 -72t16 -34h-90q16 22 21.5 51t5.5 55v454q0 9 -0.5 17t-1.5 16q-2 9 -4.5 16.5t-6.5 15.5q-9 18 -25.5 31t-35.5 18q-37 9 -66 -11
q-16 -10 -25 -30q-8 -17 -9.5 -36t0.5 -37q1 -16 6 -32t14 -29t22 -20.5t30 -7.5h23v-20h-78v-344q0 -48 10 -72.5t17 -33.5h-90q15 22 21 51t6 55v344h-27z" />
    <glyph glyph-name="f_f_i" unicode="ffi" horiz-adv-x="591" 
d="M521 597q0 -14 -9 -23t-23 -9q-17 0 -23.5 11t-8.5 25q-3 24 -16 42q-9 14 -22.5 22t-28.5 11t-30.5 0t-28.5 -13q-16 -11 -25 -30q-8 -17 -9.5 -36t0.5 -37q2 -16 6.5 -32t13.5 -29t22 -20.5t30 -7.5h24v-20h-78v-344q0 -48 10 -72.5t16 -33.5h-90q16 22 21.5 51t5.5 55
v344h-27v20h27v28q0 14 -0.5 33t0.5 39v0q0 31 -13 54q-9 18 -25.5 31t-35.5 18q-37 9 -66 -11q-15 -10 -26 -30q-8 -17 -9 -36t1 -37q1 -16 6 -32t14 -29t22 -20.5t30 -7.5h23v-20h-78v-344q0 -48 10 -72.5t17 -33.5h-90q15 22 21 51t6 55v344h-27v20h27v28q0 18 -1 45.5
t4 53.5q6 43 32 69q31 30 80 31q15 0 33 -5.5t33 -15.5q22 -13 30 -33q8 13 18 23q14 14 34 22.5t45 8.5q16 0 33 -5t32 -13q22 -12 42.5 -34.5t20.5 -48.5zM471 367q0 18 -2 33t-4 26q-5 19 -10.5 30.5t-9.5 17.5q17 1 35.5 10.5t27.5 19.5v-398q0 -47 10 -72t16 -35h-89
q15 23 20.5 52t5.5 55v261z" />
    <glyph glyph-name="f_f_l" unicode="ffl" horiz-adv-x="591" 
d="M266 678q23 -15 30 -34q8 14 17 23q31 31 80 31q15 0 33 -5t33 -15q6 -4 8 -6q28 10 41 26v-592q0 -47 10 -72t16 -34h-89q15 23 20.5 51.5t5.5 54.5v455v17t-1 16q-2 8 -4.5 16t-6.5 15q-10 18 -26 31.5t-36 18.5q-17 5 -34.5 1.5t-31.5 -12.5q-16 -11 -25 -31
q-8 -17 -9.5 -36t0.5 -36q2 -16 6.5 -32.5t13.5 -29t22 -20.5t30 -8h24v-20h-78v-343q0 -48 10 -73t16 -34h-90q15 23 21 52t6 55v343h-27v20h27v28q0 14 -0.5 33.5t0.5 39.5v-1q0 31 -13 54q-9 18 -25.5 31.5t-35.5 18.5q-18 5 -35 1.5t-31 -12.5q-17 -11 -26 -31
q-8 -17 -9 -36t1 -36q1 -16 6 -32.5t14 -29t22 -20.5t30 -8h23v-20h-78v-343q0 -48 10 -73t17 -34h-90q15 23 21 52t6 55v343h-27v20h27v28q0 19 -1 46.5t3 53.5q8 43 33 68q31 31 80 31q15 0 33 -5t33 -15zM293 638q-8 -16 -11 -35q3 19 11 35z" />
    <glyph glyph-name=".notdef" horiz-adv-x="527" 
d="M477 700v-700h-427v700h427zM263 371l186 309h-371zM71 650v-601l180 301zM79 21h370l-185 308zM457 47v605l-181 -302z" />
    <glyph glyph-name=".null" horiz-adv-x="0" 
 />
    <glyph glyph-name=".null" horiz-adv-x="0" 
 />
    <glyph glyph-name="uni000D" unicode="&#xd;" horiz-adv-x="0" 
 />
    <glyph glyph-name="uni000A" unicode="&#xa;" horiz-adv-x="0" 
 />
    <glyph glyph-name="space" unicode=" " horiz-adv-x="271" 
 />
    <glyph glyph-name="exclam" unicode="!" horiz-adv-x="233" 
d="M144 700l-17 -499h-22l-17 499h56zM166 44q0 -18 -14.5 -31t-35.5 -13q-20 0 -35 13t-15 31q0 19 15 31t35 12q21 0 35.5 -12t14.5 -31z" />
    <glyph glyph-name="quotedbl" unicode="&#x22;" horiz-adv-x="325" 
d="M91 613q-20 0 -35 13t-15 30q0 19 15 31.5t35 12.5q21 0 35.5 -12.5t14.5 -31.5q0 -14 -5.5 -37.5t-17 -48t-29.5 -45.5t-44 -29l-4 6q29 24 39 54.5t12 56.5h-1zM233 613q-20 0 -35 13t-15 30q0 19 15 31.5t35 12.5q21 0 35.5 -12.5t14.5 -31.5q0 -14 -5.5 -37.5
t-17 -48t-29.5 -45.5t-44 -29l-4 6q29 24 39 54.5t12 56.5h-1z" />
    <glyph glyph-name="numbersign" unicode="#" horiz-adv-x="687" 
d="M304 700h36l-59 -221h193l59 221h37l-59 -221h123l-9 -36h-123l-50 -186h123l-10 -36h-123l-59 -221h-37l59 221h-193l-59 -221h-37l59 221h-123l9 36h124l50 186h-124l10 36h123zM272 443l-50 -186h193l50 186h-193z" />
    <glyph glyph-name="dollar" unicode="$" horiz-adv-x="546" 
d="M264 228q-27 32 -70 35q-23 2 -41 -6.5t-31 -22.5q-25 -29 -23 -71q2 -26 12.5 -52t28.5 -45q23 -24 56.5 -37t67.5 -15v214v0zM290 15q31 2 57.5 11.5t46.5 27.5q24 21 37.5 53t11.5 70q-2 42 -20.5 74.5t-45.5 59.5q-19 20 -41.5 36.5t-45.5 32.5v-365zM264 397
q-33 23 -64.5 46.5t-55.5 53.5q-20 25 -30.5 53.5t-2.5 61.5q5 23 21.5 41.5t45.5 31.5q20 9 41.5 11t43.5 4h1v86h26v-87q11 -1 20 -3l18 -4q15 -3 28 -6t30 -2q30 0 47 14v-131q-5 22 -14 42t-24.5 36t-41 26.5t-63.5 14.5v-261q29 -20 56.5 -40t49.5 -40q35 -33 59.5 -73
t24.5 -94q0 -46 -21.5 -83t-55.5 -59q-25 -17 -53.5 -25t-59.5 -10v-86h-26v85q-35 1 -70.5 13t-64.5 34q-28 22 -46 52t-20 67q-2 28 8.5 53t30.5 43q18 17 43 25t53 3q23 -4 40.5 -18t25.5 -39v164v0zM264 687q-19 1 -37 -1.5t-33 -10.5q-24 -11 -36 -28.5t-14 -37.5
q-3 -36 19 -70q17 -26 44 -49.5t57 -46.5v244z" />
    <glyph glyph-name="percent" unicode="%" horiz-adv-x="738" 
d="M318 519v-3q0 -22 -3.5 -42t-9.5 -38q-7 -19 -18.5 -37.5t-26.5 -32.5t-33.5 -23t-40.5 -9q-27 0 -50.5 14t-41 38.5t-27.5 57t-10 69.5v3q0 44 14 81q7 19 18 37t26 32.5t33.5 23.5t40.5 9q27 0 50.5 -14t41 -38.5t27.5 -57t10 -70.5zM493 700h37l-286 -702h-37z
M680 185v-3q0 -44 -14 -81q-7 -19 -18 -37t-26 -32.5t-33.5 -23.5t-40.5 -9q-27 0 -50.5 14t-41 38.5t-27.5 57.5t-10 70v3q0 22 3.5 42t9.5 39q7 19 18 37t26 32.5t34 23.5t40 9q27 0 50.5 -14t41.5 -38.5t28 -57.5t10 -70zM438 182q0 -14 3 -26q3 -21 11.5 -44t21.5 -43
t32 -34t43 -16q25 -2 48.5 9.5t37.5 34.5q17 25 22 57.5t3 61.5h1q-1 7 -1.5 13.5t-1.5 12.5q-4 21 -12 44t-21.5 43t-32 34t-42.5 16q-25 2 -48.5 -9.5t-38.5 -34.5q-16 -25 -21.5 -57.5t-3.5 -61.5v0zM76 516q1 -7 1.5 -13.5t1.5 -12.5q4 -21 12 -44t21.5 -42.5t32 -33.5
t42.5 -16q25 -2 48.5 9t38.5 34q16 26 21.5 58t3.5 61v0q0 14 -3 26q-3 21 -11.5 44t-21.5 43t-32 34t-43 16q-25 2 -48.5 -9.5t-37.5 -34.5q-17 -25 -22.5 -57.5t-3.5 -61.5v0z" />
    <glyph glyph-name="ampersand" unicode="&#x26;" horiz-adv-x="665" 
d="M473 553q-2 -28 -16 -51t-35.5 -36t-47 -14t-51.5 16q53 -2 83 30q18 18 26.5 40t7.5 44.5t-10 43.5t-26 36q-17 16 -40 23t-47 7q-38 -1 -71 -19t-47 -56q-14 -37 -15 -76t7 -80q11 -49 34 -98t52 -94.5t62.5 -85.5t65.5 -72q15 -14 30 -27.5t32 -25.5q22 21 38.5 50.5
t26 63t12 68.5t-2.5 65t-17.5 53t-34.5 33h95q-11 -6 -15.5 -19.5t-5.5 -29.5t-0.5 -32.5t0.5 -27.5q-1 -21 -3 -42.5t-8 -46.5q-12 -46 -29.5 -81.5t-45.5 -59.5q32 -22 66 -36t69 -16h-55q-26 1 -52 10t-52 23q-52 -33 -144 -33q-52 0 -95.5 17.5t-75.5 46.5t-51.5 65.5
t-24.5 74.5q-7 54 19 101.5t94 70.5q-16 40 -23 74q-11 50 -6 96.5t31 88.5q21 33 59.5 49t80.5 16q29 0 55.5 -7t47.5 -23q25 -19 40.5 -50t12.5 -67zM376 91q-26 24 -54 55t-54 66.5t-49.5 74.5t-40.5 80q-31 -14 -49.5 -35.5t-26 -47t-6 -54t11.5 -56.5q14 -43 45 -80.5
t72 -59.5q48 -25 104 -24.5t110 29.5q1 0 1.5 0.5t1.5 0.5q-34 23 -66 51z" />
    <glyph glyph-name="quotesingle" unicode="'" horiz-adv-x="183" 
d="M91 613q-20 0 -35 13t-15 30q0 19 15 31.5t35 12.5q21 0 35.5 -12.5t14.5 -31.5q0 -14 -5.5 -37.5t-16.5 -48t-29 -45.5t-44 -29l-5 6q29 24 39 54.5t12 56.5h-1z" />
    <glyph glyph-name="parenleft" unicode="(" horiz-adv-x="329" 
d="M285 691q-42 -16 -73 -58.5t-52 -102t-31.5 -130.5t-10.5 -145t10.5 -146t31 -131.5t52 -102.5t73.5 -59v-9q-54 13 -94 56t-66 105t-39 137.5t-13 153.5q0 77 13.5 150.5t40 134t66.5 102t92 54.5v-9z" />
    <glyph glyph-name="parenright" unicode=")" horiz-adv-x="329" 
d="M43 700q53 -13 92.5 -54.5t66 -102t40 -134t13.5 -150.5q0 -78 -13 -153.5t-39 -137.5t-66 -105t-94 -56v9q42 16 73.5 59t52 102.5t31 131.5t10.5 146t-10.5 145t-31.5 130.5t-52 102t-73 58.5v9z" />
    <glyph glyph-name="asterisk" unicode="*" horiz-adv-x="473" 
d="M261 700l-19 -186l170 76l16 -47l-183 -39l125 -139l-40 -29l-94 162l-93 -162l-40 29l125 139l-183 39l15 47l171 -76l-20 186h50z" />
    <glyph glyph-name="plus" unicode="+" horiz-adv-x="590" 
d="M277 603h36v-236h236v-36h-236v-236h-36v236h-236v36h236v236z" />
    <glyph glyph-name="comma" unicode="," horiz-adv-x="158" 
d="M78 0q-20 0 -35 13t-15 31q0 19 15 31t35 12q21 0 35.5 -12t14.5 -31q0 -14 -5.5 -37.5t-16.5 -48t-29 -45.5t-44 -29l-5 6q29 24 39 54t12 56h-1z" />
    <glyph glyph-name="hyphen" unicode="-" horiz-adv-x="438" 
d="M19 331v36h400v-36h-400z" />
    <glyph glyph-name="period" unicode="." horiz-adv-x="156" 
d="M128 44q0 -18 -14.5 -31t-35.5 -13t-35.5 13t-14.5 31q0 19 14.5 31t35.5 12t35.5 -12t14.5 -31z" />
    <glyph glyph-name="slash" unicode="/" horiz-adv-x="378" 
d="M298 700h37l-254 -702h-37z" />
    <glyph glyph-name="zero" unicode="0" horiz-adv-x="647" 
d="M540 401q-7 42 -23.5 88.5t-43 86.5t-63.5 67.5t-86 31.5q-50 5 -96.5 -18t-76.5 -69q-32 -51 -43 -115t-7 -123v0q1 -14 2 -27t3 -25q8 -42 24.5 -88t43 -86t63.5 -67t85 -32q50 -5 96.5 18t76.5 69q32 51 43.5 115t6.5 123h1q-1 27 -6 51zM551 193q-13 -37 -35 -72.5
t-51.5 -63.5t-65.5 -45.5t-78 -17.5q-52 0 -98 27.5t-80 75t-54 111.5t-20 136v6q0 42 7 82t20 75q13 37 35 72.5t51 63.5t65.5 45.5t78.5 17.5q52 0 98 -27.5t80 -75t53.5 -111.5t19.5 -136v-6q0 -85 -26 -157z" />
    <glyph glyph-name="one" unicode="1" horiz-adv-x="272" 
d="M172 107q0 -48 10.5 -73t16.5 -34h-90q15 23 20.5 52t5.5 55v443l-77 -33v11q29 15 48 35.5t30.5 43.5t16 47t4.5 46h15v-593z" />
    <glyph glyph-name="two" unicode="2" horiz-adv-x="506" 
d="M178 37q-26 4 -54.5 -3t-60.5 -34v47q37 30 72.5 61.5t69.5 66.5q28 29 53.5 59t48.5 62q26 39 46 79t31 88q6 23 7.5 49.5t-3.5 52.5q-12 70 -60 101q-38 26 -97 24q-27 -1 -50.5 -11.5t-41.5 -27.5t-28.5 -40t-10.5 -47q0 -23 9 -42t23 -32q20 -17 49 -20t58 17
q-5 -16 -19 -26.5t-32.5 -15t-38.5 -2t-38 12.5q-23 14 -37 40.5t-12 63.5q2 29 18 58t45 49q20 14 46 23t58 10q59 1 101.5 -16t67 -48.5t31.5 -76t-4 -99.5q-11 -51 -34 -95t-52 -83q-23 -29 -52.5 -61.5t-64.5 -64.5t-75.5 -62t-70.5 -53q29 14 54 19t52 3q20 -1 40.5 -6
t40.5 -10.5t40 -9t39 -2.5q20 2 36 11.5t25 25t10 35.5t-8 41q22 -25 26.5 -49t-3.5 -44q-11 -24 -37 -39.5t-61 -15.5q-21 0 -40.5 5t-38 11t-36.5 12t-37 9z" />
    <glyph glyph-name="three" unicode="3" horiz-adv-x="550" 
d="M285 421q51 0 93 -22q53 -26 82 -77t26 -117q-3 -45 -19.5 -82.5t-44.5 -64.5t-66 -42.5t-83 -15.5q-47 0 -85 15.5t-65.5 41.5t-43.5 59t-18 67q-2 39 14.5 74.5t45.5 57.5q26 20 58.5 24t61.5 -7q19 -8 33.5 -21.5t22.5 -35.5q-18 18 -38 27t-39.5 9.5t-38 -6.5
t-33.5 -19q-25 -20 -36.5 -47.5t-11.5 -56.5q-1 -38 16 -75t49 -61q23 -17 50.5 -26.5t58.5 -8.5q41 1 72 18.5t52 45.5t32.5 64t12.5 73q1 36 -9.5 71t-32.5 63t-57 46t-83 20l168 265q-16 -9 -45 -20t-63.5 -20t-71 -14t-68.5 -2q-37 3 -61 19.5t-23 59.5
q18 -16 56.5 -27.5t86.5 -14t101 7t101 34.5l3 -28z" />
    <glyph glyph-name="four" unicode="4" 
d="M392 157h27v-23h-27v-27q0 -48 10.5 -73t16.5 -34h-90q15 23 20.5 52t5.5 55v27h-289l-12 21q14 14 29 30t29 35q30 37 57 80.5t44 88.5q10 26 17.5 62.5t2.5 69.5q-3 29 -18 50t-47 28q-22 5 -45 -2t-42 -27q12 35 42 51t62 11q31 -5 55.5 -29.5t29.5 -69.5
q4 -35 -4.5 -71.5t-20.5 -65.5q-20 -48 -48 -91t-53 -72q-17 -21 -34.5 -40t-34.5 -36h280v405q0 38 -6 60q-5 19 -10.5 30t-9.5 17q25 0 36.5 7.5t26.5 23.5v-543z" />
    <glyph glyph-name="five" unicode="5" horiz-adv-x="564" 
d="M276 0q-47 0 -85 15.5t-65.5 41.5t-43.5 59t-18 67q-2 39 14.5 74.5t45.5 57.5q26 20 58.5 24t61.5 -7q19 -8 33.5 -21.5t22.5 -35.5q-18 18 -38 27t-39.5 9.5t-38 -6.5t-33.5 -19q-25 -20 -36.5 -47.5t-11.5 -56.5q-1 -38 16 -75t49 -61q23 -17 50.5 -26.5t58.5 -8.5
q42 2 74 20t55 47q26 34 39 78.5t8 89.5q-5 51 -27.5 93.5t-59.5 68.5q-29 20 -64 29.5t-72 7.5q-32 -2 -62.5 -12t-55.5 -29l49 268l4 28q48 -25 94.5 -34.5t87 -7t72 14t49.5 27.5q1 -21 -5 -35.5t-17.5 -23.5t-27 -13.5t-34.5 -6.5q-31 -3 -61 2t-57 14t-49.5 20
t-38.5 20l-42 -241q21 12 46.5 18.5t52.5 8.5q41 2 81.5 -6.5t71.5 -27.5q47 -28 74 -70t35 -96q8 -55 -9.5 -111t-61.5 -96q-28 -26 -66 -40.5t-84 -15.5z" />
    <glyph glyph-name="six" unicode="6" horiz-adv-x="575" 
d="M133 412q36 30 82 43q53 15 104.5 6.5t93.5 -36.5q40 -26 66.5 -67t33.5 -95q7 -51 -8.5 -102t-51.5 -90q-30 -32 -72.5 -51.5t-93.5 -19.5q-47 0 -90 18t-75 50q-21 21 -34.5 47.5t-18.5 58.5q-8 62 25 113q18 29 48 48t69 21t72.5 -21t46.5 -73q-23 38 -52 52.5
t-57.5 12t-54 -20t-40.5 -44.5q-20 -35 -19 -81.5t37 -94.5q25 -32 61.5 -53t79.5 -23q51 -2 88.5 20.5t60.5 59.5q21 35 29.5 76.5t3.5 83.5q-5 45 -24 85t-54 67t-81 35.5t-100 -6.5q-42 -12 -79 -37.5t-60 -60.5q3 37 11 70.5t20 63.5q20 51 56 96.5t83 77.5q39 27 83 43
t92 15v-8q-53 -6 -101 -34.5t-85.5 -69t-62.5 -87t-32 -88.5z" />
    <glyph glyph-name="seven" unicode="7" horiz-adv-x="478" 
d="M200 0q-14 119 -5.5 223.5t46.5 200.5q27 69 71.5 133t110.5 124q-13 -9 -46 -19.5t-75 -18.5t-87.5 -13t-83.5 -4q-54 2 -75 21t-21 53q9 -12 25.5 -19.5t39 -11t49.5 -5t56 -1.5q28 0 59 1t62.5 4.5t61.5 11t54 20.5v-26q-67 -54 -109 -123.5t-65 -149.5
q-28 -97 -28.5 -200.5t19.5 -200.5h-59z" />
    <glyph glyph-name="eight" unicode="8" horiz-adv-x="570" 
d="M122 262q-20 -35 -19 -82t37 -94q19 -25 44.5 -43.5t55.5 -26.5q21 -6 42 -6q45 -2 81 14t61 44q18 20 28.5 44t13.5 51t-3.5 55t-23.5 56q-23 40 -61 70.5t-80 54.5q-20 12 -39.5 23.5t-39.5 24.5q-23 15 -44.5 33t-37.5 39q-26 34 -23.5 69.5t26.5 62.5q15 17 35 27
t42 15q17 4 35 5.5t35 1.5q31 0 56 -6t44 -16q35 -19 51.5 -47.5t15.5 -58.5q-1 -25 -13 -49.5t-31 -44.5t-41.5 -33t-44.5 -16q39 -22 74 -51q24 -20 45 -43.5t35 -48.5q25 -43 27 -94q0 -36 -14.5 -71t-47.5 -64q-32 -29 -74 -43.5t-87 -13.5q-11 0 -22 1t-22 3
q-71 14 -120 63q-21 21 -34.5 48t-18.5 59q-8 62 25 113q18 29 48 48t69 20q39 2 75 -20t49 -72q-23 38 -53 52.5t-59.5 12t-55.5 -20.5t-41 -45zM374 661q-17 13 -39 20.5t-48 8.5q-16 1 -32.5 -1t-32.5 -7q-19 -6 -35.5 -16.5t-27.5 -27.5q-12 -19 -13 -41t13 -45
q14 -22 37.5 -40.5t44.5 -31.5q19 -12 35.5 -21.5t35.5 -22.5q50 21 76 59t28 80q2 52 -42 86z" />
    <glyph glyph-name="nine" unicode="9" horiz-adv-x="575" 
d="M442 287q-37 -30 -82 -42q-53 -16 -104.5 -7t-93.5 37q-40 26 -66.5 67t-33.5 95q-7 51 8.5 101.5t51.5 90.5q30 32 72.5 51.5t93.5 18.5q47 0 90 -17.5t75 -49.5q21 -21 34.5 -47.5t18.5 -58.5q8 -63 -25 -113q-18 -29 -48 -48t-69 -21t-72.5 20.5t-46.5 73.5
q23 -37 52 -52t57.5 -12.5t54 20t40.5 44.5q20 35 18.5 81.5t-36.5 94.5q-25 32 -61.5 53t-79.5 23q-51 2 -88.5 -21t-60.5 -59q-21 -35 -29.5 -76.5t-3.5 -83.5q5 -45 24 -85t54 -67t81 -35.5t100 6.5q42 11 78.5 37t60.5 61q-3 -37 -11 -70.5t-20 -64.5q-20 -51 -56 -96
t-83 -77q-39 -28 -83 -43.5t-92 -15.5v8q53 6 101 35t85.5 69.5t62.5 87t32 87.5z" />
    <glyph glyph-name="colon" unicode=":" horiz-adv-x="180" 
d="M140 44q0 -18 -14.5 -31t-35.5 -13t-35.5 13t-14.5 31q0 19 14.5 31t35.5 12t35.5 -12t14.5 -31zM140 463q0 -18 -14.5 -30.5t-35.5 -12.5t-35.5 12.5t-14.5 30.5q0 19 14.5 31.5t35.5 12.5t35.5 -12.5t14.5 -31.5z" />
    <glyph glyph-name="semicolon" unicode=";" horiz-adv-x="183" 
d="M91 0q-20 0 -35 13t-15 31q0 19 15 31t35 12q21 0 35.5 -12t14.5 -31q0 -14 -5.5 -37.5t-17 -48t-29.5 -45.5t-44 -29l-4 6q29 24 39 54t12 56h-1zM141 463q0 -18 -14.5 -30.5t-35.5 -12.5t-35.5 12.5t-14.5 30.5q0 19 14.5 31.5t35.5 12.5t35.5 -12.5t14.5 -31.5z" />
    <glyph glyph-name="less" unicode="&#x3c;" horiz-adv-x="563" 
d="M44 374l469 229v-48l-432 -205l432 -205v-48l-469 229v48z" />
    <glyph glyph-name="equal" unicode="=" horiz-adv-x="505" 
d="M27 434v37h451v-37h-451zM27 229v37h451v-37h-451z" />
    <glyph glyph-name="greater" unicode="&#x3e;" horiz-adv-x="563" 
d="M518 326l-469 -229v48l433 205l-433 205v48l469 -229v-48z" />
    <glyph glyph-name="question" unicode="?" horiz-adv-x="478" 
d="M227 201q-10 40 -0.5 68t31.5 51q21 23 42.5 45t38.5 45q11 16 20.5 32.5t15.5 34.5q11 36 8 78q-3 33 -19 62t-47 49q-39 25 -97 24q-27 -1 -51 -11.5t-41 -27.5q-19 -17 -29 -40t-10 -47q0 -23 9 -42t23 -31q20 -18 49 -21t58 17q-5 -16 -19 -26.5t-32.5 -15t-38.5 -2
t-38 12.5q-23 14 -37 40.5t-12 63.5q2 30 18 58.5t45 49.5q20 14 46 22.5t58 9.5q56 2 103 -18q39 -17 66 -48.5t33 -80.5q4 -26 1.5 -49t-10.5 -44q-12 -32 -33 -59.5t-49 -50.5q-14 -12 -28 -23.5t-25 -24.5q-17 -19 -25 -42.5t-6 -58.5h-18zM286 44q0 -18 -14.5 -31
t-35.5 -13q-20 0 -35 13t-15 31q0 19 15 31t35 12q21 0 35.5 -12t14.5 -31z" />
    <glyph glyph-name="at" unicode="@" horiz-adv-x="970" 
d="M836 533q26 -41 40 -90.5t16 -101.5q1 -51 -10.5 -102.5t-37.5 -96.5q-11 -20 -32 -44.5t-47 -41.5q-29 -19 -53 -20.5t-40.5 10.5t-25 35.5t-7.5 54.5q-25 -51 -66 -81t-92 -30q-38 0 -71.5 18t-58 49t-39 72.5t-14.5 88.5t14.5 89t39 73t58 49t71.5 18q37 0 69 -16.5
t57 -45.5q14 -17 25 -13q8 2 13.5 11t10.5 20q5 12 9.5 24t6.5 20v-345q0 -26 8 -47.5t25 -27.5q22 -7 49 13q12 9 23 19.5t20 21.5t16 21t11 17q25 43 36.5 92t9.5 94q-2 54 -16.5 101t-39.5 85q-44 69 -117.5 107.5t-170.5 40.5q-112 1 -201 -45t-145 -127
q-68 -100 -71 -239q-1 -72 20 -141.5t62 -127t102 -98.5t140 -56q63 -12 129 -4t126 34.5t111.5 70.5t86.5 103h17q-38 -71 -95 -123t-132 -82q-43 -17 -85 -24.5t-89 -7.5q-52 0 -102.5 12.5t-94.5 35t-81.5 53.5t-64.5 69q-46 65 -68.5 136t-23.5 142.5t19.5 139.5
t61.5 125q43 60 107 104.5t149 64.5q59 14 121 10.5t120 -23t107.5 -55.5t83.5 -88zM629 293q-11 41 -32 74t-48.5 55t-58.5 30t-62 0t-53.5 -31t-35.5 -55t-15 -71.5t9 -80.5t32.5 -74.5t49 -55t58.5 -30t62 -0.5q30 8 53 31t35.5 55.5t14.5 72t-9 80.5z" />
    <glyph glyph-name="A" unicode="A" horiz-adv-x="516" 
d="M268 700l174 -603q5 -15 10.5 -30.5t12.5 -29t17 -23.5t24 -14h-118q15 6 21.5 16t7 23t-3.5 29t-9 34l-13 45h-197q-35 0 -57.5 -7t-34.5 -42q-2 -7 -4 -13.5t-4 -13.5q-7 -24 -6 -42t17 -29h-88q24 14 40 41.5t24 53.5zM261 606q-46 -158 -83.5 -272t-64.5 -200
q13 24 33 31t45 7h193z" />
    <glyph glyph-name="B" unicode="B" horiz-adv-x="517" 
d="M424 552q3 -42 -11.5 -75.5t-43.5 -57.5q-14 -11 -33.5 -22t-36.5 -16q20 -2 37.5 -8.5t34.5 -15.5q42 -23 66.5 -64t24.5 -94q1 -51 -24 -98.5t-75 -74.5q-46 -26 -101 -26h-200q16 23 21.5 52t5.5 55v486q0 26 -5.5 55t-21.5 52h172q20 0 42.5 -2.5t41.5 -9.5
q23 -8 40 -19q29 -20 46.5 -49.5t19.5 -67.5zM348 446q33 38 32 99q-2 37 -14 62q-9 20 -21.5 33.5t-27.5 21.5q-28 16 -62.5 20t-69.5 4h-59v-369q16 34 44.5 48.5t60.5 22.5q15 5 30 8.5t29 9.5q36 15 58 40zM356 336q-42 33 -96 34q-21 1 -42 -3t-38 -13q-22 -11 -38 -30
q-10 -11 -16 -28v-282h76q42 0 78.5 7.5t65.5 24.5q39 23 57 65t16 88q-2 41 -18 77.5t-45 59.5z" />
    <glyph glyph-name="C" unicode="C" horiz-adv-x="635" 
d="M585 514q-2 -13 -10 -24t-24 -19q-16 48 -46 94q-16 24 -37 44.5t-46 35.5t-54 22.5t-61 5.5q-36 -2 -72 -18.5t-68 -46.5q-31 -29 -50.5 -67.5t-28 -82t-7 -88t12.5 -85.5q15 -55 43 -101t64.5 -79t79 -51t86.5 -18q38 0 70.5 12.5t59 34.5t46 52t31.5 65v-41
q-38 -72 -100.5 -115.5t-137.5 -43.5q-58 0 -110 27.5t-90 75t-60.5 111.5t-22.5 136t22.5 136t60.5 111.5t90 75t110 27.5q68 -2 128.5 -30t99.5 -85q12 -17 18 -35.5t3 -35.5z" />
    <glyph glyph-name="D" unicode="D" horiz-adv-x="559" 
d="M128 14h51q64 0 111.5 19t80.5 52q46 47 66.5 115.5t20.5 149.5t-20.5 149.5t-66.5 114.5q-33 34 -80.5 53t-111.5 19h-51v-672zM392 636q56 -49 83.5 -125.5t27.5 -160.5q0 -85 -27 -161t-84 -126q-34 -29 -78 -46t-100 -17h-150q15 23 21 52t6 55v486q0 26 -6 55
t-21 52h150q56 0 100 -17t78 -47z" />
    <glyph glyph-name="E" unicode="E" horiz-adv-x="483" 
d="M128 425v-411h93q20 0 45.5 1t50.5 6.5t46.5 16.5t31.5 30q18 30 3 82q30 -17 38 -43.5t0 -52.5q-8 -23 -27.5 -38.5t-48.5 -15.5h-296q16 23 21.5 52t5.5 55v486q0 26 -5.5 55t-21.5 52h332l17 -114q-7 29 -18 48.5t-25 31t-31 16t-37 4.5h-174v-225q10 15 26 15
q10 0 21 -5t23 -11q14 -8 26.5 -14.5t26.5 -9.5q11 -4 26 -4q14 0 26 4q17 4 28.5 14.5t16.5 29.5q7 -8 10 -17.5t2 -18.5q-2 -17 -12 -30.5t-30 -18.5t-37 -1.5t-33 11.5q-14 7 -26.5 16t-26.5 18q-13 9 -24 15t-19 8q-11 2 -17.5 -6t-6.5 -31z" />
    <glyph glyph-name="F" unicode="F" horiz-adv-x="443" 
d="M128 107q0 -26 5.5 -55t20.5 -52h-90q16 23 21.5 52t5.5 55v486q0 26 -5.5 55t-21.5 52h332l17 -114q-7 29 -18 48.5t-25 31t-31 16t-37 4.5h-174v-225q5 8 11.5 11.5t14.5 3.5q10 0 21 -5t23 -11q14 -8 27 -14.5t27 -10.5q12 -3 24.5 -3.5t27.5 3.5q16 5 27.5 15.5
t16.5 29.5q14 -15 12 -37q-2 -16 -12 -29.5t-30 -18.5t-37 -1.5t-33 11.5q-14 7 -26.5 16t-26.5 18q-13 9 -24.5 15t-19.5 8q-10 2 -16.5 -6t-6.5 -31v-318z" />
    <glyph glyph-name="G" unicode="G" horiz-adv-x="654" 
d="M585 514q-2 -13 -10 -24t-24 -19q-16 48 -46 94q-16 24 -37 44.5t-46 35.5t-54 22.5t-61 5.5q-36 -2 -72 -18.5t-68 -46.5q-31 -29 -50.5 -67.5t-28 -82t-7 -88t12.5 -85.5q15 -55 43 -101t64.5 -79t79 -51t86.5 -18q49 0 91.5 22t72.5 61v93q0 27 -6 56t-21 52h90
q-6 -10 -16.5 -35t-10.5 -73v-105q0 -48 10.5 -73t16.5 -34h-90q14 20 19.5 45.5t7.5 49.5q-38 -45 -88 -70t-107 -25q-58 0 -110 27.5t-90 75t-60.5 111.5t-22.5 136t22.5 136t60.5 111.5t90 75t110 27.5q69 -2 128.5 -29.5t99.5 -85.5q12 -17 18 -35.5t3 -35.5z" />
    <glyph glyph-name="H" unicode="H" horiz-adv-x="552" 
d="M64 0q16 23 21.5 52t5.5 55v486q0 26 -5.5 55t-21.5 52h90q-6 -9 -16.5 -34t-10.5 -73v-132q14 15 36 15q14 0 29 -5t31 -11q19 -8 36.5 -14.5t36.5 -9.5q15 -4 35 -4q25 0 53 9t41 33v119q0 26 -6 55t-21 52h90q-6 -9 -16.5 -34t-10.5 -73v-486q0 -48 10.5 -73t16.5 -34
h-90q15 23 21 52t6 55v305q-16 -13 -39 -17q-28 -5 -51 -1.5t-44 11.5q-19 7 -36.5 16t-36.5 18q-17 9 -32 15t-26 8q-14 2 -23.5 -6t-9.5 -31v-318q0 -48 10.5 -73t16.5 -34h-90z" />
    <glyph glyph-name="I" unicode="I" horiz-adv-x="219" 
d="M64 0q16 23 21.5 52t5.5 55v486q0 26 -5.5 55t-21.5 52h90q-6 -9 -16 -34t-10 -73v-486q0 -48 10 -73t16 -34h-90z" />
    <glyph glyph-name="J" unicode="J" horiz-adv-x="372" 
d="M138 213q22 -5 39 -20t24 -41q-13 17 -30 26t-35 9q-26 1 -42.5 -11t-24.5 -31q-8 -20 -6.5 -44.5t14.5 -45.5q11 -19 30 -31t44 -12q34 0 53 15t29 37q11 25 13.5 55.5t2.5 59.5v414q0 48 -10.5 72.5t-16.5 34.5h90q-6 -10 -16 -34.5t-10 -72.5v-414q0 -37 -6.5 -70.5
t-23.5 -57.5q-15 -22 -40.5 -36.5t-64.5 -14.5q-26 0 -49 10.5t-40 27.5q-23 24 -31.5 57.5t8.5 68.5q15 32 43 43.5t56 5.5z" />
    <glyph glyph-name="K" unicode="K" horiz-adv-x="507" 
d="M91 593q0 26 -5.5 55t-21.5 52h90q-15 -23 -20.5 -52t-5.5 -55v-268q8 18 21.5 29t27.5 18q20 8 43 12t46 11q45 12 65.5 38.5t25.5 59.5q6 32 3.5 67t-3 65t6.5 51.5t31 26.5q14 3 29 -1t28 -12q-21 2 -36 -6t-20 -25q-4 -18 -1.5 -49t3 -65t-5.5 -67t-29 -55
q-12 -11 -32 -25.5t-47 -20.5q22 -5 38.5 -12.5t29.5 -19.5q23 -24 33.5 -58.5t16 -72t9.5 -75.5t14 -70q7 -22 18.5 -39.5t31.5 -28.5h-9t-5.5 -0.5t-6 -0.5h-10.5q-19 0 -32 13t-21 31.5t-11.5 39t-5.5 35.5q-3 24 -5.5 51t-6.5 53t-11 49.5t-21 42.5q-14 20 -36 33
t-58 15q-16 1 -33 -2.5t-32 -11.5t-26.5 -21t-16.5 -31v-190q0 -26 5.5 -55t20.5 -52h-90q16 23 21.5 52t5.5 55v486z" />
    <glyph glyph-name="L" unicode="L" horiz-adv-x="465" 
d="M64 0q16 23 21.5 52t5.5 55v486q0 26 -5.5 55t-21.5 52h90q-15 -23 -20.5 -52t-5.5 -55v-579h94q20 0 45.5 1.5t50 6.5t46 16t32.5 30q17 30 2 82q30 -17 38 -43.5t0 -52.5q-8 -23 -27.5 -38.5t-48.5 -15.5h-296z" />
    <glyph glyph-name="M" unicode="M" horiz-adv-x="632" 
d="M64 0q16 23 21.5 52t5.5 55v486q0 26 -5.5 55t-21.5 52h62l198 -553l185 553h59q-6 -10 -16.5 -34.5t-10.5 -72.5v-486q0 -48 10.5 -73t16.5 -34h-90q6 9 16.5 34t10.5 73v511l-160 -470q-14 -40 -35 -58t-47 -13q16 4 21.5 13t5 21t-5 25t-8.5 25l-164 457v-511
q0 -48 10 -73t17 -34h-75z" />
    <glyph glyph-name="N" unicode="N" horiz-adv-x="583" 
d="M64 0q15 23 21 52t6 55v486q0 26 -6 55t-21 52h54l354 -608v501q0 26 -5.5 55t-20.5 52h74q-6 -10 -16 -34.5t-10 -72.5v-504q0 -13 -2 -28.5t-7.5 -29t-15.5 -22.5t-27 -9q-8 0 -14 2q25 4 25.5 26.5t-15.5 45.5l-326 558v-525q0 -48 10 -73t17 -34h-75z" />
    <glyph glyph-name="O" unicode="O" horiz-adv-x="673" 
d="M620 350q0 -72 -22.5 -136t-61 -111.5t-90 -75t-110.5 -27.5q-58 0 -110 27.5t-90 75t-60.5 111.5t-22.5 136t22.5 136t60.5 111.5t90 75t110 27.5q59 0 110.5 -27.5t90 -75t61 -111.5t22.5 -136zM585 417q-15 54 -42.5 99t-64 77t-79.5 49.5t-88 17.5q-29 0 -56 -7
q-51 -14 -90 -50t-61.5 -86t-27.5 -110.5t12 -123.5q15 -54 42.5 -99t64 -77t79.5 -49.5t88 -17.5q29 0 56 7q51 14 90 50t61.5 86t27.5 110.5t-12 123.5z" />
    <glyph glyph-name="P" unicode="P" horiz-adv-x="461" 
d="M64 0q15 23 21 52t6 55v486q0 26 -6 55t-21 52h172q20 0 42.5 -2.5t41.5 -9.5q11 -4 21 -8.5t18 -10.5q29 -20 47 -49.5t20 -67.5q3 -42 -12 -75.5t-43 -57.5q-33 -28 -76 -40q-13 -4 -28.5 -6.5t-28.5 -5.5q-15 -3 -29.5 -7t-28.5 -10q-22 -10 -36 -26q-12 -13 -17 -28
v-189q0 -26 6 -55t21 -52h-90zM127 317q8 19 20 30.5t28 19.5q14 7 29.5 11.5t30.5 9.5q14 4 29 8.5t28 9.5q34 14 58 40q33 38 32 99q-2 53 -31 90q-16 19 -34 29q-29 17 -62 19.5t-68 2.5h-60v-369z" />
    <glyph glyph-name="Q" unicode="Q" horiz-adv-x="673" 
d="M242 20q-41 18 -76 50.5t-60 75.5t-39 95t-14 109q0 72 22.5 136t60.5 111.5t90 75t110 27.5q59 0 110.5 -27.5t90 -75t61 -111.5t22.5 -136q0 -64 -17.5 -121.5t-48.5 -103t-73 -76.5t-91 -43q20 -7 40.5 -19.5t40.5 -28.5q25 -20 54.5 -45.5t61.5 -44.5
q19 -11 39 -18.5t40 -7.5q22 -1 39.5 8t28.5 24t15 35.5t-1 42.5q16 -28 16.5 -54t-11.5 -46.5t-34.5 -32.5t-52.5 -12q-21 0 -42.5 8.5t-41.5 22.5q-35 22 -66 51t-57 50q-30 24 -62.5 41.5t-69.5 19.5q-35 2 -57 -7.5t-32 -24.5q-9 -14 -8.5 -32.5t9 -35.5t23.5 -29.5
t35 -15.5q-21 -5 -42.5 2.5t-37.5 23.5t-22.5 38.5t2.5 49.5q9 34 45 51zM88 283q17 -63 51 -112.5t79 -82t96.5 -44t103.5 2.5q51 14 90 49.5t61.5 86t27.5 111t-12 123.5t-51 112.5t-79 82t-96.5 44t-103.5 -2.5q-51 -14 -90 -50t-61.5 -86t-27.5 -110.5t12 -123.5z" />
    <glyph glyph-name="R" unicode="R" horiz-adv-x="511" 
d="M64 0q15 23 21 52t6 55v486q0 26 -6 55t-21 52h172q20 0 42.5 -2.5t41.5 -9.5q11 -4 21 -8.5t18 -10.5q29 -20 47 -49.5t20 -67.5q3 -42 -12 -75.5t-43 -57.5q-9 -8 -20 -15t-22 -12q-19 -10 -38 -14q14 0 25.5 -4t21.5 -10q18 -11 30 -30t19 -42q7 -20 9.5 -41.5
t4.5 -43.5q2 -25 2.5 -50t5.5 -50q5 -34 19 -63t46 -44h-23t-21 2q-25 4 -41 26q-13 17 -18 39t-7 46q-2 21 -0.5 45t2.5 49q1 20 0 40t-5 38q-9 39 -32 62q-16 16 -33.5 21t-36.5 3q-8 -1 -17.5 -3t-19.5 -4q-23 -6 -42 -14q-22 -10 -36 -26q-12 -13 -17 -28v-189
q0 -26 6 -55t21 -52h-90zM127 317q8 19 20 30.5t28 19.5q14 7 29.5 11.5t30.5 9.5q14 4 29 8.5t28 9.5q34 14 58 40q33 38 32 99q-2 53 -31 90q-16 19 -34 29q-29 17 -62 19.5t-68 2.5h-60v-369z" />
    <glyph glyph-name="S" unicode="S" horiz-adv-x="513" 
d="M250 225q-29 35 -72 38q-23 2 -41.5 -6.5t-31.5 -23.5q-25 -28 -23 -70q2 -27 12.5 -52.5t28.5 -44.5q24 -26 59 -39t70 -13q37 0 69 9.5t56 30.5q24 20 37.5 52.5t11.5 70.5q-2 42 -20.5 74.5t-45.5 59.5q-25 25 -54 45.5t-59 40.5q-33 23 -64.5 46t-55.5 54
q-20 25 -30.5 53.5t-2.5 60.5q5 23 21.5 42t45.5 32q20 8 41.5 10.5t43.5 4.5q17 1 34 -1.5t31 -6.5q16 -3 28.5 -6t29.5 -2q30 0 47 14v-131q-6 24 -15.5 45t-27.5 37t-47 26t-74 12q-20 1 -39 -1.5t-36 -10.5q-24 -11 -35.5 -28.5t-13.5 -37.5q-4 -35 18 -70
q19 -29 49 -54.5t63 -49.5q32 -23 64 -45t57 -45q35 -33 59.5 -73t25.5 -94q0 -46 -22 -83t-56 -60q-29 -19 -63 -27t-71 -8q-36 0 -73 12t-66 35q-29 22 -47 51.5t-20 66.5q-2 29 8.5 54t30.5 42q18 18 43 26t53 3q24 -5 43 -20.5t26 -44.5z" />
    <glyph glyph-name="T" unicode="T" horiz-adv-x="473" 
d="M218 686h-87q-27 0 -44 -6t-28 -20.5t-18.5 -37t-15.5 -55.5v133h423v-133q-8 33 -15.5 55.5t-18.5 37t-28 20.5t-44 6h-87v-579q0 -26 5.5 -55t21.5 -52h-91q16 23 21.5 52t5.5 55v579z" />
    <glyph glyph-name="U" unicode="U" horiz-adv-x="538" 
d="M122 200q0 -86 40 -132.5t118 -46.5q152 0 152 179v393q0 26 -5.5 55t-21.5 52h75q-6 -9 -16.5 -34t-10.5 -73v-398q0 -42 -9.5 -77.5t-30 -62t-53.5 -41t-80 -14.5q-95 0 -145 49.5t-50 138.5v405q0 26 -5.5 55t-21.5 52h90q-6 -9 -16 -34t-10 -73v-393z" />
    <glyph glyph-name="V" unicode="V" horiz-adv-x="521" 
d="M78 607q-12 43 -32 66t-39 26h140q-21 -4 -31 -29.5t-2 -57.5l159 -564l132 346q5 12 10.5 29.5t11.5 38.5t10.5 43.5t5.5 44.5q2 32 -5 62t-24 49q-21 21 -53 21q-30 0 -56 -14.5t-43 -39.5q16 45 46.5 67t66.5 21q35 0 63.5 -20.5t37.5 -62.5q8 -32 3.5 -69t-14.5 -70
q-12 -40 -29 -82.5t-29 -73.5l-133 -338h-26z" />
    <glyph glyph-name="W" unicode="W" horiz-adv-x="763" 
d="M274 0h-26l-170 607q-12 43 -32.5 66t-38.5 26h140q-21 -4 -31 -29.5t-2 -57.5l159 -564l118 309l-71 250q-12 43 -32 66t-39 26h141q-21 -4 -31.5 -29.5t-2.5 -57.5l159 -564l132 346q5 12 11 29.5t11.5 38.5t10 43.5t5.5 44.5q2 32 -4.5 62t-24.5 49q-13 14 -32.5 19
t-46.5 -1q-22 -5 -40.5 -18.5t-31.5 -32.5q15 45 45.5 67t67.5 21q34 0 62.5 -20.5t38.5 -62.5q7 -32 2.5 -69t-14.5 -70q-12 -40 -28.5 -82.5t-28.5 -73.5l-133 -338h-26l-90 321z" />
    <glyph glyph-name="X" unicode="X" horiz-adv-x="519" 
d="M366 0q12 8 15.5 19t2 22t-6 22.5t-9.5 20.5l-53 109l-75 155l-113 -124q-6 -7 -11.5 -14.5t-10.5 -16.5q-13 -24 -19 -53.5t-1 -56.5q9 -48 49 -67q12 -5 26.5 -6t29.5 4q17 5 31 16.5t25 28.5q-5 -20 -15 -34.5t-24 -24.5q-27 -17 -58 -16q-41 2 -65.5 28t-31.5 61
q-6 35 4 67q5 14 12 27t16 26q14 23 34.5 46t38.5 40l76 83l-125 253q-16 33 -37.5 54.5t-41.5 29.5l62 1v-1l62 1q-12 -8 -15.5 -19t-2.5 -22t6 -22.5t9 -20.5l53 -109l76 -155l113 124q13 14 21 31q13 24 19 53.5t1 56.5q-9 49 -49 66q-26 13 -56 3q-17 -5 -31 -16.5
t-25 -28.5q5 20 15 34.5t24 24.5q27 18 59 16q40 -2 64.5 -28t31.5 -61q6 -35 -4 -67q-5 -14 -12 -27t-16 -26q-14 -23 -34.5 -46t-37.5 -40l-76 -83l124 -253q16 -33 37.5 -54.5t41.5 -29.5l-62 -1v1z" />
    <glyph glyph-name="Y" unicode="Y" horiz-adv-x="468" 
d="M260 107q0 -47 10 -72t17 -35h-91q16 23 21.5 52t5.5 55v151l-147 349q-17 42 -33 63.5t-36 29.5h100q-17 -11 -16 -33t14 -51l146 -337q10 17 22.5 39t26 46l27 48t23.5 43q9 17 21.5 39.5t21.5 47.5q5 13 9.5 29.5t4.5 33.5q0 22 -5.5 37.5t-13.5 26.5q-15 18 -35 21.5
t-40 -4.5q-17 -8 -32 -22t-24 -28q4 12 11 26.5t18 26.5t27.5 20t38.5 8q24 0 41.5 -9.5t28.5 -25.5t15 -36.5t0 -42.5q-5 -26 -14.5 -47.5t-20.5 -41.5l-142 -256v-151z" />
    <glyph glyph-name="Z" unicode="Z" horiz-adv-x="501" 
d="M186 684q-31 0 -50.5 -6t-31.5 -20t-18.5 -36t-12.5 -55l-6 133h371l-356 -684h169q44 0 76 11.5t52 29.5t29.5 40.5t8.5 44.5q0 21 -8.5 39t-24 31t-37.5 17.5t-50 -1.5q35 19 70.5 17.5t60.5 -21.5q25 -21 30.5 -52.5t-2.5 -60.5q-9 -33 -31.5 -58t-51.5 -37
q-23 -9 -47.5 -12.5t-50.5 -3.5h-68h-59.5t-56.5 0.5t-59 0.5l352 683h-198z" />
    <glyph glyph-name="bracketleft" unicode="[" horiz-adv-x="291" 
d="M235 -174v-19h-150v893h150v-19l-105 -39v-776z" />
    <glyph glyph-name="backslash" unicode="\" horiz-adv-x="378" 
d="M333 -2h-36l-254 702h37z" />
    <glyph glyph-name="bracketright" unicode="]" horiz-adv-x="291" 
d="M161 -134v776l-106 39v19h150v-893h-150v19z" />
    <glyph glyph-name="asciicircum" unicode="^" horiz-adv-x="521" 
d="M284 700l198 -406h-47l-175 369l-175 -369h-47l198 406h48z" />
    <glyph glyph-name="underscore" unicode="_" horiz-adv-x="676" 
d="M85 -37v37h506v-37h-506z" />
    <glyph glyph-name="grave" unicode="`" horiz-adv-x="190" 
d="M146 548l-118 152h54l76 -152h-12z" />
    <glyph glyph-name="a" unicode="a" horiz-adv-x="483" 
d="M400 327v-166q0 -24 0.5 -47t4 -43t12.5 -38t27 -32q-17 6 -29.5 11.5t-23.5 5.5q-8 0 -15 -3.5t-13 -13.5v121q-5 -22 -19 -44t-35.5 -39t-51.5 -27.5t-68 -10.5q-31 0 -57 10t-44.5 27t-29.5 39.5t-13 46.5q-2 35 11.5 66t37.5 54q25 23 56 35q18 6 41.5 11t48 11
t47.5 15t41 22q16 12 25.5 29.5t9.5 42.5q0 23 -9 40t-24.5 28t-36 16.5t-43.5 5.5q-18 0 -36.5 -4t-35 -12.5t-29.5 -22t-18 -31.5q-5 -19 0.5 -38.5t25.5 -30.5q11 -6 24 -6q11 0 21 5t18 16q2 -10 -2.5 -19.5t-12.5 -16t-18.5 -10.5t-21.5 -3q-25 2 -45 19.5t-22 48.5
q-1 23 9.5 45.5t33.5 38.5q23 17 52 23t58 6q57 0 95.5 -24.5t49.5 -82.5q3 -18 3.5 -36t0.5 -38zM311 59q24 20 38 48.5t14 65.5v190q-10 -21 -28 -34q-23 -19 -50.5 -29.5t-55.5 -19.5q-22 -8 -44 -17.5t-41 -23t-33 -31.5t-20 -43q-6 -26 0.5 -50.5t22.5 -44.5
q17 -22 43 -32t54 -11q60 -2 100 32z" />
    <glyph glyph-name="b" unicode="b" horiz-adv-x="544" 
d="M492 255q0 -52 -16 -98.5t-44 -81t-65 -54.5t-79 -20q-41 0 -76.5 18.5t-62.5 50.5q-9 10 -16 13t-13 1q-8 -2 -14.5 -12t-11.5 -23q-6 -13 -10.5 -26.5t-6.5 -21.5v563q0 17 -2 32.5t-5 26.5q-4 19 -10 30t-10 17q17 2 36 11t28 20v-316q26 56 72 89.5t102 33.5
q42 0 79 -20t65 -54t44 -80t16 -99zM124 210q12 -46 36 -82.5t54 -60.5t64.5 -33t68.5 0t59.5 34t39.5 61t16 79.5t-10 89.5t-35.5 83t-54 61t-65 33.5t-68.5 0.5t-59.5 -34.5t-39.5 -61.5t-16 -80t10 -90z" />
    <glyph glyph-name="c" unicode="c" horiz-adv-x="475" 
d="M427 92q-57 -91 -172 -91q-42 0 -79.5 20t-65 54t-43.5 80.5t-16 98.5q0 46 14 91.5t41 81.5t66.5 58.5t89.5 22.5q28 -1 56 -8t51.5 -22t38.5 -38t16 -55q0 -18 -5.5 -34t-16 -28.5t-25.5 -20t-33 -8.5q-25 -1 -46.5 14.5t-27.5 44.5q11 -11 22 -19t26 -9q28 -2 43 11.5
t19 33.5q4 23 -7.5 48.5t-34.5 40.5q-32 23 -77 26q-27 2 -54 -5t-50 -22q-24 -16 -41.5 -42t-26.5 -59t-8.5 -70.5t10.5 -76.5q9 -33 26.5 -65.5t42.5 -58t57 -41.5t69 -16q44 0 80 21.5t50 49.5z" />
    <glyph glyph-name="d" unicode="d" horiz-adv-x="554" 
d="M430 124q-27 -56 -72.5 -89.5t-102.5 -33.5q-42 0 -79 20t-64.5 54t-43.5 80.5t-16 98.5q0 53 16 99t43.5 80.5t64.5 54.5t79 20q57 0 102.5 -34t72.5 -89v178q0 18 -2 33t-4 27q-5 19 -11 30t-10 17q17 1 36.5 10.5t27.5 20.5v-551q0 -22 0.5 -43.5t4.5 -40.5t13 -35.5
t25 -30.5v0q-14 4 -25 8.5t-21 6.5t-18 -1t-16 -14v124zM91 210q12 -46 36 -82.5t54.5 -60.5t65 -33.5t68.5 -0.5q27 7 48 24.5t36 42t23 55.5t8 65q0 39 -10 78q-12 46 -36 82.5t-54.5 60.5t-65 33.5t-68.5 0.5t-59 -34.5t-39 -61.5t-16.5 -79.5t9.5 -89.5z" />
    <glyph glyph-name="e" unicode="e" horiz-adv-x="474" 
d="M427 92q-57 -91 -172 -91q-42 0 -79.5 20t-65 54t-43.5 80.5t-16 98.5q0 46 14 91.5t41 81.5t66.5 58.5t89.5 22.5q24 -1 49 -7t47 -18q29 -17 47.5 -46t19.5 -58q0 -26 -13.5 -41.5t-34 -23.5t-43.5 -10.5t-43 -3.5q-14 -1 -27 -0.5t-23 0.5h-161q-1 -22 1.5 -44.5
t9.5 -45.5q9 -33 26.5 -65.5t42.5 -58t57 -41.5t69 -16q44 0 80 21.5t50 49.5zM206 316h39.5t45.5 3q16 2 30.5 6t26.5 12q29 19 27 48q-1 21 -11.5 38.5t-27 30t-36.5 20.5t-39 10q-56 5 -104 -26q-32 -21 -51 -58.5t-24 -83.5h124z" />
    <glyph glyph-name="f" unicode="f" horiz-adv-x="231" 
d="M246 677q18 -19 18 -47.5t-19 -44.5q3 27 -13 50t-39 33q-23 9 -46 2t-35 -33q-8 -17 -9.5 -37t0.5 -37q2 -16 6.5 -32.5t13.5 -29t22 -20.5t30 -8h24v-20h-78v-345q0 -48 10 -73t16 -34h-90q15 23 21 52t6 55v345h-27v20h27v28q0 19 -1 46.5t4 53.5q6 45 29 68
q14 14 30 23t42 9q34 0 58 -24z" />
    <glyph glyph-name="g" unicode="g" horiz-adv-x="497" 
d="M428 -24q7 -35 -11 -71.5t-63 -64.5q-26 -17 -58 -24.5t-63 -8.5q-23 0 -46.5 5t-44.5 16t-37 27.5t-24 40.5q-6 19 -3.5 38.5t13.5 35.5q11 15 28 22.5t35 8.5q24 0 43 -13q-13 3 -25 3q-27 0 -41 -16q-12 -12 -14.5 -31t5.5 -39q13 -37 44 -56t69 -24q31 -4 61.5 2.5
t53.5 20.5q41 23 52.5 54t0.5 60q-9 27 -28.5 47t-44 32.5t-52 18.5t-54.5 6q-42 0 -82 -12t-74 -36l-14 18l82 110q-35 27 -55.5 69t-20.5 93q0 41 14 77.5t39 63.5t58 43t71 16q28 0 53.5 -9t47.5 -25q6 9 13.5 21t11.5 17q13 20 24 31q17 17 35 14q16 -2 24.5 -17.5
t2.5 -31.5q-5 11 -14 17.5t-20 6.5t-22 -6.5t-19 -17.5l-28 -40q34 -27 53.5 -68.5t19.5 -91.5q0 -41 -14 -77.5t-39 -63.5t-58 -42.5t-71 -15.5q-54 0 -97 31l-74 -101q35 24 83 39t96 15q29 0 58 -6.5t53.5 -21t42.5 -36.5t24 -53zM291 126q29 8 51 29t34.5 51t14.5 66
t-8 74q-9 33 -25.5 60.5t-37.5 47t-46 30.5t-51 11q-17 0 -30 -4q-29 -8 -51 -29t-34.5 -51t-14.5 -66t8 -74q9 -33 25.5 -60.5t37.5 -47t46 -30.5t51 -11q17 0 30 4z" />
    <glyph glyph-name="h" unicode="h" 
d="M415 337v-230q0 -48 10.5 -73t16.5 -34h-90q15 22 21 51.5t6 55.5q0 62 -0.5 116t-0.5 116q0 32 -9 61t-28 50q-32 36 -81 38q-32 2 -58 -9.5t-44.5 -32.5t-28.5 -49t-10 -58v-232q0 -48 10 -73t16 -34h-90q16 22 21.5 51.5t5.5 55.5v456q0 18 -2 33t-4 27q-5 19 -11 30
t-10 17q17 1 36 10.5t28 20.5v-294q9 24 23.5 42.5t33.5 31t40 19t43 7.5q28 2 54.5 -6.5t48.5 -28.5q26 -23 39.5 -58t13.5 -77z" />
    <glyph glyph-name="i" unicode="i" horiz-adv-x="201" 
d="M120 107q0 -48 10 -73t16 -34h-90q15 22 21 51.5t6 55.5v262q0 18 -2 33t-5 26q-4 19 -10 30.5t-10 17.5q17 1 36 10.5t28 20.5v-337v-63zM133 669q0 -14 -9 -23t-23 -9t-23 9t-9 23q0 13 9 22.5t23 9.5t23 -9.5t9 -22.5z" />
    <glyph glyph-name="j" unicode="j" horiz-adv-x="194" 
d="M-14 -49q15 1 29 -6t22 -22q-26 12 -48 3q-13 -5 -21 -17t-8 -29q-2 -28 18 -46q16 -18 44 -18q21 0 35 12t22 30q10 21 12 43q2 18 0 36t-10 33v400q0 18 -2 33t-4 27q-5 18 -11 29.5t-10 17.5q17 1 36.5 10.5t27.5 19.5v-94v-453q0 -16 -1 -31.5t-4 -31.5
q-2 -12 -6 -23.5t-10 -21.5q-13 -20 -33 -32.5t-47 -12.5q-26 0 -48 12q-16 8 -27.5 22.5t-13.5 34.5q-4 28 11.5 51.5t46.5 23.5zM131 669q0 -14 -9 -23t-23 -9q-13 0 -22 9t-9 23q0 13 9 22.5t22 9.5q14 0 23 -9.5t9 -22.5z" />
    <glyph glyph-name="k" unicode="k" horiz-adv-x="409" 
d="M120 107q0 -48 10 -73t16 -34h-90q15 22 21 51.5t6 55.5v456q0 18 -2 33t-5 27q-4 19 -10 30t-10 17q17 1 36 10.5t28 20.5v-434l78 54l24 17q18 13 29 27q12 15 19 33.5t6 36.5q-2 27 -21 41.5t-45 4.5q-22 -7 -35 -29q3 20 19.5 37.5t43.5 17.5q25 0 41 -10t23 -26.5
t7 -33.5q0 -21 -9 -38t-22.5 -31.5t-30 -26t-31.5 -22.5q-3 -2 -3 -1.5t-10 -6.5l100 -203q12 -24 22 -41t20.5 -29t21.5 -20.5t25 -16.5h-123q11 11 14 23.5t1.5 26.5t-7 28.5t-12.5 28.5l-89 185l-56 -39v-147z" />
    <glyph glyph-name="l" unicode="l" horiz-adv-x="201" 
d="M119 107q0 -48 10 -73t16 -34h-90q16 22 21.5 51.5t5.5 55.5v456q0 18 -2 33t-4 27q-5 19 -11 30t-10 17q17 1 36 10.5t28 20.5v-594z" />
    <glyph glyph-name="m" unicode="m" horiz-adv-x="790" 
d="M363 472q35 -32 47 -82q6 17 12 31.5t18 29.5q22 27 53 41t63 15q28 2 55 -6.5t48 -28.5q26 -23 40 -58t14 -77v-230q0 -48 10 -73t16 -34h-90q16 22 21.5 51.5t5.5 55.5v232q0 32 -9 61t-28 50q-33 36 -82 38q-31 2 -56.5 -9t-44 -31t-29 -46.5t-11.5 -55.5v-7v-232
q0 -48 10.5 -73t16.5 -34h-90q15 22 21 51.5t6 55.5q0 41 -0.5 77t-0.5 74v81q0 32 -9 61t-28 50q-16 18 -37 27.5t-44 10.5q-32 2 -58 -9.5t-44.5 -32.5t-28.5 -49t-10 -58v-232q0 -48 10 -73t16 -34h-90q15 22 21 51.5t6 55.5v262q0 18 -2 33t-5 26q-4 19 -10 30.5
t-10 17.5q17 1 36 10.5t28 20.5v-100q17 49 56.5 73.5t82.5 26.5q29 2 55.5 -6.5t48.5 -28.5z" />
    <glyph glyph-name="n" unicode="n" 
d="M416 337v-230q0 -48 10.5 -73t16.5 -34h-90q15 22 21 51.5t6 55.5q0 62 -0.5 116t-0.5 116q0 32 -9 61t-28 50q-16 18 -37 27.5t-44 10.5q-32 2 -58 -9.5t-44.5 -32.5t-28.5 -49t-10 -58v-232q0 -48 10 -73t16 -34h-90q15 22 21 51.5t6 55.5v262q0 18 -2 33t-5 27
q-4 18 -10 29.5t-10 17.5q17 1 36 10.5t28 20.5v-100q17 49 56.5 73.5t82.5 26.5q29 2 55.5 -6.5t48.5 -28.5q26 -23 39.5 -58t13.5 -77z" />
    <glyph glyph-name="o" unicode="o" horiz-adv-x="510" 
d="M458 254q0 -52 -16 -98.5t-43.5 -80.5t-64.5 -54t-79 -20t-79.5 20t-65 54t-43.5 80.5t-16 98.5q0 53 16 99t43.5 80.5t65 54.5t79.5 20t79 -20t64.5 -54.5t43.5 -80.5t16 -99zM91 210q11 -40 30.5 -73.5t45 -57.5t55 -37t59.5 -13q18 0 33 4q34 9 59 34.5t39.5 61.5
t16.5 79.5t-10 89.5q-11 40 -30.5 73.5t-45 57.5t-55 37.5t-59.5 13.5q-16 0 -34 -5q-34 -9 -59 -34.5t-39 -61.5t-16 -79.5t10 -89.5z" />
    <glyph glyph-name="p" unicode="p" horiz-adv-x="553" 
d="M123 385q26 55 72 89t102 34q42 0 79 -20t65 -54.5t44 -80.5t16 -99q0 -52 -16 -98.5t-44 -80.5t-65 -54t-79 -20q-56 0 -102 33.5t-72 89.5v-179q0 -29 5 -55t21 -52q-17 -1 -36 -10.5t-27 -20.5v551q0 23 -0.5 44t-4.5 40t-13 36t-26 30h1q17 -5 29.5 -10t23.5 -5
q15 0 27 15v-123zM461 298q-10 40 -30 73.5t-45.5 57.5t-55 37t-59.5 13q-37 0 -65 -17t-46.5 -44.5t-27.5 -61.5t-9 -67q-1 -20 2 -39.5t8 -39.5q11 -40 30.5 -73.5t45 -57.5t55 -37t59.5 -13q18 0 33 4q34 9 59.5 34.5t39.5 61.5t16 79.5t-10 89.5z" />
    <glyph glyph-name="q" unicode="q" horiz-adv-x="542" 
d="M52 254q0 53 16 99t43.5 80.5t65 54.5t79.5 20q41 0 76.5 -18.5t62.5 -50.5q16 -19 28 -14q8 2 15.5 12.5t13 23.5t9.5 26.5t6 20.5v-563q0 -18 2 -33t4 -27q5 -18 11 -29.5t10 -17.5q-17 -1 -36 -10.5t-28 -20.5v317q-26 -56 -72 -89.5t-102 -33.5q-42 0 -79.5 20
t-65 54t-43.5 80.5t-16 98.5zM420 298q-11 40 -30.5 73.5t-45 57.5t-55 37t-59.5 13q-18 0 -33 -4q-34 -9 -59.5 -34.5t-39.5 -61.5t-16 -79.5t10 -89.5q11 -40 30.5 -73.5t45 -57.5t55 -37t59.5 -13q18 0 33 4q34 9 59.5 34.5t39.5 61.5t16 79.5t-10 89.5z" />
    <glyph glyph-name="r" unicode="r" horiz-adv-x="366" 
d="M120 107q0 -48 10 -73t16 -34h-90q15 22 21 51.5t6 55.5v263q0 18 -2 33t-5 27q-4 18 -10 29.5t-10 17.5q17 1 36 10.5t28 19.5v-68q5 8 13 19.5t20 22t29 18.5t39 8q26 0 46.5 -9t34 -23.5t21 -33.5t8.5 -39q1 -24 -7.5 -43t-22.5 -32q-25 -23 -56 -23t-48 21
q31 -3 56 7q27 11 38 36t8 51q-2 20 -12.5 38t-27.5 29q-18 12 -43 12q-32 0 -56 -24q-11 -11 -17.5 -25t-11.5 -30q-6 -20 -8.5 -41t-2.5 -38v-170v-63z" />
    <glyph glyph-name="s" unicode="s" horiz-adv-x="427" 
d="M201 164q-23 21 -49 24t-45 -9q-19 -11 -24.5 -28.5t-2.5 -37.5q2 -16 9.5 -31.5t17.5 -26.5q5 -7 11 -12.5t13 -10.5q17 -12 37 -19t42 -7q52 2 89 29q20 15 31.5 38t9.5 54q-2 26 -10.5 46t-22.5 37q-19 23 -42 40.5t-49 33.5q-20 13 -46 28.5t-49 35.5t-36.5 44
t-11.5 47q2 19 15.5 35t42.5 26q20 6 42 7.5t42 0.5q19 -1 32.5 -3t24.5 -4.5t21 -3.5t22 -1q20 0 35 10v-104q-9 25 -20 43t-26.5 30t-38 18t-54.5 7q-17 1 -37.5 -2t-37.5 -11q-18 -9 -25 -19.5t-7 -22.5q0 -18 12.5 -36t29.5 -32q22 -19 47 -35t42 -26q29 -18 56 -38
t48 -46q17 -21 27.5 -46t9.5 -56q-1 -36 -20.5 -62.5t-48.5 -43.5q-22 -13 -47 -19t-50 -6q-46 0 -86 20q-22 11 -39 28t-28 40q-11 25 -7.5 51.5t18.5 46.5q12 17 31.5 26.5t45.5 4.5q19 -4 34 -16.5t22 -35.5z" />
    <glyph glyph-name="t" unicode="t" horiz-adv-x="295" 
d="M54 670q17 1 36 10.5t28 20.5v-228h78v-20h-78v-257q-8 -12 -13 -29.5t-6.5 -36.5t0.5 -36.5t9 -30.5q9 -17 23 -24.5t30 -7.5q39 0 63 27q10 11 15 26t3 32q9 -7 14 -19t5 -25t-4.5 -25.5t-13.5 -22.5q-11 -11 -26 -17t-32 -6q-26 0 -41.5 8.5t-30.5 23.5
q-11 11 -18.5 28t-10.5 39q-3 17 -3.5 35t-0.5 35q1 71 1 141.5v141.5h-27v20h27v90q0 18 -2 33.5t-5 26.5q-4 19 -10 30t-10 17z" />
    <glyph glyph-name="u" unicode="u" horiz-adv-x="493" 
d="M51 476q17 1 36 10.5t27 20.5q0 -85 0.5 -169t0.5 -169q0 -32 9 -61.5t28 -50.5q16 -18 37 -27.5t44 -10.5q32 -2 58 9.5t45 32.5t29 49t10 58v201q0 18 -2 33t-5 27q-4 18 -10 29.5t-10 17.5q17 1 36 10.5t27 20.5v-369q0 -17 2 -32.5t4 -26.5q5 -19 11 -30.5t10 -17.5
q-17 -1 -36 -10.5t-27 -19.5v99q-18 -49 -57.5 -73.5t-83.5 -26.5q-28 -2 -55 7t-48 28q-26 23 -39.5 58t-13.5 77v199q0 18 -2 33t-5 26q-4 19 -10 30.5t-10 17.5z" />
    <glyph glyph-name="v" unicode="v" horiz-adv-x="407" 
d="M192 1l-122 434q-8 29 -22 48.5t-33 24.5h106q-17 -8 -18.5 -26.5t6.5 -46.5l108 -387q4 9 12 29t17.5 46t20 55t20.5 56.5t18 50.5t12 36q10 29 16.5 61t1.5 58q-5 25 -20 36.5t-34 11.5q-17 0 -33 -8t-28 -24q10 29 29 47t51 18q16 -1 30 -8t23 -21q10 -14 12 -34
t-2 -42q-5 -27 -13 -53.5t-16 -47.5l-117 -314h-25z" />
    <glyph glyph-name="w" unicode="w" horiz-adv-x="612" 
d="M217 48q5 12 17 44t26.5 70.5t28 77t22.5 63.5l-37 132q-8 29 -21.5 48.5t-32.5 24.5h106q-17 -8 -18.5 -26.5t6.5 -46.5l108 -387q4 9 11.5 29t17.5 46t20.5 55t20.5 56.5t18 50.5t12 36q10 29 16.5 61t1.5 58q-5 25 -20 36.5t-35 11.5q-16 0 -32 -8t-28 -24
q10 29 29 47t51 18q16 -1 30 -8t23 -21q10 -14 12 -34t-2 -42q-5 -27 -13.5 -53.5t-16.5 -47.5l-116 -314h-25l-78 275l-102 -275h-25l-122 434q-8 29 -22 48.5t-33 24.5h106q-17 -8 -18.5 -26.5t6.5 -46.5z" />
    <glyph glyph-name="x" unicode="x" horiz-adv-x="421" 
d="M233 245l72 -142q7 -14 16.5 -31t21 -32t24.5 -26t26 -13h-125q23 13 21.5 36.5t-17.5 56.5l-81 158l-88 -99q-14 -16 -20 -34.5t-5 -37.5q1 -25 16 -45.5t41 -20.5q17 0 32 7.5t26 20.5q-7 -25 -24 -40l-4 -2q-17 -13 -40 -11q-22 0 -38 11q-2 1 -7 4q-24 19 -27 53
q-2 21 5.5 41.5t18.5 37.5q4 5 6 8t4 5.5t5 5.5t7 8l89 99l-73 142q-7 14 -16.5 31t-21 32t-24.5 26t-26 14h126q-23 -14 -22 -37.5t18 -56.5l80 -158l88 99q14 16 20 35t5 37q-2 36 -26 56q-13 10 -31 10q-9 0 -20 -3q-22 -5 -37 -25q6 26 23 40q2 1 4 3q19 11 40 11
q10 -1 23.5 -4.5t21.5 -11.5q24 -19 27 -53q3 -21 -5 -41t-19 -38q-7 -10 -10 -13.5t-11 -13.5z" />
    <glyph glyph-name="y" unicode="y" horiz-adv-x="408" 
d="M79 -193q-30 0 -48 15.5t-24.5 36t-1 41t22.5 30.5q-5 -16 -3 -30.5t8.5 -25t17.5 -17t24 -7.5q23 -2 49.5 17.5t47.5 67.5l28 66h-7l-123 434q-8 29 -21.5 48.5t-32.5 23.5h106q-17 -7 -18.5 -25.5t6.5 -46.5l108 -387q4 9 11.5 29t17.5 46t20.5 55t20.5 56.5t18 50.5
t12 36q10 29 16.5 60.5t1.5 57.5q-5 25 -20 36.5t-35 11.5q-16 0 -32 -8t-28 -23q6 22 22 40q11 13 26.5 19t31.5 5q34 0 53 -28q10 -14 12 -34t-2 -42q-5 -27 -13.5 -53.5t-16.5 -47.5l-116 -314l-27 -63q-8 -18 -17.5 -41t-22.5 -43t-30.5 -33.5t-41.5 -13.5z" />
    <glyph glyph-name="z" unicode="z" horiz-adv-x="425" 
d="M184 496q-34 0 -54.5 -8.5t-32.5 -23.5t-18.5 -34.5t-12.5 -42.5v121h300q0 -48 -20.5 -86t-51.5 -72.5t-67.5 -68.5t-67.5 -73t-51.5 -86t-20.5 -109h141q24 -1 46 6.5t39 21.5q20 17 25 41.5t-4 45.5q-6 14 -18 23.5t-30 13.5q-9 2 -19 2t-20 -1q17 11 37.5 14.5
t39.5 -1.5t33.5 -18.5t19.5 -36.5q4 -19 -1.5 -39t-18.5 -37q-19 -23 -51 -36q-18 -7 -37 -9.5t-39 -2.5h-51.5t-43.5 0.5t-41.5 0.5h-44.5q0 68 20.5 120.5t51.5 94.5t67 77t67 67.5t51.5 65t20.5 70.5h-143z" />
    <glyph glyph-name="braceleft" unicode="{" horiz-adv-x="299" 
d="M241 687q-36 0 -54.5 -16.5t-25.5 -40.5q-5 -19 -3.5 -40t3.5 -41q4 -32 11 -66.5t10.5 -67t1 -61.5t-17.5 -50q-12 -17 -31 -30t-49 -20q30 -7 49 -20t31 -30q15 -21 17.5 -50t-1 -61.5t-10.5 -67t-11 -66.5q-2 -20 -3.5 -41t3.5 -40q7 -24 25.5 -40.5t54.5 -16.5v-13
h-10q-39 0 -61.5 12.5t-33 33.5t-11.5 49.5t2 60.5q2 19 8 48t10.5 61t4 63t-12.5 52q-9 17 -32 28.5t-47 11.5v52q24 0 47 11.5t32 28.5q12 21 12.5 52t-4 63t-10.5 61t-8 48q-3 32 -2 60.5t11.5 49.5t33 33.5t61.5 12.5h10v-13z" />
    <glyph glyph-name="bar" unicode="|" horiz-adv-x="207" 
d="M85 -193v893h37v-893h-37z" />
    <glyph glyph-name="braceright" unicode="}" horiz-adv-x="299" 
d="M57 700h10q40 0 62.5 -12.5t33 -33.5t11.5 -49.5t-2 -60.5q-2 -19 -8 -48t-10.5 -61t-4.5 -63t12 -52q9 -17 32.5 -28.5t46.5 -11.5v-52q-23 0 -46.5 -11.5t-32.5 -28.5q-12 -21 -12 -52t4.5 -63t10.5 -61t8 -48q3 -32 2 -60.5t-11.5 -49.5t-33 -33.5t-62.5 -12.5h-10v13
q36 0 55 16.5t25 40.5q5 19 3.5 40t-3.5 41q-4 32 -10.5 66.5t-10.5 67t-1.5 61.5t17.5 50q12 17 31.5 30t48.5 20q-29 7 -48.5 20t-31.5 30q-15 21 -17.5 50t1.5 61.5t10.5 67t10.5 66.5q2 20 3.5 41t-3.5 40q-6 24 -25 40.5t-55 16.5v13z" />
    <glyph glyph-name="asciitilde" unicode="~" horiz-adv-x="533" 
d="M29 320q37 60 100 77t132 -16q32 -16 63.5 -28.5t62 -14.5t58 11t51.5 47l9 -17q-18 -28 -44 -47t-57 -27.5t-64.5 -5.5t-66.5 19q-32 16 -64.5 28.5t-62.5 14.5t-58 -10.5t-51 -47.5z" />
    <glyph glyph-name="uni00A0" unicode="&#xa0;" horiz-adv-x="271" 
 />
    <glyph glyph-name="exclamdown" unicode="&#xa1;" horiz-adv-x="209" 
d="M76 -193l17 499h22l17 -499h-56zM104 507q21 0 35.5 -13t14.5 -31q0 -19 -14.5 -31t-35.5 -12q-20 0 -35 12t-15 31q0 18 15 31t35 13z" />
    <glyph glyph-name="cent" unicode="&#xa2;" horiz-adv-x="512" 
d="M447 373q-3 -21 -25 -32q-5 17 -13.5 34.5t-19.5 33.5q-9 13 -19.5 24.5t-23.5 21.5l-145 -402q29 -18 61.5 -24t64.5 2q40 11 69 41.5t43 72.5v-30q-27 -52 -72.5 -83.5t-99.5 -31.5q-40 0 -78 19l-42 -117h-37l49 136q-44 34 -70.5 90.5t-26.5 125.5q0 52 16 98
t44 80.5t65.5 54.5t79.5 20q29 0 58 -8l38 106h37l-42 -118q18 -9 39 -26t35 -37q8 -13 12.5 -26t2.5 -25zM316 474q-32 15 -70 14q-54 -5 -102 -48q-22 -21 -36 -49t-20 -59t-5 -63t9 -62q11 -42 32 -75.5t48 -57.5z" />
    <glyph glyph-name="sterling" unicode="&#xa3;" horiz-adv-x="506" 
d="M71 0q35 52 49.5 97.5t15.5 89.5q1 13 -0.5 27t-3.5 29h-61l21 36h34q-6 35 -14.5 73t-15.5 76q-6 35 -9 68t0.5 63.5t15 56.5t33.5 45q17 16 42.5 28t57.5 11t58 -9.5t46 -22.5q29 -21 44.5 -49.5t17.5 -58.5q3 -37 -11.5 -63.5t-37.5 -40.5q-17 -10 -37 -12.5t-38.5 2
t-32.5 15t-20 26.5q30 -20 58.5 -17t49.5 20q30 27 32 74q0 24 -10.5 47t-28.5 40t-41.5 27.5t-50.5 11.5q-29 1 -50.5 -12t-35.5 -30q-16 -19 -23 -43t-8 -52t3 -58t11 -62q8 -39 18 -78t17 -76h168l-21 -36h-140q5 -28 5 -48q0 -49 -15 -94.5t-56 -86.5h121q22 0 48.5 1.5
t52.5 7.5q55 12 73 45q18 31 3 82q30 -17 38 -43.5t0 -52.5q-8 -23 -27.5 -38.5t-48.5 -15.5h-296z" />
    <glyph glyph-name="currency" unicode="&#xa4;" horiz-adv-x="566" 
d="M510 146l-23 -23l-73 74q-27 -23 -60 -35.5t-71 -12.5t-71.5 12.5t-59.5 35.5l-73 -74l-23 23l74 74q-23 26 -35.5 59t-12.5 71t12.5 71.5t35.5 59.5l-74 73l23 23l73 -74q26 23 59.5 35.5t71.5 12.5t71 -12.5t60 -35.5l73 74l23 -23l-74 -73q23 -26 35.5 -59.5
t12.5 -71.5t-12.5 -71t-35.5 -59zM449 350q0 35 -13 65t-35.5 53t-52.5 36t-65 13q-34 0 -64.5 -13t-53.5 -36t-36 -53t-13 -65q0 -34 13 -64.5t36 -53t53.5 -35.5t64.5 -13q35 0 65 13t52.5 35.5t35.5 53t13 64.5z" />
    <glyph glyph-name="yen" unicode="&#xa5;" horiz-adv-x="537" 
d="M437 279v-36h-143v-65h143v-37h-143v-34q0 -47 10 -72t17 -34h-91q16 22 21.5 51t5.5 55v34h-143v37h143v65h-143v36h134l-138 328q-17 42 -33 64t-36 29h100q-17 -11 -16 -33t14 -51l146 -337q10 17 22.5 39.5t26 46.5t27 47.5t23.5 43.5q9 17 21.5 39t21.5 47
q5 14 9.5 30t4.5 34q0 42 -19 63q-15 19 -35 22t-40 -5q-17 -8 -32 -21.5t-24 -28.5q4 12 11 26.5t18 26.5t27.5 20t38.5 8q24 0 41.5 -9.5t28.5 -25.5t15 -36.5t0 -42.5q-5 -26 -14.5 -47.5t-20.5 -41.5l-130 -235h131z" />
    <glyph glyph-name="brokenbar" unicode="&#xa6;" horiz-adv-x="179" 
d="M71 700h37v-344h-37v344zM108 151v-344h-37v344h37z" />
    <glyph glyph-name="section" unicode="&#xa7;" horiz-adv-x="543" 
d="M97 69q18 17 43 25t53 3q24 -5 43 -20.5t26 -44.5q-29 35 -73 38q-23 2 -41 -6.5t-31 -22.5q-25 -29 -23 -71q2 -26 12.5 -52t28.5 -45q24 -26 59 -39t70 -13q37 0 69 9.5t56 30.5t37.5 53t11.5 70q-2 42 -20.5 74.5t-45.5 59.5q-25 25 -54 45.5t-59 40.5
q-33 23 -64.5 46.5t-55.5 53.5q-20 25 -30.5 53.5t-2.5 61.5q4 18 15 34t31 28q-3 5 -6.5 8.5t-6.5 7.5q-20 25 -30.5 53.5t-2.5 61.5q5 23 21.5 41.5t45.5 31.5q20 9 41.5 11t43.5 4q17 1 34 -1.5t31 -6.5q15 -3 28 -6t30 -2q30 0 47 14v-131q-6 24 -15.5 45t-27.5 37
t-47 26t-74 12q-20 2 -39 -1t-36 -11q-24 -11 -36 -28.5t-14 -37.5q-3 -36 19 -70q19 -29 49 -54.5t63 -48.5q32 -23 63.5 -45.5t57.5 -45.5q35 -33 59.5 -73t24.5 -94q0 -53 -28 -93q14 -22 21 -46.5t7 -53.5q1 -46 -21 -83t-56 -59q-29 -20 -63 -28t-71 -8q-36 0 -73.5 12
t-66.5 35q-28 22 -46 52t-20 67q-2 28 8.5 53t30.5 43zM139 416q-3 -36 19 -70q11 -17 26.5 -33t33.5 -31q7 -5 13 -10t13 -10q6 -5 12.5 -9.5t13.5 -9.5q32 -23 63.5 -45.5t57.5 -45.5q11 -10 20 -19.5t18 -20.5q5 15 8 31.5t1 33.5q-2 42 -20.5 74.5t-45.5 59.5
q-25 25 -54 45.5t-59 40.5q-25 17 -49 34t-44 37q-24 -20 -27 -52z" />
    <glyph glyph-name="dieresis" unicode="&#xa8;" horiz-adv-x="319" 
d="M128 656q0 -17 -14.5 -30t-35.5 -13t-35.5 13t-14.5 30q0 19 14.5 31.5t35.5 12.5t35.5 -12.5t14.5 -31.5zM291 656q0 -17 -14.5 -30t-35.5 -13t-35.5 13t-14.5 30q0 19 14.5 31.5t35.5 12.5t35.5 -12.5t14.5 -31.5z" />
    <glyph glyph-name="copyright" unicode="&#xa9;" horiz-adv-x="651" 
d="M453 428q-4 -14 -17 -21q-4 11 -9 22.5t-13 22.5q-16 23 -39.5 38.5t-55.5 13.5q-34 -1 -67 -31q-30 -28 -38 -72t3 -83q8 -30 24.5 -54.5t37.5 -40t45.5 -21.5t48.5 0q26 8 45 27.5t29 47.5v-19q-18 -35 -48 -55.5t-65 -20.5q-28 0 -53 13t-43.5 36t-29 53.5t-10.5 64.5
q0 35 10.5 65.5t29 53.5t43.5 36t53 13q27 0 55 -11q12 -5 27.5 -17.5t26.5 -26.5q5 -8 8.5 -17t1.5 -17zM325 614q56 0 104 -20.5t84 -56.5t57 -84.5t21 -103.5t-21 -103.5t-57 -83.5q-36 -36 -84 -57t-104 -21q-55 0 -103 21t-84 57q-36 35 -57 83.5t-21 103.5t21 103.5
t57 84.5t84 56.5t103 20.5zM494 518q-32 32 -75.5 50.5t-93.5 18.5q-49 0 -92.5 -18.5t-75.5 -50.5t-51 -75.5t-19 -93.5t19 -93t51 -75t75.5 -51t92.5 -19q50 0 93.5 19t75.5 51t51 75t19 93t-19 93.5t-51 75.5z" />
    <glyph glyph-name="ordfeminine" unicode="&#xaa;" horiz-adv-x="351" 
d="M275 481q0 -31 2.5 -57.5t24.5 -44.5q-17 7 -29 11t-22 -11v77q-7 -29 -34.5 -53t-75.5 -24q-40 0 -64.5 23.5t-26.5 54.5q-2 23 6.5 42.5t24.5 33.5q14 14 36 22q11 4 26 7.5l30 7t30 9t26 13.5q10 8 16 19t6 27q0 29 -21 43t-50 14q-25 0 -45 -10q-24 -11 -30 -34
q-4 -12 -0.5 -24t16.5 -20q9 -5 20.5 -3.5t19.5 12.5q2 -13 -9.5 -22.5t-25.5 -7.5q-16 1 -28.5 12t-13.5 31q-1 14 6 28.5t21 24.5q14 11 32.5 14.5t36.5 3.5q10 0 20 -1t19 -4q21 -6 34 -21q14 -16 19 -42q2 -11 2.5 -22.5t0.5 -23.5v-105zM251 488v120q-6 -11 -17 -21
q-15 -12 -32.5 -18.5t-35.5 -12.5q-12 -5 -22 -8.5t-19 -8.5q-7 -5 -13.5 -9.5t-11.5 -9.5q-16 -16 -21 -37q-7 -33 15 -60q11 -14 27.5 -20.5t33.5 -6.5q38 -2 63 20q33 25 33 72z" />
    <glyph glyph-name="guillemotleft" unicode="&#xab;" horiz-adv-x="542" 
d="M44 274l259 172v-24l-197 -168l197 -169v-24l-259 172v41zM236 274l259 172v-24l-196 -168l196 -169v-24l-259 172v41z" />
    <glyph glyph-name="uni00AD" unicode="&#xad;" horiz-adv-x="0" 
 />
    <glyph glyph-name="registered" unicode="&#xae;" horiz-adv-x="651" 
d="M227 182q8 11 10.5 24.5t2.5 26.5v232q0 13 -2.5 27t-10.5 25h82q10 0 21 -1.5t20 -4.5q11 -4 19 -9q29 -19 32 -56q1 -40 -27 -64q-5 -4 -10 -7l-10 -6q-9 -4 -18 -6q13 -1 23 -7q8 -5 13.5 -14t9.5 -20q3 -11 4 -20.5t2 -20.5q1 -12 1.5 -24t2.5 -24q2 -16 9 -30
t23 -21h-12t-10 1q-11 1 -19 12q-7 8 -9 18.5t-3 22.5q-1 10 -0.5 21.5t1.5 23.5q0 9 -0.5 18.5t-2.5 18.5q-5 20 -15 30q-8 8 -16.5 10t-17.5 1q-4 0 -8 -1t-9 -2q-5 -2 -10.5 -3.5t-9.5 -3.5q-10 -4 -18 -12l-4 -6t-3 -8v-90q0 -13 2 -26.5t10 -24.5h-43zM325 614
q55 0 103.5 -20.5t84.5 -56.5t57 -84.5t21 -103.5t-21 -103.5t-57 -83.5q-36 -36 -84.5 -57t-103.5 -21t-103 21t-84 57q-36 35 -57 83.5t-21 103.5t21 103.5t57 84.5t84 56.5t103 20.5zM494 518q-32 32 -75.5 50.5t-93.5 18.5t-93 -18.5t-75 -50.5t-51 -75.5t-19 -93.5
t19 -93t51 -75t75 -51t93 -19t93.5 19t75.5 51t51 75t19 93t-19 93.5t-51 75.5zM258 334q5 15 22 23q7 4 14 6t15 5q14 3 27 8q18 7 28 19q17 18 15 48q0 24 -14 43q-4 5 -8 8t-9 6q-14 8 -29.5 9t-32.5 1h-28v-176z" />
    <glyph glyph-name="macron" unicode="&#xaf;" horiz-adv-x="381" 
d="M18 606v37h345v-37h-345z" />
    <glyph glyph-name="degree" unicode="&#xb0;" horiz-adv-x="252" 
d="M212 614q0 -36 -25 -61.5t-61 -25.5t-61.5 25.5t-25.5 61.5q0 18 7 33.5t18.5 27t27.5 18.5t34 7t33.5 -7t27.5 -18.5t18.5 -27t6.5 -33.5zM193 614q0 28 -19.5 47.5t-47.5 19.5q-29 0 -48.5 -19.5t-19.5 -47.5q0 -29 19.5 -48.5t48.5 -19.5q28 0 47.5 19.5t19.5 48.5z
" />
    <glyph glyph-name="plusminus" unicode="&#xb1;" horiz-adv-x="593" 
d="M278 603h37v-236h235v-36h-235v-236h-37v236h-236v36h236v236zM42 -37v37h508v-37h-508z" />
    <glyph glyph-name="twosuperior" unicode="&#xb2;" horiz-adv-x="273" 
d="M102 396q-12 2 -25 -1t-28 -16v22q17 14 33.5 28t31.5 30q13 14 25 27.5t22 28.5q12 18 21.5 36t14.5 40q5 25 1 48q-4 30 -27 46q-20 11 -44 10q-13 0 -24 -4.5t-19 -12.5q-18 -18 -18 -40q0 -21 15 -34q10 -8 22.5 -9t26.5 7q-5 -14 -23.5 -18.5t-34.5 4.5
q-24 15 -23 48q2 14 8.5 27t20.5 22q20 15 47 15q55 2 78 -28.5t12 -81.5q-5 -23 -15.5 -43.5t-23.5 -37.5q-11 -14 -24 -29t-30 -29q-17 -15 -35 -28.5t-32 -24.5q26 11 49 10q18 -2 37 -8t36 -5q19 2 28.5 17t0.5 35q19 -22 11 -42q-11 -26 -45 -26q-20 0 -36.5 7.5
t-33.5 9.5z" />
    <glyph glyph-name="threesuperior" unicode="&#xb3;" horiz-adv-x="294" 
d="M152 572q21 0 43 -10q23 -12 36.5 -35.5t11.5 -53.5q-2 -42 -28.5 -67.5t-68.5 -26.5q-21 0 -38.5 7t-30 19t-20 27t-8.5 31q-1 18 6.5 34t21.5 26q11 9 26 11t29 -3q19 -7 25 -26q-17 17 -35.5 17t-32.5 -12q-11 -9 -16.5 -21.5t-5.5 -25.5q-1 -18 7 -35t22 -28
q22 -16 50 -16q38 2 57.5 29.5t20.5 62.5q0 17 -4.5 33t-14.5 29t-26 21t-38 9l77 122q-8 -4 -21.5 -9t-29 -9t-32.5 -6.5t-31 -1.5q-17 2 -28 9t-10 27q8 -7 25.5 -12.5t39.5 -6.5t46.5 3t46.5 16l1 -13z" />
    <glyph glyph-name="acute" unicode="&#xb4;" horiz-adv-x="190" 
d="M31 548l77 152h53l-118 -152h-12z" />
    <glyph glyph-name="periodcentered" unicode="&#xb7;" horiz-adv-x="157" 
d="M128 350q0 -18 -14.5 -31t-35.5 -13q-20 0 -35 13t-15 31q0 19 15 31.5t35 12.5q21 0 35.5 -12.5t14.5 -31.5z" />
    <glyph glyph-name="cedilla" unicode="&#xb8;" horiz-adv-x="200" 
d="M149 -165q-31 -28 -80 -28q-19 0 -49 3v7q27 -4 48 0.5t36 13.5t24.5 22t12.5 27t0.5 28t-11.5 24t-24.5 15.5t-36.5 2.5l41 66h16l-24 -40q10 -2 16 -2.5t17 -4.5q19 -10 29 -22q16 -21 16 -47q0 -36 -31 -65z" />
    <glyph glyph-name="onesuperior" unicode="&#xb9;" horiz-adv-x="167" 
d="M101 428q0 -22 5 -33t8 -16h-42q7 11 9.5 24t2.5 25v203l-35 -15v5q26 14 35.5 36.5t9.5 42.5h7v-272z" />
    <glyph glyph-name="ordmasculine" unicode="&#xba;" horiz-adv-x="338" 
d="M90 649q-15 -23 -20 -53t-3 -56q0 -7 0.5 -13t1.5 -11q3 -19 11 -40.5t20 -39.5t29 -30.5t39 -14.5q23 -2 44 8t35 31q15 23 20.5 53t3.5 57q-1 6 -1.5 12t-1.5 11q-3 20 -10.5 41t-19.5 39t-29 31t-40 15t-44 -8.5t-35 -31.5zM285 542v-2q0 -40 -12 -72
q-6 -17 -16 -33.5t-23.5 -29.5t-30 -21t-36.5 -8q-24 0 -44.5 12.5t-36.5 34.5t-25 51.5t-9 62.5v3q0 19 3.5 37t8.5 34q6 17 16 33.5t23.5 29.5t30.5 21t36 8q24 0 45 -12.5t36.5 -34.5t24.5 -51.5t9 -62.5z" />
    <glyph glyph-name="guillemotright" unicode="&#xbb;" horiz-adv-x="542" 
d="M497 233l-258 -172v24l196 169l-196 168v24l258 -172v-41zM305 233l-259 -172v24l196 169l-196 168v24l259 -172v-41z" />
    <glyph glyph-name="questiondown" unicode="&#xbf;" horiz-adv-x="435" 
d="M215 306h19q9 -40 -0.5 -67.5t-31.5 -50.5t-43 -45.5t-38 -45.5q-12 -16 -21 -32t-15 -35q-11 -36 -8 -78q3 -33 19 -62.5t47 -49.5q38 -25 97 -23q27 1 51 11.5t41 27.5q19 17 29 40t10 47q0 23 -9 42t-23 31q-20 18 -49 21t-58 -17q5 16 19 26.5t32.5 15t38.5 2.5
t38 -13q23 -14 37 -40.5t12 -63.5q-2 -30 -18 -58.5t-45 -48.5q-20 -14 -46 -23t-58 -10q-56 -2 -103 18q-39 17 -66 49t-33 80q-7 49 10 94q11 32 32 58.5t49 50.5q14 12 28 23.5t25 24.5q17 19 25 42.5t6 58.5v0zM174 463q0 18 14.5 31t35.5 13q20 0 35 -13t15 -31
t-15 -30.5t-35 -12.5q-21 0 -35.5 12.5t-14.5 30.5z" />
    <glyph glyph-name="Agrave" unicode="&#xc0;" horiz-adv-x="516" 
d="M268 700l174 -603q5 -15 10.5 -30.5t12.5 -29t17 -23.5t24 -14h-118q15 6 21.5 16t7 23t-3.5 29t-9 34l-13 46h-197q-18 0 -32 -1t-25.5 -6t-20 -15t-14.5 -27q-2 -8 -4 -14.5t-4 -13.5q-7 -24 -6.5 -42t17.5 -29h-88q24 14 40 42t24 54zM314 741l-118 152h54l77 -152
h-13zM261 606q-46 -158 -83.5 -272t-64.5 -199q13 24 33 31t45 7h193z" />
    <glyph glyph-name="Aacute" unicode="&#xc1;" horiz-adv-x="516" 
d="M268 700l174 -603q5 -15 10.5 -30.5t12.5 -29t17 -23.5t24 -14h-118q15 6 21.5 16t7 23t-3.5 29t-9 34l-13 46h-197q-18 0 -32 -1t-25.5 -6t-20 -15t-14.5 -27q-2 -8 -4 -14.5t-4 -13.5q-7 -24 -6.5 -42t17.5 -29h-88q24 14 40 42t24 54zM197 741l76 152h54l-118 -152
h-12zM261 606q-46 -158 -83.5 -272t-64.5 -199q13 24 33 31t45 7h193z" />
    <glyph glyph-name="Acircumflex" unicode="&#xc2;" horiz-adv-x="516" 
d="M268 700l174 -603q5 -15 10.5 -30.5t12.5 -29t17 -23.5t24 -14h-118q15 6 21.5 16t7 23t-3.5 29t-9 34l-13 46h-197q-18 0 -32 -1t-25.5 -6t-20 -15t-14.5 -27q-2 -8 -4 -14.5t-4 -13.5q-7 -24 -6.5 -42t17.5 -29h-88q24 14 40 42t24 54zM149 741l80 152h65l80 -152h-12
l-100 129l-100 -129h-13zM261 606q-46 -158 -83.5 -272t-64.5 -199q13 24 33 31t45 7h193z" />
    <glyph glyph-name="Atilde" unicode="&#xc3;" horiz-adv-x="516" 
d="M268 700l174 -603q5 -15 10.5 -30.5t12.5 -29t17 -23.5t24 -14h-118q15 6 21.5 16t7 23t-3.5 29t-9 34l-13 46h-197q-18 0 -32 -1t-25.5 -6t-20 -15t-14.5 -27q-2 -8 -4 -14.5t-4 -13.5q-7 -24 -6.5 -42t17.5 -29h-88q24 14 40 42t24 54zM83 832q28 45 75.5 57.5
t98.5 -12.5q24 -12 48 -21t47 -10.5t43.5 7.5t38.5 35l7 -12q-13 -21 -33 -35.5t-43 -21t-48.5 -4t-50.5 14.5q-24 12 -48 21.5t-47 11t-43.5 -8t-38.5 -35.5zM261 606q-46 -158 -83.5 -272t-64.5 -199q14 24 33.5 31t44.5 7h193z" />
    <glyph glyph-name="Adieresis" unicode="&#xc4;" horiz-adv-x="516" 
d="M268 700l174 -603q5 -15 10.5 -30.5t12.5 -29t17 -23.5t24 -14h-118q15 6 21.5 16t7 23t-3.5 29t-9 34l-13 46h-197q-18 0 -32 -1t-25.5 -6t-20 -15t-14.5 -27q-2 -8 -4 -14.5t-4 -13.5q-7 -24 -6.5 -42t17.5 -29h-88q24 14 40 42t24 54zM230 849q0 -17 -14.5 -30
t-35.5 -13q-20 0 -35 13t-15 30q0 19 15 31.5t35 12.5q21 0 35.5 -12.5t14.5 -31.5zM393 849q0 -17 -14.5 -30t-35.5 -13q-20 0 -35 13t-15 30q0 19 15 31.5t35 12.5q21 0 35.5 -12.5t14.5 -31.5zM261 606q-46 -158 -83.5 -272t-64.5 -199q14 24 33.5 31t44.5 7h193z" />
    <glyph glyph-name="Aring" unicode="&#xc5;" horiz-adv-x="516" 
d="M268 700l175 -603q5 -15 10 -30.5t12.5 -29t17.5 -23.5t24 -14h-119q15 6 21.5 16t7 23t-3 29t-8.5 34l-13 46h-198q-18 0 -32 -1t-25.5 -6t-20 -15t-14.5 -27q-2 -8 -4 -14.5t-4 -13.5q-7 -24 -6.5 -42t17.5 -29h-88q24 14 40 42t24 54zM349 807q0 -36 -25.5 -61.5
t-61.5 -25.5t-61.5 25.5t-25.5 61.5q0 18 7 33.5t18.5 27t27.5 18.5t34 7t34 -7t27.5 -18.5t18.5 -27t7 -33.5zM330 807q0 28 -20 47.5t-48 19.5q-29 0 -48.5 -19.5t-19.5 -47.5q0 -29 19.5 -48.5t48.5 -19.5q28 0 48 19.5t20 48.5zM261 606q-46 -158 -83.5 -272t-63.5 -199
q13 24 32.5 31t44.5 7h193z" />
    <glyph glyph-name="AE" unicode="&#xc6;" horiz-adv-x="811" 
d="M13 0q28 14 47 41.5t34 54.5q4 8 23 41.5t46.5 82t61 107.5t66.5 117t63 110.5t50 88.5q8 14 2.5 30t-13.5 27h331l18 -114q-14 59 -43 79.5t-68 20.5h-175v-224q10 14 27 14q10 0 21 -5t22 -11q14 -8 27 -14t27 -10q26 -8 52 -1q16 5 28 15.5t17 29.5q7 -8 9.5 -17.5
t2.5 -18.5q-2 -17 -12.5 -30.5t-29.5 -17.5q-21 -5 -38 -2t-32 11q-14 7 -27 16t-27 19q-13 8 -24 14.5t-19 7.5q-11 2 -17.5 -5.5t-6.5 -30.5v-412h94q22 0 48.5 1.5t52.5 7.5q55 12 73 45q18 31 3 82q29 -17 37.5 -43.5t-0.5 -52.5q-8 -23 -27 -38.5t-48 -15.5h-296
q15 23 20.5 52t5.5 55v41h-190q-17 0 -31.5 -1t-27 -6t-23.5 -15t-22 -27q-5 -8 -8.5 -14.5t-7.5 -13.5q-14 -24 -18 -42t10 -29h-88zM419 612l-274 -477q20 24 42 31t46 7h186v439z" />
    <glyph glyph-name="Ccedilla" unicode="&#xc7;" horiz-adv-x="635" 
d="M585 515q-2 -14 -10 -25t-24 -19q-16 48 -46 94q-16 24 -37 44.5t-46 35.5t-54 22.5t-61 5.5q-36 -2 -72 -18.5t-68 -46.5q-31 -29 -50.5 -67.5t-28 -82t-7 -88t12.5 -85.5q17 -63 51 -114t78 -84t95 -45t101 1q55 15 95 57t60 100v-41q-38 -72 -100.5 -115.5
t-137.5 -43.5v0l-14 -24q10 -2 16 -2.5t16 -4.5q19 -10 29 -22q16 -19 16 -47q0 -37 -31 -65q-29 -28 -80 -28q-19 0 -48 3v7q27 -4 48 0.5t36 13.5t24.5 22t12.5 27q6 29 -12 52t-60 18l31 51q-56 4 -104.5 32.5t-84.5 76t-57 109t-21 131.5q0 72 22.5 136t60.5 111.5
t90 75t110 27.5q30 -1 59.5 -6.5t55.5 -16.5q26 -10 59 -35.5t54 -56.5q12 -17 18 -35t3 -35z" />
    <glyph glyph-name="Egrave" unicode="&#xc8;" horiz-adv-x="482" 
d="M127 426v-412h94q21 0 47.5 1.5t52.5 7.5q54 12 74 45q17 32 2 82q30 -17 38 -43.5t0 -51.5q-8 -23 -27.5 -39t-48.5 -16h-296q15 23 21 52t6 55v486q0 26 -6 55t-21 52h332l17 -114q-14 59 -42.5 79.5t-68.5 20.5h-174v-224q5 8 11.5 11t14.5 3q10 0 21 -5t23 -11
q14 -8 26.5 -14t26.5 -10q26 -8 52 -1q17 5 28.5 15.5t16.5 29.5q7 -8 10 -17.5t2 -18.5q-2 -17 -12 -30.5t-30 -17.5q-20 -5 -37 -2t-33 11q-14 7 -26.5 16t-26.5 19q-13 8 -24.5 14.5t-19.5 7.5q-11 2 -17 -5.5t-6 -30.5v0zM304 741l-118 152h54l76 -152h-12z" />
    <glyph glyph-name="Eacute" unicode="&#xc9;" horiz-adv-x="482" 
d="M127 14h94q22 0 48 1.5t52 7.5q54 12 74 45q17 32 2 82q30 -17 38 -43.5t0 -51.5q-8 -23 -27.5 -39t-48.5 -16h-296q16 23 21.5 52t5.5 55v486q0 26 -5.5 55t-21.5 52h332l17 -114q-14 59 -42.5 79.5t-68.5 20.5h-174v-224q10 14 26 14q10 0 21.5 -5t22.5 -11
q14 -8 27 -14t27 -10q12 -4 24.5 -4.5t27.5 3.5q16 5 27.5 15.5t16.5 29.5q7 -8 10 -17.5t2 -18.5q-1 -17 -11.5 -30.5t-30.5 -17.5q-20 -5 -37 -2t-33 11q-14 7 -26.5 16t-26.5 19q-13 8 -24 14.5t-19 7.5q-11 2 -17.5 -5.5t-6.5 -30.5v-412zM186 741l77 152h53l-117 -152
h-13z" />
    <glyph glyph-name="Ecircumflex" unicode="&#xca;" horiz-adv-x="482" 
d="M127 14h94q21 0 47.5 1.5t52.5 7.5q54 12 74 45q17 32 2 82q30 -17 38 -43.5t0 -51.5q-8 -23 -27.5 -39t-48.5 -16h-296q15 23 21 52t6 55v486q0 26 -6 55t-21 52h332l17 -114q-14 59 -42.5 79.5t-68.5 20.5h-174v-224q5 8 11.5 11t14.5 3q10 0 21 -5t23 -11
q14 -8 27 -14t27 -10q25 -8 51 -1q17 5 28.5 15.5t16.5 29.5q7 -8 10 -17.5t2 -18.5q-2 -17 -12 -30.5t-30 -17.5q-20 -5 -37 -2t-33 11q-14 7 -26.5 16t-26.5 19q-13 8 -24.5 14.5t-19.5 7.5q-10 2 -16.5 -5.5t-6.5 -30.5v-412zM139 741l80 152h65l80 -152h-13l-100 129
l-100 -129h-12z" />
    <glyph glyph-name="Edieresis" unicode="&#xcb;" horiz-adv-x="482" 
d="M127 426v-412h94q21 0 47.5 1.5t52.5 7.5q54 12 74 45q17 32 2 82q30 -17 38 -43.5t0 -51.5q-8 -23 -27.5 -39t-48.5 -16h-296q15 23 21 52t6 55v486q0 26 -6 55t-21 52h332l17 -114q-14 59 -42.5 79.5t-68.5 20.5h-174v-224q5 8 11.5 11t14.5 3q10 0 21 -5t23 -11
q14 -8 27 -14t27 -10q25 -8 51 -1q17 5 28.5 15.5t16.5 29.5q7 -8 10 -17.5t2 -18.5q-2 -17 -12 -30.5t-30 -17.5q-20 -5 -37 -2t-33 11q-14 7 -26.5 16t-26.5 19q-13 8 -24.5 14.5t-19.5 7.5q-11 2 -17 -5.5t-6 -30.5v0zM220 849q0 -17 -14.5 -30t-35.5 -13t-35.5 13
t-14.5 30q0 19 14.5 31.5t35.5 12.5t35.5 -12.5t14.5 -31.5zM383 849q0 -17 -15 -30t-35 -13q-21 0 -35.5 13t-14.5 30q0 19 14.5 31.5t35.5 12.5q20 0 35 -12.5t15 -31.5z" />
    <glyph glyph-name="Igrave" unicode="&#xcc;" horiz-adv-x="219" 
d="M64 0q15 23 21 52t6 55v486q0 26 -6 55t-21 52h90q-6 -10 -16.5 -34.5t-10.5 -72.5v-486q0 -48 10.5 -73t16.5 -34h-90zM162 741l-118 152h54l76 -152h-12z" />
    <glyph glyph-name="Iacute" unicode="&#xcd;" horiz-adv-x="219" 
d="M64 0q15 23 21 52t6 55v486q0 26 -6 55t-21 52h90q-6 -10 -16.5 -34.5t-10.5 -72.5v-486q0 -48 10.5 -73t16.5 -34h-90zM44 741l77 152h53l-118 -152h-12z" />
    <glyph glyph-name="Icircumflex" unicode="&#xce;" horiz-adv-x="219" 
d="M64 0q15 23 20.5 52t5.5 55v486q0 26 -5.5 55t-20.5 52h90q-7 -10 -17 -34.5t-10 -72.5v-486q0 -48 10 -73t17 -34h-90zM-4 741l80 152h65l80 -152h-12l-100 129l-101 -129h-12z" />
    <glyph glyph-name="Idieresis" unicode="&#xcf;" horiz-adv-x="218" 
d="M63 0q16 23 21.5 52t5.5 55v486q0 26 -5.5 55t-21.5 52h91q-6 -10 -16.5 -34.5t-10.5 -72.5v-486q0 -48 10.5 -73t16.5 -34h-91zM77 849q0 -17 -14.5 -30t-35.5 -13q-20 0 -35 13t-15 30q0 19 15 31.5t35 12.5q21 0 35.5 -12.5t14.5 -31.5zM240 849q0 -17 -14.5 -30
t-35.5 -13q-20 0 -35 13t-15 30q0 19 15 31.5t35 12.5q21 0 35.5 -12.5t14.5 -31.5z" />
    <glyph glyph-name="Eth" unicode="&#xd0;" horiz-adv-x="608" 
d="M292 368v-36h-116v-318h52q64 0 111.5 19t80.5 53q46 46 66.5 114.5t20.5 149.5t-20.5 149.5t-66.5 115.5q-33 33 -80.5 52t-111.5 19h-52v-318h116zM440 637q57 -50 84.5 -126t27.5 -161q0 -84 -28 -160.5t-84 -125.5q-33 -30 -77 -47t-100 -17h-150q15 23 21 52t6 55
v225h-110v36h110v225q0 26 -6 55t-21 52h150q56 0 100 -17t77 -46z" />
    <glyph glyph-name="Ntilde" unicode="&#xd1;" horiz-adv-x="583" 
d="M64 0q16 23 21.5 52t5.5 55v486q0 26 -5.5 55t-21.5 52h54l354 -608v501q0 26 -5.5 55t-20.5 52h74q-6 -10 -16 -34.5t-10 -72.5v-504q0 -13 -2 -28.5t-7.5 -29t-15.5 -22.5t-27 -9q-8 0 -14 2q12 2 18.5 9t7 17t-3 22t-11.5 24l-327 558v-525q0 -48 10 -73t17 -34h-75z
M113 832q28 45 76 57.5t99 -12.5q24 -12 47.5 -21t46.5 -10.5t43.5 7.5t38.5 35l7 -12q-13 -21 -33 -35.5t-43 -21t-48 -4t-50 14.5q-24 12 -48.5 21.5t-47.5 11t-43.5 -8t-38.5 -35.5z" />
    <glyph glyph-name="Ograve" unicode="&#xd2;" horiz-adv-x="673" 
d="M336 700q59 0 110.5 -27.5t90 -75t61 -111.5t22.5 -136t-22.5 -136t-61 -111.5t-90 -75t-110.5 -27.5q-58 0 -110 27.5t-90 75t-60.5 111.5t-22.5 136t22.5 136t60.5 111.5t90 75t110 27.5zM389 741l-118 152h54l77 -152h-13zM585 417q-17 63 -51.5 112.5t-79 82
t-96.5 44t-103 -2.5q-51 -13 -90 -49t-61.5 -86.5t-27.5 -111t12 -123.5t51 -112.5t79 -82t96.5 -44t103.5 2.5q51 14 90 50t61.5 86t27.5 110.5t-12 123.5z" />
    <glyph glyph-name="Oacute" unicode="&#xd3;" horiz-adv-x="673" 
d="M336 700q59 0 110.5 -27.5t90 -75t61 -111.5t22.5 -136t-22.5 -136t-61 -111.5t-90 -75t-110.5 -27.5q-58 0 -110 27.5t-90 75t-60.5 111.5t-22.5 136t22.5 136t60.5 111.5t90 75t110 27.5zM402 893l-118 -152h-13l77 152h54zM585 417q-17 63 -51 112.5t-79 82t-96.5 44
t-103.5 -2.5q-51 -13 -90 -49t-61.5 -86.5t-27.5 -111t12 -123.5t51 -112.5t79 -82t96.5 -44t103.5 2.5q51 14 90 50t61.5 86t27.5 110.5t-12 123.5z" />
    <glyph glyph-name="Ocircumflex" unicode="&#xd4;" horiz-adv-x="673" 
d="M336 700q59 0 110.5 -27.5t90 -75t61 -111.5t22.5 -136t-22.5 -136t-61 -111.5t-90 -75t-110.5 -27.5q-58 0 -110 27.5t-90 75t-60.5 111.5t-22.5 136t22.5 136t60.5 111.5t90 75t110 27.5zM236 741h-12l80 152h65l80 -152h-13l-100 129zM585 417q-17 63 -51.5 112.5
t-79 82t-96.5 44t-103 -2.5q-51 -13 -90 -49t-61.5 -86.5t-27.5 -111t12 -123.5t51 -112.5t79 -82t96.5 -44t103.5 2.5q51 14 90 50t61.5 86t27.5 110.5t-12 123.5z" />
    <glyph glyph-name="Otilde" unicode="&#xd5;" horiz-adv-x="673" 
d="M336 700q59 0 110.5 -27.5t90 -75t61 -111.5t22.5 -136t-22.5 -136t-61 -111.5t-90 -75t-110.5 -27.5q-58 0 -110 27.5t-90 75t-60.5 111.5t-22.5 136t22.5 136t60.5 111.5t90 75t110 27.5zM515 876q-13 -21 -33 -35.5t-43 -21t-48 -4t-50 14.5q-24 12 -48.5 21.5
t-47.5 11t-43.5 -8t-38.5 -35.5l-6 13q29 45 76.5 57.5t98.5 -12.5q24 -12 48 -21t46.5 -10.5t43.5 7.5t38 35zM585 417q-17 63 -51.5 112.5t-79 82t-96.5 44t-103 -2.5q-51 -13 -90 -49t-61.5 -86.5t-27.5 -111t12 -123.5t51 -112.5t78.5 -82t96.5 -44t103 2.5q52 14 91 50
t61.5 86t27.5 110.5t-12 123.5z" />
    <glyph glyph-name="Odieresis" unicode="&#xd6;" horiz-adv-x="673" 
d="M336 700q59 0 110.5 -27.5t90 -75t61 -111.5t22.5 -136t-22.5 -136t-61 -111.5t-90 -75t-110.5 -27.5q-58 0 -110 27.5t-90 75t-60.5 111.5t-22.5 136t22.5 136t60.5 111.5t90 75t110 27.5zM418 806q-21 0 -35.5 13t-14.5 30q0 19 14.5 31.5t35.5 12.5t35.5 -12.5
t14.5 -31.5q0 -17 -14.5 -30t-35.5 -13zM305 849q0 -17 -14.5 -30t-35.5 -13t-35.5 13t-14.5 30q0 19 14.5 31.5t35.5 12.5t35.5 -12.5t14.5 -31.5zM585 417q-17 63 -51.5 112.5t-79 82t-96.5 44t-103 -2.5q-51 -13 -90 -49t-61.5 -86.5t-27.5 -111t12 -123.5t51 -112.5
t79 -82t96.5 -44t103.5 2.5q51 14 90 50t61.5 86t27.5 110.5t-12 123.5z" />
    <glyph glyph-name="multiply" unicode="&#xd7;" horiz-adv-x="480" 
d="M47 516l26 26l166 -167l167 167l26 -26l-166 -167l166 -166l-26 -26l-167 166l-166 -166l-26 26l167 166z" />
    <glyph glyph-name="Oslash" unicode="&#xd8;" horiz-adv-x="684" 
d="M502 576q-50 51 -113.5 72.5t-127.5 4.5q-51 -13 -90 -49t-61.5 -86.5t-27.5 -111t12 -123.5q11 -42 29.5 -77.5t43.5 -64.5zM59 350q0 72 22.5 136t60.5 111.5t90 75t110 27.5q54 0 102 -23t86 -64l67 87h29l-81 -105q38 -48 59.5 -110.5t21.5 -134.5t-22.5 -136
t-61 -111.5t-90 -75t-110.5 -27.5q-54 0 -101.5 23t-85.5 64l-67 -87h-29l81 105q-38 48 -59.5 110.5t-21.5 134.5zM183 124q50 -51 113 -72.5t128 -4.5q51 14 90 50t61.5 86t27.5 110.5t-12 123.5q-22 82 -73 142z" />
    <glyph glyph-name="Ugrave" unicode="&#xd9;" horiz-adv-x="539" 
d="M122 200q0 -86 40 -132.5t118 -46.5q152 0 152 179v393q0 26 -5.5 55t-21.5 52h75q-6 -10 -16.5 -34.5t-10.5 -72.5v-398q0 -42 -9.5 -77.5t-30 -62t-53.5 -41t-80 -14.5q-95 0 -145 49.5t-50 138.5v405q0 26 -5.5 55t-21.5 52h90q-6 -10 -16 -34.5t-10 -72.5v-393z
M322 741l-118 152h54l76 -152h-12z" />
    <glyph glyph-name="Uacute" unicode="&#xda;" horiz-adv-x="539" 
d="M122 200q0 -86 40 -132.5t118 -46.5q152 0 152 179v393q0 26 -5.5 55t-21.5 52h75q-6 -10 -16.5 -34.5t-10.5 -72.5v-398q0 -42 -9.5 -77.5t-30 -62t-53.5 -41t-80 -14.5q-95 0 -145 49.5t-50 138.5v405q0 26 -5.5 55t-21.5 52h90q-6 -10 -16 -34.5t-10 -72.5v-393z
M204 741l77 152h53l-118 -152h-12z" />
    <glyph glyph-name="Ucircumflex" unicode="&#xdb;" horiz-adv-x="539" 
d="M122 200q0 -86 40 -132.5t118 -46.5q152 0 152 179v393q0 26 -5.5 55t-21.5 52h75q-6 -10 -16.5 -34.5t-10.5 -72.5v-398q0 -42 -9.5 -77.5t-30 -62t-53.5 -41t-80 -14.5q-95 0 -145 49.5t-50 138.5v405q0 26 -5.5 55t-21.5 52h90q-6 -10 -16 -34.5t-10 -72.5v-393z
M157 741l79 152h66l80 -152h-13l-100 129l-100 -129h-12z" />
    <glyph glyph-name="Udieresis" unicode="&#xdc;" horiz-adv-x="539" 
d="M122 200q0 -86 40.5 -132.5t117.5 -46.5q152 0 152 179v393q0 26 -5.5 55t-21.5 52h75q-6 -10 -16.5 -34.5t-10.5 -72.5v-398q0 -42 -9.5 -77.5t-30 -62t-53.5 -41t-80 -14.5q-95 0 -145 49.5t-50 138.5v405q0 26 -5.5 55t-21.5 52h90q-6 -10 -16 -34.5t-10 -72.5v-393z
M238 849q0 -17 -15 -30t-35 -13q-21 0 -35.5 13t-14.5 30q0 19 14.5 31.5t35.5 12.5q20 0 35 -12.5t15 -31.5zM401 849q0 -17 -15 -30t-35 -13q-21 0 -36 13t-15 30q0 19 15 31.5t36 12.5q20 0 35 -12.5t15 -31.5z" />
    <glyph glyph-name="Yacute" unicode="&#xdd;" horiz-adv-x="467" 
d="M259 258v-151q0 -47 10 -72t17 -34h-91q16 22 21.5 51t5.5 55v151l-147 349q-17 42 -33 64t-36 29h100q-17 -11 -16 -33t14 -51l146 -337q10 17 22.5 39.5t26 46.5t26.5 47.5t24 43.5q9 17 21.5 39t21.5 47q5 14 9.5 30t4.5 34q0 42 -19 63q-15 19 -35 22t-40 -5
q-17 -8 -32 -21.5t-24 -28.5q4 12 11 26.5t18 26.5t27.5 20t38.5 8q24 0 41.5 -9.5t28.5 -25.5t15 -36.5t0 -42.5q-5 -26 -14.5 -47.5t-20.5 -41.5zM179 741l77 152h53l-117 -152h-13z" />
    <glyph glyph-name="Thorn" unicode="&#xde;" horiz-adv-x="463" 
d="M64 0q15 23 21 52t6 55v486q0 26 -6 55.5t-21 52.5h90q-15 -23 -20.5 -52.5t-5.5 -55.5v-41h108q20 0 42.5 -2.5t41.5 -9.5q20 -6 40 -19q29 -19 46.5 -49t19.5 -67q3 -42 -11.5 -76t-43.5 -58q-30 -26 -76 -40q-13 -3 -28.5 -6t-28.5 -6q-15 -3 -29.5 -6.5t-28.5 -9.5
q-23 -11 -36 -26q-12 -13 -16 -29v-41q0 -26 5.5 -55t20.5 -52h-90zM128 170q7 18 19 29.5t28 19.5q14 8 29.5 12.5t31.5 9.5q13 4 28.5 8t27.5 9q18 8 32.5 18t25.5 23q33 38 32 98q-1 26 -8.5 49t-22.5 41q-8 10 -16 17t-17 13q-29 17 -62.5 19t-68.5 2h-59v-368z" />
    <glyph glyph-name="germandbls" unicode="&#xdf;" horiz-adv-x="505" 
d="M363 358q42 -23 66.5 -64.5t24.5 -93.5q1 -52 -24 -99.5t-75 -74.5q-33 -18 -72 -24q-19 -2 -34 -1.5t-33 7.5q-32 12 -46.5 36.5t-13.5 48.5t14.5 42t36.5 18q-15 -8 -21.5 -21t-6.5 -27.5t6 -29t17 -26.5q13 -14 32.5 -21.5t43.5 -2.5q34 6 60 22q39 23 57 64.5
t16 87.5q-2 41 -18 77.5t-45 60.5q-20 15 -44 23.5t-52 9.5q-21 1 -42 -3t-38 -13q-22 -11 -38 -30q-10 -11 -16 -28v-189q0 -37 -6 -58.5t-15 -32.5t-20.5 -13.5t-22.5 -2.5q16 23 21.5 52t5.5 55v448q0 30 10 56.5t28 46t44 31t58 11.5h38q30 0 57.5 -12t49 -32.5t35 -47
t15.5 -55.5q3 -42 -11.5 -76t-43.5 -58q-14 -11 -33.5 -22t-36.5 -16q38 -4 72 -23zM358 607q-14 30 -40 55t-59 25h-38q-21 0 -40 -10t-33 -28t-22 -42t-8 -52v-237q16 33 44.5 47.5t60.5 23.5q15 4 30 7.5t29 9.5q38 18 58 40q33 38 32 99q0 34 -14 62z" />
    <glyph glyph-name="agrave" unicode="&#xe0;" horiz-adv-x="484" 
d="M401 327v-166v-47t4 -43t13 -38t27 -32q-14 5 -25.5 10t-21.5 6.5t-18 -1.5t-16 -15v121q-5 -22 -19 -43.5t-35.5 -39t-51.5 -28t-68 -10.5q-31 0 -57 10t-44.5 27t-29.5 39.5t-13 47.5q-2 35 11.5 65.5t37.5 53.5q25 23 56 35q18 7 41.5 12t48 11t47.5 14.5t41 21.5
q16 12 25.5 29.5t9.5 42.5q0 23 -9 40t-24.5 28t-36 16.5t-43.5 5.5q-37 0 -70 -15q-18 -9 -31 -23t-18 -32q-5 -19 0.5 -38.5t25.5 -30.5q15 -8 32.5 -5t30.5 20q2 -10 -2.5 -19.5t-12.5 -16.5t-18.5 -10.5t-21.5 -2.5q-25 2 -45 19.5t-22 48.5q-1 23 9.5 45.5t33.5 38.5
q23 17 52 23t58 6q16 0 31.5 -1.5t29.5 -6.5q31 -9 53 -33q23 -26 31 -66q3 -18 3.5 -36t0.5 -38zM298 549l-118 152h54l77 -152h-13zM312 59q24 19 38 48t14 65v191q-10 -21 -28 -34q-23 -19 -50.5 -29.5t-56.5 -19.5q-19 -7 -34.5 -13t-29.5 -14q-11 -7 -21 -14t-18 -15
q-14 -14 -22 -28.5t-12 -30.5q-6 -26 0.5 -50.5t22.5 -43.5q17 -23 43 -33t54 -11q29 -1 54.5 7.5t45.5 24.5z" />
    <glyph glyph-name="aacute" unicode="&#xe1;" horiz-adv-x="484" 
d="M401 327v-166q0 -24 0.5 -47t4 -43t12.5 -38t27 -32q-14 5 -25.5 10t-21.5 6.5t-18 -1.5t-16 -15v121q-5 -22 -19 -43.5t-35.5 -39t-51.5 -28t-68 -10.5q-32 0 -57.5 10t-44.5 27t-29.5 39.5t-12.5 47.5q-2 35 11.5 65.5t37.5 53.5q25 23 56 35q18 7 41.5 12t48 11
t47.5 14.5t41 21.5q16 12 25.5 29.5t9.5 42.5q0 23 -9 40t-24.5 28t-36 16.5t-43.5 5.5q-37 0 -70 -15q-18 -9 -31 -23t-18 -32q-5 -19 0.5 -38.5t25.5 -30.5q15 -8 32.5 -5t30.5 20q2 -10 -2.5 -19.5t-12.5 -16.5t-18.5 -10.5t-21.5 -2.5q-25 2 -45 19.5t-22 48.5
q-1 23 9.5 45.5t33.5 38.5q23 17 52 23t57 6q17 0 32.5 -1.5t29.5 -6.5q31 -9 53 -33q23 -26 31 -66q3 -18 3.5 -36t0.5 -38zM180 549l77 152h53l-117 -152h-13zM312 59q24 19 38 48t14 65v191q-10 -21 -28 -34q-23 -19 -50.5 -29.5t-56.5 -19.5q-20 -7 -35 -13t-29 -14
q-11 -7 -21 -14t-18 -15q-14 -14 -22 -28.5t-12 -30.5q-6 -26 0.5 -50.5t22.5 -43.5q17 -23 43 -33t54 -11q29 -1 54.5 7.5t45.5 24.5z" />
    <glyph glyph-name="acircumflex" unicode="&#xe2;" horiz-adv-x="484" 
d="M401 327v-166v-47t4 -43t13 -38t27 -32q-14 5 -25.5 10t-21.5 6.5t-18 -1.5t-16 -15v121q-5 -22 -19 -43.5t-35.5 -39t-51.5 -28t-68 -10.5q-31 0 -57 10t-44.5 27t-29.5 39.5t-13 47.5q-2 35 11.5 65.5t37.5 53.5q25 23 56 35q18 7 41.5 12t48 11t47.5 14.5t41 21.5
q16 12 25.5 29.5t9.5 42.5q0 23 -9 40t-24.5 28t-36 16.5t-43.5 5.5q-37 0 -70 -15q-18 -9 -31 -23t-18 -32q-5 -19 0.5 -38.5t25.5 -30.5q15 -8 32.5 -5t30.5 20q2 -10 -2.5 -19.5t-12.5 -16.5t-18.5 -10.5t-21.5 -2.5q-25 2 -45 19.5t-22 48.5q-1 23 9.5 45.5t33.5 38.5
q23 17 52 23t58 6q16 0 31.5 -1.5t29.5 -6.5q31 -9 53 -33q23 -26 31 -66q3 -18 3.5 -36t0.5 -38zM133 549l80 152h65l80 -152h-13l-100 129l-100 -129h-12zM312 59q24 19 38 48t14 65v191q-10 -21 -28 -34q-23 -19 -50.5 -29.5t-56.5 -19.5q-19 -7 -34.5 -13t-29.5 -14
q-11 -7 -21 -14t-18 -15q-14 -14 -22 -28.5t-12 -30.5q-6 -26 0.5 -50.5t22.5 -43.5q17 -23 43 -33t54 -11q29 -1 54.5 7.5t45.5 24.5z" />
    <glyph glyph-name="atilde" unicode="&#xe3;" horiz-adv-x="484" 
d="M401 327v-166q0 -24 0.5 -47t4 -43t12.5 -38t27 -32q-14 5 -25.5 10t-21.5 6.5t-18 -1.5t-16 -15v121q-5 -22 -19 -43.5t-35.5 -39t-51.5 -28t-68 -10.5q-32 0 -57.5 10t-44.5 27t-29.5 39.5t-12.5 47.5q-2 35 11.5 65.5t37.5 53.5q25 23 56 35q18 7 41.5 12t48 11
t47.5 14.5t41 21.5q16 12 25.5 29.5t9.5 42.5q0 23 -9 40t-24.5 28t-36 16.5t-43.5 5.5q-37 0 -70 -15q-18 -9 -31 -23t-18 -32q-5 -19 0.5 -38.5t25.5 -30.5q15 -8 32.5 -5t30.5 20q2 -10 -2.5 -19.5t-12.5 -16.5t-18.5 -10.5t-21.5 -2.5q-25 2 -45 19.5t-22 48.5
q-1 23 9.5 45.5t33.5 38.5q23 17 52 23t58 6q16 0 31.5 -1.5t29.5 -6.5q31 -9 53 -33q23 -26 31 -66q3 -18 3.5 -36t0.5 -38zM67 639q27 45 75 58t99 -12q24 -12 47.5 -21t46.5 -10.5t43.5 7.5t38.5 35l7 -13q-13 -21 -33 -35.5t-43 -21t-48 -4t-50 14.5q-24 12 -48.5 21.5
t-47.5 11t-43.5 -8t-38.5 -35.5zM312 59q24 19 38 48t14 65v191q-10 -21 -28 -34q-23 -19 -50.5 -29.5t-56.5 -19.5q-20 -7 -35 -13t-29 -14q-11 -7 -21 -14t-18 -15q-14 -14 -22 -28.5t-12 -30.5q-6 -26 0.5 -50.5t22.5 -43.5q17 -23 43 -33t54 -11q29 -1 54.5 7.5
t45.5 24.5z" />
    <glyph glyph-name="adieresis" unicode="&#xe4;" horiz-adv-x="484" 
d="M401 327v-166v-47t4 -43t13 -38t27 -32q-14 5 -25.5 10t-21.5 6.5t-18 -1.5t-16 -15v121q-5 -22 -19 -43.5t-35.5 -39t-51.5 -28t-68 -10.5q-32 0 -57.5 10t-44.5 27t-29.5 39.5t-12.5 47.5q-2 35 11.5 65.5t37.5 53.5q25 23 56 35q18 7 41.5 12t48 11t47.5 14.5t41 21.5
q16 12 25.5 29.5t9.5 42.5q0 23 -9 40t-24.5 28t-36 16.5t-43.5 5.5q-37 0 -70 -15q-18 -9 -31 -23t-18 -32q-5 -19 0.5 -38.5t25.5 -30.5q15 -8 32.5 -5t30.5 20q2 -10 -2.5 -19.5t-12.5 -16.5t-18.5 -10.5t-21.5 -2.5q-25 2 -45 19.5t-22 48.5q-1 23 9.5 45.5t33.5 38.5
q23 17 52 23t58 6q16 0 31.5 -1.5t29.5 -6.5q31 -9 53 -33q23 -26 31 -66q3 -18 3.5 -36t0.5 -38zM214 657q0 -18 -14.5 -31t-35.5 -13t-35.5 13t-14.5 31q0 19 14.5 31.5t35.5 12.5t35.5 -12.5t14.5 -31.5zM377 657q0 -18 -15 -31t-35 -13q-21 0 -35.5 13t-14.5 31
q0 19 14.5 31.5t35.5 12.5q20 0 35 -12.5t15 -31.5zM312 59q24 19 38 48t14 65v191q-10 -21 -28 -34q-23 -19 -50.5 -29.5t-56.5 -19.5q-20 -7 -35 -13t-29 -14q-11 -7 -21.5 -14t-18.5 -15q-25 -25 -33 -59q-6 -26 0.5 -50.5t22.5 -43.5q17 -23 43 -33t54 -11
q29 -1 54.5 7.5t45.5 24.5z" />
    <glyph glyph-name="aring" unicode="&#xe5;" horiz-adv-x="484" 
d="M401 327v-166v-47t4 -43t13 -38t27 -32q-14 5 -25.5 10t-21.5 6.5t-18 -1.5t-16 -15v121q-5 -22 -19 -43.5t-35.5 -39t-52 -28t-68.5 -10.5q-31 0 -57 10t-44.5 27t-29 39.5t-12.5 47.5q-2 35 11.5 65.5t37.5 53.5q25 23 56 35q18 7 41.5 12t48 11t47.5 14.5t41 21.5
q16 12 25.5 29.5t9.5 42.5q0 23 -9 40t-24.5 28t-36 16.5t-43.5 5.5q-37 0 -70 -15q-18 -9 -31 -23t-18 -32q-5 -19 0.5 -38.5t25.5 -30.5q15 -8 32.5 -5t30.5 20q2 -10 -2.5 -19.5t-12.5 -16.5t-18.5 -10.5t-21.5 -2.5q-25 2 -45 19.5t-22 48.5q-1 23 9.5 45.5t33.5 38.5
q23 17 52 23t57 6q16 0 32 -1.5t30 -6.5q31 -9 53 -33q23 -26 31 -66q3 -18 3.5 -36t0.5 -38zM332 614q0 -36 -25.5 -61t-61.5 -25t-61 25t-25 61t25 61.5t61 25.5t61.5 -25.5t25.5 -61.5zM313 614q0 28 -19.5 48t-48.5 20q-28 0 -48 -20t-20 -48t20 -48t48 -20
q29 0 48.5 20t19.5 48zM312 59q24 19 38 48t14 65v191q-10 -21 -28 -34q-23 -19 -50.5 -29.5t-56.5 -19.5q-20 -7 -35.5 -13t-29.5 -14q-11 -7 -21 -14t-18 -15q-25 -25 -33 -59q-6 -26 0.5 -50.5t22.5 -43.5q17 -23 42.5 -33t54.5 -11t54.5 7.5t45.5 24.5z" />
    <glyph glyph-name="ae" unicode="&#xe6;" horiz-adv-x="794" 
d="M574 1q-34 0 -64.5 13t-56 36.5t-44 55.5t-28.5 70q-6 -42 -19.5 -72.5t-45.5 -58.5q-22 -20 -53.5 -32t-73.5 -12q-31 0 -57 10t-44.5 27t-29.5 39.5t-13 47.5q-2 35 11.5 65.5t37.5 53.5q25 23 56 35q18 7 41.5 12t48 11t47.5 14.5t41 21.5q16 12 25.5 29.5t9.5 42.5
q0 23 -9 40t-24.5 28t-36 16.5t-43.5 5.5q-37 0 -70 -15q-18 -9 -31 -23t-18 -32q-5 -19 0.5 -38.5t25.5 -30.5q15 -8 32.5 -5t30.5 20q2 -10 -2.5 -19.5t-12.5 -16.5t-18.5 -10.5t-21.5 -2.5q-25 2 -45 19.5t-22 48.5q-1 23 9.5 45.5t33.5 38.5q23 17 52 23t58 6
q16 0 31.5 -1.5t29.5 -6.5q31 -9 53 -33q23 -26 31 -66q1 -5 1.5 -9.5t0.5 -9.5q26 55 71 89q26 20 58.5 28.5t54.5 8.5q24 -1 49 -7t46 -18q29 -17 48 -46t19 -58q0 -20 -10.5 -37t-33.5 -27q-21 -9 -45.5 -11.5t-43.5 -3.5q-14 -1 -27 -0.5t-23 0.5h-161q-2 -45 10 -90
q20 -72 64.5 -120t98.5 -59q27 -5 53 -1.5t47.5 13.5t37.5 25t24 32l11 -8q-56 -91 -172 -91zM610 319q16 2 31 6t26 12q16 10 22.5 22t5.5 26q-1 20 -12.5 38t-27.5 31q-32 26 -74 29q-27 3 -54 -3.5t-50 -21.5q-32 -21 -51.5 -58.5t-24.5 -83.5h125h38.5t45.5 3zM363 363
q-10 -21 -28 -34q-23 -19 -50.5 -29.5t-56.5 -19.5q-19 -7 -34.5 -13t-29.5 -14q-11 -7 -21 -14t-18 -15q-14 -14 -22 -28.5t-12 -30.5q-6 -26 0.5 -50.5t22.5 -43.5q17 -23 43 -33t54 -11q29 -1 54.5 7.5t45.5 24.5q24 19 38 48t14 65v191z" />
    <glyph glyph-name="ccedilla" unicode="&#xe7;" horiz-adv-x="476" 
d="M242 -23q10 -2 16 -2.5t16 -5.5q19 -8 29 -21q16 -19 16 -47q0 -38 -30 -65q-31 -28 -80 -28q-20 0 -49 3v7q54 -8 84 13.5t37 49.5q3 14 0.5 28t-11.5 24t-24.5 15.5t-36.5 2.5l31 50q-39 4 -73.5 25t-60 55t-40 78.5t-14.5 94.5q0 69 26.5 126.5t71.5 90.5
q26 20 58.5 28.5t54.5 8.5q23 -1 44.5 -5t41.5 -13q26 -11 44 -31q29 -31 31 -74q2 -37 -23 -65q-21 -24 -56 -26q-26 -1 -47 14.5t-27 44.5q10 -11 21.5 -18.5t26.5 -9.5q27 -2 42.5 11.5t18.5 33.5q5 23 -6.5 48.5t-34.5 40.5q-16 11 -36 17.5t-41 8.5q-27 2 -54 -5
t-50 -22q-24 -16 -41.5 -42t-26.5 -59t-9 -70.5t10 -76.5q10 -36 26.5 -66t38 -53.5t47 -38.5t52.5 -21q27 -5 52.5 -1.5t47 13.5t37.5 25t24 32l11 -8q-56 -91 -171 -91z" />
    <glyph glyph-name="egrave" unicode="&#xe8;" horiz-adv-x="474" 
d="M427 92q-57 -91 -172 -91q-42 0 -79.5 20t-65 54t-43.5 80.5t-16 98.5q0 69 27 126.5t72 90.5q25 20 57.5 28.5t54.5 8.5q24 -1 49 -7t47 -18q29 -17 47.5 -46t19.5 -58q0 -20 -11 -37t-34 -27q-21 -9 -45 -11.5t-44 -3.5q-14 -1 -27 -0.5t-23 0.5h-161q-1 -22 1.5 -44.5
t9.5 -45.5q9 -36 26 -66t38.5 -53.5t46.5 -38.5t52 -21q27 -5 52.5 -1.5t47 13.5t38 25t24.5 32zM291 549l-117 152h53l77 -152h-13zM206 316h39.5t45.5 3q15 2 30 6t26 12q16 10 22.5 22t5.5 26q-1 20 -12 38t-28 31q-15 13 -34.5 20t-39.5 9q-56 6 -104 -25
q-32 -21 -51 -58.5t-24 -83.5h124z" />
    <glyph glyph-name="eacute" unicode="&#xe9;" horiz-adv-x="475" 
d="M427 92q-56 -91 -172 -91q-42 0 -79 20t-64.5 54t-43.5 80.5t-16 98.5q0 69 26.5 126.5t71.5 90.5q26 20 58.5 28.5t54.5 8.5q24 -1 49 -7t47 -18q29 -17 47.5 -46t18.5 -58q0 -20 -10.5 -37t-33.5 -27q-21 -9 -45.5 -11.5t-43.5 -3.5q-14 -1 -27 -0.5t-23 0.5h-161
q-2 -45 10 -90q20 -72 64.5 -120t98.5 -59q27 -5 53 -1.5t47.5 13.5t37.5 25t24 32zM175 549l76 152h54l-118 -152h-12zM207 316h39t46 3q15 2 30 6t26 12q16 10 22.5 22t5.5 26q-1 20 -12 38t-28 31q-32 26 -74 29q-56 6 -104 -25q-32 -21 -51.5 -58.5t-24.5 -83.5h125z
" />
    <glyph glyph-name="ecircumflex" unicode="&#xea;" horiz-adv-x="475" 
d="M427 92q-56 -91 -172 -91q-42 0 -79 20t-64.5 54t-43.5 80.5t-16 98.5q0 69 26.5 126.5t71.5 90.5q26 20 58.5 28.5t54.5 8.5q24 -1 49 -7t47 -18q29 -17 47.5 -46t18.5 -58q0 -20 -10.5 -37t-33.5 -27q-21 -9 -45.5 -11.5t-43.5 -3.5q-14 -1 -27 -0.5t-23 0.5h-161
q-2 -45 10 -90q20 -72 64.5 -120t98.5 -59q27 -5 53 -1.5t47.5 13.5t37.5 25t24 32zM127 549l80 152h65l80 -152h-12l-100 129l-100 -129h-13zM207 316h39t46 3q15 2 30 6t26 12q16 10 22.5 22t5.5 26q-1 20 -12 38t-28 31q-32 26 -74 29q-56 6 -104 -25
q-32 -21 -51.5 -58.5t-24.5 -83.5h125z" />
    <glyph glyph-name="edieresis" unicode="&#xeb;" horiz-adv-x="475" 
d="M427 92q-56 -91 -171 -91q-42 0 -79.5 20t-65 54t-43.5 80.5t-16 98.5q0 69 27 126.5t72 90.5q25 20 57.5 28.5t54.5 8.5q24 -1 49 -7t47 -18q29 -17 47.5 -46t18.5 -58q1 -20 -10 -37t-34 -27q-21 -9 -45.5 -11.5t-43.5 -3.5q-14 -1 -27 -0.5t-23 0.5h-161
q-2 -45 10 -90q10 -36 26.5 -66t38 -53.5t47 -38.5t52.5 -21q27 -5 52.5 -1.5t47 13.5t37.5 25t24 32zM208 657q0 -18 -14.5 -31t-35.5 -13q-20 0 -35 13t-15 31q0 19 15 31.5t35 12.5q21 0 35.5 -12.5t14.5 -31.5zM371 657q0 -18 -14.5 -31t-35.5 -13q-20 0 -35 13t-15 31
q0 19 15 31.5t35 12.5q21 0 35.5 -12.5t14.5 -31.5zM207 316h39t46 3q15 2 30 6t26 12q16 10 22.5 22t5.5 26q-1 20 -12 38t-28 31q-15 13 -34.5 20t-39.5 9q-56 6 -104 -25q-32 -21 -51 -58.5t-24 -83.5h124z" />
    <glyph glyph-name="igrave" unicode="&#xec;" horiz-adv-x="202" 
d="M120 107q0 -48 10.5 -73t16.5 -34h-90q15 23 21 52t6 55v262q0 18 -2 33.5t-5 26.5q-4 18 -10 29.5t-10 17.5q17 1 36 10.5t27 20.5v-400zM155 549l-118 152h53l77 -152h-12z" />
    <glyph glyph-name="iacute" unicode="&#xed;" horiz-adv-x="201" 
d="M119 107q0 -48 10.5 -73t16.5 -34h-90q15 23 21 52t6 55v262q0 18 -2 33.5t-5 26.5q-4 18 -10 29.5t-10 17.5q17 1 36 10.5t27 20.5v-400zM36 549l77 152h53l-117 -152h-13z" />
    <glyph glyph-name="icircumflex" unicode="&#xee;" horiz-adv-x="202" 
d="M120 107q0 -48 10 -73t17 -34h-91q16 23 21.5 52t5.5 55v262q0 18 -2 33.5t-4 26.5q-5 18 -10.5 29.5t-10.5 17.5q17 1 36.5 10.5t27.5 20.5v-400zM-11 549l80 152h65l80 -152h-12l-101 129l-100 -129h-12z" />
    <glyph glyph-name="idieresis" unicode="&#xef;" horiz-adv-x="201" 
d="M120 107q0 -48 10 -73t17 -34h-91q16 23 21.5 52t5.5 55v262q0 18 -2 33.5t-4 26.5q-5 18 -11 29.5t-10 17.5q17 1 36.5 10.5t27.5 20.5v-400zM70 657q0 -18 -14.5 -31t-35.5 -13t-35.5 13t-14.5 31q0 19 14.5 31.5t35.5 12.5t35.5 -12.5t14.5 -31.5zM233 657
q0 -18 -14.5 -31t-35.5 -13t-35.5 13t-14.5 31q0 19 14.5 31.5t35.5 12.5t35.5 -12.5t14.5 -31.5z" />
    <glyph glyph-name="eth" unicode="&#xf0;" horiz-adv-x="518" 
d="M459 254q0 -52 -16 -98.5t-43.5 -80.5t-65 -54t-79.5 -20t-79 20t-64.5 54t-43.5 80.5t-16 98.5q0 53 16 99t43.5 80.5t64.5 54.5t79 20q29 0 56.5 -10t50.5 -28q-8 47 -30 84t-51 66l-165 -61l-13 34l145 54q-44 32 -91 46l3 8q64 -9 118 -43l117 43l13 -35l-94 -34
q68 -59 106.5 -155.5t38.5 -214.5v-8zM91 210q12 -46 36 -82.5t54.5 -60.5t65 -33.5t68.5 -0.5t59 34.5t39.5 61.5t16.5 79.5t-10 89.5t-36 82.5t-54.5 60.5t-65 33.5t-68.5 0.5t-59 -34.5t-39 -61.5t-16.5 -79.5t9.5 -89.5z" />
    <glyph glyph-name="ntilde" unicode="&#xf1;" horiz-adv-x="495" 
d="M416 337v-230q0 -48 10.5 -73t16.5 -34h-90q15 23 21 52t6 55q0 62 -0.5 116t-0.5 116q0 32 -9 61t-28 50q-16 18 -37 27.5t-44 10.5q-32 2 -58 -9.5t-44.5 -32.5t-28.5 -49t-10 -58v-232q0 -48 10 -73t16 -34h-90q16 23 21.5 52t5.5 55v262q0 18 -2 33.5t-4 26.5
q-5 18 -11 29.5t-10 17.5q17 1 36 10.5t28 20.5v-100q9 24 23.5 42.5t33.5 31t40 19t43 7.5q28 2 54.5 -6.5t48.5 -28.5q26 -23 39.5 -58t13.5 -77zM71 639q28 45 75.5 58t98.5 -12q24 -12 48 -21t47 -10.5t43.5 7.5t38.5 35l6 -13q-13 -21 -32.5 -35.5t-42.5 -21t-48.5 -4
t-50.5 14.5q-24 12 -48 21.5t-47 11t-43.5 -8t-38.5 -35.5z" />
    <glyph glyph-name="ograve" unicode="&#xf2;" horiz-adv-x="510" 
d="M458 254q0 -52 -16 -98.5t-43.5 -80.5t-64.5 -54t-79 -20t-79.5 20t-65 54t-43.5 80.5t-16 98.5q0 53 16 99t43.5 80.5t65 54.5t79.5 20t79 -20t64.5 -54.5t43.5 -80.5t16 -99zM307 549l-117 152h53l77 -152h-13zM90 210q12 -46 36 -82.5t54.5 -60.5t65 -33.5t68.5 -0.5
t59 34.5t39.5 61.5t16.5 79.5t-10 89.5t-36 82.5t-54.5 60.5t-65 33.5t-68.5 0.5t-59 -34.5t-39 -61.5t-16.5 -79.5t9.5 -89.5z" />
    <glyph glyph-name="oacute" unicode="&#xf3;" horiz-adv-x="510" 
d="M458 254q0 -52 -16 -98.5t-43.5 -80.5t-64.5 -54t-79 -20t-79.5 20t-65 54t-43.5 80.5t-16 98.5q0 53 16 99t43.5 80.5t65 54.5t79.5 20t79 -20t64.5 -54.5t43.5 -80.5t16 -99zM190 549l76 152h54l-118 -152h-12zM91 210q12 -46 35.5 -82.5t54 -60.5t65 -33.5t68.5 -0.5
t59 34.5t39.5 61.5t16.5 79.5t-10 89.5t-36 82.5t-54.5 60.5t-65 33.5t-68.5 0.5t-59 -34.5t-39 -61.5t-16 -79.5t10 -89.5z" />
    <glyph glyph-name="ocircumflex" unicode="&#xf4;" horiz-adv-x="510" 
d="M458 254q0 -52 -16 -98.5t-43.5 -80.5t-64.5 -54t-79 -20t-79.5 20t-65 54t-43.5 80.5t-16 98.5q0 53 16 99t43.5 80.5t65 54.5t79.5 20t79 -20t64.5 -54.5t43.5 -80.5t16 -99zM142 549l80 152h65l80 -152h-12l-100 129l-100 -129h-13zM91 210q12 -46 35.5 -82.5
t54 -60.5t65 -33.5t68.5 -0.5t59 34.5t39.5 61.5t16.5 79.5t-10 89.5t-36 82.5t-54.5 60.5t-65 33.5t-68.5 0.5t-59 -34.5t-39 -61.5t-16 -79.5t10 -89.5z" />
    <glyph glyph-name="otilde" unicode="&#xf5;" horiz-adv-x="511" 
d="M458 254q0 -52 -16 -98.5t-43.5 -80.5t-64.5 -54t-79 -20t-79.5 20t-65 54t-43.5 80.5t-16 98.5q0 53 16 99t43.5 80.5t65 54.5t79.5 20t79 -20t64.5 -54.5t43.5 -80.5t16 -99zM76 639q28 45 75.5 58t98.5 -12q24 -12 48 -21t46.5 -10.5t43.5 7.5t39 35l6 -13
q-13 -21 -32.5 -35.5t-42.5 -21t-48.5 -4t-50.5 14.5q-24 12 -48 21.5t-47 11t-44 -8t-38 -35.5zM90 210q12 -46 36 -82.5t54.5 -60.5t65 -33.5t68.5 -0.5t59 34.5t39.5 61.5t16.5 79.5t-10 89.5t-36 82.5t-54.5 60.5t-65 33.5t-68.5 0.5t-59 -34.5t-39 -61.5t-16.5 -79.5
t9.5 -89.5z" />
    <glyph glyph-name="odieresis" unicode="&#xf6;" horiz-adv-x="510" 
d="M458 254q0 -52 -16 -98.5t-43.5 -80.5t-64.5 -54t-79 -20t-79.5 20t-65 54t-43.5 80.5t-16 98.5q0 53 16 99t43.5 80.5t65 54.5t79.5 20t79 -20t64.5 -54.5t43.5 -80.5t16 -99zM223 657q0 -18 -14.5 -31t-35.5 -13q-20 0 -35 13t-15 31q0 19 15 31.5t35 12.5
q21 0 35.5 -12.5t14.5 -31.5zM386 657q0 -18 -14.5 -31t-35.5 -13q-20 0 -35 13t-15 31q0 19 15 31.5t35 12.5q21 0 35.5 -12.5t14.5 -31.5zM91 210q12 -46 35.5 -82.5t54 -60.5t65 -33.5t68.5 -0.5t59 34.5t39.5 61.5t16.5 79.5t-10 89.5t-36 82.5t-54.5 60.5t-65 33.5
t-68.5 0.5t-59 -34.5t-39 -61.5t-16 -79.5t10 -89.5z" />
    <glyph glyph-name="divide" unicode="&#xf7;" horiz-adv-x="440" 
d="M20 331v37h400v-37h-400zM220 516q-21 0 -35.5 12.5t-14.5 30.5q0 19 14.5 31.5t35.5 12.5t35.5 -12.5t14.5 -31.5q0 -18 -14.5 -30.5t-35.5 -12.5zM220 183q21 0 35.5 -12t14.5 -31q0 -18 -14.5 -31t-35.5 -13t-35.5 13t-14.5 31q0 19 14.5 31t35.5 12z" />
    <glyph glyph-name="oslash" unicode="&#xf8;" horiz-adv-x="519" 
d="M463 254q0 -52 -16 -98.5t-43.5 -80.5t-65 -54t-79.5 -20q-37 0 -70.5 15.5t-59.5 43.5l-44 -59h-29l57 77q-26 34 -41.5 79.5t-15.5 96.5q0 53 16 99t43.5 80.5t64.5 54.5t79 20q38 0 71.5 -15.5t59.5 -43.5l44 59h29l-57 -77q26 -35 41.5 -80t15.5 -97zM155 95
q35 -38 78 -55.5t86 -6.5q34 9 59 34.5t39.5 61.5t16.5 79.5t-10 89.5q-8 28 -19.5 52t-26.5 44zM364 413q-35 39 -78 56t-86 6q-34 -9 -59 -34.5t-39 -61.5t-16.5 -79.5t9.5 -89.5q15 -54 46 -96z" />
    <glyph glyph-name="ugrave" unicode="&#xf9;" 
d="M51 476q17 1 36 10.5t28 20.5v-339q0 -32 9 -61t28 -50q16 -18 37 -27t44 -11q32 -2 58 9.5t45 32.5t29 49t10 58v201q0 18 -2 33.5t-5 26.5q-4 18 -10 29.5t-10 17.5q17 1 36 10.5t27 20.5v-369q0 -18 2 -33t5 -26q4 -19 10 -30.5t10 -17.5q-17 -1 -36 -10.5t-27 -19.5
v99q-9 -24 -23.5 -42.5t-33.5 -31t-40.5 -19t-42.5 -7.5q-29 -2 -55.5 7t-48.5 28q-26 24 -39.5 58.5t-13.5 76.5v199q0 18 -2 33.5t-4 26.5q-5 18 -11 29.5t-10 17.5zM297 549l-117 152h53l77 -152h-13z" />
    <glyph glyph-name="uacute" unicode="&#xfa;" horiz-adv-x="493" 
d="M51 476q17 1 36 10.5t27 20.5q0 -85 0.5 -169.5t0.5 -169.5q0 -32 9 -61t28 -50q16 -18 37 -27t44 -11q32 -2 58 9.5t45 32.5t29 49t10 58v201q0 18 -2 33.5t-5 26.5q-4 18 -10 29.5t-10 17.5q17 1 36 10.5t27 20.5v-369q0 -18 2 -33t4 -26q5 -19 11 -30.5t10 -17.5
q-17 -1 -36 -10.5t-27 -19.5v99q-18 -49 -57.5 -73.5t-83.5 -26.5q-28 -2 -55 7t-48 28q-26 24 -39.5 58.5t-13.5 76.5v199q0 18 -2 33.5t-5 26.5q-4 18 -10 29.5t-10 17.5zM179 549l77 152h53l-117 -152h-13z" />
    <glyph glyph-name="ucircumflex" unicode="&#xfb;" 
d="M51 476q17 1 36 10.5t28 20.5v-339q0 -32 9 -61t28 -50q16 -18 37 -27t44 -11q32 -2 58 9.5t45 32.5t29 49t10 58v201q0 18 -2 33.5t-5 26.5q-4 18 -10 29.5t-10 17.5q17 1 36 10.5t27 20.5v-369q0 -18 2 -33t4 -26q5 -19 11 -30.5t10 -17.5q-17 -1 -36 -10.5t-27 -19.5
v99q-18 -49 -57.5 -73.5t-83.5 -26.5q-28 -2 -54.5 7t-48.5 28q-26 24 -39.5 58.5t-13.5 76.5v199q0 18 -2 33.5t-5 26.5q-4 18 -10 29.5t-10 17.5zM132 549l80 152h65l80 -152h-12l-100 129l-101 -129h-12z" />
    <glyph glyph-name="udieresis" unicode="&#xfc;" horiz-adv-x="493" 
d="M51 476q17 1 36 10.5t27 20.5q0 -85 0.5 -169.5t0.5 -169.5q0 -32 9 -61t28 -50q16 -18 37 -27t44 -11q32 -2 58 9.5t45 32.5t29 49t10 58v201q0 18 -2 33.5t-5 26.5q-4 18 -10 29.5t-10 17.5q17 1 36 10.5t27 20.5v-369q0 -18 2 -33t4 -26q5 -19 11 -30.5t10 -17.5
q-17 -1 -36 -10.5t-27 -19.5v99q-18 -49 -57.5 -73.5t-83.5 -26.5q-28 -2 -55 7t-48 28q-26 24 -39.5 58.5t-13.5 76.5v199q0 18 -2 33.5t-5 26.5q-4 18 -10 29.5t-10 17.5zM213 657q0 -18 -14.5 -31t-35.5 -13t-35.5 13t-14.5 31q0 19 14.5 31.5t35.5 12.5t35.5 -12.5
t14.5 -31.5zM376 657q0 -18 -14.5 -31t-35.5 -13t-35.5 13t-14.5 31q0 19 14.5 31.5t35.5 12.5t35.5 -12.5t14.5 -31.5z" />
    <glyph glyph-name="yacute" unicode="&#xfd;" horiz-adv-x="408" 
d="M79 -192q-30 0 -48 15.5t-24.5 36t-1 40.5t22.5 30q-5 -16 -3 -30t8.5 -24.5t17.5 -17.5t24 -8q23 -2 49.5 17.5t47.5 68.5l28 64h-7l-123 435q-8 29 -21.5 48.5t-32.5 23.5h106q-17 -7 -18.5 -25.5t6.5 -46.5l108 -387q4 9 11.5 29t17.5 45.5t20.5 55t20.5 56.5t18 50
t12 36q10 29 16.5 61t1.5 58q-4 23 -18 35t-31 13.5t-35 -6.5t-31 -25q6 22 22 40q24 26 58 24q16 0 30 -7t23 -21q10 -14 12 -34t-2 -43q-5 -26 -13.5 -52.5t-16.5 -47.5l-116 -315l-27 -62q-8 -18 -17.5 -41t-22.5 -42.5t-30.5 -33t-41.5 -13.5zM183 549l76 152h54
l-118 -152h-12z" />
    <glyph glyph-name="thorn" unicode="&#xfe;" horiz-adv-x="544" 
d="M113 385q27 55 73 89t102 34q42 0 79 -20t65 -54.5t44 -80.5t16 -99q0 -52 -16 -98.5t-44 -81t-65 -54.5t-79 -20q-56 0 -102 34t-73 89v-178q0 -18 2 -33t5 -26q4 -19 10 -30.5t10 -17.5q-17 -1 -36 -10.5t-27 -19.5v743q0 23 -0.5 44t-5 40t-13 36t-25.5 30h1
q14 -4 25 -8.5t20.5 -6.5t17.5 1t16 14v-316zM452 298q-12 46 -36 82.5t-54 60.5t-64.5 33.5t-68.5 0.5q-27 -7 -48 -24.5t-36 -42t-23.5 -55t-8.5 -64.5q0 -37 11 -79q12 -46 35.5 -82.5t54 -60.5t65 -33.5t68.5 -0.5t59.5 34.5t39.5 61.5t16 79.5t-10 89.5z" />
    <glyph glyph-name="ydieresis" unicode="&#xff;" horiz-adv-x="408" 
d="M79 -192q-30 0 -48 15.5t-24.5 36t-1 40.5t22.5 30q-5 -16 -3 -30t8.5 -24.5t17.5 -17.5t24 -8q23 -2 49.5 17.5t47.5 68.5l28 64h-7l-123 435q-8 29 -21.5 48.5t-32.5 23.5h106q-17 -7 -18.5 -25.5t6.5 -46.5l108 -387q4 9 11.5 29t17.5 45.5t20.5 55t20.5 56.5t18 50
t12 36q10 29 16.5 61t1.5 58q-4 23 -18 35t-31 13.5t-35 -6.5t-31 -25q6 22 22 40q24 26 58 24q16 0 30 -7t23 -21q10 -14 12 -34t-2 -43q-5 -26 -13.5 -52.5t-16.5 -47.5l-116 -315l-27 -62q-8 -18 -17.5 -41t-22.5 -42.5t-30.5 -33t-41.5 -13.5zM181 657q0 -18 -15 -31
t-35 -13q-21 0 -35.5 13t-14.5 31q0 19 14.5 31.5t35.5 12.5q20 0 35 -12.5t15 -31.5zM344 657q0 -18 -15 -31t-35 -13q-21 0 -36 13t-15 31q0 19 15 31.5t36 12.5q20 0 35 -12.5t15 -31.5z" />
    <glyph glyph-name="Amacron" unicode="&#x100;" horiz-adv-x="516" 
d="M268 700l175 -603q5 -15 10 -30.5t12.5 -29t17.5 -23.5t24 -14h-119q15 6 21.5 16t7 23t-3 29t-8.5 34l-13 46h-198q-18 0 -32 -1t-25.5 -6t-20 -15t-14.5 -27q-2 -8 -4 -14.5t-4 -13.5q-7 -24 -6.5 -42t17.5 -29h-88q24 14 40 42t24 54zM90 799v37h344v-37h-344z
M261 606q-46 -158 -83.5 -272t-63.5 -199q13 24 32.5 31t44.5 7h193z" />
    <glyph glyph-name="amacron" unicode="&#x101;" horiz-adv-x="484" 
d="M401 327v-166v-47t4 -43t13 -38t27 -32q-14 5 -25.5 10t-21.5 6.5t-18 -1.5t-16 -15v121q-5 -22 -19 -43.5t-35.5 -39t-51.5 -28t-68 -10.5q-32 0 -57.5 10t-44.5 27t-29.5 39.5t-12.5 47.5q-2 35 11.5 65.5t37.5 53.5q25 23 56 35q18 7 41.5 12t48 11t47.5 14.5t41 21.5
q16 12 25.5 29.5t9.5 42.5q0 23 -9 40t-24.5 28t-36 16.5t-43.5 5.5q-37 0 -70 -15q-18 -9 -31 -23t-18 -32q-5 -19 0.5 -38.5t25.5 -30.5q15 -8 32.5 -5t30.5 20q2 -10 -2.5 -19.5t-12.5 -16.5t-18.5 -10.5t-21.5 -2.5q-25 2 -45 19.5t-22 48.5q-1 23 9.5 45.5t33.5 38.5
q23 17 52 23t58 6q16 0 31.5 -1.5t29.5 -6.5q31 -9 53 -33q23 -26 31 -66q3 -18 3.5 -36t0.5 -38zM73 606v37h345v-37h-345zM312 59q24 19 38 48t14 65v191q-10 -21 -28 -34q-23 -19 -50.5 -29.5t-56.5 -19.5q-20 -7 -35 -13t-29 -14q-11 -7 -21 -14t-18 -15
q-14 -14 -22 -28.5t-12 -30.5q-6 -26 0.5 -50.5t22.5 -43.5q17 -23 43 -33t54 -11q29 -1 54.5 7.5t45.5 24.5z" />
    <glyph glyph-name="Abreve" unicode="&#x102;" horiz-adv-x="516" 
d="M268 700l174 -603q5 -15 10.5 -30.5t12.5 -29t17 -23.5t24 -14h-118q15 6 21.5 16t7 23t-3.5 29t-9 34l-13 46h-197q-18 0 -32 -1t-25.5 -6t-20 -15t-14.5 -27q-2 -8 -4 -14.5t-4 -13.5q-7 -24 -6.5 -42t17.5 -29h-88q24 14 40 42t24 54zM262 741q-43 0 -71 16t-44 39.5
t-22 50t-6 46.5h14q0 -18 8 -38.5t24 -37t40 -27.5t57 -11q32 0 56.5 11t40.5 27.5t24 37t8 38.5h13q0 -20 -6 -46.5t-22 -50t-43.5 -39.5t-70.5 -16zM261 606q-46 -158 -83.5 -272t-64.5 -199q13 24 33 31t45 7h193z" />
    <glyph glyph-name="abreve" unicode="&#x103;" horiz-adv-x="484" 
d="M401 327v-166q0 -24 0.5 -47t4 -43t12.5 -38t27 -32q-14 5 -25.5 10t-21.5 6.5t-18 -1.5t-16 -15v121q-5 -22 -19 -43.5t-35.5 -39t-52 -28t-68.5 -10.5q-31 0 -57 10t-44.5 27t-29 39.5t-12.5 47.5q-2 35 11.5 65.5t37.5 53.5q25 23 56 35q18 7 41.5 12t48 11t47.5 14.5
t41 21.5q16 12 25.5 29.5t9.5 42.5q0 23 -9 40t-24.5 28t-36 16.5t-43.5 5.5q-37 0 -70 -15q-18 -9 -31 -23t-18 -32q-5 -19 0.5 -38.5t25.5 -30.5q15 -8 32.5 -5t30.5 20q2 -10 -2.5 -19.5t-12.5 -16.5t-18.5 -10.5t-21.5 -2.5q-25 2 -45 19.5t-22 48.5q-1 23 9.5 45.5
t33.5 38.5q23 17 52 23t57 6q16 0 32 -1.5t30 -6.5q31 -9 53 -33q23 -26 31 -66q3 -18 3.5 -36t0.5 -38zM245 549q-43 0 -70.5 16t-43.5 39.5t-22 50t-6 46.5h13q0 -18 8 -38.5t24 -37.5t40.5 -28t56.5 -11q33 0 57 11t40 28t24 37.5t8 38.5h14q0 -20 -6 -46.5t-22 -50
t-44 -39.5t-71 -16zM312 59q24 19 38 48t14 65v191q-10 -21 -28 -34q-23 -19 -50.5 -29.5t-56.5 -19.5q-20 -7 -35.5 -13t-29.5 -14q-11 -7 -21 -14t-18 -15q-25 -25 -33 -59q-6 -26 0.5 -50.5t22.5 -43.5q17 -23 43 -33t54 -11q29 -1 54.5 7.5t45.5 24.5z" />
    <glyph glyph-name="Aogonek" unicode="&#x104;" horiz-adv-x="524" 
d="M268 700l175 -603q5 -15 10 -30.5t12 -29t17 -23.5t24 -14h-48q-7 -7 -13 -13.5t-13 -13.5q-10 -11 -19 -23t-16 -24q-8 -16 -11 -33t6 -34q6 -12 16.5 -19t23 -9t26.5 2.5t27 15.5l3 -5q-11 -15 -28.5 -26t-40.5 -11q-28 0 -45 14q-24 19 -26 48q-1 18 6 36t19 32
q11 14 24 25t26 21q5 5 10.5 8.5t10.5 8.5h-56q15 6 21.5 16t7 23t-3 29t-8.5 34l-13 46h-198q-18 0 -32 -1t-25.5 -6t-20 -15t-14.5 -27q-2 -8 -4 -14.5t-4 -13.5q-7 -24 -6.5 -42t17.5 -29h-88q24 14 40 42t24 54zM261 606q-46 -158 -83.5 -272t-64.5 -199q14 24 33.5 31
t44.5 7h193z" />
    <glyph glyph-name="aogonek" unicode="&#x105;" horiz-adv-x="485" 
d="M401 327v-166v-47t4 -43t13 -38t27 -32q-7 2 -13 5t-12 5q-8 -9 -17.5 -18.5t-17.5 -19.5q-11 -11 -19.5 -22.5t-15.5 -24.5q-9 -16 -11.5 -32.5t5.5 -33.5q6 -12 16.5 -19t23.5 -9t27 2t27 15l3 -5q-12 -14 -29 -25t-41 -11q-26 0 -45 14q-13 9 -18.5 21.5t-6.5 26.5
q-1 18 6 35.5t18 31.5t24.5 25t26.5 22q9 8 18 15t19 14q-15 6 -26.5 5t-22.5 -17v121q-5 -22 -19 -43.5t-35.5 -39t-51.5 -28t-68 -10.5q-31 0 -57 10t-44.5 27t-29.5 39.5t-13 47.5q-2 35 11.5 65.5t37.5 53.5q25 23 56 35q18 7 41.5 12t48 11t47.5 14.5t41 21.5
q16 12 25.5 29.5t9.5 42.5q0 23 -9 40t-24.5 28t-36 16.5t-43.5 5.5q-37 0 -70 -15q-18 -9 -31 -23t-18 -32q-5 -19 0.5 -38.5t25.5 -30.5q15 -8 32.5 -5t30.5 20q2 -10 -2.5 -19.5t-12.5 -16.5t-18.5 -10.5t-21.5 -2.5q-25 2 -45 19.5t-22 48.5q-1 23 9.5 45.5t33.5 38.5
q23 17 52 23t58 6q16 0 31.5 -1.5t29.5 -6.5q31 -9 53 -33q23 -26 31 -66q3 -18 3.5 -36t0.5 -38zM312 59q24 19 38 48t14 65v191q-10 -21 -28 -34q-23 -19 -50.5 -29.5t-56.5 -19.5q-19 -7 -34.5 -13t-29.5 -14q-11 -7 -21 -14t-18 -15q-14 -14 -22 -28.5t-12 -30.5
q-5 -26 1 -50.5t22 -43.5q17 -23 43 -33t54 -11q29 -1 54.5 7.5t45.5 24.5z" />
    <glyph glyph-name="Cacute" unicode="&#x106;" horiz-adv-x="635" 
d="M585 515q-2 -14 -10 -25t-24 -19q-16 48 -46 94q-16 24 -37 44.5t-46 35.5t-54 22.5t-61 5.5q-36 -2 -72 -18.5t-68 -46.5q-31 -29 -50.5 -67.5t-28 -82t-7 -88t12.5 -85.5q17 -63 51 -114t78.5 -84t95 -45t100.5 1q55 15 95 57t60 100v-41q-38 -72 -100.5 -115.5
t-137.5 -43.5q-58 0 -110 27.5t-90 75t-60.5 111.5t-22.5 136t22.5 136t60.5 111.5t90 75t110 27.5q31 -1 60 -6.5t55 -16.5t59 -36t54 -56q12 -17 18 -35t3 -35zM255 741l76 152h54l-118 -152h-12z" />
    <glyph glyph-name="cacute" unicode="&#x107;" horiz-adv-x="476" 
d="M427 92q-56 -91 -172 -91q-42 0 -79 20t-64.5 54t-43.5 80.5t-16 98.5q0 69 26.5 126.5t71.5 90.5q26 20 58.5 28.5t54.5 8.5q23 -1 44.5 -5t41.5 -13q26 -11 44 -31q29 -31 31 -74q2 -37 -23 -65q-21 -24 -56 -26q-26 -1 -47 14.5t-27 44.5q10 -11 21 -18.5t27 -9.5
q27 -2 42.5 11.5t18.5 33.5q5 23 -6.5 48.5t-34.5 40.5q-16 11 -36 17.5t-41 8.5q-27 2 -54 -5t-50 -22q-24 -16 -41.5 -42t-26.5 -59t-9 -70.5t10 -76.5q20 -72 64.5 -120t98.5 -59q27 -5 53 -1.5t47.5 13.5t37.5 25t24 32zM175 549l76 152h54l-118 -152h-12z" />
    <glyph glyph-name="Ccircumflex" unicode="&#x108;" horiz-adv-x="634" 
d="M585 515q-2 -14 -10 -25t-24 -19q-16 48 -46 94q-17 24 -38 44.5t-45.5 35.5t-53.5 22.5t-61 5.5q-75 -5 -140 -65q-31 -29 -50.5 -67.5t-28 -82t-7 -88t12.5 -85.5q17 -63 51 -114t78 -84t95 -45t101 1q55 15 95 57t60 100v-41q-38 -72 -100.5 -115.5t-137.5 -43.5
q-58 0 -110 27.5t-90 75t-60.5 111.5t-22.5 136t22.5 136t60.5 111.5t90 75t110 27.5q30 -1 59 -6.5t56 -16.5q26 -10 59 -35.5t54 -56.5q12 -17 18 -35t3 -35zM207 741l80 152h65l80 -152h-13l-100 129l-100 -129h-12z" />
    <glyph glyph-name="Cdotaccent" unicode="&#x10a;" horiz-adv-x="635" 
d="M585 515q-2 -14 -10 -25t-24 -19q-16 48 -46 94q-16 24 -37 44.5t-46 35.5t-54 22.5t-61 5.5q-36 -2 -72 -18.5t-68 -46.5q-31 -29 -50.5 -67.5t-28 -82t-7 -88t12.5 -85.5q17 -63 51 -114t78.5 -84t95 -45t100.5 1q55 15 95 57t60 100v-41q-38 -72 -100.5 -115.5
t-137.5 -43.5q-58 0 -110 27.5t-90 75t-60.5 111.5t-22.5 136t22.5 136t60.5 111.5t90 75t110 27.5q30 -1 59.5 -6.5t55.5 -16.5t59 -36t54 -56q12 -17 18 -35t3 -35zM370 849q0 -17 -15 -30t-35 -13q-21 0 -36 13t-15 30q0 19 15 31.5t36 12.5q20 0 35 -12.5t15 -31.5z" />
    <glyph glyph-name="cdotaccent" unicode="&#x10b;" horiz-adv-x="475" 
d="M427 92q-57 -91 -172 -91q-42 0 -79.5 20t-65 54t-43.5 80.5t-16 98.5q0 69 27 126.5t72 90.5q25 20 57.5 28.5t54.5 8.5q23 -1 44.5 -5t41.5 -13q25 -10 44 -31q14 -15 22.5 -34.5t8.5 -39.5q2 -37 -22 -65q-11 -11 -25.5 -18t-31.5 -8q-26 -1 -47 14.5t-27 44.5
q11 -11 22 -18.5t26 -9.5q28 -2 43 11.5t19 33.5q4 23 -7.5 48.5t-34.5 40.5q-16 11 -36 17.5t-41 8.5q-27 2 -54 -5t-50 -22q-24 -16 -41.5 -42t-26.5 -59t-9 -70.5t10 -76.5q10 -36 26.5 -66t38.5 -53.5t47 -38.5t52 -21q27 -5 52.5 -1.5t47 13.5t37.5 25t24 32zM289 657
q0 -18 -14.5 -31t-35.5 -13t-35.5 13t-14.5 31q0 19 14.5 31.5t35.5 12.5t35.5 -12.5t14.5 -31.5z" />
    <glyph glyph-name="Ccaron" unicode="&#x10c;" horiz-adv-x="634" 
d="M585 515q-2 -14 -10 -25t-24 -19q-8 23 -19.5 47t-27.5 47q-16 24 -37 44.5t-45.5 35.5t-53.5 22.5t-61 5.5q-75 -5 -140 -65q-31 -29 -50.5 -67.5t-28 -82t-7 -88t12.5 -85.5q17 -63 51 -114t78 -84t95 -45t101 1q55 15 95 57t60 100v-41q-38 -72 -100.5 -115.5
t-137.5 -43.5q-58 0 -110 27.5t-90 75t-60.5 111.5t-22.5 136t22.5 136t60.5 111.5t90 75t110 27.5q30 -1 59 -6.5t56 -16.5q26 -10 59 -35.5t54 -56.5q11 -17 17.5 -35t3.5 -35zM219 893l100 -129l100 129h13l-80 -152h-65l-80 152h12z" />
    <glyph glyph-name="ccaron" unicode="&#x10d;" horiz-adv-x="475" 
d="M427 92q-57 -91 -172 -91q-42 0 -79.5 20t-65 54t-43.5 80.5t-16 98.5q0 69 27 126.5t72 90.5q25 20 57.5 28.5t54.5 8.5q23 -1 44.5 -5t41.5 -13q25 -10 44 -31q14 -15 22.5 -34.5t8.5 -39.5q2 -37 -22 -65q-11 -11 -25.5 -18t-31.5 -8q-26 -1 -47 14.5t-27 44.5
q11 -11 22 -18.5t26 -9.5q28 -2 43 11.5t19 33.5q4 23 -7.5 48.5t-34.5 40.5q-16 11 -36 17.5t-41 8.5q-27 2 -54 -5t-50 -22q-24 -16 -41.5 -42t-26.5 -59t-8.5 -70.5t10.5 -76.5q9 -36 26 -66t38.5 -53.5t46.5 -38.5t52 -21q27 -5 52.5 -1.5t47 13.5t38 25t24.5 32z
M139 701l100 -130l100 130h12l-80 -152h-65l-80 152h13z" />
    <glyph glyph-name="Dcaron" unicode="&#x10e;" horiz-adv-x="559" 
d="M128 14h51q64 0 111.5 19t80.5 53q46 46 66.5 114.5t20.5 149.5t-20.5 149.5t-66.5 115.5q-33 33 -80.5 52t-111.5 19h-51v-672zM185 893l100 -129l100 129h13l-80 -152h-66l-79 152h12zM392 637q57 -50 84 -126t27 -161q0 -84 -27.5 -160.5t-83.5 -125.5
q-34 -30 -78 -47t-100 -17h-150q15 23 21 52t6 55v486q0 26 -6 55t-21 52h150q56 0 100 -17t78 -46z" />
    <glyph glyph-name="dcaron" unicode="&#x10f;" horiz-adv-x="591" 
d="M430 123q-27 -55 -72.5 -88.5t-101.5 -33.5q-42 0 -79.5 20t-65 54t-43.5 80.5t-16 98.5q0 53 16 99t43.5 80.5t65 54.5t79.5 20q56 0 101.5 -34t72.5 -89v178q0 18 -2 33.5t-4 26.5q-5 18 -10.5 29.5t-10.5 17.5q17 1 36.5 10.5t27.5 20.5v-551q0 -22 0.5 -43t4.5 -40.5
t13 -36t26 -30.5h-1q-14 4 -25 8.5t-21 6.5t-18 -1t-16 -14v123zM583 613q-21 0 -35.5 13t-14.5 31q0 19 14.5 31.5t35.5 12.5q20 0 35 -12.5t15 -31.5q0 -14 -5.5 -37.5t-17 -48t-29.5 -45.5t-44 -29l-5 6q29 24 39 54t12 56v0zM91 210q12 -46 36 -82.5t54.5 -60.5
t65 -33.5t68.5 -0.5q27 7 48 24.5t36 42t23 55t8 64.5q0 20 -2.5 39.5t-7.5 39.5q-12 46 -36 82.5t-54.5 60.5t-65 33.5t-68.5 0.5t-59 -34.5t-39 -61.5t-16.5 -79.5t9.5 -89.5z" />
    <glyph glyph-name="dcroat" unicode="&#x111;" horiz-adv-x="554" 
d="M430 123q-26 -55 -72 -88.5t-102 -33.5q-42 0 -79.5 20t-65 54t-43.5 80.5t-16 98.5q0 53 16 99t43.5 80.5t65 54.5t79.5 20q56 0 102 -34t72 -89v174h-193v36h191q-1 8 -1.5 15t-2.5 13q-5 18 -10.5 29.5t-10.5 17.5q17 1 36.5 10.5t27.5 20.5v-106h44v-36h-44v-409
q0 -22 0.5 -43t4.5 -40.5t13 -36t26 -30.5h-1q-14 4 -25 8.5t-21 6.5t-18 -1t-16 -14v123zM92 210q12 -46 35.5 -82.5t54 -60.5t65 -33.5t68.5 -0.5q27 7 48 24.5t36 42t23 55t8 64.5q0 20 -2.5 39.5t-7.5 39.5q-12 46 -36 82.5t-54.5 60.5t-65 33.5t-68.5 0.5t-59 -34.5
t-39 -61.5t-16 -79.5t10 -89.5z" />
    <glyph glyph-name="Emacron" unicode="&#x112;" horiz-adv-x="482" 
d="M127 426v-412h94q21 0 47.5 1.5t52.5 7.5q54 12 74 45q17 32 2 82q30 -17 38 -43.5t0 -51.5q-8 -23 -27.5 -39t-48.5 -16h-296q15 23 21 52t6 55v486q0 26 -6 55t-21 52h332l17 -114q-14 59 -42.5 79.5t-68.5 20.5h-174v-224q5 8 11.5 11t14.5 3q10 0 21 -5t23 -11
q14 -8 27 -14t27 -10q12 -4 24.5 -4.5t27.5 3.5q16 5 27.5 15.5t16.5 29.5q7 -8 10 -17.5t2 -18.5q-2 -17 -12 -30.5t-30 -17.5q-20 -5 -37 -2t-33 11q-14 7 -26.5 16t-26.5 19q-13 8 -24.5 14.5t-19.5 7.5q-10 2 -16.5 -5.5t-6.5 -30.5v0zM79 799v37h344v-37h-344z" />
    <glyph glyph-name="emacron" unicode="&#x113;" horiz-adv-x="474" 
d="M427 92q-57 -91 -172 -91q-42 0 -79.5 20t-65 54t-43.5 80.5t-16 98.5q0 69 27 126.5t72 90.5q25 20 57.5 28.5t54.5 8.5q24 -1 49 -7t47 -18q29 -17 48 -46t19 -58q0 -20 -10.5 -37t-34.5 -27q-21 -9 -45 -11.5t-44 -3.5q-14 -1 -27 -0.5t-23 0.5h-160q-3 -45 10 -90
q9 -36 26 -66t38.5 -53.5t46.5 -38.5t52 -21q27 -5 52.5 -1.5t47 13.5t38 25t24.5 32zM67 606v37h344v-37h-344zM206 316h39.5t45.5 3q16 2 30.5 6t26.5 12q29 19 27 48q-1 20 -12 38t-28 31q-15 13 -34.5 20t-39.5 9q-56 6 -104 -25q-32 -21 -51 -58.5t-24 -83.5h124z" />
    <glyph glyph-name="Ebreve" unicode="&#x114;" horiz-adv-x="482" 
d="M127 426v-412h94q21 0 47.5 1.5t52.5 7.5q54 12 74 45q17 32 2 82q30 -17 38 -43.5t0 -51.5q-8 -23 -27.5 -39t-48.5 -16h-296q15 23 21 52t6 55v486q0 26 -6 55t-21 52h332l17 -114q-14 59 -42.5 79.5t-68.5 20.5h-174v-224q5 8 11.5 11t14.5 3q10 0 21 -5t23 -11
q14 -8 27 -14t27 -10q25 -8 51 -1q17 5 28.5 15.5t16.5 29.5q7 -8 10 -17.5t2 -18.5q-2 -17 -12 -30.5t-30 -17.5q-20 -5 -37 -2t-33 11q-14 7 -26.5 16t-26.5 19q-13 8 -24.5 14.5t-19.5 7.5q-11 2 -17 -5.5t-6 -30.5v0zM251 741q-43 0 -71 16t-44 39.5t-22 50t-6 46.5h14
q0 -18 8 -38.5t24 -37t40.5 -27.5t56.5 -11q33 0 57 11t40 27.5t24 37t8 38.5h14q0 -20 -6 -46.5t-22 -50t-44 -39.5t-71 -16z" />
    <glyph glyph-name="ebreve" unicode="&#x115;" horiz-adv-x="474" 
d="M426 92q-56 -91 -171 -91q-42 0 -79.5 20t-65 54t-43.5 80.5t-16 98.5q0 69 27 126.5t72 90.5q25 20 57.5 28.5t54.5 8.5q24 -1 49 -7t47 -18q29 -17 47.5 -46t18.5 -58q1 -20 -10 -37t-34 -27q-21 -9 -45.5 -11.5t-43.5 -3.5q-14 -1 -27 -0.5t-23 0.5h-161
q-2 -45 10 -90q10 -36 26.5 -66t38.5 -53.5t47 -38.5t52 -21q27 -5 52.5 -1.5t47 13.5t37.5 25t24 32zM239 549q-43 0 -71 16t-44 39.5t-22 50t-6 46.5h14q0 -18 8 -38.5t24 -37.5t40 -28t57 -11q32 0 56.5 11t40.5 28t24 37.5t8 38.5h13q0 -20 -6 -46.5t-22 -50
t-43.5 -39.5t-70.5 -16zM206 316h39t46 3q15 2 30 6t26 12q16 10 22.5 22t5.5 26q-1 20 -12 38t-28 31q-15 13 -34.5 20t-39.5 9q-56 6 -104 -25q-32 -21 -51 -58.5t-24 -83.5h124z" />
    <glyph glyph-name="Edotaccent" unicode="&#x116;" horiz-adv-x="482" 
d="M127 14h94q22 0 48 1.5t52 7.5q54 12 74 45q17 32 2 82q30 -17 38 -43.5t0 -51.5q-8 -23 -27.5 -39t-48.5 -16h-296q16 23 21.5 52t5.5 55v486q0 26 -5.5 55t-21.5 52h332l17 -114q-14 59 -42.5 79.5t-68.5 20.5h-174v-224q10 14 26 14q10 0 21.5 -5t22.5 -11
q14 -8 27 -14t27 -10q12 -4 24.5 -4.5t27.5 3.5q16 5 27.5 15.5t16.5 29.5q7 -8 10 -17.5t2 -18.5q-1 -17 -11.5 -30.5t-30.5 -17.5q-20 -5 -37 -2t-33 11q-14 7 -26.5 16t-26.5 19q-13 8 -24 14.5t-19 7.5q-11 2 -17.5 -5.5t-6.5 -30.5v-412zM301 849q0 -17 -14.5 -30
t-35.5 -13q-20 0 -35 13t-15 30q0 19 15 31.5t35 12.5q21 0 35.5 -12.5t14.5 -31.5z" />
    <glyph glyph-name="edotaccent" unicode="&#x117;" horiz-adv-x="474" 
d="M426 92q-56 -91 -171 -91q-42 0 -79.5 20t-65 54t-43.5 80.5t-16 98.5q0 69 27 126.5t72 90.5q25 20 57.5 28.5t54.5 8.5q24 -1 49 -7t47 -18q29 -17 47.5 -46t18.5 -58q1 -20 -10 -37t-34 -27q-21 -9 -45.5 -11.5t-43.5 -3.5q-14 -1 -27 -0.5t-23 0.5h-161
q-2 -45 10 -90q10 -36 26.5 -66t38.5 -53.5t47 -38.5t52 -21q27 -5 52.5 -1.5t47 13.5t37.5 25t24 32zM289 657q0 -18 -15 -31t-35 -13q-21 0 -35.5 13t-14.5 31q0 19 14.5 31.5t35.5 12.5q20 0 35 -12.5t15 -31.5zM206 316h39t46 3q15 2 30 6t26 12q16 10 22.5 22t5.5 26
q-1 20 -12 38t-28 31q-15 13 -34.5 20t-39.5 9q-56 6 -104 -25q-32 -21 -51 -58.5t-24 -83.5h124z" />
    <glyph glyph-name="Eogonek" unicode="&#x118;" horiz-adv-x="482" 
d="M127 14h94q22 0 48 1.5t52 7.5q54 12 74 45q17 32 2 82q30 -17 38 -43.5t0 -52.5q-8 -23 -27.5 -38.5t-48.5 -15.5h-68q-6 -7 -12.5 -13.5l-13.5 -13.5q-10 -11 -19 -23t-16 -24q-8 -16 -10.5 -33t5.5 -34q6 -12 16.5 -19t23 -9t26.5 2.5t27 15.5l3 -5q-11 -15 -28 -26
t-41 -11q-26 0 -45 14q-25 19 -25 48q-2 18 5.5 36t18.5 32t24.5 25t25.5 21q5 5 10.5 8.5t10.5 8.5h-214q16 23 21.5 52t5.5 55v486q0 26 -5.5 55t-21.5 52h332l17 -114q-14 59 -42.5 79.5t-68.5 20.5h-174v-224q10 14 26 14q10 0 21.5 -5t22.5 -11q14 -8 27 -14t27 -10
q12 -4 24.5 -4.5t27.5 3.5q16 5 27.5 15.5t16.5 29.5q7 -8 10 -17.5t2 -18.5q-1 -17 -11.5 -30.5t-30.5 -17.5q-20 -5 -37 -2t-33 11q-14 7 -26.5 16t-26.5 19q-13 8 -24 14.5t-19 7.5q-11 2 -17.5 -5.5t-6.5 -30.5v-412z" />
    <glyph glyph-name="eogonek" unicode="&#x119;" horiz-adv-x="475" 
d="M266 1h-10q-42 0 -79.5 20t-65 54t-43.5 80.5t-16 98.5q0 69 27 126.5t72 90.5q25 20 57.5 28.5t54.5 8.5q24 -1 49 -7t47 -18q29 -17 48 -46t19 -58q0 -20 -11 -37t-34 -27q-21 -9 -45 -11.5t-44 -3.5q-14 -1 -27 -0.5t-23 0.5h-160q-3 -45 10 -90q9 -36 26 -66
t38.5 -53.5t46.5 -38.5t52 -21q27 -5 52.5 -1.5t47 13.5t38 25t24.5 32l11 -8q-50 -81 -147 -90q-7 -7 -13.5 -14t-13.5 -15q-11 -11 -19.5 -22.5t-15.5 -24.5q-8 -16 -11 -32.5t6 -33.5q6 -12 16 -19t23 -9t27 2t27 15l3 -5q-12 -14 -29 -25t-40 -11q-28 0 -45 14
q-14 9 -19.5 21.5t-6.5 26.5q-1 18 6 35.5t19 31.5q11 14 24 25l26 22q5 4 10.5 8t10.5 9zM207 316h39.5t45.5 3q16 2 30.5 6t26.5 12q29 19 27 48q-1 20 -12 38t-28 31q-15 13 -34.5 20t-39.5 9q-56 6 -104 -25q-32 -21 -51 -58.5t-24 -83.5h124z" />
    <glyph glyph-name="Ecaron" unicode="&#x11a;" horiz-adv-x="482" 
d="M127 14h94q21 0 47.5 1.5t52.5 7.5q54 12 74 45q17 32 2 82q30 -17 38 -43.5t0 -51.5q-8 -23 -27.5 -39t-48.5 -16h-296q15 23 21 52t6 55v486q0 26 -6 55t-21 52h332l17 -114q-14 59 -42.5 79.5t-68.5 20.5h-174v-224q5 8 11.5 11t14.5 3q10 0 21 -5t23 -11
q14 -8 27 -14t27 -10q12 -4 24.5 -4.5t27.5 3.5q16 5 27.5 15.5t16.5 29.5q7 -8 10 -17.5t2 -18.5q-2 -17 -12 -30.5t-30 -17.5q-20 -5 -37 -2t-33 11q-14 7 -26.5 16t-26.5 19q-13 8 -24.5 14.5t-19.5 7.5q-10 2 -16.5 -5.5t-6.5 -30.5v-412zM151 893l100 -129l100 129h13
l-80 -152h-65l-80 152h12z" />
    <glyph glyph-name="ecaron" unicode="&#x11b;" horiz-adv-x="474" 
d="M427 92q-57 -91 -172 -91q-42 0 -79.5 20t-65 54t-43.5 80.5t-16 98.5q0 69 27 126.5t72 90.5q25 20 57.5 28.5t54.5 8.5q24 -1 49 -7t47 -18q29 -17 48 -46t19 -58q0 -20 -10.5 -37t-34.5 -27q-21 -9 -45 -11.5t-44 -3.5q-14 -1 -27 -0.5t-23 0.5h-160q-3 -45 10 -90
q9 -36 26 -66t38.5 -53.5t46.5 -38.5t52 -21q27 -5 52.5 -1.5t47 13.5t38 25t24.5 32zM139 701l100 -130l100 130h12l-80 -152h-65l-80 152h13zM206 316h39.5t45.5 3q16 2 30.5 6t26.5 12q29 19 27 48q-1 20 -12 38t-28 31q-15 13 -34.5 20t-39.5 9q-56 6 -104 -25
q-32 -21 -51 -58.5t-24 -83.5h124z" />
    <glyph glyph-name="Gcircumflex" unicode="&#x11c;" horiz-adv-x="653" 
d="M585 515q-2 -14 -10 -25t-24 -19q-16 48 -46 94q-16 24 -37 44.5t-46 35.5t-54 22.5t-61 5.5q-36 -2 -72 -18.5t-68 -46.5q-31 -29 -50.5 -67.5t-28 -82t-7 -88t12.5 -85.5q17 -63 51 -114t78 -84t95 -45t101 1q33 10 61.5 29t49.5 47v94q0 26 -5.5 55t-20.5 52h90
q-6 -10 -16.5 -35t-10.5 -72v-106q0 -48 10.5 -73t16.5 -34h-90q14 20 19.5 45t6.5 50q-38 -45 -87.5 -70t-106.5 -25q-58 0 -110 27.5t-90 75t-60.5 111.5t-22.5 136t22.5 136t60.5 111.5t90 75t110 27.5q30 -1 59.5 -6.5t55.5 -16.5q26 -10 59 -35.5t54 -56.5
q12 -17 18 -35t3 -35zM211 741l80 152h65l80 -152h-12l-101 129l-100 -129h-12z" />
    <glyph glyph-name="Gbreve" unicode="&#x11e;" horiz-adv-x="653" 
d="M585 515q-2 -14 -10 -25t-24 -19q-16 48 -46 94q-16 24 -37 44.5t-46 35.5t-54 22.5t-61 5.5q-36 -2 -72 -18.5t-68 -46.5q-31 -29 -50.5 -67.5t-28 -82t-7 -88t12.5 -85.5q17 -63 51 -114t78.5 -84t95 -45t100.5 1q68 20 111 76v94q0 26 -5.5 55t-20.5 52h90
q-6 -10 -16.5 -35t-10.5 -72v-106q0 -48 10.5 -73t16.5 -34h-90q14 20 19.5 45t6.5 50q-38 -45 -87.5 -70t-106.5 -25q-58 0 -110 27.5t-90 75t-60.5 111.5t-22.5 136t22.5 136t60.5 111.5t90 75t110 27.5q31 -1 60 -6.5t55 -16.5t59 -36t54 -56q12 -17 18 -35t3 -35z
M324 741q-43 0 -71 16t-44 39.5t-22 50t-6 46.5h14q0 -18 8 -38.5t24 -37t40 -27.5t57 -11q32 0 56.5 11t40.5 27.5t24 37t8 38.5h13q0 -20 -6 -46.5t-22 -50t-43.5 -39.5t-70.5 -16z" />
    <glyph glyph-name="gbreve" unicode="&#x11f;" horiz-adv-x="497" 
d="M368 512q13 20 24 31q17 17 35 14q16 -2 24.5 -17.5t2.5 -31.5q-5 10 -14 17t-20 7t-22 -6.5t-19 -17.5l-28 -40q34 -27 53.5 -68.5t19.5 -90.5q0 -42 -14 -78.5t-39 -63.5t-58 -42.5t-71 -15.5q-54 0 -97 31l-74 -101q22 15 49.5 27t58 18.5t62 8t59.5 -4.5
q54 -10 87 -41t41 -70q7 -36 -11 -72.5t-63 -64.5q-26 -17 -58 -24.5t-63 -7.5q-19 0 -39.5 3t-40.5 11q-25 10 -44.5 30t-27.5 44q-6 19 -3.5 38.5t13.5 35.5q11 15 28 22.5t35 8.5q24 0 43 -13q-24 6 -40 2t-26 -15q-12 -12 -14.5 -31t5.5 -39q13 -37 44 -56t69 -24
q30 -3 61 3t54 20q41 24 52.5 54.5t0.5 59.5q-11 32 -43 59t-71 37q-29 8 -60 8t-58 -5q-57 -11 -103 -43l-14 18l82 110q-35 27 -55.5 69.5t-20.5 93.5q0 41 14 77t39 63t58 43t71 16q28 0 53.5 -9t47.5 -25zM126 701q0 -18 8 -38.5t24 -37.5t40 -28t57 -11t57 11t40 28
t24 37.5t8 38.5h14q0 -20 -6 -46.5t-22 -50t-44 -39.5t-71 -16t-71 16t-44 39.5t-22 50t-6 46.5h14zM383 346q-10 38 -30.5 68.5t-46 50t-55 27t-58.5 -0.5t-51 -29t-34.5 -51t-14.5 -66t8 -74t30 -68.5t46 -50t55.5 -27t58.5 0.5t51 29t34.5 51t14.5 66t-8 74z" />
    <glyph glyph-name="Gdotaccent" unicode="&#x120;" horiz-adv-x="653" 
d="M585 515q-2 -14 -10 -25t-24 -19q-16 48 -46 94q-16 24 -37 44.5t-46 35.5t-54 22.5t-61 5.5q-36 -2 -72 -18.5t-68 -46.5q-31 -29 -50.5 -67.5t-28 -82t-7 -88t12.5 -85.5q17 -63 51 -114t78 -84t95 -45t101 1q67 20 111 76v94q0 26 -5.5 55t-20.5 52h90
q-6 -10 -16.5 -35t-10.5 -72v-106q0 -48 10.5 -73t16.5 -34h-90q14 20 19.5 45t6.5 50q-38 -45 -87.5 -70t-106.5 -25q-58 0 -110 27.5t-90 75t-60.5 111.5t-22.5 136t22.5 136t60.5 111.5t90 75t110 27.5q30 -1 59.5 -6.5t55.5 -16.5q26 -10 59 -35.5t54 -56.5
q12 -17 18 -35t3 -35zM374 849q0 -17 -15 -30t-36 -13q-20 0 -35 13t-15 30q0 19 15 31.5t35 12.5q21 0 36 -12.5t15 -31.5z" />
    <glyph glyph-name="gdotaccent" unicode="&#x121;" horiz-adv-x="497" 
d="M60 309q0 41 14 77t39 63t58 43t71 16q28 0 53.5 -9t47.5 -25l25 38q13 20 24 31q17 17 35 14q16 -2 24.5 -17.5t2.5 -31.5q-5 10 -14 17t-20 7t-22 -6.5t-19 -17.5l-28 -40q34 -27 53.5 -68.5t19.5 -90.5q0 -42 -14 -78.5t-39 -63.5t-58 -42.5t-71 -15.5q-54 0 -97 31
l-74 -101q22 15 49.5 27t58 18.5t62 8t59.5 -4.5q54 -10 87 -41t41 -70q7 -36 -11 -72.5t-63 -64.5q-26 -17 -58 -24.5t-63 -7.5q-19 0 -39.5 3t-40.5 11q-25 10 -44.5 30t-27.5 44q-6 19 -3.5 38.5t13.5 35.5q11 15 28 22.5t35 8.5q24 0 43 -13q-24 6 -40 2t-26 -15
q-12 -12 -14.5 -31t5.5 -39q13 -37 44 -56t69 -24q30 -3 61 3t54 20q41 24 52.5 54.5t0.5 59.5q-11 32 -43 59t-71 37q-29 8 -60 8t-58 -5q-57 -11 -103 -43l-14 18l83 110q-35 27 -56 69.5t-21 93.5zM255 613q-20 0 -35 13t-15 31q0 19 15 31.5t35 12.5q21 0 35.5 -12.5
t14.5 -31.5q0 -18 -14.5 -31t-35.5 -13zM193 491q-29 -8 -51 -29t-34.5 -51t-14.5 -66t8 -74t30 -68.5t46 -50t55.5 -27t58.5 0.5t51 29t34.5 51t14.5 66t-8 74t-30.5 68.5t-46 50t-55 27t-58.5 -0.5z" />
    <glyph glyph-name="Hcircumflex" unicode="&#x124;" horiz-adv-x="553" 
d="M64 0q16 23 21.5 52t5.5 55v486q0 26 -5.5 55t-21.5 52h90q-6 -10 -16 -34.5t-10 -72.5v-131q13 14 36 14q14 0 28.5 -5t30.5 -11q19 -8 36.5 -14t36.5 -10q17 -4 33.5 -4.5t36.5 3.5q20 5 35.5 14t23.5 25v119q0 26 -6 55t-21 52h90q-6 -10 -16.5 -34.5t-10.5 -72.5
v-486q0 -48 10.5 -73t16.5 -34h-90q15 23 21 52t6 55v305q-16 -13 -39 -16q-28 -5 -51 -2t-44 11q-18 7 -36 16t-37 19q-17 8 -32 14.5t-26 7.5q-14 2 -23 -5.5t-9 -30.5v-319q0 -48 10 -73t16 -34h-90zM164 741l79 152h66l80 -152h-13l-100 129l-100 -129h-12z" />
    <glyph glyph-name="Itilde" unicode="&#x128;" horiz-adv-x="218" 
d="M64 0q15 23 20.5 52t5.5 55v486q0 26 -5.5 55t-20.5 52h90q-6 -10 -16.5 -34.5t-10.5 -72.5v-486q0 -48 10.5 -73t16.5 -34h-90zM-70 832q28 45 75.5 57.5t98.5 -12.5q24 -12 48 -21t47 -10.5t43.5 7.5t38.5 35l7 -12q-13 -21 -33 -35.5t-43 -21t-48.5 -4t-50.5 14.5
q-24 12 -48 21.5t-47 11t-43.5 -8t-38.5 -35.5z" />
    <glyph glyph-name="itilde" unicode="&#x129;" horiz-adv-x="202" 
d="M120 107q0 -48 10.5 -73t16.5 -34h-90q15 23 20.5 52t5.5 55v262q0 38 -6 60q-5 18 -10.5 29.5t-9.5 17.5q17 1 36 10.5t27 20.5v-338v-62zM-77 639q28 45 75.5 58t98.5 -12q24 -12 48 -21t47 -10.5t43.5 7.5t38.5 35l7 -13q-13 -21 -33 -35.5t-43 -21t-48.5 -4
t-50.5 14.5q-24 12 -48 21.5t-47 11t-43.5 -8t-38.5 -35.5z" />
    <glyph glyph-name="Imacron" unicode="&#x12a;" horiz-adv-x="219" 
d="M64 0q16 23 21.5 52t5.5 55v486q0 26 -5.5 55t-21.5 52h90q-6 -10 -16 -34.5t-10 -72.5v-486q0 -48 10 -73t16 -34h-90zM-63 799v37h345v-37h-345z" />
    <glyph glyph-name="imacron" unicode="&#x12b;" horiz-adv-x="201" 
d="M120 107q0 -48 10 -73t16 -34h-90q16 23 21.5 52t5.5 55v262q0 18 -2 33.5t-4 26.5q-5 18 -11 29.5t-10 17.5q17 1 36 10.5t28 20.5v-400zM-71 606v37h344v-37h-344z" />
    <glyph glyph-name="Ibreve" unicode="&#x12c;" horiz-adv-x="219" 
d="M64 0q15 23 20.5 52t5.5 55v486q0 26 -5.5 55t-20.5 52h90q-7 -10 -17 -34.5t-10 -72.5v-486q0 -48 10 -73t17 -34h-90zM109 741q-43 0 -71 16t-44 39.5t-22 50t-6 46.5h14q0 -18 8 -38.5t24 -37t40 -27.5t57 -11q32 0 56.5 11t40.5 27.5t24 37t8 38.5h13q0 -20 -6 -46.5
t-22 -50t-43.5 -39.5t-70.5 -16z" />
    <glyph glyph-name="ibreve" unicode="&#x12d;" horiz-adv-x="202" 
d="M120 107q0 -48 10 -73t17 -34h-90q15 23 20.5 52t5.5 55v262q0 38 -6 60q-5 18 -10.5 29.5t-9.5 17.5q17 1 36 10.5t27 20.5v-400zM102 549q-43 0 -71 16t-44 39.5t-22 50t-6 46.5h14q0 -18 8 -38.5t24 -37.5t40 -28t57 -11q32 0 56.5 11t40.5 28t24 37.5t8 38.5h13
q0 -20 -6 -46.5t-22 -50t-43.5 -39.5t-70.5 -16z" />
    <glyph glyph-name="Idotaccent" unicode="&#x130;" horiz-adv-x="218" 
d="M64 0q15 23 21 52t6 55v486q0 26 -6 55t-21 52h90q-6 -10 -16.5 -34.5t-10.5 -72.5v-486q0 -48 10.5 -73t16.5 -34h-90zM159 849q0 -17 -14.5 -30t-35.5 -13t-35.5 13t-14.5 30q0 19 14.5 31.5t35.5 12.5t35.5 -12.5t14.5 -31.5z" />
    <glyph glyph-name="dotlessi" unicode="&#x131;" horiz-adv-x="201" 
d="M120 107q0 -48 10 -73t16 -34h-90q15 23 21 52t6 55v262q0 18 -2 33.5t-5 26.5q-4 18 -10 29.5t-10 17.5q17 1 36 10.5t28 20.5v-400z" />
    <glyph glyph-name="Jcircumflex" unicode="&#x134;" horiz-adv-x="373" 
d="M58 741l79 152h66l80 -152h-13l-100 129l-100 -129h-12zM138 213q22 -5 39 -20t23 -40q-12 17 -29 25.5t-35 8.5q-26 1 -42.5 -11t-24.5 -31q-8 -20 -6.5 -44.5t14.5 -45.5q11 -19 29.5 -31t44.5 -12q34 0 53.5 15t29.5 37q11 25 13 55.5t2 59.5v414q0 20 -3.5 43
t-12.5 43q-2 6 -9 11t-11 10h99q-6 -10 -16 -34.5t-10 -72.5v-414q0 -37 -6.5 -70.5t-23.5 -57.5q-15 -22 -40.5 -36.5t-64.5 -14.5q-26 0 -49 10.5t-40 27.5q-24 24 -32 57.5t9 68.5q15 32 43 43.5t56 5.5z" />
    <glyph glyph-name="Lacute" unicode="&#x139;" horiz-adv-x="465" 
d="M64 0q15 23 21 52t6 55v486q0 26 -6 55t-21 52h90q-15 -23 -20.5 -52t-5.5 -55v-579h93q22 0 48.5 1.5t52.5 7.5q55 12 73 45q18 31 3 82q30 -17 38 -43.5t0 -52.5q-8 -23 -27.5 -38.5t-48.5 -15.5h-296zM187 741l76 152h54l-117 -152h-13z" />
    <glyph glyph-name="Lcaron" unicode="&#x13d;" horiz-adv-x="487" 
d="M64 0q16 23 21.5 52t5.5 55v486q0 26 -5.5 55t-21.5 52h90q-15 -23 -20.5 -52t-5.5 -55v-579h94q22 0 48 1.5t52 7.5q54 12 74 45q17 32 2 82q30 -17 38 -43.5t0 -52.5q-8 -23 -27.5 -38.5t-48.5 -15.5h-296zM390 613q-20 0 -35 13t-15 30q0 19 15 31.5t35 12.5
q21 0 35.5 -12.5t14.5 -31.5q0 -14 -5.5 -37.5t-16.5 -48t-29 -45.5t-44 -29l-5 6q29 24 39 54.5t12 56.5h-1z" />
    <glyph glyph-name="lcaron" unicode="&#x13e;" horiz-adv-x="236" 
d="M119 107q0 -48 10 -73t16 -34h-90q15 23 21 52t6 55v456q0 18 -2 33.5t-5 26.5q-4 18 -10 29.5t-10 17.5q17 1 36 10.5t28 20.5v-594zM225 613q-21 0 -35.5 13t-14.5 31q0 19 15 31.5t35 12.5q21 0 35.5 -12.5t14.5 -31.5q0 -14 -5.5 -37.5t-17 -48t-29.5 -45.5t-44 -29
l-4 6q29 24 39 54t11 56v0z" />
    <glyph glyph-name="Lslash" unicode="&#x141;" horiz-adv-x="486" 
d="M100 107v95l-43 -42v36l43 43v354q0 26 -6 55t-21 52h90q-16 -23 -21.5 -52t-5.5 -55v-318l266 266v-37l-266 -265v-225h94q22 0 48.5 1.5t52.5 7.5q55 12 73 45q18 31 3 82q29 -17 37.5 -43.5t-0.5 -52.5q-8 -23 -27 -38.5t-48 -15.5h-296q15 23 21 52t6 55v0z" />
    <glyph glyph-name="lslash" unicode="&#x142;" horiz-adv-x="309" 
d="M175 107q0 -48 10 -73t16 -34h-90q15 23 21 52t6 55v207l-107 -107v36l107 107v213q0 18 -2 33.5t-5 26.5q-4 18 -10 29.5t-10 17.5q17 1 36 10.5t28 20.5v-314l106 107v-37l-106 -107v-181v-62z" />
    <glyph glyph-name="Nacute" unicode="&#x143;" horiz-adv-x="583" 
d="M64 0q15 23 21 52t6 55v486q0 26 -6 55t-21 52h54l354 -608v501q0 26 -5.5 55t-20.5 52h74q-6 -10 -16 -34.5t-10 -72.5v-504q0 -13 -2 -28.5t-7.5 -29t-15.5 -22.5t-27 -9q-8 0 -14 2q25 4 25.5 26.5t-15.5 45.5l-326 558v-525q0 -48 10 -73t17 -34h-75zM227 741l77 152
h53l-118 -152h-12z" />
    <glyph glyph-name="nacute" unicode="&#x144;" horiz-adv-x="495" 
d="M416 337v-230q0 -48 10.5 -73t16.5 -34h-90q15 23 21 52t6 55q0 62 -0.5 116t-0.5 116q0 32 -9 61t-28 50q-32 36 -81 38q-32 2 -58 -9.5t-44.5 -32.5t-28.5 -49t-10 -58v-232q0 -48 10 -73t16 -34h-90q16 23 21.5 52t5.5 55v262q0 18 -2 33.5t-4 26.5q-5 18 -11 29.5
t-10 17.5q17 1 36 10.5t28 20.5v-100q9 24 23.5 42.5t33.5 31t40 19t43 7.5q28 2 54.5 -6.5t48.5 -28.5q26 -23 39.5 -58t13.5 -77zM184 549l77 152h54l-118 -152h-13z" />
    <glyph glyph-name="Ncaron" unicode="&#x147;" horiz-adv-x="583" 
d="M64 0q15 23 21 52t6 55v486q0 26 -6 55t-21 52h54l354 -608v501q0 26 -5.5 55t-21.5 52h75q-6 -10 -16 -34.5t-10 -72.5v-504q0 -13 -2 -28.5t-7.5 -29t-15.5 -22.5t-27 -9q-8 0 -14 2q25 4 25.5 26.5t-15.5 45.5l-326 558v-525q0 -48 10 -73t17 -34h-75zM192 893
l100 -129l100 129h13l-80 -152h-66l-79 152h12z" />
    <glyph glyph-name="ncaron" unicode="&#x148;" horiz-adv-x="495" 
d="M416 337v-230q0 -48 10.5 -73t16.5 -34h-90q15 23 21 52t6 55q0 62 -0.5 116t-0.5 116q0 32 -9 61t-28 50q-32 36 -81 38q-32 2 -58 -9.5t-44.5 -32.5t-28.5 -49t-10 -58v-232q0 -48 10 -73t16 -34h-90q16 23 21.5 52t5.5 55v262q0 18 -2 33.5t-4 26.5q-5 18 -11 29.5
t-10 17.5q17 1 36 10.5t28 20.5v-100q9 24 23.5 42.5t33.5 31t40 19t43 7.5q28 2 54.5 -6.5t48.5 -28.5q26 -23 39.5 -58t13.5 -77zM150 701l100 -130l100 130h12l-80 -152h-65l-80 152h13z" />
    <glyph glyph-name="Omacron" unicode="&#x14c;" horiz-adv-x="673" 
d="M336 700q59 0 110.5 -27.5t90 -75t61 -111.5t22.5 -136t-22.5 -136t-61 -111.5t-90 -75t-110.5 -27.5q-58 0 -110 27.5t-90 75t-60.5 111.5t-22.5 136t22.5 136t60.5 111.5t90 75t110 27.5zM164 836h345v-37h-345v37zM585 417q-17 63 -51 112.5t-79 82t-96.5 44
t-103.5 -2.5q-51 -13 -90 -49t-61.5 -86.5t-27.5 -111t12 -123.5t51 -112.5t79 -82t96.5 -44t103.5 2.5q51 14 90 50t61.5 86t27.5 110.5t-12 123.5z" />
    <glyph glyph-name="omacron" unicode="&#x14d;" horiz-adv-x="511" 
d="M458 254q0 -52 -16 -98.5t-43.5 -80.5t-64.5 -54t-79 -20t-79.5 20t-65 54t-43.5 80.5t-16 98.5q0 53 16 99t43.5 80.5t65 54.5t79.5 20t79 -20t64.5 -54.5t43.5 -80.5t16 -99zM82 606v37h345v-37h-345zM90 210q12 -46 36 -82.5t54.5 -60.5t65 -33.5t68.5 -0.5t59 34.5
t39.5 61.5t16.5 79.5t-10 89.5t-36 82.5t-54.5 60.5t-65 33.5t-68.5 0.5t-59 -34.5t-39 -61.5t-16.5 -79.5t9.5 -89.5z" />
    <glyph glyph-name="Obreve" unicode="&#x14e;" horiz-adv-x="673" 
d="M336 700q59 0 110.5 -27.5t90 -75t61 -111.5t22.5 -136t-22.5 -136t-61 -111.5t-90 -75t-110.5 -27.5q-58 0 -110 27.5t-90 75t-60.5 111.5t-22.5 136t22.5 136t60.5 111.5t90 75t110 27.5zM207 893q0 -18 8 -38.5t24 -37t40.5 -27.5t56.5 -11q33 0 57 11t40 27.5t24 37
t8 38.5h14q0 -20 -6 -46.5t-22 -50t-43.5 -39.5t-71.5 -16q-43 0 -70.5 16t-43.5 39.5t-22 50t-6 46.5h13zM585 417q-17 63 -51 112.5t-79 82t-96.5 44t-103.5 -2.5q-51 -13 -90 -49t-61.5 -86.5t-27.5 -111t12 -123.5t51 -112.5t79 -82t96.5 -44t103.5 2.5q51 14 90 50
t61.5 86t27.5 110.5t-12 123.5z" />
    <glyph glyph-name="obreve" unicode="&#x14f;" horiz-adv-x="511" 
d="M458 254q0 -52 -16 -98.5t-43.5 -80.5t-64.5 -54t-79 -20t-79.5 20t-65 54t-43.5 80.5t-16 98.5q0 53 16 99t43.5 80.5t65 54.5t79.5 20t79 -20t64.5 -54.5t43.5 -80.5t16 -99zM255 549q-43 0 -71 16t-44 39.5t-22 50t-6 46.5h14q0 -18 8 -38.5t24 -37.5t40 -28t57 -11
q32 0 56.5 11t40.5 28t24 37.5t8 38.5h13q0 -20 -6 -46.5t-22 -50t-43.5 -39.5t-70.5 -16zM90 210q12 -46 36 -82.5t54.5 -60.5t65 -33.5t68.5 -0.5t59 34.5t39.5 61.5t16.5 79.5t-10 89.5t-36 82.5t-54.5 60.5t-65 33.5t-68.5 0.5t-59 -34.5t-39 -61.5t-16.5 -79.5
t9.5 -89.5z" />
    <glyph glyph-name="Ohungarumlaut" unicode="&#x150;" horiz-adv-x="673" 
d="M585 417q-17 63 -51.5 112.5t-79 82t-96.5 44t-103 -2.5q-51 -13 -90 -49t-61.5 -86.5t-27.5 -111t12 -123.5t51 -112.5t78.5 -82t96.5 -44t103 2.5q52 14 91 50t61.5 86t27.5 110.5t-12 123.5zM328 741l76 152h54l-118 -152h-12zM215 741l76 152h54l-118 -152h-12z
M53 350q0 72 22.5 136t60.5 111.5t90 75t110 27.5q59 0 110.5 -27.5t90 -75t61 -111.5t22.5 -136t-22.5 -136t-61 -111.5t-90 -75t-110.5 -27.5q-58 0 -110 27.5t-90 75t-60.5 111.5t-22.5 136z" />
    <glyph glyph-name="ohungarumlaut" unicode="&#x151;" horiz-adv-x="511" 
d="M458 254q0 -52 -16 -98.5t-43.5 -80.5t-64.5 -54t-79 -20t-79.5 20t-65 54t-43.5 80.5t-16 98.5q0 53 16 99t43.5 80.5t65 54.5t79.5 20t79 -20t64.5 -54.5t43.5 -80.5t16 -99zM162 549l76 152h54l-118 -152h-12zM275 549l76 152h54l-118 -152h-12zM90 210
q12 -46 36 -82.5t54.5 -60.5t65 -33.5t68.5 -0.5t59 34.5t39.5 61.5t16.5 79.5t-10 89.5t-36 82.5t-54.5 60.5t-65 33.5t-68.5 0.5t-59 -34.5t-39 -61.5t-16.5 -79.5t9.5 -89.5z" />
    <glyph glyph-name="OE" unicode="&#x152;" horiz-adv-x="990" 
d="M585 417q-17 63 -51 112.5t-79 82t-96.5 44t-103.5 -2.5q-51 -13 -90 -49t-61.5 -86.5t-27.5 -111t12 -123.5t51 -112.5t79 -82t96.5 -44t103.5 2.5q41 11 74 36t56.5 61t36.5 80t13 92v1q1 25 -2.5 49.5t-10.5 50.5zM53 350q0 72 22.5 136t60.5 111.5t90 75t110 27.5
q44 0 84.5 -16t75 -44.5t60.5 -68t42 -87.5v109q0 26 -5.5 55t-21.5 52h332l17 -114q-13 59 -42 79.5t-68 20.5h-175v-224q10 14 27 14q10 0 21 -5t22 -11q14 -8 27 -14t27 -10q26 -8 52 -1q16 5 28 15.5t17 29.5q13 -16 11 -36q-1 -17 -11.5 -30.5t-30.5 -17.5
q-20 -5 -37 -2t-32 11q-14 7 -27 16t-27 19q-13 8 -24 14.5t-19 7.5q-11 2 -17.5 -5.5t-6.5 -30.5v-412h94q22 0 48.5 1.5t51.5 7.5q56 12 74 45q17 30 3 82q29 -17 37.5 -43.5t-0.5 -52.5q-8 -23 -27 -38.5t-48 -15.5h-297q16 23 21.5 52t5.5 55v109q-16 -48 -42 -87.5
t-60.5 -68t-75 -44.5t-84.5 -16q-58 0 -110 27.5t-90 75t-60.5 111.5t-22.5 136z" />
    <glyph glyph-name="oe" unicode="&#x153;" horiz-adv-x="852" 
d="M444 160q-11 -35 -30 -64t-43.5 -50t-54 -33t-61.5 -12q-42 0 -79.5 20t-65 54t-43.5 80.5t-16 98.5q0 53 16 99t43.5 80.5t65 54.5t79.5 20q32 0 61.5 -12t54 -33t43.5 -50.5t30 -64.5q12 39 33.5 70.5t50.5 52.5q25 20 57.5 28.5t55.5 8.5q23 -1 48 -7t47 -18
q29 -17 48 -46t19 -58q0 -20 -10.5 -37t-34.5 -27q-20 -9 -44.5 -11.5t-43.5 -3.5q-15 -1 -27.5 -0.5t-23.5 0.5h-160q-3 -45 10 -90q9 -36 26 -66t38.5 -53.5t46.5 -38.5t52 -21q27 -5 52.5 -1.5t47 13.5t38 25t24.5 32l11 -8q-57 -91 -172 -91q-32 0 -61.5 12t-54 33
t-43.5 50t-30 64zM584 316h39.5t45.5 3q16 2 30.5 6t26.5 12q29 19 27 48q0 20 -11.5 38t-27.5 31q-32 26 -75 29q-56 6 -104 -25q-32 -21 -51 -58.5t-24 -83.5h124zM91 210q12 -46 35.5 -82.5t54 -60.5t65 -33.5t68.5 -0.5t59.5 34.5t39.5 61.5t16 79.5t-10 89.5t-36 82.5
t-54.5 60.5t-65 33.5t-68.5 0.5t-59 -34.5t-39 -61.5t-16 -79.5t10 -89.5z" />
    <glyph glyph-name="Racute" unicode="&#x154;" horiz-adv-x="511" 
d="M64 0q16 23 21.5 52t5.5 55v486q0 26 -5.5 55t-21.5 52h172q20 0 42.5 -2.5t41.5 -9.5q23 -8 40 -19q29 -20 46.5 -49.5t19.5 -66.5q3 -42 -11.5 -76t-43.5 -58q-9 -8 -20 -15t-22 -12q-19 -10 -38 -14q26 0 48 -14q17 -11 29 -29.5t19 -41.5q7 -21 9.5 -42.5t4.5 -43.5
q2 -25 3 -50t5 -49q5 -35 19 -64t46 -44h-23t-21 2q-26 5 -41 26q-13 17 -18 39t-7 46q-2 22 -0.5 45.5t2.5 48.5q1 20 0.5 40t-5.5 38q-9 39 -32 62q-16 16 -33.5 21t-36.5 3q-8 -1 -17.5 -3t-19.5 -4q-23 -6 -42 -14q-22 -10 -36 -26q-12 -14 -16 -28v-189q0 -26 5.5 -55
t20.5 -52h-90zM204 741l77 152h53l-117 -152h-13zM128 318q7 18 19 29.5t28 19.5q14 7 29.5 11.5t31.5 9.5q13 5 28.5 9t27.5 9q38 18 58 40q33 38 32 99q-2 53 -31 90q-14 18 -33 29q-29 17 -62.5 19.5t-68.5 2.5h-59v-368z" />
    <glyph glyph-name="racute" unicode="&#x155;" horiz-adv-x="367" 
d="M119 107q0 -48 10.5 -73t16.5 -34h-90q15 23 21 52t6 55v263q0 18 -2 33t-5 26q-4 19 -10 30.5t-10 17.5q17 1 36 10.5t27 20.5v-69q5 8 13 19.5t20.5 22.5t29.5 19t39 8q26 0 46.5 -9t34 -24t21 -34t8.5 -39q1 -24 -7.5 -43t-22.5 -32q-25 -23 -56 -23t-48 21
q31 -3 56 7q27 11 38 36t8 52q-2 20 -12.5 37.5t-27.5 28.5q-18 12 -43 12q-32 0 -56 -24q-11 -11 -17.5 -25t-11.5 -29q-6 -21 -8.5 -42t-3.5 -38v-233zM129 549l76 152h54l-118 -152h-12z" />
    <glyph glyph-name="Rcaron" unicode="&#x158;" horiz-adv-x="511" 
d="M64 0q15 23 21 52t6 55v486q0 26 -6 55t-21 52h172q20 0 42.5 -2.5t41.5 -9.5q11 -4 21 -8.5t19 -10.5q29 -20 46.5 -49.5t19.5 -66.5q3 -42 -11.5 -76t-43.5 -58q-9 -8 -20 -15t-22 -12q-19 -10 -38 -14q26 0 48 -14q17 -11 29 -29.5t19 -41.5q7 -21 9.5 -42.5
t4.5 -43.5q2 -25 3 -50t5 -49q5 -35 19 -64t46 -44h-23t-21 2q-26 5 -41 26q-13 17 -18 39t-7 46q-2 22 -0.5 45.5t2.5 48.5q1 20 0.5 40t-5.5 38q-9 39 -32 62q-16 16 -33.5 21t-36.5 3q-8 -1 -17.5 -3t-19.5 -4q-23 -6 -42 -14q-22 -10 -36 -26q-12 -14 -16 -28v-189
q0 -26 5.5 -55t20.5 -52h-90zM169 893l100 -129l100 129h13l-80 -152h-65l-80 152h12zM128 318q7 18 19 29.5t28 19.5q14 7 29.5 11.5t31.5 9.5q13 5 28.5 9t27.5 9q38 18 58 40q33 38 32 99q-2 53 -31 90q-14 18 -33 29q-29 17 -62.5 19.5t-68.5 2.5h-59v-368z" />
    <glyph glyph-name="rcaron" unicode="&#x159;" horiz-adv-x="367" 
d="M120 107q0 -48 10 -73t16 -34h-90q15 23 21 52t6 55v263q0 18 -2 33t-5 26q-4 19 -10 30.5t-10 17.5q17 1 36 10.5t28 20.5v-69q5 8 13 19.5t20 22.5t29 19t39 8q26 0 46.5 -9t34 -24t21 -34t8.5 -39q1 -24 -7.5 -43t-22.5 -32q-12 -11 -26.5 -17t-29 -6t-27.5 5.5
t-21 15.5q15 -2 29.5 0t26.5 7q27 11 38 36t8 52q-2 20 -12.5 37.5t-27.5 28.5q-18 12 -43 12q-32 0 -56 -24q-11 -11 -17.5 -25t-11.5 -29q-6 -21 -8.5 -42t-2.5 -38v-233zM93 701l101 -130l100 130h12l-80 -152h-65l-80 152h12z" />
    <glyph glyph-name="Sacute" unicode="&#x15a;" horiz-adv-x="513" 
d="M250 225q-29 35 -73 38q-23 2 -41 -6.5t-31 -22.5q-25 -29 -23 -71q2 -26 12.5 -52t28.5 -45q24 -26 59 -39t70 -13q37 0 69 9.5t56 30.5t37.5 53t11.5 70q-2 42 -20.5 74.5t-45.5 59.5q-25 25 -54 45.5t-59 40.5q-33 23 -64.5 46.5t-55.5 53.5q-20 25 -30.5 53.5
t-2.5 61.5q5 23 21.5 41.5t45.5 31.5q20 9 41.5 11t43.5 4q17 1 33.5 -1.5t31.5 -6.5q15 -3 28 -6t30 -2q14 0 26.5 3.5t20.5 10.5v-131q-6 24 -15 45t-27 37t-47 26t-74 12q-43 3 -76 -12q-24 -11 -36 -28.5t-14 -37.5q-3 -36 19 -70q19 -29 48.5 -54.5t63.5 -48.5
q32 -23 63.5 -45.5t57.5 -45.5q35 -33 59.5 -73t24.5 -94q0 -46 -21.5 -83t-55.5 -59q-29 -20 -63.5 -28t-70.5 -8t-73.5 12t-66.5 35q-28 22 -46 52t-20 67q-2 28 8.5 53t30.5 43q18 17 42.5 25t53.5 3q24 -5 43 -20.5t26 -44.5zM189 741l77 152h54l-118 -152h-13z" />
    <glyph glyph-name="sacute" unicode="&#x15b;" horiz-adv-x="428" 
d="M201 164q-23 22 -49 24.5t-45 -9.5q-19 -11 -24.5 -28.5t-2.5 -37.5q2 -16 9.5 -31.5t17.5 -26.5q5 -7 11 -12.5t13 -10.5q36 -25 79 -25q26 1 48.5 7.5t40.5 20.5q20 15 31.5 38.5t9.5 53.5q-2 25 -10.5 46t-22.5 38q-19 22 -42 39.5t-49 33.5q-20 13 -46 28.5t-49 35.5
t-36.5 44t-11.5 47q2 20 15.5 35.5t42.5 25.5q20 6 42 7.5t42 0.5q19 -1 32.5 -3t24.5 -4.5t21 -3.5t22 -1q20 0 35 10v-103q-9 25 -20 42.5t-26.5 29.5t-38 18t-54.5 7q-17 1 -37.5 -2t-37.5 -11q-18 -9 -25 -19.5t-7 -22.5q0 -18 12.5 -35.5t29.5 -31.5q22 -20 47 -35.5
t42 -26.5q29 -18 56 -38t48 -46q17 -20 27.5 -45t9.5 -57q-1 -36 -20.5 -62.5t-48.5 -43.5q-22 -13 -47 -19t-50 -6q-46 0 -86 20q-22 11 -39 28t-28 40q-11 24 -7.5 51t18.5 47q12 17 31.5 26.5t45.5 4.5q19 -4 34 -16.5t22 -35.5zM147 549l77 152h54l-118 -152h-13z" />
    <glyph glyph-name="Scircumflex" unicode="&#x15c;" horiz-adv-x="513" 
d="M250 225q-29 35 -73 38q-23 2 -41 -6.5t-31 -22.5q-25 -29 -23 -71q2 -26 12.5 -52t28.5 -45q24 -26 59 -39t70 -13q37 0 69 9.5t56 30.5t37.5 53t11.5 70q-2 42 -20.5 74.5t-45.5 59.5q-25 25 -54 45.5t-59 40.5q-33 23 -64.5 46.5t-55.5 53.5q-20 25 -30.5 53.5
t-2.5 61.5q5 23 21.5 41.5t45.5 31.5q20 9 41.5 11t43.5 4q17 1 33.5 -1.5t31.5 -6.5q15 -3 28 -6t30 -2q30 0 47 14v-131q-6 24 -15 45t-27 37t-47 26t-74 12q-43 3 -76 -12q-24 -11 -36 -28.5t-14 -37.5q-3 -36 19 -70q19 -29 48.5 -54.5t63.5 -48.5q32 -23 63.5 -45.5
t57.5 -45.5q35 -33 59.5 -73t24.5 -94q0 -46 -21.5 -83t-55.5 -59q-29 -20 -63.5 -28t-70.5 -8t-73.5 12t-66.5 35q-28 22 -46 52t-20 67q-2 28 8.5 53t30.5 43q18 17 43 25t53 3q24 -5 43 -20.5t26 -44.5zM142 741l80 152h65l80 -152h-12l-100 129l-100 -129h-13z" />
    <glyph glyph-name="Scedilla" unicode="&#x15e;" horiz-adv-x="514" 
d="M251 225q-14 17 -33.5 26.5t-39.5 11.5q-23 2 -41 -6.5t-31 -22.5q-25 -29 -23 -71q2 -26 12.5 -52t28.5 -45q24 -26 59 -39t70 -13h11l2 2h15v0q59 5 97 38q24 21 37.5 53t11.5 70q-2 42 -20.5 74.5t-45.5 59.5q-25 25 -54 45.5t-59 40.5q-33 23 -64.5 46.5t-55.5 53.5
q-20 25 -30.5 53.5t-2.5 61.5q5 23 21.5 41.5t45.5 31.5q20 9 41.5 11t43.5 4q17 1 33.5 -1.5t31.5 -6.5q15 -3 28 -6t30 -2q14 0 26.5 3.5t20.5 10.5v-131q-6 24 -15.5 45t-27.5 37t-47 26t-74 12q-20 2 -39 -1t-36 -11q-24 -11 -36 -28.5t-14 -37.5q-3 -36 19 -70
q19 -29 48.5 -54.5t63.5 -48.5q32 -23 63.5 -45.5t57.5 -45.5q35 -33 59.5 -73t24.5 -94q0 -46 -21.5 -83t-55.5 -59q-26 -17 -54.5 -25t-60.5 -10l-14 -25q10 -2 16 -2.5t16 -4.5q19 -10 29 -22q16 -19 16 -47q0 -37 -30 -65q-31 -28 -80 -28q-20 0 -49 3v7q27 -4 48 0.5
t36 13.5t24.5 22t12.5 27t0.5 28t-11.5 24t-24.5 15.5t-36.5 2.5l30 50h-2q-36 0 -73.5 12t-66.5 35q-28 22 -46 52t-20 67q-2 28 8.5 53t30.5 43q18 17 42.5 25t53.5 3q24 -5 43 -20.5t26 -44.5z" />
    <glyph glyph-name="scedilla" unicode="&#x15f;" horiz-adv-x="427" 
d="M201 164q-23 22 -49 24.5t-45 -9.5q-19 -11 -24.5 -28.5t-2.5 -37.5q2 -16 9.5 -31.5t17.5 -26.5q5 -7 11 -12.5t13 -10.5q36 -25 79 -25q26 1 48.5 7.5t40.5 20.5q20 15 31.5 38.5t9.5 53.5q-2 25 -10.5 46t-22.5 38q-19 22 -42 39.5t-49 33.5q-20 13 -46 28.5t-49 35.5
t-36.5 44t-11.5 47q2 20 15.5 35.5t42.5 25.5q20 6 42 7.5t42 0.5q19 -1 32.5 -3t24.5 -4.5t21 -3.5t22 -1q20 0 35 10v-103q-9 25 -20 42.5t-27 29.5t-38 18t-54 7q-17 1 -37.5 -2t-37.5 -11q-18 -9 -25 -19.5t-7 -22.5q0 -18 12.5 -35.5t29.5 -31.5q22 -20 47 -35.5
t42 -26.5q29 -19 56 -38.5t48 -45.5q17 -20 27.5 -45t9.5 -57q-1 -36 -20.5 -62.5t-48.5 -43.5q-45 -25 -94 -25l-13 -22q10 -2 16 -2.5t16 -5.5q18 -8 30 -21q16 -21 16 -47q0 -38 -32 -65q-29 -28 -80 -28q-19 0 -48 3v7q54 -8 84 13.5t37 49.5q3 14 0.5 28t-11.5 24
t-24.5 15.5t-36.5 2.5l30 49q-38 1 -73 19q-22 11 -39 28t-28 40q-11 24 -7.5 51t18.5 47q12 17 31.5 26.5t45.5 4.5q19 -4 34 -16.5t22 -35.5z" />
    <glyph glyph-name="Scaron" unicode="&#x160;" horiz-adv-x="513" 
d="M250 225q-14 17 -33.5 26.5t-39.5 11.5q-23 2 -41 -6.5t-31 -22.5q-25 -29 -23 -71q2 -26 12.5 -52t28.5 -45q24 -26 59 -39t70 -13q37 0 69 9.5t56 30.5t37.5 53t11.5 70q-2 42 -20.5 74.5t-45.5 59.5q-25 25 -54 45.5t-59 40.5q-33 23 -64.5 46.5t-55.5 53.5
q-20 25 -30.5 53.5t-2.5 61.5q5 23 21.5 41.5t45.5 31.5q20 9 41.5 11t43.5 4q17 1 33.5 -1.5t31.5 -6.5q15 -3 28 -6t30 -2q14 0 26.5 3.5t20.5 10.5v-131q-6 24 -15.5 45t-27.5 37t-47 26t-74 12q-20 2 -39 -1t-36 -11q-24 -11 -36 -28.5t-14 -37.5q-3 -36 19 -70
q19 -29 48.5 -54.5t63.5 -48.5q32 -23 63.5 -45.5t57.5 -45.5q35 -33 59.5 -73t24.5 -94q0 -46 -21.5 -83t-55.5 -59q-29 -20 -63.5 -28t-70.5 -8t-73.5 12t-66.5 35q-28 22 -46 52t-20 67q-2 28 8.5 53t30.5 43q18 17 42.5 25t53.5 3q24 -5 43 -20.5t26 -44.5zM155 893
l100 -129l100 129h12l-80 -152h-65l-80 152h13z" />
    <glyph glyph-name="scaron" unicode="&#x161;" horiz-adv-x="428" 
d="M201 164q-23 22 -49 24.5t-45 -9.5q-19 -11 -24.5 -28.5t-2.5 -37.5q2 -16 9.5 -31.5t17.5 -26.5q5 -7 11 -12.5t13 -10.5q36 -25 79 -25q26 1 48.5 7.5t40.5 20.5q20 15 31.5 38.5t9.5 53.5q-2 25 -10.5 46t-22.5 38q-19 22 -42 39.5t-49 33.5q-20 13 -46 28.5t-49 35.5
t-36.5 44t-11.5 47q2 20 15.5 35.5t42.5 25.5q20 6 42 7.5t42 0.5q19 -1 32.5 -3t24.5 -4.5t21 -3.5t21 -1q21 0 36 10v-103q-9 25 -20 42.5t-27 29.5t-38 18t-54 7q-17 1 -37.5 -2t-37.5 -11q-18 -9 -25 -19.5t-7 -22.5q0 -18 12.5 -35.5t29.5 -31.5q22 -20 47 -35.5
t42 -26.5q29 -18 56 -38t48 -46q17 -20 27.5 -45t9.5 -57q-1 -36 -20.5 -62.5t-48.5 -43.5q-22 -13 -47 -19t-50 -6q-46 0 -86 20q-22 11 -39 28t-28 40q-11 24 -7.5 51t18.5 47q12 17 31.5 26.5t45.5 4.5q19 -4 34 -16.5t22 -35.5zM112 701l100 -130l100 130h13l-80 -152
h-65l-80 152h12z" />
    <glyph glyph-name="Tcaron" unicode="&#x164;" horiz-adv-x="473" 
d="M218 686h-87q-27 0 -44 -6t-28.5 -20.5t-18.5 -37t-15 -55.5v133h423v-133q-8 33 -15.5 55.5t-18.5 37t-28 20.5t-44 6h-87v-579q0 -26 5.5 -55t21.5 -52h-91q16 23 21.5 52t5.5 55v579zM136 893l100 -129l100 129h13l-80 -152h-65l-80 152h12z" />
    <glyph glyph-name="Utilde" unicode="&#x168;" horiz-adv-x="538" 
d="M122 200q0 -86 40 -132.5t118 -46.5q152 0 152 179v393q0 26 -5.5 55t-21.5 52h75q-6 -10 -16.5 -34.5t-10.5 -72.5v-398q0 -42 -9.5 -77.5t-30 -62t-53.5 -41t-80 -14.5q-95 0 -145 49.5t-50 138.5v405q0 26 -6 55t-21 52h90q-6 -10 -16 -34.5t-10 -72.5v-393zM90 832
q28 45 75.5 57.5t98.5 -12.5q24 -12 48 -21t47 -10.5t43.5 7.5t38.5 35l7 -12q-13 -21 -33 -35.5t-43 -21t-48 -4t-50 14.5q-24 12 -48.5 21.5t-47.5 11t-43.5 -8t-38.5 -35.5z" />
    <glyph glyph-name="utilde" unicode="&#x169;" 
d="M51 476q17 1 36 10.5t28 20.5v-339q0 -32 9 -61t28 -50q16 -18 37 -27t44 -11q32 -2 58 9.5t45 32.5t29 49t10 58v201q0 18 -2 33.5t-5 26.5q-4 18 -10 29.5t-10 17.5q17 1 36 10.5t27 20.5v-369q0 -18 2 -33t5 -26q4 -19 10 -30.5t10 -17.5q-17 -1 -36 -10.5t-27 -19.5
v99q-9 -24 -23.5 -42.5t-33.5 -31t-40.5 -19t-42.5 -7.5q-29 -2 -55.5 7t-48.5 28q-26 24 -39.5 58.5t-13.5 76.5v199q0 18 -2 33.5t-4 26.5q-5 18 -11 29.5t-10 17.5zM66 639q28 45 75.5 58t98.5 -12q24 -12 48 -21t47 -10.5t43.5 7.5t38.5 35l6 -13q-13 -21 -32.5 -35.5
t-42.5 -21t-48.5 -4t-50.5 14.5q-24 12 -48 21.5t-47 11t-43.5 -8t-38.5 -35.5z" />
    <glyph glyph-name="Umacron" unicode="&#x16a;" horiz-adv-x="538" 
d="M148 700q-6 -10 -16.5 -34.5t-10.5 -72.5v-393q1 -86 41 -132.5t117 -46.5q153 0 153 179v393q0 26 -5.5 55t-21.5 52h75q-6 -10 -16.5 -34.5t-10.5 -72.5v-398q0 -42 -9.5 -77.5t-30 -62t-53.5 -41t-80 -14.5q-95 0 -145 49.5t-50 138.5v405q0 26 -6 55t-21 52h90z
M97 799v37h344v-37h-344z" />
    <glyph glyph-name="umacron" unicode="&#x16b;" 
d="M51 476q17 1 36 10.5t28 20.5v-339q0 -32 9 -61t28 -50q16 -18 37 -27t44 -11q32 -2 58 9.5t45 32.5t29 49t10 58v201q0 18 -2 33.5t-5 26.5q-4 18 -10 29.5t-10 17.5q17 1 36 10.5t27 20.5v-369q0 -18 2 -33t5 -26q4 -19 10 -30.5t10 -17.5q-17 -1 -36 -10.5t-27 -19.5
v99q-9 -24 -23.5 -42.5t-33.5 -31t-40.5 -19t-42.5 -7.5q-29 -2 -55.5 7t-48.5 28q-26 24 -39.5 58.5t-13.5 76.5v199q0 18 -2 33.5t-4 26.5q-5 18 -11 29.5t-10 17.5zM72 606v37h345v-37h-345z" />
    <glyph glyph-name="Ubreve" unicode="&#x16c;" horiz-adv-x="539" 
d="M122 200q0 -86 40.5 -132.5t117.5 -46.5q152 0 152 179v393q0 26 -5.5 55t-21.5 52h75q-6 -10 -16.5 -34.5t-10.5 -72.5v-398q0 -42 -9.5 -77.5t-30 -62t-53.5 -41t-80 -14.5q-95 0 -145 49.5t-50 138.5v405q0 26 -5.5 55t-21.5 52h90q-6 -10 -16 -34.5t-10 -72.5v-393z
M269 741q-43 0 -71 16t-44 39.5t-22 50t-6 46.5h14q0 -18 8 -38.5t24 -37t40 -27.5t57 -11t57 11t40 27.5t24 37t8 38.5h14q0 -20 -6 -46.5t-22 -50t-44 -39.5t-71 -16z" />
    <glyph glyph-name="ubreve" unicode="&#x16d;" 
d="M51 476q17 1 36 10.5t28 20.5v-339q0 -32 9 -61t28 -50q16 -18 37 -27t44 -11q32 -2 58 9.5t45 32.5t29 49t10 58v201q0 18 -2 33.5t-5 26.5q-4 18 -10 29.5t-10 17.5q17 1 36 10.5t27 20.5v-369q0 -18 2 -33t5 -26q4 -19 10 -30.5t10 -17.5q-17 -1 -36 -10.5t-27 -19.5
v99q-9 -24 -23.5 -42.5t-33.5 -31t-40.5 -19t-42.5 -7.5q-29 -2 -55.5 7t-48.5 28q-26 24 -39.5 58.5t-13.5 76.5v199q0 18 -2 33.5t-4 26.5q-5 18 -11 29.5t-10 17.5zM245 549q-43 0 -71 16t-44 39.5t-22 50t-6 46.5h14q0 -18 8 -38.5t24 -37.5t40 -28t57 -11q32 0 56 11
t40 28t24 37.5t8 38.5h14q0 -20 -6 -46.5t-22 -50t-43.5 -39.5t-70.5 -16z" />
    <glyph glyph-name="Uring" unicode="&#x16e;" horiz-adv-x="538" 
d="M281 893q18 0 34 -7t27.5 -18.5t18.5 -27t7 -33.5q0 -36 -25.5 -61.5t-61.5 -25.5t-61 25.5t-25 61.5q0 18 6.5 33.5t18.5 27t27.5 18.5t33.5 7zM480 700q-6 -10 -16.5 -34.5t-10.5 -72.5v-398q0 -42 -9.5 -77.5t-30 -62t-53.5 -41t-80 -14.5q-95 0 -145 49.5t-50 138.5
v405q0 26 -6 55t-21 52h90q-6 -10 -16.5 -34.5t-10.5 -72.5v-393q1 -86 41 -132.5t117 -46.5q153 0 153 179v393q0 26 -5.5 55t-21.5 52h75zM349 807q0 28 -19.5 47.5t-48.5 19.5q-28 0 -47.5 -19.5t-19.5 -47.5q0 -29 19.5 -48.5t47.5 -19.5q29 0 48.5 19.5t19.5 48.5z" />
    <glyph glyph-name="uring" unicode="&#x16f;" 
d="M51 476q17 1 36 10.5t28 20.5v-339q0 -32 9 -61t28 -50q16 -18 37 -27t44 -11q32 -2 58 9.5t45 32.5t29 49t10 58v201q0 18 -2 33.5t-5 26.5q-4 18 -10 29.5t-10 17.5q17 1 36 10.5t27 20.5v-369q0 -18 2 -33t5 -26q4 -19 10 -30.5t10 -17.5q-17 -1 -36 -10.5t-27 -19.5
v99q-9 -24 -23.5 -42.5t-33.5 -31t-40.5 -19t-42.5 -7.5q-29 -2 -55.5 7t-48.5 28q-26 24 -39.5 58.5t-13.5 76.5v199q0 18 -2 33.5t-4 26.5q-5 18 -11 29.5t-10 17.5zM331 614q0 -18 -7 -33.5t-18.5 -27.5t-27 -18.5t-33.5 -6.5q-36 0 -61.5 25t-25.5 61t25.5 61.5
t61.5 25.5q18 0 33.5 -7t27 -18.5t18.5 -27.5t7 -34zM312 614q0 28 -19.5 48t-47.5 20q-29 0 -48.5 -20t-19.5 -48t19.5 -48t48.5 -20q28 0 47.5 20t19.5 48z" />
    <glyph glyph-name="Uhungarumlaut" unicode="&#x170;" horiz-adv-x="538" 
d="M122 200q0 -86 40 -132.5t118 -46.5q152 0 152 179v393q0 26 -5.5 55t-21.5 52h75q-6 -10 -16.5 -34.5t-10.5 -72.5v-398q0 -42 -9.5 -77.5t-30 -62t-53.5 -41t-80 -14.5q-95 0 -145 49.5t-50 138.5v405q0 26 -6 55t-21 52h90q-6 -10 -16 -34.5t-10 -72.5v-393zM180 741
l76 152h54l-118 -152h-12zM293 741l76 152h54l-118 -152h-12z" />
    <glyph glyph-name="uhungarumlaut" unicode="&#x171;" 
d="M51 476q17 1 36 10.5t28 20.5v-339q0 -32 9 -61t28 -50q16 -18 37 -27t44 -11q32 -2 58 9.5t45 32.5t29 49t10 58v201q0 18 -2 33.5t-5 26.5q-4 18 -10 29.5t-10 17.5q17 1 36 10.5t27 20.5v-369q0 -18 2 -33t5 -26q4 -19 10 -30.5t10 -17.5q-17 -1 -36 -10.5t-27 -19.5
v99q-9 -24 -23.5 -42.5t-33.5 -31t-40.5 -19t-42.5 -7.5q-29 -2 -55.5 7t-48.5 28q-26 24 -39.5 58.5t-13.5 76.5v199q0 18 -2 33.5t-4 26.5q-5 18 -11 29.5t-10 17.5zM155 549l77 152h53l-117 -152h-13zM269 549l76 152h54l-118 -152h-12z" />
    <glyph glyph-name="Uogonek" unicode="&#x172;" horiz-adv-x="539" 
d="M122 593v-393q0 -86 40 -132.5t118 -46.5q152 0 152 179v393q0 26 -5.5 55t-21.5 52h75q-6 -10 -16.5 -34.5t-10.5 -72.5v-398q0 -38 -7.5 -71.5t-24.5 -59t-44 -41.5t-66 -21l-14 -14t-14 -15q-10 -11 -19 -23t-16 -24q-8 -16 -10.5 -33t5.5 -34q6 -12 16.5 -19t23 -9
t26.5 2.5t27 15.5l3 -5q-11 -15 -28.5 -26t-40.5 -11q-28 0 -45 14q-24 19 -26 48q-1 18 6 36t19 32q11 14 24 25t26 21q5 5 10.5 9t11.5 9q-4 -1 -8 -1h-8q-95 0 -145 49.5t-50 138.5v405q0 26 -5.5 55t-21.5 52h90q-6 -10 -16 -34.5t-10 -72.5v0z" />
    <glyph glyph-name="uogonek" unicode="&#x173;" horiz-adv-x="493" 
d="M51 476q17 1 36 10.5t28 20.5v-339q0 -32 9 -61t28 -50q16 -18 37 -27t44 -11q32 -2 58 9.5t45 32.5t29 49t10 58v201q0 18 -2 33.5t-5 26.5q-4 18 -10 29.5t-10 17.5q17 1 36 10.5t27 20.5v-369q0 -18 2 -33t4 -26q5 -19 11 -30.5t10 -17.5q-15 -1 -31 -8.5t-27 -15.5
q-8 -8 -15.5 -16.5t-15.5 -17.5q-11 -11 -19.5 -22.5t-15.5 -24.5q-9 -16 -11.5 -32.5t5.5 -33.5q6 -12 16.5 -19t23.5 -9t27 2t27 15l3 -5q-12 -14 -29 -25t-41 -11q-26 0 -45 14q-13 10 -18.5 22t-6.5 26q-1 18 6 35.5t18 31.5t24.5 25t26.5 22q8 7 17 13.5t18 14.5v88
q-18 -49 -57.5 -73.5t-83.5 -26.5q-28 -2 -54.5 7t-48.5 28q-26 24 -39.5 58.5t-13.5 76.5v199q0 18 -2 33.5t-5 26.5q-4 18 -10 29.5t-10 17.5z" />
    <glyph glyph-name="Wcircumflex" unicode="&#x174;" horiz-adv-x="762" 
d="M273 0h-26l-170 607q-12 43 -32 66t-39 27h140q-21 -5 -31 -30.5t-2 -57.5l159 -564l118 309l-70 250q-13 43 -33 66t-39 27h141q-21 -5 -31.5 -30.5t-2.5 -57.5l159 -564l132 346q5 12 11 29.5t11.5 38.5t10 43.5t5.5 44.5q2 32 -4.5 62t-24.5 49q-13 14 -32.5 19
t-46.5 -1q-22 -5 -40.5 -18.5t-31.5 -32.5q15 45 45.5 67t67.5 21q34 0 62.5 -20t38.5 -62q7 -32 2.5 -69t-14.5 -71q-12 -40 -29 -82.5t-28 -73.5l-133 -338h-26l-90 322zM251 741l80 152h66l80 -152h-13l-100 129l-100 -129h-13z" />
    <glyph glyph-name="Ycircumflex" unicode="&#x176;" horiz-adv-x="467" 
d="M259 258v-151q0 -47 10 -72t17 -34h-91q16 22 21.5 51t5.5 55v151l-147 349q-17 42 -33 64t-36 29h100q-17 -11 -16 -33t14 -51l146 -337q10 17 22.5 39.5t26 46.5t26.5 47.5t24 43.5q9 17 21.5 39t21.5 47q5 14 9.5 30t4.5 34q0 22 -5.5 37.5t-13.5 25.5q-15 19 -35 22
t-40 -5q-17 -8 -32 -21.5t-24 -28.5q4 12 11 26.5t18 26.5t27.5 20t38.5 8q24 0 41.5 -9.5t28.5 -25.5t15 -36.5t0 -42.5q-5 -26 -14.5 -47.5t-20.5 -41.5zM138 741l80 152h66l79 -152h-12l-100 129l-100 -129h-13z" />
    <glyph glyph-name="Ydieresis" unicode="&#x178;" horiz-adv-x="467" 
d="M259 258v-151q0 -47 10 -72t17 -34h-91q16 22 21.5 51t5.5 55v151l-147 349q-17 42 -33 64t-36 29h100q-17 -11 -16 -33t14 -51l146 -337q10 17 22.5 39.5t26 46.5t27 47.5t23.5 43.5q9 17 21.5 39t21.5 47q5 14 9.5 30t4.5 34q0 22 -5.5 37.5t-13.5 25.5q-15 19 -35 22
t-40 -5q-17 -8 -32 -21.5t-24 -28.5q4 12 11 26.5t18 26.5t27.5 20t38.5 8q24 0 41.5 -9.5t28.5 -25.5t15 -36.5t0 -42.5q-5 -26 -14.5 -47.5t-20.5 -41.5zM213 849q0 -17 -14.5 -30t-35.5 -13t-35.5 13t-14.5 30q0 19 14.5 31.5t35.5 12.5q20 0 35 -12.5t15 -31.5zM376 849
q0 -17 -15 -30t-35 -13q-21 0 -35.5 13t-14.5 30q0 19 14.5 31.5t35.5 12.5q20 0 35 -12.5t15 -31.5z" />
    <glyph glyph-name="Zacute" unicode="&#x179;" horiz-adv-x="502" 
d="M186 684q-31 0 -50.5 -6t-31.5 -19.5t-18.5 -36t-12.5 -55.5l-6 134h371l-356 -684h169q45 0 76.5 11.5t52 29.5t29.5 40.5t8 44.5q0 20 -8.5 38.5t-24 31t-37.5 17t-50 -1.5q35 20 70.5 18.5t60.5 -22.5t30.5 -52.5t-2.5 -60.5q-8 -32 -31 -57.5t-52 -37.5
q-23 -9 -47.5 -12.5t-50.5 -3.5h-68h-59.5t-56.5 0.5t-59 0.5l352 683h-198zM181 741l77 152h53l-117 -152h-13z" />
    <glyph glyph-name="zacute" unicode="&#x17a;" horiz-adv-x="427" 
d="M211 496h-26q-34 0 -54 -8.5t-32 -23t-18.5 -34.5t-13.5 -43v121h300q0 -48 -20.5 -86t-51.5 -72.5t-67.5 -68.5t-67.5 -73t-51.5 -86t-20.5 -109h141q24 -1 46.5 6.5t38.5 21.5q20 17 25 41.5t-4 45.5q-6 14 -18 23.5t-29 13.5q-10 2 -20 2t-20 -1q17 11 37.5 14.5
t39.5 -1.5t33.5 -18.5t19.5 -37.5q4 -19 -1 -38.5t-19 -36.5q-19 -23 -51 -36q-18 -7 -37 -9t-39 -2h-181q0 68 20.5 120.5t51.5 94.5t67 77t67 67.5t51.5 65t20.5 70.5h-117zM150 549l76 152h54l-118 -152h-12z" />
    <glyph glyph-name="Zdotaccent" unicode="&#x17b;" horiz-adv-x="502" 
d="M186 684q-31 0 -50.5 -6t-31.5 -19.5t-18.5 -36t-12.5 -55.5l-6 134h371l-356 -684h169q45 0 76.5 11.5t52 29.5t29.5 40.5t8 44.5q0 20 -8.5 38.5t-24 31t-37.5 17t-50 -1.5q35 20 70.5 18.5t60.5 -22.5t30.5 -52.5t-2.5 -60.5q-9 -32 -31.5 -57.5t-51.5 -37.5
q-23 -9 -47.5 -12.5t-50.5 -3.5h-68h-59.5t-56.5 0.5t-59 0.5l352 683h-198zM297 849q0 -17 -15 -30t-36 -13q-20 0 -35 13t-15 30q0 19 15 31.5t35 12.5q21 0 36 -12.5t15 -31.5z" />
    <glyph glyph-name="zdotaccent" unicode="&#x17c;" horiz-adv-x="427" 
d="M211 496h-26q-34 0 -54.5 -8.5t-32.5 -23t-18.5 -34.5t-12.5 -43v121h300q0 -48 -20.5 -86t-51.5 -72.5t-67.5 -68.5t-67.5 -73t-51.5 -86t-20.5 -109h141q24 -1 46.5 6.5t38.5 21.5q20 17 25 41.5t-4 45.5q-6 14 -18 23.5t-30 13.5q-9 2 -19 2t-20 -1q17 11 37.5 14.5
t39.5 -1.5t33.5 -18.5t19.5 -37.5q4 -19 -1.5 -38.5t-18.5 -36.5q-19 -23 -51 -36q-18 -7 -37 -9t-39 -2h-181q0 68 20.5 120.5t51.5 94.5t67 77t67 67.5t51.5 65t20.5 70.5h-117zM265 657q0 -18 -15 -31t-35 -13q-21 0 -36 13t-15 31q0 19 15 31.5t36 12.5q20 0 35 -12.5
t15 -31.5z" />
    <glyph glyph-name="Zcaron" unicode="&#x17d;" horiz-adv-x="502" 
d="M186 684q-31 0 -50.5 -6t-31.5 -19.5t-18.5 -36t-12.5 -55.5l-6 134h371l-356 -684h169q45 0 76.5 11.5t52 29.5t29.5 40.5t8 44.5q0 20 -8.5 38.5t-24 31t-37.5 17t-50 -1.5q35 20 70.5 18.5t60.5 -22.5t30.5 -52.5t-2.5 -60.5q-8 -32 -31 -57.5t-52 -37.5
q-23 -9 -47.5 -12.5t-50.5 -3.5h-68h-59.5t-56.5 0.5t-59 0.5l352 683h-198zM147 893l100 -129l100 129h12l-80 -152h-65l-80 152h13z" />
    <glyph glyph-name="zcaron" unicode="&#x17e;" horiz-adv-x="427" 
d="M211 496h-26q-34 0 -54.5 -8.5t-32.5 -23t-18.5 -34.5t-12.5 -43v121h300q0 -48 -20.5 -86t-51.5 -72.5t-67.5 -68.5t-67.5 -73t-51.5 -86t-20.5 -109h141q24 -1 46.5 6.5t38.5 21.5q20 17 25 41.5t-4 45.5q-6 14 -18 23.5t-29 13.5q-10 2 -20 2t-20 -1q17 11 37.5 14.5
t39.5 -1.5t33.5 -18.5t19.5 -37.5q4 -19 -1 -38.5t-19 -36.5q-19 -23 -51 -36q-18 -7 -37 -9t-39 -2h-181q0 68 20.5 120.5t51.5 94.5t67 77t67 67.5t51.5 65t20.5 70.5h-117zM115 701l100 -130l100 130h12l-80 -152h-65l-80 152h13z" />
    <glyph glyph-name="uni0226" unicode="&#x226;" horiz-adv-x="516" 
d="M268 700l174 -603q5 -15 10.5 -30.5t12.5 -29t17 -23.5t24 -14h-118q15 6 21.5 16t7 23t-3.5 29t-9 34l-13 46h-197q-18 0 -32 -1t-25.5 -6t-20 -15t-14.5 -27q-2 -8 -4 -14.5t-4 -13.5q-7 -24 -6.5 -42t17.5 -29h-88q24 14 40 42t24 54zM312 849q0 -17 -15 -30t-35 -13
q-21 0 -35.5 13t-14.5 30q0 19 14.5 31.5t35.5 12.5q20 0 35 -12.5t15 -31.5zM261 606q-46 -158 -83.5 -272t-64.5 -199q13 24 33 31t45 7h193z" />
    <glyph glyph-name="circumflex" unicode="&#x2c6;" horiz-adv-x="286" 
d="M30 548l80 152h65l80 -152h-12l-100 129l-101 -129h-12z" />
    <glyph glyph-name="caron" unicode="&#x2c7;" horiz-adv-x="286" 
d="M42 700l101 -129l100 129h12l-80 -152h-65l-80 152h12z" />
    <glyph glyph-name="breve" unicode="&#x2d8;" horiz-adv-x="356" 
d="M178 548q-43 0 -71 16t-44 39.5t-22 50t-6 46.5h14q0 -18 8 -38.5t24 -37t40 -27.5t57 -11q32 0 56.5 11t40.5 27.5t24 37t8 38.5h14q0 -20 -6 -46.5t-22 -50t-44 -39.5t-71 -16z" />
    <glyph glyph-name="dotaccent" unicode="&#x2d9;" horiz-adv-x="157" 
d="M128 656q0 -17 -14.5 -30t-35.5 -13q-20 0 -35 13t-15 30q0 19 15 31.5t35 12.5q21 0 35.5 -12.5t14.5 -31.5z" />
    <glyph glyph-name="ogonek" unicode="&#x2db;" horiz-adv-x="180" 
d="M144 15q-10 -10 -20 -20.5t-20 -21.5t-19 -23t-16 -24q-8 -16 -11 -33t6 -34q6 -12 16 -19t23 -9t27 2.5t27 15.5l3 -5q-12 -15 -29 -26t-40 -11q-28 0 -45 14q-14 10 -19.5 22t-6.5 26q-1 18 6 36t19 32q11 14 24 25t26 21q10 8 19.5 16t20.5 16h9z" />
    <glyph glyph-name="hungarumlaut" unicode="&#x2dd;" horiz-adv-x="302" 
d="M31 548l77 152h53l-118 -152h-12zM144 548l77 152h54l-118 -152h-13z" />
    <glyph glyph-name="Sigma" unicode="&#x3a3;" horiz-adv-x="477" 
d="M449 700v-39q-10 6 -35 16.5t-72 10.5h-249l218 -301l-232 -349h263q47 0 72 10t35 16v-64h-422l237 362l-238 338h423z" />
    <glyph glyph-name="Wgrave" unicode="&#x1e80;" horiz-adv-x="763" 
d="M274 0h-26l-170 607q-12 43 -32.5 66t-38.5 27h140q-21 -5 -31 -30.5t-2 -57.5l159 -564l118 309l-71 250q-12 43 -32 66t-39 27h141q-21 -5 -31.5 -30.5t-2.5 -57.5l159 -564l132 346q5 12 11 29.5t11.5 38.5t10 43.5t5.5 44.5q2 32 -4.5 62t-24.5 49q-13 14 -32.5 19
t-46.5 -1q-22 -5 -40.5 -18.5t-31.5 -32.5q15 45 45.5 67t67.5 21q34 0 62.5 -20t38.5 -62q7 -32 2.5 -69t-14.5 -71q-12 -40 -29 -82.5t-28 -73.5l-133 -338h-26l-90 322zM417 741l-117 152h53l77 -152h-13z" />
    <glyph glyph-name="Wacute" unicode="&#x1e82;" horiz-adv-x="763" 
d="M274 0h-26l-170 607q-12 43 -32.5 66t-38.5 27h140q-21 -5 -31 -30.5t-2 -57.5l159 -564l118 309l-71 250q-12 43 -32 66t-39 27h141q-22 -5 -32 -30.5t-2 -57.5l159 -564l132 346q5 12 11 29.5t11.5 38.5t10 43.5t5.5 44.5q2 32 -4.5 62t-24.5 49q-13 14 -32.5 19
t-46.5 -1q-22 -5 -40.5 -18.5t-31.5 -32.5q15 45 45.5 67t67.5 21q34 0 62.5 -20t38.5 -62q7 -32 2.5 -69t-14.5 -71q-12 -40 -28.5 -82.5t-28.5 -73.5l-133 -338h-26l-91 322zM300 741l76 152h54l-118 -152h-12z" />
    <glyph glyph-name="Wdieresis" unicode="&#x1e84;" horiz-adv-x="763" 
d="M274 0h-26l-170 607q-12 43 -32.5 66t-38.5 27h140q-21 -5 -31 -30.5t-2 -57.5l159 -564l118 309l-71 250q-12 43 -32 66t-39 27h141q-21 -5 -31.5 -30.5t-2.5 -57.5l159 -564l132 346q5 12 11 29.5t11.5 38.5t10 43.5t5.5 44.5q2 32 -4.5 62t-24.5 49q-13 14 -32.5 19
t-46.5 -1q-22 -5 -40.5 -18.5t-31.5 -32.5q15 45 45.5 67t67.5 21q34 0 62.5 -20t38.5 -62q7 -32 2.5 -69t-14.5 -71q-12 -40 -28.5 -82.5t-28.5 -73.5l-133 -338h-26l-90 322zM333 849q0 -17 -14.5 -30t-35.5 -13q-20 0 -35 13t-14 30q0 19 14.5 31.5t34.5 12.5
q21 0 35.5 -12.5t14.5 -31.5zM496 849q0 -17 -14.5 -30t-35.5 -13q-20 0 -35 13t-15 30q0 19 15 31.5t35 12.5q21 0 35.5 -12.5t14.5 -31.5z" />
    <glyph glyph-name="uni1EBC" unicode="&#x1ebc;" horiz-adv-x="482" 
d="M127 14h94q21 0 47.5 1.5t52.5 7.5q54 12 74 45q17 32 2 82q30 -17 38 -43.5t0 -51.5q-8 -23 -27.5 -39t-48.5 -16h-296q15 23 21 52t6 55v486q0 26 -6 55t-21 52h332l17 -114q-14 59 -42.5 79.5t-68.5 20.5h-174v-224q5 8 11.5 11t14.5 3q10 0 21 -5t23 -11
q14 -8 26.5 -14t26.5 -10q26 -8 52 -1q17 5 28.5 15.5t16.5 29.5q7 -8 10 -17.5t2 -18.5q-2 -17 -12 -30.5t-30 -17.5q-21 -5 -37.5 -2t-32.5 11q-14 7 -26.5 16t-26.5 19q-13 8 -24.5 14.5t-19.5 7.5q-11 2 -17 -5.5t-6 -30.5v-412zM72 832q28 45 75.5 57.5t98.5 -12.5
q24 -12 48 -21t47 -10.5t43.5 7.5t38.5 35l7 -12q-13 -21 -33 -35.5t-43 -21t-48 -4t-50 14.5q-24 12 -48.5 21.5t-47.5 11t-43.5 -8t-38.5 -35.5z" />
    <glyph glyph-name="Ygrave" unicode="&#x1ef2;" horiz-adv-x="467" 
d="M259 258v-151q0 -47 10 -72t16 -34h-90q16 22 21.5 51t5.5 55v151l-147 349q-17 42 -33 64t-36 29h100q-17 -11 -16 -33t14 -51l146 -337q9 17 22 39.5t26.5 46.5t27 47.5t23.5 43.5q9 17 21.5 39t20.5 47q5 14 10 30t5 34q0 22 -5.5 37.5t-13.5 25.5q-15 19 -35 22
t-40 -5q-17 -8 -32 -21.5t-24 -28.5q4 12 11 26.5t18 26.5t27.5 20t38.5 8q24 0 41.5 -9.5t28.5 -25.5t15 -36.5t0 -42.5q-5 -26 -14.5 -47.5t-20.5 -41.5zM275 741l-118 152h53l77 -152h-12z" />
    <glyph glyph-name="endash" unicode="&#x2013;" horiz-adv-x="544" 
d="M19 235v37h506v-37h-506z" />
    <glyph glyph-name="emdash" unicode="&#x2014;" horiz-adv-x="874" 
d="M19 235v37h836v-37h-836z" />
    <glyph glyph-name="quoteleft" unicode="&#x2018;" horiz-adv-x="183" 
d="M91 584q21 0 35.5 -13t14.5 -31q0 -19 -14.5 -31.5t-35.5 -12.5t-35.5 12.5t-14.5 31.5q0 14 5.5 37.5t17 48t30 45.5t43.5 29l4 -6q-29 -24 -38.5 -54.5t-11.5 -55.5v0z" />
    <glyph glyph-name="quoteright" unicode="&#x2019;" horiz-adv-x="183" 
d="M91 613q-20 0 -35 13t-15 30q0 19 15 31.5t35 12.5q21 0 35.5 -12.5t14.5 -31.5q0 -14 -5.5 -37.5t-16.5 -48t-29 -45.5t-44 -29l-5 6q29 24 39 54.5t12 56.5h-1z" />
    <glyph glyph-name="quotesinglbase" unicode="&#x201a;" horiz-adv-x="158" 
d="M78 0q-20 0 -35 13t-15 31q0 19 15 31t35 12q21 0 35.5 -12t14.5 -31q0 -14 -5.5 -37.5t-16.5 -48t-29 -45.5t-44 -29l-5 6q29 24 39 54t12 56h-1z" />
    <glyph glyph-name="quotedblleft" unicode="&#x201c;" horiz-adv-x="325" 
d="M233 584q21 0 35.5 -13t14.5 -31q0 -19 -14.5 -31.5t-35.5 -12.5q-20 0 -35 12.5t-15 31.5q0 14 5.5 37.5t17 48t30 45.5t43.5 29l4 -6q-29 -24 -38.5 -54.5t-11.5 -55.5v0zM91 584q21 0 35.5 -13t14.5 -31q0 -19 -14.5 -31.5t-35.5 -12.5t-35.5 12.5t-14.5 31.5
q0 14 5.5 37.5t17 48t30 45.5t43.5 29l4 -6q-29 -24 -39 -54.5t-12 -55.5h1z" />
    <glyph glyph-name="quotedblright" unicode="&#x201d;" horiz-adv-x="325" 
d="M91 613q-20 0 -35 13t-15 30q0 19 15 31.5t35 12.5q21 0 35.5 -12.5t14.5 -31.5q0 -14 -5.5 -37.5t-17 -48t-29.5 -45.5t-44 -29l-4 6q29 24 39 54.5t12 56.5h-1zM233 613q-20 0 -35 13t-15 30q0 19 15 31.5t35 12.5q21 0 35.5 -12.5t14.5 -31.5q0 -14 -5.5 -37.5
t-17 -48t-29.5 -45.5t-44 -29l-4 6q29 24 39 54.5t12 56.5h-1z" />
    <glyph glyph-name="quotedblbase" unicode="&#x201e;" horiz-adv-x="300" 
d="M78 0q-20 0 -35 13t-15 31q0 19 15 31t35 12q21 0 35.5 -12t14.5 -31q0 -14 -5.5 -37.5t-16.5 -48t-29 -45.5t-44 -29l-5 6q29 24 39 54t12 56h-1zM220 0q-20 0 -35 13t-15 31q0 19 15 31t35 12q21 0 36 -12t15 -31q0 -14 -5.5 -37.5t-17 -48t-29.5 -45.5t-44 -29l-5 6
q29 24 39 54t12 56h-1z" />
    <glyph glyph-name="dagger" unicode="&#x2020;" horiz-adv-x="488" 
d="M46 429v73l188 -29l-27 227h74l-27 -227l188 29v-73l-189 27q0 -35 8 -62t34 -50q-14 -53 -22 -123t-12 -143.5t-5.5 -144.5t-2.5 -126h-19q0 55 -1.5 126t-5.5 144.5t-12.5 143.5t-22.5 123q26 23 34.5 50t8.5 62z" />
    <glyph glyph-name="bullet" unicode="&#x2022;" horiz-adv-x="254" 
d="M217 350q0 -32 -26 -55.5t-64 -23.5t-64 23.5t-26 55.5q0 34 26 56.5t64 22.5t64 -22.5t26 -56.5z" />
    <glyph glyph-name="guilsinglleft" unicode="&#x2039;" horiz-adv-x="349" 
d="M44 274l259 172v-24l-196 -168l196 -169v-24l-259 172v41z" />
    <glyph glyph-name="guilsinglright" unicode="&#x203a;" horiz-adv-x="349" 
d="M305 233l-259 -172v24l196 169l-196 168v24l259 -172v-41z" />
    <glyph glyph-name="Euro" unicode="&#x20ac;" horiz-adv-x="722" 
d="M657 515q-2 -14 -10 -25t-25 -19q-8 23 -19 47t-27 47q-16 24 -37 44.5t-45.5 35.5t-53.5 22.5t-61 5.5q-75 -5 -141 -65q-38 -35 -58.5 -85t-25.5 -104h274l-10 -36h-265q0 -33 6 -66h242l-10 -36h-224q18 -63 52 -112.5t77.5 -82t93.5 -44.5t100 1q56 15 96 57t60 100
v-41q-38 -72 -100.5 -115.5t-137.5 -43.5q-51 0 -97.5 21.5t-83 59t-62 89t-35.5 111.5h-78l10 36h64q-1 8 -1 16.5v16.5v16.5t1 16.5h-74l10 36h68q10 60 35.5 111.5t62 89t83 59t97.5 21.5q30 -1 59 -6.5t56 -16.5q26 -11 58.5 -36t54.5 -56q11 -17 17.5 -35t3.5 -35z" />
    <glyph glyph-name="trademark" unicode="&#x2122;" horiz-adv-x="479" 
d="M114 694h-34q-21 0 -28 -9.5t-13 -35.5v51h163v-51q-6 26 -13 35.5t-27 9.5h-34v-223q0 -10 2 -21.5t8 -19.5h-35q6 8 8.5 19.5t2.5 21.5v223zM234 430q6 8 8 19.5t2 21.5v46.5v28.5v19v19t0.5 28.5t0.5 46.5q0 10 -2.5 21.5t-8.5 19.5h24l76 -213l72 213h23
q-2 -4 -6 -13.5t-4 -27.5v-188q0 -18 4 -28t6 -13h-35q2 3 6 13t4 28v197l-61 -181q-10 -31 -32 -28q12 3 10 13.5t-5 19.5l-63 176v-197q0 -18 4 -28t6 -13h-29z" />
    <glyph glyph-name="radical" unicode="&#x221a;" horiz-adv-x="534" 
d="M499 893h37l-240 -895h-51l-124 468h-78v41h118l117 -440z" />
    <glyph glyph-name="notequal" unicode="&#x2260;" horiz-adv-x="567" 
d="M58 434v37h251l83 229h37l-83 -229h163v-37h-177l-61 -168h238v-37h-251l-83 -231h-37l83 231h-163v37h177l61 168h-238z" />
    <glyph glyph-name="lessequal" unicode="&#x2264;" horiz-adv-x="564" 
d="M45 374l470 229v-48l-433 -205l433 -205v-48l-470 229v48zM45 -37v37h470v-37h-470z" />
    <glyph glyph-name="greaterequal" unicode="&#x2265;" horiz-adv-x="564" 
d="M519 326l-470 -229v48l433 205l-433 205v48l470 -229v-48zM49 -37v37h470v-37h-470z" />
    <glyph glyph-name="uniF000" unicode="&#xf000;" horiz-adv-x="496" 
d="M264 701q41 -143 82.5 -284t81.5 -284q6 -21 18.5 -64.5t29 -93t36 -97.5t38.5 -76q17 -26 39 -42.5t48 -16.5q22 -1 39.5 7.5t28.5 22.5q12 14 15.5 29t1.5 29t-9.5 26t-18.5 19q-10 7 -23 9.5t-26 -1t-26 -14.5t-23 -32q5 38 28 56t49 19q15 1 30 -4.5t26 -17t17 -28.5
t3 -39q-2 -17 -9 -33t-21.5 -28.5t-36 -20t-51.5 -7.5q-33 0 -59.5 18.5t-48.5 47.5q-20 27 -40 71.5t-37.5 92.5t-31 91.5t-20.5 68.5q-2 5 -3.5 11t-3.5 12h-197q-18 0 -32 -1t-25.5 -6t-20 -15t-14.5 -27q-2 -7 -4 -13.5t-4 -13.5q-7 -24 -6.5 -42t17.5 -29h-88
q24 14 40 41.5t24 53.5zM257 607q-46 -158 -83.5 -272t-64.5 -200q13 24 33 31t45 7h193z" />
    <glyph glyph-name="uniF001" unicode="&#xf001;" horiz-adv-x="549" 
d="M381 420q-14 -12 -34 -23t-37 -16q38 -5 64 -19q41 -20 68.5 -59.5t41.5 -95.5q10 -40 13 -83t-0.5 -86.5t-15 -85t-30.5 -77.5q-32 -61 -88 -100t-139 -40q-36 0 -68.5 7.5t-58.5 23.5q-35 22 -56 57t-22 86q-1 40 14.5 70t41.5 48q30 23 68.5 27.5t71.5 -11t54 -53
t18 -98.5q-4 31 -16 54t-28.5 38t-36.5 22t-40 7q-19 0 -37.5 -6.5t-34.5 -19.5t-27 -32.5t-14 -46.5q-5 -35 8.5 -70.5t45.5 -61.5q38 -29 90 -30q86 0 141 41.5t83 106.5q29 66 34 144t-9 148q-10 54 -32 94t-52 61q-38 27 -91 30q-21 1 -41.5 -3t-37.5 -13
q-22 -10 -39 -30q-9 -11 -16 -29v-221q-9 1 -19 -1.5t-18 -6.5v526q0 27 -5.5 56t-21.5 52h173q20 0 42.5 -3t41.5 -9q23 -8 39 -19q29 -20 46.5 -49.5t20.5 -67.5q3 -42 -12 -76t-43 -57zM242 389q15 5 30 8.5t29 9.5q37 15 59 40q32 37 31 99q0 31 -13 62q-19 38 -50 55
q-28 16 -62.5 19.5t-69.5 3.5h-59v-368q16 33 44.5 47.5t60.5 23.5z" />
    <glyph glyph-name="uniF002" unicode="&#xf002;" horiz-adv-x="625" 
d="M348 -192q-51 0 -96.5 26.5t-82.5 73.5t-62 111.5t-36 140.5q-7 48 -9 104.5t4 113.5q5 47 16.5 90.5t31.5 79.5q38 69 99.5 111t134.5 42q30 -1 59 -6.5t56 -16.5q26 -11 58.5 -36t54.5 -56q11 -17 17.5 -35.5t3.5 -35.5q-5 -27 -34 -44q-8 24 -19.5 48t-27.5 46
q-16 24 -37 44.5t-45.5 35.5t-53.5 23t-61 6q-75 -5 -141 -65q-16 -15 -28.5 -32.5t-22.5 -36.5q-18 -35 -27 -77t-11 -87q-3 -54 2 -107t15 -98q16 -75 46.5 -139.5t70 -110.5t85.5 -70.5t92 -18.5q34 5 57 22t48 38q28 23 55.5 40t56.5 24q28 6 55.5 2t51.5 -16t43 -30.5
t31 -42.5q14 -31 12.5 -68t-27.5 -66q8 38 -3.5 74.5t-37.5 62.5q-23 23 -55 34.5t-70 4.5q-30 -5 -59.5 -19.5t-57.5 -31.5q-38 -23 -72.5 -37.5t-79.5 -14.5z" />
    <glyph glyph-name="uniF003" unicode="&#xf003;" horiz-adv-x="608" 
d="M154 148q-19 0 -37 -8v453q0 27 -5.5 56t-20.5 52h149q56 0 100 -17t78 -47q54 -47 86 -125.5t40 -172.5q6 -63 0 -138t-29 -147q-18 -61 -50 -112t-78 -85q-30 -22 -65.5 -35.5t-80.5 -13.5q-73 -2 -127 31q-35 22 -55.5 57t-22.5 86q-1 40 15 69.5t41 48.5
q30 23 68.5 27.5t71.5 -11t54 -52.5t18 -99q-4 31 -16 54t-28.5 38t-36.5 22t-40 6q-38 -1 -71.5 -26t-41.5 -78q-5 -35 9 -70.5t46 -61.5q36 -30 89 -30q46 0 87.5 16t74.5 45q22 19 38.5 42.5t29.5 49.5q20 41 31.5 87.5t17.5 94t6.5 93.5t-1.5 86q-6 88 -31 162.5
t-69 119.5q-34 34 -81 52.5t-111 18.5h-52v-538z" />
    <glyph glyph-name="uniF004" unicode="&#xf004;" horiz-adv-x="442" 
d="M127 -2q20 -2 41 -7.5t44 -14.5q34 -14 71 -32.5t72 -39.5q25 -14 48 -29t43 -29q17 -11 37 -24.5t41 -25.5q20 -11 40.5 -18.5t39.5 -7.5q22 0 39.5 8.5t28.5 24t15 35.5t-1 42q17 -28 17 -54t-12 -46.5t-34.5 -32.5t-51.5 -12q-20 0 -42.5 9.5t-45.5 23.5
q-24 14 -45.5 29.5t-37.5 27.5q-23 16 -45 31.5t-45 30.5q-32 21 -66 40t-72 34q-38 17 -74.5 26.5t-68.5 13.5q16 22 21.5 51.5t5.5 55.5v485q0 27 -5.5 56t-21.5 52h332l17 -114q-7 29 -18 48.5t-25 30.5t-31 15.5t-37 4.5h-174v-224q5 8 11.5 11.5t14.5 3.5
q10 -1 21.5 -5.5t22.5 -11.5q14 -8 27 -14t27 -10q12 -3 24.5 -3.5t27.5 3.5q16 5 27.5 15.5t16.5 29.5q14 -17 12 -37q-2 -16 -12 -29.5t-30 -18.5t-37 -1.5t-33 11.5q-14 7 -26.5 16t-26.5 18q-13 9 -24 15t-19 8q-11 2 -17.5 -6t-6.5 -31v-428z" />
    <glyph glyph-name="uniF005" unicode="&#xf005;" horiz-adv-x="441" 
d="M150 463q-11 2 -17.5 -6t-6.5 -31v-379q0 -55 -0.5 -111t-13.5 -102q-13 -42 -42 -69.5t-86 -29.5q-27 -2 -53 10t-44 34q-27 31 -31.5 69t9.5 69q14 29 39 42.5t53 12.5q28 -2 51.5 -20.5t32.5 -60.5q-23 33 -52 41.5t-54 -2.5q-20 -9 -31 -24t-15 -33.5t-1 -38.5
t12 -37q11 -23 33 -37.5t52 -14.5q31 0 50 17.5t30 43.5q4 8 6.5 16t4.5 16q9 35 10.5 72.5t2.5 63.5v73v546q0 27 -5.5 56t-21.5 52h332l17 -114q-7 29 -18 48.5t-25 30.5t-31 15.5t-37 4.5h-174v-224q5 8 11.5 11.5t14.5 3.5q10 -1 21 -5.5t23 -11.5q14 -8 27 -14t27 -10
q12 -3 24.5 -3.5t26.5 3.5q17 5 28.5 15.5t16.5 29.5q14 -17 12 -37q-2 -16 -12 -29.5t-30 -18.5t-37 -1.5t-33 11.5q-14 7 -26.5 16t-26.5 18q-13 9 -24 15t-19 8z" />
    <glyph glyph-name="uniF006" unicode="&#xf006;" horiz-adv-x="654" 
d="M585 515q-5 -27 -34 -44q-16 50 -46 94q-16 24 -37 44.5t-46 35.5t-54 23t-61 6q-36 -2 -72 -18.5t-68 -46.5q-31 -29 -50.5 -67.5t-28 -82t-7 -88t12.5 -85.5q17 -64 51 -114.5t78.5 -83.5t95 -45t100.5 1q34 9 62 28.5t49 47.5v93q0 26 -5.5 55t-20.5 52h90
q-6 -9 -16.5 -34t-10.5 -73v-248v-61.5t-9 -76t-31 -65t-66 -27.5q-19 0 -35 7.5t-30.5 20t-27.5 28t-27 31.5q-16 20 -32.5 38t-36.5 30q-37 23 -66.5 17.5t-46.5 -27.5q-19 -23 -19.5 -58t22.5 -67q-29 22 -40 55t-4.5 64t30.5 54t64 25q45 3 75.5 -22t54.5 -59
q15 -21 29 -43.5t28 -40.5t28.5 -30.5t32.5 -13.5q24 -2 37.5 13.5t21.5 38.5q5 16 7.5 35t3 37t0.5 33.5v26.5v167q-38 -44 -87.5 -69t-106.5 -25q-58 0 -110 27.5t-90 75t-60.5 111t-22.5 136.5q0 72 22.5 136t60.5 111.5t90 75t110 27.5q31 -1 60 -6.5t55 -16.5
q13 -6 28.5 -15t30.5 -21t29.5 -26.5t24.5 -29.5q12 -17 18 -35.5t3 -35.5z" />
    <glyph glyph-name="uniF007" unicode="&#xf007;" horiz-adv-x="549" 
d="M63 1q15 22 21 51.5t6 55.5v485q0 27 -6 56t-21 52h90q-6 -10 -16.5 -35t-10.5 -73v-131q14 15 36 15q14 -1 29 -5.5t31 -11.5q19 -8 36.5 -14t36.5 -10q16 -3 33 -3.5t37 3.5t35.5 13t23.5 26v119q0 26 -6 55t-21 52h90q-6 -10 -16.5 -35t-10.5 -72v-333t1 -333v-26.5
t0.5 -33.5t3 -37t7.5 -35q7 -23 21 -38.5t37 -13.5q18 1 32.5 11.5t28 26.5t26.5 36l26 40q13 19 27 37t30.5 31.5t35.5 20.5t43 6q41 -2 64.5 -25t30 -54t-4.5 -64t-40 -55q14 20 19.5 46t-0.5 49q-7 26 -23 40t-37 18q-21 3 -38 -1.5t-31.5 -14t-27.5 -23t-25 -27.5
q-15 -18 -30.5 -37t-32 -34.5t-35 -25.5t-39.5 -10q-39 0 -60.5 20t-31.5 50t-12 64t-2 63v480q-15 -12 -38 -16q-28 -5 -51 -1.5t-44 11.5q-19 7 -36.5 16t-36.5 18q-17 9 -32 15t-26 8q-14 2 -23.5 -6t-9.5 -31v-318q0 -48 10.5 -73t16.5 -34h-90z" />
    <glyph glyph-name="uniF008" unicode="&#xf008;" horiz-adv-x="216" 
d="M63 1q15 22 21 51.5t6 55.5v486q0 26 -6 55t-21 52h3q-6 5 -11 10l-10 10q-24 26 -40 59.5t-17 68.5q0 25 9 46.5t25 37t37.5 24.5t46.5 9q53 2 89 -37q16 -16 24 -37q13 -31 7 -61.5t-23 -52.5q-12 -15 -32.5 -23.5t-42 -7t-39 15t-22.5 43.5q14 -25 37 -33t44 -1
q19 6 29.5 20.5t13 33t-2.5 38.5t-18 36q-11 14 -28.5 23t-40.5 10q-25 0 -47 -12t-33 -38t-6 -59t22 -62q16 -26 40 -43.5t51 -17.5h25q-6 -10 -16.5 -35t-10.5 -72v-486q0 -48 10.5 -73t16.5 -34h-90z" />
    <glyph glyph-name="uniF009" unicode="&#xf009;" horiz-adv-x="396" 
d="M270 594q0 47 -10.5 72t-16.5 35h90q-6 -10 -16 -35t-10 -73v-603q0 -24 -1 -49.5t-4.5 -50.5t-10.5 -48t-18 -42q-17 -29 -47 -47t-78 -18q-42 0 -72 16t-52 44q-19 23 -28.5 54t-8.5 65q2 44 20.5 78t47.5 54q27 20 60.5 25t62.5 -3q30 -9 51.5 -32t23.5 -60
q-12 24 -32.5 39.5t-44.5 21.5q-28 7 -53 1t-45 -21q-24 -18 -38 -45t-16 -59q-1 -34 9 -61t28 -46.5t41 -30.5t47 -13q30 -2 53.5 9.5t41.5 31.5q25 29 37.5 69.5t14.5 79.5q2 36 -4.5 64.5t-21.5 40.5v537z" />
    <glyph glyph-name="uniF00A" unicode="&#xf00a;" horiz-adv-x="499" 
d="M607 -265q-33 0 -60 18.5t-48 48.5q-18 23 -32 50t-25 55q-10 26 -17.5 52t-14.5 52q-9 38 -16.5 77t-15.5 79q-5 26 -11.5 52t-15.5 50q-9 26 -23.5 48t-37.5 34q-22 10 -55 13q-16 1 -33 -2.5t-32 -11.5t-26.5 -21t-16.5 -31v-190q0 -26 5.5 -55.5t20.5 -51.5h-90
q15 22 21 51.5t6 55.5v485q0 27 -6 56t-21 52h90q-15 -23 -20.5 -52t-5.5 -56v-267q8 18 21.5 29t27.5 17q20 8 43 12.5t46 10.5q45 13 65.5 39t25.5 60q6 32 3.5 67t-3 65t6.5 51.5t31 26.5q14 3 29 -1t28 -12q-21 2 -36 -6t-20 -25q-4 -19 -1.5 -50t3 -65t-5.5 -66.5
t-29 -54.5q-12 -12 -32 -26t-47 -20q8 -2 15 -4.5t13 -4.5q27 -10 43.5 -30t27.5 -45t18.5 -55.5t13.5 -62.5q8 -40 14.5 -80t14.5 -74q6 -26 13 -52t16 -52q10 -32 23 -60.5t31 -54.5q18 -27 39.5 -43.5t47.5 -16.5q37 0 60 25q16 17 19 39t-4 41q-9 24 -27.5 31.5
t-37.5 2.5q-34 -10 -51 -44q5 38 28 56.5t49 19.5q15 0 30 -5.5t26 -17t16.5 -28t3.5 -38.5q-2 -17 -9 -33t-21.5 -29t-36 -20.5t-51.5 -7.5z" />
    <glyph glyph-name="uniF00B" unicode="&#xf00b;" horiz-adv-x="216" 
d="M127 -2q20 -2 41 -7.5t44 -14.5q34 -14 70.5 -32.5t72.5 -39.5q25 -14 48 -29t43 -29q17 -11 36.5 -24.5t41.5 -25.5q20 -11 40.5 -18.5t39.5 -7.5q22 0 39.5 8.5t28.5 24t15 35.5t-1 42q17 -28 17 -54t-12 -46.5t-34.5 -32.5t-51.5 -12q-20 0 -42.5 9.5t-45.5 23.5
q-24 14 -45.5 29.5t-37.5 27.5q-23 16 -45 31.5t-45 30.5q-32 21 -66 40t-72 34q-38 17 -75 26.5t-68 13.5q15 22 21 51.5t6 55.5v485q0 27 -6 56t-21 52h90q-15 -23 -20.5 -52t-5.5 -56v-595z" />
    <glyph glyph-name="uniF00C" unicode="&#xf00c;" horiz-adv-x="630" 
d="M110 142v-111t-9 -125q-5 -35 -14 -66.5t-24 -54.5t-36.5 -36.5t-51.5 -13.5q-17 0 -28.5 5t-19.5 12.5t-12 15.5t-5 15q34 6 61 16.5t47 28.5q17 15 30 35.5t21 49.5q14 50 17 109.5t3 121.5v450q0 26 -5.5 55t-21.5 52h62l198 -553l185 553h59q-6 -10 -16.5 -35
t-10.5 -72v-486q0 -48 10.5 -73t16.5 -34h-90q6 9 16.5 34t10.5 73v511l-160 -470q-14 -41 -35 -59t-47 -13q16 4 21.5 13.5t5 21.5t-5 25t-9.5 25l-163 457v-295v-182z" />
    <glyph glyph-name="uniF00D" unicode="&#xf00d;" horiz-adv-x="580" 
d="M110 324q0 -27 0.5 -54.5t0.5 -54.5q1 -54 1 -107.5t-2 -106.5q-1 -32 -4 -63.5t-8.5 -59.5t-13.5 -51.5t-19 -41.5q-15 -23 -36.5 -36.5t-51.5 -13.5q-16 0 -27.5 5t-19.5 12.5t-12.5 15.5t-5.5 15q35 6 61.5 16.5t47.5 28.5q17 15 29.5 35.5t20.5 49.5q6 21 9.5 44
t5.5 47q3 54 3.5 108t0.5 109q-1 26 -1 51.5v51.5v269q0 27 -5.5 56t-21.5 52h54l355 -609v501q0 27 -6 56t-21 52h75q-7 -10 -17 -35t-10 -73v-503q0 -13 -2 -28.5t-7 -29t-15 -22.5t-27 -9h-9t-6 1q25 5 25.5 27t-14.5 45l-327 559v-309z" />
    <glyph glyph-name="uniF00E" unicode="&#xf00e;" horiz-adv-x="672" 
d="M335 701q59 0 110.5 -27.5t90 -75t61 -111.5t22.5 -136q0 -54 -12.5 -103.5t-35 -91t-53.5 -74t-69 -52.5q-12 -7 -23.5 -11.5t-23.5 -8.5q-31 -9 -66 -9q-46 -1 -87 14t-70 47q-37 38 -50 100q-9 47 6 84.5t44 60.5q42 35 94 33q31 -1 61 -16.5t54 -48.5
q-26 22 -55 31.5t-57 7.5q-48 -2 -80 -34q-17 -19 -25 -47.5t0 -64.5q8 -43 35 -72q38 -41 92 -54q42 -11 88 -3t87 33q38 23 65.5 59.5t42.5 82.5t16 98t-13 105q-17 63 -51.5 113t-79 82.5t-96.5 44t-103 -2.5t-90 -50t-61.5 -86t-27.5 -110.5t12 -123.5q3 -11 6.5 -22
t7.5 -22q-5 -20 -6 -41t4 -42q-23 42 -35 91t-12 103q0 72 22.5 136t60.5 111.5t90 75t110 27.5z" />
    <glyph glyph-name="uniF00F" unicode="&#xf00f;" horiz-adv-x="459" 
d="M125 154q0 -42 0.5 -83.5t0.5 -83.5q0 -41 -2 -80t-12 -73q-13 -42 -42 -69.5t-86 -29.5q-27 -2 -53 10t-44 34q-27 31 -31.5 69t9.5 69q14 29 39 42.5t53 12.5q28 -2 51.5 -20.5t32.5 -60.5q-23 33 -52 41.5t-54 -2.5q-20 -9 -31 -24t-15.5 -33.5t-1.5 -38.5t12 -37
q12 -23 34 -37.5t52 -14.5q31 0 50 17.5t30 43.5q4 8 6.5 16t4.5 16q9 35 10.5 72.5t2.5 63.5q1 45 0.5 89t-0.5 89v441q0 27 -5.5 56t-21.5 52h172q20 0 42.5 -3t41.5 -9q11 -4 21 -8.5t19 -10.5q29 -20 46.5 -49.5t19.5 -67.5q3 -42 -12 -76t-43 -57q-33 -28 -76 -40
q-13 -4 -28.5 -7t-28.5 -5q-15 -3 -29.5 -7t-28.5 -10q-20 -9 -36 -26q-12 -13 -17 -28v-143zM126 318q7 18 19 30t28 20q14 7 29.5 11.5t31.5 9.5q13 4 28 8.5t28 9.5q38 16 58 40q33 38 32 99q-1 25 -8.5 48t-22.5 42q-16 19 -34 29q-29 17 -62 19t-68 2h-59v-368z" />
    <glyph glyph-name="uniF010" unicode="&#xf010;" horiz-adv-x="674" 
d="M336 701q59 0 110.5 -27.5t90 -75t61 -111.5t22.5 -136q0 -64 -17.5 -121.5t-48.5 -103t-73 -76.5t-91 -43q12 -3 26.5 -10t30.5 -17t33.5 -22.5t33.5 -24.5q30 -23 60 -45t61 -42q17 -11 37 -24.5t41 -25.5q20 -11 40.5 -18.5t39.5 -7.5q22 -1 39.5 8t28.5 24t15.5 35.5
t-0.5 42.5q16 -28 16.5 -54t-11.5 -46.5t-34.5 -32.5t-52.5 -12q-20 0 -42.5 9.5t-45.5 23.5t-44.5 29.5t-38.5 26.5q-32 23 -62.5 46t-62.5 47q-17 14 -34 26t-34 23q-26 15 -52.5 24t-50.5 11q-35 2 -57 -7.5t-32 -24.5q-9 -14 -8.5 -32.5t9 -35.5t23.5 -29.5t35 -15.5
q-21 -5 -42.5 2.5t-37.5 23t-22.5 38.5t1.5 50q10 32 46 51q-41 18 -76 50.5t-60 75.5t-39 95t-14 109q0 72 22.5 136t60.5 111.5t90 75t110 27.5zM585 417q-17 63 -51.5 113t-79 82.5t-96.5 44t-103 -2.5t-90 -50t-61.5 -86t-27.5 -110.5t12 -123.5t51 -112.5t79 -82
t96.5 -44t103.5 1.5q51 14 90 50t61.5 86.5t27.5 110.5t-12 123z" />
    <glyph glyph-name="uniF011" unicode="&#xf011;" horiz-adv-x="502" 
d="M63 1q15 22 21 51.5t6 55.5v485q0 27 -6 56t-21 52h172q20 0 42.5 -3t41.5 -9q11 -4 21 -8.5t19 -10.5q29 -20 46.5 -49.5t19.5 -67.5q3 -42 -12 -76t-43 -57q-9 -8 -20 -15t-22 -12q-19 -10 -38 -14q27 -1 47 -14q19 -12 30 -31t19 -41q15 -43 24.5 -93.5t17.5 -95.5
q8 -48 18 -94.5t26 -92.5q11 -32 24 -60.5t30 -53.5q18 -27 39.5 -43.5t47.5 -16.5q37 0 60 25q16 17 19.5 39t-4.5 41q-9 24 -27.5 31.5t-37.5 2.5q-16 -4 -29.5 -15.5t-21.5 -28.5q5 38 28 56.5t49 19.5q15 0 30 -5.5t26 -17t17 -28t3 -38.5q-2 -17 -9 -33t-21 -29
t-35.5 -20.5t-52.5 -7.5q-23 0 -43 9t-38 26q-27 25 -46.5 60t-34.5 73q-17 47 -28.5 96.5t-21.5 100.5q-8 45 -15.5 93.5t-19.5 91.5q-5 18 -12.5 34.5t-19.5 28.5q-16 16 -33.5 20.5t-36.5 2.5q-18 -2 -37 -6q-23 -6 -42 -14q-20 -9 -36 -26q-12 -13 -16 -29v-188
q0 -26 5.5 -55.5t20.5 -51.5h-90zM127 318q7 18 19 30t28 20q14 7 29.5 11.5t30.5 9.5q14 4 29 8.5t28 9.5q38 16 58 40q33 38 32 99q-1 25 -8.5 48t-22.5 42q-16 19 -34 29q-29 17 -62 19t-68 2h-59v-368z" />
    <glyph glyph-name="uniF012" unicode="&#xf012;" horiz-adv-x="593" 
d="M157 610q-3 -38 19 -70q19 -29 50.5 -56.5t68.5 -55.5q31 -23 61 -47.5t59 -51.5q37 -35 65 -71t46 -78q19 -41 27.5 -86t6.5 -90q-3 -52 -20.5 -100.5t-51.5 -87.5q-33 -39 -83 -60t-119 -21q-45 0 -84.5 13t-71.5 36q-49 36 -77 93t-26 126q2 47 17.5 83.5t41 63
t57.5 42t66 19.5q26 3 51.5 -0.5t48 -15t41 -30t28.5 -45.5q-42 47 -93 59t-98 -5q-51 -18 -85.5 -65t-35.5 -114q0 -52 21.5 -102.5t59.5 -88.5q29 -26 63.5 -42t75.5 -17q67 -2 115 25.5t76 69.5t39 85t9 88q-3 79 -33 145q-17 39 -41.5 74t-57.5 67q-26 27 -55.5 50.5
t-61.5 45.5q-33 23 -64 47.5t-56 55.5q-20 25 -30 53.5t-3 60.5q11 49 67 74q20 8 42 10.5t44 4.5q17 1 33.5 -2t30.5 -6q16 -3 29 -6t30 -2q28 0 47 14v-131q-6 24 -15.5 45t-27.5 37t-47 26t-74 12q-20 1 -39.5 -1.5t-35.5 -10.5q-25 -11 -36.5 -28.5t-13.5 -37.5z" />
    <glyph glyph-name="uniF013" unicode="&#xf013;" horiz-adv-x="402" 
d="M276 108v575q-7 -5 -13 -10l-12 -10q-22 -16 -42.5 -28t-40.5 -18q-48 -15 -92 5q-16 7 -28.5 19t-21.5 26q-11 20 -13.5 43.5t5.5 45.5q9 23 28.5 39t47.5 18q27 2 50.5 -16t29.5 -56q-12 22 -33.5 30.5t-42.5 4.5q-20 -4 -36 -19t-19 -42q-3 -24 6.5 -47t29.5 -34
q17 -10 39.5 -10.5t45.5 8.5q20 8 40 21t37 27q30 23 60.5 52t61.5 59q29 27 57 53t57 49q41 32 81 52.5t79 21.5q32 0 55 -11.5t37.5 -29.5t19.5 -40.5t1 -43.5q-16 42 -43 59.5t-59 19.5q-41 2 -79.5 -13t-73.5 -40q-25 -17 -54.5 -42t-61.5 -54q-17 -14 -33.5 -29
t-33.5 -30v-605q0 -26 6 -55t21 -52h-90q15 23 21 52t6 55v0z" />
    <glyph glyph-name="uniF014" unicode="&#xf014;" horiz-adv-x="534" 
d="M122 201q0 -86 40 -133t118 -47q152 0 152 180v328v94t3 106q2 41 9.5 85t27.5 80q21 38 48 55t57 17q40 0 59.5 -24t23.5 -56q-15 19 -35 28t-42 7t-42 -14.5t-35 -35.5q-20 -32 -30 -72.5t-14 -70.5q-7 -54 -8 -107.5t-1 -91.5v-333q0 -42 -9.5 -78t-30 -62
t-53.5 -40.5t-80 -14.5q-95 0 -145 49.5t-50 138.5v404q0 27 -6 56t-21 52h90q-6 -10 -16 -35t-10 -73v-392z" />
    <glyph glyph-name="uniF015" unicode="&#xf015;" horiz-adv-x="486" 
d="M77 608q-12 43 -32.5 66t-38.5 26h140q-21 -5 -31.5 -30.5t-2.5 -56.5l161 -568q24 111 51 219q15 63 30 124t30 124q10 39 19.5 78t18.5 78q13 51 26 95t29 79q23 53 58.5 88.5t87.5 35.5q48 0 74.5 -31.5t26.5 -79.5q-15 23 -37 38.5t-47 20.5q-21 5 -42.5 0t-41.5 -22
q-23 -20 -40 -49.5t-30 -58.5q-13 -31 -22.5 -63t-18.5 -61q-14 -43 -23 -83t-17 -69q-17 -67 -32.5 -133.5t-32.5 -133.5l-28 -118t-31 -122h-34z" />
    <glyph glyph-name="uniF016" unicode="&#xf016;" horiz-adv-x="726" 
d="M273 1h-26l-170 607q-12 43 -32.5 66t-38.5 26h140q-21 -5 -31 -30.5t-2 -56.5l159 -564l118 308l-71 251q-12 43 -32 66t-39 26h141q-22 -5 -32 -30.5t-2 -56.5l159 -563q12 54 24.5 107t25.5 107q15 63 30 124t30 124l39 156q13 51 25.5 95t28.5 79q23 53 58.5 88.5
t87.5 35.5q48 0 74.5 -31.5t26.5 -79.5q-15 23 -36.5 38.5t-46.5 20.5q-22 5 -43 0t-41 -22q-23 -20 -40.5 -49.5t-30.5 -58.5q-13 -31 -22.5 -63t-18.5 -61q-14 -43 -23 -83t-16 -69q-9 -34 -16 -64t-13 -53q-11 -42 -20 -80t-17 -70l-28 -118t-31 -122h-31l-91 321z" />
    <glyph glyph-name="uniF017" unicode="&#xf017;" horiz-adv-x="490" 
d="M350 1q12 8 15.5 18.5t2.5 21.5t-5.5 22.5t-9.5 21.5l-53 109q-7 14 -4.5 8.5t7 -15t8 -16.5t-1 2.5t-21 43t-50.5 104.5q-17 -32 -32.5 -63.5t-32.5 -63.5q-37 -72 -74.5 -142.5t-79.5 -139.5q-14 -25 -31.5 -53.5t-39.5 -54.5q-24 -29 -53.5 -49t-66.5 -20
q-18 0 -35.5 6t-31 18t-22 29.5t-8.5 40.5q20 -23 46.5 -34t55.5 -10q32 1 57 13t45 31t36.5 42.5t31.5 48.5q14 22 27.5 44.5t25.5 44.5q26 47 51 93.5t50 94.5q18 35 36 70.5t36 71.5l-136 277q-16 32 -37.5 54t-41.5 30l62 1v-1l61 1q-12 -8 -15.5 -19t-2 -22t6.5 -22.5
t9 -20.5l53 -109q7 -14 4.5 -9t-7.5 14.5t-8 16.5t1.5 -2.5t20.5 -42.5t51 -104q32 64 65 127q37 72 74.5 142t79.5 140q14 24 31.5 53t39.5 55q24 29 53.5 48.5t66.5 19.5q18 0 35 -6t31 -18t22.5 -29.5t8.5 -40.5q-20 24 -46.5 35t-55.5 10q-32 -2 -57 -13.5t-45 -31.5
q-20 -19 -36.5 -42.5t-31.5 -47.5q-14 -22 -27.5 -44.5t-25.5 -44.5q-26 -47 -51 -94t-50 -95l-72 -141l136 -278q16 -32 37.5 -54t41.5 -30h-62v0h-62z" />
    <glyph glyph-name="uniF018" unicode="&#xf018;" horiz-adv-x="452" 
d="M249 279l38 102t39 102q20 54 41.5 108t43.5 107q14 35 33.5 81t44.5 87.5t56 70.5t70 29q48 0 74 -31.5t26 -79.5q-8 21 -21.5 33.5t-28.5 19t-30.5 7.5t-29.5 -1q-34 -5 -62 -31t-52 -64q-26 -42 -45.5 -87.5t-31.5 -75.5q-42 -102 -81 -203t-75 -194v-151
q0 -48 10 -73t17 -34h-91q16 23 21.5 52t5.5 55v151l-147 349q-17 42 -32.5 63.5t-36.5 29.5h100q-17 -11 -16 -33t14 -51l146 -337v-1z" />
    <glyph glyph-name="uniF019" unicode="&#xf019;" horiz-adv-x="454" 
d="M73 1q28 -2 55 -8.5t53 -16.5q32 -12 67 -29.5t69 -37.5q23 -14 45.5 -29t45.5 -30q16 -11 36.5 -25t42.5 -26t44.5 -20.5t41.5 -8.5q22 0 39.5 8.5t28.5 24t15 35.5t-1 42q17 -28 17 -54t-12 -46.5t-34.5 -32.5t-51.5 -12q-19 0 -42.5 9.5t-46.5 23t-44.5 29t-37.5 26.5
q-24 17 -47.5 34.5t-48.5 33.5q-32 20 -64 38.5t-67 33.5q-33 14 -68.5 23.5t-75.5 14.5h1h-1l352 684h-198q-31 0 -50.5 -6t-31.5 -20t-18.5 -36t-12.5 -55l-6 133h371l-356 -684z" />
    <glyph glyph-name="uniF01A" unicode="&#xf01a;" horiz-adv-x="953" 
d="M498 93q31 26 53 61.5t33 78.5t11.5 90.5t-12.5 95.5q-17 63 -50.5 112t-78.5 81q-31 -25 -53 -61t-33 -78.5t-11 -90t13 -96.5q17 -62 50 -111.5t78 -81.5zM416 51q22 6 41 15q-56 48 -89 122.5t-33 164.5q0 82 28 152t76 118q-43 26 -90 35t-95 -3q-51 -14 -90 -50
t-61.5 -86t-27 -110t11.5 -123q17 -63 51.5 -112.5t79 -81.5t96 -43.5t102.5 2.5zM698 51q51 14 90 49.5t61.5 85.5t27.5 110t-12 123q-16 63 -50.5 112.5t-79 81.5t-96.5 44t-103 -2q-22 -6 -40 -16q55 -48 88 -122.5t33 -163.5q0 -82 -27.5 -152t-75.5 -118q42 -27 89 -36
t95 4zM617 701q59 0 110 -27.5t89.5 -74.5t60.5 -110.5t22 -135.5t-22 -136t-60.5 -111t-89.5 -74.5t-110 -27.5q-38 0 -73.5 12t-67.5 35q-31 -23 -66.5 -35t-74.5 -12q-58 0 -109.5 27.5t-90 74.5t-60.5 111t-22 136t22 135.5t60.5 110.5t90 74.5t109.5 27.5
q39 0 74.5 -12t66.5 -34q32 22 67.5 34t73.5 12z" />
    <glyph glyph-name="uniF01B" unicode="&#xf01b;" horiz-adv-x="914" 
d="M844 587q12 -17 18 -35t3 -35q-2 -13 -10 -24.5t-24 -19.5q-16 48 -46 94q-16 24 -37 44.5t-45.5 35t-53.5 22t-61 5.5q-48 -1 -96 -31q57 -48 91 -123.5t34 -166.5q0 -81 -27 -151t-75 -118q42 -29 89 -39t95 3q56 14 95.5 55.5t59.5 100.5v-41q-38 -72 -100 -115.5
t-137 -43.5q-38 0 -73.5 12t-67.5 35q-31 -23 -67 -35t-74 -12q-58 0 -109.5 27.5t-90 74.5t-60.5 111t-22 136t22 135.5t60.5 110.5t90 74.5t109.5 27.5q38 0 74 -12t67 -34q32 22 67.5 34t73.5 12q60 0 114 -23q26 -11 58.5 -35.5t54.5 -55.5zM335 353q0 82 28 152t76 118
q-43 26 -90 35t-95 -3q-51 -14 -90 -50t-61.5 -86t-27 -110t11.5 -123q17 -63 51 -112.5t79 -81.5t96.5 -43.5t102.5 2.5q22 6 41 15q-56 48 -89 122.5t-33 164.5zM376 288q17 -62 49.5 -111t74.5 -82q30 26 51.5 62t33 78t11.5 89t-13 95q-17 63 -51 112.5t-79 81.5l-5 -4
q-31 -28 -50.5 -66.5t-27.5 -81.5t-6.5 -87.5t12.5 -85.5z" />
    <glyph glyph-name="uniF01C" unicode="&#xf01c;" horiz-adv-x="933" 
d="M844 587q12 -17 18 -35t3 -35q-2 -13 -10 -24.5t-24 -19.5q-16 48 -46 94q-16 24 -37 44.5t-45.5 35t-53.5 22t-61 5.5q-48 -1 -96 -31q57 -48 91 -123.5t34 -166.5q0 -81 -27 -151t-75 -118q42 -29 89.5 -39t94.5 3q34 8 62 27.5t50 47.5v93q0 26 -5.5 55t-21.5 52h90
q-6 -10 -16.5 -35t-10.5 -72v-105q0 -48 10.5 -72.5t16.5 -34.5h-90q14 20 19.5 45t7.5 50q-38 -45 -87.5 -70t-106.5 -25q-38 0 -73.5 12t-67.5 35q-31 -23 -67 -35t-74 -12q-58 0 -109.5 27.5t-90 74.5t-60.5 111t-22 136t22 135.5t60.5 110.5t90 74.5t109.5 27.5
q38 0 74 -12t67 -34q32 22 67.5 34t73.5 12q60 0 115 -23q26 -11 58.5 -35.5t53.5 -55.5zM335 353q0 82 28 152t76 118q-43 26 -90 35t-95 -3q-51 -14 -90 -50t-61.5 -86t-27 -110t11.5 -123q17 -63 51 -112.5t79 -81.5t96.5 -43.5t102.5 2.5q22 6 41 15q-56 48 -89 122.5
t-33 164.5zM376 288q17 -62 49.5 -111t74.5 -82q30 26 51.5 62t33 78t11.5 89t-13 95q-17 63 -51 112.5t-79 81.5l-4 -4q-31 -28 -50.5 -66.5t-28 -81.5t-7 -87.5t12.5 -85.5z" />
    <glyph glyph-name="uniF01D" unicode="&#xf01d;" horiz-adv-x="660" 
d="M216 687h-87q-27 0 -43.5 -6t-27.5 -20t-18.5 -36.5t-15.5 -55.5v132h611v-132q-8 33 -15 55.5t-18 36.5t-28 20t-44 6h-87v-576q0 -26 5.5 -55t21.5 -52h-90q15 23 21 52t6 55v576h-154v-576q0 -26 5.5 -55t20.5 -52h-89q15 23 20.5 52t5.5 55v576z" />
    <glyph glyph-name="uniF01E" unicode="&#xf01e;" horiz-adv-x="557" 
d="M63 4q15 23 21 52t6 55v484q0 26 -6 55t-21 51h90q-16 -22 -21.5 -51t-5.5 -55v-577h94q21 0 47.5 1.5t52.5 7.5q56 14 73 45q17 30 3 82q29 -17 37.5 -43.5t-0.5 -52.5q-8 -23 -27 -38.5t-48 -15.5h-295zM224 198q15 23 20.5 51.5t5.5 54.5v291q0 26 -5.5 55t-20.5 51
h90q-16 -22 -21.5 -51t-5.5 -55v-383h21q22 0 48 1.5t52 7.5q55 12 73 44q17 30 3 82q29 -16 37.5 -43t-0.5 -52q-8 -23 -27 -38.5t-48 -15.5h-222z" />
    <glyph glyph-name="uniF01F" unicode="&#xf01f;" horiz-adv-x="595" 
d="M62 4q15 23 21 52t6 55v484q0 26 -6 55t-21 51h90q-16 -22 -21.5 -51t-5.5 -55v-577h94q22 0 48 1.5t52 7.5q56 14 73 45q18 31 3 82q29 -17 37.5 -43.5t-0.5 -52.5q-8 -23 -27 -38.5t-48 -15.5h-295zM288 208h25q46 0 80 13.5t58 37.5q33 33 47.5 83t15.5 108
q-1 58 -15.5 107.5t-47.5 82.5q-24 24 -58 37.5t-80 13.5h-25v-483zM338 701q40 0 72 -12t56 -33q41 -36 60.5 -91t19.5 -115q0 -61 -19.5 -116t-60.5 -90q-24 -22 -56 -34t-72 -12h-108q11 16 15.5 37t4.5 40v349q0 19 -4.5 40t-15.5 37h108z" />
    <glyph glyph-name="uniF020" unicode="&#xf020;" horiz-adv-x="635" 
d="M445 232q37 10 64.5 35.5t44 61.5t20 79.5t-8.5 88.5t-36.5 81t-57 59.5t-69.5 32t-74 -1.5t-65 -36t-44.5 -62t-20 -80t8.5 -89t37 -81t57.5 -59t69.5 -31t74 2zM63 4q15 23 21 52t6 55v484q0 26 -6 55t-21 51h90q-16 -22 -21.5 -51t-5.5 -55v-577h94q21 0 47.5 1.5
t52.5 7.5q56 14 73 45q17 30 3 82q29 -17 37.5 -43.5t-0.5 -52.5q-8 -23 -27.5 -38.5t-47.5 -15.5h-295zM386 701q42 0 79.5 -19.5t65 -53.5t43.5 -80t16 -98t-16 -98t-43.5 -80t-65 -54t-79.5 -20t-79 20t-65 54t-44 80t-16 98t16 98t44 80t65 53.5t79 19.5z" />
    <glyph glyph-name="uniF027" unicode="&#xf027;" horiz-adv-x="678" 
d="M423 307q0 -41 -14.5 -77.5t-39 -63.5t-57.5 -42.5t-71 -15.5q-26 0 -50.5 8.5t-45.5 22.5l-74 -100q21 15 49 26.5t58 18.5t61.5 8t59.5 -4q53 -11 86.5 -42t40.5 -70q7 -35 -10.5 -71.5t-62.5 -64.5q-27 -16 -58.5 -23.5t-62.5 -8.5q-40 0 -79 15q-25 10 -44.5 29.5
t-27.5 43.5q-13 41 9 74q11 14 28.5 22t35.5 9q23 0 42 -13q-44 10 -65 -13q-12 -12 -14.5 -31t5.5 -39q13 -37 44 -56t68 -23q30 -4 60.5 2t54.5 20q41 24 52 54.5t0 60.5q-11 32 -42.5 57.5t-70.5 36.5q-29 8 -60 8t-57 -5q-28 -5 -54.5 -15.5t-49.5 -27.5l-13 19l82 109
q-35 27 -55.5 69t-20.5 93q0 41 14 77t39 63t58 42.5t70 15.5q56 0 100 -33l76 112l33 47q13 20 24 34.5t26 23.5q18 12 47 12h14t16 -2q14 -4 22 -10q10 -10 10 -23t-10 -23q-9 -9 -23 -9q-6 0 -11 2.5t-10 5.5q-5 4 -10.5 8t-10.5 7q-16 10 -33 7q-12 -3 -22 -13.5
t-19 -23.5l-31 -45l-79 -116q33 -27 53 -68.5t20 -90.5zM559 367q0 18 -2 33t-5 26q-4 19 -10 30.5t-10 17.5q17 1 36 10.5t27 19.5v-398q0 -47 10 -72t17 -35h-90q15 23 21 52t6 55v261zM290 125q29 8 50.5 29t34 51t14.5 66t-8 73q-10 38 -30 68.5t-45.5 50t-55 27
t-58.5 -0.5t-50.5 -29t-34 -51t-14.5 -66t8 -74q10 -37 30 -67.5t45.5 -50t55 -27t58.5 0.5z" />
    <glyph glyph-name="uniF028" unicode="&#xf028;" horiz-adv-x="418" 
d="M120 106q0 -47 10.5 -72t16.5 -35h-90q15 23 21 52t6 55v262q0 18 -2 33t-5 27q-4 18 -10 29.5t-10 17.5q17 1 36 10.5t27 19.5v-74q14 21 24 40.5t21 41.5q12 23 26.5 55t34.5 62q16 24 37 46t55 22q13 -1 22 -10t9 -22q0 -14 -9 -23t-23 -9q-21 0 -40 -10t-36 -26
q-21 -20 -38 -46t-30 -48q-20 -36 -35 -75.5t-17 -74.5q0 -4 -0.5 -8t-0.5 -8v-169v-63zM299 367q0 18 -2 33t-4 26q-5 19 -11 30.5t-10 17.5q17 1 36 10.5t27 19.5v-398q0 -47 10.5 -72t16.5 -35h-90q16 23 21.5 52t5.5 55v261z" />
    <glyph glyph-name="uniF029" unicode="&#xf029;" horiz-adv-x="768" 
d="M379 368q5 23 -6.5 48.5t-34.5 40.5q-16 11 -36 17.5t-41 8.5q-56 5 -103 -28q-24 -16 -41.5 -42t-26.5 -58.5t-9 -69.5t10 -76q20 -72 64.5 -119.5t98.5 -58.5q27 -5 52.5 -1.5t47 13.5t37.5 25t24 32l11 -9q-57 -91 -171 -91q-42 0 -79 20t-64.5 54t-43.5 80.5
t-16 98.5q0 69 26.5 126t71.5 90q23 17 51.5 25.5t51.5 10.5q-13 6 -24 18q-16 17 -17 44q-1 11 1 22t7 22q10 21 28 35q10 8 20.5 13.5t21.5 10.5q28 11 57.5 12.5t59.5 -1.5q16 -1 32 -3t31 -4q8 -1 14 -1.5t11 -2.5q10 -1 17 -1.5t16 -1.5q17 1 36 10.5t27 20.5v-227h78
v-20h-78v-256q-7 -12 -12.5 -29.5t-7 -36t1 -36.5t9.5 -31q8 -17 22.5 -24.5t30.5 -6.5q38 0 62 26q22 24 18 59q19 -16 19.5 -44.5t-18.5 -47.5q-23 -23 -58 -23q-26 0 -41.5 8.5t-30.5 22.5q-22 22 -28 68q-3 17 -3.5 34.5t-0.5 34.5q1 71 1 141v141h-27v20h27l-1 44
q0 40 -16.5 68.5t-44.5 46.5q-18 11 -41 19.5t-47 11.5q-24 4 -53 3t-55 -9q-22 -7 -39 -19t-25 -29q-16 -28 -6 -58q6 -20 19 -30t31 -14q19 -2 36.5 -5.5t34.5 -11.5q26 -13 44 -31q14 -16 22 -35t9 -39q2 -37 -23 -64q-11 -11 -25 -18t-31 -8q-26 -2 -47 14t-27 45
q11 -11 22 -19t26 -9q27 -2 42 11t19 33z" />
    <glyph glyph-name="uniF02A" unicode="&#xf02a;" horiz-adv-x="435" 
d="M117 195q-7 -12 -12 -29.5t-6.5 -36t0.5 -36.5t9 -31q8 -16 23 -24.5t33 -11.5q11 -2 34 -2t49 2q3 0 6 0.5t6 0.5l-5 5q-11 11 -18.5 28t-10.5 40q-3 17 -3.5 34.5t-0.5 34.5q1 71 1 141v141h-105v-256zM222 471v89q0 18 -2 33.5t-4 26.5q-5 18 -11 29.5t-10 17.5
q17 1 36 10.5t28 20.5v-227h78v-20h-78v-256q-8 -12 -13 -29.5t-6.5 -36t0.5 -36t9 -30.5q14 -27 42 -32q25 5 45.5 11t28.5 15v1l1 1q16 17 17 41v2v2v5v1v4v1v1l1 -1l1 -1l1 -1l1 -1l1 -2l1 -1l1 -1l1 -1l1 -1v-1l1 -2l1 -1l1 -1v-2l1 -3l1 -1l1 -2v-1v0l1 -2v-1v-2l1 -1
v-3q3 -14 -0.5 -29.5t-13.5 -26.5l-1 -2l-2 -2q-15 -15 -38 -20l-3 -1h-1h-1v0l-2 -1h-1h-1h-1h-1h-2h-1h-124q-43 0 -64.5 11t-30.5 20q-22 22 -28 68q-3 17 -3.5 34.5t-0.5 34.5q1 71 1 141v141h-27v20h27v89q0 18 -2 33.5t-5 26.5q-4 18 -10 29.5t-10 17.5q17 1 36 10.5
t27 20.5v-227h105z" />
    <glyph glyph-name="uniF02B" unicode="&#xf02b;" horiz-adv-x="544" 
d="M492 254q0 -52 -16 -98.5t-44 -81t-65 -54.5t-79 -20q-41 0 -76.5 18.5t-62.5 50.5q-16 19 -29 14q-8 -2 -14.5 -12t-11.5 -23q-6 -13 -10.5 -26.5t-6.5 -21.5v563q0 17 -2 32.5t-4 26.5q-4 14 -8 24t-8 16q-28 -8 -55.5 -16.5t-56.5 -16.5l-36 -10t-37 -9
q-20 -5 -45 -8.5t-51 -4.5h-25t-24 2q-20 3 -37.5 10t-31.5 19q-17 16 -25 37.5t-1 44.5q7 20 24.5 32.5t40.5 9.5q-25 -13 -33 -37q-7 -25 6 -48q10 -17 26 -26.5t34 -14.5q12 -2 23.5 -4t24.5 -2q21 -2 43 0.5t42 5.5q20 4 43.5 8.5t43.5 9.5q18 6 36 9q12 3 31 7.5
t38.5 10t36.5 13t24 16.5v-316q26 56 72 89.5t102 33.5q42 0 79 -20t65 -54t44 -80t16 -99zM124 210q12 -46 36 -83t54 -61t64.5 -33t68.5 0t59.5 34.5t39.5 61.5t16 79.5t-10 89.5t-35.5 82.5t-54 60.5t-65 33.5t-68.5 0.5t-59.5 -34.5t-39.5 -61.5t-16 -79.5t10 -89.5z
" />
    <glyph glyph-name="uniF02C" unicode="&#xf02c;" horiz-adv-x="554" 
d="M430 124q-27 -56 -72.5 -89.5t-102.5 -33.5q-42 0 -79 20t-64.5 54t-43.5 80.5t-16 98.5q0 53 16 99t43.5 80.5t64.5 54.5t79 20q57 0 102.5 -33.5t72.5 -89.5v178q0 18 -2 33t-4 27q-7 25 -17 40q-27 -8 -54.5 -17t-56.5 -17q-37 -11 -73 -18q-20 -5 -45 -8.5t-51 -4.5
q-23 -1 -48 2q-21 3 -38.5 9.5t-31.5 19.5q-17 15 -25 37t-1 44q7 20 24.5 32.5t40.5 9.5q-25 -12 -33 -37q-7 -25 6 -47q10 -17 26 -26.5t34 -14.5q12 -3 24 -4.5t24 -2.5q22 -1 43.5 1t41.5 6q20 3 43.5 8t43.5 10q14 4 41.5 10t55.5 15q23 7 42 15t27 16l-1 -551
q0 -22 0.5 -43.5t5 -40.5t13.5 -35.5t25 -30.5h-1q-13 4 -24.5 8.5t-21 6.5t-17.5 -1t-16 -14v124zM91 210q12 -46 36 -82.5t54.5 -60.5t65 -33.5t68.5 -0.5q26 7 47 24.5t36 42t23.5 55.5t8.5 65q0 19 -2.5 38.5t-8.5 39.5q-12 46 -35.5 82.5t-54 60.5t-65 33.5t-68.5 0.5
t-59.5 -34.5t-39.5 -61.5t-16 -79.5t10 -89.5z" />
    <glyph glyph-name="uniF02D" unicode="&#xf02d;" horiz-adv-x="497" 
d="M351 469q34 -27 53.5 -68.5t19.5 -91.5q0 -41 -14 -77t-39 -63t-58 -43t-71 -16q-54 0 -97 31l-74 -101q22 15 49.5 27t58 18.5t62 8t59.5 -4.5q54 -10 87 -41t41 -70q7 -36 -11 -72.5t-63 -64.5q-15 -10 -34 -16q38 -30 83.5 -48.5t99.5 -20.5q66 -2 128 30q41 20 67 54
t28 81q13 -8 19.5 -28.5t1.5 -41.5q-10 -35 -35.5 -58.5t-58.5 -37.5q-22 -9 -45 -13.5t-45 -5.5q-12 -1 -29.5 -1t-29.5 1q-60 3 -109 24t-88 55.5t-69.5 80t-53.5 97.5h13q19 -44 47.5 -85.5t66.5 -75.5q19 6 39 17q41 23 52.5 54t0.5 60q-11 32 -43 59t-71 37
q-29 8 -60 8t-58 -5q-57 -11 -103 -43l-14 18l82 110q-35 27 -55.5 69t-20.5 93q0 41 14 77.5t39 63.5t58 43t71 16q28 0 53.5 -9t47.5 -25l25 38q13 20 24 31q17 17 35 14q16 -2 24.5 -17.5t2.5 -31.5q-5 11 -14 17.5t-20 6.5t-22 -6.5t-19 -17.5zM291 127q29 8 51 29
t34.5 51t14.5 66t-8 74t-30.5 68.5t-46 50t-55 27t-58.5 -0.5t-51 -29t-34.5 -51t-14.5 -66t8 -74t30 -68.5t46 -50t55.5 -27t58.5 0.5z" />
    <glyph glyph-name="uniF02E" unicode="&#xf02e;" 
d="M416 337q0 -61 -0.5 -115t-0.5 -115q0 -48 10.5 -73t16.5 -34h-90q15 22 21 51.5t6 55.5q0 62 -0.5 116t-0.5 116q0 32 -9 61t-28 50q-32 36 -81 38q-32 2 -58 -9.5t-44.5 -32.5t-28.5 -49t-10 -58v-232q0 -48 10 -73t16 -34h-90q16 22 21.5 51.5t5.5 55.5v456
q0 18 -2 33t-4 27q-4 14 -8 23.5t-8 16.5q-28 -8 -55.5 -17t-56.5 -17q-37 -11 -73 -18q-20 -5 -45 -8.5t-51 -4.5q-12 -1 -24.5 -0.5t-24.5 2.5q-20 3 -37.5 9.5t-31.5 19.5q-17 15 -25 37t-1 44q7 20 24.5 32.5t40.5 9.5q-25 -12 -33 -37q-7 -25 6 -47q10 -17 26 -26.5
t35 -14.5q11 -3 23 -4.5t24 -2.5q22 -1 43.5 1t41.5 6q20 3 43.5 8t43.5 10q7 2 18.5 4.5t25.5 6t29 8t30 8.5q22 8 39.5 15t23.5 14v-294q9 24 23.5 42.5t33.5 31t40 19t43 7.5q28 2 54.5 -6.5t48.5 -28.5q26 -23 40 -58t14 -77z" />
    <glyph glyph-name="uniF02F" unicode="&#xf02f;" horiz-adv-x="408" 
d="M119 107q0 -48 10 -73t16 -34h-90q16 22 21.5 51.5t5.5 55.5v456q0 18 -2 33t-4 27q-4 14 -8 23.5t-8 16.5q-28 -8 -55.5 -17t-56.5 -17q-37 -11 -73 -18q-20 -5 -45 -8.5t-51 -4.5q-13 -1 -25 -0.5t-24 2.5q-20 3 -37.5 9.5t-31.5 19.5q-17 15 -25 37t-1 44
q7 20 24.5 32.5t40.5 9.5q-25 -12 -33 -37q-7 -25 6 -47q10 -17 26 -26.5t35 -14.5q11 -3 23 -4.5t24 -2.5q22 -1 43.5 1t41.5 6q20 3 43.5 8t43.5 10q12 3 37 9t51 13.5t48.5 16t29.5 17.5v-434l78 54l24 17q18 13 29 27q13 15 19.5 34t5.5 36q-2 27 -20.5 41.5t-45.5 4.5
q-22 -8 -35 -29q3 20 19.5 38t44.5 18q23 0 40 -11q16 -10 23 -26t7 -34q0 -21 -8.5 -38t-22 -31t-30 -25.5t-32.5 -22.5l-1.5 -1.5l-1 -1t-3 -2l-7.5 -4.5l100 -203q12 -24 22 -41t20.5 -29t21.5 -20.5t25 -16.5h-122q20 21 14.5 50t-19.5 57l-89 185l-56 -39v-147z" />
    <glyph glyph-name="uniF030" unicode="&#xf030;" horiz-adv-x="194" 
d="M118 39q0 -21 -1 -36.5t-9 -30.5q-16 -32 -34.5 -62.5t-40.5 -56.5q-44 -51 -101.5 -82.5t-133.5 -34.5q-12 -1 -29.5 -1t-29.5 1q-22 1 -45 5.5t-45 13.5q-33 14 -58 37.5t-36 58.5q-5 21 1.5 41.5t19.5 28.5q2 -47 28 -81t67 -54q62 -32 128 -30q71 2 126.5 32t97.5 76
q23 25 41 52t32 56q6 13 3 21.5t-18 8.5v369q0 36 -6 60q-5 19 -10.5 30t-10.5 17q18 1 37 10.5t27 20.5v-470zM132 670q0 -14 -9.5 -23t-22.5 -9q-14 0 -23 9t-9 23q0 13 9 22.5t23 9.5q13 0 22.5 -9.5t9.5 -22.5z" />
    <glyph glyph-name="uniF031" unicode="&#xf031;" horiz-adv-x="201" 
d="M119 107q0 -48 10 -73t16 -34h-90q16 22 21.5 51.5t5.5 55.5v456q0 18 -2 33t-4 27q-4 14 -8 23.5t-8 16.5q-28 -8 -55.5 -17t-56.5 -17q-37 -11 -73 -18q-20 -5 -45 -8.5t-51 -4.5q-13 -1 -25 -0.5t-24 2.5q-20 3 -37.5 9.5t-31.5 19.5q-17 15 -25 37t-1 44
q7 20 24.5 32.5t40.5 9.5q-25 -12 -33 -37q-7 -25 6 -47q10 -17 26 -26.5t34 -14.5q22 -5 48 -7q21 -1 43 1t42 6q20 3 43.5 8t43.5 10q7 2 18.5 4.5t25.5 6t29 8t30 8.5q22 7 39.5 14t23.5 15v-594z" />
    <glyph glyph-name="uniF032" unicode="&#xf032;" horiz-adv-x="550" 
d="M121 364q26 55 72 89t102 34q42 0 79 -20t65 -54.5t44 -80.5t16 -99q0 -52 -16 -98.5t-44 -81t-65 -54.5t-79 -20q-56 0 -102 34t-72 90v-179q0 -37 6 -59q3 -14 7.5 -24t8.5 -17q27 8 55 17t56 17q18 5 36.5 10t36.5 9q20 5 45.5 8.5t51.5 4.5q12 0 24 -0.5t24 -2.5
q20 -3 37.5 -9.5t31.5 -19.5q17 -15 25.5 -36.5t0.5 -44.5q-6 -20 -23.5 -32.5t-40.5 -9.5q25 12 32 37q5 14 2.5 25.5t-8.5 21.5q-10 17 -25.5 26.5t-34.5 14.5q-20 5 -48 7q-21 1 -43 -1t-42 -5q-20 -4 -43 -9t-44 -10q-14 -4 -43.5 -10.5t-58.5 -15.5q-22 -7 -39.5 -14.5
t-23.5 -15.5v551q0 23 -0.5 44t-4.5 40t-13 36t-26 30h1q14 -4 25 -8.5t20.5 -6.5t18 1t16.5 14v-123zM459 277q-12 46 -35.5 82.5t-54 60.5t-65 33.5t-68.5 0.5q-27 -7 -48 -24t-36 -42t-23 -55.5t-8 -64.5q0 -40 10 -79q12 -46 36 -82.5t54 -60.5t64.5 -33.5t68.5 -0.5
t59.5 34.5t39.5 61.5t16 79.5t-10 89.5z" />
    <glyph glyph-name="uniF033" unicode="&#xf033;" horiz-adv-x="538" 
d="M51 233q0 53 16 99t43.5 80.5t65 54.5t79.5 20q41 0 76.5 -18.5t62.5 -50.5q16 -19 28 -14q8 2 15 12t12 22q6 14 10.5 27.5t6.5 21.5v-563q0 -18 2 -33t4 -26q3 -14 7.5 -24t8.5 -17q28 8 55.5 17t55.5 17q19 5 37 9.5t36 9.5q20 5 45.5 8.5t51.5 4.5q12 0 24 -0.5
t24 -2.5q20 -3 38 -9.5t32 -19.5q17 -15 25 -36.5t1 -44.5q-7 -20 -24.5 -32.5t-40.5 -9.5q25 12 32 37q8 25 -5 47q-10 17 -26 26.5t-35 14.5q-11 3 -23 4.5t-24 2.5q-22 1 -43.5 -1t-41.5 -5q-44 -8 -87 -19q-16 -4 -46 -10.5t-59 -15.5q-21 -6 -37.5 -13.5t-23.5 -16.5
v317q-27 -56 -72.5 -90t-101.5 -34q-42 0 -79.5 20t-65 54.5t-43.5 81t-16 98.5zM419 277q-12 46 -36 82.5t-54.5 60.5t-65 33.5t-68.5 0.5t-59 -34.5t-39 -61.5t-16.5 -79.5t9.5 -89.5t36 -82.5t54.5 -60.5t65 -33.5t68.5 -0.5t59 34.5t39.5 61.5t16.5 79.5t-10 89.5z" />
    <glyph glyph-name="uniF034" unicode="&#xf034;" horiz-adv-x="294" 
d="M241 116q19 -16 19.5 -44.5t-18.5 -47.5q-11 -11 -26 -17.5t-32 -6.5q-26 0 -41.5 8.5t-30.5 23.5q-11 11 -18.5 28t-10.5 40q-3 17 -3.5 35t-0.5 34q1 71 1 141.5v141.5h-27v20h27v91q0 17 -2 32.5t-4 26.5q-7 26 -17 41q-27 -8 -54.5 -17t-56.5 -17l-36 -10t-37 -9
q-20 -5 -45 -8.5t-51 -4.5h-25t-23 2q-21 3 -38.5 10t-31.5 19q-17 16 -25 37.5t-1 44.5q7 20 24 32.5t40 9.5q-24 -14 -32 -37q-7 -25 6 -48q10 -17 26 -26t34 -14q12 -3 24 -5t24 -2q22 -1 43.5 1t41.5 5q20 4 43.5 9t43.5 10q7 2 18.5 4.5t25.5 6t29 8t30 8.5
q22 7 39.5 14t22.5 14v-94q0 -34 0.5 -67t0.5 -67h78v-20h-78v-257q-8 -12 -13 -29.5t-6.5 -36t0.5 -36.5t9 -31q9 -17 23 -24.5t31 -7.5q38 2 62 27q22 24 18 59z" />
    <glyph glyph-name="uniF035" unicode="&#xf035;" horiz-adv-x="413" 
d="M232 26q-5 -16 -13 -33q-6 -15 -14 -31q-14 -26 -29 -50.5t-33 -46.5q-45 -56 -104 -90.5t-140 -38.5q-12 -1 -29.5 -1t-28.5 1q-23 1 -46 5.5t-45 13.5q-33 14 -58 37.5t-36 58.5q-5 21 1.5 41.5t20.5 28.5q2 -47 27.5 -81t66.5 -54q62 -32 128 -30q75 2 133.5 35.5
t100.5 84.5q35 41 60 91q9 17 16 35h-12l-123 434q-8 29 -21.5 48.5t-32.5 24.5h106q-17 -8 -18.5 -26.5t6.5 -46.5l108 -387q4 9 11.5 29t17.5 46t20.5 55t20.5 56.5t18 50.5t12 36q10 29 16.5 61t1.5 58q-4 23 -18 34.5t-31 13t-35 -6.5t-31 -25q6 22 22 40q11 13 26.5 19
t31.5 5q16 0 30 -7t23 -21q10 -14 12 -34t-2 -42q-5 -27 -13.5 -53.5t-16.5 -47.5z" />
    <glyph glyph-name="uniF036" unicode="&#xf036;" horiz-adv-x="486" 
d="M415 337v-388q0 -20 -0.5 -43.5t2.5 -43.5t12.5 -33t28.5 -13q18 0 28 12.5t11 27.5q1 11 -2.5 21t-11.5 17q-10 10 -30 13q20 20 44 12q28 -11 34 -37q8 -26 -10 -49q-10 -11 -25.5 -18.5t-38.5 -7.5q-27 0 -42.5 12.5t-23.5 32.5t-10 46t-2 53q0 98 -0.5 194.5
t-0.5 193.5q0 32 -9 61t-28 50q-16 18 -37 27.5t-44 10.5q-32 2 -58 -9.5t-44.5 -32.5t-28.5 -49t-10 -58v-232q0 -48 10 -73t16 -34h-90q15 22 21 51.5t6 55.5v456q0 18 -2 33t-5 27q-4 19 -10 30t-10 17q17 1 36 10.5t28 20.5v-294q17 49 56.5 73.5t82.5 26.5
q29 2 55.5 -6.5t48.5 -28.5q26 -23 39.5 -58t13.5 -77z" />
    <glyph glyph-name="uniF037" unicode="&#xf037;" horiz-adv-x="783" 
d="M363 472q35 -32 47 -82q6 17 12 31.5t18 29.5q22 27 53 41t63 15q29 2 55.5 -6.5t48.5 -28.5q26 -23 39.5 -58t13.5 -77v-388q0 -20 -0.5 -43.5t2.5 -43.5t12.5 -33t28.5 -13q18 0 27.5 12.5t11.5 27.5q1 11 -2.5 21t-11.5 17q-12 10 -30 13q20 20 44 12q28 -11 34 -37
q8 -25 -11 -49q-9 -11 -24.5 -18.5t-38.5 -7.5q-27 0 -42.5 12.5t-24 32.5t-10.5 46t-2 53v388q0 32 -9 61t-28 50q-16 18 -37 27.5t-44 10.5q-31 2 -56.5 -9t-44.5 -31t-29.5 -46.5t-11.5 -55.5v-239q0 -48 10.5 -73t16.5 -34h-90q15 22 21 51.5t6 55.5v151q0 20 -0.5 40
t-0.5 41q0 32 -9 61t-28 50q-32 36 -81 38q-32 2 -58 -9.5t-44.5 -32.5t-28.5 -49t-10 -58v-232q0 -48 10 -73t16 -34h-90q16 22 21.5 51.5t5.5 55.5v262q0 18 -2 33.5t-4 26.5q-5 18 -11 29.5t-10 17.5q17 1 36 10.5t28 20.5v-100q9 24 23.5 42.5t33.5 31t40 19t43 7.5
q28 2 54.5 -6.5t48.5 -28.5z" />
    <glyph glyph-name="uniF038" unicode="&#xf038;" horiz-adv-x="487" 
d="M454 -93q20 20 44 12q28 -11 34 -37q8 -25 -11 -49q-9 -11 -24.5 -18.5t-38.5 -7.5q-27 0 -42.5 12.5t-23.5 32.5t-10 46t-2 53q0 97 -0.5 194t-0.5 194q0 32 -9 61t-28 50q-16 18 -37 27.5t-44 10.5q-32 2 -58 -9.5t-45 -32.5t-29 -49t-10 -58v-232q0 -48 10.5 -73
t16.5 -34h-90q15 22 21 51.5t6 55.5v262q0 18 -2 33.5t-5 26.5q-4 18 -10 29.5t-10 17.5q17 1 36 10.5t27 20.5v-100q9 24 24 42.5t33.5 31t40 19t42.5 7.5q29 2 55.5 -6.5t48.5 -28.5q26 -23 39.5 -58t13.5 -77v-388q0 -20 -0.5 -43.5t2.5 -43.5t12.5 -33t28.5 -13
q18 0 28 12.5t11 27.5q1 11 -2.5 21t-11.5 17q-5 5 -12 8t-18 5z" />
    <glyph glyph-name="uniF039" unicode="&#xf039;" horiz-adv-x="343" 
d="M53 669q17 1 36 10.5t28 20.5v-226q18 2 33.5 4.5t32.5 5.5q57 12 108.5 37.5t110.5 63.5q14 9 29.5 20.5t32.5 23.5q25 18 49 34t44 24q14 6 29.5 9.5t36.5 3.5q29 0 45 -14t19 -32q3 -21 -12 -40t-48 -19q18 16 18 36q0 12 -8 20.5t-25 10.5q-14 2 -28.5 -1.5
t-24.5 -7.5q-22 -8 -42.5 -20.5t-37.5 -22.5q-18 -11 -35.5 -21.5t-34.5 -21.5q-53 -32 -106.5 -59t-115.5 -41q-18 -4 -35 -7t-35 -5v-260q-8 -12 -13 -29.5t-6.5 -36.5t0.5 -36.5t9 -30.5q9 -17 23 -24.5t30 -7.5q39 0 63 27q23 23 18 58q9 -7 14 -19t5 -25t-4.5 -25.5
t-13.5 -22.5q-11 -11 -26 -17t-32 -6q-26 0 -41.5 8.5t-30.5 23.5q-11 11 -18.5 28t-10.5 39q-5 35 -3 70v283h-27v20h27v90q0 18 -2 33.5t-4 26.5q-5 19 -11 30t-10 17z" />
    <glyph glyph-name="s_t" unicode="&#xfb06;" horiz-adv-x="720" 
d="M306 210q-18 22 -41 39t-49 34q-20 12 -46 27.5t-49 35.5t-36 44t-11 47q2 19 15.5 35t42.5 25q17 6 35.5 7.5t36.5 1.5q-12 5 -22 17q-17 18 -18 44q-2 22 8 44q10 21 28 35q21 15 42 24q28 11 57.5 12.5t59.5 -1.5q17 -1 32.5 -3t31.5 -4q7 -1 13.5 -1.5t11.5 -1.5
q16 -3 32 -4q17 1 36 10.5t27 20.5v-227h79v-20h-79v-256q-7 -12 -12 -29.5t-6.5 -36t0.5 -36t9 -30.5q8 -17 22.5 -25t30.5 -7q19 0 35 7t27 19q22 24 18 59q19 -16 19.5 -44.5t-18.5 -47.5q-11 -11 -25.5 -17t-31.5 -6q-26 0 -41.5 8.5t-30.5 22.5q-11 11 -18.5 28
t-10.5 40q-3 17 -3.5 34.5t-0.5 34.5q1 71 1 141v141h-27v20h27v44q0 40 -17 68.5t-45 46.5q-18 11 -40.5 19.5t-47.5 11.5q-24 4 -53 3t-55 -9q-22 -7 -39 -19t-25 -29q-14 -28 -6 -58q7 -22 22 -32t35 -13h1q26 -3 42 -7t35 -3q11 0 20 2.5t15 7.5v-103q-9 25 -19.5 42.5
t-26 29.5t-37.5 18t-54 7q-17 1 -38 -2t-38 -12q-17 -8 -24.5 -18.5t-7.5 -22.5q1 -18 13.5 -35.5t28.5 -31.5q23 -20 48 -35.5t41 -26.5q29 -18 56 -37.5t48 -45.5q17 -21 27 -46t9 -56q-1 -35 -20 -62t-49 -44q-22 -12 -46.5 -18.5t-49.5 -5.5q-45 0 -85 20
q-22 11 -39 27.5t-28 39.5q-11 25 -7.5 51.5t18.5 46.5q12 17 31.5 26.5t44.5 4.5q19 -4 34 -16.5t22 -35.5q-23 21 -48.5 24t-45.5 -9q-18 -11 -23.5 -28.5t-2.5 -37.5q2 -16 9.5 -31t16.5 -27q12 -11 25 -22q17 -12 37 -19t41 -7q53 2 88 29q20 15 31.5 38t10.5 54
q-2 25 -11 45.5t-23 37.5z" />
    </font>
</defs>
</svg>
