<?xml version="1.0" standalone="no"?>
<!DOCTYPE svg PUBLIC "-//W3C//DTD SVG 1.1//EN" "http://www.w3.org/Graphics/SVG/1.1/DTD/svg11.dtd" >
<svg xmlns="http://www.w3.org/2000/svg" xmlns:xlink="http://www.w3.org/1999/xlink" version="1.1">
<metadata>
Created by FontForge 20170731 at Fri Jul  2 09:29:39 2021
 By Aleksey,,,
Westiva fonts (c) asenbayu 2021. All Rights Reserved
</metadata>
<defs>
<font id="WestivaMedium" horiz-adv-x="493" >
  <font-face 
    font-family="Westiva Medium"
    font-weight="500"
    font-stretch="normal"
    units-per-em="1000"
    panose-1="0 0 0 0 0 0 0 0 0 0"
    ascent="800"
    descent="-200"
    x-height="507"
    cap-height="700"
    bbox="-488.083 -267 1057.45 966"
    underline-thickness="50"
    underline-position="-175"
    unicode-range="U+000A-FB06"
  />
<missing-glyph horiz-adv-x="527" 
d="M477 700v-700h-427v700h427zM263 371l186 309h-371zM71 650v-601l180 301zM79 21h370l-185 308zM457 47v605l-181 -302z" />
    <glyph glyph-name="uniF021" unicode="fb" horiz-adv-x="797" 
d="M181 107q0 -48 10 -73t17 -34h-160q15 23 21 52t6 55v343h-27v21h27v29q0 17 0.5 35t2.5 35q9 73 56 105q33 24 88 24q17 0 36.5 -5.5t36.5 -15.5q4 -2 7 -4.5t7 -4.5q14 1 31.5 3t34.5 6t31 9t21 12v-237q25 21 55 32.5t63 11.5q44 0 82 -20t66 -54t44.5 -80t16.5 -99
q0 -52 -16.5 -98.5t-44.5 -80.5t-66 -54t-82 -20q-55 0 -101 32q-26 17 -55 14q-43 -5 -68 -46v492q0 31 -19.5 62.5t-54.5 52.5q-13 8 -32.5 15t-39.5 10q-26 3 -42 -4t-24 -20q-11 -17 -5 -41t26 -45q21 -23 51 -37t55 -14h23v-21h-78v-343zM648 281q-12 45 -30.5 82.5
t-40.5 63.5t-45.5 38.5t-45.5 6.5q-19 -5 -30.5 -21t-18 -36t-8.5 -41.5t-2 -38.5q0 -51 15 -110q12 -45 31 -83t41 -63.5t45.5 -38t44.5 -6.5t35 28t20 55.5t3.5 76t-14.5 87.5z" />
    <glyph glyph-name="uniF022" unicode="fh" horiz-adv-x="755" 
d="M181 107q0 -48 10 -73t17 -34h-160q15 23 21 52t6 55v343h-27v21h27v29q0 17 0.5 35t2.5 35q9 73 56 105q33 24 88 24q18 0 37 -5.5t36 -15.5q4 -2 7 -4.5t6 -4.5q14 1 32 3t35.5 6t31.5 9t20 12v-238q44 45 109 45q29 1 57.5 -8.5t48.5 -29.5q23 -23 34 -56t11 -75v-230
q0 -48 10.5 -72.5t16.5 -34.5h-160q16 23 21.5 52t5.5 55v231q0 69 -23 103t-54 34q-32 0 -54.5 -34t-22.5 -103v-231q0 -48 10 -72.5t16 -34.5h-159q15 23 21 52t6 55v385q0 31 -19.5 62.5t-54.5 52.5q-12 8 -32 15t-40 10q-26 3 -42 -4t-24 -20q-11 -17 -5 -41t26 -45
q22 -23 51.5 -37t54.5 -14h23v-21h-78v-343z" />
    <glyph glyph-name="uniF023" unicode="fj" 
d="M321 371q-2 37 -7 57q-4 19 -10 30.5t-10 17.5q12 0 31.5 1.5t39.5 5.5t37 9.5t24 13.5v-534q0 -18 -0.5 -35.5t-4.5 -34.5q-9 -39 -34 -64q-16 -16 -42 -25q-18 -6 -41 -6q-24 0 -46.5 5t-42.5 17q-24 14 -35 36.5t-9 45.5q2 26 19 45.5t47 21.5q22 2 43 -10.5t30 -42.5
q-29 9 -45.5 -7t-17.5 -39q-2 -21 12 -39.5t46 -18.5q29 0 44 21t17 48q2 26 -9.5 52.5t-35.5 41.5v387zM181 107q0 -48 10 -73t17 -34h-160q15 23 21 52t6 55v343h-27v21h27v29q0 17 0.5 35t2.5 35q1 8 2 14.5t3 12.5q7 29 23.5 49t39.5 32t48.5 16.5t51.5 4.5
q23 0 53 -5.5t59 -16.5q19 -7 38 -18.5t32 -28.5q6 -8 10 -18.5t4 -22.5q0 -28 -20 -48t-48 -20q-12 0 -25 5q-9 3 -18 10q-7 6 -13.5 13t-12.5 15q-8 10 -16.5 20t-17.5 18q-23 22 -54 33q-10 3 -20.5 5t-21.5 2q-25 1 -42 -9t-25 -27q-8 -18 -3 -40.5t25 -43.5
q21 -23 51 -37t55 -14h23v-21h-78v-343z" />
    <glyph glyph-name="uniF024" unicode="fk" horiz-adv-x="711" 
d="M181 107q0 -48 10 -73t17 -34h-160q15 23 21 52t6 55v343h-27v21h27v29q0 17 0.5 35t2.5 35q9 73 56 105q33 24 88 24q17 0 36.5 -5.5t36.5 -15.5q4 -2 7 -4.5t7 -4.5q14 1 31.5 3t35 6t31.5 9t20 12v-413l57 39q10 7 23.5 16.5t24.5 21.5q15 16 18 34.5t-6 32.5
q-12 16 -32.5 17t-37.5 -3q12 32 37.5 47t51.5 15q35 0 54 -17t21 -40q2 -17 -3 -30.5t-14.5 -24.5t-21 -20.5t-23.5 -18.5l-66 -45l100 -203q12 -24 22 -41t20 -29t21 -20.5t25 -16.5h-183q14 25 6 52.5t-22 54.5l-72 145v-145q0 -48 10 -72.5t16 -34.5h-159q15 23 21 52
t6 55v385q0 31 -19.5 62.5t-54.5 52.5q-13 8 -32.5 15t-39.5 10q-26 3 -42 -4t-24 -20q-11 -17 -5 -41t26 -45q21 -23 51 -37t55 -14h23v-21h-78v-343z" />
    <glyph glyph-name="uniF025" unicode="ft" horiz-adv-x="592" 
d="M181 107q0 -48 10 -73t17 -34h-160q15 23 21 52t6 55v343h-27v21h27v29q0 17 0.5 35t2.5 35q9 73 56 105q35 24 88 24q18 0 37 -5.5t36 -15.5q4 -2 7 -4.5t6 -4.5q14 1 32 3t35 6t31 9t21 12v-228h80v-21h-80v-237q-14 -7 -27 -16t-24 -20q-23 -24 -26.5 -48.5t7.5 -41.5
q15 -23 35 -25t40 9q15 8 29 22t26 29.5t20.5 32t11.5 30.5q35 -31 40 -70t-15 -70q-13 -20 -39 -32.5t-56 -12.5t-52 10t-38 27q-27 33 -35 91q-2 17 -2.5 33.5t-0.5 33.5v255h-25v21h25v21q0 31 -19.5 62.5t-54.5 52.5q-12 8 -32 15t-40 10q-26 3 -42 -4t-24 -20
q-10 -17 -4.5 -41t25.5 -45q22 -23 51.5 -37t54.5 -14h23v-21h-78v-343z" />
    <glyph glyph-name="uniF026" unicode="ffj" horiz-adv-x="739" 
d="M566 371q0 17 -2 31.5t-4 25.5q-5 19 -10.5 30.5t-9.5 17.5q12 0 31.5 1.5t39.5 5.5t37 9.5t24 13.5v-534q0 -18 -0.5 -35.5t-4.5 -34.5q-9 -39 -34 -64q-16 -16 -42 -25q-18 -6 -41 -6q-24 0 -46.5 5t-42.5 17q-24 14 -35 36.5t-9 45.5q2 26 19 45.5t47 21.5
q22 2 43 -10.5t30 -42.5q-29 9 -45.5 -7t-17.5 -39q-2 -21 12 -39.5t45 -18.5q30 0 45 21t17 48q2 26 -9.5 52.5t-36.5 41.5v387zM181 107q0 -48 10 -73t17 -34h-160q15 23 21 52t6 55v343h-27v21h27v29q0 17 0.5 35t2.5 35q9 73 56 105q33 24 88 24q17 0 36.5 -5.5
t36.5 -15.5q16 -10 28 -22.5t17 -28.5q18 34 52 51q23 12 48.5 16.5t51.5 4.5q23 0 53 -5.5t59 -16.5q19 -7 38 -18.5t32 -28.5q6 -8 10 -18.5t4 -22.5q0 -28 -20 -48t-48 -20q-12 0 -25 5q-9 2 -18 10q-12 11 -26 28q-8 10 -16.5 20t-17.5 18q-23 22 -54 33q-11 3 -21 5
t-21 2q-26 1 -42.5 -9t-24.5 -27q-8 -18 -3.5 -40.5t25.5 -43.5q21 -23 51 -37t55 -14h23v-21h-78v-343q0 -48 10 -72.5t16 -34.5h-159q15 23 21 52t6 55v343h-27v21h27v21q0 31 -19.5 62.5t-54.5 52.5q-13 8 -32.5 15t-39.5 10q-26 3 -42 -4t-24 -20q-11 -17 -5 -41t26 -45
q21 -23 51 -37t55 -14h23v-21h-78v-343z" />
    <glyph glyph-name="f_f" unicode="ff" horiz-adv-x="547" 
d="M181 107q0 -48 10 -73t17 -34h-160q15 23 21 52t6 55v343h-27v21h27v29q0 17 0.5 35t2.5 35q9 73 56 105q33 24 88 24q17 0 36.5 -5.5t36.5 -15.5q15 -9 27 -21.5t17 -28.5q8 15 18.5 28t27.5 23q34 20 72 20q43 0 71.5 -21.5t37.5 -51.5q9 -27 0.5 -57t-37.5 -55
q-10 39 -34 68.5t-52 43.5q-29 14 -52 8.5t-34 -23.5q-11 -17 -7.5 -41t26.5 -48q21 -23 51 -37t54 -14h24v-21h-78v-343q0 -48 10 -72.5t16 -34.5h-159q15 23 20.5 52t5.5 55v343h-26v21h26v21q0 31 -19 62.5t-54 52.5q-13 8 -32.5 15t-39.5 10q-26 3 -42 -4t-24 -20
q-11 -17 -5.5 -41t26.5 -45q21 -23 51 -37t55 -14h23v-21h-78v-343z" />
    <glyph glyph-name="fi" unicode="fi" horiz-adv-x="499" 
d="M181 107q0 -48 10 -73t17 -34h-160q15 23 21 52t6 55v343h-27v21h27v29q0 17 0.5 35t2.5 35q1 8 2 14.5t3 12.5q7 29 23.5 49.5t39.5 31.5q23 12 48.5 16.5t51.5 4.5q23 0 53 -5.5t59 -16.5q19 -7 38.5 -18.5t31.5 -28.5q14 -17 14 -41q0 -28 -19.5 -48t-48.5 -20
q-12 0 -25 5q-8 3 -18 11q-7 5 -13 12t-13 15l-16 20t-18 18q-23 22 -54 33q-10 3 -20.5 5t-21.5 2q-25 1 -42 -9t-25 -27q-8 -18 -3 -40.5t25 -43.5q22 -23 51.5 -37t54.5 -14h23v-21h-78v-343zM321 369q0 17 -2 32.5t-4 26.5q-5 19 -11 30t-10 18q12 0 31.5 1.5t39.5 5.5
t37.5 9.5t24.5 13.5v-399q0 -48 10 -73t16 -34h-159q16 23 21.5 52t5.5 55v262z" />
    <glyph glyph-name="fl" unicode="fl" horiz-adv-x="499" 
d="M181 107q0 -48 10.5 -73t16.5 -34h-160q16 23 21.5 52t5.5 55v343h-27v21h27v29q0 17 0.5 35t2.5 35q9 73 56 105q35 24 88 24q18 0 37 -5.5t36 -15.5q4 -2 7.5 -4.5t6.5 -4.5q14 1 31.5 3t34.5 6t31 9t21 12v-592q0 -48 10 -72.5t17 -34.5h-160q15 23 21 52t6 55v385
q0 31 -19.5 62.5t-54.5 52.5q-12 8 -32 15t-40 10q-26 3 -42 -4t-24 -20q-10 -17 -4.5 -41t25.5 -45q22 -23 52 -37t54 -14h23v-21h-78v-343z" />
    <glyph glyph-name="f_f_i" unicode="ffi" horiz-adv-x="745" 
d="M181 107q0 -48 10 -73t17 -34h-160q15 23 21 52t6 55v343h-27v21h27v29q0 17 0.5 35t2.5 35q9 73 56 105q35 24 88 24q18 0 37 -5.5t36 -15.5q16 -10 28 -22.5t17 -28.5q18 34 52 51q23 12 48.5 16.5t51.5 4.5q23 0 53 -5.5t59 -16.5q19 -7 38 -18.5t32 -28.5
q14 -17 14 -41q0 -28 -20 -48t-48 -20q-12 0 -25 5q-5 2 -9 4.5t-9 5.5q-12 11 -26 28q-8 10 -16.5 20t-17.5 18q-23 22 -54 33q-11 3 -21 5t-21 2q-26 1 -42.5 -9t-24.5 -27q-8 -18 -3.5 -40.5t25.5 -43.5q22 -23 51.5 -37t54.5 -14h23v-21h-78v-343q0 -48 10 -72.5
t16 -34.5h-159q15 23 21 52t6 55v343h-27v21h27v21q0 31 -19.5 62.5t-54.5 52.5q-12 8 -32 15t-40 10q-26 3 -42 -4t-24 -20q-10 -17 -4.5 -41t25.5 -45q22 -23 51.5 -37t54.5 -14h23v-21h-78v-343zM567 369q0 17 -2 32.5t-5 26.5q-5 19 -10.5 30t-9.5 18q12 0 31.5 1.5
t39.5 5.5t37.5 9.5t24.5 13.5v-399q0 -48 10 -72.5t16 -34.5h-159q15 23 21 52t6 55v262z" />
    <glyph glyph-name="f_f_l" unicode="ffl" horiz-adv-x="744" 
d="M180 108q0 -48 10 -73t17 -35h-160q15 23 21 52.5t6 55.5v343h-27v21h27v29q0 17 0.5 35t2.5 35q9 73 56 105q35 23 88 23q38 0 73 -20q15 -10 27 -22.5t17 -28.5q15 29 41 48q34 23 88 23q17 0 36.5 -5t36.5 -15q8 -4 13 -10q14 1 32 3.5t35 6.5t31 9t20 11v-591
q0 -48 10.5 -73t16.5 -35h-159q15 23 20.5 52.5t5.5 55.5v384q0 32 -19 63.5t-54 51.5q-12 8 -32 15.5t-40 9.5q-26 3 -42 -3.5t-24 -19.5q-11 -17 -5.5 -41t26.5 -45q21 -23 51 -37t55 -14h23v-21h-78v-343q0 -48 10 -73t16 -35h-159q15 23 21 52.5t6 55.5v343h-27v21h27
v20q0 32 -19.5 63.5t-54.5 51.5q-12 8 -32 15.5t-40 9.5q-26 3 -42 -3.5t-24 -19.5q-10 -17 -4.5 -41t25.5 -45q22 -23 51.5 -37t54.5 -14h23v-21h-78v-343z" />
    <glyph glyph-name=".notdef" horiz-adv-x="527" 
d="M477 700v-700h-427v700h427zM263 371l186 309h-371zM71 650v-601l180 301zM79 21h370l-185 308zM457 47v605l-181 -302z" />
    <glyph glyph-name=".null" horiz-adv-x="0" 
 />
    <glyph glyph-name=".null" horiz-adv-x="0" 
 />
    <glyph glyph-name="uni000D" unicode="&#xd;" horiz-adv-x="0" 
 />
    <glyph glyph-name="uni000A" unicode="&#xa;" horiz-adv-x="0" 
 />
    <glyph glyph-name="space" unicode=" " horiz-adv-x="329" 
 />
    <glyph glyph-name="exclam" unicode="!" horiz-adv-x="267" 
d="M197 700l-37 -499h-53l-38 499h128zM208 66q0 -27 -21.5 -46.5t-53.5 -19.5q-31 0 -53 19.5t-22 46.5q0 28 22 46.5t53 18.5q32 0 53.5 -18.5t21.5 -46.5z" />
    <glyph glyph-name="quotedbl" unicode="&#x22;" horiz-adv-x="414" 
d="M115 700q32 0 53.5 -19t21.5 -46q0 -37 -11.5 -69.5t-30.5 -59.5t-44.5 -47t-54.5 -32l-9 12q33 26 49.5 60.5t22.5 69.5q-30 1 -51 20.5t-21 45.5q0 28 22 46.5t53 18.5zM299 700q32 0 53.5 -19t21.5 -46q0 -37 -11.5 -69.5t-30.5 -59.5t-44.5 -47t-54.5 -32l-9 12
q34 26 50.5 60.5t21.5 69.5q-30 1 -51 20.5t-21 45.5q0 28 22 46.5t53 18.5z" />
    <glyph glyph-name="numbersign" unicode="#" horiz-adv-x="695" 
d="M284 700h84l-53 -198h146l52 198h85l-53 -198h105l-22 -81h-105l-38 -141h106l-22 -82h-105l-54 -198h-84l53 198h-145l-54 -198h-84l53 198h-105l22 82h105l38 141h-106l22 81h105zM293 421l-38 -141h146l38 141h-146z" />
    <glyph glyph-name="dollar" unicode="$" horiz-adv-x="578" 
d="M265 228q-25 5 -46.5 -1.5t-35.5 -22t-20 -37t-1 -46.5q5 -20 15.5 -38t29.5 -33q27 -19 58 -25v203zM321 27q34 7 58 30q20 18 30.5 39t13.5 43t-0.5 44t-12.5 42q-14 29 -35.5 52t-45.5 44l-4 4l-4 4v-302zM265 373q-13 10 -26 19.5t-26 19.5q-24 18 -45.5 37.5
t-38.5 42.5q-15 20 -24 43t-8 50q0 20 7.5 38.5t23.5 35.5q25 26 62.5 33.5t74.5 7.5v86h56v-88q39 -3 67 -9t54 -5q30 0 47 14v-191q-11 33 -25 62t-33.5 51t-46.5 36.5t-63 20.5v-217q40 -28 63 -49q29 -23 55.5 -47.5t45.5 -54.5q20 -32 29.5 -68t2.5 -78
q-6 -41 -30.5 -76.5t-68.5 -58.5q-22 -12 -46 -18.5t-51 -8.5v-86h-56v86q-32 2 -61.5 9t-51.5 19q-30 15 -53 38.5t-35 52.5q-15 35 -11 72t24 64q18 25 44 36t53.5 9.5t52 -14.5t38.5 -36v122v0zM265 678q-26 -4 -44 -20t-18 -48q0 -33 21 -62q7 -10 15 -17t16 -15
q2 -2 5 -4.5t5 -4.5v171z" />
    <glyph glyph-name="percent" unicode="%" horiz-adv-x="733" 
d="M545 700l-285 -700h-72l285 700h72zM556 0q-27 0 -51 14t-42 38.5t-28 57.5t-10 70t10 70t28 57.5t42 38.5t51 14t51 -14t41.5 -38.5t28 -57.5t10.5 -70t-10.5 -70t-28 -57.5t-41.5 -38.5t-51 -14zM515 333q-14 -4 -23.5 -19t-13.5 -38.5t-2 -52.5t11 -61t21.5 -58.5
t27.5 -45t31 -27t30 -4.5t23.5 19.5t13 38.5t1.5 52.5t-11 60.5q-8 32 -21 58.5t-27.5 44.5t-30.5 27t-30 5zM108 502q9 -32 21.5 -58.5t27.5 -44.5t31 -27t30 -5t23.5 19.5t13 38.5t1.5 52.5t-10 61.5q-9 32 -21.5 58t-27.5 44.5t-31 27.5t-30 5t-23.5 -19.5t-13.5 -38.5
t-2 -52.5t11 -61.5zM177 340q-27 0 -51 14t-42 38.5t-28 57.5t-10 70q0 38 10 70.5t28 57t42 38.5t51 14t51 -14t41.5 -38.5t28 -57t10.5 -70.5q0 -37 -10.5 -70t-28 -57.5t-41.5 -38.5t-51 -14z" />
    <glyph glyph-name="ampersand" unicode="&#x26;" horiz-adv-x="663" 
d="M350 469q13 2 24 10t20 19q15 21 17.5 53t-7 62t-30.5 51t-53 21q-24 0 -40.5 -8.5t-27 -23t-15.5 -34t-7 -41.5q-2 -38 4.5 -76.5t16.5 -64.5q21 -57 56.5 -119t80.5 -121q24 -31 50.5 -59.5t54.5 -53.5q24 27 35 68.5t2 97.5q-8 47 -29.5 86t-52.5 54h168
q-13 -6 -20 -17t-10 -24t-4 -28t-2 -29q-4 -72 -22.5 -126t-53.5 -92q56 -50 112 -75h-55q-51 1 -110 34q-63 -34 -155 -34q-48 0 -88.5 15t-71.5 40.5t-52 58t-30 66.5q-8 30 -6 60.5t15 56.5t38 47t62 33q-22 55 -29 107.5t7 96.5q18 60 67.5 89t110.5 30q32 1 65.5 -7
t61.5 -27q29 -20 46.5 -50t17.5 -67q-1 -26 -12.5 -48.5t-31.5 -36.5q-23 -17 -54 -17.5t-63 23.5zM316 143q-44 46 -80 99.5t-62 109.5q-17 -19 -25.5 -42t-9 -48.5t6 -52t19.5 -51.5q18 -35 46 -64t63 -46.5t76.5 -20t84.5 15.5q-31 19 -60.5 44.5t-58.5 55.5z" />
    <glyph glyph-name="quotesingle" unicode="'" horiz-adv-x="230" 
d="M115 700q32 0 53.5 -19t21.5 -46q0 -37 -11.5 -69.5t-30.5 -59.5t-44.5 -47t-54.5 -32l-9 12q33 26 50 60.5t22 69.5q-30 1 -51 20.5t-21 45.5q0 28 22 46.5t53 18.5z" />
    <glyph glyph-name="parenleft" unicode="(" horiz-adv-x="335" 
d="M307 687q-35 -16 -61.5 -58t-44.5 -99.5t-27 -126.5t-9 -140q0 -72 8.5 -142t26.5 -129t44.5 -101t62.5 -59v-13q-61 21 -107.5 65.5t-77.5 103.5t-47 128t-16 141t15 142t46 129.5t78 104.5t109 67v-13z" />
    <glyph glyph-name="parenright" unicode=")" horiz-adv-x="335" 
d="M27 700q62 -22 109 -67t78 -104.5t46 -129.5t15 -142t-15.5 -141t-46.5 -128t-77.5 -103.5t-108.5 -65.5v13q36 17 62.5 59t44.5 101t27 129t9 142q0 71 -9.5 140t-27.5 126.5t-44.5 99.5t-61.5 58v13z" />
    <glyph glyph-name="asterisk" unicode="*" horiz-adv-x="480" 
d="M311 320l-71 164l-72 -164l-84 61l134 119l-178 17l32 99l154 -90l-38 174h104l-39 -174l154 90l33 -99l-178 -17l133 -119z" />
    <glyph glyph-name="plus" unicode="+" horiz-adv-x="581" 
d="M245 603h91v-207h207v-91h-207v-208h-91v208h-208v91h208v207z" />
    <glyph glyph-name="comma" unicode="," horiz-adv-x="210" 
d="M104 131q32 0 53.5 -18.5t21.5 -46.5q0 -37 -11.5 -69.5t-30.5 -59.5t-44.5 -47t-54.5 -32l-9 12q33 26 50 60.5t22 69.5q-30 2 -51 21t-21 45q0 28 22 46.5t53 18.5z" />
    <glyph glyph-name="hyphen" unicode="-" horiz-adv-x="451" 
d="M26 305v91h398v-91h-398z" />
    <glyph glyph-name="period" unicode="." horiz-adv-x="209" 
d="M179 66q0 -27 -21.5 -46.5t-53.5 -19.5q-31 0 -53 19.5t-22 46.5q0 28 22 46.5t53 18.5q32 0 53.5 -18.5t21.5 -46.5z" />
    <glyph glyph-name="slash" unicode="/" horiz-adv-x="411" 
d="M285 700h95l-253 -700h-95z" />
    <glyph glyph-name="zero" unicode="0" horiz-adv-x="624" 
d="M392 52q30 8 49.5 38.5t28 76t5.5 103t-20 118.5q-16 62 -42 113.5t-56.5 87t-62.5 52t-62 8.5t-49.5 -38.5t-28 -76.5t-5 -103t19.5 -119q17 -62 42.5 -113.5t56 -86.5t62.5 -51.5t62 -8.5zM567 350q0 -72 -20 -136t-54.5 -111.5t-81 -75t-99.5 -27.5t-99.5 27.5t-81 75
t-54.5 111.5t-20 136t20 136t54.5 111.5t81 75t99.5 27.5t99.5 -27.5t81 -75t54.5 -111.5t20 -136z" />
    <glyph glyph-name="one" unicode="1" horiz-adv-x="318" 
d="M229 107q0 -48 10.5 -73t16.5 -34h-159q15 23 20.5 52t5.5 55v443l-77 -33v36q21 14 39.5 32.5t33.5 38t25.5 39.5t15.5 37h69v-593z" />
    <glyph glyph-name="two" unicode="2" horiz-adv-x="550" 
d="M275 14q-30 6 -57.5 11t-54 5t-53 -6.5t-53.5 -23.5v47q32 37 67.5 75t70.5 77q28 31 57.5 69t55.5 81q34 55 53.5 113t6.5 115q-5 21 -14 39.5t-23 32t-33 21.5t-44 8q-24 0 -44 -9.5t-34 -25.5t-20.5 -38t-3.5 -48q2 -20 12 -37.5t25 -28.5t35.5 -13.5t43.5 7.5
q-12 -45 -42.5 -63t-64.5 -16q-51 4 -81.5 40t-27.5 87q3 39 22 69.5t47.5 52.5t63.5 33.5t70 11.5q48 0 91 -10t73 -36q37 -32 50.5 -74.5t8.5 -87.5q-4 -53 -28.5 -104t-56.5 -90q-35 -43 -78.5 -79.5t-86.5 -68.5q-36 -26 -72.5 -50t-68.5 -49q42 24 76 33t66 11
q23 2 45.5 0.5t46.5 -1.5q23 0 48 3.5t46 14.5q17 8 29 21t17 31q22 -25 28 -50.5t-2 -48.5q-10 -28 -37.5 -46.5t-66.5 -18.5q-32 0 -58 4.5t-50 9.5z" />
    <glyph glyph-name="three" unicode="3" horiz-adv-x="573" 
d="M343 442q26 -5 49 -16t43 -26q40 -32 61.5 -78t23.5 -95q1 -48 -18 -93.5t-57 -78.5q-31 -26 -74 -40.5t-100 -14.5q-46 0 -88 13t-77 46q-32 31 -46 72t-9 83q5 45 28 76.5t55 47.5q25 13 52.5 15t52.5 -7t45 -30t29 -55q-36 15 -68 12t-55 -18q-37 -24 -49.5 -69
t11.5 -93q16 -31 48 -51t70 -20q35 -1 62.5 14.5t45.5 42.5q20 29 29 65.5t7 74.5q-2 36 -15.5 69.5t-36.5 59.5q-18 20 -40.5 33t-49.5 18l166 253q-18 -12 -41.5 -24.5t-50.5 -23t-55.5 -18t-55.5 -9.5q-28 -2 -54 3.5t-45 19.5t-30.5 38.5t-11.5 61.5q32 -13 83.5 -19
t107.5 -5.5t107.5 6.5t81.5 18v-48z" />
    <glyph glyph-name="four" unicode="4" horiz-adv-x="519" 
d="M430 172h26v-41h-26v-24q0 -48 10 -73t16 -34h-159q15 23 21 52t6 55v24h-271l-11 24q12 12 25 26t26 29q20 23 39 52t34 61q12 26 19.5 54t8.5 55t-5 52t-21 44q-14 20 -37 31.5t-57 13.5q22 38 53.5 50t61.5 4q17 -5 32 -16.5t26 -28.5t17 -39.5t5 -49.5
q-2 -45 -21.5 -93t-46.5 -93q-22 -36 -45.5 -67t-43.5 -54q-3 -4 -6.5 -7t-6.5 -7h225v391q0 17 -2 32.5t-5 26.5q-4 19 -10 30t-10 17q12 0 31.5 2t39.5 5.5t37.5 9.5t24.5 14v-528z" />
    <glyph glyph-name="five" unicode="5" horiz-adv-x="579" 
d="M138 471q31 11 63.5 14.5t65.5 2.5q57 -1 106 -20q50 -20 86.5 -57.5t53.5 -95.5q10 -37 10 -75t-10.5 -73t-31.5 -66t-53 -54q-31 -22 -67.5 -34.5t-84.5 -12.5t-90.5 15.5t-73.5 44.5q-30 28 -45.5 66.5t-10.5 87.5q5 45 28 76.5t55 47.5q25 13 52.5 15t52.5 -7t45 -30
t29 -55q-36 15 -68 12t-55 -18q-22 -14 -34.5 -33.5t-16.5 -41.5t0 -44t14 -42q16 -31 45.5 -51.5t71.5 -20.5q39 -1 65 15t45 42q29 39 35 92.5t-7 104.5q-11 41 -32.5 75.5t-53.5 55.5q-18 11 -39 19t-47 10q-38 5 -75.5 -4t-72.5 -27q8 40 15 76t13.5 71t12.5 71.5
t12 76.5q21 -8 61.5 -15t89 -9t98.5 3t89 21q0 -48 -17.5 -75t-45 -37.5t-62 -7.5t-69.5 13.5t-66.5 26.5t-53.5 31z" />
    <glyph glyph-name="six" unicode="6" horiz-adv-x="567" 
d="M186 442q15 14 36.5 20.5t46.5 8.5q34 1 67.5 -6.5t56.5 -20.5q58 -31 92 -94q29 -51 31 -113q2 -50 -14.5 -91.5t-47.5 -73.5q-33 -34 -78 -53t-98 -19q-21 0 -43 3t-39 8q-49 15 -82 48q-32 31 -46.5 72t-9.5 83q5 45 28 76.5t55 47.5q25 13 52.5 15t52.5 -7t45 -30
t29 -55q-36 15 -68 12t-55 -18q-37 -24 -49.5 -69t11.5 -93q16 -31 48 -51t70 -20q41 -1 69.5 18t45.5 48.5t23 66t2 71.5q-9 80 -57 129q-26 27 -62.5 42t-81.5 14q-47 0 -89.5 -20t-69.5 -59q6 72 32 135q32 81 94 138q24 23 51 39.5t57 29.5q66 26 139 26v-15
q-28 -4 -55 -17t-51 -31q-23 -17 -42 -36.5t-33 -36.5q-23 -28 -39 -59t-24 -63z" />
    <glyph glyph-name="seven" unicode="7" horiz-adv-x="474" 
d="M161 0q-11 100 -1.5 182t32.5 150q19 55 45.5 101t56.5 84.5t62 71t62 60.5q-20 -11 -46 -21.5t-55.5 -19.5t-60 -15.5t-60.5 -8.5q-34 -3 -64.5 1.5t-54 17.5t-37 37t-13.5 60q35 -14 87 -19.5t108 -4.5q36 0 71 2t65 5.5t53 8t35 8.5v-59q-69 -67 -113 -148t-58 -184
q-8 -67 -1.5 -143.5t31.5 -165.5h-144z" />
    <glyph glyph-name="eight" unicode="8" horiz-adv-x="577" 
d="M281 0q-21 0 -42.5 3t-38.5 8q-54 16 -93 55q-28 29 -42.5 68t-12.5 77q2 51 27 86t60 52q26 13 55 15.5t54.5 -6.5t46 -30t29.5 -55q-36 15 -70.5 12t-58.5 -18q-18 -12 -31.5 -31.5t-18.5 -43.5q-5 -23 -2 -49t15 -50q16 -31 50 -51t73 -20q36 -1 64 11t48 33
q23 24 32.5 53t7.5 59q-2 33 -15.5 64.5t-36.5 56.5q-17 19 -39.5 35.5t-49.5 35.5q-28 20 -56.5 39.5t-55.5 40.5q-41 31 -57.5 64.5t-14.5 65.5q3 32 24 58.5t56 42.5q43 19 98 19q29 0 61.5 -5t61.5 -20q28 -15 46.5 -41t19.5 -62q2 -33 -10 -56t-32 -40
q-15 -12 -33.5 -20t-40.5 -13q29 -16 55 -36t47 -46q27 -32 42 -67.5t18 -70.5q4 -54 -22 -103.5t-85 -83.5q-30 -17 -64 -26.5t-69 -9.5zM226 542q10 -11 21.5 -19.5t23.5 -17.5q18 -13 35 -24.5t35 -22.5q27 20 39.5 53.5t9.5 68.5q-4 47 -30 73.5t-74 24.5
q-33 0 -54.5 -13t-30 -33t-3 -44t27.5 -46z" />
    <glyph glyph-name="nine" unicode="9" horiz-adv-x="566" 
d="M380 258q-15 -14 -37 -20.5t-46 -8.5q-34 -1 -67.5 7t-56.5 19q-57 32 -92 95q-29 50 -32 113q-2 50 15 91.5t48 73.5q32 34 77.5 53t97.5 19q22 0 44 -3t39 -8q47 -15 82 -48q32 -31 46 -72t9 -83q-5 -45 -27.5 -76t-54.5 -48q-25 -13 -53 -15t-53 7t-44.5 30t-28.5 55
q36 -15 67.5 -12t55.5 18q36 24 48.5 69t-11.5 93q-15 31 -47 51t-70 20q-41 1 -69.5 -18t-45.5 -48.5t-23 -66t-2 -71.5q9 -80 57 -129q26 -27 62 -42t81 -14q47 0 90 20t70 59q-7 -72 -32 -135q-17 -42 -41 -76t-53 -62q-48 -43 -108 -68q-64 -27 -139 -27v15q28 4 55 17
t50 31q23 17 42.5 36.5t32.5 36.5q23 28 39.5 59t24.5 63z" />
    <glyph glyph-name="colon" unicode=":" horiz-adv-x="235" 
d="M192 66q0 -27 -21.5 -46.5t-53.5 -19.5q-31 0 -53 19.5t-22 46.5q0 28 22 46.5t53 18.5q32 0 53.5 -18.5t21.5 -46.5zM192 441q0 -26 -21.5 -45.5t-53.5 -19.5q-31 0 -53 19.5t-22 45.5q0 29 22 47.5t53 18.5q32 0 53.5 -18.5t21.5 -47.5z" />
    <glyph glyph-name="semicolon" unicode=";" horiz-adv-x="235" 
d="M117 131q32 0 53.5 -18.5t21.5 -46.5q0 -37 -11.5 -69.5t-30.5 -59.5t-44.5 -47t-54.5 -32l-9 12q33 26 49.5 60.5t22.5 69.5q-30 2 -51 21t-21 45q0 28 22 46.5t53 18.5zM192 441q0 -26 -21.5 -45.5t-53.5 -19.5q-31 0 -53 19.5t-22 45.5q0 29 22 47.5t53 18.5
q32 0 53.5 -18.5t21.5 -47.5z" />
    <glyph glyph-name="less" unicode="&#x3c;" horiz-adv-x="553" 
d="M504 197v-100l-470 229v48l470 229v-99l-338 -154z" />
    <glyph glyph-name="equal" unicode="=" horiz-adv-x="524" 
d="M37 183v91h450v-91h-450zM37 389v91h450v-91h-450z" />
    <glyph glyph-name="greater" unicode="&#x3e;" horiz-adv-x="553" 
d="M386 350l-337 154v99l470 -229v-48l-470 -229v100z" />
    <glyph glyph-name="question" unicode="?" horiz-adv-x="514" 
d="M226 201q-5 26 -3 46.5t9.5 38t19 33.5t24.5 32q22 29 39.5 58.5t28.5 61.5q11 34 11 74t-15 72q-12 27 -35.5 44.5t-61.5 17.5q-24 0 -44 -9.5t-34 -26t-20.5 -38.5t-3.5 -48q2 -20 12 -37.5t25 -28.5t35.5 -13.5t43.5 7.5q-12 -45 -42.5 -63t-64.5 -16q-25 2 -46 12.5
t-35.5 28t-21.5 39.5t-6 46q3 39 22 70t47.5 53t63.5 33.5t70 11.5q48 0 91 -10t73 -36q32 -27 46 -64t15 -78q0 -43 -15 -75.5t-38 -60.5q-20 -23 -44 -43.5t-50 -40.5q-20 -15 -33 -35.5t-6 -55.5h-57zM330 66q0 -27 -22 -46.5t-53 -19.5q-32 0 -53.5 19.5t-21.5 46.5
q0 28 21.5 46.5t53.5 18.5q31 0 53 -18.5t22 -46.5z" />
    <glyph glyph-name="at" unicode="@" horiz-adv-x="946" 
d="M824 533q24 -37 37.5 -81.5t16.5 -92t-5 -95t-26.5 -89.5t-47.5 -76.5t-70 -56.5q-54 -17 -86.5 -4t-53.5 44q-1 -1 -5 -4.5t-8.5 -8l-8 -8t-5.5 -4.5q-21 -15 -45.5 -23.5t-50.5 -8.5q-39 0 -73.5 18t-60 49t-40.5 73t-15 89t15 88.5t40.5 72.5t60 49t73.5 18
q49 0 92 -29q22 -15 48 -13q19 2 35 13.5t27 28.5v-332q0 -21 6 -33t15 -17t20.5 -3.5t23.5 7.5q29 15 49.5 45t33 66t17.5 73.5t3 67.5q-4 74 -34 129t-75.5 90.5t-103.5 52t-118 14.5q-70 -3 -138 -31t-118.5 -81.5t-77 -132.5t-14.5 -183q11 -99 61.5 -179t128.5 -128
q48 -29 104.5 -43t119.5 -8q83 8 159 54t128 134h32q-38 -71 -94.5 -123t-131.5 -82q-83 -32 -174 -32q-52 0 -102.5 12.5t-94.5 35t-81.5 53.5t-64.5 69q-46 65 -68.5 136t-23.5 142.5t19.5 139.5t61.5 125q44 60 107.5 104.5t148.5 64.5q59 14 121 10.5t120 -23
t107.5 -55.5t83.5 -88zM519 56q17 5 27.5 19.5t16.5 32.5t8 37.5t2 33.5q0 44 -14 100q-11 41 -28 75t-37 57t-41 34t-40 6t-32 -25t-18.5 -50t-3 -68t13.5 -79t28 -75t36.5 -57.5t41 -34.5t40.5 -6z" />
    <glyph glyph-name="A" unicode="A" horiz-adv-x="522" 
d="M275 700l184 -603q5 -15 11 -30.5t13.5 -29t17 -24t20.5 -13.5h-182q13 11 17 24.5t3 28.5t-6 31l-10 32q-2 8 -4.5 16t-4.5 16h-137q-38 0 -64.5 -15t-34.5 -44v1q-2 -5 -3 -9.5t-3 -9.5q-7 -24 -6 -42t17 -29h-100q24 14 40 42t24 54l187 604h21zM226 507
q-21 -70 -36.5 -122.5t-28.5 -93.5t-23.5 -73.5t-19.5 -62.5q14 18 35 24.5t41 6.5h128q-21 70 -46 153.5t-50 167.5z" />
    <glyph glyph-name="B" unicode="B" horiz-adv-x="566" 
d="M326 0h-274q15 23 21 52t6 55v486q0 26 -6 55t-21 52h271q34 0 64.5 -13t53 -35.5t35.5 -52.5t13 -64q0 -35 -13.5 -65t-36.5 -53t-53 -35q56 -19 91 -63q21 -26 33 -57.5t12 -66.5q0 -42 -16.5 -78.5t-45.5 -63.5q-26 -25 -60.5 -39t-73.5 -14v0zM413 195q0 32 -10 63
t-29 55q-18 23 -44.5 36t-60.5 8q-18 -2 -35 -10.5t-30 -22.5q-11 -11 -19 -28v-274h46q31 0 60 8t52 24q32 22 51 57t19 84zM221 370q14 11 29 18t31 13q19 7 34.5 15t27.5 19q17 16 29 41q5 12 7.5 26.5t3.5 32.5q0 30 -11.5 56t-31 45.5t-45.5 30.5t-56 11h-54v-352
q7 14 16 25t20 19z" />
    <glyph glyph-name="C" unicode="C" horiz-adv-x="629" 
d="M264 663q-39 -10 -67 -44t-42.5 -83.5t-14 -110.5t18.5 -126q15 -58 41 -107t58.5 -84.5t69 -55t72.5 -19.5q35 0 61 15.5t45 40t31 55t17 60.5v-122q-37 -36 -91.5 -59t-114.5 -23q-64 0 -120 27.5t-97.5 75t-65.5 111.5t-24 136t24 136t65.5 111.5t97.5 75t120 27.5
q48 0 96 -15.5t87 -42.5q17 -14 31 -30.5t21 -36.5q10 -25 7 -47.5t-16 -41.5q-18 -26 -50 -41q-13 34 -34.5 73t-50.5 72.5t-64.5 55.5t-77.5 22q-15 0 -33 -5z" />
    <glyph glyph-name="D" unicode="D" horiz-adv-x="598" 
d="M185 22h36q71 0 116.5 41t73.5 104q18 41 26.5 88t8.5 95t-8.5 95t-26.5 88q-28 63 -73.5 104t-116.5 41h-36v-656zM278 700q63 0 110.5 -24.5t82.5 -66.5q42 -50 62.5 -118.5t20.5 -140.5t-20.5 -140.5t-62.5 -118.5q-35 -42 -82.5 -66.5t-110.5 -24.5h-226q15 23 21 52
t6 55v486q0 26 -6 55t-21 52h226z" />
    <glyph glyph-name="E" unicode="E" horiz-adv-x="516" 
d="M185 22h43q33 0 67 6.5t63 21.5t50 40t28 61q30 -17 38 -44.5t-1 -52.5q-8 -23 -27.5 -38.5t-47.5 -15.5h-346q16 23 21.5 52t5.5 55v486q0 26 -5.5 55t-21.5 52h395l20 -144q-8 33 -24.5 56t-37.5 38t-43.5 21.5t-42.5 6.5h-134v-216q11 16 34 18q20 2 38.5 -4t37.5 -12
q10 -3 23.5 -6t27.5 -3q17 0 33.5 7t26.5 27q14 -27 10.5 -52t-22.5 -39q-12 -10 -26.5 -12.5t-25.5 -1.5q-26 2 -45 11.5t-39 24.5q-13 10 -29 19.5t-27 9.5q-17 0 -17 -24v-403z" />
    <glyph glyph-name="F" unicode="F" horiz-adv-x="489" 
d="M185 107q0 -26 5.5 -55t21.5 -52h-160q15 23 21 52t6 55v486q0 26 -6 55t-21 52h395l20 -144q-8 33 -24.5 56t-37.5 38t-43.5 21.5t-42.5 6.5h-134v-216q11 16 34 18q20 1 38.5 -4.5t37.5 -11.5q11 -3 26.5 -6.5t31.5 -2t30 8.5t23 25q14 -27 10.5 -52t-22.5 -39
q-12 -10 -26.5 -12.5t-25.5 -1.5q-28 1 -52 15q-8 4 -16 9.5t-17 11.5q-10 8 -22.5 16t-23.5 11t-18.5 -1t-7.5 -21v-318z" />
    <glyph glyph-name="G" unicode="G" horiz-adv-x="654" 
d="M264 663q-39 -10 -67 -44t-42.5 -83.5t-14 -110.5t18.5 -126q15 -58 41 -107t58.5 -84.5t69 -55t72.5 -19.5q19 0 38.5 6t34.5 17v157q0 26 -5.5 55t-20.5 52h160q-7 -10 -17 -35t-10 -72v-106q0 -48 10 -72.5t17 -34.5h-134v28q-59 -28 -125 -28q-64 0 -120 27.5
t-97.5 75t-65.5 111.5t-24 136t24 136t65.5 111.5t97.5 75t120 27.5q48 0 96 -15.5t87 -42.5q17 -14 31 -30.5t22 -36.5q9 -25 6 -47.5t-16 -41.5q-18 -26 -50 -41q-13 34 -34.5 73t-50.5 72.5t-64.5 55.5t-77.5 22q-15 0 -33 -5z" />
    <glyph glyph-name="H" unicode="H" horiz-adv-x="591" 
d="M52 0q16 23 21.5 52t5.5 55v486q0 26 -5.5 55t-21.5 52h160q-7 -9 -17 -34t-10 -73v-131q11 16 34 18q20 2 38.5 -4t37.5 -12q10 -3 23.5 -6t27.5 -3q17 0 33.5 7t26.5 27v104q0 26 -5.5 55t-21.5 52h160q-7 -9 -17 -34t-10 -73v-486q0 -48 10 -72.5t17 -34.5h-160
q16 23 21.5 52t5.5 55v303q-3 -4 -5.5 -7t-6.5 -5q-12 -10 -26.5 -12.5t-25.5 -1.5q-26 2 -45 11.5t-39 24.5q-13 10 -29 19.5t-27 9.5q-17 0 -17 -24v-318q0 -48 10 -72.5t17 -34.5h-160z" />
    <glyph glyph-name="I" unicode="I" horiz-adv-x="264" 
d="M52 0q16 23 21.5 52t5.5 55v486q0 26 -5.5 55t-21.5 52h160q-6 -9 -16.5 -34t-10.5 -73v-486q0 -48 10.5 -72.5t16.5 -34.5h-160z" />
    <glyph glyph-name="J" unicode="J" horiz-adv-x="433" 
d="M112 241q16 3 32 -1t29 -14.5t22.5 -28.5t12.5 -44q-18 10 -36.5 9.5t-32.5 -9.5q-14 -8 -22.5 -22t-8.5 -34q-2 -26 14 -46q9 -14 24 -22t33 -7q23 0 36.5 11.5t21.5 30.5q6 15 9.5 32t4.5 34.5t1 33.5v28v401q0 21 -3.5 43.5t-11.5 42.5q-4 12 -12 21h160
q-6 -9 -16.5 -34t-10.5 -73v-395q0 -43 -7 -77t-24 -60q-20 -29 -55 -45t-92 -16q-25 0 -50 6.5t-47 19.5t-38 33t-22 47q-6 29 1 57t27 48q24 26 61 30z" />
    <glyph glyph-name="K" unicode="K" horiz-adv-x="554" 
d="M79 591q0 26 -5.5 55t-21.5 52h160q-16 -23 -21.5 -52t-5.5 -55v-268q17 32 40.5 47.5t55.5 28.5q43 15 59.5 40.5t20.5 70.5q2 25 2.5 49.5t2.5 41.5t6 34t12.5 30.5t21.5 23t33 12.5q14 3 29 -1t28 -12q-15 -5 -23.5 -18t-13.5 -30q-4 -16 -5 -32.5t-2 -30.5
q-1 -19 -1.5 -39.5t-3.5 -40.5q-4 -44 -25 -80t-67 -46q22 -1 38 -9t27 -22q19 -23 27.5 -53t12.5 -63t6.5 -67t9.5 -65q6 -27 18.5 -53.5t37.5 -40.5q-12 0 -24.5 -0.5t-25.5 -0.5q-34 1 -57.5 12t-39.5 30.5t-24 46t-11 57.5q-1 23 -1 47t-0.5 46.5t-3.5 43.5t-12 39
q-10 20 -26 28.5t-33 7.5q-28 -2 -53 -19t-36 -42v-189q0 -26 5.5 -55t21.5 -52h-160q16 23 21.5 52t5.5 55v486z" />
    <glyph glyph-name="L" unicode="L" 
d="M52 0q16 23 21.5 52t5.5 55v486q0 26 -5.5 55t-21.5 52h160q-16 -23 -21.5 -52t-5.5 -55v-571h43q23 0 47 3t47 10t43.5 19t36.5 30q13 14 22 30.5t12 36.5q30 -17 38 -44.5t-1 -52.5q-8 -23 -27.5 -38.5t-47.5 -15.5h-346z" />
    <glyph glyph-name="M" unicode="M" horiz-adv-x="684" 
d="M52 0q16 23 21.5 52t5.5 55v486q0 26 -5.5 55t-21.5 52h106l193 -474l180 474h100q-6 -10 -16.5 -34.5t-10.5 -72.5v-486q0 -48 10.5 -73t16.5 -34h-159q15 23 20.5 52t5.5 55v424l-146 -383q-15 -38 -38.5 -58t-60.5 -13q19 21 18.5 47t-11.5 52l-150 355v-424
q0 -48 10.5 -73t16.5 -34h-85z" />
    <glyph glyph-name="N" unicode="N" horiz-adv-x="595" 
d="M52 0q15 23 21 52t6 55v486q0 26 -6 55t-21 52h69l366 -514v407q0 26 -5.5 55t-21.5 52h85q-6 -10 -16 -34.5t-10 -72.5v-504q1 -44 -26.5 -67t-69.5 -22q-8 0 -14 2q11 8 16 20.5t5 26t-4.5 27t-12.5 25.5l-303 425v-419q0 -48 10.5 -73t16.5 -34h-85z" />
    <glyph glyph-name="O" unicode="O" horiz-adv-x="697" 
d="M655 350q0 -72 -24 -136t-65.5 -111.5t-97.5 -75t-120 -27.5t-120 27.5t-97.5 75t-65.5 111.5t-24 136t24 136t65.5 111.5t97.5 75t120 27.5t120 -27.5t97.5 -75t65.5 -111.5t24 -136zM432 37q39 11 67 44.5t42.5 83t14 110.5t-17.5 126q-16 59 -42 108t-58.5 84t-69 55
t-72.5 20q-19 0 -32 -4q-39 -11 -67 -45t-42 -83.5t-14 -110.5t18 -126q15 -58 41 -107t58.5 -84.5t69 -55t72.5 -19.5q19 0 32 4z" />
    <glyph glyph-name="P" unicode="P" horiz-adv-x="514" 
d="M52 0q16 23 21.5 52t5.5 55v486q0 26 -5.5 55t-21.5 52h272q34 0 64 -13t52.5 -35.5t35.5 -52.5t13 -64q0 -35 -13.5 -65t-36.5 -53q-17 -17 -33.5 -26t-34.5 -14q-20 -5 -41 -8t-44 -7q-16 -3 -30.5 -7.5t-28.5 -12.5q-28 -16 -42 -46v-189q0 -26 5.5 -55t21.5 -52h-160
zM185 326q14 27 36 44q14 11 29.5 18t30.5 13q19 7 34.5 15t28.5 19q16 16 28 41q11 25 11 59q0 30 -11 56t-31 45.5t-46 30.5t-56 11h-54v-352z" />
    <glyph glyph-name="Q" unicode="Q" horiz-adv-x="696" 
d="M239 23q-43 19 -79.5 51.5t-63 75t-41 93.5t-14.5 107q0 72 24 136t65.5 111.5t97.5 75t120 27.5q63 0 119 -27.5t98 -75t66 -111.5t24 -136q0 -60 -16.5 -114t-46 -98t-70 -76t-88.5 -48q50 -20 98 -44.5t94.5 -39t92.5 -12.5t91 34q12 -26 8 -51.5t-19 -46.5t-39 -34
t-54 -13q-53 0 -90.5 23.5t-72.5 55.5q-33 31 -68 60.5t-83 43.5q-18 5 -36.5 6.5t-34.5 -2.5t-27 -15t-16 -31q-5 -26 5 -52.5t33 -40.5q-35 -3 -59.5 8.5t-38.5 31.5q-13 17 -17.5 36.5t-0.5 38.5q4 15 13 29t26 24zM158 299q18 -65 48 -118t67 -88.5t78.5 -50.5t80.5 -5
q39 11 67 44.5t42.5 83t14 110.5t-18.5 126q-17 65 -47 118t-67 88.5t-78.5 51t-80.5 5.5q-39 -11 -67 -45t-42.5 -83.5t-14 -110.5t17.5 -126z" />
    <glyph glyph-name="R" unicode="R" horiz-adv-x="558" 
d="M52 0q16 23 21.5 52t5.5 55v486q0 26 -5.5 55t-21.5 52h272q34 0 64 -13t52.5 -35.5t35.5 -52.5t13 -64q0 -35 -13.5 -65t-36.5 -53q-17 -17 -33.5 -26t-35.5 -14q-5 -2 -15 -4q42 -1 65 -31q19 -23 27.5 -53t12.5 -63t6.5 -67t9.5 -65q5 -27 18 -53.5t38 -40.5
q-12 0 -24.5 -0.5t-25.5 -0.5q-61 3 -92 37q-19 20 -28 47.5t-12 61.5q-1 23 -1 47t-0.5 46.5t-3.5 43.5t-12 39q-10 20 -26 28.5t-34 7.5q-14 0 -29 -6t-27 -16q-22 -17 -32 -39v-189q0 -26 5.5 -55t21.5 -52h-160zM185 326q14 27 36 44q14 11 29.5 18t30.5 13
q19 7 34.5 15t28.5 19q16 16 28 41q11 25 11 59q0 30 -11 56t-31 45.5t-46 30.5t-56 11h-54v-352z" />
    <glyph glyph-name="S" unicode="S" horiz-adv-x="551" 
d="M241 227q-35 8 -58.5 -7.5t-32.5 -42.5q-10 -30 -0.5 -65.5t42.5 -60.5q36 -28 81 -28q28 0 51 9t40 25q20 18 30.5 39t13.5 43t-0.5 44t-12.5 42q-14 29 -35.5 52t-44.5 44q-26 24 -56.5 46t-60.5 45q-24 18 -45.5 37.5t-38.5 42.5q-15 20 -24 43t-8 49q0 43 31 75
q15 16 35.5 24.5t43 12t45.5 4t43 0.5q25 -1 45.5 -3.5t38 -5.5t33 -5.5t30.5 -1.5q30 0 47 14v-191q-13 37 -28.5 68t-38.5 53.5t-55 36t-77 14.5q-17 1 -33 -2.5t-28 -11.5t-19 -21.5t-7 -33.5q0 -33 21 -62q7 -10 15 -17t16 -15q32 -30 69 -57.5t60 -46.5
q29 -24 55.5 -48.5t45.5 -55.5q20 -32 29.5 -67.5t3.5 -77.5q-7 -42 -31.5 -77t-68.5 -58q-29 -16 -61 -22.5t-69 -5.5q-38 0 -74 7.5t-62 21.5q-30 15 -53 38.5t-35 52.5q-15 35 -11 71.5t24 64.5q17 23 43 36t60 6q26 -5 46.5 -22.5t29.5 -48.5z" />
    <glyph glyph-name="T" unicode="T" horiz-adv-x="520" 
d="M207 107v571h-54q-27 0 -48 -14.5t-37 -38.5t-27 -54.5t-19 -63.5v193h475v-193q-8 33 -19 63.5t-27 54.5t-36.5 38.5t-47.5 14.5h-54v-571q0 -26 5.5 -55t20.5 -52h-159q15 23 21 52t6 55v0z" />
    <glyph glyph-name="U" unicode="U" horiz-adv-x="544" 
d="M179 202q0 -57 33 -92.5t100 -35.5t98 35.5t31 92.5v391q0 26 -5.5 55t-21.5 52h84q-6 -9 -16.5 -34t-10.5 -73v-403q0 -42 -13 -77t-37.5 -60t-61 -39t-83.5 -14q-94 0 -148.5 50.5t-54.5 139.5v403q0 26 -5.5 55t-21.5 52h160q-6 -9 -16.5 -34t-10.5 -73v-391z" />
    <glyph glyph-name="V" unicode="V" horiz-adv-x="567" 
d="M72 607q-11 43 -32.5 65t-38.5 28h213q-22 -10 -28.5 -33t1.5 -55l136 -538q7 19 17 44.5t20.5 53t20 55t16.5 50.5q10 29 21 63.5t20 72.5q5 18 8.5 39t5 42.5t1 42t-5.5 38.5q-8 31 -26 46.5t-41 19.5q-17 2 -34.5 -1t-34.5 -11q15 45 49.5 66.5t71.5 21.5
q34 -1 63 -21.5t38 -62.5q7 -32 2.5 -69t-14.5 -70q-12 -40 -29 -82.5t-28 -73.5q-14 -35 -29.5 -72.5t-26.5 -67.5q-13 -34 -22 -56.5t-17.5 -42.5t-17.5 -42.5t-22 -56.5h-97z" />
    <glyph glyph-name="W" unicode="W" horiz-adv-x="823" 
d="M434 271q-8 -20 -16 -38t-14 -35q-13 -34 -22 -56.5l-17 -42.5l-17 -42.5t-22 -56.5h-87l-172 607q-12 43 -30.5 64.5t-35.5 28.5h196q-39 -25 -22 -88l144 -538q7 19 17 44.5t20.5 53t20.5 55t17 49.5q5 14 10 30t10 33l-76 268q-12 43 -30.5 64.5t-35.5 28.5h196
q-18 -12 -24 -34.5t3 -53.5l144 -538q19 51 37.5 102t35.5 103q17 51 29.5 104.5t15.5 104.5q2 26 -1 57.5t-17 55.5q-9 16 -23 26.5t-35 13.5q-33 5 -68 -13q15 45 49.5 67t71.5 21q35 0 63.5 -20.5t37.5 -62.5q8 -32 3.5 -69t-15.5 -70q-18 -63 -39.5 -121.5t-42.5 -118.5
q-22 -63 -45.5 -127t-47.5 -127h-90z" />
    <glyph glyph-name="X" unicode="X" horiz-adv-x="578" 
d="M338 371q11 10 27.5 26.5t35.5 34.5q21 21 34 46.5t17.5 51t-1 50t-21.5 43.5q-15 18 -40.5 24t-62.5 -7q12 39 45 60q32 19 65 16q28 -1 52 -16q8 -5 14.5 -11t11.5 -13q11 -15 17 -34.5t7 -39.5q1 -41 -17 -78q-13 -26 -37.5 -54.5t-45.5 -48.5l-17.5 -17.5l-17 -17
t-18.5 -18t-23 -22.5q-2 -2 -4.5 -4t-4.5 -4l71 -146l53 -108q17 -32 38.5 -54t41.5 -30h-201q12 8 15.5 19t2 22t-6 22.5t-9.5 20.5l-53 108l-66 136q-11 -10 -27.5 -26t-35.5 -35q-21 -21 -34 -46t-17.5 -51t1 -50t21.5 -43q15 -18 40.5 -24t62.5 6q-5 -20 -17 -35
t-28 -25q-32 -17 -65 -16q-29 1 -52 16q-16 11 -26 24q-11 16 -17.5 35t-6.5 40q-1 42 17 77q13 26 37.5 55t45.5 49q9 9 17.5 17t17 16.5l18.5 18.5l23 23q3 2 9 8l-71 145l-54 108q-16 33 -37.5 54.5t-41.5 29.5h202q-12 -8 -15.5 -18.5t-2.5 -21.5t6 -22.5t9 -21.5
l53 -108z" />
    <glyph glyph-name="Y" unicode="Y" horiz-adv-x="506" 
d="M315 271v-164q0 -48 10 -72.5t16 -34.5h-159q15 23 20.5 52t5.5 55v151l-140 349q-17 42 -32.5 63.5t-36.5 29.5h176q-17 -11 -16 -33t13 -52l123 -316q13 25 29 53.5t31.5 58t28.5 58.5t19 55q8 36 2.5 63.5t-21.5 43.5t-43.5 16.5t-63.5 -19.5q6 18 17.5 34t27.5 28
t36 19t41 7q22 0 39 -7.5t28 -20.5q12 -15 17 -36t0 -44q-4 -26 -15 -50t-22 -44l-131 -243v0z" />
    <glyph glyph-name="Z" unicode="Z" horiz-adv-x="522" 
d="M203 678q-31 0 -54.5 -14.5t-40.5 -38.5t-29 -54.5t-20 -63.5v193h415l-326 -669h91q46 -2 81.5 7.5t55.5 29.5q20 19 26 45t-2 51q-7 23 -25.5 41t-48.5 23q35 19 70.5 17.5t59.5 -21.5q25 -22 31 -53.5t-2 -60.5q-8 -32 -31 -57.5t-52 -36.5q-23 -9 -47.5 -13t-50.5 -4
q-75 0 -143.5 0.5t-131.5 0.5l323 678h-149z" />
    <glyph glyph-name="bracketleft" unicode="[" horiz-adv-x="306" 
d="M271 -174v-19h-198v893h198v-19l-106 -39v-776z" />
    <glyph glyph-name="backslash" unicode="\" horiz-adv-x="411" 
d="M379 0h-95l-253 700h95z" />
    <glyph glyph-name="bracketright" unicode="]" horiz-adv-x="306" 
d="M140 -134v776l-106 39v19h198v-893h-198v19z" />
    <glyph glyph-name="asciicircum" unicode="^" horiz-adv-x="503" 
d="M251 568l-124 -274h-98l198 406h48l199 -406h-98z" />
    <glyph glyph-name="underscore" unicode="_" horiz-adv-x="651" 
d="M73 -91v91h504v-91h-504z" />
    <glyph glyph-name="grave" unicode="`" horiz-adv-x="222" 
d="M152 548l-131 152h108l66 -152h-43z" />
    <glyph glyph-name="a" unicode="a" horiz-adv-x="499" 
d="M426 311v-151v-47t4 -43t12.5 -38t26.5 -32q-38 8 -65 16t-45 8q-26 0 -40 -23v101q-6 -23 -20.5 -41.5t-34.5 -32t-42.5 -20.5t-45.5 -7q-31 0 -56 10t-43 27t-28 39.5t-12 46.5q-1 26 6 50t21 44.5t34 35.5t44 24q17 6 34.5 10.5t37.5 9.5t38.5 15t33.5 24t24 32t9 40
q0 37 -22.5 59t-54.5 22q-15 0 -29.5 -6.5t-25 -18t-15 -25.5t-0.5 -29q6 -21 23.5 -34t36.5 -8q-8 -28 -26.5 -40.5t-39.5 -12.5q-32 0 -54 22q-15 15 -20 34t-1 39q5 25 20.5 43t37 30t46.5 17.5t48 5.5q49 0 84 -14t57 -39.5t32 -61.5t10 -81zM319 160v185
q-4 -12 -14 -22.5t-23 -19.5q-15 -12 -32 -20.5t-31 -14.5q-25 -12 -46 -29.5t-31 -44.5q-5 -14 -7 -29t0 -29q5 -32 28 -51q25 -20 58 -17q18 2 35.5 9t31.5 19t22.5 28.5t8.5 35.5z" />
    <glyph glyph-name="b" unicode="b" horiz-adv-x="543" 
d="M173 581v-119q26 21 56 33t63 12q43 0 81 -20t66.5 -54.5t45 -80.5t16.5 -98t-16.5 -98.5t-45 -81t-66.5 -54.5t-81 -20q-28 0 -53.5 8.5t-48.5 23.5q-26 17 -54 14q-44 -5 -69 -46v563q0 17 -2 32.5t-5 26.5q-4 19 -10 30t-10 17q12 0 31.5 2t39.5 5.5t37.5 9.5t24.5 14
v-119v0zM233 473q-19 -5 -31 -21t-18.5 -36.5t-8.5 -42t-2 -37.5q0 -51 15 -110q12 -45 31 -83t41 -64t45.5 -38.5t45.5 -6.5q21 6 35 28.5t20 56t3.5 75.5t-14.5 87t-31 83t-41 64t-45.5 38.5t-44.5 6.5z" />
    <glyph glyph-name="c" unicode="c" 
d="M451 93q-34 -48 -83 -70.5t-107 -22.5q-45 0 -85 20t-70 54.5t-47.5 81t-17.5 98.5q0 38 11 77t32.5 72.5t52 58.5t69.5 35q17 5 36 7.5t39 2.5q23 0 47 -4.5t46 -13.5q18 -8 34 -21t27 -29t16 -35.5t1 -40.5q-7 -34 -30.5 -51.5t-49.5 -17.5t-49 16.5t-30 42.5
q22 -4 39.5 6.5t26.5 27.5q11 20 6 45.5t-34 42.5q-10 5 -22 8.5t-26 2.5q-45 -1 -77 -25.5t-49 -66.5t-16.5 -89.5t11.5 -87.5q8 -32 23.5 -62t38 -53t51.5 -37t65 -14q32 -1 62 14t48 38q4 -3 11 -10z" />
    <glyph glyph-name="d" unicode="d" horiz-adv-x="570" 
d="M386 44q-26 -21 -57.5 -32.5t-66.5 -11.5q-45 0 -85 20t-70 54.5t-47.5 81t-17.5 98.5q0 53 17.5 99t47.5 80t70 54t85 20q35 0 66.5 -11.5t57.5 -32.5v100q0 37 -6 59q-5 19 -11 30t-10 17q12 0 32 2t40 5.5t37 9.5t24 14v-527v-23q0 -23 0.5 -44t5 -40t13.5 -35.5
t25 -30.5h-1q-32 7 -55.5 13.5t-41 9t-30 -2t-22.5 -20.5v44zM386 179q0 50 -15 104q-12 46 -31.5 84t-42.5 64t-47 38t-47 6q-22 -6 -37.5 -28.5t-22 -56.5t-4 -76.5t14.5 -88.5t31.5 -84t42 -64t47.5 -38t47 -6q30 8 46.5 45t17.5 91v10z" />
    <glyph glyph-name="e" unicode="e" 
d="M451 93q-34 -48 -83 -70.5t-107 -22.5q-45 0 -85 20t-70 54.5t-47.5 81t-17.5 98.5q0 38 11 77t32.5 72.5t52 58.5t69.5 35q17 5 36 7.5t39 2.5q45 0 87.5 -14.5t68.5 -55.5q10 -16 14.5 -34.5t0.5 -39.5q-4 -19 -15.5 -31.5t-28.5 -19.5t-37.5 -9.5t-41.5 -3.5
q-22 -1 -42.5 -1h-35.5h-110q0 -41 12 -85t35.5 -80t59 -59t82.5 -23q32 -1 62 14t48 38q4 -3 11 -10zM142 319h79q15 0 30 1t29 4q37 7 59 30t19 61q-2 29 -23 50.5t-52 20.5q-35 -1 -61 -15.5t-43.5 -37.5t-26.5 -53t-10 -61z" />
    <glyph glyph-name="f" unicode="f" horiz-adv-x="300" 
d="M320 627q8 -27 0 -57t-37 -55q-10 39 -34.5 68.5t-52.5 43.5q-29 14 -51.5 8.5t-33.5 -22.5t-8 -41.5t26 -48.5q22 -23 52 -37t54 -14h23v-21h-78v-344q0 -48 10.5 -73t16.5 -34h-160q15 23 21 52t6 55v344h-27v21h27v29q0 17 0.5 35t2.5 35q4 33 17 61.5t44 47.5
q34 20 72 20q43 0 72 -21t38 -52z" />
    <glyph glyph-name="g" unicode="g" horiz-adv-x="500" 
d="M445 308q0 -41 -16 -77.5t-43 -63.5t-63.5 -42.5t-77.5 -15.5q-54 0 -98 26l-3 1l-66 -88q4 2 10 6q35 17 79.5 28t90.5 10q27 0 57.5 -5.5t57.5 -18.5t46 -34.5t23 -53.5q6 -45 -17.5 -82t-61.5 -59q-30 -18 -64 -25t-65 -7q-23 0 -46.5 5t-44 15.5t-36.5 27t-24 40.5
q-4 14 -4 29t5 28.5t14.5 24t24.5 16.5q8 3 16 5t17 2q11 1 22 -2.5t20 -9.5q-29 -24 -31 -56q-2 -31 19 -54t50 -34q26 -9 53 -9q17 0 34 3.5t31.5 11t24 20t12.5 31.5q7 37 -25 69q-15 16 -33.5 26t-39.5 16t-42.5 8.5t-42.5 2.5q-38 -1 -72 -8.5t-56 -22.5l-33 44l83 109
q-38 27 -61 69.5t-23 93.5q0 41 15.5 77.5t42.5 63.5t63.5 42.5t77.5 15.5q28 0 53 -7t48 -20q4 7 7.5 13.5t8.5 13.5q5 8 12 17.5t15 17t18 12t20 4.5q19 -1 29.5 -16t2.5 -35q-16 8 -33 8q-16 0 -31.5 -8t-29.5 -28l-6 -8q39 -27 62.5 -69.5t23.5 -93.5zM323 328
q-10 36 -24.5 66t-31.5 50.5t-34.5 30.5t-33.5 6t-26.5 -21.5t-14.5 -43.5t-1.5 -59.5t11.5 -69.5q10 -36 24.5 -66t31 -50.5t34.5 -30.5t34 -6t26 21.5t14.5 43.5t2 59.5t-11.5 69.5z" />
    <glyph glyph-name="h" unicode="h" horiz-adv-x="507" 
d="M439 338v-231q0 -48 10.5 -72.5t16.5 -34.5h-160q16 23 21.5 52t5.5 55q0 62 -0.5 116t-0.5 116q0 69 -22.5 102.5t-54.5 33.5q-31 0 -54 -33.5t-23 -102.5v-232q0 -48 10.5 -72.5t16.5 -34.5h-160q16 23 21.5 52t5.5 55v456q0 17 -2 32.5t-4 26.5q-5 19 -11 30t-10 17
q12 0 31.5 2t39.5 5.5t37.5 9.5t24.5 14v-238q45 45 109 45q30 1 58.5 -8.5t48.5 -29.5q23 -23 34 -56t11 -75z" />
    <glyph glyph-name="i" unicode="i" horiz-adv-x="252" 
d="M180 507v-400q0 -48 10.5 -73t16.5 -34h-160q16 23 21.5 52t5.5 55v262q0 18 -2 33.5t-4 26.5q-5 19 -11 30t-10 17q12 0 31.5 2t39.5 5.5t37.5 9.5t24.5 14v0zM195 632q0 -29 -19.5 -49t-48.5 -20t-48.5 20t-19.5 49q0 28 19.5 48t48.5 20t48.5 -20t19.5 -48z" />
    <glyph glyph-name="j" unicode="j" horiz-adv-x="244" 
d="M-11 -21q22 2 43 -11t31 -43q-30 9 -46.5 -7t-17.5 -39q-2 -21 12 -40t46 -19q30 0 44.5 21.5t16.5 48.5q2 26 -9.5 52.5t-35.5 42.5v386q-1 17 -2.5 32t-4.5 26q-4 19 -10 30t-10 17q12 0 31.5 2t39.5 5.5t37.5 9.5t24.5 14v-535q0 -18 -1 -35.5t-5 -34.5
q-9 -39 -34 -64q-16 -16 -42 -25q-18 -6 -41 -6q-24 0 -46.5 5t-42.5 17q-24 14 -35 36.5t-9 45.5q2 26 18.5 46t47.5 22zM126 563q-29 0 -49 20t-20 49q0 28 20 48t49 20q28 0 48 -20t20 -48q0 -29 -20 -49t-48 -20z" />
    <glyph glyph-name="k" unicode="k" horiz-adv-x="469" 
d="M179 700v-414l58 40q10 7 23 16.5t24 21.5q15 16 18.5 34.5t-6.5 31.5q-6 8 -14 12t-18 5.5t-19.5 0.5t-18.5 -3q13 32 38 47t51 15q35 0 54.5 -17t21.5 -40q2 -17 -3 -30.5t-14.5 -24.5t-21 -20.5t-23.5 -18.5q-17 -11 -33.5 -23t-33.5 -23l101 -203q12 -24 22 -41
t20 -29t21 -20.5t25 -16.5h-184q15 25 6.5 52.5t-22.5 54.5l-72 146v-146q0 -48 10.5 -73t16.5 -34h-160q16 23 21.5 52t5.5 55v456q0 17 -2 32.5t-4 26.5q-5 19 -11 30t-10 17q12 0 31.5 2t39.5 5.5t37.5 9.5t24.5 14v0z" />
    <glyph glyph-name="l" unicode="l" horiz-adv-x="252" 
d="M179 700v-593q0 -48 10.5 -72.5t16.5 -34.5h-160q15 23 21 52t6 55v456q0 17 -2 32.5t-5 26.5q-4 19 -10 30t-10 17q12 0 31.5 2t39.5 5.5t37.5 9.5t24.5 14z" />
    <glyph glyph-name="m" unicode="m" horiz-adv-x="770" 
d="M396 469q8 -8 14 -16.5t11 -18.5q5 8 13.5 19.5t18.5 19.5q40 34 97 34q30 1 58 -8.5t48 -29.5q23 -23 34.5 -56t11.5 -75v-231q0 -48 10 -72.5t16 -34.5h-159q15 23 20.5 52t5.5 55v232q0 69 -22.5 102.5t-54.5 33.5q-31 0 -53 -31.5t-24 -95.5v-9v-232q0 -48 10 -73
t17 -34h-160q16 23 21.5 52t5.5 55v147q-1 20 -1 41v44q0 69 -22.5 102.5t-54.5 33.5t-54.5 -33.5t-22.5 -102.5v-232q0 -48 10.5 -73t16.5 -34h-160q15 23 21 52t6 55v262q0 18 -2 33.5t-5 26.5q-4 19 -10 30t-10 17q12 0 31.5 2t39.5 5.5t37.5 9.5t24.5 14v-45
q45 45 109 45q30 1 58.5 -8.5t48.5 -29.5z" />
    <glyph glyph-name="n" unicode="n" horiz-adv-x="507" 
d="M440 338v-231q0 -48 10 -72.5t17 -34.5h-160q16 23 21.5 52t5.5 55q0 62 -0.5 116t-0.5 116q0 69 -22.5 102.5t-54.5 33.5t-54.5 -33.5t-22.5 -102.5v-232q0 -48 10 -72.5t17 -34.5h-160q15 23 21 52t6 55v262q0 18 -2 33.5t-5 26.5q-4 19 -10 30t-10 17q12 0 31.5 2
t39.5 5.5t37.5 9.5t24.5 14v-45q45 45 109 45q30 1 58 -8.5t48 -29.5q23 -23 34.5 -56t11.5 -75z" />
    <glyph glyph-name="o" unicode="o" horiz-adv-x="523" 
d="M482 254q0 -52 -17.5 -98.5t-47.5 -81t-70 -54.5t-86 -20q-45 0 -85 20t-70 54.5t-47.5 81t-17.5 98.5q0 53 17.5 99t47.5 80t70 54t85 20q46 0 86 -20t70 -54t47.5 -80t17.5 -99zM153 225q12 -46 31.5 -84t42 -64t47.5 -38t47 -6q23 6 38 28.5t21.5 56.5t4 76.5
t-14.5 88.5t-31.5 84t-42.5 64t-47 38t-47 6q-22 -6 -37.5 -28.5t-22 -56.5t-4 -76.5t14.5 -88.5z" />
    <glyph glyph-name="p" unicode="p" horiz-adv-x="568" 
d="M183 463q26 21 57.5 32.5t66.5 11.5q45 0 85 -20t70 -54.5t47.5 -80.5t17.5 -99q0 -52 -17.5 -98.5t-47.5 -80.5t-70 -54t-85 -20q-35 0 -66.5 11.5t-57.5 32.5v-100q0 -28 5 -55.5t22 -50.5q-12 0 -31.5 -2t-39.5 -5.5t-37 -9.5t-25 -14v550q0 23 -0.5 44t-5 40t-13 36
t-25.5 30h1q38 -8 64 -15.5t45 -7.5q13 0 22.5 5t17.5 18v-44zM183 328q0 -50 15 -104q12 -46 31.5 -84t42.5 -64t47.5 -38t46.5 -6q23 6 38 28.5t21.5 56.5t4 76.5t-14.5 88.5t-31.5 84t-42 64t-47 38t-47.5 6q-30 -8 -46.5 -45t-17.5 -91v-10z" />
    <glyph glyph-name="q" unicode="q" horiz-adv-x="542" 
d="M370 45q-26 -21 -55.5 -33t-62.5 -12q-43 0 -81.5 20t-67 54.5t-45 80.5t-16.5 98q0 53 16.5 99t45 80.5t67 54.5t81.5 20q27 0 52.5 -8.5t48.5 -23.5q26 -17 55 -14q43 5 68 46v-563q0 -17 2 -32.5t5 -26.5q4 -19 10 -30.5t10 -16.5q-12 0 -31.5 -2t-39.5 -5.5t-37 -9.5
t-25 -14v238zM310 34q19 5 31 21t18.5 36.5t8.5 42t2 37.5q0 52 -15 110q-12 45 -31 83t-41 64t-45.5 38.5t-44.5 6.5t-35.5 -28.5t-20.5 -56t-3.5 -75.5t14.5 -87t31 -83t41 -64t45.5 -38.5t44.5 -6.5z" />
    <glyph glyph-name="r" unicode="r" horiz-adv-x="449" 
d="M326 504q45 -7 71 -39t24 -78q-1 -32 -17 -54t-39 -32t-49 -7.5t-48 20.5q19 11 33 28t18 39q3 20 -1.5 41.5t-18.5 35.5q-11 11 -28 15.5t-35 -2.5q-13 -5 -22.5 -15t-15.5 -24q-9 -17 -13.5 -41t-4.5 -52v-232q0 -48 10.5 -72.5t16.5 -34.5h-160q15 23 21 52t6 55v262
q0 18 -2 33.5t-5 26.5q-4 19 -10 30t-10 17q12 0 31.5 2t39.5 5.5t37.5 9.5t24.5 14v-45q53 44 119 44h13.5t13.5 -2z" />
    <glyph glyph-name="s" unicode="s" horiz-adv-x="456" 
d="M195 164q-20 5 -39.5 -10t-25.5 -35q-5 -17 -0.5 -36t17.5 -35q11 -14 30 -23t42 -9t42 8.5t33 23.5q14 14 20.5 33t4.5 39q-4 38 -37 70q-20 20 -43 36l-46 32q-30 19 -58 39t-48 47q-13 16 -20.5 33.5t-7.5 34.5q0 26 18 50q9 13 22.5 21.5t28.5 13.5q23 8 48 9.5
t48 1.5q38 -1 62.5 -7t47.5 -5q22 0 35 10v-173q-9 24 -21.5 52.5t-29.5 51.5q-8 11 -16 20t-17 17q-11 9 -30 13.5t-34 5.5q-24 1 -39 -5.5t-23 -17.5q-11 -17 -6 -39t28 -42q22 -20 46 -35.5t49 -30.5q26 -17 51 -35t47 -43q42 -49 40 -101q-2 -44 -31 -80
q-30 -36 -73.5 -50.5t-90.5 -14.5q-29 0 -55.5 5.5t-46.5 15.5q-22 11 -39 28.5t-27 38.5q-11 25 -7.5 51.5t18.5 46.5q12 17 31.5 26.5t45.5 4.5q19 -4 34 -16.5t22 -35.5z" />
    <glyph glyph-name="t" unicode="t" horiz-adv-x="340" 
d="M69 563q0 17 -2 32.5t-5 26.5q-4 19 -10 30t-10 17q12 0 31.5 2t39.5 5.5t37.5 9.5t24.5 14v-228h80v-21h-80v-238q-14 -7 -27 -16t-24 -20q-23 -24 -26 -48.5t8 -41.5q14 -23 34 -24.5t40 9.5q15 8 29 21.5t26 29.5t20.5 32t11.5 30q35 -30 40 -69.5t-15 -70.5
q-13 -20 -39 -32.5t-55 -12.5q-31 0 -53 10t-38 27q-29 35 -35 92q-2 17 -2.5 33t-0.5 33v256h-25v21h25v91z" />
    <glyph glyph-name="u" unicode="u" horiz-adv-x="508" 
d="M436 138q0 -18 2 -33t4 -27q5 -19 11 -30t10 -17q-12 0 -31.5 -2t-39.5 -5.5t-37 -9t-25 -13.5v44q-45 -45 -110 -45q-29 0 -57.5 9.5t-48.5 28.5q-23 23 -34 56.5t-11 75.5v199q0 18 -2 33.5t-5 26.5q-4 19 -10 30t-10 17q12 0 31.5 2t39.5 5.5t37.5 9.5t24.5 14v-148
v-191q0 -68 23 -102t55 -34q31 0 53.5 33.5t23.5 102.5v201q0 18 -2 33.5t-4 26.5q-5 19 -11 30t-10 17q12 0 31.5 2t39.5 5.5t37.5 9.5t24.5 14v-369z" />
    <glyph glyph-name="v" unicode="v" horiz-adv-x="468" 
d="M272 0h-82l-118 413q-10 35 -25.5 60.5t-37.5 33.5h178q-11 -4 -15.5 -13.5t-4 -22t4 -28t7.5 -30.5l95 -346q5 12 13 29t17 36.5t18 40.5t16 40q9 23 15 50t8 55q1 20 -2 41.5t-11 41.5q-6 13 -15 23.5t-22 17.5q-18 11 -46 13q11 31 36 47t52 18q25 1 46.5 -13
t30.5 -43q6 -22 4.5 -45.5t-7.5 -47.5q-8 -30 -20.5 -59t-23.5 -55z" />
    <glyph glyph-name="w" unicode="w" horiz-adv-x="715" 
d="M272 0h-83l-117 413q-10 35 -26 60.5t-37 33.5h178q-11 -4 -15.5 -13.5t-4.5 -22t4 -28t8 -30.5l95 -346q5 12 13 29t16.5 36.5t17.5 40.5t17 40q6 15 11 32t8 36l-38 132q-10 35 -25.5 60.5t-37.5 33.5h178q-11 -4 -15.5 -13.5t-4.5 -22t4 -28t8 -30.5l95 -346
q5 12 13 29t17 36.5t18 40.5t16 40q9 23 15 50t8 55q1 20 -2 41.5t-11 41.5q-12 26 -33.5 39t-49.5 15q11 31 36 47t52 18q25 1 46.5 -13t30.5 -43q6 -22 4.5 -45.5t-7.5 -47.5q-8 -30 -20.5 -59t-23.5 -55l-111 -257h-82l-66 231z" />
    <glyph glyph-name="x" unicode="x" horiz-adv-x="479" 
d="M189 238q-8 -8 -20.5 -19t-24.5 -25q-20 -24 -26.5 -56t2.5 -58q8 -21 26.5 -32.5t50.5 -4.5q-8 -28 -30.5 -42.5t-48.5 -12.5q-19 1 -33 9t-24 20q-15 20 -17 48.5t9 54.5q9 20 23.5 38.5t31.5 35.5q14 14 30.5 30t39.5 38l-70 142q-7 14 -16 31t-20.5 32t-24 26
t-25.5 14h198q-23 -14 -22.5 -37t16.5 -56l70 -145q8 8 20.5 19t24.5 25q20 24 27 56t-3 58q-8 21 -26.5 32.5t-50.5 4.5q8 28 30.5 42.5t48.5 12.5q19 -1 33 -9t24 -20q15 -20 17.5 -48.5t-8.5 -54.5q-9 -20 -24 -38.5t-32 -35.5l-30 -30t-39 -38l69 -142q7 -14 16 -31
t20.5 -32t24 -26t25.5 -14h-197q23 14 22 37.5t-17 55.5z" />
    <glyph glyph-name="y" unicode="y" horiz-adv-x="468" 
d="M246 0h-57l-117 413q-10 35 -26 60.5t-37 33.5h178q-11 -4 -15.5 -13.5t-4.5 -22t4 -28t8 -30.5l95 -346q5 12 13 29t16.5 36.5t17.5 40.5t17 40q9 23 15 50t8 55q1 20 -2 41.5t-12 41.5q-11 26 -33 39t-49 15q11 31 36 47t52 18q25 1 46.5 -12.5t30.5 -42.5
q6 -23 4.5 -46.5t-8.5 -47.5q-8 -30 -20.5 -59t-23.5 -55l-130 -304q-10 -23 -22 -49t-29 -47.5t-40 -35.5t-55 -14q-30 0 -52.5 16t-33 40t-6 51.5t30.5 50.5q9 -41 33 -60t53 -19q29 1 55.5 19t41.5 53z" />
    <glyph glyph-name="z" unicode="z" horiz-adv-x="455" 
d="M221 486l-14 -1q-34 0 -57.5 -13t-39.5 -34t-27.5 -48t-21.5 -56v174h350q0 -39 -15 -73t-38 -66.5t-52 -63.5t-57 -63q-21 -24 -40.5 -49t-34.5 -52t-24 -56.5t-9 -62.5h75q35 -1 60.5 11t38.5 32q14 23 8 50t-39 50q38 22 77 14q20 -5 34.5 -19t18.5 -40q6 -40 -19 -72
q-21 -26 -52 -36q-17 -7 -36 -9.5t-39 -2.5h-116t-106 1q0 51 11 94t29.5 80t42 68t48.5 58q24 27 47 51t41 46t29 44t11 44h-84z" />
    <glyph glyph-name="braceleft" unicode="{" horiz-adv-x="342" 
d="M303 687q-35 0 -52.5 -13.5t-25.5 -36.5q-8 -24 -7 -56t5 -65.5t7 -67t-2 -60.5q-8 -48 -38.5 -83.5t-99.5 -50.5q69 -15 99.5 -50.5t38.5 -83.5q5 -27 2 -60.5t-7 -67t-5 -65.5t7 -56q8 -23 25.5 -36.5t52.5 -13.5v-13h-29q-58 0 -89.5 15.5t-46 43t-15.5 65.5t3 83
q4 49 5 95t-17 72q-13 18 -28.5 25t-38.5 8v78q23 1 38.5 8t28.5 26q9 12 12.5 30.5t4 40.5t-1 46.5t-3.5 48.5q-4 45 -3 83t15.5 65.5t46 43t89.5 15.5h29v-13z" />
    <glyph glyph-name="bar" unicode="|" horiz-adv-x="237" 
d="M73 -193v893h91v-893h-91z" />
    <glyph glyph-name="braceright" unicode="}" horiz-adv-x="343" 
d="M40 700h28q58 0 90 -15.5t46 -43t15.5 -65.5t-2.5 -83q-4 -49 -5 -95t16 -71q13 -18 28.5 -25.5t39.5 -8.5v-78q-24 -1 -39 -8t-29 -25q-17 -26 -16 -72t5 -95q4 -45 2.5 -83t-15.5 -65.5t-46 -43t-90 -15.5h-28v13q35 0 52.5 13.5t25.5 36.5q8 24 6.5 56t-5 65.5
t-6.5 67t2 60.5q8 47 38.5 83t98.5 51q-68 15 -98.5 51t-38.5 83q-5 27 -2 60.5t6.5 67t5 65.5t-6.5 56q-8 23 -25.5 36.5t-52.5 13.5v13z" />
    <glyph glyph-name="asciitilde" unicode="~" horiz-adv-x="532" 
d="M28 321q37 59 86.5 84.5t123.5 4.5q5 -2 10.5 -3.5t11.5 -3.5q32 -11 63.5 -23t62 -16.5t58 3t51.5 37.5l9 -24q-38 -60 -88 -85.5t-123 -3.5q-12 3 -21 6q-32 11 -64.5 23t-62.5 16.5t-58 -3.5t-51 -38z" />
    <glyph glyph-name="uni00A0" unicode="&#xa0;" horiz-adv-x="329" 
 />
    <glyph glyph-name="exclamdown" unicode="&#xa1;" horiz-adv-x="246" 
d="M58 -193l38 499h53l37 -499h-128zM122 507q32 0 53.5 -19.5t21.5 -46.5q0 -28 -21.5 -46.5t-53.5 -18.5q-31 0 -53 18.5t-22 46.5q0 27 22 46.5t53 19.5z" />
    <glyph glyph-name="cent" unicode="&#xa2;" horiz-adv-x="501" 
d="M213 481q-28 -8 -48.5 -32.5t-31 -60.5t-10 -80t12.5 -91q13 -46 35 -87l122 337q-8 5 -16.5 8.5t-17.5 5.5q-12 2 -23.5 2.5t-22.5 -2.5zM217 69q28 -27 58 -38.5t59 -3.5q35 9 57.5 41.5t30.5 79.5v-88q-26 -26 -65.5 -43t-83.5 -17q-40 0 -75 15l-40 -112h-68l52 146
q-42 35 -66.5 88.5t-24.5 116.5q0 52 17.5 98t47.5 80.5t70.5 54.5t86.5 20q17 0 33 -3l36 99h68l-42 -117q21 -10 38 -21q13 -10 23 -22.5t15 -26.5q7 -18 4.5 -34t-11.5 -30q-13 -19 -36 -30q-8 21 -19.5 43.5t-26.5 43.5q-2 3 -5 6t-5 7z" />
    <glyph glyph-name="sterling" unicode="&#xa3;" horiz-adv-x="546" 
d="M57 0q16 23 30.5 46.5t26.5 48.5q19 38 25 73t4 68h-86l36 63h39q-2 8 -4.5 16t-4.5 16q-11 35 -22 71.5t-19 78.5q-8 47 0 87.5t30.5 69.5t58.5 45.5t82 16.5q35 0 65.5 -4.5t56.5 -18.5q34 -20 55.5 -57t25.5 -88q2 -24 -5.5 -46t-22 -39.5t-35 -28t-45.5 -12.5
q-35 -2 -65.5 16t-42.5 63q23 -10 43.5 -7.5t36 13.5t25 28.5t12.5 37.5q6 50 -12 83q-11 22 -33 34.5t-56 10.5q-29 -2 -54 -18t-35 -47q-6 -19 -6.5 -42.5t2.5 -46.5t8.5 -45.5t10.5 -40.5q9 -33 19.5 -70.5t17.5 -75.5h162l-36 -63h-117q3 -30 0 -57q-5 -49 -29.5 -90
t-78.5 -67h128q20 0 40.5 2t40.5 7q26 6 50.5 19t42.5 33q13 14 22 31t12 36q30 -17 38 -44t-1 -52q-8 -23 -27.5 -38.5t-47.5 -15.5h-361z" />
    <glyph glyph-name="currency" unicode="&#xa4;" horiz-adv-x="583" 
d="M291 237q25 0 47.5 9.5t39 26t26 38.5t9.5 47t-9.5 47.5t-26 39t-39 26t-47.5 9.5t-47 -9.5t-38.5 -26t-26 -39t-9.5 -47.5t9.5 -47t26 -38.5t38.5 -26t47 -9.5zM478 602l57 -57l-76 -76q16 -24 25 -52t9 -59t-9 -59t-25 -52l76 -76l-57 -57l-76 76q-50 -33 -111 -33
t-111 33l-76 -76l-57 57l76 76q-33 50 -33 111t33 111l-76 76l57 57l76 -76q24 16 52 25t59 9t59 -9t52 -25z" />
    <glyph glyph-name="yen" unicode="&#xa5;" horiz-adv-x="573" 
d="M482 299v-63h-135v-58h135v-63h-135v-8q0 -48 10 -73t16 -34h-159q15 23 20.5 52t5.5 55v8h-135v63h135v58h-135v63h119l-124 308q-17 42 -32.5 63.5t-36.5 29.5h176q-17 -11 -16 -32.5t13 -52.5l123 -316q13 25 29 53.5t31.5 58t28.5 58.5t19 55q8 36 2.5 63.5
t-21.5 43.5q-16 17 -43.5 17t-63.5 -20q6 18 17.5 34t27.5 28t36 19t41 7q44 0 67 -28q12 -15 17 -36t0 -44q-4 -26 -15 -50t-22 -44l-117 -215h121z" />
    <glyph glyph-name="brokenbar" unicode="&#xa6;" horiz-adv-x="229" 
d="M61 700h106v-344h-106v344zM167 151v-344h-106v344h106z" />
    <glyph glyph-name="section" unicode="&#xa7;" horiz-adv-x="577" 
d="M73 63q17 24 43 36t60 6q26 -5 46.5 -22.5t28.5 -48.5q-35 8 -58 -7.5t-32 -42.5q-10 -30 -0.5 -65.5t42.5 -60.5q36 -28 81 -28q28 0 51 9t40 25q20 18 30.5 39t13.5 43t-0.5 44t-12.5 42q-14 29 -35.5 52t-44.5 44q-26 24 -56.5 46t-60.5 45q-24 18 -45.5 37.5
t-38.5 42.5q-15 20 -24 43.5t-8 49.5q0 20 7.5 38.5t23.5 35.5q5 6 13 11l-12 15q-15 20 -24 43t-8 50q0 20 7.5 38.5t23.5 35.5q15 16 35 24.5t42.5 12t46 4t43.5 0.5q25 -1 45.5 -3.5t38 -5.5t33 -5.5t30.5 -1.5q30 0 47 14v-191q-13 37 -28.5 68t-38.5 53.5t-55 36
t-77 14.5q-17 1 -33 -2.5t-28 -11.5t-19 -21.5t-7 -33.5q0 -33 21 -62q7 -10 15 -17t16 -15q32 -30 69 -57.5t60 -47.5q29 -23 55.5 -47.5t45.5 -54.5q20 -32 29.5 -68t3.5 -78q-6 -34 -24 -64q16 -29 22.5 -61t1.5 -68q-7 -41 -31.5 -76t-68.5 -59q-29 -15 -61 -21.5
t-69 -6.5q-38 0 -74 7.5t-62 21.5q-30 15 -53 38.5t-35 52.5q-15 35 -11 72t24 64zM199 417q0 -33 21 -62q7 -10 15 -17t16 -15q32 -30 69 -57.5t60 -47.5q10 -8 19.5 -15.5t18.5 -15.5q-5 21 -12 38q-14 29 -35.5 52t-44.5 44q-26 24 -56.5 46t-60.5 45l-10 8v-3z" />
    <glyph glyph-name="dieresis" unicode="&#xa8;" horiz-adv-x="400" 
d="M179 635q0 -27 -21.5 -46.5t-53.5 -19.5q-31 0 -53 19.5t-22 46.5q0 28 22 46.5t53 18.5q32 0 53.5 -18.5t21.5 -46.5zM370 635q0 -27 -21.5 -46.5t-53.5 -19.5q-31 0 -53 19.5t-22 46.5q0 28 22 46.5t53 18.5q32 0 53.5 -19t21.5 -46z" />
    <glyph glyph-name="copyright" unicode="&#xa9;" horiz-adv-x="631" 
d="M315 615q55 0 103.5 -20.5t84.5 -56.5t56.5 -84.5t20.5 -103.5t-20.5 -103t-56.5 -85q-36 -35 -84.5 -56t-103.5 -21t-103 21t-84 56q-36 37 -57 85t-21 103t21 103.5t57 84.5t84 56.5t103 20.5zM290 500q-19 -5 -32 -21t-20 -39.5t-6.5 -53t8.5 -60.5t22.5 -56.5
t32.5 -42.5t37.5 -24.5t38.5 -2.5q23 6 38 27.5t20 52.5v-58q-17 -17 -43.5 -28.5t-54.5 -11.5q-31 0 -57.5 13.5t-46.5 36t-31.5 53.5t-11.5 65q0 35 11.5 65.5t31.5 53.5t46.5 36t57.5 13q13 0 28 -3t29 -9q8 -3 15.5 -7t14.5 -9q19 -14 25 -32q9 -24 -4 -43
q-10 -13 -24 -19q-5 14 -12.5 28.5t-18.5 28.5q-5 8 -12 15t-14 13q-20 15 -37 19q-15 5 -31 0zM484 519q-32 32 -75.5 50.5t-93.5 18.5t-93 -18.5t-75 -50.5t-51 -75.5t-19 -93.5t19 -93t51 -75q32 -33 75 -51.5t93 -18.5t93.5 18.5t75.5 51.5q32 32 51 75t19 93t-19 93.5
t-51 75.5z" />
    <glyph glyph-name="ordfeminine" unicode="&#xaa;" horiz-adv-x="355" 
d="M288 576v-96q0 -31 3 -57t25 -44q-21 5 -36 9t-26 5.5t-19 -1.5t-14 -13v64q-6 -22 -26 -39q-13 -11 -29.5 -18t-35.5 -7q-41 0 -63.5 23.5t-24.5 54.5q-2 33 17 60t50 38q10 4 21 6.5t24 6.5q11 3 21.5 7.5t18.5 11.5q11 9 19 21.5t8 29.5q0 23 -14.5 37t-34.5 14
t-35 -15.5t-9 -34.5q3 -13 14 -21.5t24 -5.5q-4 -15 -13.5 -22.5t-20.5 -9.5t-22.5 1.5t-19.5 11.5q-11 9 -13.5 21.5t-0.5 24.5q3 16 13 27.5t23.5 19t29 11t30.5 3.5q63 0 89.5 -33.5t26.5 -90.5zM200 439q9 8 15 18t6 23v118q-3 -8 -9.5 -15t-14.5 -13
q-10 -7 -20.5 -12.5t-19.5 -9.5q-20 -8 -34 -23q-5 -5 -8.5 -11t-6.5 -12q-7 -20 -4 -37q3 -20 17 -32q15 -13 37 -11q11 1 22 5.5t20 11.5z" />
    <glyph glyph-name="guillemotleft" unicode="&#xab;" horiz-adv-x="517" 
d="M295 95v-34l-259 172v41l259 172v-34l-139 -158zM476 95v-34l-259 172v41l259 172v-34l-138 -158z" />
    <glyph glyph-name="uni00AD" unicode="&#xad;" horiz-adv-x="0" 
 />
    <glyph glyph-name="registered" unicode="&#xae;" horiz-adv-x="631" 
d="M200 183q8 11 10.5 24.5t2.5 26.5v233q0 12 -2.5 26t-10.5 25h130q33 0 56.5 -23.5t23.5 -55.5q0 -33 -24 -57q-8 -8 -16.5 -12t-16.5 -7q-2 -1 -4 -1t-4 -1q19 0 32 -15q9 -11 13 -25t6 -30t3 -32t4 -31q3 -13 9 -25.5t18 -19.5q-5 0 -11.5 -0.5t-12.5 -0.5
q-29 1 -44 18q-16 17 -19 52q-2 23 -1 45t-7 40q-5 9 -12.5 13t-15.5 4q-15 -2 -28 -11q-11 -9 -15 -19v-90q0 -13 2.5 -26.5t10.5 -24.5h-77zM315 615q56 0 104 -20.5t84 -56.5t57 -84.5t21 -103.5t-21 -103t-57 -85q-36 -35 -84 -56t-104 -21q-55 0 -103 21t-84 56
q-36 37 -57 85t-21 103t21 103.5t57 84.5t84 56.5t103 20.5zM484 519q-32 32 -75.5 50.5t-93.5 18.5q-49 0 -92.5 -18.5t-75.5 -50.5t-51 -75.5t-19 -93.5t19 -93t51 -75q32 -33 75.5 -51.5t92.5 -18.5q50 0 93.5 18.5t75.5 51.5q32 32 51 75t19 93t-19 93.5t-51 75.5z
M264 339q8 14 18 21q6 5 13 8.5t15 6.5q19 6 30 16q8 7 14 20q5 12 5 28q0 28 -20 48t-49 20h-26v-168z" />
    <glyph glyph-name="macron" unicode="&#xaf;" horiz-adv-x="394" 
d="M25 582v84h343v-84h-343z" />
    <glyph glyph-name="degree" unicode="&#xb0;" horiz-adv-x="240" 
d="M120 662q-20 0 -34.5 -14t-14.5 -34t14.5 -34.5t34.5 -14.5t34 14.5t14 34.5t-14 34t-34 14zM206 614q0 -36 -25 -61.5t-61 -25.5t-61.5 25.5t-25.5 61.5q0 18 7 33.5t18.5 27t27.5 18.5t34 7t33.5 -7t27.5 -18.5t18.5 -27t6.5 -33.5z" />
    <glyph glyph-name="plusminus" unicode="&#xb1;" horiz-adv-x="581" 
d="M245 603h91v-207h207v-91h-207v-208h-91v208h-208v91h208v207zM37 0h506v-91h-506v91z" />
    <glyph glyph-name="twosuperior" unicode="&#xb2;" horiz-adv-x="288" 
d="M144 385q-27 6 -50.5 8t-49.5 -14v22q15 17 31 34t33 35q12 14 26 31.5t26 37.5q15 26 23.5 52.5t3.5 52.5q-5 19 -17.5 33t-35.5 13q-22 0 -35.5 -16t-10.5 -39q2 -19 17 -31t36 -2q-5 -20 -19 -29t-30 -8q-23 2 -37.5 18.5t-12.5 39.5q2 18 10.5 32.5t21.5 24t29 15
t32 5.5q22 0 41.5 -4.5t33.5 -16.5q17 -14 23.5 -34t4.5 -40q-2 -24 -13.5 -48t-26.5 -41q-16 -20 -35.5 -37t-39.5 -31q-17 -12 -33.5 -23t-31.5 -23q19 11 34.5 15.5t30.5 5.5q11 1 21 0t21 -1t22.5 1.5t20.5 6.5q18 8 22 24q19 -22 11 -45q-5 -13 -17 -21.5t-30 -8.5
q-15 0 -27 2t-23 4z" />
    <glyph glyph-name="threesuperior" unicode="&#xb3;" horiz-adv-x="301" 
d="M176 582q26 -6 42 -19q19 -15 29 -36t11 -44q0 -22 -8.5 -42.5t-26.5 -36.5q-14 -11 -34 -18t-46 -7q-21 0 -40 6t-35 21q-14 14 -21 33t-5 38q3 21 13.5 35t24.5 22q23 12 48.5 4t34.5 -39q-17 7 -31.5 5.5t-25.5 -8.5q-17 -11 -22.5 -31.5t5.5 -42.5q7 -14 21.5 -23.5
t32.5 -9.5q31 0 50 26q9 14 13 31t3 34q-2 17 -7.5 32t-16.5 27q-8 8 -18.5 14.5t-22.5 8.5l76 116q-16 -11 -42 -21.5t-51 -12.5q-26 -2 -45.5 10t-19.5 46q15 -6 38.5 -8.5t49 -2.5t49 3t37.5 8v-22z" />
    <glyph glyph-name="acute" unicode="&#xb4;" horiz-adv-x="222" 
d="M26 548l66 152h108l-131 -152h-43z" />
    <glyph glyph-name="periodcentered" unicode="&#xb7;" horiz-adv-x="209" 
d="M179 350q0 -27 -21.5 -46.5t-53.5 -19.5q-31 0 -53 19.5t-22 46.5q0 28 22 47t53 19q32 0 53.5 -19t21.5 -47z" />
    <glyph glyph-name="cedilla" unicode="&#xb8;" horiz-adv-x="214" 
d="M163 -166q-31 -28 -81 -28q-10 0 -28.5 2.5t-33.5 4.5l7 18q29 -4 51 9t27 34q5 20 -8 36t-39 13l66 92h31l-32 -41q17 -5 31.5 -11.5t22.5 -16.5q17 -20 17 -47q0 -37 -31 -65z" />
    <glyph glyph-name="onesuperior" unicode="&#xb9;" horiz-adv-x="182" 
d="M124 428q0 -21 5 -32.5t8 -16.5h-74q8 11 10.5 24t2.5 25v203l-36 -15v17q19 13 33.5 32t18.5 35h32v-272z" />
    <glyph glyph-name="ordmasculine" unicode="&#xba;" horiz-adv-x="322" 
d="M278 540q0 -33 -9 -62.5t-25 -51.5t-37.5 -34.5t-45.5 -12.5t-45.5 12.5t-37.5 34.5t-25 51.5t-9 62.5t9 62t25 51t37.5 34.5t45.5 12.5t45.5 -12.5t37.5 -34.5t25 -51t9 -62zM227 557q-8 29 -20 52.5t-26 39.5t-28.5 23.5t-28.5 4.5q-13 -4 -22.5 -18t-13 -35t-2 -47
t8.5 -55q8 -28 20 -51.5t25.5 -40t28.5 -24t29 -3.5t23 18t12.5 35t2.5 47t-9 54z" />
    <glyph glyph-name="guillemotright" unicode="&#xbb;" horiz-adv-x="517" 
d="M360 254l-138 158v34l259 -172v-41l-259 -172v34zM179 254l-138 158v34l259 -172v-41l-259 -172v34z" />
    <glyph glyph-name="questiondown" unicode="&#xbf;" horiz-adv-x="485" 
d="M274 306q6 -26 4 -46.5t-9.5 -38t-19 -33.5t-25.5 -33q-22 -28 -39.5 -57.5t-27.5 -61.5q-11 -34 -11 -74t14 -72q13 -27 36.5 -44.5t61.5 -17.5q24 0 44 9.5t34 26t20.5 38.5t3.5 48q-2 20 -12 37.5t-25.5 28.5t-36 13.5t-43.5 -7.5q12 45 43 63t65 16q25 -2 45.5 -12.5
t35 -27.5t22 -39t5.5 -47q-3 -39 -21.5 -70t-47 -53t-64 -33.5t-70.5 -11.5q-48 0 -90.5 10t-72.5 36q-32 27 -46.5 64t-14.5 78q0 43 14.5 76t38.5 60q20 23 44 43.5t50 40.5q20 15 33 36t5 55h57zM171 441q0 27 21.5 46.5t53.5 19.5q31 0 53 -19.5t22 -46.5
q0 -28 -22 -46.5t-53 -18.5q-32 0 -53.5 18.5t-21.5 46.5z" />
    <glyph glyph-name="Agrave" unicode="&#xc0;" horiz-adv-x="534" 
d="M280 700l184 -603q5 -15 11 -30.5t13.5 -29t17 -24t20.5 -13.5h-182q13 11 17 24.5t3 28.5t-6 31l-10 32q-2 8 -4.5 16t-4.5 16h-137q-38 0 -64.5 -15t-34.5 -44v1q-2 -5 -3 -9.5t-3 -9.5q-7 -24 -6 -42t17 -29h-100q24 14 40 42t24 54l187 604h21zM311 741l-132 152h109
l66 -152h-43zM231 507q-21 -70 -36.5 -122.5t-28.5 -93.5t-23.5 -73.5t-19.5 -62.5q14 18 35 24.5t41 6.5h128q-21 70 -46 153.5t-50 167.5z" />
    <glyph glyph-name="Aacute" unicode="&#xc1;" horiz-adv-x="534" 
d="M280 700l184 -603q5 -15 11 -30.5t13.5 -29t17 -24t20.5 -13.5h-182q13 11 17 24.5t3 28.5t-6 31l-10 32q-2 8 -4.5 16t-4.5 16h-137q-38 0 -64.5 -15t-34.5 -44v1q-2 -5 -3 -9.5t-3 -9.5q-7 -24 -6 -42t17 -29h-100q24 14 40 42t24 54l187 604h21zM180 741l66 152h108
l-131 -152h-43zM231 507q-21 -70 -36.5 -122.5t-28.5 -93.5t-23.5 -73.5t-19.5 -62.5q14 18 35 24.5t41 6.5h128q-21 70 -46 153.5t-50 167.5z" />
    <glyph glyph-name="Acircumflex" unicode="&#xc2;" horiz-adv-x="535" 
d="M280 700l184 -603q5 -15 11 -30.5t13.5 -29t17 -24t20.5 -13.5h-182q13 11 17 24.5t3 28.5t-6 31l-10 32q-2 8 -4.5 16t-4.5 16h-137q-38 0 -64.5 -15t-34.5 -44v1q-2 -5 -3 -9.5t-3 -9.5q-7 -24 -6 -42t17 -29h-100q24 14 40 42t24 54l187 604h21zM360 741l-93 102
l-93 -102h-46l77 152h124l77 -152h-46zM231 507q-21 -70 -36.5 -122.5t-28.5 -93.5t-23.5 -73.5t-19.5 -62.5q14 18 35 24.5t41 6.5h128q-21 70 -46 153.5t-50 167.5z" />
    <glyph glyph-name="Atilde" unicode="&#xc3;" horiz-adv-x="535" 
d="M280 700l184 -603q5 -15 11 -30.5t13.5 -29t17 -24t20.5 -13.5h-182q13 11 17 24.5t3 28.5t-6 31l-10 32q-2 8 -4.5 16t-4.5 16h-137q-38 0 -64.5 -15t-34.5 -44v1q-2 -5 -3 -9.5t-3 -9.5q-7 -24 -6 -42t17 -29h-100q24 14 40 42t24 54l187 604h21zM88 817q28 46 65.5 66
t92.5 3q4 -1 7.5 -2t8.5 -3q24 -9 48 -18.5t47 -13t43.5 3t38.5 29.5l7 -19q-29 -47 -66.5 -67t-92.5 -3q-4 2 -7.5 2.5t-8.5 2.5q-24 9 -48 18.5t-47 12.5t-43.5 -3t-38.5 -29zM231 507q-21 -70 -36.5 -122.5t-28.5 -93.5t-23.5 -73.5t-19.5 -62.5q14 18 35 24.5t41 6.5
h128q-21 70 -46 153.5t-50 167.5z" />
    <glyph glyph-name="Adieresis" unicode="&#xc4;" horiz-adv-x="535" 
d="M280 700l184 -603q5 -15 11 -30.5t13.5 -29t17 -24t20.5 -13.5h-182q13 11 17 24.5t3 28.5t-6 31l-10 32q-2 8 -4.5 16t-4.5 16h-137q-38 0 -64.5 -15t-34.5 -44v1q-2 -5 -3 -9.5t-3 -9.5q-7 -24 -6 -42t17 -29h-100q24 14 40 42t24 54l187 604h21zM246 828
q0 -27 -21.5 -46.5t-53.5 -19.5q-31 0 -53 19.5t-22 46.5q0 28 22 46.5t53 18.5q32 0 53.5 -18.5t21.5 -46.5zM438 828q0 -27 -22 -46.5t-54 -19.5q-31 0 -53 19.5t-22 46.5q0 28 22 46.5t53 18.5q32 0 54 -18.5t22 -46.5zM231 507q-21 -70 -36.5 -122.5t-28.5 -93.5
t-23.5 -73.5t-19.5 -62.5q14 18 35 24.5t41 6.5h128q-21 70 -46 153.5t-50 167.5z" />
    <glyph glyph-name="Aring" unicode="&#xc5;" horiz-adv-x="535" 
d="M464 97q5 -15 11 -30.5t13.5 -29t16.5 -24t20 -13.5h-181q13 11 17 24.5t3 28.5t-6 31l-10 32l-9 32h-137q-38 0 -64.5 -15t-34.5 -44v1l-6 -19q-7 -24 -6 -42t17 -29h-100q24 14 40 42t24 54l187 604h21zM353 807q0 -36 -25 -61.5t-61 -25.5t-61.5 25.5t-25.5 61.5
q0 18 7 33.5t18.5 27t27.5 18.5t34 7t33.5 -7t27.5 -18.5t18.5 -27t6.5 -33.5zM267 758q20 0 34 14.5t14 34.5t-14 34t-34 14t-34.5 -14t-14.5 -34t14.5 -34.5t34.5 -14.5zM327 186q-21 70 -46 153.5t-50 167.5q-21 -70 -36.5 -122.5t-28.5 -93.5t-23.5 -73.5t-19.5 -62.5
q14 18 35 24.5t41 6.5h128z" />
    <glyph glyph-name="AE" unicode="&#xc6;" horiz-adv-x="820" 
d="M489 426v-404h42q20 0 40.5 2t40.5 7q26 5 50.5 18.5t43.5 33.5q27 30 33 67q30 -17 38 -44t-1 -52q-8 -23 -27.5 -38.5t-47.5 -15.5h-345q15 23 21 52t6 55v40h-134q-38 0 -71 -14.5t-49 -43.5v1q-3 -5 -5.5 -9.5t-4.5 -9.5q-14 -24 -21 -42t7 -29h-100q28 14 47 42
t34 54l281 503q15 26 10 51q-3 24 -21 50h394l21 -144q-8 33 -25 56t-38 38t-43.5 21.5t-42.5 6.5h-133v-217q5 10 14 14t19 5q20 2 39 -4t37 -12q12 -3 27.5 -6.5t31 -2t29.5 8.5t23 25q14 -26 10.5 -51.5t-21.5 -39.5q-13 -10 -27.5 -12.5t-25.5 -1.5q-15 1 -27 4.5
t-24 10.5q-8 4 -16 9.5t-17 11.5q-10 8 -23 16t-23.5 11.5t-18 -0.5t-7.5 -21v0zM383 542q-79 -141 -132.5 -237.5t-88.5 -156.5q19 17 46.5 27.5t47.5 10.5h127v356z" />
    <glyph glyph-name="Ccedilla" unicode="&#xc7;" horiz-adv-x="629" 
d="M264 664q-39 -11 -67 -45t-42.5 -83.5t-14 -110.5t17.5 -126q18 -65 48 -118t67 -88.5t78.5 -50.5t80.5 -5q48 13 79.5 57.5t42.5 109.5v-122q-36 -35 -89.5 -58t-112.5 -24l-20 -26q17 -5 31.5 -11.5t22.5 -16.5q17 -20 17 -47q0 -38 -32 -65q-29 -28 -80 -28
q-10 0 -28.5 2.5t-33.5 4.5l7 18q29 -4 51 9t27 34q5 20 -8.5 36t-38.5 13l56 78q-59 6 -110.5 35t-89.5 76t-60 108t-22 130q0 72 24 136t65.5 111.5t97.5 75t120 27.5q28 0 59 -6t60 -18q34 -12 64 -35q17 -13 31 -29.5t22 -36.5q9 -25 6 -47.5t-16 -41.5q-18 -26 -50 -41
q-22 61 -63 119q-13 17 -27 32.5t-30 27.5q-36 30 -76 40q-33 7 -64 0z" />
    <glyph glyph-name="Egrave" unicode="&#xc8;" horiz-adv-x="516" 
d="M185 426v-404h43q20 0 40.5 2t40.5 7q26 5 50.5 18.5t42.5 33.5q27 30 34 67q30 -17 38 -44t-1 -52q-8 -23 -27.5 -38.5t-47.5 -15.5h-346q16 23 21.5 52t5.5 55v486q0 26 -5.5 55t-21.5 52h395l20 -144q-8 33 -24.5 56t-37.5 38t-43.5 21.5t-42.5 6.5h-134v-217
q11 17 34 19q20 2 38.5 -4t37.5 -12q11 -3 26.5 -6.5t31.5 -2t30 8.5t23 25q14 -26 10.5 -51.5t-22.5 -39.5q-12 -10 -26.5 -12.5t-25.5 -1.5q-28 1 -52 15q-8 4 -16 9.5t-17 11.5q-10 8 -22.5 16t-23.5 11.5t-18.5 -0.5t-7.5 -21v0zM309 741l-131 152h108l66 -152h-43z" />
    <glyph glyph-name="Eacute" unicode="&#xc9;" horiz-adv-x="516" 
d="M185 426v-404h42q20 0 41 2t41 7q26 5 50.5 18.5t42.5 33.5q27 30 34 67q29 -17 37.5 -44t-0.5 -52q-8 -23 -27.5 -38.5t-48.5 -15.5h-345q15 23 21 52t6 55v486q0 26 -6 55t-21 52h394l21 -144q-8 33 -24.5 56t-37.5 38t-43.5 21.5t-42.5 6.5h-134v-217q11 17 34 19
q20 2 38.5 -4t37.5 -12q11 -3 26.5 -6.5t31.5 -2t30 8.5t23 25q13 -26 10 -51.5t-22 -39.5q-12 -10 -26.5 -12.5t-25.5 -1.5q-28 1 -52 15q-8 4 -16 9.5t-16 11.5q-10 8 -23 16t-24 11.5t-18.5 -0.5t-7.5 -21v0zM177 741l67 152h108l-131 -152h-44z" />
    <glyph glyph-name="Ecircumflex" unicode="&#xca;" horiz-adv-x="516" 
d="M185 22h43q20 0 40.5 2t40.5 7q26 5 50.5 18.5t42.5 33.5q27 30 34 67q30 -17 38 -44t-1 -52q-8 -23 -27.5 -38.5t-47.5 -15.5h-346q16 23 21.5 52t5.5 55v486q0 26 -5.5 55t-21.5 52h395l20 -144q-8 33 -24.5 56t-37.5 38t-43.5 21.5t-42.5 6.5h-134v-217q11 17 34 19
q20 2 38.5 -4t37.5 -12q11 -3 26.5 -6.5t31.5 -2t30 8.5t23 25q14 -26 10.5 -51.5t-22.5 -39.5q-12 -10 -26.5 -12.5t-25.5 -1.5q-28 1 -52 15q-8 4 -16 9.5t-16 11.5q-10 8 -23 16t-24 11.5t-18.5 -0.5t-7.5 -21v-404zM358 741l-93 102l-93 -102h-46l77 152h124l77 -152
h-46z" />
    <glyph glyph-name="Edieresis" unicode="&#xcb;" horiz-adv-x="516" 
d="M185 426v-404h43q20 0 40.5 2t40.5 7q26 5 50.5 18.5t42.5 33.5q27 30 34 67q30 -17 38 -44t-1 -52q-8 -23 -27.5 -38.5t-47.5 -15.5h-346q16 23 21.5 52t5.5 55v486q0 26 -5.5 55t-21.5 52h395l20 -144q-8 33 -24.5 56t-37.5 38t-43.5 21.5t-42.5 6.5h-134v-217
q11 17 34 19q20 2 38.5 -4t37.5 -12q11 -3 26.5 -6.5t31.5 -2t30 8.5t23 25q14 -26 10.5 -51.5t-22.5 -39.5q-12 -10 -26.5 -12.5t-25.5 -1.5q-28 1 -52 15q-8 4 -16 9.5t-16 11.5q-10 8 -23 16t-24 11.5t-18.5 -0.5t-7.5 -21v0zM244 828q0 -27 -21.5 -46.5t-52.5 -19.5
q-32 0 -54 19.5t-22 46.5q0 28 22 46.5t54 18.5q31 0 52.5 -18.5t21.5 -46.5zM436 828q0 -27 -22 -46.5t-54 -19.5q-31 0 -53 19.5t-22 46.5q0 28 22 46.5t53 18.5q32 0 54 -18.5t22 -46.5z" />
    <glyph glyph-name="Igrave" unicode="&#xcc;" horiz-adv-x="265" 
d="M52 0q16 23 21.5 52t5.5 55v486q0 26 -5.5 55t-21.5 52h160q-6 -9 -16.5 -34t-10.5 -73v-486q0 -48 10.5 -73t16.5 -34h-160zM176 741l-131 152h108l66 -152h-43z" />
    <glyph glyph-name="Iacute" unicode="&#xcd;" horiz-adv-x="265" 
d="M52 0q16 23 21.5 52t5.5 55v486q0 26 -5.5 55t-21.5 52h160q-6 -9 -16.5 -34t-10.5 -73v-486q0 -48 10.5 -73t16.5 -34h-160zM45 741l66 152h108l-130 -152h-44z" />
    <glyph glyph-name="Icircumflex" unicode="&#xce;" horiz-adv-x="265" 
d="M52 0q16 23 21.5 52t5.5 55v486q0 26 -5.5 55t-21.5 52h160q-6 -9 -16.5 -34t-10.5 -73v-486q0 -48 10.5 -73t16.5 -34h-160zM225 741l-93 102l-93 -102h-46l77 152h124l77 -152h-46z" />
    <glyph glyph-name="Idieresis" unicode="&#xcf;" horiz-adv-x="265" 
d="M52 0q15 23 21 52t6 55v486q0 26 -6 55t-21 52h160q-7 -9 -17 -34t-10 -73v-486q0 -48 10 -73t17 -34h-160zM111 828q0 -27 -21.5 -46.5t-53.5 -19.5q-31 0 -53 19.5t-22 46.5q0 28 22 46.5t53 18.5q32 0 53.5 -18.5t21.5 -46.5zM302 828q0 -27 -21.5 -46.5t-53.5 -19.5
q-31 0 -53 19.5t-22 46.5q0 28 22 46.5t53 18.5q32 0 53.5 -18.5t21.5 -46.5z" />
    <glyph glyph-name="Eth" unicode="&#xd0;" horiz-adv-x="648" 
d="M460 167q18 41 26.5 88t8.5 95t-8.5 95t-26.5 88q-28 64 -73 104.5t-116 40.5h-37v-286h101v-83h-101v-287h37q35 0 64 11t52 30t41 46t32 58zM327 700q63 0 110.5 -24.5t82.5 -66.5q42 -50 62.5 -118.5t20.5 -140.5t-20.5 -140.5t-62.5 -118.5q-35 -42 -82.5 -66.5
t-110.5 -24.5h-226q16 23 21.5 52t5.5 55v202h-102v83h102v201q0 26 -5.5 55t-21.5 52h226z" />
    <glyph glyph-name="Ntilde" unicode="&#xd1;" horiz-adv-x="594" 
d="M51 0q16 23 21.5 52t5.5 55v486q0 26 -5.5 55t-21.5 52h69l366 -514v407q0 26 -5.5 55t-20.5 52h85q-7 -9 -17 -34t-10 -73v-504q1 -44 -26 -67t-69 -22q-10 0 -14 2q11 8 15.5 20.5t4.5 26t-4.5 27t-12.5 25.5l-303 425v-419q0 -48 10.5 -73t16.5 -34h-85zM119 817
q28 46 65.5 66t92.5 3q4 -1 7.5 -2t8.5 -3q24 -9 48 -18.5t47 -13t43.5 3t38.5 29.5l7 -19q-29 -47 -66.5 -67t-92.5 -3q-4 2 -7.5 2.5t-7.5 2.5q-24 9 -48.5 18.5t-47.5 12.5t-43.5 -3t-38.5 -29z" />
    <glyph glyph-name="Ograve" unicode="&#xd2;" horiz-adv-x="697" 
d="M392 741l-131 152h108l66 -152h-43zM348 700q64 0 120 -27.5t97.5 -75t65.5 -111.5t24 -136t-24 -136t-65.5 -111.5t-97.5 -75t-120 -27.5t-120 27.5t-97.5 75t-65.5 111.5t-24 136t24 136t65.5 111.5t97.5 75t120 27.5zM538 401q-18 65 -48 118t-67 88.5t-78.5 51
t-80.5 5.5q-39 -11 -67 -45t-42.5 -83.5t-14 -110.5t18.5 -126q17 -65 47 -118t67 -88.5t78.5 -50.5t80.5 -5q39 11 67 44.5t42.5 83t14 110.5t-17.5 126z" />
    <glyph glyph-name="Oacute" unicode="&#xd3;" horiz-adv-x="696" 
d="M41 350q0 72 24 136t65.5 111.5t97.5 75t120 27.5q63 0 119 -27.5t98 -75t66 -111.5t24 -136t-24 -136t-66 -111.5t-98 -75t-119 -27.5q-64 0 -120 27.5t-97.5 75t-65.5 111.5t-24 136zM435 893l-131 -152h-43l66 152h108zM264 664q-39 -11 -67 -45t-42.5 -83.5
t-14 -110.5t17.5 -126q18 -65 48 -118t67 -88.5t78.5 -50.5t80.5 -5q39 11 67 44.5t42.5 83t14 110.5t-18.5 126q-17 65 -47 118t-67 88.5t-78.5 51t-80.5 5.5z" />
    <glyph glyph-name="Ocircumflex" unicode="&#xd4;" horiz-adv-x="697" 
d="M538 401q-18 65 -48 118t-67 88.5t-78.5 51t-80.5 5.5q-39 -11 -67 -45t-42.5 -83.5t-14 -110.5t18.5 -126q17 -65 47 -118t67 -88.5t78.5 -50.5t80.5 -5q39 11 67 44.5t42.5 83t14 110.5t-17.5 126zM255 741h-46l77 152h124l77 -152h-46l-93 102zM41 350q0 72 24 136
t65.5 111.5t97.5 75t120 27.5t120 -27.5t97.5 -75t65.5 -111.5t24 -136t-24 -136t-65.5 -111.5t-97.5 -75t-120 -27.5t-120 27.5t-97.5 75t-65.5 111.5t-24 136z" />
    <glyph glyph-name="Otilde" unicode="&#xd5;" horiz-adv-x="697" 
d="M348 700q64 0 120 -27.5t97.5 -75t65.5 -111.5t24 -136t-24 -136t-65.5 -111.5t-97.5 -75t-120 -27.5t-120 27.5t-97.5 75t-65.5 111.5t-24 136t24 136t65.5 111.5t97.5 75t120 27.5zM169 817q28 46 65.5 66t92.5 3l8 -2t9 -3q24 -9 47.5 -18.5t46.5 -13t43.5 3
t38.5 29.5l7 -19q-29 -47 -66.5 -67t-91.5 -3q-5 2 -8.5 2.5t-7.5 2.5q-24 9 -48.5 18.5t-47.5 12.5t-43.5 -3t-38.5 -29zM538 401q-18 65 -48 118t-67 88.5t-78.5 51t-80.5 5.5q-39 -11 -67 -45t-42.5 -83.5t-14 -110.5t18.5 -126q17 -65 47 -118t67 -88.5t78.5 -50.5
t80.5 -5q39 11 67 44.5t42.5 83t14 110.5t-17.5 126z" />
    <glyph glyph-name="Odieresis" unicode="&#xd6;" horiz-adv-x="697" 
d="M348 700q64 0 120 -27.5t97.5 -75t65.5 -111.5t24 -136t-24 -136t-65.5 -111.5t-97.5 -75t-120 -27.5t-120 27.5t-97.5 75t-65.5 111.5t-24 136t24 136t65.5 111.5t97.5 75t120 27.5zM253 762q-32 0 -54 19.5t-22 46.5q0 28 22 46.5t54 18.5q31 0 53 -18.5t22 -46.5
q0 -27 -22 -46.5t-53 -19.5zM443 762q-31 0 -52.5 19.5t-21.5 46.5q0 28 21.5 46.5t52.5 18.5q32 0 54 -18.5t22 -46.5q0 -27 -22 -46.5t-54 -19.5zM538 401q-18 65 -48 118t-67 88.5t-78.5 51t-80.5 5.5q-39 -11 -67 -45t-42.5 -83.5t-14 -110.5t17.5 -126q18 -65 48 -118
t67 -88.5t78.5 -50.5t80.5 -5q39 11 67 44.5t42.5 83t14 110.5t-17.5 126z" />
    <glyph glyph-name="multiply" unicode="&#xd7;" horiz-adv-x="507" 
d="M42 497l64 64l147 -147l147 147l64 -64l-146 -147l146 -147l-64 -64l-147 147l-147 -147l-64 64l147 147z" />
    <glyph glyph-name="Oslash" unicode="&#xd8;" horiz-adv-x="707" 
d="M46 350q0 72 24 136t65.5 111.5t97.5 75t120 27.5q53 0 100 -18.5t85 -52.5l56 71h66l-85 -108q40 -48 62.5 -109.5t22.5 -132.5q0 -72 -24 -136t-65.5 -111.5t-97.5 -75t-120 -27.5q-52 0 -99.5 19t-85.5 52l-56 -71h-66l85 108q-40 48 -62.5 110t-22.5 132zM269 664
q-39 -11 -67 -45t-42.5 -83.5t-14 -110.5t17.5 -126q16 -56 39 -100l274 351q-22 32 -47 56.5t-52 39.5t-54.5 20t-53.5 -2zM230 150q44 -64 99 -95.5t108 -17.5q39 11 67 44.5t42.5 83t14 110.5t-17.5 126q-15 54 -38 100z" />
    <glyph glyph-name="Ugrave" unicode="&#xd9;" horiz-adv-x="545" 
d="M179 202q0 -57 33 -92.5t100 -35.5t98 35.5t31 92.5v391q0 26 -5.5 55t-21.5 52h84q-6 -9 -16.5 -34t-10.5 -73v-403q0 -42 -13 -77t-37.5 -60t-61 -39t-83.5 -14q-94 0 -148.5 50.5t-54.5 139.5v403q0 26 -6 55t-21 52h160q-6 -9 -16.5 -34t-10.5 -73v-391zM316 741
l-131 152h108l66 -152h-43z" />
    <glyph glyph-name="Uacute" unicode="&#xda;" horiz-adv-x="545" 
d="M179 202q0 -57 33 -92.5t100 -35.5t98 35.5t31 92.5v391q0 26 -5.5 55t-21.5 52h84q-6 -9 -16.5 -34t-10.5 -73v-403q0 -42 -13 -77t-37.5 -60t-61 -39t-83.5 -14q-94 0 -148.5 50.5t-54.5 139.5v403q0 26 -6 55t-21 52h160q-6 -9 -16.5 -34t-10.5 -73v-391zM185 741
l66 152h108l-131 -152h-43z" />
    <glyph glyph-name="Ucircumflex" unicode="&#xdb;" horiz-adv-x="545" 
d="M179 202q0 -57 33 -92.5t100 -35.5t98 35.5t31 92.5v391q0 26 -5.5 55t-21.5 52h84q-6 -9 -16.5 -34t-10.5 -73v-403q0 -42 -13 -77t-37.5 -60t-61 -39t-83.5 -14q-94 0 -148.5 50.5t-54.5 139.5v403q0 26 -6 55t-21 52h160q-6 -9 -16.5 -34t-10.5 -73v-391zM365 741
l-93 102l-93 -102h-46l77 152h124l77 -152h-46z" />
    <glyph glyph-name="Udieresis" unicode="&#xdc;" horiz-adv-x="545" 
d="M179 202q0 -57 33.5 -92.5t100.5 -35.5t97.5 35.5t30.5 92.5v391q0 26 -5.5 55t-21.5 52h84q-6 -9 -16.5 -34t-10.5 -73v-403q0 -42 -13 -77t-37.5 -60t-61 -39t-83.5 -14q-94 0 -148.5 50.5t-54.5 139.5v403q0 26 -5.5 55t-21.5 52h160q-6 -9 -16.5 -34t-10.5 -73v-391z
M252 828q0 -27 -22 -46.5t-53 -19.5q-32 0 -54 19.5t-22 46.5q0 28 22 46.5t54 18.5q31 0 53 -18.5t22 -46.5zM443 828q0 -27 -22 -46.5t-54 -19.5q-31 0 -53 19.5t-22 46.5q0 28 22 46.5t53 18.5q32 0 54 -18.5t22 -46.5z" />
    <glyph glyph-name="Yacute" unicode="&#xdd;" horiz-adv-x="505" 
d="M315 107q0 -48 10 -73t16 -34h-159q15 23 20.5 52t5.5 55v151l-140 349q-17 42 -33 63.5t-36 29.5h176q-17 -11 -16 -32.5t13 -52.5l123 -316q13 25 29 53.5t31.5 58t28.5 58.5t19 55q8 36 2.5 63.5t-21.5 43.5q-17 17 -44 17t-63 -20q6 18 17.5 34t27.5 28t36 19t41 7
q44 0 67 -28q25 -31 17 -80q-4 -26 -15 -50t-22 -44l-131 -243v-164zM177 741l66 152h109l-131 -152h-44z" />
    <glyph glyph-name="Thorn" unicode="&#xde;" horiz-adv-x="516" 
d="M52 0q15 23 21 52t6 55v486q0 26 -6 55t-21 52h160q-16 -23 -21.5 -52t-5.5 -55v-41h138q34 0 64.5 -13t53 -35.5t35.5 -52.5t13 -64q0 -35 -13.5 -65t-36.5 -53q-17 -17 -34 -26t-34 -14q-20 -5 -41 -8t-44 -7q-16 -3 -30.5 -7.5t-28.5 -12.5t-24 -18.5t-18 -27.5v-41
q0 -26 5.5 -55t21.5 -52h-160zM185 178q7 14 16 25t20 19q14 11 29 18t31 13q19 8 34.5 15.5t27.5 18.5q17 16 29 42q5 12 7.5 26t3.5 32q0 30 -11 56t-31 45.5t-46 31t-56 11.5h-54v-353z" />
    <glyph glyph-name="germandbls" unicode="&#xdf;" horiz-adv-x="556" 
d="M72 107v367q0 24 -0.5 46.5t3 44t13 42t28.5 40.5q22 24 51.5 38t64.5 15v0h89v0q33 -1 62.5 -14.5t51.5 -36t34.5 -52t12.5 -62.5q0 -35 -13.5 -65t-36.5 -53t-53 -35q55 -18 92 -63q20 -26 32 -57t12 -66q0 -42 -16.5 -79t-45.5 -64q-26 -25 -60 -39t-74 -14
q-54 0 -81 24t-32 52.5t9 52.5t41 24q-16 -16 -18 -34.5t7 -34t25.5 -25t37.5 -9.5q22 1 38.5 12.5t28.5 29.5q16 23 23.5 52t7.5 52q0 31 -10 62t-29 55q-18 23 -44.5 36t-60.5 8q-18 -2 -35 -10.5t-30 -22.5q-11 -11 -19 -28v-189q0 -38 -13 -59.5t-33 -32t-43.5 -13
t-43.5 -2.5q15 23 21 52t6 55v0zM376 535q0 24 -5 48t-16.5 43.5t-30.5 32t-47 12.5q-32 0 -51 -13.5t-30 -34.5q-17 -32 -17.5 -69t-0.5 -72v-156q7 14 16 25t20 20q14 11 29.5 17.5t30.5 12.5q19 8 34.5 15.5t27.5 18.5q17 16 29 41q5 12 7.5 26.5t3.5 32.5z" />
    <glyph glyph-name="agrave" unicode="&#xe0;" horiz-adv-x="499" 
d="M425 311v-151q0 -24 0.5 -46.5t4 -43t12.5 -38.5t27 -32q-32 7 -56 14t-41.5 9t-30 -2.5t-22.5 -20.5v102q-9 -34 -40 -62q-20 -17 -47 -28.5t-56 -11.5q-31 0 -56 10t-43 27.5t-28 40t-12 46.5q-1 26 6 50t21 44.5t34 35.5t44 24q17 6 34.5 10.5t37.5 9.5q17 5 33 12.5
t30 18.5q18 14 30 34t12 46q0 37 -22.5 59t-54.5 22q-15 0 -29.5 -6.5t-25 -18t-15 -25.5t-0.5 -29q6 -21 23.5 -34t36.5 -8q-6 -23 -21 -35.5t-32.5 -16t-35.5 2t-31 18.5q-15 15 -20 34t-1 39q5 25 20.5 43t37 30t46.5 17.5t48 5.5q49 0 83.5 -14t56.5 -39.5t32 -61.5
t10 -81zM297 548l-131 152h108l66 -152h-43zM287 95q14 12 23 28.5t9 36.5v185q-4 -12 -14 -22.5t-23 -20.5q-15 -11 -32 -19.5t-31 -14.5q-32 -15 -54 -37q-15 -15 -23 -37q-5 -14 -7 -29t0 -29q5 -32 28 -51q23 -22 58 -17q18 2 35 9t31 18z" />
    <glyph glyph-name="aacute" unicode="&#xe1;" horiz-adv-x="499" 
d="M425 311v-151q0 -24 0.5 -46.5t4 -43t12.5 -38.5t27 -32q-32 7 -56 14t-41.5 9t-30 -2.5t-22.5 -20.5v102q-9 -33 -41 -62q-20 -17 -46.5 -28.5t-55.5 -11.5q-32 0 -57 10t-42.5 27.5t-27.5 40t-12 46.5q-1 26 6 50t21 44.5t34 35.5t44 24q17 6 34.5 10.5t37.5 9.5
q17 5 33 12.5t30 18.5q18 14 30 34t12 46q0 37 -22.5 59t-54.5 22q-15 0 -29.5 -6.5t-25 -18t-15 -25.5t-0.5 -29q6 -21 23.5 -34t36.5 -8q-6 -23 -21 -35.5t-32.5 -16t-35.5 2t-31 18.5q-15 15 -20 34t-1 39q5 25 20.5 43t37 30t46 17.5t47.5 5.5q66 0 106 -24.5t58.5 -68
t18.5 -103.5zM166 548l66 152h108l-131 -152h-43zM287 95q14 12 23 28.5t9 36.5v185q-4 -12 -14.5 -22.5t-22.5 -20.5q-15 -11 -32 -19.5t-31 -14.5q-16 -8 -29.5 -17t-24.5 -20q-15 -15 -23 -37q-5 -14 -7 -29t0 -29q5 -32 27 -51q25 -22 59 -17q18 2 35 9t31 18z" />
    <glyph glyph-name="acircumflex" unicode="&#xe2;" horiz-adv-x="499" 
d="M425 311v-151q0 -24 0.5 -46.5t4 -43t12.5 -38.5t27 -32q-32 7 -56 14t-41.5 9t-30 -2.5t-22.5 -20.5v102q-9 -34 -40 -62q-20 -17 -47 -28.5t-56 -11.5q-31 0 -56 10t-43 27.5t-28 40t-12 46.5q-1 26 6 50t21 44.5t34 35.5t44 24q17 6 34.5 10.5t37.5 9.5q17 5 33 12.5
t30 18.5q18 14 30 34t12 46q0 37 -22.5 59t-54.5 22q-15 0 -29.5 -6.5t-25 -18t-15 -25.5t-0.5 -29q6 -21 23.5 -34t36.5 -8q-6 -23 -21 -35.5t-32.5 -16t-35.5 2t-31 18.5q-15 15 -20 34t-1 39q5 25 20.5 43t37 30t46.5 17.5t48 5.5q49 0 83.5 -14t56.5 -39.5t32 -61.5
t10 -81zM346 548l-93 101l-93 -101h-46l77 152h124l77 -152h-46zM287 95q14 12 23 28.5t9 36.5v185q-4 -12 -14 -22.5t-23 -20.5q-15 -11 -32 -19.5t-31 -14.5q-32 -15 -54 -37q-15 -15 -23 -37q-5 -14 -7 -29t0 -29q5 -32 28 -51q11 -11 26.5 -15t31.5 -2q18 2 35 9t31 18z
" />
    <glyph glyph-name="atilde" unicode="&#xe3;" horiz-adv-x="499" 
d="M425 311v-151q0 -24 0.5 -46.5t4 -43t12.5 -38.5t27 -32q-32 7 -56 14t-41.5 9t-30 -2.5t-22.5 -20.5v102q-9 -35 -41 -62q-20 -17 -46.5 -28.5t-55.5 -11.5q-32 0 -57 10t-42.5 27.5t-27.5 40t-12 46.5q-1 26 6 50t21 44.5t34 35.5t44 24q17 6 34.5 10.5t37.5 9.5
q17 5 33 12.5t30 18.5q18 14 30 34t12 46q0 37 -22.5 59t-54.5 22q-15 0 -29.5 -6.5t-25 -18t-15 -25.5t-0.5 -29q6 -21 23.5 -34t36.5 -8q-6 -23 -21 -35.5t-32.5 -16t-35.5 2t-31 18.5q-15 15 -20 34t-1 39q5 25 20.5 43t37 30t46.5 17.5t48 5.5q49 0 83.5 -14t56.5 -39.5
t32 -61.5t10 -81zM74 623q28 47 65.5 67t92.5 3q5 -1 8.5 -2t8.5 -3q24 -9 47.5 -18.5t46.5 -13t43.5 3t38.5 29.5l7 -20q-29 -46 -66 -66t-92 -3q-5 2 -8.5 2.5t-7.5 2.5q-24 9 -48.5 18.5t-47.5 12.5t-43.5 -3t-38.5 -29zM287 95q14 12 23 28.5t9 36.5v185
q-4 -12 -14.5 -22.5t-22.5 -20.5q-15 -11 -32 -19.5t-31 -14.5q-32 -15 -54 -37q-15 -15 -23 -37q-5 -14 -7 -29t0 -29q5 -32 27 -51q25 -22 59 -17q18 2 35 9t31 18z" />
    <glyph glyph-name="adieresis" unicode="&#xe4;" horiz-adv-x="499" 
d="M425 311v-151q0 -24 0.5 -46.5t4 -43t12.5 -38.5t27 -32q-32 7 -56 14t-41.5 9t-30 -2.5t-22.5 -20.5v102q-9 -34 -40 -62q-20 -17 -47 -28.5t-56 -11.5q-32 0 -57 10t-42.5 27.5t-27.5 40t-12 46.5q-1 26 6 50t21 44.5t34 35.5t44 24q17 6 34.5 10.5t37.5 9.5
q17 5 33 12.5t30 18.5q18 14 30 34t12 46q0 37 -22.5 59t-54.5 22q-15 0 -29.5 -6.5t-25 -18t-15 -25.5t-0.5 -29q6 -21 23.5 -34t36.5 -8q-6 -23 -21 -35.5t-32.5 -16t-35.5 2t-31 18.5q-15 15 -20 34t-1 39q5 25 20.5 43t37 30t46.5 17.5t48 5.5q49 0 83.5 -14t56.5 -39.5
t32 -61.5t10 -81zM233 634q0 -26 -22 -45.5t-53 -19.5q-32 0 -53.5 19.5t-21.5 45.5q0 29 21.5 47.5t53.5 18.5q31 0 53 -18.5t22 -47.5zM424 634q0 -26 -22 -45.5t-53 -19.5q-32 0 -53.5 19.5t-21.5 45.5q0 29 21.5 47.5t53.5 18.5q31 0 53 -18.5t22 -47.5zM287 95
q14 12 23 28.5t9 36.5v185q-4 -12 -14.5 -22.5t-22.5 -20.5q-15 -11 -32 -19.5t-31 -14.5q-32 -15 -54 -37q-15 -15 -23 -37q-5 -14 -7 -29t0 -29q5 -32 27 -51q25 -22 59 -17q18 2 35 9t31 18z" />
    <glyph glyph-name="aring" unicode="&#xe5;" horiz-adv-x="499" 
d="M425 311v-151q0 -24 0.5 -46.5t4 -43t12.5 -38.5t27 -32q-32 7 -56 14t-41.5 9t-30 -2.5t-22.5 -20.5v102q-9 -33 -41 -62q-20 -17 -46.5 -28.5t-56.5 -11.5q-31 0 -56 10t-42.5 27.5t-27.5 40t-12 46.5q-1 26 6 50t21 44.5t34 35.5t44 24q17 6 34.5 10.5t37.5 9.5
q17 5 33 12.5t30 18.5q18 14 30 34t12 46q0 37 -22.5 59t-54.5 22q-15 0 -29.5 -6.5t-25 -18t-15 -25.5t-0.5 -29q6 -21 23.5 -34t36.5 -8q-6 -23 -21 -35.5t-32.5 -16t-35.5 2t-31 18.5q-15 15 -20 34t-1 39q5 25 20.5 43t37 30t46 17.5t47.5 5.5q66 0 106 -24.5t58.5 -68
t18.5 -103.5zM253 662q-20 0 -34 -14.5t-14 -34.5t14 -34t34 -14t34.5 14t14.5 34t-14.5 34.5t-34.5 14.5zM340 613q0 -18 -7 -33.5t-18.5 -27t-27.5 -18.5t-34 -7t-33.5 7t-27.5 18.5t-18.5 27t-6.5 33.5q0 36 25 61.5t61 25.5t61.5 -25.5t25.5 -61.5zM287 95
q14 12 23 28.5t9 36.5v185q-4 -12 -14.5 -22.5t-22.5 -20.5q-15 -11 -32 -19.5t-31 -14.5q-16 -8 -29.5 -17t-24.5 -20q-15 -15 -23 -37q-12 -27 -7 -58q5 -32 27 -51q26 -22 59 -17q17 2 34.5 9t31.5 18z" />
    <glyph glyph-name="ae" unicode="&#xe6;" horiz-adv-x="777" 
d="M546 0q-33 0 -63.5 11t-56.5 30.5t-46.5 46.5t-33.5 60q-5 -42 -32 -74t-60 -52q-17 -10 -37 -16t-41 -6q-32 0 -57 10t-42.5 27.5t-27.5 40t-12 46.5q-1 26 6 50t21 44.5t34 35.5t44 24q17 6 34.5 10.5t37.5 9.5q37 10 63 30q18 15 30 35t12 46q0 37 -22.5 59t-54.5 22
q-15 0 -29.5 -6.5t-25 -18t-15 -25.5t-0.5 -29q6 -21 23.5 -34t36.5 -8q-6 -23 -21 -35.5t-32.5 -16t-35.5 2t-31 18.5q-15 15 -20 34t-1 39q5 25 20.5 43t37 30t46.5 17.5t48 5.5q57 0 94 -18t58 -51q17 17 32 28q14 11 30 18.5t33 12.5t36 7.5t39 2.5q45 0 87.5 -14.5
t68.5 -55.5q22 -33 15 -74q-3 -19 -15 -31.5t-29 -19.5t-37.5 -9.5t-41.5 -3.5q-22 -1 -42 -1h-36h-110q1 -43 11 -81q9 -33 24 -62t35 -52q24 -25 55.5 -38.5t64.5 -13.5q32 -1 62 14t48 38l10 -10q-33 -48 -82.5 -70.5t-106.5 -22.5zM319 345q-4 -12 -14 -23t-23 -20
q-15 -11 -32 -20t-31 -14q-32 -15 -54 -37q-15 -15 -23 -37q-11 -29 -7 -59q5 -31 28 -50q23 -22 58 -17q20 2 37 7.5t31 16.5t22 28t8 40v185zM426 319h80q14 0 29.5 1t29.5 4q36 7 58 30t19 61q-2 29 -23 50.5t-52 20.5q-45 -1 -77 -25.5t-48 -66.5q-7 -17 -10.5 -36
t-5.5 -39v0z" />
    <glyph glyph-name="ccedilla" unicode="&#xe7;" horiz-adv-x="494" 
d="M264 -27q16 -4 31 -10.5t23 -16.5q16 -19 16 -48q0 -37 -31 -64q-32 -29 -80 -29q-10 0 -29 2.5t-34 4.5l7 19q30 -4 51.5 8.5t26.5 34.5q5 20 -8 36t-38 13l55 77q-44 2 -83 22.5t-68 55t-45.5 80t-16.5 96.5q0 39 10 74.5t27 65.5q27 44 65 72q29 22 63 31q17 5 36 7.5
t39 2.5q23 0 47 -4.5t46 -13.5q18 -8 34 -21t27 -29t16 -35.5t1 -40.5t-15.5 -36t-26.5 -23t-32.5 -9.5t-33.5 4.5q-17 6 -31.5 19.5t-20.5 34.5q22 -4 39.5 6.5t27.5 27.5q11 20 6 45t-34 42q-19 12 -48 12q-45 -1 -77 -25.5t-49 -66.5t-16.5 -89.5t11.5 -87.5
q8 -33 23 -62t36 -52q23 -25 54.5 -38.5t64.5 -13.5q32 -1 62 14t48 38q4 -3 11 -10q-30 -42 -72.5 -64.5t-93.5 -27.5z" />
    <glyph glyph-name="egrave" unicode="&#xe8;" 
d="M451 93q-34 -48 -83 -70.5t-107 -22.5q-45 0 -85 20t-70 54.5t-47.5 81t-17.5 98.5q0 39 10 74.5t27 65.5q27 44 65 72q14 11 30 18.5t33 12.5t36 7.5t39 2.5q45 0 87.5 -14.5t68.5 -55.5q10 -16 14.5 -34.5t0.5 -39.5q-4 -19 -16 -31.5t-29 -19.5t-37 -9.5t-41 -3.5
q-22 -1 -42.5 -1h-35.5h-110q0 -42 11 -81q8 -33 23 -62t36 -52q23 -25 54.5 -38.5t64.5 -13.5q32 -1 62 14t48 38q4 -3 11 -10zM291 548l-131 152h108l67 -152h-44zM142 319h79q15 0 30 1t29 4q37 7 59 30t19 61q-2 29 -23 50.5t-52 20.5q-45 -1 -77 -25.5t-49 -66.5
q-13 -34 -15 -75v0z" />
    <glyph glyph-name="eacute" unicode="&#xe9;" 
d="M451 93q-34 -48 -83 -70.5t-107 -22.5q-45 0 -85 20t-70 54.5t-47.5 81t-17.5 98.5q0 39 10 74.5t27 65.5q13 21 29 39.5t36 32.5q29 22 63 31q17 5 36 7.5t39 2.5q22 0 44.5 -3.5t43 -11.5t38 -21.5t29.5 -33.5q11 -16 15.5 -34.5t-0.5 -39.5q-3 -19 -15 -31.5
t-29 -19.5t-37 -9.5t-41 -3.5q-22 -1 -42.5 -1h-36.5h-109q0 -22 2.5 -42t7.5 -39q9 -33 24 -62t36 -52q23 -25 54.5 -38.5t64.5 -13.5q32 -1 62 14t48 38q2 -2 5 -4.5t6 -5.5zM160 548l66 152h108l-131 -152h-43zM141 319h80q15 0 30 1t29 4q37 7 59 30t19 61
q-2 29 -23 50.5t-52 20.5q-45 -1 -77 -25.5t-49 -66.5q-7 -17 -10.5 -36t-5.5 -39v0z" />
    <glyph glyph-name="ecircumflex" unicode="&#xea;" horiz-adv-x="494" 
d="M452 93q-34 -48 -83 -70.5t-107 -22.5q-45 0 -85 20t-70 54.5t-47.5 81t-17.5 98.5q0 39 10 74.5t27 65.5q26 45 65 72q29 22 63 31q17 5 36 7.5t39 2.5q22 0 44.5 -3.5t43 -11.5t38 -21.5t29.5 -33.5q11 -16 15.5 -34.5t-0.5 -39.5q-3 -19 -15 -31.5t-29 -19.5t-37 -9.5
t-41 -3.5q-22 -1 -42.5 -1h-36.5h-109q0 -22 2.5 -42t7.5 -39q9 -33 24 -62t36 -52q23 -25 54.5 -38.5t64.5 -13.5q32 -1 62 14t48 38q2 -2 5 -4.5t6 -5.5zM341 548l-93 101l-93 -101h-46l77 152h124l77 -152h-46zM222 319q15 0 30 1t29 4q37 7 59 30t19 61q-2 29 -23 50.5
t-52 20.5q-45 -1 -77 -25.5t-49 -66.5q-7 -17 -10.5 -36t-5.5 -39h80z" />
    <glyph glyph-name="edieresis" unicode="&#xeb;" 
d="M451 93q-34 -48 -83 -70.5t-107 -22.5q-45 0 -85 20t-70 54.5t-47.5 81t-17.5 98.5q0 39 10 74.5t27 65.5q27 44 65 72q29 22 63 31q17 5 36 7.5t39 2.5q45 0 87.5 -14.5t68.5 -55.5q10 -16 14.5 -34.5t0.5 -39.5q-4 -19 -16 -31.5t-29 -19.5t-37 -9.5t-41 -3.5
q-22 -1 -42.5 -1h-36.5h-109q0 -42 11 -81q8 -33 23 -62t36 -52q23 -25 54.5 -38.5t64.5 -13.5q32 -1 62 14t48 38q4 -3 11 -10zM227 634q0 -26 -22 -45.5t-53 -19.5q-32 0 -54 19.5t-22 45.5q0 29 22 47.5t54 18.5q31 0 53 -18.5t22 -47.5zM418 634q0 -26 -22 -45.5
t-53 -19.5q-32 0 -53.5 19.5t-21.5 45.5q0 29 21.5 47.5t53.5 18.5q31 0 53 -18.5t22 -47.5zM141 319h80q15 0 30 1t29 4q37 7 59 30t19 61q-2 29 -23 50.5t-52 20.5q-45 -1 -77 -25.5t-49 -66.5q-7 -17 -10.5 -36t-5.5 -39v0z" />
    <glyph glyph-name="igrave" unicode="&#xec;" horiz-adv-x="250" 
d="M179 507v-400q0 -48 10.5 -72.5t16.5 -34.5h-160q16 23 21.5 52t5.5 55v262q0 18 -2 33.5t-4 26.5q-5 19 -11 30t-10 17q12 0 31.5 2t39.5 5.5t37.5 9.5t24.5 14zM170 548l-131 152h108l66 -152h-43z" />
    <glyph glyph-name="iacute" unicode="&#xed;" horiz-adv-x="251" 
d="M179 507v-400q0 -48 10.5 -72.5t16.5 -34.5h-160q16 23 21.5 52t5.5 55v262q0 18 -2 33.5t-4 26.5q-5 19 -11 30t-10 17q12 0 31.5 2t39.5 5.5t37.5 9.5t24.5 14zM39 548l66 152h108l-130 -152h-44z" />
    <glyph glyph-name="icircumflex" unicode="&#xee;" horiz-adv-x="250" 
d="M179 507v-400q0 -48 10.5 -72.5t16.5 -34.5h-160q16 23 21.5 52t5.5 55v262q0 18 -2 33.5t-4 26.5q-5 19 -11 30t-10 17q12 0 31.5 2t39.5 5.5t37.5 9.5t24.5 14zM219 548l-93 101l-93 -101h-46l77 152h124l77 -152h-46z" />
    <glyph glyph-name="idieresis" unicode="&#xef;" horiz-adv-x="251" 
d="M180 507v-400q0 -48 10 -72.5t16 -34.5h-159q15 23 21 52t6 55v262q0 18 -2 33.5t-5 26.5q-4 19 -10 30t-10 17q12 0 31.5 2t39.5 5.5t37.5 9.5t24.5 14zM106 634q0 -26 -21.5 -45.5t-53.5 -19.5q-31 0 -53 19.5t-22 45.5q0 29 22 47.5t53 18.5q32 0 53.5 -18.5
t21.5 -47.5zM297 634q0 -26 -21.5 -45.5t-53.5 -19.5q-31 0 -53 19.5t-22 45.5q0 29 22 47.5t53 18.5q32 0 53.5 -18.5t21.5 -47.5z" />
    <glyph glyph-name="eth" unicode="&#xf0;" horiz-adv-x="530" 
d="M483 254q0 -52 -17.5 -98.5t-47.5 -81t-70 -54.5t-86 -20q-45 0 -85 20t-70 54.5t-47.5 81t-17.5 98.5q0 53 17.5 99t47.5 80t70 54t85 20q23 0 46 -5q-7 20 -16 39t-19 36l-161 -60l-26 68l143 53q-37 40 -65 54l3 8q62 -7 117 -41l110 41l25 -68l-68 -26
q60 -60 96 -149t36 -195v-8zM154 224q12 -46 31.5 -83.5t42 -63.5t47 -38t46.5 -6q23 6 38 28.5t22 56.5t4.5 76.5t-14.5 88.5t-31.5 84t-42.5 64t-47 38t-47 6q-22 -6 -37.5 -29t-22 -57t-4 -76.5t14.5 -88.5z" />
    <glyph glyph-name="ntilde" unicode="&#xf1;" horiz-adv-x="507" 
d="M440 338v-231q0 -48 10.5 -72.5t16.5 -34.5h-160q16 23 21.5 52t5.5 55q0 62 -0.5 116t-0.5 116q0 69 -22.5 102.5t-54.5 33.5t-54.5 -33.5t-22.5 -102.5v-232q0 -48 10.5 -72.5t16.5 -34.5h-160q16 23 21.5 52t5.5 55v262q0 18 -2 33.5t-4 26.5q-5 19 -11 30t-10 17
q12 0 31.5 2t39.5 5.5t37.5 9.5t24.5 14v-45q45 45 109 45q30 1 58.5 -8.5t48.5 -29.5q23 -23 34 -56t11 -75zM78 623q28 47 65 67t93 3q4 -1 7.5 -2t8.5 -3q24 -9 48 -18.5t46.5 -13t43.5 3t38 29.5l7 -20q-29 -46 -66 -66t-92 -3q-5 2 -8.5 2.5t-7.5 2.5q-24 9 -48.5 18.5
t-47.5 12.5t-43.5 -3t-38.5 -29z" />
    <glyph glyph-name="ograve" unicode="&#xf2;" horiz-adv-x="525" 
d="M483 254q0 -52 -17.5 -98.5t-47.5 -81t-70 -54.5t-86 -20q-45 0 -85 20t-70 54.5t-47.5 81t-17.5 98.5q0 53 17.5 99t47.5 80t70 54t85 20q46 0 86 -20t70 -54t47.5 -80t17.5 -99zM306 548l-131 152h109l66 -152h-44zM154 224q12 -46 31.5 -83.5t42 -63.5t47.5 -38t47 -6
q23 6 38 28.5t21.5 56.5t4 76.5t-14.5 88.5t-31.5 84t-42.5 64t-47 38t-47 6q-22 -6 -37.5 -29t-22 -57t-4 -76.5t14.5 -88.5z" />
    <glyph glyph-name="oacute" unicode="&#xf3;" horiz-adv-x="525" 
d="M483 254q0 -52 -17.5 -98.5t-47.5 -81t-70 -54.5t-86 -20q-45 0 -85 20t-70 54.5t-47.5 81t-17.5 98.5q0 53 17.5 99t47.5 80t70 54t85 20q46 0 86 -20t70 -54t47.5 -80t17.5 -99zM175 548l66 152h109l-131 -152h-44zM154 224q12 -46 31.5 -83.5t42 -63.5t47.5 -38t47 -6
q23 6 38 28.5t21.5 56.5t4 76.5t-14.5 88.5t-31.5 84t-42.5 64t-47 38t-47 6q-22 -6 -37.5 -29t-22 -57t-4 -76.5t14.5 -88.5z" />
    <glyph glyph-name="ocircumflex" unicode="&#xf4;" horiz-adv-x="525" 
d="M483 254q0 -52 -17.5 -98.5t-47.5 -81t-70 -54.5t-86 -20q-45 0 -85 20t-70 54.5t-47.5 81t-17.5 98.5q0 53 17.5 99t47.5 80t70 54t85 20q46 0 86 -20t70 -54t47.5 -80t17.5 -99zM355 548l-93 101l-92 -101h-47l77 152h125l76 -152h-46zM154 224q12 -46 31.5 -83.5
t42 -63.5t47.5 -38t47 -6q23 6 38 28.5t21.5 56.5t4 76.5t-14.5 88.5t-31.5 84t-42.5 64t-47 38t-47 6q-22 -6 -37.5 -29t-22 -57t-4 -76.5t14.5 -88.5z" />
    <glyph glyph-name="otilde" unicode="&#xf5;" horiz-adv-x="525" 
d="M483 254q0 -52 -17.5 -98.5t-47.5 -81t-70 -54.5t-86 -20q-45 0 -85 20t-70 54.5t-47.5 81t-17.5 98.5q0 53 17.5 99t47.5 80t70 54t85 20q46 0 86 -20t70 -54t47.5 -80t17.5 -99zM84 623q27 47 64.5 67t93.5 3q4 -1 7.5 -2t8.5 -3q24 -9 48 -18.5t46.5 -13t43.5 3
t38 29.5l7 -20q-28 -46 -65.5 -66t-92.5 -3q-5 2 -8.5 2.5t-7.5 2.5q-24 9 -48 18.5t-47 12.5t-44 -3t-38 -29zM154 224q12 -46 31.5 -83.5t42 -63.5t47.5 -38t47 -6q23 6 38 28.5t21.5 56.5t4 76.5t-14.5 88.5t-31.5 84t-42.5 64t-47 38t-47 6q-22 -6 -37.5 -29t-22 -57
t-4 -76.5t14.5 -88.5z" />
    <glyph glyph-name="odieresis" unicode="&#xf6;" horiz-adv-x="525" 
d="M483 254q0 -52 -17.5 -98.5t-47.5 -81t-70 -54.5t-86 -20q-45 0 -85 20t-70 54.5t-47.5 81t-17.5 98.5q0 53 17.5 99t47.5 80t70 54t85 20q46 0 86 -20t70 -54t47.5 -80t17.5 -99zM242 634q0 -26 -21.5 -45.5t-53.5 -19.5t-53.5 19.5t-21.5 45.5q0 29 21.5 47.5
t53.5 18.5t53.5 -18.5t21.5 -47.5zM433 634q0 -26 -21.5 -45.5t-53.5 -19.5q-31 0 -53 19.5t-22 45.5q0 29 22 47.5t53 18.5q32 0 53.5 -18.5t21.5 -47.5zM154 224q12 -46 31.5 -83.5t42 -63.5t47.5 -38t47 -6q23 6 38 28.5t21.5 56.5t4 76.5t-14.5 88.5t-31.5 84t-42.5 64
t-47 38t-47 6q-22 -6 -37.5 -29t-22 -57t-4 -76.5t14.5 -88.5z" />
    <glyph glyph-name="divide" unicode="&#xf7;" horiz-adv-x="453" 
d="M27 396h398v-91h-398v91zM301 152q0 -26 -21.5 -45.5t-53.5 -19.5q-31 0 -53 19.5t-22 45.5q0 29 22 47.5t53 18.5q32 0 53.5 -18.5t21.5 -47.5zM301 548q0 -27 -21.5 -46.5t-53.5 -19.5q-31 0 -53 19.5t-22 46.5q0 28 22 47t53 19q32 0 53.5 -19t21.5 -47z" />
    <glyph glyph-name="oslash" unicode="&#xf8;" horiz-adv-x="533" 
d="M487 254q0 -52 -17.5 -98.5t-47.5 -81t-70 -54.5t-86 -20q-34 0 -65.5 11.5t-57.5 31.5l-32 -43h-65l59 81q-27 34 -43 78t-16 95q0 53 17.5 99t47.5 80t70 54t85 20q35 0 66 -11.5t57 -31.5l32 43h66l-60 -80q28 -34 44 -78t16 -95zM200 120q28 -47 61.5 -71t63.5 -16
q23 6 38 28.5t22 56.5t4.5 76.5t-14.5 88.5q-4 13 -8 25.5t-9 25.5zM332 387q-27 47 -60.5 71.5t-64.5 16.5q-22 -6 -37.5 -29t-22 -57t-4 -76.5t14.5 -88.5q3 -13 7 -25.5t9 -24.5z" />
    <glyph glyph-name="ugrave" unicode="&#xf9;" horiz-adv-x="508" 
d="M436 138q0 -18 2 -33t4 -27q5 -19 11 -30t10 -17q-12 0 -31.5 -2t-39.5 -5.5t-37 -9.5t-25 -14v46q-45 -46 -109 -46q-30 0 -58.5 9.5t-48.5 28.5q-23 23 -34 56.5t-11 75.5v199q0 18 -2 33.5t-4 26.5q-5 19 -11 30t-10 17q12 0 31.5 2t39.5 5.5t37.5 9.5t24.5 14v-148
v-191q0 -68 23 -102t55 -34t54 33.5t23 102.5v201q0 18 -2 33.5t-4 26.5q-5 19 -11 30t-10 17q12 0 31.5 2t39.5 5.5t37.5 9.5t24.5 14v-369zM296 548l-131 152h109l66 -152h-44z" />
    <glyph glyph-name="uacute" unicode="&#xfa;" horiz-adv-x="508" 
d="M436 138q0 -18 2 -33t4 -27q5 -19 11 -30t10 -17q-12 0 -31.5 -2t-39.5 -5.5t-37 -9.5t-25 -14v46q-45 -46 -110 -46q-29 0 -57.5 9.5t-48.5 28.5q-23 23 -34 56.5t-11 75.5v199q0 18 -2 33.5t-5 26.5q-4 19 -10 30t-10 17q12 0 31.5 2t39.5 5.5t37.5 9.5t24.5 14v-148
v-191q0 -68 23 -102t54 -34q32 0 54.5 33.5t23.5 102.5v201q0 18 -2 33.5t-4 26.5q-5 19 -11 30t-10 17q12 0 31.5 2t39.5 5.5t37.5 9.5t24.5 14v-148v-221zM165 548l66 152h108l-131 -152h-43z" />
    <glyph glyph-name="ucircumflex" unicode="&#xfb;" horiz-adv-x="508" 
d="M436 359v-221q0 -18 2 -33t4 -27q5 -19 11 -30t10 -17q-12 0 -31.5 -2t-39.5 -5.5t-37 -9.5t-25 -14v46q-45 -46 -110 -46q-29 0 -57.5 9.5t-48.5 28.5q-23 23 -34 56.5t-11 75.5v199q0 18 -2 33.5t-5 26.5q-4 19 -10 30t-10 17q12 0 31.5 2t39.5 5.5t37.5 9.5t24.5 14
v-148v-191q0 -68 23 -102t55 -34q31 0 53.5 33.5t23.5 102.5v201q0 18 -2 33.5t-4 26.5q-5 19 -11 30t-10 17q12 0 31.5 2t39.5 5.5t37.5 9.5t24.5 14v-148v0zM345 548l-93 101l-93 -101h-46l77 152h124l77 -152h-46z" />
    <glyph glyph-name="udieresis" unicode="&#xfc;" horiz-adv-x="508" 
d="M436 359v-221q0 -18 2 -33t4 -27q5 -19 11 -30t10 -17q-12 0 -31.5 -2t-39.5 -5.5t-37 -9.5t-25 -14v46q-45 -46 -110 -46q-29 0 -57.5 9.5t-48.5 28.5q-23 23 -34 56.5t-11 75.5v199q0 18 -2 33.5t-5 26.5q-4 19 -10 30t-10 17q12 0 31.5 2t39.5 5.5t37.5 9.5t24.5 14
v-148v-191q0 -68 23 -102t54 -34q32 0 54.5 33.5t23.5 102.5v201q0 18 -2 33.5t-4 26.5q-5 19 -11 30t-10 17q12 0 31.5 2t39.5 5.5t37.5 9.5t24.5 14v-148v0zM232 634q0 -26 -22 -45.5t-53 -19.5q-32 0 -53.5 19.5t-21.5 45.5q0 29 21.5 47.5t53.5 18.5q31 0 53 -18.5
t22 -47.5zM423 634q0 -26 -22 -45.5t-53 -19.5q-32 0 -54 19.5t-22 45.5q0 29 22 47.5t54 18.5q31 0 53 -18.5t22 -47.5z" />
    <glyph glyph-name="yacute" unicode="&#xfd;" horiz-adv-x="468" 
d="M246 0h-57l-117 413q-10 35 -26 60.5t-37 33.5h178q-11 -4 -15.5 -13.5t-4.5 -22t4 -28t8 -30.5l94 -347q6 12 13.5 29.5t16.5 37t18 40.5t17 40q9 23 15 50t7 55q2 20 -1 41.5t-12 40.5q-11 27 -37 42q-19 11 -46 13q11 31 36 47.5t53 17.5q25 0 46.5 -13t30.5 -42
q6 -23 4.5 -46.5t-8.5 -47.5q-8 -30 -20.5 -59t-23.5 -55l-110 -257l-20 -47q-10 -23 -22 -49t-29 -47.5t-40 -35.5t-55 -14q-30 0 -52.5 16t-33 40t-6 51.5t30.5 50.5q9 -40 33 -59.5t53 -19.5q29 1 55.5 19t41.5 53zM198 548l66 152h108l-131 -152h-43z" />
    <glyph glyph-name="thorn" unicode="&#xfe;" horiz-adv-x="560" 
d="M173 463q26 21 57.5 32.5t66.5 11.5q46 0 86 -20t70 -54.5t47 -80.5t17 -99q0 -52 -17 -98.5t-47 -80.5t-70 -54t-86 -20q-35 0 -66.5 11.5t-57.5 31.5v-98q0 -18 2 -33.5t4 -26.5q5 -19 11 -30t10 -18q-12 0 -31.5 -1.5t-39.5 -5.5t-37 -9.5t-25 -13.5v721v22
q0 23 -0.5 44t-4.5 40t-13 36t-26 30h1q32 -7 55.5 -13.5t41 -9t30 2t22.5 20.5v-237zM173 328q0 -50 15 -104q12 -46 31.5 -84t42.5 -64t47.5 -38t46.5 -6q23 6 38 28.5t21.5 56.5t4.5 76.5t-14 88.5t-31.5 84t-42.5 64t-47 38t-47 6q-31 -8 -47.5 -45t-17.5 -91v-10z" />
    <glyph glyph-name="ydieresis" unicode="&#xff;" horiz-adv-x="468" 
d="M246 0h-56l-118 413q-10 35 -25.5 60.5t-37.5 33.5h178q-11 -4 -15.5 -13.5t-4 -22t4 -28t7.5 -30.5l95 -347q5 12 13 29.5t17 37t18 40.5t16 40q9 23 15 50t8 55q1 20 -2 41.5t-11 40.5q-12 27 -37 42q-20 12 -47 13q11 31 36.5 47.5t52.5 17.5q25 0 46.5 -13t30.5 -42
q6 -23 4.5 -46.5t-7.5 -47.5q-8 -30 -20.5 -59t-23.5 -55l-111 -257l-20 -47q-10 -23 -22 -49t-28.5 -47.5t-39.5 -35.5t-55 -14q-30 0 -53 16t-33.5 40t-6 51.5t30.5 50.5q9 -40 33.5 -59.5t53.5 -19.5q28 1 54.5 19t41.5 53zM229 634q0 -26 -21.5 -45.5t-53.5 -19.5
q-31 0 -53 19.5t-22 45.5q0 29 22 47.5t53 18.5q32 0 53.5 -18.5t21.5 -47.5zM420 634q0 -26 -21.5 -45.5t-53.5 -19.5q-31 0 -53 19.5t-22 45.5q0 29 22 47.5t53 18.5q32 0 53.5 -18.5t21.5 -47.5z" />
    <glyph glyph-name="Amacron" unicode="&#x100;" horiz-adv-x="534" 
d="M280 700l184 -603q5 -15 11 -30.5t13.5 -29t17 -24t20.5 -13.5h-182q13 11 17 24.5t3 28.5t-6 31l-10 32q-2 8 -4.5 16t-4.5 16h-137q-38 0 -64.5 -15t-34.5 -44v1q-2 -5 -3 -9.5t-3 -9.5q-7 -24 -6 -42t17 -29h-100q24 14 40 42t24 54l187 604h21zM95 776v83h343v-83
h-343zM231 507q-21 -70 -36.5 -122.5t-28.5 -93.5t-23.5 -73.5t-19.5 -62.5q14 18 35 24.5t41 6.5h128q-21 70 -46 153.5t-50 167.5z" />
    <glyph glyph-name="amacron" unicode="&#x101;" horiz-adv-x="499" 
d="M425 311v-151q0 -24 0.5 -46.5t4 -43t12.5 -38.5t27 -32q-32 7 -56 14t-41.5 9t-30 -2.5t-22.5 -20.5v102q-9 -34 -40 -62q-20 -17 -47 -28.5t-56 -11.5q-32 0 -57 10t-42.5 27.5t-27.5 40t-12 46.5q-1 26 6 50t21 44.5t34 35.5t44 24q17 6 34.5 10.5t37.5 9.5
q17 5 33 12.5t30 18.5q18 14 30 34t12 46q0 37 -22.5 59t-54.5 22q-15 0 -29.5 -6.5t-25 -18t-15 -25.5t-0.5 -29q6 -21 23.5 -34t36.5 -8q-6 -23 -21 -35.5t-32.5 -16t-35.5 2t-31 18.5q-15 15 -20 34t-1 39q5 25 20.5 43t37 30t46.5 17.5t48 5.5q49 0 83.5 -14t56.5 -39.5
t32 -61.5t10 -81zM81 582v84h344v-84h-344zM287 95q14 12 23 28.5t9 36.5v185q-4 -12 -14 -22.5t-23 -20.5q-15 -11 -32 -19.5t-31 -14.5q-32 -15 -54 -37q-15 -15 -23 -37q-5 -14 -7 -29t0 -29q5 -32 28 -51q23 -22 58 -17q18 2 35 9t31 18z" />
    <glyph glyph-name="Abreve" unicode="&#x102;" horiz-adv-x="534" 
d="M280 700l184 -603q5 -15 11 -30.5t13.5 -29t17 -24t20.5 -13.5h-182q13 11 17 24.5t3 28.5t-6 31l-10 32q-2 8 -4.5 16t-4.5 16h-137q-38 0 -64.5 -15t-34.5 -44v1q-2 -5 -3 -9.5t-3 -9.5q-7 -24 -6 -42t17 -29h-100q24 14 40 42t24 54l187 604h21zM267 741q-42 0 -70 16
t-45.5 39.5t-24.5 50t-7 46.5h37q2 -10 9.5 -23t21.5 -24.5t33.5 -19t45.5 -7.5t45.5 7.5t33 19t21 24.5t9.5 23h38q0 -20 -7.5 -46.5t-24.5 -50t-45 -39.5t-70 -16zM231 507q-21 -70 -36.5 -122.5t-28.5 -93.5t-23.5 -73.5t-19.5 -62.5q14 18 35 24.5t41 6.5h128
q-21 70 -46 153.5t-50 167.5z" />
    <glyph glyph-name="abreve" unicode="&#x103;" horiz-adv-x="499" 
d="M425 311v-151q0 -24 0.5 -46.5t4 -43t12.5 -38.5t27 -32q-32 7 -56 14t-41.5 9t-30 -2.5t-22.5 -20.5v102q-9 -33 -41 -62q-20 -17 -46.5 -28.5t-56.5 -11.5q-31 0 -56 10t-42.5 27.5t-27.5 40t-12 46.5q-1 26 6 50t21 44.5t34 35.5t44 24q17 6 34.5 10.5t37.5 9.5
q17 5 33 12.5t30 18.5q18 14 30 34t12 46q0 37 -22.5 59t-54.5 22q-15 0 -29.5 -6.5t-25 -18t-15 -25.5t-0.5 -29q6 -21 23.5 -34t36.5 -8q-6 -23 -21 -35.5t-32.5 -16t-35.5 2t-31 18.5q-15 15 -20 34t-1 39q5 25 20.5 43t37 30t46 17.5t47.5 5.5q66 0 106 -24.5t58.5 -68
t18.5 -103.5zM253 548q-42 0 -70 16t-45 39.5t-24.5 50t-7.5 46.5h37q2 -11 9.5 -24t21.5 -24t33.5 -18.5t45.5 -7.5t45.5 7.5t33.5 18.5t21.5 24t9.5 24h37q0 -20 -7 -46.5t-24.5 -50t-45.5 -39.5t-70 -16zM287 95q14 12 23 28.5t9 36.5v185q-4 -12 -14.5 -22.5
t-22.5 -20.5q-15 -11 -32 -19.5t-31 -14.5q-16 -8 -29.5 -17t-24.5 -20q-15 -15 -23 -37q-12 -27 -7 -58q5 -32 27 -51q25 -22 59 -17q17 2 34.5 9t31.5 18z" />
    <glyph glyph-name="Aogonek" unicode="&#x104;" horiz-adv-x="535" 
d="M280 700l184 -603q5 -15 11 -30.5t13.5 -29t17 -24t20.5 -13.5h-54q-11 -14 -23.5 -32.5t-19.5 -37.5q-7 -20 -3.5 -37t14 -28t25.5 -14t31 6l7 -13q-11 -14 -32.5 -25.5t-44.5 -11.5q-28 0 -45 14q-24 19 -26 49q-1 17 6.5 35t18.5 32t24 25t26 21q5 5 10.5 9t10.5 8
h-107q13 11 17 24.5t3 28.5t-6 31l-10 32q-2 8 -4.5 16t-4.5 16h-137q-38 0 -64.5 -15t-34.5 -44v1q-2 -5 -3 -9.5t-2 -9.5q-8 -24 -7 -42t17 -29h-100q24 14 40 42t24 54l187 604h21zM231 507q-21 -70 -36.5 -122.5t-28.5 -93.5t-23.5 -73.5t-19.5 -62.5q14 18 35 24.5
t41 6.5h128q-21 70 -46 153.5t-50 167.5z" />
    <glyph glyph-name="aogonek" unicode="&#x105;" horiz-adv-x="499" 
d="M425 311v-151q0 -24 0.5 -46.5t4 -43t13 -38.5t27.5 -32q-11 2 -21.5 5t-19.5 5q-12 -14 -27.5 -35.5t-23.5 -44.5q-7 -20 -3 -37t14 -28t25 -14t31 6l7 -13q-11 -15 -32 -26t-45 -11q-26 0 -45 14q-24 19 -26 49q-1 17 6.5 35t18.5 32q11 13 24.5 24.5t25.5 21.5
q10 8 19 15t19 15q-19 5 -34 8t-26.5 2.5t-20.5 -6t-17 -17.5v102q-9 -34 -40 -62q-20 -17 -47 -28.5t-56 -11.5q-31 0 -56 10t-43 27.5t-28 40t-12 46.5q-1 26 6 50t21 44.5t34 35.5t44 24q17 6 34.5 10.5t37.5 9.5q17 5 33 12.5t30 18.5q18 14 30 34t12 46q0 37 -22.5 59
t-54.5 22q-15 0 -29.5 -6.5t-25 -18t-15 -25.5t-0.5 -29q6 -21 23.5 -34t36.5 -8q-6 -23 -21 -35.5t-32.5 -16t-35.5 2t-31 18.5q-15 15 -20 34t-1 39q5 25 20.5 43t37 30t46.5 17.5t48 5.5q49 0 83.5 -14t56.5 -39.5t32 -61.5t10 -81zM287 95q14 12 23 28.5t9 36.5v185
q-4 -12 -14 -22.5t-23 -20.5q-15 -11 -32 -19.5t-31 -14.5q-32 -15 -54 -37q-15 -15 -23 -37q-5 -14 -7 -29t0 -29q5 -32 28 -51q11 -11 26.5 -15t31.5 -2q18 2 35 9t31 18z" />
    <glyph glyph-name="Cacute" unicode="&#x106;" horiz-adv-x="629" 
d="M264 664q-39 -11 -67 -45t-42.5 -83.5t-14 -110.5t17.5 -126q18 -65 48 -118t67 -88.5t78.5 -50.5t80.5 -5q48 13 79.5 57.5t42.5 109.5v-122q-37 -36 -91.5 -59t-114.5 -23q-64 0 -120 27.5t-97.5 75t-65.5 111.5t-24 136t24 136t65.5 111.5t97.5 75t120 27.5
q28 0 59 -6t60 -18q34 -12 64 -35q17 -13 31 -29.5t21 -36.5q10 -25 6.5 -47.5t-15.5 -41.5q-18 -26 -50 -41q-22 61 -63 119q-13 17 -27 32.5t-30 27.5q-36 30 -76 40q-33 7 -64 0zM228 741l66 152h109l-131 -152h-44z" />
    <glyph glyph-name="cacute" unicode="&#x107;" horiz-adv-x="494" 
d="M451 93q-34 -48 -83 -70.5t-107 -22.5q-45 0 -85 20t-70 54.5t-47.5 81t-17.5 98.5q0 39 10 74.5t27 65.5q13 21 29 39.5t36 32.5q29 22 63 31q17 5 36 7.5t39 2.5q23 0 47 -4.5t45 -13.5q37 -17 61.5 -50t16.5 -76q-4 -21 -15 -36t-26 -23t-32.5 -9.5t-33.5 4.5
q-17 6 -31.5 19.5t-20.5 34.5q22 -4 39.5 6.5t27.5 27.5q11 20 6 45t-34 42q-19 12 -48 12q-45 -1 -77 -25.5t-49 -66.5t-17 -89.5t11 -87.5q9 -33 24 -62t36 -52q23 -25 54.5 -38.5t64.5 -13.5q32 -1 62 14t48 38q2 -2 5 -4.5t6 -5.5zM160 548l66 152h108l-131 -152h-43z
" />
    <glyph glyph-name="Ccircumflex" unicode="&#x108;" horiz-adv-x="629" 
d="M264 664q-39 -11 -67 -45t-42.5 -83.5t-14 -110.5t17.5 -126q18 -65 48 -118t67 -88.5t78.5 -50.5t80.5 -5q48 13 79.5 57.5t42.5 109.5v-122q-37 -36 -91.5 -59t-114.5 -23q-64 0 -120 27.5t-97.5 75t-65.5 111.5t-24 136t24 136t65.5 111.5t97.5 75t120 27.5
q28 0 59 -6t60 -18q34 -12 64 -35q17 -13 31 -29.5t22 -36.5q9 -25 6 -47.5t-16 -41.5q-18 -26 -50 -41q-22 61 -63 119q-13 17 -27 32.5t-30 27.5q-36 30 -76 40q-33 7 -64 0zM408 741l-92 102l-93 -102h-46l77 152h124l77 -152h-47z" />
    <glyph glyph-name="Cdotaccent" unicode="&#x10a;" horiz-adv-x="629" 
d="M264 664q-39 -11 -67 -45t-42.5 -83.5t-14 -110.5t17.5 -126q18 -65 48 -118t67 -88.5t78.5 -50.5t80.5 -5q48 13 79.5 57.5t42.5 109.5v-122q-37 -36 -91.5 -59t-114.5 -23q-64 0 -120 27.5t-97.5 75t-65.5 111.5t-24 136t24 136t65.5 111.5t97.5 75t120 27.5
q27 0 58.5 -6t60.5 -18q34 -12 64 -35q17 -13 31 -29.5t21 -36.5q10 -25 6.5 -47.5t-16.5 -41.5q-17 -26 -49 -41q-22 61 -63 119q-13 17 -27 32.5t-30 27.5q-36 30 -76 40q-33 7 -64 0zM391 828q0 -27 -22 -46.5t-53 -19.5q-32 0 -54 19.5t-22 46.5q0 28 22 46.5t54 18.5
q31 0 53 -18.5t22 -46.5z" />
    <glyph glyph-name="cdotaccent" unicode="&#x10b;" horiz-adv-x="494" 
d="M451 93q-34 -48 -83 -70.5t-107 -22.5q-45 0 -85 20t-70 54.5t-47.5 81t-17.5 98.5q0 39 10 74.5t27 65.5q27 44 65 72q14 11 30 18.5t33 12.5t36 7.5t39 2.5q23 0 47 -4.5t46 -13.5q18 -8 34 -21t27 -29t16 -35.5t1 -40.5t-15.5 -36t-26.5 -23t-32 -9.5t-33 4.5
q-17 6 -32 19.5t-21 34.5q23 -4 40.5 6.5t26.5 27.5q11 20 6 45t-34 42q-19 12 -48 12q-45 -1 -77 -25.5t-49 -66.5t-16.5 -89.5t11.5 -87.5q8 -33 23 -62t36 -52q23 -25 54.5 -38.5t64.5 -13.5q32 -1 62 14t48 38q4 -3 11 -10zM322 634q0 -26 -21.5 -45.5t-53.5 -19.5
q-31 0 -53 19.5t-22 45.5q0 29 22 47.5t53 18.5q32 0 53.5 -18.5t21.5 -47.5z" />
    <glyph glyph-name="Ccaron" unicode="&#x10c;" horiz-adv-x="629" 
d="M264 664q-39 -11 -67 -45t-42.5 -83.5t-14 -110.5t18.5 -126q17 -65 47 -118t67 -88.5t78.5 -50.5t80.5 -5q48 13 79.5 57.5t42.5 109.5v-122q-37 -36 -91.5 -59t-114.5 -23q-64 0 -120 27.5t-97.5 75t-65.5 111.5t-24 136t24 136t65.5 111.5t97.5 75t120 27.5
q28 0 59 -6t60 -18q34 -12 64 -35q17 -13 31 -29.5t22 -36.5q9 -25 6 -47.5t-16 -41.5q-18 -26 -50 -41q-22 61 -63 119q-13 17 -27 32.5t-30 27.5q-36 30 -76 40q-33 7 -64 0zM223 893l93 -101l92 101h47l-77 -152h-124l-77 152h46z" />
    <glyph glyph-name="ccaron" unicode="&#x10d;" horiz-adv-x="494" 
d="M451 93q-34 -48 -83 -70.5t-107 -22.5q-45 0 -85 20t-70 54.5t-47.5 81t-17.5 98.5q0 39 10 74.5t27 65.5q27 44 65 72q14 11 30 18.5t33 12.5t36 7.5t39 2.5q23 0 47 -4.5t46 -13.5q18 -8 34 -21t27 -29t16 -35.5t1 -40.5t-15.5 -36t-26.5 -23t-32 -9.5t-33 4.5
q-17 6 -32 19.5t-21 34.5q23 -4 40.5 6.5t26.5 27.5q11 20 6 45t-34 42q-19 12 -48 12q-45 -1 -77 -25.5t-49 -66.5t-16.5 -89.5t11.5 -87.5q8 -33 23 -62t36 -52q23 -25 54.5 -38.5t64.5 -13.5q32 -1 62 14t48 38q4 -3 11 -10zM155 700l92 -101l93 101h46l-77 -152h-124
l-77 152h47z" />
    <glyph glyph-name="Dcaron" unicode="&#x10e;" horiz-adv-x="597" 
d="M184 22h36q71 0 116.5 41t73.5 104q18 41 26.5 88t8.5 95t-8.5 95t-26.5 88q-28 64 -73.5 104.5t-116.5 40.5h-36v-656zM210 893l93 -101l93 101h46l-77 -152h-124l-77 152h46zM276 700q63 0 111 -24.5t82 -66.5q42 -50 63 -118.5t21 -140.5t-21 -140.5t-63 -118.5
q-34 -42 -82 -66.5t-111 -24.5h-225q15 23 21 52t6 55v486q0 26 -6 55t-21 52h225z" />
    <glyph glyph-name="dcaron" unicode="&#x10f;" horiz-adv-x="672" 
d="M386 44q-26 -21 -57.5 -32.5t-66.5 -11.5q-45 0 -85 20t-70 54.5t-47.5 81t-17.5 98.5q0 53 17.5 99t47.5 80t70 54t85 20q35 0 66.5 -11.5t57.5 -32.5v99q0 18 -2 33.5t-4 26.5q-5 19 -11 30t-10 17q12 0 31.5 2t39.5 5.5t37.5 9.5t24.5 14v-528v-22q0 -23 0.5 -44
t5 -40t13.5 -35.5t25 -30.5h-1q-32 7 -55.5 13.5t-41 9t-30 -2t-22.5 -20.5v44zM619 700q32 0 53.5 -18.5t21.5 -47.5q0 -36 -11.5 -68.5t-30.5 -59.5t-44.5 -47.5t-54.5 -32.5l-9 13q33 26 50 60.5t22 69.5q-30 1 -51 20t-21 45q0 29 22 47.5t53 18.5zM386 179
q0 50 -15 104q-12 46 -31.5 84t-42.5 64t-47 38t-47 6q-22 -6 -37.5 -29t-22 -57t-4 -76.5t14.5 -88.5t31.5 -83.5t42 -63.5t47 -38t46.5 -6q31 8 47.5 45t17.5 91v10z" />
    <glyph glyph-name="dcroat" unicode="&#x111;" horiz-adv-x="570" 
d="M386 44q-26 -21 -57.5 -32.5t-66.5 -11.5q-45 0 -85 20t-70 54.5t-47.5 81t-17.5 98.5q0 53 17.5 99t47.5 80t70 54t85 20q35 0 66.5 -11.5t57.5 -32.5v68h-160v71h158q-1 6 -2 10.5t-2 9.5q-5 19 -11 30t-10 17q12 0 31.5 2t39.5 5.5t37.5 9.5t24.5 14v-98h44v-71h-44
v-359v-22q0 -23 0.5 -44t5 -40t13.5 -35.5t25 -30.5h-1q-32 7 -55.5 13.5t-41 9t-30 -2t-22.5 -20.5v44zM386 179q0 50 -15 104q-12 46 -31.5 84t-42.5 64t-47 38t-47 6q-22 -6 -37.5 -29t-22 -57t-4 -76.5t14.5 -88.5t31.5 -83.5t42 -63.5t47.5 -38t47 -6q30 8 46.5 45
t17.5 91v10z" />
    <glyph glyph-name="Emacron" unicode="&#x112;" horiz-adv-x="516" 
d="M185 426v-404h43q20 0 40.5 2t40.5 7q26 5 50.5 18.5t42.5 33.5q27 30 34 67q30 -17 38 -44t-1 -52q-8 -23 -27.5 -38.5t-47.5 -15.5h-346q16 23 21.5 52t5.5 55v486q0 26 -5.5 55t-21.5 52h395l20 -144q-8 33 -24.5 56t-37.5 38t-43.5 21.5t-42.5 6.5h-134v-217
q11 17 34 19q20 2 38.5 -4t37.5 -12q11 -3 26.5 -6.5t31.5 -2t30 8.5t23 25q14 -26 10.5 -51.5t-22.5 -39.5q-12 -10 -26.5 -12.5t-25.5 -1.5q-28 1 -52 15q-8 4 -16 9.5t-16 11.5q-10 8 -23 16t-24 11.5t-18.5 -0.5t-7.5 -21v0zM93 776v83h344v-83h-344z" />
    <glyph glyph-name="emacron" unicode="&#x113;" 
d="M451 93q-34 -48 -83 -70.5t-106 -22.5q-46 0 -86 20t-70 54.5t-47.5 81t-17.5 98.5q0 39 10 74.5t27 65.5q27 44 65 72q14 11 30 18.5t33 12.5t36 7.5t39 2.5q45 0 87.5 -14.5t68.5 -55.5q10 -16 14.5 -34.5t0.5 -39.5q-4 -19 -16 -31.5t-29 -19.5t-37 -9.5t-41 -3.5
q-22 -1 -42.5 -1h-36.5h-109q0 -42 11 -81q8 -33 23 -62t36 -52q23 -25 54.5 -38.5t64.5 -13.5q32 -1 62 14t49 38l4.5 -4.5zM76 582v84h343v-84h-343zM141 319h80q15 0 30 1t29 4q37 7 59 30t19 61q-2 29 -23 50.5t-52 20.5q-45 -1 -77 -25.5t-49 -66.5q-7 -17 -10.5 -36
t-5.5 -39v0z" />
    <glyph glyph-name="Ebreve" unicode="&#x114;" horiz-adv-x="516" 
d="M257 420q-10 8 -22.5 16t-23.5 11.5t-18.5 -0.5t-7.5 -21v-404h43q20 0 40.5 2t40.5 7q26 5 50.5 18.5t42.5 33.5q27 30 34 67q30 -17 38 -44t-1 -52q-8 -23 -27.5 -38.5t-47.5 -15.5h-346q16 23 21.5 52t5.5 55v486q0 26 -5.5 55t-21.5 52h395l20 -144q-8 33 -24.5 56
t-37.5 38t-43.5 21.5t-42.5 6.5h-134v-217q11 17 34 19q20 2 38.5 -4t37.5 -12q11 -3 26.5 -6.5t31.5 -2t30 8.5t23 25q14 -26 10.5 -51.5t-22.5 -39.5q-12 -10 -26.5 -12.5t-25.5 -1.5q-28 1 -52 15q-8 4 -16 9.5t-17 11.5zM265 741q-42 0 -70 16t-45.5 39.5t-24.5 50
t-7 46.5h37q2 -10 9.5 -23t21.5 -24.5t33.5 -19t45.5 -7.5t45.5 7.5t33.5 19t21.5 24.5t9.5 23h37q0 -20 -7.5 -46.5t-24.5 -50t-45 -39.5t-70 -16z" />
    <glyph glyph-name="ebreve" unicode="&#x115;" 
d="M451 93q-34 -48 -83 -70.5t-107 -22.5q-45 0 -85 20t-70 54.5t-47.5 81t-17.5 98.5q0 39 10 74.5t27 65.5q27 44 65 72q29 22 63 31q17 5 36 7.5t39 2.5q45 0 87.5 -14.5t68.5 -55.5q10 -16 14.5 -34.5t0.5 -39.5q-4 -19 -16 -31.5t-29 -19.5t-37 -9.5t-41 -3.5
q-22 -1 -42.5 -1h-35.5h-110q0 -42 11 -81q8 -33 23 -62t36 -52q23 -25 54.5 -38.5t64.5 -13.5q32 -1 62 14t48 38q4 -3 11 -10zM247 548q-42 0 -70 16t-45 39.5t-24.5 50t-7.5 46.5h38q2 -11 9.5 -24t21 -24t33 -18.5t45.5 -7.5t45.5 7.5t33.5 18.5t21.5 24t9.5 24h37
q0 -20 -7 -46.5t-24.5 -50t-45.5 -39.5t-70 -16zM142 319h79q15 0 30 1t29 4q37 7 59 30t19 61q-2 29 -23 50.5t-52 20.5q-45 -1 -77 -25.5t-49 -66.5q-13 -34 -15 -75v0z" />
    <glyph glyph-name="Edotaccent" unicode="&#x116;" horiz-adv-x="516" 
d="M185 426v-404h42q20 0 41 2t41 7q26 5 50.5 18.5t42.5 33.5q27 30 34 67q30 -17 38 -44t-1 -52q-8 -23 -27.5 -38.5t-48.5 -15.5h-345q15 23 21 52t6 55v486q0 26 -6 55t-21 52h395l20 -144q-8 33 -24.5 56t-37.5 38t-43.5 21.5t-42.5 6.5h-134v-217q11 17 34 19
q20 2 38.5 -4t37.5 -12q11 -3 26.5 -6.5t31.5 -2t30 8.5t23 25q13 -26 10 -51.5t-22 -39.5q-12 -10 -26.5 -12.5t-25.5 -1.5q-28 1 -52 15q-8 4 -16 9.5t-17 11.5q-10 8 -22.5 16t-23.5 11.5t-18.5 -0.5t-7.5 -21v0zM340 828q0 -27 -22 -46.5t-53 -19.5q-32 0 -53.5 19.5
t-21.5 46.5q0 28 21.5 46.5t53.5 18.5q31 0 53 -18.5t22 -46.5z" />
    <glyph glyph-name="edotaccent" unicode="&#x117;" 
d="M451 93q-34 -48 -83 -70.5t-107 -22.5q-45 0 -85 20t-70 54.5t-47.5 81t-17.5 98.5q0 39 10 74.5t27 65.5q27 44 65 72q28 22 63 31q17 5 36 7.5t39 2.5q45 0 87.5 -14.5t68.5 -55.5q10 -16 14.5 -34.5t0.5 -39.5q-4 -19 -16 -31.5t-29 -19.5t-37 -9.5t-41 -3.5
q-22 -1 -42.5 -1h-36.5h-109q0 -42 11 -81q8 -33 23 -62t36 -52q23 -25 54.5 -38.5t64.5 -13.5q32 -1 62 14t48 38q4 -3 11 -10zM322 634q0 -26 -21.5 -45.5t-53.5 -19.5q-31 0 -53 19.5t-22 45.5q0 29 22 47.5t53 18.5q32 0 53.5 -18.5t21.5 -47.5zM142 319h79q15 0 30 1
t29 4q37 7 59 30t19 61q-2 29 -23 50.5t-52 20.5q-45 -1 -77 -25.5t-49 -66.5q-13 -34 -15 -75v0z" />
    <glyph glyph-name="Eogonek" unicode="&#x118;" horiz-adv-x="516" 
d="M185 426v-404h42q20 0 41 2t41 7q26 5 50.5 18.5t42.5 33.5q27 30 34 67q30 -17 38 -44t-1 -52q-8 -23 -27.5 -38.5t-48.5 -15.5h-90q-11 -14 -23 -32.5t-19 -37.5q-7 -20 -3.5 -37t14 -28t25.5 -14t30 6l8 -13q-12 -15 -33 -26t-45 -11q-27 0 -44 14q-14 10 -19.5 22.5
t-6.5 26.5q-1 17 6 35t19 32q11 13 24 24.5t26 21.5q5 5 10.5 9t10.5 8h-235q15 23 21 52t6 55v486q0 26 -6 55t-21 52h395l20 -144q-8 33 -24.5 56t-37.5 38t-43.5 21.5t-42.5 6.5h-134v-217q11 17 34 19q20 2 38.5 -4t37.5 -12q11 -3 26.5 -6.5t31.5 -2t30 8.5t23 25
q13 -26 10 -51.5t-22 -39.5q-12 -10 -26.5 -12.5t-25.5 -1.5q-28 1 -52 15q-8 4 -16 9.5t-16 11.5q-10 8 -23 16t-24 11.5t-18.5 -0.5t-7.5 -21v0z" />
    <glyph glyph-name="eogonek" unicode="&#x119;" 
d="M270 0h-8q-46 0 -86 20t-70 54.5t-47.5 81t-17.5 98.5q0 39 10 74.5t27 65.5q25 43 65 72q14 11 30 18.5t33 12.5t36 7.5t39 2.5q45 0 87.5 -14.5t68.5 -55.5q10 -16 14.5 -34.5t0.5 -39.5q-4 -19 -16 -31.5t-29 -19.5t-37 -9.5t-41 -3.5q-22 -1 -42.5 -1h-36.5h-109
q0 -42 11 -81q8 -33 23 -62t36 -52q23 -25 54.5 -38.5t64.5 -13.5q32 -1 62 14t48 38q2 -2 5 -4.5t6 -5.5q-29 -41 -70 -63.5t-90 -27.5q-11 -14 -23.5 -33t-20.5 -39q-7 -20 -3.5 -37t14 -28t25.5 -14t31 6l7 -13q-11 -15 -32.5 -26t-44.5 -11q-26 0 -45 14q-24 19 -26 49
q-1 17 6.5 35t18.5 32q11 13 24.5 24t25.5 22q5 5 10.5 9t11.5 8zM142 319h79q15 0 30 1t29 4q37 7 59 30t19 61q-2 29 -23 50.5t-52 20.5q-45 -1 -77 -25.5t-49 -66.5q-7 -17 -10.5 -36t-5.5 -39h1z" />
    <glyph glyph-name="Ecaron" unicode="&#x11a;" horiz-adv-x="516" 
d="M185 22h43q20 0 40.5 2t40.5 7q26 5 50.5 18.5t42.5 33.5q27 30 34 67q30 -17 38 -44t-1 -52q-8 -23 -27.5 -38.5t-47.5 -15.5h-346q16 23 21.5 52t5.5 55v486q0 26 -5.5 55t-21.5 52h395l20 -144q-8 33 -24.5 56t-37.5 38t-43.5 21.5t-42.5 6.5h-134v-217q11 17 34 19
q20 2 38.5 -4t37.5 -12q11 -3 26.5 -6.5t31.5 -2t30 8.5t23 25q14 -26 10.5 -51.5t-22.5 -39.5q-12 -10 -26.5 -12.5t-25.5 -1.5q-28 1 -52 15q-8 4 -16 9.5t-16 11.5q-10 8 -23 16t-24 11.5t-18.5 -0.5t-7.5 -21v-404zM172 893l93 -101l93 101h46l-77 -152h-124l-77 152h46
z" />
    <glyph glyph-name="ecaron" unicode="&#x11b;" 
d="M451 93q-34 -48 -83 -70.5t-106 -22.5q-46 0 -86 20t-70 54.5t-47.5 81t-17.5 98.5q0 39 10 74.5t27 65.5q27 44 65 72q14 11 30 18.5t33 12.5t36 7.5t39 2.5q45 0 87.5 -14.5t68.5 -55.5q10 -16 14.5 -34.5t0.5 -39.5q-4 -19 -16 -31.5t-29 -19.5t-37 -9.5t-41 -3.5
q-22 -1 -42.5 -1h-36.5h-109q0 -42 11 -81q8 -33 23 -62t36 -52q23 -25 54.5 -38.5t64.5 -13.5q32 -1 62 14t48 38q2 -2 5 -4.5t6 -5.5zM155 700l92 -101l93 101h46l-76 -152h-125l-77 152h47zM141 319h80q15 0 30 1t29 4q37 7 59 30t19 61q-2 29 -23 50.5t-52 20.5
q-45 -1 -77 -25.5t-49 -66.5q-7 -17 -10.5 -36t-5.5 -39v0z" />
    <glyph glyph-name="Gcircumflex" unicode="&#x11c;" horiz-adv-x="654" 
d="M264 664q-39 -11 -67 -45t-42.5 -83.5t-14 -110.5t18.5 -126q17 -65 47 -118t67 -88.5t78.5 -50.5t80.5 -5q24 6 41 19v157q0 26 -5.5 55t-20.5 52h159q-6 -10 -16 -35t-10 -72v-106q0 -48 10 -73t16 -34h-133v28q-29 -13 -60.5 -20.5t-64.5 -7.5q-64 0 -120 27.5
t-97.5 75t-65.5 111.5t-24 136t24 136t65.5 111.5t97.5 75t120 27.5q28 0 59 -6t60 -18q34 -12 64 -35q17 -13 31 -29.5t22 -36.5q9 -25 6 -47.5t-16 -41.5q-18 -26 -50 -41q-22 61 -63 119q-13 17 -27 32.5t-30 27.5q-36 30 -76 40q-33 7 -64 0zM416 741l-92 102l-93 -102
h-46l77 152h124l77 -152h-47z" />
    <glyph glyph-name="Gbreve" unicode="&#x11e;" horiz-adv-x="654" 
d="M264 664q-39 -11 -67 -45t-42.5 -83.5t-14 -110.5t17.5 -126q18 -65 48 -118t67 -88.5t78.5 -50.5t80.5 -5q24 6 41 19v157q0 26 -5.5 55t-21.5 52h160q-6 -10 -16.5 -35t-10.5 -72v-106q0 -48 10.5 -73t16.5 -34h-133v28q-29 -13 -60.5 -20.5t-64.5 -7.5
q-64 0 -120 27.5t-97.5 75t-65.5 111.5t-24 136t24 136t65.5 111.5t97.5 75t120 27.5q27 0 58.5 -6t60.5 -18q34 -12 64 -35q17 -13 31 -29.5t21 -36.5q10 -25 6.5 -47.5t-16.5 -41.5q-17 -26 -49 -41q-22 61 -63 119q-13 17 -27 32.5t-30 27.5q-36 30 -76 40q-33 7 -64 0z
M324 741q-42 0 -70 16t-45.5 39.5t-24.5 50t-7 46.5h37q2 -10 9.5 -23t21 -24.5t33.5 -19t46 -7.5t45.5 7.5t33 19t21 24.5t9.5 23h38q0 -20 -7.5 -46.5t-24.5 -50t-45 -39.5t-70 -16z" />
    <glyph glyph-name="gbreve" unicode="&#x11f;" horiz-adv-x="500" 
d="M359 471q39 -27 62.5 -69.5t23.5 -93.5q0 -41 -16 -77.5t-43 -63.5t-63.5 -42.5t-77.5 -15.5q-54 0 -98 26l-3 1l-66 -88q4 2 10 6q35 17 79.5 27.5t90.5 10.5q32 0 69 -7.5t66 -27.5q20 -14 33 -32.5t16 -44.5q6 -45 -17.5 -82t-61.5 -59q-30 -18 -64 -25t-65 -7
q-19 0 -39 3.5t-40 11.5q-25 9 -44.5 29t-27.5 44q-10 29 0.5 57.5t39.5 40.5q8 3 16 5t17 2q11 1 22 -2.5t20 -9.5q-29 -24 -31 -56q-2 -31 19 -54t50 -34q32 -12 66 -9.5t55 16.5q16 9 24 22t10 28q7 37 -25 69q-13 14 -29 23.5t-31 14.5q-26 8 -52 11.5t-46 2.5
q-38 0 -72 -7.5t-56 -22.5l-33 44l83 109q-38 27 -61 69.5t-23 93.5q0 41 15.5 77.5t42.5 63.5t63.5 42.5t77.5 15.5q28 0 53 -7t48 -20q4 7 7.5 13.5t8.5 13.5q5 8 12 17.5t15 17t18 12t20 4.5q19 -1 29.5 -16t2.5 -35q-22 11 -47.5 6.5t-46.5 -34.5zM401 700
q0 -20 -7 -46.5t-24.5 -50t-45.5 -39.5t-70 -16t-70 16t-45.5 39.5t-24.5 50t-7 46.5h37q2 -11 9.5 -24t21.5 -24t33.5 -18.5t45.5 -7.5t45.5 7.5t33.5 18.5t21.5 24t9.5 24h37zM322 328q-9 36 -23.5 66t-31.5 50.5t-34.5 30.5t-33.5 6t-26.5 -21.5t-14.5 -43.5t-1.5 -59.5
t11.5 -69.5q10 -36 24.5 -66t31 -50.5t34.5 -30.5t34 -6q16 5 26 22t14.5 43.5t2 59.5t-12.5 69z" />
    <glyph glyph-name="Gdotaccent" unicode="&#x120;" horiz-adv-x="654" 
d="M264 664q-39 -11 -67 -45t-42.5 -83.5t-14 -110.5t18.5 -126q17 -65 47 -118t67 -88.5t78.5 -50.5t80.5 -5q24 6 42 19v157q0 26 -6 55t-21 52h159q-6 -10 -16 -35t-10 -72v-106q0 -48 10 -73t16 -34h-132v28q-29 -13 -61 -20.5t-65 -7.5q-64 0 -120 27.5t-97.5 75
t-65.5 111.5t-24 136t24 136t65.5 111.5t97.5 75t120 27.5q28 0 59 -6t60 -18q34 -12 64 -35q17 -13 31 -29.5t22 -36.5q9 -25 6 -47.5t-16 -41.5q-18 -26 -50 -41q-22 61 -63 119q-13 17 -27 32.5t-30 27.5q-36 30 -76 40q-33 7 -64 0zM399 828q0 -27 -22 -46.5t-53 -19.5
q-32 0 -53.5 19.5t-21.5 46.5q0 28 21.5 46.5t53.5 18.5q31 0 53 -18.5t22 -46.5z" />
    <glyph glyph-name="gdotaccent" unicode="&#x121;" horiz-adv-x="500" 
d="M46 308q0 41 15.5 77.5t42.5 63.5t63.5 42.5t77.5 15.5q28 0 53 -7t48 -20q4 7 7.5 13.5t8.5 13.5q5 8 12 17.5t15 17t18 12t20 4.5q19 -1 29.5 -16t2.5 -35q-22 11 -47.5 6.5t-46.5 -34.5l-6 -8q39 -27 62.5 -69.5t23.5 -93.5q0 -41 -16 -77.5t-43 -63.5t-63.5 -42.5
t-77.5 -15.5q-54 0 -98 26l-3 1l-66 -88q3 2 5.5 3t5.5 3q35 17 79 27.5t90 10.5q32 0 69 -7.5t66 -27.5q20 -14 33 -32.5t16 -44.5q6 -45 -17.5 -82t-61.5 -59q-30 -18 -64 -25t-65 -7q-19 0 -39 3.5t-40 11.5q-25 9 -44.5 29t-27.5 44q-10 29 0.5 57.5t39.5 40.5q8 3 16 5
t17 2q22 1 42 -12q-29 -24 -31 -56q-2 -31 19 -54t50 -34q32 -12 66 -9.5t55 16.5q16 9 24 22t10 28q7 37 -25 69q-13 14 -29 23.5t-31 14.5q-26 8 -52 11.5t-46 2.5q-38 0 -72 -7.5t-56 -22.5l-33 44l83 109q-38 27 -61 69.5t-23 93.5zM254 569q-31 0 -53 19.5t-22 45.5
q0 28 22 47t53 19q32 0 53.5 -19t21.5 -47q0 -26 -21.5 -45.5t-53.5 -19.5zM199 481q-16 -4 -26.5 -21.5t-14.5 -43.5t-1.5 -59.5t11.5 -69.5q10 -36 24.5 -66t31 -50.5t34.5 -30.5t34 -6t26 21.5t14.5 43.5t2 59.5t-12.5 69.5q-9 36 -23.5 66t-31.5 50.5t-34.5 30.5
t-33.5 6z" />
    <glyph glyph-name="Hcircumflex" unicode="&#x124;" horiz-adv-x="591" 
d="M52 0q16 23 21.5 52t5.5 55v486q0 26 -5.5 55t-21.5 52h160q-6 -9 -16.5 -34t-10.5 -73v-132q11 17 34 19q20 2 38.5 -4t37.5 -12q11 -3 26.5 -6.5t31.5 -2t30 8.5t23 25v104q0 26 -5.5 55t-21.5 52h160q-6 -9 -16.5 -34t-10.5 -73v-486q0 -48 10.5 -73t16.5 -34h-160
q16 23 21.5 52t5.5 55v303q-4 -7 -12 -12q-12 -10 -26.5 -12.5t-25.5 -1.5q-28 1 -52 15q-8 4 -16 9.5t-16 11.5q-10 8 -23 16t-24 11.5t-18.5 -0.5t-7.5 -21v-319q0 -48 10.5 -73t16.5 -34h-160zM388 741l-92 102l-93 -102h-47l77 152h124l78 -152h-47z" />
    <glyph glyph-name="Itilde" unicode="&#x128;" horiz-adv-x="264" 
d="M52 0q15 23 21 52t6 55v486q0 26 -6 55t-21 52h160q-7 -9 -17 -34t-10 -73v-486q0 -48 10 -73t17 -34h-160zM-47 817q28 46 65.5 66t92.5 3q4 -1 7.5 -2t8.5 -3q24 -9 48 -18.5t47 -13t43.5 3t38.5 29.5l7 -19q-29 -47 -66.5 -67t-92.5 -3q-4 2 -8 2.5t-8 2.5
q-24 9 -48 18.5t-47 12.5t-43.5 -3t-38.5 -29z" />
    <glyph glyph-name="itilde" unicode="&#x129;" horiz-adv-x="250" 
d="M179 507v-400q0 -48 10 -72.5t17 -34.5h-160q16 23 21.5 52t5.5 55v262q0 18 -2 33.5t-4 26.5q-5 19 -11 30t-10 17q12 0 31.5 2t39.5 5.5t37.5 9.5t24.5 14zM-53 623q28 47 65.5 67t92.5 3q4 -1 7.5 -2t8.5 -3q24 -9 48 -18.5t47 -13t43.5 3t38.5 29.5l7 -20
q-29 -46 -66.5 -66t-92.5 -3q-4 2 -8 2.5t-8 2.5q-24 9 -48 18.5t-47 12.5t-43.5 -3t-38.5 -29z" />
    <glyph glyph-name="Imacron" unicode="&#x12a;" horiz-adv-x="265" 
d="M52 0q15 23 21 52t6 55v486q0 26 -6 55t-21 52h160q-7 -9 -17 -34t-10 -73v-486q0 -48 10 -73t17 -34h-160zM-40 776v83h343v-83h-343z" />
    <glyph glyph-name="imacron" unicode="&#x12b;" horiz-adv-x="251" 
d="M180 507v-400q0 -48 10 -72.5t16 -34.5h-159q15 23 21 52t6 55v262q0 18 -2 33.5t-5 26.5q-4 19 -10 30t-10 17q12 0 31.5 2t39.5 5.5t37.5 9.5t24.5 14zM-45 582v84h343v-84h-343z" />
    <glyph glyph-name="Ibreve" unicode="&#x12c;" horiz-adv-x="264" 
d="M52 0q16 23 21.5 52t5.5 55v486q0 26 -5.5 55t-21.5 52h160q-6 -9 -16.5 -34t-10.5 -73v-486q0 -48 10.5 -73t16.5 -34h-160zM132 741q-42 0 -70 16t-45.5 39.5t-24.5 50t-7 46.5h37q2 -10 9.5 -23t21.5 -24.5t33.5 -19t45.5 -7.5t45.5 7.5t33.5 19t21.5 24.5t9.5 23h37
q0 -20 -7.5 -46.5t-24.5 -50t-45 -39.5t-70 -16z" />
    <glyph glyph-name="ibreve" unicode="&#x12d;" horiz-adv-x="251" 
d="M179 507v-400q0 -48 10.5 -72.5t16.5 -34.5h-160q16 23 21.5 52t5.5 55v262q0 18 -2 33.5t-4 26.5q-5 19 -11 30t-10 17q12 0 31.5 2t39.5 5.5t37.5 9.5t24.5 14zM126 548q-42 0 -70 16t-45 39.5t-24.5 50t-7.5 46.5h37q2 -11 9.5 -24t21.5 -24t33.5 -18.5t45.5 -7.5
t45.5 7.5t33.5 18.5t21.5 24t9.5 24h37q0 -20 -7 -46.5t-24.5 -50t-45.5 -39.5t-70 -16z" />
    <glyph glyph-name="Idotaccent" unicode="&#x130;" horiz-adv-x="264" 
d="M52 0q16 23 21.5 52t5.5 55v486q0 26 -5.5 55t-21.5 52h160q-6 -9 -16.5 -34t-10.5 -73v-486q0 -48 10.5 -73t16.5 -34h-160zM207 828q0 -27 -22 -46.5t-53 -19.5t-53 19.5t-22 46.5q0 28 22 46.5t53 18.5t53 -18.5t22 -46.5z" />
    <glyph glyph-name="dotlessi" unicode="&#x131;" horiz-adv-x="250" 
d="M179 507v-400q0 -48 10.5 -72.5t16.5 -34.5h-160q15 23 21 52t6 55v262q0 18 -2 33.5t-5 26.5q-4 19 -10 30t-10 17q12 0 31.5 2t39.5 5.5t37.5 9.5t24.5 14z" />
    <glyph glyph-name="Jcircumflex" unicode="&#x134;" horiz-adv-x="433" 
d="M295 741l-92 102l-93 -102h-47l78 152h124l77 -152h-47zM112 242q32 5 60.5 -16t35.5 -73q-18 10 -36.5 9.5t-32.5 -9.5q-14 -8 -22.5 -22t-8.5 -34q-1 -25 14 -47q9 -13 24 -21t33 -7q23 0 36.5 11.5t21.5 30.5q6 15 9.5 32t4.5 34.5t1 33.5v28v401q0 20 -3.5 43
t-11.5 43q-4 12 -12 21h160q-6 -9 -16.5 -34t-10.5 -73v-395q0 -43 -7 -77t-24 -60q-20 -29 -55 -45t-92 -16q-25 0 -50 6t-47 19q-22 14 -38 34t-22 48t1 56t27 48q11 11 26.5 19.5t34.5 11.5z" />
    <glyph glyph-name="Lacute" unicode="&#x139;" 
d="M52 0q15 23 21 52t6 55v486q0 26 -6 55t-21 52h160q-16 -23 -21.5 -52t-5.5 -55v-571h43q20 0 40.5 2t40.5 7q26 6 50.5 19t42.5 33q27 30 34 67q30 -17 38 -44t-1 -52q-8 -23 -27.5 -38.5t-47.5 -15.5h-346zM178 741l66 152h108l-131 -152h-43z" />
    <glyph glyph-name="Lcaron" unicode="&#x13d;" horiz-adv-x="537" 
d="M52 0q15 23 21 52t6 55v486q0 26 -6 55t-21 52h160q-16 -23 -21.5 -52t-5.5 -55v-571h42q20 0 41 2t41 7q26 6 50.5 19t42.5 33q27 30 34 67q29 -17 37.5 -44t-0.5 -52q-8 -23 -27.5 -38.5t-48.5 -15.5h-345zM427 700q32 0 53.5 -19t21.5 -46q0 -37 -11.5 -69.5
t-30.5 -59.5t-44.5 -47t-54.5 -32l-9 12q34 26 50.5 60.5t21.5 69.5q-30 1 -51 20.5t-21 45.5q0 28 22 46.5t53 18.5z" />
    <glyph glyph-name="lcaron" unicode="&#x13e;" horiz-adv-x="362" 
d="M178 700v-593q0 -48 10.5 -72.5t16.5 -34.5h-160q15 23 21 52t6 55v455q0 18 -2 33.5t-5 26.5q-4 19 -10 30t-10 17q12 0 31.5 2t39.5 5.5t37.5 9.5t24.5 14zM310 700q31 0 53 -18.5t22 -47.5q0 -36 -11.5 -68.5t-31 -59.5t-45 -47t-54.5 -32l-8 12q33 26 49.5 60.5
t22.5 69.5q-31 1 -51.5 20t-20.5 45q0 29 21.5 47.5t53.5 18.5z" />
    <glyph glyph-name="Lslash" unicode="&#x141;" horiz-adv-x="519" 
d="M103 201l-64 -64v83l64 64v309q0 26 -5.5 55t-21.5 52h160q-15 -23 -21 -52t-6 -55v-203l173 174v-84l-173 -173v-285h43q20 0 40.5 2t40.5 7q26 6 50.5 19t42.5 33q13 14 22 31t12 36q30 -17 38 -44t-1 -52q-8 -23 -27.5 -38.5t-47.5 -15.5h-346q16 23 21.5 52t5.5 55
v94z" />
    <glyph glyph-name="lslash" unicode="&#x142;" horiz-adv-x="364" 
d="M239 107q0 -48 10.5 -72.5t16.5 -34.5h-160q16 23 21.5 52t5.5 55v148l-105 -105v83l105 105v224q0 18 -2 33.5t-4 26.5q-5 19 -11 30t-10 17q12 0 31.5 2t39.5 5.5t37.5 9.5t24.5 14v-255l105 105v-83l-105 -106v-254z" />
    <glyph glyph-name="Nacute" unicode="&#x143;" horiz-adv-x="595" 
d="M51 0q15 23 21 52t6 55v486q0 26 -6 55t-21 52h69l366 -514v407q0 26 -5.5 55t-21.5 52h85q-6 -9 -16 -34t-10 -73v-504q1 -44 -26.5 -67t-69.5 -22q-8 0 -14 2q11 8 16 20.5t5 26t-4.5 27t-12.5 25.5l-303 425v-419q0 -48 10.5 -73t16.5 -34h-85zM210 741l67 152h108
l-131 -152h-44z" />
    <glyph glyph-name="nacute" unicode="&#x144;" horiz-adv-x="507" 
d="M440 338v-231q0 -48 10.5 -72.5t16.5 -34.5h-160q16 23 21.5 52t5.5 55q0 62 -0.5 116t-0.5 116q0 69 -22.5 102.5t-54.5 33.5q-31 0 -54 -33.5t-23 -102.5v-232q0 -48 10.5 -72.5t16.5 -34.5h-160q16 23 21.5 52t5.5 55v262q0 18 -2 33.5t-4 26.5q-5 19 -11 30t-10 17
q12 0 31.5 2t39.5 5.5t37.5 9.5t24.5 14v-45q45 45 109 45q30 1 58.5 -8.5t48.5 -29.5q23 -23 34 -56t11 -75zM169 548l66 152h108l-130 -152h-44z" />
    <glyph glyph-name="Ncaron" unicode="&#x147;" horiz-adv-x="594" 
d="M51 0q15 23 21 52t6 55v486q0 26 -6 55t-21 52h69l366 -514v407q0 26 -5.5 55t-20.5 52h85q-7 -9 -17 -34t-10 -73v-504q1 -44 -26.5 -67t-69.5 -22q-8 0 -14 2q11 8 16 20.5t5 26t-4.5 27t-12.5 25.5l-303 425v-419q0 -48 10.5 -73t16.5 -34h-85zM205 893l93 -101
l92 101h47l-77 -152h-124l-77 152h46z" />
    <glyph glyph-name="ncaron" unicode="&#x148;" horiz-adv-x="507" 
d="M440 338v-231q0 -48 10.5 -72.5t16.5 -34.5h-160q16 23 21.5 52t5.5 55q0 62 -0.5 116t-0.5 116q0 69 -22.5 102.5t-54.5 33.5q-31 0 -53.5 -33.5t-23.5 -102.5v-232q0 -48 10.5 -72.5t16.5 -34.5h-160q16 23 21.5 52t5.5 55v262q0 18 -2 33.5t-4 26.5q-5 19 -11 30
t-10 17q12 0 31.5 2t39.5 5.5t37.5 9.5t24.5 14v-45q45 45 109 45q30 1 58.5 -8.5t48.5 -29.5q23 -23 34 -56t11 -75zM164 700l93 -101l92 101h47l-78 -152h-124l-76 152h46z" />
    <glyph glyph-name="Omacron" unicode="&#x14c;" horiz-adv-x="696" 
d="M348 700q63 0 119 -27.5t98 -75t66 -111.5t24 -136t-24 -136t-66 -111.5t-98 -75t-119 -27.5q-64 0 -120 27.5t-97.5 75t-65.5 111.5t-24 136t24 136t65.5 111.5t97.5 75t120 27.5zM176 776v83h344v-83h-344zM537 401q-17 65 -47 118t-67 88.5t-78.5 51t-80.5 5.5
q-39 -11 -67 -45t-42.5 -83.5t-14 -110.5t17.5 -126q18 -65 48 -118t67 -88.5t78.5 -50.5t80.5 -5q39 11 67 44.5t42.5 83t14 110.5t-18.5 126z" />
    <glyph glyph-name="omacron" unicode="&#x14d;" horiz-adv-x="525" 
d="M483 254q0 -52 -17.5 -98.5t-47.5 -81t-70 -54.5t-86 -20q-45 0 -85 20t-70 54.5t-47.5 81t-17.5 98.5q0 53 17.5 99t47.5 80t70 54t85 20q46 0 86 -20t70 -54t47.5 -80t17.5 -99zM91 582v84h343v-84h-343zM154 224q12 -46 31.5 -83.5t42 -63.5t47.5 -38t47 -6
q23 6 38 28.5t21.5 56.5t4 76.5t-14.5 88.5t-31.5 84t-42.5 64t-47 38t-47 6q-22 -6 -37.5 -29t-22 -57t-4 -76.5t14.5 -88.5z" />
    <glyph glyph-name="Obreve" unicode="&#x14e;" horiz-adv-x="696" 
d="M41 350q0 72 24 136t65.5 111.5t97.5 75t120 27.5q63 0 119 -27.5t98 -75t66 -111.5t24 -136t-24 -136t-66 -111.5t-98 -75t-119 -27.5q-64 0 -120 27.5t-97.5 75t-65.5 111.5t-24 136zM238 893q2 -10 9.5 -23t21.5 -24.5t33.5 -19t45.5 -7.5t45.5 7.5t33.5 19t21.5 24.5
t9.5 23h37q0 -20 -7.5 -46.5t-24.5 -50t-45 -39.5t-70 -16t-70 16t-45.5 39.5t-24.5 50t-7 46.5h37zM264 664q-39 -11 -67 -45t-42.5 -83.5t-14 -110.5t17.5 -126q18 -65 48 -118t67 -88.5t78.5 -50.5t80.5 -5q39 11 67 44.5t42.5 83t14 110.5t-18.5 126q-17 65 -47 118
t-67 88.5t-78.5 51t-80.5 5.5z" />
    <glyph glyph-name="obreve" unicode="&#x14f;" horiz-adv-x="525" 
d="M483 254q0 -52 -17.5 -98.5t-47.5 -81t-70 -54.5t-86 -20q-45 0 -85 20t-70 54.5t-47.5 81t-17.5 98.5q0 53 17.5 99t47.5 80t70 54t85 20q46 0 86 -20t70 -54t47.5 -80t17.5 -99zM262 548q-42 0 -70 16t-45 39.5t-24.5 50t-7.5 46.5h38q2 -11 9.5 -24t21 -24t33 -18.5
t45.5 -7.5t46 7.5t33.5 18.5t21 24t9.5 24h37q0 -20 -7 -46.5t-24.5 -50t-45.5 -39.5t-70 -16zM154 224q12 -46 31.5 -83.5t42 -63.5t47.5 -38t47 -6q23 6 38 28.5t21.5 56.5t4 76.5t-14.5 88.5t-31.5 84t-42.5 64t-47 38t-47 6q-22 -6 -37.5 -29t-22 -57t-4 -76.5
t14.5 -88.5z" />
    <glyph glyph-name="Ohungarumlaut" unicode="&#x150;" horiz-adv-x="696" 
d="M538 401q-18 65 -48 118t-67 88.5t-78.5 51t-80.5 5.5q-39 -11 -67 -45t-42.5 -83.5t-14 -110.5t18.5 -126q17 -65 47 -118t67 -88.5t78.5 -50.5t80.5 -5q39 11 67 44.5t42.5 83t14 110.5t-17.5 126zM182 741l66 152h109l-131 -152h-44zM339 741l66 152h109l-131 -152
h-44zM41 350q0 72 24 136t65.5 111.5t97.5 75t120 27.5q63 0 119 -27.5t98 -75t66 -111.5t24 -136t-24 -136t-66 -111.5t-98 -75t-119 -27.5q-64 0 -120 27.5t-97.5 75t-65.5 111.5t-24 136z" />
    <glyph glyph-name="ohungarumlaut" unicode="&#x151;" horiz-adv-x="525" 
d="M483 254q0 -52 -17.5 -98.5t-47.5 -81t-70 -54.5t-86 -20q-45 0 -85 20t-70 54.5t-47.5 81t-17.5 98.5q0 53 17.5 99t47.5 80t70 54t85 20q46 0 86 -20t70 -54t47.5 -80t17.5 -99zM125 548l66 152h109l-131 -152h-44zM282 548l66 152h109l-131 -152h-44zM154 224
q12 -46 31.5 -83.5t42 -63.5t47.5 -38t47 -6q23 6 38 28.5t21.5 56.5t4 76.5t-14.5 88.5t-31.5 84t-42.5 64t-47 38t-47 6q-22 -6 -37.5 -29t-22 -57t-4 -76.5t14.5 -88.5z" />
    <glyph glyph-name="OE" unicode="&#x152;" horiz-adv-x="993" 
d="M537 401q-17 65 -47 118t-67 88.5t-78.5 51t-80.5 5.5q-39 -11 -67 -45t-42.5 -83.5t-14 -110.5t17.5 -126q18 -65 48 -118t67 -88.5t78.5 -50.5t80.5 -5q28 8 50.5 28t38.5 49.5t24.5 67t9.5 79.5v17q-1 29 -5 60t-13 63zM41 350q0 72 24 136t65.5 111.5t97.5 75
t120 27.5q60 0 112.5 -24.5t94.5 -66.5q-2 23 -7.5 47.5t-19.5 43.5h395l21 -144q-8 33 -25 56t-38 38t-43.5 21.5t-42.5 6.5h-134v-217q11 17 34 19q20 2 38.5 -4t37.5 -12q12 -3 27 -6.5t31 -2t30 8.5t23 25q14 -26 10.5 -51.5t-22.5 -39.5q-12 -10 -26.5 -12.5
t-25.5 -1.5q-28 1 -51 15l-16 10t-17 11q-10 8 -23 16t-24 11.5t-18.5 -0.5t-7.5 -21v-404h43q20 0 40.5 2t40.5 7q26 6 50.5 19t42.5 33q13 14 22 31t12 36q30 -17 38 -44t-1 -52q-8 -23 -27.5 -38.5t-47.5 -15.5h-346q14 20 19.5 44t7.5 47q-42 -42 -94.5 -66.5
t-112.5 -24.5q-64 0 -120 27.5t-97.5 75t-65.5 111.5t-24 136z" />
    <glyph glyph-name="oe" unicode="&#x153;" horiz-adv-x="836" 
d="M433 94q-31 -43 -75 -68.5t-97 -25.5q-45 0 -85 20t-70 54.5t-47.5 81t-17.5 98.5q0 53 17.5 99t47.5 80t70 54t85 20q53 0 97.5 -25.5t74.5 -68.5q11 15 24 28.5t28 24.5q14 11 30 18.5t33 12.5t36 7.5t39 2.5q45 0 88 -14.5t68 -55.5q22 -33 15 -74q-3 -19 -15 -31.5
t-29 -19.5t-37 -9.5t-41 -3.5q-22 -1 -42.5 -1h-36.5h-109q0 -22 2.5 -42t7.5 -39q9 -33 24 -62t36 -52q23 -25 54.5 -38.5t64.5 -13.5q32 -1 62 14t48 38q2 -2 5 -4.5t6 -5.5q-34 -48 -83 -70.5t-107 -22.5q-52 0 -96.5 25.5t-74.5 68.5zM484 319h80q15 0 30 1t29 4
q37 7 59 30t19 61q-2 29 -23 50.5t-52 20.5q-45 -1 -77 -25.5t-49 -66.5q-7 -17 -10.5 -36t-5.5 -39v0zM153 224q12 -46 31.5 -83.5t42 -63.5t47.5 -38t47 -6q23 6 38 28.5t21.5 56.5t4 76.5t-14.5 88.5t-31.5 84t-42.5 64t-47 38t-47 6q-22 -6 -37.5 -29t-22 -57t-4 -76.5
t14.5 -88.5z" />
    <glyph glyph-name="Racute" unicode="&#x154;" horiz-adv-x="560" 
d="M52 0q15 23 21 52t6 55v486q0 26 -6 55t-21 52h271q34 0 64.5 -13t53 -35.5t35.5 -52.5t13 -64q0 -35 -13.5 -65t-36.5 -53q-17 -17 -34 -26t-35 -14q-4 -1 -7.5 -2t-7.5 -2q22 0 38 -8.5t27 -22.5q19 -23 27.5 -52.5t12 -62.5t6 -67t9.5 -66q6 -27 19 -53.5t38 -40.5
q-12 0 -25 -0.5t-26 0.5q-60 1 -91 36q-19 20 -28.5 47.5t-11.5 61.5q-2 23 -1.5 47t-0.5 46.5t-4 44t-12 39.5q-9 20 -25 28t-34 7q-15 0 -29.5 -6t-26.5 -16q-22 -17 -32 -39v-189q0 -26 5.5 -55t21.5 -52h-160zM205 741l66 152h108l-131 -152h-43zM185 326q7 14 16 25
t20 19q14 11 29 18t31 13q19 8 34.5 15.5t27.5 18.5q17 16 29 41q5 12 7.5 26.5t3.5 32.5q0 30 -11 56t-31 45.5t-46 30.5t-56 11h-54v-352z" />
    <glyph glyph-name="racute" unicode="&#x155;" horiz-adv-x="448" 
d="M325 504q45 -7 71 -39t24 -78q-1 -32 -17 -54t-39 -32t-49 -7.5t-48 20.5q19 11 33 28t18 39q3 20 -1.5 41.5t-18.5 35.5q-11 11 -28 15.5t-35 -2.5q-13 -5 -22.5 -15t-15.5 -24q-9 -17 -13.5 -41t-4.5 -52v-232q0 -48 10.5 -72.5t16.5 -34.5h-160q15 23 21 52t6 55v262
q0 18 -2 33.5t-5 26.5q-4 19 -10 30t-10 17q12 0 31.5 2t39.5 5.5t37.5 9.5t24.5 14v-45q26 21 56 33t63 12q14 0 27 -3zM146 548l66 152h108l-131 -152h-43z" />
    <glyph glyph-name="Rcaron" unicode="&#x158;" horiz-adv-x="560" 
d="M52 0q16 23 21.5 52t5.5 55v486q0 26 -5.5 55t-21.5 52h272q34 0 64 -13t52.5 -35.5t35.5 -52.5t13 -64q0 -35 -13.5 -65t-36.5 -53q-17 -17 -33.5 -26t-34.5 -14q-5 -1 -8.5 -2t-7.5 -2q22 0 38 -8.5t27 -22.5q19 -23 27.5 -52.5t12.5 -62.5t6.5 -67t9.5 -66
q5 -27 18 -53.5t38 -40.5q-12 0 -24.5 -0.5t-25.5 0.5q-61 1 -92 36q-19 20 -28 47.5t-12 61.5q-2 23 -1.5 47t0 46.5t-3.5 44t-12 39.5q-9 20 -25.5 28t-34.5 7q-14 0 -29 -6t-27 -16q-22 -17 -32 -39v-189q0 -26 5.5 -55t21.5 -52h-160zM199 893l93 -101l93 101h46
l-77 -152h-124l-77 152h46zM185 326q14 27 36 44q14 11 29.5 18t30.5 13q19 8 34.5 15.5t28.5 18.5q16 16 28 41q11 25 11 59q0 30 -11 56t-31 45.5t-46 30.5t-56 11h-54v-352z" />
    <glyph glyph-name="rcaron" unicode="&#x159;" horiz-adv-x="448" 
d="M325 504q45 -7 71 -39t24 -78q-1 -32 -16.5 -54t-38.5 -32t-49 -7.5t-49 20.5q19 11 33 28t18 39q3 20 -1.5 41.5t-18.5 35.5q-11 11 -28 15.5t-35 -2.5q-12 -5 -21.5 -15t-16.5 -24q-9 -17 -13.5 -41t-4.5 -52v-232q0 -48 10.5 -72.5t16.5 -34.5h-160q15 23 21 52t6 55
v262q0 18 -2 33.5t-5 26.5q-4 19 -10 30t-10 17q12 0 31.5 2t39.5 5.5t37.5 9.5t24.5 14v-45q26 21 56 33t63 12q14 0 27 -3zM140 700l93 -101l93 101h46l-77 -152h-124l-77 152h46z" />
    <glyph glyph-name="Sacute" unicode="&#x15a;" horiz-adv-x="551" 
d="M241 227q-35 8 -58.5 -7.5t-32.5 -42.5q-10 -30 -0.5 -65.5t42.5 -61.5q17 -13 37.5 -20t43.5 -7q28 0 51 9t40 25q20 18 30.5 39t13.5 43t-1 44t-13 42q-13 29 -35 52t-45 44q-26 24 -56 46t-60 45q-24 18 -45.5 37.5t-38.5 42.5q-15 20 -24 43t-8 50q0 20 7.5 38.5
t23.5 35.5q15 16 35 24.5t42.5 12t45.5 4t43 0.5q26 -1 46.5 -3.5t38 -5.5t33 -5.5t30.5 -1.5q30 0 47 14v-191q-13 37 -29 68t-39 53.5t-54.5 36t-76.5 14.5q-17 1 -33 -2.5t-28 -11.5t-19 -21.5t-7 -33.5q-1 -17 5 -32.5t16 -29.5q7 -10 15 -17t16 -15q32 -30 69 -57.5
t60 -46.5q29 -24 55.5 -48.5t45.5 -54.5q20 -32 29.5 -68t2.5 -78q-6 -41 -30.5 -76.5t-68.5 -58.5q-56 -30 -130 -28q-38 0 -74 7.5t-63 21.5q-29 15 -52 38.5t-36 52.5q-14 35 -10 72t24 64q17 23 43 35.5t60 6.5q26 -5 46.5 -22.5t29.5 -48.5zM184 741l66 152h108
l-131 -152h-43z" />
    <glyph glyph-name="sacute" unicode="&#x15b;" horiz-adv-x="456" 
d="M195 164q-20 5 -39.5 -10t-25.5 -35q-5 -17 -0.5 -36t17.5 -35q11 -14 30 -23t42 -9q23 -1 42 8t33 24q14 14 20.5 33t4.5 39q-4 38 -37 70q-20 20 -43 36l-46 32q-30 19 -58 39t-48 47q-13 16 -20.5 33t-7.5 35q0 26 18 50q19 25 51 35q23 8 48 9.5t48 1.5
q38 -1 62.5 -7t47.5 -5q22 0 35 10v-173q-9 24 -21.5 52t-29.5 52q-8 11 -16 20t-17 17q-11 9 -30 13.5t-34 5.5q-24 1 -39 -5.5t-23 -17.5q-11 -17 -6 -39t28 -42q22 -20 46 -35.5t49 -30.5q26 -17 51 -35.5t47 -42.5q42 -49 40 -102q-2 -43 -32 -80q-29 -35 -72.5 -50
t-90.5 -14q-29 0 -55.5 5.5t-46.5 15.5q-22 11 -39 28.5t-27 38.5q-11 25 -7.5 51.5t18.5 46.5q12 17 31.5 26.5t45.5 4.5q19 -4 34 -16.5t22 -35.5zM141 548l66 152h109l-131 -152h-44z" />
    <glyph glyph-name="Scircumflex" unicode="&#x15c;" horiz-adv-x="551" 
d="M241 227q-35 8 -58.5 -7.5t-32.5 -42.5q-10 -30 -0.5 -65.5t42.5 -61.5q17 -13 37.5 -20t43.5 -7q28 0 51 9t40 25q20 18 30.5 39t13.5 43t-1 44t-13 42q-13 29 -35 52t-45 44q-26 24 -56 46t-60 45q-24 18 -45.5 37.5t-38.5 42.5q-15 20 -24 43t-8 50q0 20 7.5 38.5
t23.5 35.5q15 16 35 24.5t42.5 12t45.5 4t43 0.5q26 -1 46.5 -3.5t38 -5.5t33 -5.5t30.5 -1.5q30 0 47 14v-191q-13 37 -28.5 68t-38.5 53.5t-55 36t-77 14.5q-17 1 -33 -2.5t-28 -11.5t-19 -21.5t-7 -33.5q-1 -17 5 -32.5t16 -29.5q7 -10 15 -17t16 -15q32 -30 69 -57.5
t60 -46.5q29 -24 55.5 -48.5t45.5 -54.5q20 -32 29.5 -68t2.5 -78q-6 -41 -30.5 -76.5t-68.5 -58.5q-56 -30 -130 -28q-38 0 -74 7.5t-63 21.5q-29 15 -52 38.5t-36 52.5q-14 35 -10 72t24 64q17 23 43 35.5t60 6.5q26 -5 46.5 -22.5t29.5 -48.5zM364 741l-93 102l-93 -102
h-46l77 152h124l77 -152h-46z" />
    <glyph glyph-name="Scedilla" unicode="&#x15e;" horiz-adv-x="551" 
d="M241 227q-35 8 -58.5 -7.5t-32.5 -42.5q-10 -30 -0.5 -65.5t42.5 -61.5q17 -13 37.5 -20t43.5 -7q28 0 51 9t40 25q20 18 30.5 39t13.5 43t-1 44t-13 42q-13 29 -35 52t-45 44q-26 24 -56 46t-60 45q-24 18 -45.5 37.5t-38.5 42.5q-15 20 -24 43t-8 50q0 20 7.5 38.5
t23.5 35.5q15 16 35 24.5t42.5 12t45.5 4t43 0.5q26 -1 46.5 -3.5t38 -5.5t33 -5.5t30.5 -1.5q30 0 47 14v-191q-13 37 -29 68t-39 53.5t-54.5 36t-76.5 14.5q-17 1 -33 -2.5t-28 -11.5t-19 -21.5t-7 -33.5q-1 -17 5 -32.5t16 -29.5q7 -10 15 -17t16 -15q32 -30 69 -57.5
t60 -47.5q29 -23 55.5 -47.5t45.5 -54.5q20 -32 29.5 -68t2.5 -78q-6 -41 -30.5 -76.5t-68.5 -58.5q-52 -28 -120 -28l-20 -26q16 -5 31 -11.5t23 -16.5q16 -19 16 -47q0 -38 -31 -65q-31 -28 -80 -28q-10 0 -29 2.5t-34 4.5l7 18q30 -4 52 8.5t27 34.5q5 20 -8.5 36
t-38.5 13l55 77q-33 2 -63.5 9.5t-53.5 19.5q-29 15 -52 38.5t-36 52.5q-14 35 -10 72t24 64q17 23 43 35.5t60 6.5q26 -5 46.5 -22.5t29.5 -48.5z" />
    <glyph glyph-name="scedilla" unicode="&#x15f;" horiz-adv-x="455" 
d="M195 164q-20 5 -39.5 -10t-25.5 -35q-5 -17 -0.5 -36t17.5 -35q11 -14 30 -23t42 -9q23 -1 42 8t33 24q14 14 20.5 33t4.5 39q-4 38 -37 70q-20 20 -43 36l-46 32q-30 19 -58 39t-48 47q-13 16 -20.5 33t-7.5 35q0 26 18 50q19 25 51 35q23 8 48 9.5t48 1.5
q38 -1 62.5 -7t47.5 -5q22 0 35 10v-173q-9 24 -21.5 52t-29.5 52q-8 11 -16 20t-17 17q-11 9 -30 13.5t-34 5.5q-24 1 -39 -5.5t-23 -17.5q-11 -17 -6 -39t28 -42q22 -20 46 -35.5t49 -30.5q26 -17 51 -35.5t47 -42.5q42 -49 40 -102q-2 -43 -32 -80q-27 -32 -65.5 -47
t-80.5 -17l-20 -26q17 -4 32 -10.5t23 -16.5q16 -21 16 -47q0 -37 -31 -65q-32 -29 -80 -29q-10 0 -29 2.5t-34 4.5l7 19q29 -4 51 8.5t27 34.5q5 20 -8 36t-38 13l54 76q-26 2 -49 7t-40 14q-22 11 -39 28.5t-27 38.5q-11 25 -7.5 51.5t18.5 46.5q12 17 31.5 26.5t45.5 4.5
q19 -4 34 -16.5t22 -35.5z" />
    <glyph glyph-name="Scaron" unicode="&#x160;" horiz-adv-x="551" 
d="M240 227q-35 8 -58 -7.5t-32 -42.5q-10 -30 -0.5 -65.5t42.5 -61.5q17 -13 37.5 -20t43.5 -7q28 0 51 9t41 25q39 36 43.5 82t-13.5 86q-14 29 -35.5 52t-44.5 44q-26 24 -57 46t-60 45q-24 18 -45.5 37.5t-38.5 42.5q-15 20 -24 43t-8 50q0 20 7.5 38.5t23.5 35.5
q15 16 35 24.5t42.5 12t45.5 4t43 0.5q26 -1 46.5 -3.5t38 -5.5t33 -5.5t30.5 -1.5q29 0 48 14v-191q-13 37 -29 68t-39 53.5t-55 36t-77 14.5q-17 1 -33 -2.5t-28 -11.5t-19 -21.5t-7 -33.5q-1 -17 5 -32.5t16 -29.5q7 -10 15 -17t16 -15q32 -30 69 -57.5t60 -46.5
q29 -24 55.5 -48.5t45.5 -54.5q20 -32 29.5 -68t3.5 -78q-7 -41 -31 -76.5t-69 -58.5q-56 -30 -130 -28q-38 0 -74 7.5t-63 21.5q-29 15 -52 38.5t-36 52.5q-14 35 -10 72t24 64q17 23 43 35.5t60 6.5q26 -5 46.5 -22.5t28.5 -48.5zM178 893l93 -101l93 101h46l-77 -152
h-124l-77 152h46z" />
    <glyph glyph-name="scaron" unicode="&#x161;" horiz-adv-x="456" 
d="M195 164q-20 5 -39.5 -10t-25.5 -35q-5 -17 -0.5 -36t17.5 -35q11 -14 30 -23t42 -9q23 -1 42 8t33 24q14 14 20.5 33t4.5 39q-4 38 -37 70q-20 20 -43 36l-46 32q-30 19 -58 39t-48 47q-13 16 -20.5 33t-7.5 35q0 26 18 50q19 25 51 35q23 8 48 9.5t48 1.5
q38 -1 62.5 -7t47.5 -5q22 0 35 10v-173q-9 24 -21.5 52t-29.5 52q-8 11 -16 20t-17 17q-11 9 -30 13.5t-34 5.5q-24 1 -39 -5.5t-23 -17.5q-11 -17 -6 -39t28 -42q22 -20 46 -35.5t49 -30.5q26 -17 51 -35.5t47 -42.5q42 -49 40 -102q-2 -43 -32 -80q-29 -35 -72.5 -50
t-90.5 -14q-29 0 -55.5 5.5t-46.5 15.5q-22 11 -39 28.5t-27 38.5q-11 25 -7.5 51.5t18.5 46.5q12 17 31.5 26.5t45.5 4.5q19 -4 34 -16.5t22 -35.5zM136 700l92 -101l93 101h47l-77 -152h-124l-78 152h47z" />
    <glyph glyph-name="Tcaron" unicode="&#x164;" horiz-adv-x="522" 
d="M208 678h-54q-27 0 -48 -14.5t-36.5 -38t-27 -54.5t-19.5 -64v193h475v-193q-8 33 -19 64t-27 54.5t-36.5 38t-47.5 14.5h-54v-571q0 -26 5.5 -55t21.5 -52h-160q15 23 21 52t6 55v571zM168 893l93 -101l92 101h47l-77 -152h-124l-77 152h46z" />
    <glyph glyph-name="Utilde" unicode="&#x168;" horiz-adv-x="546" 
d="M180 593v-391q0 -57 33 -92.5t100 -35.5t98 35.5t31 92.5v391q0 26 -5.5 55t-21.5 52h84q-7 -9 -17 -34t-10 -73v-403q0 -42 -13 -77t-37.5 -60t-61 -39t-83.5 -14q-94 0 -148.5 50.5t-54.5 139.5v403q0 26 -6 55t-21 52h160q-7 -9 -17 -34t-10 -73v0zM94 817
q28 46 65.5 66t92.5 3q4 -1 7.5 -2t8.5 -3q24 -9 48 -18.5t47 -13t43.5 3t38.5 29.5l7 -19q-29 -47 -66.5 -67t-92.5 -3q-4 2 -7.5 2.5t-7.5 2.5q-24 9 -48.5 18.5t-47.5 12.5t-43.5 -3t-38.5 -29z" />
    <glyph glyph-name="utilde" unicode="&#x169;" horiz-adv-x="508" 
d="M436 138q0 -18 2 -33t4 -27q5 -19 11 -30t10 -17q-12 0 -31.5 -2t-39.5 -5.5t-37 -9.5t-25 -14v46q-45 -46 -109 -46q-30 0 -58.5 9.5t-48.5 28.5q-23 23 -34 56.5t-11 75.5v199q0 18 -2 33.5t-4 26.5q-5 19 -11 30t-10 17q12 0 31.5 2t39.5 5.5t37.5 9.5t24.5 14v-148
v-191q0 -68 23 -102t55 -34q31 0 53.5 33.5t23.5 102.5v201q0 18 -2 33.5t-4 26.5q-5 19 -11 30t-10 17q12 0 31.5 2t39.5 5.5t37.5 9.5t24.5 14v-369zM74 623q28 47 65 67t93 3q4 -1 7.5 -2t8.5 -3q24 -9 47.5 -18.5t46.5 -13t43.5 3t38.5 29.5l7 -20q-29 -46 -66 -66
t-92 -3q-5 2 -8.5 2.5t-7.5 2.5q-24 9 -48.5 18.5t-47.5 12.5t-43.5 -3t-38.5 -29z" />
    <glyph glyph-name="Umacron" unicode="&#x16a;" horiz-adv-x="545" 
d="M179 202q0 -57 33.5 -92.5t100.5 -35.5t97.5 35.5t30.5 92.5v391q0 26 -5.5 55t-21.5 52h84q-6 -9 -16.5 -34t-10.5 -73v-403q0 -42 -13 -77t-37.5 -60t-61 -39t-83.5 -14q-94 0 -148.5 50.5t-54.5 139.5v403q0 26 -5.5 55t-21.5 52h160q-6 -9 -16.5 -34t-10.5 -73v-391z
M100 776v83h344v-83h-344z" />
    <glyph glyph-name="umacron" unicode="&#x16b;" horiz-adv-x="508" 
d="M436 359v-221q0 -18 2 -33t4 -27q5 -19 11 -30t10 -17q-12 0 -31.5 -2t-39.5 -5.5t-37 -9.5t-25 -14v46q-45 -46 -109 -46q-30 0 -58.5 9.5t-48.5 28.5q-23 23 -34 56.5t-11 75.5v199q0 18 -2 33.5t-4 26.5q-5 19 -11 30t-10 17q12 0 31.5 2t39.5 5.5t37.5 9.5t24.5 14
v-148v-191q0 -68 23 -102t55 -34q31 0 53.5 33.5t23.5 102.5v201q0 18 -2 33.5t-4 26.5q-5 19 -11 30t-10 17q12 0 31.5 2t39.5 5.5t37.5 9.5t24.5 14v-148v0zM81 582v84h343v-84h-343z" />
    <glyph glyph-name="Ubreve" unicode="&#x16c;" horiz-adv-x="545" 
d="M179 202q0 -57 33.5 -92.5t100.5 -35.5t97.5 35.5t30.5 92.5v391q0 26 -5.5 55t-21.5 52h84q-6 -9 -16.5 -34t-10.5 -73v-403q0 -42 -13 -77t-37.5 -60t-61 -39t-83.5 -14q-94 0 -148.5 50.5t-54.5 139.5v403q0 26 -5.5 55t-21.5 52h160q-6 -9 -16.5 -34t-10.5 -73v-391z
M272 741q-42 0 -70 16t-45 39.5t-24.5 50t-7.5 46.5h37q2 -10 9.5 -23t21.5 -24.5t33.5 -19t45.5 -7.5t45.5 7.5t33.5 19t21.5 24.5t9.5 23h37q0 -20 -7 -46.5t-24.5 -50t-45.5 -39.5t-70 -16z" />
    <glyph glyph-name="ubreve" unicode="&#x16d;" horiz-adv-x="508" 
d="M436 359v-221q0 -18 2 -33t4 -27q5 -19 11 -30t10 -17q-12 0 -31.5 -2t-39.5 -5.5t-37 -9.5t-25 -14v46q-45 -46 -109 -46q-30 0 -58.5 9.5t-48.5 28.5q-23 23 -34 56.5t-11 75.5v199q0 18 -2 33.5t-4 26.5q-5 19 -11 30t-10 17q12 0 31.5 2t39.5 5.5t37.5 9.5t24.5 14
v-148v-191q0 -68 23 -102t55 -34t54 33.5t23 102.5v201q0 18 -2 33.5t-4 26.5q-5 19 -11 30t-10 17q12 0 31.5 2t39.5 5.5t37.5 9.5t24.5 14v-148v0zM253 548q-42 0 -70 16t-45.5 39.5t-24.5 50t-7 46.5h37q2 -11 9.5 -24t21 -24t33.5 -18.5t46 -7.5t45.5 7.5t33 18.5t21 24
t9.5 24h37q0 -20 -7 -46.5t-24 -50t-45 -39.5t-70 -16z" />
    <glyph glyph-name="Uring" unicode="&#x16e;" horiz-adv-x="545" 
d="M498 700q-6 -9 -16.5 -34t-10.5 -73v-403q0 -42 -13 -77t-37.5 -60t-61 -39t-83.5 -14q-94 0 -148.5 50.5t-54.5 139.5v403q0 26 -5.5 55t-21.5 52h160q-6 -9 -16.5 -34t-10.5 -73v-391q0 -57 33.5 -92.5t100.5 -35.5t97.5 35.5t30.5 92.5v391q0 26 -5.5 55t-21.5 52h84z
M333 807q0 20 -14.5 34t-34.5 14t-34 -14t-14 -34t14 -34.5t34 -14.5t34.5 14.5t14.5 34.5zM198 807q0 18 7 33.5t18.5 27t27 18.5t33.5 7t34 -7t27.5 -18.5t18.5 -27t7 -33.5q0 -36 -25.5 -61.5t-61.5 -25.5q-18 0 -33.5 7t-27 18.5t-18.5 27.5t-7 34z" />
    <glyph glyph-name="uring" unicode="&#x16f;" horiz-adv-x="508" 
d="M436 359v-221q0 -18 2 -33t4 -27q5 -19 11 -30t10 -17q-12 0 -31.5 -2t-39.5 -5.5t-37 -9.5t-25 -14v46q-45 -46 -109 -46q-30 0 -58.5 9.5t-48.5 28.5q-23 23 -34 56.5t-11 75.5v199q0 18 -2 33.5t-4 26.5q-5 19 -11 30t-10 17q12 0 31.5 2t39.5 5.5t37.5 9.5t24.5 14
v-148v-191q0 -68 23 -102t55 -34t54 33.5t23 102.5v201q0 18 -2 33.5t-4 26.5q-5 19 -11 30t-10 17q12 0 31.5 2t39.5 5.5t37.5 9.5t24.5 14v-148v0zM253 662q-20 0 -34.5 -14.5t-14.5 -34.5t14.5 -34t34.5 -14t34 14t14 34t-14 34.5t-34 14.5zM339 613q0 -18 -7 -33.5
t-18.5 -27t-27 -18.5t-33.5 -7t-34 7t-27.5 18.5t-18.5 27t-7 33.5q0 36 25.5 61.5t61.5 25.5q18 0 33.5 -7t27 -18.5t18.5 -27.5t7 -34z" />
    <glyph glyph-name="Uhungarumlaut" unicode="&#x170;" horiz-adv-x="546" 
d="M179 202q0 -57 33.5 -92.5t100.5 -35.5t97.5 35.5t30.5 92.5v391q0 26 -5.5 55t-21.5 52h84q-6 -9 -16.5 -34t-10.5 -73v-403q0 -42 -13 -77t-37.5 -60t-61 -39t-83.5 -14q-94 0 -148.5 50.5t-54.5 139.5v403q0 26 -5.5 55t-21.5 52h160q-6 -9 -16.5 -34t-10.5 -73v-391z
M139 741l66 152h108l-131 -152h-43zM296 741l66 152h108l-131 -152h-43z" />
    <glyph glyph-name="uhungarumlaut" unicode="&#x171;" horiz-adv-x="508" 
d="M436 138q0 -18 2 -33t4 -27q5 -19 11 -30t10 -17q-12 0 -31.5 -2t-39.5 -5.5t-37 -9.5t-25 -14v46q-45 -46 -109 -46q-30 0 -58.5 9.5t-48.5 28.5q-23 23 -34 56.5t-11 75.5v199q0 18 -2 33.5t-4 26.5q-5 19 -11 30t-10 17q12 0 31.5 2t39.5 5.5t37.5 9.5t24.5 14v-148
v-191q0 -68 23 -102t55 -34t54 33.5t23 102.5v201q0 18 -2 33.5t-4 26.5q-5 19 -11 30t-10 17q12 0 31.5 2t39.5 5.5t37.5 9.5t24.5 14v-369zM119 548l66 152h109l-131 -152h-44zM276 548l66 152h109l-131 -152h-44z" />
    <glyph glyph-name="Uogonek" unicode="&#x172;" horiz-adv-x="544" 
d="M206 700q-6 -9 -16.5 -34t-10.5 -73v-391q0 -57 33 -92.5t100 -35.5t98 35.5t31 92.5v391q0 26 -5.5 55t-21.5 52h84q-6 -9 -16.5 -34t-10.5 -73v-403q0 -75 -39.5 -125t-114.5 -62q-12 -14 -25 -33.5t-20 -39.5t-3.5 -37t14 -28t25.5 -14t30 6l8 -13q-12 -14 -33 -25.5
t-44 -11.5q-28 0 -45 14q-24 19 -26 49q-1 17 6 35t19 32q11 14 24 25t26 21q5 5 10.5 9t11.5 9q-5 -1 -9.5 -1h-9.5q-94 0 -148.5 50.5t-54.5 139.5v403q0 26 -6 55t-21 52h160z" />
    <glyph glyph-name="uogonek" unicode="&#x173;" horiz-adv-x="508" 
d="M436 138q0 -18 2 -33t4 -27q5 -18 11 -29.5t10 -17.5q-12 0 -31.5 -2t-39.5 -5.5t-37 -9.5t-25 -14v1q-12 -14 -24.5 -32.5t-19.5 -38.5t-3 -37t14.5 -28t25.5 -14t30 6l7 -13q-11 -15 -32 -26t-45 -11q-26 0 -45 14q-25 19 -25 49q-1 17 6 35t18 32q11 13 24.5 24
t25.5 22q8 7 20 16.5t23 17.5v29q-45 -46 -110 -46q-29 0 -57.5 9.5t-48.5 28.5q-23 23 -34 56.5t-11 75.5v189v10q0 18 -2 33.5t-5 26.5q-4 19 -10 30t-10 17q12 0 31.5 2t39.5 5.5t37.5 9.5t24.5 14v-148v-191q0 -68 23 -102t55 -34q31 0 53.5 33.5t23.5 102.5v201
q0 18 -2 33.5t-4 26.5q-5 19 -11 30t-10 17q12 0 31.5 2t39.5 5.5t37.5 9.5t24.5 14v-148v-221z" />
    <glyph glyph-name="Wcircumflex" unicode="&#x174;" horiz-adv-x="823" 
d="M434 271q-8 -20 -16 -38t-14 -35q-13 -34 -22 -56.5l-17 -42.5l-17 -42.5t-22 -56.5h-87l-172 607q-12 43 -30.5 64.5t-35.5 28.5h196q-39 -25 -22 -88l144 -538q7 19 17 44.5t20.5 53t20.5 55t17 49.5q5 14 10 30t10 33l-76 268q-12 43 -30.5 64.5t-35.5 28.5h196
q-18 -12 -24 -34t3 -54l144 -538q19 51 37 102t35 103q17 51 30 104.5t16 104.5q2 26 -1 57.5t-17 55.5q-9 16 -23 26.5t-35 13.5q-33 5 -68 -13q15 45 49.5 67t71.5 21q35 0 63.5 -20.5t37.5 -62.5q8 -32 3.5 -68.5t-15.5 -70.5q-18 -63 -39.5 -121.5t-42.5 -118.5
q-22 -63 -45.5 -127t-46.5 -127h-91zM489 741l-93 102l-92 -102h-47l77 152h124l77 -152h-46z" />
    <glyph glyph-name="Ycircumflex" unicode="&#x176;" horiz-adv-x="505" 
d="M315 107q0 -48 10 -73t16 -34h-160q16 23 21.5 52t5.5 55v151l-140 349q-17 42 -33 63.5t-36 29.5h176q-17 -11 -16 -32.5t13 -52.5l123 -316q13 25 29 53.5t31.5 58t28.5 58.5t19 55q8 36 2.5 63.5t-21.5 43.5q-17 17 -44 17t-63 -20q6 18 17.5 34t27.5 28t36 19t41 7
q44 0 67 -28q25 -31 17 -80q-4 -26 -15 -50t-22 -44l-131 -243v-164zM364 741l-93 102l-93 -102h-46l77 152h124l77 -152h-46z" />
    <glyph glyph-name="Ydieresis" unicode="&#x178;" horiz-adv-x="505" 
d="M315 107q0 -48 10 -73t16 -34h-160q16 23 21.5 52t5.5 55v151l-140 349q-17 42 -33 63.5t-36 29.5h176q-17 -11 -16 -32.5t13 -52.5l123 -316q13 25 29 53.5t31.5 58t28.5 58.5t19 55q8 36 2.5 63.5t-21.5 43.5q-17 17 -44 17t-63 -20q6 18 17.5 34t27.5 28t35.5 19
t41.5 7q44 0 67 -28q25 -31 17 -80q-5 -26 -15.5 -50t-21.5 -44l-131 -243v-164zM244 828q0 -27 -22 -46.5t-53 -19.5q-32 0 -53.5 19.5t-21.5 46.5q0 28 21.5 46.5t53.5 18.5q31 0 53 -18.5t22 -46.5zM435 828q0 -27 -22 -46.5t-53 -19.5q-32 0 -53.5 19.5t-21.5 46.5
q0 28 21.5 46.5t53.5 18.5q31 0 53 -18.5t22 -46.5z" />
    <glyph glyph-name="Zacute" unicode="&#x179;" horiz-adv-x="522" 
d="M203 678q-31 0 -54.5 -14.5t-40.5 -38t-29 -54.5t-20 -64v193h415l-326 -669h90q47 -2 82.5 7.5t55.5 29.5q20 19 26 45t-2 51q-7 23 -25.5 41t-48.5 23q35 19 70.5 17.5t60.5 -21.5q24 -22 30 -53.5t-2 -60.5q-8 -32 -31 -57t-52 -37q-23 -9 -47.5 -13t-50.5 -4
q-75 0 -143.5 0.5t-131.5 0.5l323 678h-149zM172 741l66 152h109l-131 -152h-44z" />
    <glyph glyph-name="zacute" unicode="&#x17a;" horiz-adv-x="456" 
d="M207 486q-34 -1 -57.5 -14t-39.5 -34t-27.5 -48t-21.5 -56v173h349q0 -38 -14.5 -72.5t-38 -66.5t-52 -63t-56.5 -63q-21 -24 -40.5 -49t-34.5 -52t-24 -56.5t-9 -62.5h75q35 -1 60.5 11t38.5 32q14 23 8 50t-39 50q38 22 77 14q20 -5 34.5 -19t18.5 -40q3 -18 -2 -37.5
t-17 -35.5q-20 -24 -52 -35q-17 -7 -36.5 -9.5t-39.5 -2.5h-115t-106 1q0 51 11 94.5t29.5 80t42 68t48.5 58.5q24 27 47 50.5t41 45.5t29 44t11 44h-98zM144 548l65 152h109l-131 -152h-43z" />
    <glyph glyph-name="Zdotaccent" unicode="&#x17b;" horiz-adv-x="522" 
d="M203 678q-31 0 -54.5 -14.5t-40.5 -38t-29 -54.5t-20 -64v193h415l-326 -669h90q47 -2 82.5 7.5t55.5 29.5q20 19 26 45t-2 51q-7 23 -25.5 41t-48.5 23q35 19 70.5 17.5t59.5 -21.5q25 -22 31 -53.5t-2 -60.5q-8 -32 -31 -57t-52 -37q-23 -9 -47.5 -13t-50.5 -4
q-75 0 -143.5 0.5t-131.5 0.5l323 678h-149zM334 828q0 -27 -21.5 -46.5t-53.5 -19.5q-31 0 -53 19.5t-22 46.5q0 28 22 46.5t53 18.5q32 0 53.5 -18.5t21.5 -46.5z" />
    <glyph glyph-name="zdotaccent" unicode="&#x17c;" horiz-adv-x="456" 
d="M208 486q-34 -1 -57.5 -14t-40 -34t-27.5 -48t-22 -56v173h349q0 -38 -14.5 -72.5t-38 -66.5t-52 -63t-56.5 -63q-21 -24 -40.5 -49t-34.5 -52t-24 -56.5t-9 -62.5h75q35 -1 60.5 11t38.5 32q14 23 8 50t-39 50q38 22 76 14q20 -5 35 -19t19 -40q3 -18 -2 -37.5
t-17 -35.5q-19 -24 -51 -35q-18 -7 -37 -9.5t-39 -2.5h-116t-106 1q0 51 11 94.5t29.5 80t42 68t48.5 58.5q24 27 47 50.5t41 45.5t29 44t11 44h-97zM306 634q0 -26 -22 -45.5t-53 -19.5q-32 0 -53.5 19.5t-21.5 45.5q0 29 21.5 47.5t53.5 18.5q31 0 53 -18.5t22 -47.5z" />
    <glyph glyph-name="Zcaron" unicode="&#x17d;" horiz-adv-x="522" 
d="M203 678q-31 0 -54.5 -14.5t-40.5 -38t-29 -54.5t-20 -64v193h415l-325 -669h89q47 -2 82.5 7.5t55.5 29.5q20 19 26 45t-2 51q-7 23 -25.5 41t-48.5 23q35 19 70.5 17.5t60.5 -21.5q24 -22 30 -53.5t-2 -60.5q-8 -32 -31 -57t-52 -37q-23 -9 -47.5 -13t-50.5 -4
q-75 0 -143.5 0.5t-131.5 0.5l323 678h-149zM167 893l92 -101l93 101h47l-78 -152h-124l-77 152h47z" />
    <glyph glyph-name="zcaron" unicode="&#x17e;" horiz-adv-x="456" 
d="M207 486q-34 -1 -57.5 -14t-39.5 -34t-27.5 -48t-21.5 -56v173h349q0 -38 -14.5 -72.5t-38 -66.5t-52 -63t-56.5 -63q-21 -24 -40.5 -49t-34.5 -52t-24 -56.5t-9 -62.5h75q35 -1 60.5 11t38.5 32q14 23 8 50t-39 50q38 22 77 14q20 -5 34.5 -19t18.5 -40q3 -18 -2 -37.5
t-18 -35.5q-18 -24 -51 -35q-17 -7 -36.5 -9.5t-39.5 -2.5h-115t-106 1q0 51 11 94.5t29.5 80t42 68t47.5 58.5t47.5 50.5t41.5 45.5t29 44t11 44h-98zM138 700l92 -101l93 101h47l-77 -152h-124l-78 152h47z" />
    <glyph glyph-name="uni0226" unicode="&#x226;" horiz-adv-x="534" 
d="M280 700l184 -603q5 -15 11 -30.5t13.5 -29t17 -24t20.5 -13.5h-182q13 11 17 24.5t3 28.5t-6 31l-10 32q-2 8 -4.5 16t-4.5 16h-137q-38 0 -64.5 -15t-34.5 -44v1q-2 -5 -3 -9.5t-3 -9.5q-7 -24 -6 -42t17 -29h-100q24 14 40 42t24 54l187 604h21zM342 828
q0 -27 -22 -46.5t-53 -19.5q-32 0 -53.5 19.5t-21.5 46.5q0 28 21.5 46.5t53.5 18.5q31 0 53 -18.5t22 -46.5zM231 507q-21 -70 -36.5 -122.5t-28.5 -93.5t-23.5 -73.5t-19.5 -62.5q14 18 35 24.5t41 6.5h128q-21 70 -46 153.5t-50 167.5z" />
    <glyph glyph-name="circumflex" unicode="&#x2c6;" horiz-adv-x="329" 
d="M257 548l-93 101l-93 -101h-46l77 152h124l77 -152h-46z" />
    <glyph glyph-name="caron" unicode="&#x2c7;" horiz-adv-x="329" 
d="M71 700l93 -101l93 101h46l-77 -152h-124l-77 152h46z" />
    <glyph glyph-name="breve" unicode="&#x2d8;" horiz-adv-x="352" 
d="M176 548q-42 0 -70 16t-45.5 39.5t-24.5 50t-7 46.5h37q2 -11 9.5 -24t21.5 -24t33.5 -18.5t45.5 -7.5t45.5 7.5t33 18.5t21.5 24t10 24h37q0 -20 -7.5 -46.5t-24.5 -50t-45 -39.5t-70 -16z" />
    <glyph glyph-name="dotaccent" unicode="&#x2d9;" horiz-adv-x="209" 
d="M179 635q0 -27 -21.5 -46.5t-53.5 -19.5q-31 0 -53 19.5t-22 46.5q0 28 22 46.5t53 18.5q32 0 53.5 -18.5t21.5 -46.5z" />
    <glyph glyph-name="ogonek" unicode="&#x2db;" horiz-adv-x="188" 
d="M150 15q-12 -13 -29.5 -36.5t-26.5 -48.5q-7 -20 -3.5 -37t14 -28t25.5 -14t30 6l8 -13q-12 -14 -33 -25.5t-44 -11.5q-28 0 -45 14q-24 19 -26 49q-1 17 6 35t19 32q11 14 24 25t26 21q10 8 19.5 16t20.5 16h15z" />
    <glyph glyph-name="hungarumlaut" unicode="&#x2dd;" horiz-adv-x="379" 
d="M26 548l66 152h108l-130 -152h-44zM183 548l66 152h108l-131 -152h-43z" />
    <glyph glyph-name="Sigma" unicode="&#x3a3;" horiz-adv-x="527" 
d="M187 700h311v-64q-10 6 -34.5 16.5t-72.5 10.5h-233l183 -256l-205 -303h255q48 0 72.5 10.5t34.5 16.5v-131h-480l238 362l-239 338h170v0z" />
    <glyph glyph-name="Wgrave" unicode="&#x1e80;" horiz-adv-x="823" 
d="M434 271q-8 -20 -16 -38t-14 -35q-13 -34 -22 -56.5l-17 -42.5l-17 -42.5t-22 -56.5h-87l-172 607q-12 43 -30.5 64.5t-35.5 28.5h196q-39 -25 -22 -88l144 -538q7 19 17 44.5t20.5 53t20.5 55t17 49.5q5 14 10 30t10 33l-76 268q-12 43 -30.5 64.5t-35.5 28.5h196
q-18 -12 -24 -34t3 -54l144 -538q19 51 37 102t35 103q17 51 30 104.5t16 104.5q2 26 -1 57.5t-17 55.5q-9 16 -23 26.5t-35 13.5q-33 5 -68 -13q15 45 49.5 67t71.5 21q35 0 63.5 -20.5t37.5 -62.5q8 -32 3.5 -68.5t-15.5 -70.5q-18 -63 -39.5 -121.5t-42.5 -118.5
q-22 -63 -45.5 -127t-46.5 -127h-91zM440 741l-131 152h108l66 -152h-43z" />
    <glyph glyph-name="Wacute" unicode="&#x1e82;" horiz-adv-x="823" 
d="M434 271q-8 -20 -16 -38t-14 -35q-13 -34 -22 -56.5l-17 -42.5l-17 -42.5t-22 -56.5h-87l-172 607q-12 43 -30.5 64.5t-35.5 28.5h196q-39 -25 -22 -88l144 -538q7 19 17 44.5t20.5 53t20.5 55t17 49.5q5 14 10 30t10 33l-76 268q-12 43 -30.5 64.5t-35.5 28.5h196
q-18 -12 -24 -34t2 -54l145 -538q19 51 37 102t35 103q17 51 30 104.5t16 104.5q2 26 -1 57.5t-17 55.5q-9 16 -23 26.5t-35 13.5q-33 5 -68 -13q15 45 49.5 67t71.5 21q35 0 63.5 -20.5t37.5 -62.5q8 -32 3.5 -68.5t-15.5 -70.5q-18 -63 -39.5 -121.5t-42.5 -118.5
q-22 -63 -45.5 -127t-47.5 -127h-90zM309 741l66 152h108l-131 -152h-43z" />
    <glyph glyph-name="Wdieresis" unicode="&#x1e84;" horiz-adv-x="823" 
d="M434 271q-8 -20 -16 -38t-14 -35q-13 -34 -22 -56.5l-17 -42.5l-17 -42.5t-22 -56.5h-87l-172 607q-12 43 -30.5 64.5t-35.5 28.5h196q-39 -25 -22 -88l144 -538q7 19 17 44.5t20.5 53t20.5 55t17 49.5q5 14 10 30t10 33l-76 268q-12 43 -30.5 64.5t-35.5 28.5h196
q-18 -12 -24 -34t3 -54l144 -538q19 51 37 102t35 103q17 51 30 104.5t16 104.5q2 26 -1 57.5t-17 55.5q-9 16 -23 26.5t-35 13.5q-33 5 -68 -13q15 45 49.5 67t71.5 21q35 0 63.5 -20.5t37.5 -62.5q8 -32 3.5 -68.5t-15.5 -70.5q-18 -63 -39.5 -121.5t-42.5 -118.5
q-22 -63 -45.5 -127t-47.5 -127h-90zM376 828q0 -27 -22 -46.5t-53 -19.5q-32 0 -54 19.5t-22 46.5q0 28 22 46.5t54 18.5q31 0 53 -18.5t22 -46.5zM567 828q0 -27 -22 -46.5t-53 -19.5q-32 0 -53.5 19.5t-21.5 46.5q0 28 21.5 46.5t53.5 18.5q31 0 53 -18.5t22 -46.5z" />
    <glyph glyph-name="uni1EBC" unicode="&#x1ebc;" horiz-adv-x="516" 
d="M185 426v-404h43q20 0 40.5 2t40.5 7q26 5 50.5 18.5t42.5 33.5q27 30 34 67q30 -17 38 -44t-1 -52q-8 -23 -27.5 -38.5t-47.5 -15.5h-346q15 23 21 52t6 55v486q0 26 -6 55t-21 52h395l20 -144q-8 33 -24.5 56t-37.5 38t-43.5 21.5t-42.5 6.5h-134v-217q11 17 34 19
q20 2 38.5 -4t37.5 -12q11 -3 26.5 -6.5t31.5 -2t30 8.5t23 25q14 -26 10.5 -51.5t-22.5 -39.5q-12 -10 -26.5 -12.5t-25.5 -1.5q-28 1 -52 15q-8 4 -16 9.5t-17 11.5q-10 8 -22.5 16t-23.5 11.5t-18.5 -0.5t-7.5 -21v0zM86 817q28 46 65.5 66t92.5 3q4 -1 7.5 -2t8.5 -3
q24 -9 48 -18.5t47 -13t43.5 3t38.5 29.5l7 -19q-29 -47 -66.5 -67t-92.5 -3q-4 2 -7.5 2.5t-8.5 2.5q-24 9 -48 18.5t-47 12.5t-43.5 -3t-38.5 -29z" />
    <glyph glyph-name="Ygrave" unicode="&#x1ef2;" horiz-adv-x="505" 
d="M314 107q0 -48 10.5 -73t16.5 -34h-160q16 23 21.5 52t5.5 55v151l-140 349q-17 42 -33 63.5t-36 29.5h176q-17 -11 -16 -32.5t12 -52.5l124 -316q13 25 29 53.5t31.5 58t28.5 58.5t19 55q8 36 2.5 63.5t-21.5 43.5q-17 17 -44 17t-63 -20q6 18 17.5 34t27.5 28t35.5 19
t41.5 7q44 0 67 -28q25 -31 17 -80q-5 -26 -15.5 -50t-21.5 -44l-132 -243v-164zM286 741l-131 152h108l66 -152h-43z" />
    <glyph glyph-name="endash" unicode="&#x2013;" horiz-adv-x="557" 
d="M26 208v91h504v-91h-504z" />
    <glyph glyph-name="emdash" unicode="&#x2014;" horiz-adv-x="886" 
d="M26 208v91h833v-91h-833z" />
    <glyph glyph-name="quoteleft" unicode="&#x2018;" horiz-adv-x="230" 
d="M114 427q-31 0 -53 18.5t-22 46.5q0 37 11.5 69.5t30.5 59.5t45 47t54 32l9 -12q-33 -26 -49.5 -60.5t-22.5 -69.5q30 -2 51 -21t21 -45q0 -28 -22 -46.5t-53 -18.5z" />
    <glyph glyph-name="quoteright" unicode="&#x2019;" horiz-adv-x="230" 
d="M115 700q32 0 53.5 -19t21.5 -46q0 -37 -11.5 -69.5t-30.5 -59.5t-44.5 -47t-54.5 -32l-9 12q33 26 50 60.5t22 69.5q-30 1 -51 20.5t-21 45.5q0 28 22 46.5t53 18.5z" />
    <glyph glyph-name="quotesinglbase" unicode="&#x201a;" horiz-adv-x="210" 
d="M104 131q32 0 53.5 -18.5t21.5 -46.5q0 -37 -11.5 -69.5t-30.5 -59.5t-44.5 -47t-54.5 -32l-9 12q33 26 50 60.5t22 69.5q-30 2 -51 21t-21 45q0 28 22 46.5t53 18.5z" />
    <glyph glyph-name="quotedblleft" unicode="&#x201c;" horiz-adv-x="414" 
d="M298 427q-31 0 -53 18.5t-22 46.5q0 37 11.5 69.5t31 59.5t45 47t54.5 32l8 -12q-33 -26 -49.5 -60.5t-21.5 -69.5q30 -2 50.5 -21t20.5 -45q0 -28 -21.5 -46.5t-53.5 -18.5zM114 427q-31 0 -53 18.5t-22 46.5q0 37 11.5 69.5t30.5 59.5t45 47t54 32l9 -12
q-33 -26 -49.5 -60.5t-22.5 -69.5q30 -2 51 -21t21 -45q0 -28 -22 -46.5t-53 -18.5z" />
    <glyph glyph-name="quotedblright" unicode="&#x201d;" horiz-adv-x="414" 
d="M115 700q32 0 53.5 -19t21.5 -46q0 -37 -11.5 -69.5t-30.5 -59.5t-44.5 -47t-54.5 -32l-9 12q33 26 49.5 60.5t22.5 69.5q-30 1 -51 20.5t-21 45.5q0 28 22 46.5t53 18.5zM299 700q32 0 53.5 -19t21.5 -46q0 -37 -11.5 -69.5t-30.5 -59.5t-44.5 -47t-54.5 -32l-9 12
q33 26 50 60.5t22 69.5q-30 1 -51 20.5t-21 45.5q0 28 22 46.5t53 18.5z" />
    <glyph glyph-name="quotedblbase" unicode="&#x201e;" horiz-adv-x="394" 
d="M104 131q32 0 53.5 -18.5t21.5 -46.5q0 -37 -11.5 -69.5t-30.5 -59.5t-44.5 -47t-54.5 -32l-9 12q33 26 49.5 60.5t22.5 69.5q-30 2 -51 21t-21 45q0 28 22 46.5t53 18.5zM288 131q32 0 53.5 -18.5t21.5 -46.5q0 -37 -11.5 -69.5t-30.5 -59.5t-44.5 -47t-54.5 -32l-9 12
q33 26 50 60.5t22 69.5q-30 2 -51 21t-21 45q0 28 22 46.5t53 18.5z" />
    <glyph glyph-name="dagger" unicode="&#x2020;" horiz-adv-x="510" 
d="M193 700h153l-74 -217l193 73v-181l-193 73q1 -16 6 -36.5t14.5 -39t24 -33.5t34.5 -21q-22 -47 -37.5 -112.5t-25 -135.5t-13.5 -139t-5 -124h-31q0 55 -4.5 124t-13.5 139t-24 135.5t-38 112.5q20 6 34 21t23.5 33.5t14.5 39t6 36.5l-192 -73v181l192 -73l-73 217h29v0
z" />
    <glyph glyph-name="bullet" unicode="&#x2022;" horiz-adv-x="344" 
d="M307 350q0 -24 -10.5 -45.5t-29 -37.5t-43 -25.5t-52.5 -9.5t-52.5 9.5t-43 25.5t-29 37.5t-10.5 45.5q0 25 10.5 46.5t29 37.5t43 25t52.5 9t52.5 -9t43 -25t29 -37.5t10.5 -46.5z" />
    <glyph glyph-name="guilsinglleft" unicode="&#x2039;" horiz-adv-x="336" 
d="M295 95v-34l-259 172v41l259 172v-34l-139 -158z" />
    <glyph glyph-name="guilsinglright" unicode="&#x203a;" horiz-adv-x="336" 
d="M179 254l-138 158v34l259 -172v-41l-259 -172v34z" />
    <glyph glyph-name="Euro" unicode="&#x20ac;" horiz-adv-x="725" 
d="M452 322l-17 -64h-183q20 -56 49.5 -101.5t64.5 -75t73 -42t74 -2.5q48 13 79.5 57.5t42.5 109.5v-122q-37 -36 -91.5 -59t-114.5 -23q-53 0 -101 19.5t-87 54t-67 81.5t-41 103h-90l17 64h63q-1 7 -1 14v14v14.5t1 14.5h-80l17 63h73q13 56 41 103t67 81.5t87 54
t101 19.5q27 0 58.5 -6t60.5 -18q34 -12 64 -35q17 -13 31 -29.5t21 -36.5q10 -25 6.5 -47.5t-16.5 -41.5q-16 -25 -50 -41q-20 61 -63 119q-12 17 -26 32.5t-30 27.5q-36 30 -76 40q-34 8 -64 0q-28 -8 -50.5 -28t-38 -49t-24.5 -66t-10 -79h262l-17 -63h-243
q2 -14 4.5 -28.5t5.5 -28.5h218z" />
    <glyph glyph-name="trademark" unicode="&#x2122;" horiz-adv-x="513" 
d="M106 692h-21q-21 0 -33 -20.5t-18 -45.5v74h184v-74q-7 25 -18.5 45.5t-32.5 20.5h-21v-221q0 -11 2.5 -22t8.5 -19h-62q6 8 8.5 19t2.5 22v221zM248 430q6 8 8 19t2 22v188q0 10 -2 21.5t-8 19.5h41l74 -183l70 183h38q-2 -4 -6 -13.5t-4 -27.5v-188q0 -18 4 -28t6 -13
h-61q6 8 8 19t2 22v164l-57 -148q-11 -32 -38 -28q8 8 8 18.5t-5 20.5l-58 137v-164q0 -18 4 -28t6 -13h-32z" />
    <glyph glyph-name="radical" unicode="&#x221a;" horiz-adv-x="539" 
d="M476 891h77l-239 -891h-92l-117 437h-70v70h143l97 -363z" />
    <glyph glyph-name="notequal" unicode="&#x2260;" horiz-adv-x="560" 
d="M55 183v91h150l41 115h-191v91h224l80 220h95l-80 -220h131v-91h-164l-41 -115h205v-91h-238l-66 -183h-95l66 183h-117z" />
    <glyph glyph-name="lessequal" unicode="&#x2264;" horiz-adv-x="553" 
d="M504 197v-100l-470 229v48l470 229v-99l-338 -154zM504 -91h-470v91h470v-91z" />
    <glyph glyph-name="greaterequal" unicode="&#x2265;" horiz-adv-x="553" 
d="M387 350l-338 154v99l470 -229v-48l-470 -229v100zM49 0h470v-91h-470v91z" />
    <glyph glyph-name="uniF000" unicode="&#xf000;" horiz-adv-x="511" 
d="M276 700l164 -539q4 -13 12 -38t18.5 -56.5t24 -68t29 -72t32.5 -68t34 -56.5q24 -34 48.5 -43t43.5 -2t28.5 26t3.5 41q-4 14 -13.5 25.5t-23 17t-29 3t-30.5 -17.5q8 38 31 57t50 21t52 -13t36 -46q10 -25 4 -53t-30 -48q-22 -19 -52 -27.5t-61 -8.5q-52 0 -93 25.5
t-72.5 65t-54 86.5t-37.5 89q-4 10 -12 31.5t-17 45t-16.5 43.5t-10.5 27h-137q-38 0 -64.5 -14.5t-34.5 -43.5v1q-4 -11 -5 -19q-8 -24 -7 -42t17 -29h-100q24 14 40 42t24 54l187 604h21zM227 507q-21 -70 -36.5 -122.5t-28.5 -93.5t-23.5 -73.5t-19.5 -62.5
q14 18 35 24.5t41 6.5h128q-21 70 -46 153.5t-50 167.5z" />
    <glyph glyph-name="uniF001" unicode="&#xf001;" horiz-adv-x="605" 
d="M454 417q-23 -23 -53 -35q62 -20 99 -71t53 -116q11 -48 12.5 -97t-6.5 -95.5t-26.5 -88.5t-46.5 -76q-38 -48 -95 -75.5t-133 -28.5q-56 0 -109.5 19.5t-88.5 58.5q-20 23 -32 51.5t-13 63.5q-1 40 14.5 69t41.5 48q30 22 68.5 26t71.5 -12.5t54 -54.5t18 -99
q-17 33 -38.5 50t-43 22t-42.5 -1t-36 -20q-22 -20 -30 -48t8 -66q11 -28 34.5 -48.5t55.5 -28.5q18 -4 35 -4t34 2q57 10 95 43.5t61 81.5q17 33 26 71t12 77t0.5 77t-9.5 71q-8 38 -22 71t-34 59q-18 23 -44 36t-60 8q-19 -2 -36 -10.5t-30 -22.5q-11 -11 -19 -28v-205
q-10 5 -24.5 7t-29.5 2t-29 -2.5t-23 -6.5v502q0 26 -5.5 55t-21.5 52h272q34 0 64 -13t52.5 -35.5t35.5 -52.5t13 -64q0 -35 -13.5 -65t-36.5 -53zM200 326q14 27 36 44q14 11 29.5 18t30.5 13q19 8 34.5 15.5t28.5 18.5q8 8 15.5 18t12.5 23q11 25 11 59q0 30 -11 56
t-31 45.5t-46 30.5t-56 11h-54v-352z" />
    <glyph glyph-name="uniF002" unicode="&#xf002;" horiz-adv-x="625" 
d="M362 -193q-72 0 -133.5 43.5t-103.5 118.5q-35 61 -54.5 141.5t-21.5 165.5q-2 76 12.5 147t47.5 125q42 69 108 110.5t145 41.5q27 0 58.5 -6t60.5 -18q17 -7 33 -15t31 -19q17 -14 31 -30.5t21 -36.5q10 -25 7 -47.5t-16 -41.5q-18 -26 -50 -41q-11 29 -27 59.5
t-36 59.5q-13 17 -27 32.5t-30 28.5q-17 14 -36 24t-40 15q-34 8 -64 -1q-40 -11 -68.5 -45.5t-42.5 -85.5q-11 -44 -16 -96.5t-2 -109.5q3 -58 12.5 -117.5t26.5 -114t41 -101.5t54 -81q41 -45 85 -64.5t83 -5.5q17 6 31 15.5t27.5 20.5l27 22t28.5 20q59 35 109.5 36.5
t88.5 -17.5q30 -15 51 -40.5t29.5 -54t4 -58t-24.5 -52.5q-15 65 -55.5 99.5t-109.5 36.5q-43 1 -87.5 -11t-79.5 -27q-32 -14 -63 -19.5t-66 -5.5z" />
    <glyph glyph-name="uniF003" unicode="&#xf003;" horiz-adv-x="637" 
d="M200 91q-10 5 -24.5 7t-29.5 2t-29 -2.5t-23 -6.5v502q0 26 -5.5 55t-21.5 52h226q63 0 110.5 -24.5t82.5 -66.5q42 -50 64 -121.5t29 -150.5q3 -25 4 -63.5t0 -80.5t-4 -83t-8 -70q-7 -41 -20 -80.5t-32.5 -74.5t-46 -63.5t-61.5 -48.5q-33 -18 -71 -28.5t-82 -10.5
q-56 0 -109.5 19.5t-88.5 58.5q-20 23 -32 51.5t-13 63.5q-1 40 15 69t41 48q30 22 68.5 26t71.5 -12.5t54 -54.5t18 -99q-17 33 -38.5 50t-43 22t-42.5 -1t-36 -20q-22 -20 -30 -48t8 -66q11 -28 34.5 -48.5t55.5 -28.5q18 -4 35 -4t34 2q35 6 62 19t47 33q38 35 59 87
t32 112q5 30 7.5 71t4 83.5t1 80.5t-1.5 62q-3 61 -14 118t-31 105q-28 63 -73.5 104t-116.5 41h-36v-328v-259z" />
    <glyph glyph-name="uniF004" unicode="&#xf004;" horiz-adv-x="489" 
d="M667 -266q-35 0 -69.5 13t-67.5 33q-25 15 -47 32.5t-44 34.5t-45 34t-49 32q-25 14 -65 30t-85 30q-41 12 -79 20t-64 7q15 23 21 52t6 55v486q0 26 -6 55t-21 52h394l21 -144q-8 33 -24.5 56t-37.5 38t-43.5 21.5t-42.5 6.5h-134v-216q11 16 34 18q20 2 38.5 -4
t37.5 -12q11 -3 26.5 -6.5t31.5 -2t30 8.5t23 25q13 -27 10 -52t-22 -39q-12 -10 -26.5 -12.5t-25.5 -2.5q-15 1 -27.5 5t-24.5 11q-8 4 -16 9.5t-17 11.5q-10 8 -22.5 16t-23.5 11t-18.5 -1t-7.5 -21v-432q45 -2 90.5 -9.5t90.5 -21.5q51 -16 94 -38t92 -41
q23 -10 49.5 -17.5t52.5 -12.5q41 -8 75 -1.5t51 35.5q14 -30 9.5 -57.5t-21.5 -49t-44 -34t-57 -12.5z" />
    <glyph glyph-name="uniF005" unicode="&#xf005;" horiz-adv-x="487" 
d="M183 46q0 -77 -10 -134.5t-33.5 -96.5t-62.5 -59t-98 -22q-23 -1 -46.5 5.5t-43.5 18.5q-44 27 -57 67t-2 75q11 34 40 56t72 15q32 -5 54 -30.5t28 -56.5q-28 14 -53 9q-26 -6 -38 -27.5t-11.5 -45.5t15 -43.5t43.5 -22.5q26 -2 52.5 20t36.5 75q8 45 8 97v100v547
q0 26 -5.5 55t-21.5 52h395l20 -144q-8 33 -24.5 56t-37.5 38t-43.5 21.5t-42.5 6.5h-134v-216q11 16 34 18q20 2 38.5 -4t37.5 -12q11 -3 26.5 -6.5t31.5 -2t30 8.5t23 25q14 -27 10.5 -52t-22.5 -39q-12 -10 -26.5 -12.5t-25.5 -2.5q-15 1 -27.5 5t-24.5 11q-8 4 -16 9.5
t-16 11.5q-10 8 -23 16t-24 11t-18.5 -1t-7.5 -21v-379z" />
    <glyph glyph-name="uniF006" unicode="&#xf006;" horiz-adv-x="652" 
d="M264 663q-39 -10 -67 -44t-42.5 -83.5t-14 -110.5t17.5 -126q18 -65 48 -118t67 -88.5t78.5 -51t80.5 -5.5q11 4 21.5 8.5t19.5 11.5v157q0 26 -5.5 55t-21.5 52h160q-6 -10 -16 -35t-10 -72v-213q0 -54 -6.5 -102.5t-25 -85t-51.5 -57.5t-87 -21q-37 0 -64.5 12.5
t-50.5 29.5q-19 15 -34.5 30.5t-31.5 28.5q-23 19 -46 23t-40 -4q-23 -10 -34.5 -37t-3.5 -63q-27 24 -38 56t-7 63q6 40 33.5 63.5t62.5 27.5q26 2 46 -5.5t37 -21.5t30 -30.5t24 -33.5q12 -20 23.5 -39t25.5 -38q31 -44 65 -47q29 -3 42.5 19t18.5 53q5 26 5 52.5v42.5
v112q-59 -28 -125 -28q-64 0 -120 27.5t-97.5 75t-65.5 111.5t-24 136t24 136t65.5 111.5t97.5 75t120 27.5q28 0 59 -6t60 -18q17 -7 33 -15t31 -19q17 -14 31 -30.5t22 -36.5q9 -25 6 -47.5t-16 -41.5q-18 -26 -50 -41q-11 29 -27 59.5t-36 59.5q-13 17 -27 32.5t-30 28.5
q-17 14 -36 24t-40 15q-34 8 -64 -1z" />
    <glyph glyph-name="uniF007" unicode="&#xf007;" horiz-adv-x="588" 
d="M51 0q15 23 21 52t6 55v486q0 26 -6 55t-21 52h160q-6 -9 -16.5 -34t-10.5 -73v-131q11 16 34 18q20 2 38.5 -4t37.5 -12q11 -3 26.5 -6.5t31.5 -2t30 8.5t23 25v104q0 26 -6 55t-21 52h160q-7 -9 -17 -34t-10 -73v-652q0 -20 1 -52t8 -64t22 -55.5t43 -20.5q35 3 66 47
q14 19 25 38t23 39q11 17 24 33.5t30 30.5t37.5 21.5t46.5 5.5q35 -4 62.5 -27.5t33.5 -63.5q4 -31 -7 -63t-39 -56q9 36 -2.5 63t-34.5 37q-18 8 -40.5 4t-46.5 -23q-15 -13 -31 -28.5t-35 -30.5q-23 -17 -50.5 -29.5t-63.5 -12.5q-54 0 -89.5 19.5t-56.5 54.5
q-17 27 -24.5 61.5t-7.5 73.5v467q-3 -4 -5.5 -7t-6.5 -5q-12 -10 -26.5 -12.5t-25.5 -2.5q-15 1 -27.5 5t-24.5 11q-8 4 -16 9.5t-17 11.5q-10 8 -22.5 16t-23.5 11t-18.5 -1t-7.5 -21v-318q0 -48 10.5 -72.5t16.5 -34.5h-160z" />
    <glyph glyph-name="uniF008" unicode="&#xf008;" horiz-adv-x="262" 
d="M51 0q16 23 21.5 52t5.5 55v486q0 26 -5.5 55t-21.5 52h38q-12 11 -21 21q-24 26 -40 59t-17 68q0 25 9 46.5t25 37.5t37.5 25t46.5 9q54 0 89 -38q17 -16 24 -36q14 -31 7.5 -61.5t-23.5 -53.5q-12 -14 -28.5 -21.5t-33.5 -8t-32 6t-23 19.5q24 -6 40.5 -1t26.5 16
t14 26.5t1 31.5q-6 34 -28.5 50t-48.5 14q-23 -2 -44 -18t-28 -48q-4 -20 0 -40.5t16 -39.5q15 -23 39.5 -43.5t53.5 -20.5h60q-7 -9 -17 -34t-10 -73v-486q0 -48 10 -72.5t17 -34.5h-160z" />
    <glyph glyph-name="uniF009" unicode="&#xf009;" horiz-adv-x="446" 
d="M156 112q27 1 50 -6.5t39.5 -21t26 -31t10.5 -37.5q-20 20 -45 27.5t-49 5.5q-45 -4 -68.5 -31.5t-28.5 -62.5q-3 -26 3.5 -52t21.5 -47t39 -34.5t56 -12.5t57 18t43 44t27.5 60.5t9.5 68.5q1 52 -20.5 96t-64.5 62v435q0 20 -3.5 43t-12.5 43q-4 10 -11 21h160
q-7 -9 -17 -34t-10 -73v-602q0 -35 -8 -79.5t-29 -84t-58 -66t-94 -25.5q-46 0 -81 17t-58.5 44.5t-35 63t-11.5 72.5q0 40 14.5 73t37.5 56.5t51.5 36t58.5 13.5z" />
    <glyph glyph-name="uniF00A" unicode="&#xf00a;" horiz-adv-x="552" 
d="M772 -230q-22 -19 -52 -27.5t-61 -8.5q-60 0 -104 30t-76 77q-32 49 -52.5 106t-32.5 108l-7.5 37.5t-9 49t-10.5 54t-12 52.5q-7 26 -14.5 47.5t-15.5 33.5q-9 12 -22 19.5t-30 6.5q-31 -2 -56 -22q-11 -9 -19 -19t-13 -20v-189q0 -26 5.5 -55t21.5 -52h-160
q15 23 21 52t6 55v486q0 26 -6 55t-21 52h160q-16 -23 -21.5 -52t-5.5 -55v-268q7 15 16 26t20 19q14 11 29.5 18t30.5 13q21 8 34 16.5t22 19.5q11 13 16.5 30t7.5 45q2 25 2.5 49.5t2.5 41.5q3 35 16 61q8 14 21.5 24.5t35.5 14.5q14 3 29 -1t28 -12q-16 -5 -24 -18
t-13 -30q-4 -16 -5 -32.5t-2 -30.5q-1 -19 -1.5 -39.5t-3.5 -40.5q-3 -26 -11 -50t-25 -44q-21 -24 -56 -32q22 -1 38 -9t27 -22q8 -10 13.5 -21t10.5 -23q18 -50 29 -101l22 -102q10 -48 21.5 -94t29.5 -91q25 -64 55 -106q18 -25 35 -36t32 -12q26 -1 38 15t12 36
q-1 25 -13.5 40t-29.5 18q-23 6 -46 -11q7 38 30.5 58t50.5 22t52 -14t36 -47q9 -25 3 -53t-29 -48z" />
    <glyph glyph-name="uniF00B" unicode="&#xf00b;" horiz-adv-x="262" 
d="M666 -266q-35 0 -69.5 13t-67.5 33q-49 31 -91 67t-94 66q-24 14 -64.5 30t-85.5 30q-41 12 -79 20t-64 7q16 23 21.5 52t5.5 55v486q0 26 -5.5 55t-21.5 52h160q-16 -23 -21.5 -52t-5.5 -55v-600q94 -5 182 -31q51 -16 93.5 -38t91.5 -41q24 -10 50 -17.5t52 -12.5
q41 -8 75 -1.5t51 35.5q14 -30 9.5 -57.5t-21.5 -49t-44 -34t-57 -12.5z" />
    <glyph glyph-name="uniF00C" unicode="&#xf00c;" horiz-adv-x="683" 
d="M110 324v-182q0 -26 -0.5 -63t-3.5 -79q-1 -19 -2.5 -41.5t-5.5 -46t-10 -47t-15 -44.5q-16 -38 -43 -62.5t-71 -24.5q-24 0 -44 9.5t-36 26.5q-8 9 -17 24t-13 32q51 0 86.5 14t61.5 39q25 23 40 55t24 68q8 32 11 69t5 75q2 45 1.5 89t-0.5 89v269q0 26 -5.5 55
t-20.5 52h106l193 -474l180 474h100q-7 -9 -17 -34t-10 -73v-486q0 -48 10 -72.5t17 -34.5h-160q16 23 21.5 52t5.5 55v425l-147 -384q-14 -38 -37.5 -58t-61.5 -13q19 21 19 47t-11 52l-150 356v-208v0z" />
    <glyph glyph-name="uniF00D" unicode="&#xf00d;" horiz-adv-x="596" 
d="M110 141v-62.5t-4 -78.5q-1 -19 -2.5 -41.5t-5.5 -46t-10 -47t-15 -44.5q-16 -38 -43 -62.5t-71 -24.5q-24 0 -44 9.5t-36 26.5q-8 9 -17 24t-13 32q51 0 86.5 14t61.5 39q24 23 39.5 54t24.5 67q8 35 11.5 72.5t5.5 75.5q2 44 1 87.5t-1 88.5v269q0 26 -5.5 55t-20.5 52
h68l367 -514v407q0 26 -5.5 55t-21.5 52h85q-6 -9 -16.5 -34t-10.5 -73v-504q1 -44 -26 -67t-69 -22q-8 0 -14 2q11 9 16 21t5 25.5t-4.5 27.5t-12.5 25l-303 425v-202v-183z" />
    <glyph glyph-name="uniF00E" unicode="&#xf00e;" horiz-adv-x="697" 
d="M348 700q64 0 120 -27.5t97.5 -75t65.5 -111.5t24 -136q0 -55 -14 -105t-39.5 -92t-60 -74.5t-76.5 -52.5q-13 -5 -25.5 -10t-26.5 -8q-29 -8 -57 -8q-40 0 -75.5 11t-64.5 34q-25 20 -42 49t-25 68q-11 51 8 91t54 63q22 14 47.5 20t52 1.5t51.5 -19.5t46 -44
q-32 12 -60 10.5t-50 -13.5q-21 -12 -33.5 -30t-17 -39t-1 -43t13.5 -42q15 -29 46 -51t66 -30q18 -3 36 -3q28 2 49 14q33 17 55.5 52t33.5 82.5t9.5 103.5t-17.5 116q-18 65 -48 118t-67 88.5t-78.5 51t-80.5 4.5q-39 -10 -66.5 -43t-42 -81t-15 -107.5t15.5 -123.5
q-26 -30 -36 -70t-1 -82q6 -33 20 -63q-45 48 -71.5 114.5t-26.5 142.5q0 72 24 136t65.5 111.5t97.5 75t120 27.5z" />
    <glyph glyph-name="uniF00F" unicode="&#xf00f;" horiz-adv-x="512" 
d="M183 46q0 -77 -10 -134.5t-33.5 -96.5t-62.5 -59t-98 -22q-23 -1 -46.5 5.5t-43.5 18.5q-44 27 -57 67t-2 75q11 34 40 56t72 15q32 -5 54 -30.5t28 -56.5q-28 14 -52 9q-26 -6 -38.5 -27.5t-12 -45.5t15 -43.5t43.5 -22.5q26 -2 52.5 20t36.5 75q8 45 8 97v100v547
q0 26 -5.5 55t-21.5 52h272q34 0 64 -13t52.5 -35.5t35.5 -52.5t13 -64q0 -35 -13.5 -65t-36.5 -53q-17 -17 -33.5 -26t-34.5 -14q-20 -6 -41 -8.5t-44 -6.5q-16 -3 -30.5 -7.5t-28.5 -12.5q-28 -16 -42 -46v-250zM183 326q14 27 37 44q14 11 29 18t30 13q19 8 34.5 15.5
t28.5 18.5q8 8 15.5 18t12.5 23q11 25 11 59q0 30 -11 56t-31 45.5t-46 30.5t-56 11h-54v-352z" />
    <glyph glyph-name="uniF010" unicode="&#xf010;" horiz-adv-x="697" 
d="M655 350q0 -60 -16.5 -114t-46 -98t-70 -76t-88.5 -48q49 -11 98.5 -38.5t104.5 -56.5q14 -7 34 -16.5t43.5 -19.5t50 -18t51.5 -12q40 -8 74.5 -1.5t51.5 35.5q14 -30 9.5 -57.5t-22 -49t-44 -34t-56.5 -12.5t-58.5 9t-56 24t-54.5 35t-53 41q-28 22 -55 45t-53.5 43.5
t-53 35.5t-53.5 23q-18 5 -36.5 6.5t-34.5 -2.5t-27 -15t-16 -31q-5 -26 5 -52.5t33 -40.5q-35 -3 -59.5 8.5t-38.5 31.5q-13 17 -17.5 36.5t-0.5 38.5q4 15 13 29t26 24q-43 19 -79.5 51.5t-63 75t-41 93.5t-14.5 107q0 72 24 136t65.5 111.5t97.5 75t120 27.5t120 -27.5
t97.5 -75t65.5 -111.5t24 -136zM538 401q-18 65 -48 118t-67 88.5t-78.5 51t-80.5 4.5q-39 -10 -67 -44t-42.5 -83.5t-14 -110.5t18.5 -126q17 -65 47 -118t67 -88.5t78.5 -51t80.5 -5.5q39 11 67 45t42.5 83.5t14 110.5t-17.5 126z" />
    <glyph glyph-name="uniF011" unicode="&#xf011;" horiz-adv-x="554" 
d="M51 0q15 23 21 52t6 55v486q0 26 -6 55t-21 52h271q35 0 65 -13t52.5 -35.5t35.5 -52.5t13 -64q0 -35 -13.5 -65t-36.5 -53q-17 -17 -33.5 -26t-35.5 -14q-5 -2 -15 -4q24 0 41.5 -12t30.5 -31q11 -16 18.5 -36t13 -41t9.5 -41t8 -36q10 -43 18 -84t19 -82
q7 -26 14.5 -51t18.5 -51q11 -29 24.5 -55t27.5 -46q1 -2 1.5 -2.5t1.5 -2.5q18 -25 35 -36t32 -12q26 -1 38 15t12 36v2q-1 24 -13.5 38.5t-29.5 17.5q-23 6 -46 -11q7 38 30.5 58t50.5 22t52 -14t36 -47q12 -31 0 -64q-8 -22 -26 -37q-22 -19 -52 -27.5t-61 -8.5h-1
q-46 1 -83.5 20.5t-67.5 52.5q-27 28 -44 57q-20 32 -33.5 66t-23.5 70q-2 8 -3 13q-5 18 -10.5 44.5t-11 56t-12 61t-12.5 59.5q-9 36 -18 64.5t-18 39.5q-8 10 -19 15t-29 4q-14 0 -29 -6t-27 -16q-23 -18 -32 -39v-189q0 -26 5.5 -55t21.5 -52h-160zM184 326q14 27 36 44
q14 11 29.5 18t30.5 13q19 8 34.5 15.5t28.5 18.5q16 16 28 41q9 22 11 59q0 30 -11 56t-31 45.5t-46 30.5t-56 11h-54v-352z" />
    <glyph glyph-name="uniF012" unicode="&#xf012;" horiz-adv-x="633" 
d="M246 548q7 -10 15 -17t16 -15q35 -32 69 -58.5t68 -53.5q32 -26 61.5 -56t56.5 -70q39 -57 57.5 -123t8.5 -147q-9 -76 -48.5 -142t-108.5 -104q-29 -15 -61.5 -21.5t-69.5 -6.5q-89 0 -164 43q-35 20 -60.5 47t-41.5 58.5t-23 65.5t-4 67q3 41 19 75t40.5 58.5t55 40
t62.5 20.5q26 4 52 1t49.5 -14t43 -30t30.5 -47q-37 23 -75 29t-73 -3q-48 -11 -81.5 -48.5t-38.5 -97.5q-5 -56 13.5 -106.5t55.5 -85.5q27 -26 62.5 -40.5t77.5 -14.5q48 1 86 17.5t66 45.5q33 35 50.5 83.5t16.5 103.5q-1 57 -19.5 110.5t-52.5 98.5q-24 32 -51 59
t-56 52q-28 23 -57 45t-58 45q-24 18 -45.5 37.5t-38.5 42.5q-15 20 -24 43t-9 49q2 43 32 75q15 16 35 24.5t42.5 12t45.5 4t43 0.5q26 -1 46.5 -3.5t38 -5.5t33 -5.5t30.5 -1.5q14 0 26.5 3.5t20.5 10.5v-189l-1 1q-13 36 -29 66.5t-38.5 52.5t-54.5 35.5t-76 14.5
q-35 2 -61 -13.5t-26 -55.5q-1 -17 5 -32.5t16 -29.5z" />
    <glyph glyph-name="uniF013" unicode="&#xf013;" horiz-adv-x="438" 
d="M254 647q-2 -1 -3.5 -2t-3.5 -2q-38 -21 -70 -29q-61 -15 -111 8q-29 15 -46.5 44.5t-19.5 61.5q-2 39 20 64.5t52 33.5q19 6 38.5 4t36 -12t27.5 -28.5t13 -46.5q-29 12 -52.5 9t-39.5 -15q-23 -17 -28 -43.5t15 -46.5q16 -15 38.5 -13.5t48.5 14.5q45 23 88.5 58.5
t88.5 74.5q48 42 96.5 82t100.5 67q32 17 64 26t67 10q32 0 61 -11t51 -32q26 -24 36 -60t-6 -81q-37 40 -80 55q-35 14 -73 13.5t-76 -11.5q-54 -15 -106.5 -44.5t-100.5 -62.5q-5 -4 -10 -7.5t-10 -6.5v-611q0 -26 5.5 -55t21.5 -52h-160q16 23 21.5 52t5.5 55v540z" />
    <glyph glyph-name="uniF014" unicode="&#xf014;" horiz-adv-x="544" 
d="M207 700q-7 -9 -17 -34t-10 -73v-391q0 -57 33 -93t100 -36t98 36t31 93v327q0 41 -1 93t2 106q3 41 11 85t28 80q21 38 55.5 55.5t64.5 17.5q42 0 67 -25t32 -56q-50 6 -86.5 -8.5t-62 -42t-41 -65t-23.5 -79t-11 -83.5t-3 -78q0 -85 -1 -169.5t-1 -169.5q0 -42 -13 -77
t-37.5 -60t-61 -39t-83.5 -14q-94 0 -148.5 50.5t-54.5 139.5v403q0 26 -6 55t-21 52h160z" />
    <glyph glyph-name="uniF015" unicode="&#xf015;" horiz-adv-x="543" 
d="M72 607q-11 43 -32.5 64.5t-38.5 28.5h213q-22 -10 -28.5 -33t1.5 -55l135 -532q11 47 21.5 92.5t21.5 91.5q15 62 30 123.5t30 124.5q10 38 19 77t19 78q13 51 26 95t29 79q23 53 62.5 89t92.5 36q36 0 61 -14t39.5 -36t18 -48.5t-3.5 -50.5q-26 26 -58.5 30.5
t-64.5 -6.5t-60.5 -34t-46.5 -52q-17 -26 -29 -53.5t-23 -53.5q-26 -66 -43.5 -135t-31.5 -122q-11 -42 -20 -80.5t-17 -70.5q-15 -60 -29.5 -120t-29.5 -120h-103z" />
    <glyph glyph-name="uniF016" unicode="&#xf016;" horiz-adv-x="807" 
d="M435 271q-8 -20 -16 -38.5t-14 -34.5q-13 -34 -22 -56.5l-17 -42.5l-17 -42.5t-22 -56.5h-87l-172 607q-12 43 -30.5 64.5t-35.5 28.5h196q-39 -25 -22 -88l144 -537q7 18 17 43.5t20.5 53t20.5 55t17 49.5q5 14 10 30.5t10 33.5l-76 267q-12 43 -30.5 64.5t-35.5 28.5
h196q-18 -12 -24 -34t3 -54l140 -523q10 45 20 88t21 87q15 62 30 123.5t30 124.5q10 38 19 77t20 78q12 51 25 95t29 79q23 53 63 89t93 36q36 0 61 -14t39 -36t18 -48.5t-3 -50.5q-26 26 -58.5 30.5t-65 -6.5t-61 -34t-46.5 -52q-16 -26 -28.5 -53.5t-22.5 -53.5
q-15 -35 -26.5 -72.5t-21.5 -73.5q-17 -66 -32.5 -131t-32.5 -131l-28 -118t-31 -122h-88z" />
    <glyph glyph-name="uniF017" unicode="&#xf017;" horiz-adv-x="543" 
d="M255 507q2 -5 -1.5 2t-7.5 15.5t-6.5 14t1 -2t15.5 -33t38 -78.5q10 18 19 36.5t18 36.5q20 38 40.5 80.5t43.5 86.5q20 39 49 91t66 100q36 46 78.5 78t91.5 32q35 0 59.5 -15.5t38.5 -39t19.5 -49.5t3.5 -47q-63 33 -115 33q-36 1 -68 -11.5t-62 -35.5
q-30 -24 -57.5 -57.5t-54 -74t-52 -86t-51.5 -93.5l-51 -96l98 -201l53 -109q16 -32 37.5 -54t42.5 -30h-202q12 8 15.5 19t2.5 22t-5.5 22.5t-9.5 20.5l-53 109q-2 5 1.5 -2t7.5 -16t6.5 -14.5t-1 2t-16 33t-38.5 78.5q-9 -18 -18.5 -36t-18.5 -36q-20 -38 -40.5 -81
t-42.5 -86q-10 -19 -22.5 -43t-27 -49t-31 -50.5t-34.5 -49.5q-36 -46 -79 -77.5t-92 -31.5q-35 0 -59.5 15.5t-38.5 38.5t-19.5 49t-2.5 47q31 -17 59.5 -24.5t54.5 -8.5q36 -1 68.5 12t61.5 36q30 24 57.5 57t54 73.5t52.5 86.5t52 94q26 47 51 96l-99 201l-53 109
q-16 32 -37.5 54t-41.5 30h201q-12 -8 -15.5 -19t-2 -22t6 -22.5t8.5 -20.5z" />
    <glyph glyph-name="uniF018" unicode="&#xf018;" horiz-adv-x="481" 
d="M385 574q21 63 41.5 132t47.5 127t63 95.5t88 37.5q36 0 61 -14t39.5 -36t18 -48.5t-3.5 -50.5q-32 28 -63 36t-60 0q-36 -8 -67 -35.5t-54 -65.5q-28 -45 -47 -97.5t-33 -93.5l-101 -290v-164q0 -48 10 -72.5t16 -34.5h-159q15 23 20.5 52t5.5 55v151l-140 349
q-17 42 -33 63.5t-36 29.5h176q-17 -11 -16 -33t13 -51l122 -316z" />
    <glyph glyph-name="uniF019" unicode="&#xf019;" horiz-adv-x="482" 
d="M133 -1q57 -2 105.5 -11t105.5 -26q51 -16 93.5 -38t91.5 -41q24 -10 50 -17.5t52 -12.5q41 -8 75 -1.5t51 35.5q14 -30 9.5 -57.5t-21.5 -49t-43.5 -34t-56.5 -12.5q-36 0 -70.5 13t-66.5 33q-47 29 -86 60.5t-81 59.5q-30 20 -69.5 38.5t-81.5 32.5t-84 22t-77 7v0
l323 678h-149q-31 0 -54.5 -14.5t-40.5 -38t-29 -54.5t-20 -64v193h415l-325 -669z" />
    <glyph glyph-name="uniF01A" unicode="&#xf01a;" horiz-adv-x="1004" 
d="M523 638q60 -48 96 -123t36 -165q0 -72 -23 -134t-64 -110q39 -43 83.5 -62t87.5 -7q39 11 67 44.5t42.5 83t14 110.5t-17.5 126q-18 65 -48 118t-67 88.5t-78.5 51t-80.5 5.5q-26 -7 -48 -26zM348 700q42 0 81 -12t73 -35q34 23 72.5 35t80.5 12q64 0 120 -27.5
t97.5 -75t65.5 -111.5t24 -136t-24 -136t-65.5 -111.5t-97.5 -75t-120 -27.5q-42 0 -80.5 12t-72.5 35q-34 -23 -73 -35t-81 -12q-64 0 -120 27.5t-97.5 75t-65.5 111.5t-24 136t24 136t65.5 111.5t97.5 75t120 27.5zM348 350q0 72 23.5 134t64.5 110q-40 43 -84.5 62
t-87.5 8q-39 -11 -67 -45t-42 -83.5t-14 -110.5t18 -126q17 -65 47 -118t67 -88.5t78.5 -50.5t80.5 -5q25 6 48 25q-60 48 -96 123t-36 165zM466 299q11 -44 29 -82.5t40 -70.5q19 51 20.5 117t-17.5 138q-12 45 -30 83t-40 70q-19 -51 -20.5 -117t18.5 -138z" />
    <glyph glyph-name="uniF01B" unicode="&#xf01b;" horiz-adv-x="936" 
d="M635 664q-34 8 -64 -1q-25 -6 -48 -25q60 -48 96 -123t36 -165q0 -72 -23 -134.5t-64 -110.5q39 -42 83.5 -61t87.5 -7q48 13 79.5 57.5t42.5 109.5v-122q-37 -36 -91.5 -59t-114.5 -23q-42 0 -80.5 12t-72.5 35q-34 -23 -73 -35t-81 -12q-63 0 -119 27.5t-98 75
t-66 111.5t-24 136t24 136t66 111.5t98 75t119 27.5q42 0 81 -12t73 -35q34 23 72.5 35t80.5 12q28 0 59 -6.5t60 -17.5q17 -6 33.5 -15t30.5 -20q17 -13 31 -29.5t21 -36.5q10 -25 7 -47.5t-16 -41.5q-18 -26 -50 -41q-11 29 -27 59.5t-36 59.5q-25 35 -57 60
q-36 30 -76 40zM348 350q0 72 23.5 134t64.5 110q-40 43 -84.5 62t-87.5 8q-39 -11 -67 -45t-42 -83.5t-14 -110.5t18 -126q17 -65 47 -118t67 -88.5t78.5 -50.5t80.5 -5q25 6 48 25q-60 48 -96 123t-36 165zM466 299q12 -45 29.5 -83.5t39.5 -70.5q19 52 20.5 118
t-17.5 138q-12 45 -30 83t-40 70q-19 -51 -20.5 -117t18.5 -138z" />
    <glyph glyph-name="uniF01C" unicode="&#xf01c;" horiz-adv-x="961" 
d="M635 664q-34 8 -64 -1q-25 -6 -48 -25q60 -48 96 -123t36 -165q0 -72 -23 -134.5t-64 -110.5q39 -42 83.5 -61t87.5 -7q24 6 41 19v157q0 26 -5.5 55t-20.5 52h160q-7 -10 -17 -35t-10 -72v-106q0 -48 10 -73t17 -34h-134v28q-59 -28 -125 -28q-42 0 -80.5 12t-73.5 35
q-34 -23 -72.5 -35t-80.5 -12q-64 0 -120 27.5t-97.5 75t-65.5 111.5t-24 136t24 136t65.5 111.5t97.5 75t120 27.5q42 0 80.5 -12t72.5 -35q35 23 73.5 35t80.5 12q28 0 59 -6.5t60 -17.5q34 -12 64 -35q17 -13 31 -29.5t22 -36.5q9 -25 6 -47.5t-16 -41.5q-18 -26 -50 -41
q-11 29 -27 59.5t-36 59.5q-25 35 -57 60q-36 30 -76 40zM348 350q0 72 23 134t65 110q-40 43 -84.5 62t-87.5 8q-39 -11 -67 -45t-42 -83.5t-14 -110.5t18 -126q17 -65 47 -118t67 -88.5t78.5 -50.5t80.5 -5q25 6 48 25q-60 48 -96 123t-36 165zM466 299q11 -45 29 -83.5
t40 -70.5q19 52 20.5 118t-17.5 138q-12 45 -30 83t-40 70q-19 -51 -20.5 -117t18.5 -138z" />
    <glyph glyph-name="uniF01D" unicode="&#xf01d;" horiz-adv-x="765" 
d="M206 678h-53q-27 0 -48 -14.5t-37 -38.5t-27 -54.5t-19 -63.5v193h721v-193q-8 33 -19.5 63.5t-27 54.5t-36.5 38.5t-48 14.5h-54v-571q0 -26 5.5 -55t21.5 -52h-160q16 23 21.5 52t5.5 55v571h-139v-571q0 -26 5.5 -55t20.5 -52h-159q15 23 20.5 52t5.5 55v571z" />
    <glyph glyph-name="uniF01E" unicode="&#xf01e;" horiz-adv-x="689" 
d="M52 0q16 23 21.5 52t5.5 55v486q0 26 -5.5 55t-21.5 52h160q-16 -23 -21.5 -52t-5.5 -55v-571h43q20 0 40.5 2t40.5 7q26 6 50.5 19t42.5 33q13 14 22 31t12 36q30 -17 38 -44t-1 -52q-8 -23 -27.5 -38.5t-47.5 -15.5h-346zM286 194q16 23 21.5 52t5.5 55v292
q0 26 -5.5 55t-21.5 52h160q-15 -23 -21 -52t-6 -55v-377q42 0 82 9q26 6 50.5 19.5t42.5 33.5q27 28 34 67q29 -17 37 -44t0 -53q-8 -23 -27.5 -38.5t-48.5 -15.5h-303z" />
    <glyph glyph-name="uniF01F" unicode="&#xf01f;" horiz-adv-x="693" 
d="M52 0q16 23 21.5 52t5.5 55v486q0 26 -5.5 55t-21.5 52h160q-15 -23 -21 -52t-6 -55v-571h43q20 0 40.5 2t40.5 7q26 6 50.5 19t42.5 33q13 14 22 31t12 36q30 -17 38 -44t-1 -52q-8 -23 -27.5 -38.5t-47.5 -15.5h-346zM400 210h16q51 0 84 29.5t53 75.5q13 30 19.5 64
t6.5 68.5t-6.5 68.5t-19.5 63q-20 46 -53 75.5t-84 29.5h-16v-474zM294 700h163q45 0 79.5 -18t59.5 -47q30 -36 45 -85.5t15 -102t-15 -102t-45 -85.5q-25 -30 -59.5 -48t-79.5 -18h-163q11 17 15 37.5t4 40.5v351q0 19 -4 39.5t-15 37.5z" />
    <glyph glyph-name="uniF020" unicode="&#xf020;" horiz-adv-x="739" 
d="M483 700q46 0 86.5 -20t70.5 -54t47.5 -80t17.5 -99q0 -52 -17.5 -98t-47.5 -80.5t-70.5 -54.5t-86.5 -20t-86.5 20t-70.5 54.5t-47.5 80.5t-17.5 98q0 53 17.5 99t47.5 80t70.5 54t86.5 20zM52 0q15 23 21 52t6 55v486q0 26 -6 55t-21 52h160q-16 -23 -21.5 -52
t-5.5 -55v-571h42q20 0 41 2t41 7q26 6 50.5 19t42.5 33q13 14 22 31t12 36q30 -17 38 -44t-1 -52q-8 -23 -27.5 -38.5t-47.5 -15.5h-346zM346 410q13 -47 34.5 -85.5t48.5 -64t57 -36.5t58 -3t48 32t30.5 60t10.5 80t-13 91q-12 47 -34 85.5t-49 64t-56.5 37t-58.5 3.5
q-28 -8 -48 -32.5t-30.5 -60t-10 -80t12.5 -91.5z" />
    <glyph glyph-name="uniF027" unicode="&#xf027;" horiz-adv-x="731" 
d="M553 369q0 17 -2 32.5t-4 26.5q-5 19 -11 30t-10 18q12 0 31.5 1.5t39.5 5.5t37.5 9.5t24.5 13.5v-399q0 -48 10 -72.5t17 -34.5h-160q16 23 21.5 52t5.5 55v262zM674 631q0 -29 -19.5 -49t-48.5 -20q-30 0 -49 21q-27 27 -60 24q-23 -3 -45 -19.5t-38 -39.5l-13 -18
l-42 -60q38 -27 61.5 -69.5t23.5 -93.5q0 -41 -15.5 -77t-42.5 -63t-63.5 -43t-77.5 -16q-27 0 -52 7t-47 19l-2 2l-66 -88l10 5q35 18 79.5 28.5t89.5 10.5q32 0 69 -8t66 -28q20 -13 33 -31.5t17 -44.5q6 -45 -18 -82t-62 -59q-30 -18 -64 -24.5t-64 -7.5q-39 0 -80 15
q-24 9 -43.5 29t-27.5 44q-10 29 0.5 58t39.5 40q13 5 33 7q23 0 42 -12q-31 -25 -31 -56q-2 -30 18.5 -53.5t50.5 -34.5q32 -11 66 -8.5t55 15.5q30 18 33 50q6 37 -24 69q-13 14 -29 23.5t-32 14.5q-26 8 -52 11.5t-46 3.5q-38 -1 -71.5 -8.5t-55.5 -22.5l-33 44l83 109
q-38 27 -61 69t-23 93q0 41 15.5 77.5t42.5 63.5t63.5 42.5t77.5 15.5q27 0 52.5 -7t47.5 -20q2 4 10 15.5t32 46.5q3 5 6.5 9t6.5 9q2 5 7 12t7 11q15 21 31.5 42.5t36.5 38t45 27t57 10.5q15 0 29 -2t24 -7q17 -8 27 -24t10 -36zM291 134q16 4 26.5 21.5t14.5 43.5
t1.5 59.5t-11.5 69.5q-10 36 -24.5 65.5t-31 50.5t-34 31t-33.5 5q-16 -4 -26.5 -21.5t-15 -43.5t-2 -59.5t12.5 -69.5t24.5 -66t31 -50.5t34 -30t33.5 -5.5z" />
    <glyph glyph-name="uniF028" unicode="&#xf028;" horiz-adv-x="513" 
d="M181 107q0 -48 10 -73t17 -34h-160q15 23 21 52t6 55v262q0 17 -2 32.5t-5 26.5q-4 19 -10 30t-10 18q12 0 31.5 1.5t39.5 5.5t37.5 9.5t24.5 13.5v-45q12 8 21 23.5t16 29.5q15 28 31.5 65t39.5 68q16 21 39.5 35.5t50.5 15.5q13 1 26.5 -2.5t24.5 -11.5
q11 -10 18 -23.5t7 -29.5q0 -29 -20 -49t-48 -20q-60 0 -109 -34q-27 -18 -48 -44t-33 -56q-16 -38 -16 -90v-231zM334 369q0 17 -2 32.5t-5 26.5q-4 19 -10 30t-10 18q12 0 31.5 1.5t39.5 5.5t37.5 9.5t24.5 13.5v-399q0 -48 10 -73t16 -34h-159q15 23 21 52t6 55v262z" />
    <glyph glyph-name="uniF029" unicode="&#xf029;" horiz-adv-x="827" 
d="M261 0q-45 0 -85 20t-70 54.5t-47.5 80.5t-17.5 98q0 39 10 74.5t27 65.5q27 45 65 72q28 22 62 32q9 2 18.5 3.5t19.5 3.5l-3 3q-25 25 -28 61q-2 22 8 44q9 20 29 35q24 19 51.5 27t56 9.5t58 -1.5t57.5 -7q7 -1 13.5 -1.5t11.5 -1.5q16 -3 32 -4q12 0 31.5 2t39.5 5.5
t37.5 9.5t24.5 14v-228h80v-21h-80v-237q-14 -7 -27 -16t-24 -20q-23 -24 -26 -48.5t8 -41.5q15 -23 34.5 -25t39.5 9q15 8 29 22t26 29.5t20.5 32t11.5 30.5q35 -31 40 -70t-15 -70q-13 -20 -39 -32.5t-56 -12.5t-52 10t-38 27q-29 35 -35 91q-2 17 -2.5 33.5t-0.5 33.5
v255h-25v21h25v45q0 31 -15 55.5t-39 42.5t-58.5 30t-69.5 15q-32 2 -61 -4.5t-52 -23.5q-15 -12 -22 -28q-8 -15 -6 -34q2 -28 21 -47q12 -12 27 -16q23 0 46.5 -4.5t45.5 -13.5q37 -17 61.5 -50t16.5 -75q-4 -22 -15 -36.5t-26.5 -22.5t-32.5 -9.5t-33 4.5
q-17 6 -31.5 19.5t-20.5 33.5q22 -4 39.5 6.5t27.5 27.5q11 20 6 45.5t-34 42.5q-10 5 -22 8.5t-26 2.5q-45 -1 -77 -25.5t-49 -65.5q-17 -42 -16.5 -89.5t11.5 -87.5q8 -33 23 -62t36 -52q23 -25 54.5 -38.5t64.5 -13.5q32 -1 62 14t48 38l10 -10q-34 -48 -82.5 -70.5
t-106.5 -22.5z" />
    <glyph glyph-name="uniF02A" unicode="&#xf02a;" horiz-adv-x="551" 
d="M175 471h105v90q0 18 -2 33.5t-4 26.5q-5 19 -11 30t-10 17q12 0 31.5 2t39.5 5.5t37.5 9.5t24.5 14v-228h80v-21h-80v-237q-14 -7 -27 -16t-24 -20q-23 -24 -26.5 -48.5t7.5 -41.5q9 -13 19 -19q25 8 52 21q31 16 54.5 37t33.5 49v1l1 1v1v1h1v2v0l1 4l5 -4l5 -6l2 -2
l2 -2l2 -2l4 -7q1 -1 3 -4l2 -2l2 -4q1 -2 1.5 -2.5t1.5 -2.5l1 -2l1 -2l1 -3q0 -1 0.5 -2t0.5 -2l1 -3l1 -2q1 -2 1 -3.5t1 -3.5q0 -1 0.5 -2t0.5 -2q0 -2 0.5 -3.5t0.5 -3.5q0 -5 1 -7v-12l-1 -2v-2v-3v0v-2l-1 -2v-2l-1 -5l-1 -2l-1 -4l-4 -11v-2l-1 -2l-1 -2l-2 -2
l-1 -2l-1 -2l-1 -2q-13 -20 -39 -32.5t-56 -12.5h-132q-26 0 -52 3t-50 10.5t-44.5 20.5t-34.5 32q-19 27 -23 62q-2 17 -2.5 33.5t-0.5 33.5v255h-25v21h25v90q0 18 -2 33.5t-5 26.5q-4 19 -10 30t-10 17q12 0 31.5 2t39.5 5.5t37.5 9.5t24.5 14v-228zM229 51q32 -1 74 8
q-15 28 -20 69q-2 17 -2.5 33.5t-0.5 33.5v255h-105v-237q-15 -7 -30 -17.5t-26.5 -24t-17.5 -29.5t-3 -34q3 -16 14.5 -27t29.5 -17.5t40.5 -9.5t46.5 -3z" />
    <glyph glyph-name="uniF02B" unicode="&#xf02b;" horiz-adv-x="543" 
d="M173 463q25 21 55 33t63 12q44 0 82 -20t66.5 -54.5t45 -80.5t16.5 -99q0 -52 -16.5 -98.5t-45 -81t-66.5 -54.5t-82 -20q-54 0 -101 33q-28 17 -55 13q-43 -3 -68 -46v137.5t-0.5 144t-0.5 144v137.5q0 36 -6 60q-2 8 -4.5 15t-4.5 13q-38 -10 -86 -23.5t-99 -25.5
q-50 -11 -96.5 -18t-82.5 -4q-55 5 -87 28.5t-43 52.5q-7 19 -5.5 38.5t12 37t29.5 32t47 21.5q-5 -31 1 -53.5t20.5 -38.5t36 -26t47.5 -16q40 -9 85.5 -9t89.5 5q13 1 35 3.5t48.5 6t54 8t51.5 9t41 10t23 11.5v-119v-118zM233 473q-19 -5 -31 -20.5t-18.5 -36t-8.5 -42
t-2 -37.5q0 -52 15 -111q12 -45 31 -82.5t41 -63.5t45.5 -38.5t44.5 -6.5t35.5 28t20.5 55.5t3.5 76t-14.5 87.5t-31 83t-41 64t-45.5 38t-44.5 6z" />
    <glyph glyph-name="uniF02C" unicode="&#xf02c;" horiz-adv-x="572" 
d="M386 44q-26 -21 -57.5 -32.5t-65.5 -11.5q-46 0 -86 20t-70 54t-47.5 80.5t-17.5 98.5q0 53 17.5 99t47.5 80.5t70 54.5t86 20q34 0 65.5 -11.5t57.5 -32.5v99q0 36 -6 60q-2 8 -4.5 15t-4.5 13q-38 -10 -86.5 -23.5t-98.5 -25.5q-50 -11 -96.5 -18t-83.5 -4
q-54 5 -86 28.5t-43 52.5q-7 19 -5.5 38.5t12 37t29.5 32t47 21.5q-5 -31 1 -53.5t20.5 -38.5t36 -26t47.5 -16q36 -8 77.5 -8.5t81.5 3.5q17 1 57.5 5.5t85 11.5t81 15t45.5 17v-527v-23q0 -22 0.5 -43.5t4.5 -40t13 -35t25 -30.5v0q-32 7 -56 13.5t-41.5 9t-30 -2
t-22.5 -20.5v44zM386 179q0 49 -15 103q-12 46 -31.5 84t-42 64t-47 38t-47.5 6q-22 -6 -37.5 -28.5t-22 -56.5t-4 -76.5t14.5 -88.5t31.5 -84t42 -64t47.5 -38t47 -6q30 8 46.5 45t17.5 91v11z" />
    <glyph glyph-name="uniF02D" unicode="&#xf02d;" horiz-adv-x="500" 
d="M581 -170q36 4 71 13.5t65 25.5t53.5 38t36.5 51q22 -20 29 -44t2 -47q-7 -36 -30 -60q-19 -20 -43.5 -33.5t-51.5 -22t-54.5 -12.5t-52.5 -5q-24 -2 -48 0q-55 2 -99.5 15.5t-94.5 38.5q-17 8 -35 19q-51 30 -87 76.5t-61 104.5h18q21 -51 65.5 -83t99.5 -50
q24 18 27 45q3 18 -3.5 36.5t-21.5 33.5q-13 14 -29 23.5t-31 14.5q-26 8 -52 11t-46 3q-38 0 -72 -7.5t-56 -22.5l-33 43l83 110q-38 27 -61 69t-23 93q0 41 15.5 77.5t42.5 63.5t63.5 42.5t77.5 15.5q55 0 101 -26q4 6 7.5 13t8.5 14q10 17 27 34t38 17q19 -1 29.5 -16.5
t2.5 -35.5q-22 12 -47.5 7.5t-46.5 -34.5l-6 -8q39 -27 62.5 -70t23.5 -94q0 -41 -16 -77t-43 -63t-63.5 -43t-77.5 -16q-27 0 -51.5 7t-46.5 19l-3 2l-66 -88q3 2 5.5 3t5.5 2q35 18 79 28.5t90 10.5q32 0 69 -8t66 -28q20 -13 33 -31.5t16 -44.5q5 -40 -13 -73.5
t-49 -56.5q51 -15 103.5 -19.5t97.5 -0.5zM292 134q16 4 26 21.5t14.5 43.5t2 59.5t-12.5 69.5q-9 36 -23.5 66t-31.5 50.5t-34.5 30.5t-33.5 6t-26.5 -22t-14.5 -44t-1.5 -59t11.5 -69q10 -36 24.5 -66t31 -51t34.5 -30.5t34 -5.5z" />
    <glyph glyph-name="uniF02E" unicode="&#xf02e;" horiz-adv-x="509" 
d="M440 337q0 -61 -0.5 -115t-0.5 -115q0 -48 10.5 -73t16.5 -34h-159q15 23 20.5 52t5.5 55v232q0 68 -23 102t-54 34q-32 0 -54.5 -33.5t-22.5 -102.5v-232q0 -48 10 -73t16 -34h-160q16 23 21.5 52t5.5 55v455q0 36 -6 60q-2 8 -4.5 15t-4.5 13q-38 -10 -86.5 -23.5
t-98.5 -25.5q-50 -11 -96.5 -18t-83.5 -4q-54 5 -86 28.5t-43 52.5q-7 19 -5.5 38.5t12 37t29.5 32t47 21.5q-5 -31 1 -53.5t20.5 -38.5t36 -26t47.5 -16q44 -9 94 -8t96 6q17 2 53 6.5t74.5 10.5t70.5 13.5t40 16.5v-239q22 23 49.5 34.5t59.5 11.5q30 0 58 -9.5t48 -28.5
q23 -23 34.5 -56.5t11.5 -75.5z" />
    <glyph glyph-name="uniF02F" unicode="&#xf02f;" horiz-adv-x="462" 
d="M178 700v-413l57 39q11 7 24 17t24 21q15 17 18 35t-6 32q-11 16 -32 17t-38 -3q12 33 37.5 47.5t51.5 14.5q35 0 54.5 -16.5t21.5 -40.5q2 -17 -3 -30.5t-14.5 -24.5t-21.5 -20l-24 -18q-31 -22 -66 -46l100 -203q12 -24 22 -41t20.5 -29t21.5 -21t25 -17h-184
q14 25 6 52.5t-22 55.5l-72 145v-145q0 -48 10 -73t16 -35h-159q15 23 21 52.5t6 55.5v455q0 18 -2 33t-5 27q-2 8 -4.5 15t-4.5 13q-38 -10 -86 -23.5t-99 -25.5q-50 -11 -96.5 -18t-82.5 -4q-55 5 -87 28.5t-43 52.5q-7 19 -5.5 38.5t12 37t30 32t47.5 21.5
q-11 -61 20 -92t84 -42q46 -10 98.5 -8.5t100.5 7.5q17 2 51.5 6t71.5 10t67.5 13.5t38.5 15.5v0z" />
    <glyph glyph-name="uniF030" unicode="&#xf030;" horiz-adv-x="244" 
d="M179 45q0 -26 -2.5 -50t-14.5 -46q-26 -45 -61.5 -80t-78.5 -61q-8 -5 -16.5 -10t-17.5 -9q-26 -13 -49 -22.5t-46 -16t-47 -10.5t-52 -5q-24 -2 -48 0q-25 1 -52.5 5t-54.5 12.5t-51.5 22t-43.5 33.5q-24 26 -30 60q-5 23 2 47t28 43q13 -29 37 -51t54 -37.5t65 -25
t71 -13.5q44 -5 97.5 -1t104.5 19t95.5 41.5t70.5 68.5q9 14 4 22t-17 12.5t-27 6t-27 1.5v371q0 36 -6 58q-5 19 -10.5 30t-9.5 17q12 0 31.5 2t39.5 5.5t37.5 9.5t24.5 14v-463zM126 564q-29 0 -49 19.5t-20 48.5t20 48.5t49 19.5q28 0 48 -19.5t20 -48.5t-20 -48.5
t-48 -19.5z" />
    <glyph glyph-name="uniF031" unicode="&#xf031;" horiz-adv-x="250" 
d="M178 700v-592q0 -48 10 -73t16 -35h-159q15 23 21 52.5t6 55.5v455q0 18 -2 33t-5 27q-2 8 -4.5 15t-4.5 13q-38 -10 -86 -23.5t-99 -25.5q-50 -11 -96.5 -18t-82.5 -4q-55 5 -87 28.5t-43 52.5q-7 19 -5.5 38.5t12 37t29.5 32t47 21.5q-5 -31 1 -53.5t20.5 -38.5t36 -26
t47.5 -16q38 -8 81 -8.5t85 3.5q11 1 33 3.5t49.5 6t56.5 8t54.5 9.5t44 10.5t24.5 11.5z" />
    <glyph glyph-name="uniF032" unicode="&#xf032;" horiz-adv-x="570" 
d="M183 463q26 20 57.5 31.5t66.5 11.5q46 0 86 -20t70 -54t47 -80t17 -99q0 -52 -17 -98.5t-47 -81t-70 -54.5t-86 -20q-35 0 -66.5 11.5t-57.5 32.5v-99q0 -18 2 -33t4 -27q5 -18 10 -28q38 11 83 24t95 25q50 11 97 18t82 4q54 -5 86.5 -24t44.5 -45q8 -18 7 -36.5
t-12 -35.5t-31 -31t-49 -21q7 35 -2.5 59t-28.5 39q-15 12 -34.5 19.5t-40.5 11.5t-43 5t-42 0q-28 -1 -55.5 -4t-53.5 -8q-18 -3 -53 -8.5t-70.5 -12t-64.5 -14t-37 -15.5v528v23q0 23 -0.5 44t-4.5 39.5t-13 35.5t-26 30h1q32 -7 55.5 -13.5t41 -9t30 2t22.5 20.5v-43z
M183 328q0 -50 15 -104q12 -46 31.5 -84t42.5 -64t47.5 -38t46.5 -6q23 6 38 28.5t21.5 56.5t4.5 76.5t-14 88.5t-31.5 84t-42.5 64t-47 38t-47 6q-31 -8 -47.5 -45t-17.5 -91v-10z" />
    <glyph glyph-name="uniF033" unicode="&#xf033;" horiz-adv-x="542" 
d="M370 44q-26 -21 -56 -33t-63 -12q-43 0 -81 20t-66.5 54.5t-45 81t-16.5 98.5q0 53 16.5 99t45 80t66.5 54t81 20q56 0 102 -31q25 -17 54 -15q44 6 69 46v-562q0 -18 2 -33t5 -27q2 -8 4.5 -15t4.5 -13q38 11 83 24t95 25q50 11 97 18t83 4q54 -5 86.5 -24t43.5 -45
q9 -18 7.5 -36.5t-12 -35.5t-30.5 -31t-49 -21q6 35 -3 59t-29 39q-30 24 -74.5 30.5t-85.5 5.5q-26 -1 -51.5 -3.5t-49.5 -7.5q-11 -2 -31 -5t-44.5 -7t-50.5 -8.5t-48 -10t-38 -10.5t-21 -10v238zM310 34q19 5 31 21t18.5 36t8.5 41.5t2 37.5q0 53 -15 111q-12 45 -31 83
t-41 63.5t-45.5 38t-45.5 6.5q-21 -6 -35 -28t-20 -55.5t-3.5 -76t14.5 -87.5t31 -83t41 -63.5t45.5 -38t44.5 -6.5z" />
    <glyph glyph-name="uniF034" unicode="&#xf034;" horiz-adv-x="341" 
d="M70 562q0 18 -2 33t-5 27q-2 8 -4.5 15t-4.5 13q-38 -10 -86 -23.5t-99 -25.5q-50 -11 -96.5 -18t-82.5 -4q-55 5 -87 28.5t-43 52.5q-7 19 -5.5 38.5t12 37t30 32t47.5 21.5q-11 -61 20 -92t84 -42t115 -8t113 11q17 2 47.5 5.5t61.5 8.5t57 12t34 16v-228h80v-22h-80
v-237q-28 -13 -51 -36q-23 -24 -26.5 -48.5t7.5 -41.5q15 -23 35 -25t40 9q15 8 29 22t26 29.5t20.5 32t11.5 30.5q35 -31 40 -70.5t-15 -69.5q-13 -20 -39 -32.5t-56 -12.5q-58 0 -90 37q-15 17 -23.5 40t-12.5 51q-2 17 -2 33.5v33.5v255h-26v22h26v90v0z" />
    <glyph glyph-name="uniF035" unicode="&#xf035;" horiz-adv-x="468" 
d="M108 -193q-8 -5 -17 -9.5t-18 -8.5q-50 -26 -94.5 -39t-99.5 -15q-24 -2 -48 0q-25 1 -52.5 5t-54.5 12t-51.5 21.5t-43.5 33.5q-11 13 -18.5 28t-11.5 33q-5 23 2 47t29 43q12 -29 35.5 -51t54 -37.5t65.5 -25t71 -13.5q53 -5 117 1.5t123 29.5q38 14 65.5 33t48.5 45
q11 13 19 28t16 32h-56l-117 413q-11 36 -26.5 61t-37.5 33h178q-11 -4 -15.5 -13.5t-4 -22t4 -27.5t7.5 -31l95 -346q5 12 13 29t17 36.5t18 40.5t16 40q9 23 15 50t8 55q1 21 -2 42.5t-11 40.5q-13 28 -37 42q-18 11 -46 13q11 30 36 46.5t52 17.5q26 1 47 -12.5t30 -42.5
q7 -22 5 -45.5t-8 -47.5q-8 -31 -20.5 -60t-23.5 -54l-101 -235q-12 -28 -23.5 -52t-25.5 -45q-22 -35 -50.5 -63.5t-73.5 -55.5z" />
    <glyph glyph-name="uniF036" unicode="&#xf036;" horiz-adv-x="502" 
d="M440 337v-158v0v-141q0 -45 0.5 -78.5t2.5 -58.5q4 -35 14.5 -51t22.5 -17q9 -1 16 4t11.5 13.5t6 20t-0.5 23.5q-3 17 -14 33.5t-32 30.5q26 16 48.5 18t40 -5.5t29 -22t15.5 -31.5q5 -18 0 -37.5t-21.5 -35.5t-45.5 -26.5t-72 -10.5q-50 0 -76 25.5t-37.5 67.5
t-12.5 94.5t-1 106.5v78q-1 40 -1 78.5v81.5q0 68 -22.5 102t-54.5 34t-54.5 -33.5t-22.5 -102.5v-232q0 -48 10 -73t17 -34h-160q15 23 21 52t6 55v455q0 18 -2 33t-5 27q-4 19 -10 30t-10 17q12 0 31.5 2t39.5 5.5t37.5 9.5t24.5 13v-238q23 23 50 34t59 12q30 0 58 -9.5
t48 -28.5q23 -23 34.5 -56.5t11.5 -75.5z" />
    <glyph glyph-name="uniF037" unicode="&#xf037;" horiz-adv-x="762" 
d="M396 470q8 -8 14 -16.5t11 -18.5q5 8 13.5 19t18.5 19q20 18 45 26.5t52 8.5q30 0 58 -9.5t48 -28.5q23 -23 34.5 -56.5t11.5 -75.5v-158v-141q0 -45 0.5 -78.5t2.5 -58.5q4 -35 14.5 -51t22.5 -17q9 -1 16 4t11.5 13.5t6 20t-0.5 23.5q-3 17 -14 33.5t-32 29.5
q26 16 48.5 18t40 -5t29 -21.5t15.5 -31.5q5 -18 0 -37.5t-21.5 -36t-45.5 -27t-72 -10.5q-50 0 -76 26t-37.5 67.5t-13 94.5t-1.5 107v78v160q0 68 -22.5 102t-54.5 34q-30 0 -52.5 -31.5t-24.5 -95.5v-9v-232q0 -48 10 -73t17 -35h-160q16 23 21.5 52.5t5.5 55.5v146v86
q0 68 -23 102t-55 34q-31 0 -53.5 -33.5t-23.5 -102.5v-232q0 -48 10.5 -73t16.5 -35h-160q16 23 21.5 52.5t5.5 55.5v262q0 18 -2 33t-4 27q-5 18 -11 29.5t-10 17.5q12 0 31.5 2t39.5 5.5t37.5 9.5t24.5 13v-45q23 23 50 34t59 12q30 0 58.5 -9.5t48.5 -28.5z" />
    <glyph glyph-name="uniF038" unicode="&#xf038;" horiz-adv-x="502" 
d="M441 337v-158v-141q0 -45 1 -78.5t3 -58.5q3 -35 13.5 -51t22.5 -17q9 -1 16 4t11.5 13.5t6 20t-0.5 23.5q-3 17 -14 33.5t-32 30.5q27 16 49.5 18t39.5 -5.5t28.5 -22t15.5 -31.5q5 -18 0 -37.5t-21.5 -35.5t-45.5 -26.5t-72 -10.5q-50 0 -76 25.5t-37.5 67.5
t-12.5 94.5t-1 106.5v78q0 40 -0.5 78.5t-0.5 81.5q0 68 -22.5 102t-54.5 34t-54.5 -33.5t-22.5 -102.5v-232q0 -48 10.5 -73t16.5 -34h-160q15 23 21 52t6 55v262q0 18 -2 33t-5 27q-4 18 -10 29.5t-10 17.5q12 0 31.5 2t39.5 5.5t37.5 9.5t24.5 13v-45q23 23 50 34t59 12
q30 0 58.5 -9.5t48.5 -28.5q23 -23 34 -56.5t11 -75.5z" />
    <glyph glyph-name="uniF039" unicode="&#xf039;" horiz-adv-x="378" 
d="M70 562q0 18 -2 33t-5 27q-4 19 -10 30t-10 17q12 0 31.5 2t39.5 5.5t37.5 9.5t24.5 13v-211q2 1 5 1.5t5 1.5q72 19 132.5 48t119.5 61q34 19 68 36.5t71 34.5q29 13 60 20.5t66 7.5q41 0 65.5 -24.5t27.5 -56.5q1 -16 -4.5 -32t-18 -28.5t-33.5 -21t-51 -10.5
q8 14 8 28.5t-6.5 25.5t-19 18t-30.5 7q-29 1 -77 -14.5t-105 -36.5q-35 -13 -71.5 -27t-71.5 -26.5t-67.5 -22t-59.5 -14.5q-8 -2 -13 -2v-249q-28 -13 -51 -36q-23 -24 -26 -48.5t8 -41.5q14 -23 34 -25t40 9q15 8 29 22t26 29.5t20.5 32t11.5 30.5q35 -31 40 -70.5
t-15 -69.5q-13 -20 -39 -32.5t-55 -12.5q-59 0 -91 37q-27 33 -35 91q-2 17 -2.5 33.5t-0.5 33.5v256q-7 -1 -13 -1h-12v22h25v90z" />
    <glyph glyph-name="s_t" unicode="&#xfb06;" horiz-adv-x="793" 
d="M275 322q26 -17 51 -35t47 -43q22 -24 32 -49.5t9 -51.5q-2 -21 -9.5 -41.5t-22.5 -38.5q-30 -36 -73.5 -50t-89.5 -14q-29 0 -55.5 5.5t-46.5 15.5q-22 11 -39 28.5t-27 37.5q-11 25 -7.5 52t18.5 47q12 17 31.5 26t44.5 4q19 -3 34.5 -15.5t21.5 -35.5q-20 4 -39 -10.5
t-25 -34.5q-5 -17 -0.5 -36t17.5 -35q11 -14 30 -23.5t42 -9.5q22 0 41.5 9t33.5 24q14 14 20.5 32.5t4.5 39.5q-6 40 -37 69q-20 20 -43 36t-47 32q-29 20 -57 40t-49 46q-12 16 -19.5 33.5t-7.5 35.5q0 26 18 50t51 35q18 6 38 8t39 2v0q-25 25 -28 61q0 11 2 22t7 22
q10 21 28 35q24 19 51.5 27t56 9.5t58 -1.5t57.5 -7q7 -1 13.5 -1.5t11.5 -1.5q16 -3 32 -4q12 0 31.5 2t39.5 5.5t37.5 9.5t24.5 14v-228h80v-21h-80v-237q-14 -7 -27 -16t-24 -20q-23 -24 -26 -48.5t8 -41.5q15 -23 34.5 -25t39.5 9q15 8 29 22t26 29.5t20.5 32t12.5 30.5
q35 -31 39.5 -70t-14.5 -70q-14 -20 -40 -32.5t-55 -12.5q-31 0 -53 10t-37 27t-23.5 40t-12.5 51q-2 17 -2.5 33.5t-0.5 33.5v255h-25v21h25v45q0 31 -15 55.5t-39 42.5t-58 30t-70 15q-32 2 -61 -4.5t-51 -23.5q-16 -12 -22 -28q-8 -17 -7 -34q3 -29 21 -47q12 -12 30 -17
q27 -2 46.5 -6.5t37.5 -3.5q21 0 36 10v-173q-9 25 -21.5 53t-29.5 51q-8 11 -16.5 20.5t-17.5 16.5q-11 9 -29.5 13.5t-34.5 5.5q-46 1 -61 -23q-11 -17 -6 -39t28 -42q22 -20 46 -35.5t48 -30.5z" />
    </font>
</defs>
</svg>
